<?xml version="1.0" encoding="UTF-8"?><svg id="Layer_1" xmlns="http://www.w3.org/2000/svg" viewBox="0 0 797.19 536.95"><defs><style>.cls-1{fill:#a67c52;}.cls-1,.cls-2,.cls-3,.cls-4{stroke:#603813;stroke-miterlimit:10;}.cls-2{fill:#42210b;}.cls-3,.cls-4{fill:#754c24;}.cls-4{stroke-width:45.44px;}</style></defs><path class="cls-3" d="m35.36,88.25c-1.04.58-8.29,4.56-8.48,10.9-.15,5,4.15,8.68,5.45,9.69,5.73,4.45,13.13,3.75,15.15,3.63,17.77-1.01,29.06,20.51,52.71,30.29,22.63,9.36,54.04,6.92,73.91-7.27,9.57-6.84,11.41-12.79,24.23-18.78,4.63-2.17,20.34-9.51,36.96-4.85,10.68,3,10.7,7.86,26.05,18.17,10.95,7.35,25.84,17.35,44.83,18.17,16.48.71,29.92-5.75,39.38-10.3,11.69-5.62,11.37-8.1,26.66-15.75,15.67-7.84,23.71-11.74,33.93-10.3,6.69.94,12.14,4.06,23.02,10.3,8.58,4.92,8.45,5.97,17.57,11.51,11.25,6.83,18.32,11.12,28.47,13.33,9.32,2.03,16.9,1.36,25.44.61,7.87-.69,14.85-1.31,22.42-4.24,14.55-5.64,15.26-13.62,28.47-21.81,2.37-1.47,18.42-11.13,36.96-9.09,12.26,1.35,13.87,6.53,43.01,21.81,16.47,8.64,24.7,12.95,32.11,13.93,22.58,2.99,43.24-8.56,47.25-10.9,3.82-2.23,9.7-6.12,24.84-15.15,8.08-4.82,9.8-5.74,12.72-6.66,9.69-3.08,14.43-.51,21.2-4.85,1.65-1.06,7.04-4.51,7.27-9.69.29-6.46-7.62-11.03-8.48-11.51-1.77-.99-9.88-5.16-28.47,1.82-17.37,6.52-18.26,13.14-37.56,22.42-10.21,4.91-17.2,8.27-27.26,8.48-16.55.36-29.85-8.05-33.32-10.3-9.74-6.32-10.27-10.53-20.6-15.75-8.03-4.06-14.96-5.19-20.6-6.06-6.87-1.06-27.63-4.27-50.28,4.24-24.82,9.32-21.93,21.45-44.83,27.26-5.17,1.31-24.79,6.29-39.38-3.63-6.91-4.71-5.78-8.05-14.54-15.15-10.69-8.66-21.81-11.31-30.29-13.33-8.96-2.14-22.16-5.28-38.17-1.21-2.9.74-13.38,3.62-24.23,11.51-9.58,6.97-10.25,11.15-18.17,16.36-10.65,7-21.78,7.57-27.87,7.88-37.58,1.9-50.33-36.17-92.09-36.96-7.31-.14-26.3-.49-42.41,10.9-6.22,4.4-7.91,7.65-16.96,13.33-7.66,4.8-17.2,10.78-29.69,11.51-12.81.75-22.57-4.39-31.5-9.09-15.05-7.92-13.86-12.56-28.47-19.99-7.15-3.64-24.04-12.23-36.35-5.45Z"/><path class="cls-3" d="m35.07,186.34c-1.04.58-8.29,4.56-8.48,10.9-.15,5,4.15,8.68,5.45,9.69,5.73,4.45,13.13,3.75,15.15,3.63,17.77-1.01,29.06,20.51,52.71,30.29,22.63,9.36,54.04,6.92,73.91-7.27,9.57-6.84,11.41-12.79,24.23-18.78,4.63-2.17,20.34-9.51,36.96-4.85,10.68,3,10.7,7.86,26.05,18.17,10.95,7.35,25.84,17.35,44.83,18.17,16.48.71,29.92-5.75,39.38-10.3,11.69-5.62,11.37-8.1,26.66-15.75,15.67-7.84,23.71-11.74,33.93-10.3,6.69.94,12.14,4.06,23.02,10.3,8.58,4.92,8.45,5.97,17.57,11.51,11.25,6.83,18.32,11.12,28.47,13.33,9.32,2.03,16.9,1.36,25.44.61,7.87-.69,14.85-1.31,22.42-4.24,14.55-5.64,15.26-13.62,28.47-21.81,2.37-1.47,18.42-11.13,36.96-9.09,12.26,1.35,13.87,6.53,43.01,21.81,16.47,8.64,24.7,12.95,32.11,13.93,22.58,2.99,43.24-8.56,47.25-10.9,3.82-2.23,9.7-6.12,24.84-15.15,8.08-4.82,9.8-5.74,12.72-6.66,9.69-3.08,14.43-.51,21.2-4.85,1.65-1.06,7.04-4.51,7.27-9.69.29-6.46-7.62-11.03-8.48-11.51-1.77-.99-9.88-5.16-28.47,1.82-17.37,6.52-18.26,13.14-37.56,22.42-10.21,4.91-17.2,8.27-27.26,8.48-16.55.36-29.85-8.05-33.32-10.3-9.74-6.32-10.27-10.53-20.6-15.75-8.03-4.06-14.96-5.19-20.6-6.06-6.87-1.06-27.63-4.27-50.28,4.24-24.82,9.32-21.93,21.45-44.83,27.26-5.17,1.31-24.79,6.29-39.38-3.63-6.91-4.71-5.78-8.05-14.54-15.15-10.69-8.66-21.81-11.31-30.29-13.33-8.96-2.14-22.16-5.28-38.17-1.21-2.9.74-13.38,3.62-24.23,11.51-9.58,6.97-10.25,11.15-18.17,16.36-10.65,7-21.78,7.57-27.87,7.88-37.58,1.9-50.33-36.17-92.09-36.96-7.31-.14-26.3-.49-42.41,10.9-6.22,4.4-7.91,7.65-16.96,13.33-7.66,4.8-17.2,10.78-29.69,11.51-12.81.75-22.57-4.39-31.5-9.09-15.05-7.92-13.86-12.56-28.47-19.99-7.15-3.64-24.04-12.23-36.35-5.45Z"/><path class="cls-3" d="m34.76,475.98c-1.04.58-8.29,4.56-8.48,10.9-.15,5,4.15,8.68,5.45,9.69,5.73,4.45,13.13,3.75,15.15,3.63,17.77-1.01,29.06,20.51,52.71,30.29,22.63,9.36,54.04,6.92,73.91-7.27,9.57-6.84,11.41-12.79,24.23-18.78,4.63-2.17,20.34-9.51,36.96-4.85,10.68,3,10.7,7.86,26.05,18.17,10.95,7.35,25.84,17.35,44.83,18.17,16.48.71,29.92-5.75,39.38-10.3,11.69-5.62,11.37-8.1,26.66-15.75,15.67-7.84,23.71-11.74,33.93-10.3,6.69.94,12.14,4.06,23.02,10.3,8.58,4.92,8.45,5.97,17.57,11.51,11.25,6.83,18.32,11.12,28.47,13.33,9.32,2.03,16.9,1.36,25.44.61,7.87-.69,14.85-1.31,22.42-4.24,14.55-5.64,15.26-13.62,28.47-21.81,2.37-1.47,18.42-11.13,36.96-9.09,12.26,1.35,13.87,6.53,43.01,21.81,16.47,8.64,24.7,12.95,32.11,13.93,22.58,2.99,43.24-8.56,47.25-10.9,3.82-2.23,9.7-6.12,24.84-15.15,8.08-4.82,9.8-5.74,12.72-6.66,9.69-3.08,14.43-.51,21.2-4.85,1.65-1.06,7.04-4.51,7.27-9.69.29-6.46-7.62-11.03-8.48-11.51-1.77-.99-9.88-5.16-28.47,1.82-17.37,6.52-18.26,13.14-37.56,22.42-10.21,4.91-17.2,8.27-27.26,8.48-16.55.36-29.85-8.05-33.32-10.3-9.74-6.32-10.27-10.53-20.6-15.75-8.03-4.06-14.96-5.19-20.6-6.06-6.87-1.06-27.63-4.27-50.28,4.24-24.82,9.32-21.93,21.45-44.83,27.26-5.17,1.31-24.79,6.29-39.38-3.63-6.91-4.71-5.78-8.05-14.54-15.15-10.69-8.66-21.81-11.31-30.29-13.33-8.96-2.14-22.16-5.28-38.17-1.21-2.9.74-13.38,3.62-24.23,11.51-9.58,6.97-10.25,11.15-18.17,16.36-10.65,7-21.78,7.57-27.87,7.88-37.58,1.9-50.33-36.17-92.09-36.96-7.31-.14-26.3-.49-42.41,10.9-6.22,4.4-7.91,7.65-16.96,13.33-7.66,4.8-17.2,10.78-29.69,11.51-12.81.75-22.57-4.39-31.5-9.09-15.05-7.92-13.86-12.56-28.47-19.99-7.15-3.64-24.04-12.23-36.35-5.45Z"/><path class="cls-3" d="m34.49,284.49c-1.04.58-8.29,4.56-8.48,10.9-.15,5,4.15,8.68,5.45,9.69,5.73,4.45,13.13,3.75,15.15,3.63,17.77-1.01,29.06,20.51,52.71,30.29,22.63,9.36,54.04,6.92,73.91-7.27,9.57-6.84,11.41-12.79,24.23-18.78,4.63-2.17,20.34-9.51,36.96-4.85,10.68,3,10.7,7.86,26.05,18.17,10.95,7.35,25.84,17.35,44.83,18.17,16.48.71,29.92-5.75,39.38-10.3,11.69-5.62,11.37-8.1,26.66-15.75,15.67-7.84,23.71-11.74,33.93-10.3,6.69.94,12.14,4.06,23.02,10.3,8.58,4.92,8.45,5.97,17.57,11.51,11.25,6.83,18.32,11.12,28.47,13.33,9.32,2.03,16.9,1.36,25.44.61,7.87-.69,14.85-1.31,22.42-4.24,14.55-5.64,15.26-13.62,28.47-21.81,2.37-1.47,18.42-11.13,36.96-9.09,12.26,1.35,13.87,6.53,43.01,21.81,16.47,8.64,24.7,12.95,32.11,13.93,22.58,2.99,43.24-8.56,47.25-10.9,3.82-2.23,9.7-6.12,24.84-15.15,8.08-4.82,9.8-5.74,12.72-6.66,9.69-3.08,14.43-.51,21.2-4.85,1.65-1.06,7.04-4.51,7.27-9.69.29-6.46-7.62-11.03-8.48-11.51-1.77-.99-9.88-5.16-28.47,1.82-17.37,6.52-18.26,13.14-37.56,22.42-10.21,4.91-17.2,8.27-27.26,8.48-16.55.36-29.85-8.05-33.32-10.3-9.74-6.32-10.27-10.53-20.6-15.75-8.03-4.06-14.96-5.19-20.6-6.06-6.87-1.06-27.63-4.27-50.28,4.24-24.82,9.32-21.93,21.45-44.83,27.26-5.17,1.31-24.79,6.29-39.38-3.63-6.91-4.71-5.78-8.05-14.54-15.15-10.69-8.66-21.81-11.31-30.29-13.33-8.96-2.14-22.16-5.28-38.17-1.21-2.9.74-13.38,3.62-24.23,11.51-9.58,6.97-10.25,11.15-18.17,16.36-10.65,7-21.78,7.57-27.87,7.88-37.58,1.9-50.33-36.17-92.09-36.96-7.31-.14-26.3-.49-42.41,10.9-6.22,4.4-7.91,7.65-16.96,13.33-7.66,4.8-17.2,10.78-29.69,11.51-12.81.75-22.57-4.39-31.5-9.09-15.05-7.92-13.86-12.56-28.47-19.99-7.15-3.64-24.04-12.23-36.35-5.45Z"/><path class="cls-3" d="m35.7,382.63c-1.04.58-8.29,4.56-8.48,10.9-.15,5,4.15,8.68,5.45,9.69,5.73,4.45,13.13,3.75,15.15,3.63,17.77-1.01,29.06,20.51,52.71,30.29,22.63,9.36,54.04,6.92,73.91-7.27,9.57-6.84,11.41-12.79,24.23-18.78,4.63-2.17,20.34-9.51,36.96-4.85,10.68,3,10.7,7.86,26.05,18.17,10.95,7.35,25.84,17.35,44.83,18.17,16.48.71,29.92-5.75,39.38-10.3,11.69-5.62,11.37-8.1,26.66-15.75,15.67-7.84,23.71-11.74,33.93-10.3,6.69.94,12.14,4.06,23.02,10.3,8.58,4.92,8.45,5.97,17.57,11.51,11.25,6.83,18.32,11.12,28.47,13.33,9.32,2.03,16.9,1.36,25.44.61,7.87-.69,14.85-1.31,22.42-4.24,14.55-5.64,15.26-13.62,28.47-21.81,2.37-1.47,18.42-11.13,36.96-9.09,12.26,1.35,13.87,6.53,43.01,21.81,16.47,8.64,24.7,12.95,32.11,13.93,22.58,2.99,43.24-8.56,47.25-10.9,3.82-2.23,9.7-6.12,24.84-15.15,8.08-4.82,9.8-5.74,12.72-6.66,9.69-3.08,14.43-.51,21.2-4.85,1.65-1.06,7.04-4.51,7.27-9.69.29-6.46-7.62-11.03-8.48-11.51-1.77-.99-9.88-5.16-28.47,1.82-17.37,6.52-18.26,13.14-37.56,22.42-10.21,4.91-17.2,8.27-27.26,8.48-16.55.36-29.85-8.05-33.32-10.3-9.74-6.32-10.27-10.53-20.6-15.75-8.03-4.06-14.96-5.19-20.6-6.06-6.87-1.06-27.63-4.27-50.28,4.24-24.82,9.32-21.93,21.45-44.83,27.26-5.17,1.31-24.79,6.29-39.38-3.63-6.91-4.71-5.78-8.05-14.54-15.15-10.69-8.66-21.81-11.31-30.29-13.33-8.96-2.14-22.16-5.28-38.17-1.21-2.9.74-13.38,3.62-24.23,11.51-9.58,6.97-10.25,11.15-18.17,16.36-10.65,7-21.78,7.57-27.87,7.88-37.58,1.9-50.33-36.17-92.09-36.96-7.31-.14-26.3-.49-42.41,10.9-6.22,4.4-7.91,7.65-16.96,13.33-7.66,4.8-17.2,10.78-29.69,11.51-12.81.75-22.57-4.39-31.5-9.09-15.05-7.92-13.86-12.56-28.47-19.99-7.15-3.64-24.04-12.23-36.35-5.45Z"/><path class="cls-3" d="m30.83,167.45c-1.04.58-8.29,4.56-8.48,10.9-.15,5,4.15,8.68,5.45,9.69,5.73,4.45,13.13,3.75,15.15,3.63,17.77-1.01,29.06,20.51,52.71,30.29,22.63,9.36,54.04,6.92,73.91-7.27,9.57-6.84,11.41-12.79,24.23-18.78,4.63-2.17,20.34-9.51,36.96-4.85,10.68,3,10.7,7.86,26.05,18.17,10.95,7.35,25.84,17.35,44.83,18.17,16.48.71,29.92-5.75,39.38-10.3,11.69-5.62,11.37-8.1,26.66-15.75,15.67-7.84,23.71-11.74,33.93-10.3,6.69.94,12.14,4.06,23.02,10.3,8.58,4.92,8.45,5.97,17.57,11.51,11.25,6.83,18.32,11.12,28.47,13.33,9.32,2.03,16.9,1.36,25.44.61,7.87-.69,14.85-1.31,22.42-4.24,14.55-5.64,15.26-13.62,28.47-21.81,2.37-1.47,18.42-11.13,36.96-9.09,12.26,1.35,13.87,6.53,43.01,21.81,16.47,8.64,24.7,12.95,32.11,13.93,22.58,2.99,43.24-8.56,47.25-10.9,3.82-2.23,9.7-6.12,24.84-15.15,8.08-4.82,9.8-5.74,12.72-6.66,9.69-3.08,14.43-.51,21.2-4.85,1.65-1.06,7.04-4.51,7.27-9.69.29-6.46-7.62-11.03-8.48-11.51-1.77-.99-9.88-5.16-28.47,1.82-17.37,6.52-18.26,13.14-37.56,22.42-10.21,4.91-17.2,8.27-27.26,8.48-16.55.36-29.85-8.05-33.32-10.3-9.74-6.32-10.27-10.53-20.6-15.75-8.03-4.06-14.96-5.19-20.6-6.06-6.87-1.06-27.63-4.27-50.28,4.24-24.82,9.32-21.93,21.45-44.83,27.26-5.17,1.31-24.79,6.29-39.38-3.63-6.91-4.71-5.78-8.05-14.54-15.15-10.69-8.66-21.81-11.31-30.29-13.33-8.96-2.14-22.16-5.28-38.17-1.21-2.9.74-13.38,3.62-24.23,11.51-9.58,6.97-10.25,11.15-18.17,16.36-10.65,7-21.78,7.57-27.87,7.88-37.58,1.9-50.33-36.17-92.09-36.96-7.31-.14-26.3-.49-42.41,10.9-6.22,4.4-7.91,7.65-16.96,13.33-7.66,4.8-17.2,10.78-29.69,11.51-12.81.75-22.57-4.39-31.5-9.09-15.05-7.92-13.86-12.56-28.47-19.99-7.15-3.64-24.04-12.23-36.35-5.45Z"/><path class="cls-2" d="m31.6,167.67c-1.04.58-8.29,4.56-8.48,10.9-.15,5,4.15,8.68,5.45,9.69,5.73,4.45,13.13,3.75,15.15,3.63,17.77-1.01,29.06,20.51,52.71,30.29,22.63,9.36,54.04,6.92,73.91-7.27,9.57-6.84,11.41-12.79,24.23-18.78,4.63-2.17,20.34-9.51,36.96-4.85,10.68,3,10.7,7.86,26.05,18.17,10.95,7.35,25.84,17.35,44.83,18.17,16.48.71,29.92-5.75,39.38-10.3,11.69-5.62,11.37-8.1,26.66-15.75,15.67-7.84,23.71-11.74,33.93-10.3,6.69.94,12.14,4.06,23.02,10.3,8.58,4.92,8.45,5.97,17.57,11.51,11.25,6.83,18.32,11.12,28.47,13.33,9.32,2.03,16.9,1.36,25.44.61,7.87-.69,14.85-1.31,22.42-4.24,14.55-5.64,15.26-13.62,28.47-21.81,2.37-1.47,18.42-11.13,36.96-9.09,12.26,1.35,13.87,6.53,43.01,21.81,16.47,8.64,24.7,12.95,32.11,13.93,22.58,2.99,43.24-8.56,47.25-10.9,3.82-2.23,9.7-6.12,24.84-15.15,8.08-4.82,9.8-5.74,12.72-6.66,9.69-3.08,14.43-.51,21.2-4.85,1.65-1.06,7.04-4.51,7.27-9.69.29-6.46-7.62-11.03-8.48-11.51-1.77-.99-9.88-5.16-28.47,1.82-17.37,6.52-18.26,13.14-37.56,22.42-10.21,4.91-17.2,8.27-27.26,8.48-16.55.36-29.85-8.05-33.32-10.3-9.74-6.32-10.27-10.53-20.6-15.75-8.03-4.06-14.96-5.19-20.6-6.06-6.87-1.06-27.63-4.27-50.28,4.24-24.82,9.32-21.93,21.45-44.83,27.26-5.17,1.31-24.79,6.29-39.38-3.63-6.91-4.71-5.78-8.05-14.54-15.15-10.69-8.66-21.81-11.31-30.29-13.33-8.96-2.14-22.16-5.28-38.17-1.21-2.9.74-13.38,3.62-24.23,11.51-9.58,6.97-10.25,11.15-18.17,16.36-10.65,7-21.78,7.57-27.87,7.88-37.58,1.9-50.33-36.17-92.09-36.96-7.31-.14-26.3-.49-42.41,10.9-6.22,4.4-7.91,7.65-16.96,13.33-7.66,4.8-17.2,10.78-29.69,11.51-12.81.75-22.57-4.39-31.5-9.09-15.05-7.92-13.86-12.56-28.47-19.99-7.15-3.64-24.04-12.23-36.35-5.45Z"/><path class="cls-3" d="m30.25,265.6c-1.04.58-8.29,4.56-8.48,10.9-.15,5,4.15,8.68,5.45,9.69,5.73,4.45,13.13,3.75,15.15,3.63,17.77-1.01,29.06,20.51,52.71,30.29,22.63,9.36,54.04,6.92,73.91-7.27,9.57-6.84,11.41-12.79,24.23-18.78,4.63-2.17,20.34-9.51,36.96-4.85,10.68,3,10.7,7.86,26.05,18.17,10.95,7.35,25.84,17.35,44.83,18.17,16.48.71,29.92-5.75,39.38-10.3,11.69-5.62,11.37-8.1,26.66-15.75,15.67-7.84,23.71-11.74,33.93-10.3,6.69.94,12.14,4.06,23.02,10.3,8.58,4.92,8.45,5.97,17.57,11.51,11.25,6.83,18.32,11.12,28.47,13.33,9.32,2.03,16.9,1.36,25.44.61,7.87-.69,14.85-1.31,22.42-4.24,14.55-5.64,15.26-13.62,28.47-21.81,2.37-1.47,18.42-11.13,36.96-9.09,12.26,1.35,13.87,6.53,43.01,21.81,16.47,8.64,24.7,12.95,32.11,13.93,22.58,2.99,43.24-8.56,47.25-10.9,3.82-2.23,9.7-6.12,24.84-15.15,8.08-4.82,9.8-5.74,12.72-6.66,9.69-3.08,14.43-.51,21.2-4.85,1.65-1.06,7.04-4.51,7.27-9.69.29-6.46-7.62-11.03-8.48-11.51-1.77-.99-9.88-5.16-28.47,1.82-17.37,6.52-18.26,13.14-37.56,22.42-10.21,4.91-17.2,8.27-27.26,8.48-16.55.36-29.85-8.05-33.32-10.3-9.74-6.32-10.27-10.53-20.6-15.75-8.03-4.06-14.96-5.19-20.6-6.06-6.87-1.06-27.63-4.27-50.28,4.24-24.82,9.32-21.93,21.45-44.83,27.26-5.17,1.31-24.79,6.29-39.38-3.63-6.91-4.71-5.78-8.05-14.54-15.15-10.69-8.66-21.81-11.31-30.29-13.33-8.96-2.14-22.16-5.28-38.17-1.21-2.9.74-13.38,3.62-24.23,11.51-9.58,6.97-10.25,11.15-18.17,16.36-10.65,7-21.78,7.57-27.87,7.88-37.58,1.9-50.33-36.17-92.09-36.96-7.31-.14-26.3-.49-42.41,10.9-6.22,4.4-7.91,7.65-16.96,13.33-7.66,4.8-17.2,10.78-29.69,11.51-12.81.75-22.57-4.39-31.5-9.09-15.05-7.92-13.86-12.56-28.47-19.99-7.15-3.64-24.04-12.23-36.35-5.45Z"/><path class="cls-2" d="m31.02,265.82c-1.04.58-8.29,4.56-8.48,10.9-.15,5,4.15,8.68,5.45,9.69,5.73,4.45,13.13,3.75,15.15,3.63,17.77-1.01,29.06,20.51,52.71,30.29,22.63,9.36,54.04,6.92,73.91-7.27,9.57-6.84,11.41-12.79,24.23-18.78,4.63-2.17,20.34-9.51,36.96-4.85,10.68,3,10.7,7.86,26.05,18.17,10.95,7.35,25.84,17.35,44.83,18.17,16.48.71,29.92-5.75,39.38-10.3,11.69-5.62,11.37-8.1,26.66-15.75,15.67-7.84,23.71-11.74,33.93-10.3,6.69.94,12.14,4.06,23.02,10.3,8.58,4.92,8.45,5.97,17.57,11.51,11.25,6.83,18.32,11.12,28.47,13.33,9.32,2.03,16.9,1.36,25.44.61,7.87-.69,14.85-1.31,22.42-4.24,14.55-5.64,15.26-13.62,28.47-21.81,2.37-1.47,18.42-11.13,36.96-9.09,12.26,1.35,13.87,6.53,43.01,21.81,16.47,8.64,24.7,12.95,32.11,13.93,22.58,2.99,43.24-8.56,47.25-10.9,3.82-2.23,9.7-6.12,24.84-15.15,8.08-4.82,9.8-5.74,12.72-6.66,9.69-3.08,14.43-.51,21.2-4.85,1.65-1.06,7.04-4.51,7.27-9.69.29-6.46-7.62-11.03-8.48-11.51-1.77-.99-9.88-5.16-28.47,1.82-17.37,6.52-18.26,13.14-37.56,22.42-10.21,4.91-17.2,8.27-27.26,8.48-16.55.36-29.85-8.05-33.32-10.3-9.74-6.32-10.27-10.53-20.6-15.75-8.03-4.06-14.96-5.19-20.6-6.06-6.87-1.06-27.63-4.27-50.28,4.24-24.82,9.32-21.93,21.45-44.83,27.26-5.17,1.31-24.79,6.29-39.38-3.63-6.91-4.71-5.78-8.05-14.54-15.15-10.69-8.66-21.81-11.31-30.29-13.33-8.96-2.14-22.16-5.28-38.17-1.21-2.9.74-13.38,3.62-24.23,11.51-9.58,6.97-10.25,11.15-18.17,16.36-10.65,7-21.78,7.57-27.87,7.88-37.58,1.9-50.33-36.17-92.09-36.96-7.31-.14-26.3-.49-42.41,10.9-6.22,4.4-7.91,7.65-16.96,13.33-7.66,4.8-17.2,10.78-29.69,11.51-12.81.75-22.57-4.39-31.5-9.09-15.05-7.92-13.86-12.56-28.47-19.99-7.15-3.64-24.04-12.23-36.35-5.45Z"/><path class="cls-3" d="m31.46,363.74c-1.04.58-8.29,4.56-8.48,10.9-.15,5,4.15,8.68,5.45,9.69,5.73,4.45,13.13,3.75,15.15,3.63,17.77-1.01,29.06,20.51,52.71,30.29,22.63,9.36,54.04,6.92,73.91-7.27,9.57-6.84,11.41-12.79,24.23-18.78,4.63-2.17,20.34-9.51,36.96-4.85,10.68,3,10.7,7.86,26.05,18.17,10.95,7.35,25.84,17.35,44.83,18.17,16.48.71,29.92-5.75,39.38-10.3,11.69-5.62,11.37-8.1,26.66-15.75,15.67-7.84,23.71-11.74,33.93-10.3,6.69.94,12.14,4.06,23.02,10.3,8.58,4.92,8.45,5.97,17.57,11.51,11.25,6.83,18.32,11.12,28.47,13.33,9.32,2.03,16.9,1.36,25.44.61,7.87-.69,14.85-1.31,22.42-4.24,14.55-5.64,15.26-13.62,28.47-21.81,2.37-1.47,18.42-11.13,36.96-9.09,12.26,1.35,13.87,6.53,43.01,21.81,16.47,8.64,24.7,12.95,32.11,13.93,22.58,2.99,43.24-8.56,47.25-10.9,3.82-2.23,9.7-6.12,24.84-15.15,8.08-4.82,9.8-5.74,12.72-6.66,9.69-3.08,14.43-.51,21.2-4.85,1.65-1.06,7.04-4.51,7.27-9.69.29-6.46-7.62-11.03-8.48-11.51-1.77-.99-9.88-5.16-28.47,1.82-17.37,6.52-18.26,13.14-37.56,22.42-10.21,4.91-17.2,8.27-27.26,8.48-16.55.36-29.85-8.05-33.32-10.3-9.74-6.32-10.27-10.53-20.6-15.75-8.03-4.06-14.96-5.19-20.6-6.06-6.87-1.06-27.63-4.27-50.28,4.24-24.82,9.32-21.93,21.45-44.83,27.26-5.17,1.31-24.79,6.29-39.38-3.63-6.91-4.71-5.78-8.05-14.54-15.15-10.69-8.66-21.81-11.31-30.29-13.33-8.96-2.14-22.16-5.28-38.17-1.21-2.9.74-13.38,3.62-24.23,11.51-9.58,6.97-10.25,11.15-18.17,16.36-10.65,7-21.78,7.57-27.87,7.88-37.58,1.9-50.33-36.17-92.09-36.96-7.31-.14-26.3-.49-42.41,10.9-6.22,4.4-7.91,7.65-16.96,13.33-7.66,4.8-17.2,10.78-29.69,11.51-12.81.75-22.57-4.39-31.5-9.09-15.05-7.92-13.86-12.56-28.47-19.99-7.15-3.64-24.04-12.23-36.35-5.45Z"/><path class="cls-2" d="m32.23,363.97c-1.04.58-8.29,4.56-8.48,10.9-.15,5,4.15,8.68,5.45,9.69,5.73,4.45,13.13,3.75,15.15,3.63,17.77-1.01,29.06,20.51,52.71,30.29,22.63,9.36,54.04,6.92,73.91-7.27,9.57-6.84,11.41-12.79,24.23-18.78,4.63-2.17,20.34-9.51,36.96-4.85,10.68,3,10.7,7.86,26.05,18.17,10.95,7.35,25.84,17.35,44.83,18.17,16.48.71,29.92-5.75,39.38-10.3,11.69-5.62,11.37-8.1,26.66-15.75,15.67-7.84,23.71-11.74,33.93-10.3,6.69.94,12.14,4.06,23.02,10.3,8.58,4.92,8.45,5.97,17.57,11.51,11.25,6.83,18.32,11.12,28.47,13.33,9.32,2.03,16.9,1.36,25.44.61,7.87-.69,14.85-1.31,22.42-4.24,14.55-5.64,15.26-13.62,28.47-21.81,2.37-1.47,18.42-11.13,36.96-9.09,12.26,1.35,13.87,6.53,43.01,21.81,16.47,8.64,24.7,12.95,32.11,13.93,22.58,2.99,43.24-8.56,47.25-10.9,3.82-2.23,9.7-6.12,24.84-15.15,8.08-4.82,9.8-5.74,12.72-6.66,9.69-3.08,14.43-.51,21.2-4.85,1.65-1.06,7.04-4.51,7.27-9.69.29-6.46-7.62-11.03-8.48-11.51-1.77-.99-9.88-5.16-28.47,1.82-17.37,6.52-18.26,13.14-37.56,22.42-10.21,4.91-17.2,8.27-27.26,8.48-16.55.36-29.85-8.05-33.32-10.3-9.74-6.32-10.27-10.53-20.6-15.75-8.03-4.06-14.96-5.19-20.6-6.06-6.87-1.06-27.63-4.27-50.28,4.24-24.82,9.32-21.93,21.45-44.83,27.26-5.17,1.31-24.79,6.29-39.38-3.63-6.91-4.71-5.78-8.05-14.54-15.15-10.69-8.66-21.81-11.31-30.29-13.33-8.96-2.14-22.16-5.28-38.17-1.21-2.9.74-13.38,3.62-24.23,11.51-9.58,6.97-10.25,11.15-18.17,16.36-10.65,7-21.78,7.57-27.87,7.88-37.58,1.9-50.33-36.17-92.09-36.96-7.31-.14-26.3-.49-42.41,10.9-6.22,4.4-7.91,7.65-16.96,13.33-7.66,4.8-17.2,10.78-29.69,11.51-12.81.75-22.57-4.39-31.5-9.09-15.05-7.92-13.86-12.56-28.47-19.99-7.15-3.64-24.04-12.23-36.35-5.45Z"/><path class="cls-3" d="m29.74,456.87c-1.04.58-8.29,4.56-8.48,10.9-.15,5,4.15,8.68,5.45,9.69,5.73,4.45,13.13,3.75,15.15,3.63,17.77-1.01,29.06,20.51,52.71,30.29,22.63,9.36,54.04,6.92,73.91-7.27,9.57-6.84,11.41-12.79,24.23-18.78,4.63-2.17,20.34-9.51,36.96-4.85,10.68,3,10.7,7.86,26.05,18.17,10.95,7.35,25.84,17.35,44.83,18.17,16.48.71,29.92-5.75,39.38-10.3,11.69-5.62,11.37-8.1,26.66-15.75,15.67-7.84,23.71-11.74,33.93-10.3,6.69.94,12.14,4.06,23.02,10.3,8.58,4.92,8.45,5.97,17.57,11.51,11.25,6.83,18.32,11.12,28.47,13.33,9.32,2.03,16.9,1.36,25.44.61,7.87-.69,14.85-1.31,22.42-4.24,14.55-5.64,15.26-13.62,28.47-21.81,2.37-1.47,18.42-11.13,36.96-9.09,12.26,1.35,13.87,6.53,43.01,21.81,16.47,8.64,24.7,12.95,32.11,13.93,22.58,2.99,43.24-8.56,47.25-10.9,3.82-2.23,9.7-6.12,24.84-15.15,8.08-4.82,9.8-5.74,12.72-6.66,9.69-3.08,14.43-.51,21.2-4.85,1.65-1.06,7.04-4.51,7.27-9.69.29-6.46-7.62-11.03-8.48-11.51-1.77-.99-9.88-5.16-28.47,1.82-17.37,6.52-18.26,13.14-37.56,22.42-10.21,4.91-17.2,8.27-27.26,8.48-16.55.36-29.85-8.05-33.32-10.3-9.74-6.32-10.27-10.53-20.6-15.75-8.03-4.06-14.96-5.19-20.6-6.06-6.87-1.06-27.63-4.27-50.28,4.24-24.82,9.32-21.93,21.45-44.83,27.26-5.17,1.31-24.79,6.29-39.38-3.63-6.91-4.71-5.78-8.05-14.54-15.15-10.69-8.66-21.81-11.31-30.29-13.33-8.96-2.14-22.16-5.28-38.17-1.21-2.9.74-13.38,3.62-24.23,11.51-9.58,6.97-10.25,11.15-18.17,16.36-10.65,7-21.78,7.57-27.87,7.88-37.58,1.9-50.33-36.17-92.09-36.96-7.31-.14-26.3-.49-42.41,10.9-6.22,4.4-7.91,7.65-16.96,13.33-7.66,4.8-17.2,10.78-29.69,11.51-12.81.75-22.57-4.39-31.5-9.09-15.05-7.92-13.86-12.56-28.47-19.99-7.15-3.64-24.04-12.23-36.35-5.45Z"/><path class="cls-2" d="m30.51,457.09c-1.04.58-8.29,4.56-8.48,10.9-.15,5,4.15,8.68,5.45,9.69,5.73,4.45,13.13,3.75,15.15,3.63,17.77-1.01,29.06,20.51,52.71,30.29,22.63,9.36,54.04,6.92,73.91-7.27,9.57-6.84,11.41-12.79,24.23-18.78,4.63-2.17,20.34-9.51,36.96-4.85,10.68,3,10.7,7.86,26.05,18.17,10.95,7.35,25.84,17.35,44.83,18.17,16.48.71,29.92-5.75,39.38-10.3,11.69-5.62,11.37-8.1,26.66-15.75,15.67-7.84,23.71-11.74,33.93-10.3,6.69.94,12.14,4.06,23.02,10.3,8.58,4.92,8.45,5.97,17.57,11.51,11.25,6.83,18.32,11.12,28.47,13.33,9.32,2.03,16.9,1.36,25.44.61,7.87-.69,14.85-1.31,22.42-4.24,14.55-5.64,15.26-13.62,28.47-21.81,2.37-1.47,18.42-11.13,36.96-9.09,12.26,1.35,13.87,6.53,43.01,21.81,16.47,8.64,24.7,12.95,32.11,13.93,22.58,2.99,43.24-8.56,47.25-10.9,3.82-2.23,9.7-6.12,24.84-15.15,8.08-4.82,9.8-5.74,12.72-6.66,9.69-3.08,14.43-.51,21.2-4.85,1.65-1.06,7.04-4.51,7.27-9.69.29-6.46-7.62-11.03-8.48-11.51-1.77-.99-9.88-5.16-28.47,1.82-17.37,6.52-18.26,13.14-37.56,22.42-10.21,4.91-17.2,8.27-27.26,8.48-16.55.36-29.85-8.05-33.32-10.3-9.74-6.32-10.27-10.53-20.6-15.75-8.03-4.06-14.96-5.19-20.6-6.06-6.87-1.06-27.63-4.27-50.28,4.24-24.82,9.32-21.93,21.45-44.83,27.26-5.17,1.31-24.79,6.29-39.38-3.63-6.91-4.71-5.78-8.05-14.54-15.15-10.69-8.66-21.81-11.31-30.29-13.33-8.96-2.14-22.16-5.28-38.17-1.21-2.9.74-13.38,3.62-24.23,11.51-9.58,6.97-10.25,11.15-18.17,16.36-10.65,7-21.78,7.57-27.87,7.88-37.58,1.9-50.33-36.17-92.09-36.96-7.31-.14-26.3-.49-42.41,10.9-6.22,4.4-7.91,7.65-16.96,13.33-7.66,4.8-17.2,10.78-29.69,11.51-12.81.75-22.57-4.39-31.5-9.09-15.05-7.92-13.86-12.56-28.47-19.99-7.15-3.64-24.04-12.23-36.35-5.45Z"/><path class="cls-3" d="m36.14,88.48c-1.04.58-8.29,4.56-8.48,10.9-.15,5,4.15,8.68,5.45,9.69,5.73,4.45,13.13,3.75,15.15,3.63,17.77-1.01,29.06,20.51,52.71,30.29,22.63,9.36,54.04,6.92,73.91-7.27,9.57-6.84,11.41-12.79,24.23-18.78,4.63-2.17,20.34-9.51,36.96-4.85,10.68,3,10.7,7.86,26.05,18.17,10.95,7.35,25.84,17.35,44.83,18.17,16.48.71,29.92-5.75,39.38-10.3,11.69-5.62,11.37-8.1,26.66-15.75,15.67-7.84,23.71-11.74,33.93-10.3,6.69.94,12.14,4.06,23.02,10.3,8.58,4.92,8.45,5.97,17.57,11.51,11.25,6.83,18.32,11.12,28.47,13.33,9.32,2.03,16.9,1.36,25.44.61,7.87-.69,14.85-1.31,22.42-4.24,14.55-5.64,15.26-13.62,28.47-21.81,2.37-1.47,18.42-11.13,36.96-9.09,12.26,1.35,13.87,6.53,43.01,21.81,16.47,8.64,24.7,12.95,32.11,13.93,22.58,2.99,43.24-8.56,47.25-10.9,3.82-2.23,9.7-6.12,24.84-15.15,8.08-4.82,9.8-5.74,12.72-6.66,9.69-3.08,14.43-.51,21.2-4.85,1.65-1.06,7.04-4.51,7.27-9.69.29-6.46-7.62-11.03-8.48-11.51-1.77-.99-9.88-5.16-28.47,1.82-17.37,6.52-18.26,13.14-37.56,22.42-10.21,4.91-17.2,8.27-27.26,8.48-16.55.36-29.85-8.05-33.32-10.3-9.74-6.32-10.27-10.53-20.6-15.75-8.03-4.06-14.96-5.19-20.6-6.06-6.87-1.06-27.63-4.27-50.28,4.24-24.82,9.32-21.93,21.45-44.83,27.26-5.17,1.31-24.79,6.29-39.38-3.63-6.91-4.71-5.78-8.05-14.54-15.15-10.69-8.66-21.81-11.31-30.29-13.33-8.96-2.14-22.16-5.28-38.17-1.21-2.9.74-13.38,3.62-24.23,11.51-9.58,6.97-10.25,11.15-18.17,16.36-10.65,7-21.78,7.57-27.87,7.88-37.58,1.9-50.33-36.17-92.09-36.96-7.31-.14-26.3-.49-42.41,10.9-6.22,4.4-7.91,7.65-16.96,13.33-7.66,4.8-17.2,10.78-29.69,11.51-12.81.75-22.57-4.39-31.5-9.09-15.05-7.92-13.86-12.56-28.47-19.99-7.15-3.64-24.04-12.23-36.35-5.45Z"/><path class="cls-3" d="m35.85,186.56c-1.04.58-8.29,4.56-8.48,10.9-.15,5,4.15,8.68,5.45,9.69,5.73,4.45,13.13,3.75,15.15,3.63,17.77-1.01,29.06,20.51,52.71,30.29,22.63,9.36,54.04,6.92,73.91-7.27,9.57-6.84,11.41-12.79,24.23-18.78,4.63-2.17,20.34-9.51,36.96-4.85,10.68,3,10.7,7.86,26.05,18.17,10.95,7.35,25.84,17.35,44.83,18.17,16.48.71,29.92-5.75,39.38-10.3,11.69-5.62,11.37-8.1,26.66-15.75,15.67-7.84,23.71-11.74,33.93-10.3,6.69.94,12.14,4.06,23.02,10.3,8.58,4.92,8.45,5.97,17.57,11.51,11.25,6.83,18.32,11.12,28.47,13.33,9.32,2.03,16.9,1.36,25.44.61,7.87-.69,14.85-1.31,22.42-4.24,14.55-5.64,15.26-13.62,28.47-21.81,2.37-1.47,18.42-11.13,36.96-9.09,12.26,1.35,13.87,6.53,43.01,21.81,16.47,8.64,24.7,12.95,32.11,13.93,22.58,2.99,43.24-8.56,47.25-10.9,3.82-2.23,9.7-6.12,24.84-15.15,8.08-4.82,9.8-5.74,12.72-6.66,9.69-3.08,14.43-.51,21.2-4.85,1.65-1.06,7.04-4.51,7.27-9.69.29-6.46-7.62-11.03-8.48-11.51-1.77-.99-9.88-5.16-28.47,1.82-17.37,6.52-18.26,13.14-37.56,22.42-10.21,4.91-17.2,8.27-27.26,8.48-16.55.36-29.85-8.05-33.32-10.3-9.74-6.32-10.27-10.53-20.6-15.75-8.03-4.06-14.96-5.19-20.6-6.06-6.87-1.06-27.63-4.27-50.28,4.24-24.82,9.32-21.93,21.45-44.83,27.26-5.17,1.31-24.79,6.29-39.38-3.63-6.91-4.71-5.78-8.05-14.54-15.15-10.69-8.66-21.81-11.31-30.29-13.33-8.96-2.14-22.16-5.28-38.17-1.21-2.9.74-13.38,3.62-24.23,11.51-9.58,6.97-10.25,11.15-18.17,16.36-10.65,7-21.78,7.57-27.87,7.88-37.58,1.9-50.33-36.17-92.09-36.96-7.31-.14-26.3-.49-42.41,10.9-6.22,4.4-7.91,7.65-16.96,13.33-7.66,4.8-17.2,10.78-29.69,11.51-12.81.75-22.57-4.39-31.5-9.09-15.05-7.92-13.86-12.56-28.47-19.99-7.15-3.64-24.04-12.23-36.35-5.45Z"/><path class="cls-3" d="m35.26,284.71c-1.04.58-8.29,4.56-8.48,10.9-.15,5,4.15,8.68,5.45,9.69,5.73,4.45,13.13,3.75,15.15,3.63,17.77-1.01,29.06,20.51,52.71,30.29,22.63,9.36,54.04,6.92,73.91-7.27,9.57-6.84,11.41-12.79,24.23-18.78,4.63-2.17,20.34-9.51,36.96-4.85,10.68,3,10.7,7.86,26.05,18.17,10.95,7.35,25.84,17.35,44.83,18.17,16.48.71,29.92-5.75,39.38-10.3,11.69-5.62,11.37-8.1,26.66-15.75,15.67-7.84,23.71-11.74,33.93-10.3,6.69.94,12.14,4.06,23.02,10.3,8.58,4.92,8.45,5.97,17.57,11.51,11.25,6.83,18.32,11.12,28.47,13.33,9.32,2.03,16.9,1.36,25.44.61,7.87-.69,14.85-1.31,22.42-4.24,14.55-5.64,15.26-13.62,28.47-21.81,2.37-1.47,18.42-11.13,36.96-9.09,12.26,1.35,13.87,6.53,43.01,21.81,16.47,8.64,24.7,12.95,32.11,13.93,22.58,2.99,43.24-8.56,47.25-10.9,3.82-2.23,9.7-6.12,24.84-15.15,8.08-4.82,9.8-5.74,12.72-6.66,9.69-3.08,14.43-.51,21.2-4.85,1.65-1.06,7.04-4.51,7.27-9.69.29-6.46-7.62-11.03-8.48-11.51-1.77-.99-9.88-5.16-28.47,1.82-17.37,6.52-18.26,13.14-37.56,22.42-10.21,4.91-17.2,8.27-27.26,8.48-16.55.36-29.85-8.05-33.32-10.3-9.74-6.32-10.27-10.53-20.6-15.75-8.03-4.06-14.96-5.19-20.6-6.06-6.87-1.06-27.63-4.27-50.28,4.24-24.82,9.32-21.93,21.45-44.83,27.26-5.17,1.31-24.79,6.29-39.38-3.63-6.91-4.71-5.78-8.05-14.54-15.15-10.69-8.66-21.81-11.31-30.29-13.33-8.96-2.14-22.16-5.28-38.17-1.21-2.9.74-13.38,3.62-24.23,11.51-9.58,6.97-10.25,11.15-18.17,16.36-10.65,7-21.78,7.57-27.87,7.88-37.58,1.9-50.33-36.17-92.09-36.96-7.31-.14-26.3-.49-42.41,10.9-6.22,4.4-7.91,7.65-16.96,13.33-7.66,4.8-17.2,10.78-29.69,11.51-12.81.75-22.57-4.39-31.5-9.09-15.05-7.92-13.86-12.56-28.47-19.99-7.15-3.64-24.04-12.23-36.35-5.45Z"/><path class="cls-3" d="m36.48,382.86c-1.04.58-8.29,4.56-8.48,10.9-.15,5,4.15,8.68,5.45,9.69,5.73,4.45,13.13,3.75,15.15,3.63,17.77-1.01,29.06,20.51,52.71,30.29,22.63,9.36,54.04,6.92,73.91-7.27,9.57-6.84,11.41-12.79,24.23-18.78,4.63-2.17,20.34-9.51,36.96-4.85,10.68,3,10.7,7.86,26.05,18.17,10.95,7.35,25.84,17.35,44.83,18.17,16.48.71,29.92-5.75,39.38-10.3,11.69-5.62,11.37-8.1,26.66-15.75,15.67-7.84,23.71-11.74,33.93-10.3,6.69.94,12.14,4.06,23.02,10.3,8.58,4.92,8.45,5.97,17.57,11.51,11.25,6.83,18.32,11.12,28.47,13.33,9.32,2.03,16.9,1.36,25.44.61,7.87-.69,14.85-1.31,22.42-4.24,14.55-5.64,15.26-13.62,28.47-21.81,2.37-1.47,18.42-11.13,36.96-9.09,12.26,1.35,13.87,6.53,43.01,21.81,16.47,8.64,24.7,12.95,32.11,13.93,22.58,2.99,43.24-8.56,47.25-10.9,3.82-2.23,9.7-6.12,24.84-15.15,8.08-4.82,9.8-5.74,12.72-6.66,9.69-3.08,14.43-.51,21.2-4.85,1.65-1.06,7.04-4.51,7.27-9.69.29-6.46-7.62-11.03-8.48-11.51-1.77-.99-9.88-5.16-28.47,1.82-17.37,6.52-18.26,13.14-37.56,22.42-10.21,4.91-17.2,8.27-27.26,8.48-16.55.36-29.85-8.05-33.32-10.3-9.74-6.32-10.27-10.53-20.6-15.75-8.03-4.06-14.96-5.19-20.6-6.06-6.87-1.06-27.63-4.27-50.28,4.24-24.82,9.32-21.93,21.45-44.83,27.26-5.17,1.31-24.79,6.29-39.38-3.63-6.91-4.71-5.78-8.05-14.54-15.15-10.69-8.66-21.81-11.31-30.29-13.33-8.96-2.14-22.16-5.28-38.17-1.21-2.9.74-13.38,3.62-24.23,11.51-9.58,6.97-10.25,11.15-18.17,16.36-10.65,7-21.78,7.57-27.87,7.88-37.58,1.9-50.33-36.17-92.09-36.96-7.31-.14-26.3-.49-42.41,10.9-6.22,4.4-7.91,7.65-16.96,13.33-7.66,4.8-17.2,10.78-29.69,11.51-12.81.75-22.57-4.39-31.5-9.09-15.05-7.92-13.86-12.56-28.47-19.99-7.15-3.64-24.04-12.23-36.35-5.45Z"/><path class="cls-3" d="m33.98,475.76c-1.04.58-8.29,4.56-8.48,10.9-.15,5,4.15,8.68,5.45,9.69,5.73,4.45,13.13,3.75,15.15,3.63,17.77-1.01,29.06,20.51,52.71,30.29,22.63,9.36,54.04,6.92,73.91-7.27,9.57-6.84,11.41-12.79,24.23-18.78,4.63-2.17,20.34-9.51,36.96-4.85,10.68,3,10.7,7.86,26.05,18.17,10.95,7.35,25.84,17.35,44.83,18.17,16.48.71,29.92-5.75,39.38-10.3,11.69-5.62,11.37-8.1,26.66-15.75,15.67-7.84,23.71-11.74,33.93-10.3,6.69.94,12.14,4.06,23.02,10.3,8.58,4.92,8.45,5.97,17.57,11.51,11.25,6.83,18.32,11.12,28.47,13.33,9.32,2.03,16.9,1.36,25.44.61,7.87-.69,14.85-1.31,22.42-4.24,14.55-5.64,15.26-13.62,28.47-21.81,2.37-1.47,18.42-11.13,36.96-9.09,12.26,1.35,13.87,6.53,43.01,21.81,16.47,8.64,24.7,12.95,32.11,13.93,22.58,2.99,43.24-8.56,47.25-10.9,3.82-2.23,9.7-6.12,24.84-15.15,8.08-4.82,9.8-5.74,12.72-6.66,9.69-3.08,14.43-.51,21.2-4.85,1.65-1.06,7.04-4.51,7.27-9.69.29-6.46-7.62-11.03-8.48-11.51-1.77-.99-9.88-5.16-28.47,1.82-17.37,6.52-18.26,13.14-37.56,22.42-10.21,4.91-17.2,8.27-27.26,8.48-16.55.36-29.85-8.05-33.32-10.3-9.74-6.32-10.27-10.53-20.6-15.75-8.03-4.06-14.96-5.19-20.6-6.06-6.87-1.06-27.63-4.27-50.28,4.24-24.82,9.32-21.93,21.45-44.83,27.26-5.17,1.31-24.79,6.29-39.38-3.63-6.91-4.71-5.78-8.05-14.54-15.15-10.69-8.66-21.81-11.31-30.29-13.33-8.96-2.14-22.16-5.28-38.17-1.21-2.9.74-13.38,3.62-24.23,11.51-9.58,6.97-10.25,11.15-18.17,16.36-10.65,7-21.78,7.57-27.87,7.88-37.58,1.9-50.33-36.17-92.09-36.96-7.31-.14-26.3-.49-42.41,10.9-6.22,4.4-7.91,7.65-16.96,13.33-7.66,4.8-17.2,10.78-29.69,11.51-12.81.75-22.57-4.39-31.5-9.09-15.05-7.92-13.86-12.56-28.47-19.99-7.15-3.64-24.04-12.23-36.35-5.45Z"/><path class="cls-3" d="m31.12,69.36c-1.04.58-8.29,4.56-8.48,10.9-.15,5,4.15,8.68,5.45,9.69,5.73,4.45,13.13,3.75,15.15,3.63,17.77-1.01,29.06,20.51,52.71,30.29,22.63,9.36,54.04,6.92,73.91-7.27,9.57-6.84,11.41-12.79,24.23-18.78,4.63-2.17,20.34-9.51,36.96-4.85,10.68,3,10.7,7.86,26.05,18.17,10.95,7.35,25.84,17.35,44.83,18.17,16.48.71,29.92-5.75,39.38-10.3,11.69-5.62,11.37-8.1,26.66-15.75,15.67-7.84,23.71-11.74,33.93-10.3,6.69.94,12.14,4.06,23.02,10.3,8.58,4.92,8.45,5.97,17.57,11.51,11.25,6.83,18.32,11.12,28.47,13.33,9.32,2.03,16.9,1.36,25.44.61,7.87-.69,14.85-1.31,22.42-4.24,14.55-5.64,15.26-13.62,28.47-21.81,2.37-1.47,18.42-11.13,36.96-9.09,12.26,1.35,13.87,6.53,43.01,21.81,16.47,8.64,24.7,12.95,32.11,13.93,22.58,2.99,43.24-8.56,47.25-10.9,3.82-2.23,9.7-6.12,24.84-15.15,8.08-4.82,9.8-5.74,12.72-6.66,9.69-3.08,14.43-.51,21.2-4.85,1.65-1.06,7.04-4.51,7.27-9.69.29-6.46-7.62-11.03-8.48-11.51-1.77-.99-9.88-5.16-28.47,1.82-17.37,6.52-18.26,13.14-37.56,22.42-10.21,4.91-17.2,8.27-27.26,8.48-16.55.36-29.85-8.05-33.32-10.3-9.74-6.32-10.27-10.53-20.6-15.75-8.03-4.06-14.96-5.19-20.6-6.06-6.87-1.06-27.63-4.27-50.28,4.24-24.82,9.32-21.93,21.45-44.83,27.26-5.17,1.31-24.79,6.29-39.38-3.63-6.91-4.71-5.78-8.05-14.54-15.15-10.69-8.66-21.81-11.31-30.29-13.33-8.96-2.14-22.16-5.28-38.17-1.21-2.9.74-13.38,3.62-24.23,11.51-9.58,6.97-10.25,11.15-18.17,16.36-10.65,7-21.78,7.57-27.87,7.88-37.58,1.9-50.33-36.17-92.09-36.96-7.31-.14-26.3-.49-42.41,10.9-6.22,4.4-7.91,7.65-16.96,13.33-7.66,4.8-17.2,10.78-29.69,11.51-12.81.75-22.57-4.39-31.5-9.09-15.05-7.92-13.86-12.56-28.47-19.99-7.15-3.64-24.04-12.23-36.35-5.45Z"/><path class="cls-2" d="m31.89,69.59c-1.04.58-8.29,4.56-8.48,10.9-.15,5,4.15,8.68,5.45,9.69,5.73,4.45,13.13,3.75,15.15,3.63,17.77-1.01,29.06,20.51,52.71,30.29,22.63,9.36,54.04,6.92,73.91-7.27,9.57-6.84,11.41-12.79,24.23-18.78,4.63-2.17,20.34-9.51,36.96-4.85,10.68,3,10.7,7.86,26.05,18.17,10.95,7.35,25.84,17.35,44.83,18.17,16.48.71,29.92-5.75,39.38-10.3,11.69-5.62,11.37-8.1,26.66-15.75,15.67-7.84,23.71-11.74,33.93-10.3,6.69.94,12.14,4.06,23.02,10.3,8.58,4.92,8.45,5.97,17.57,11.51,11.25,6.83,18.32,11.12,28.47,13.33,9.32,2.03,16.9,1.36,25.44.61,7.87-.69,14.85-1.31,22.42-4.24,14.55-5.64,15.26-13.62,28.47-21.81,2.37-1.47,18.42-11.13,36.96-9.09,12.26,1.35,13.87,6.53,43.01,21.81,16.47,8.64,24.7,12.95,32.11,13.93,22.58,2.99,43.24-8.56,47.25-10.9,3.82-2.23,9.7-6.12,24.84-15.15,8.08-4.82,9.8-5.74,12.72-6.66,9.69-3.08,14.43-.51,21.2-4.85,1.65-1.06,7.04-4.51,7.27-9.69.29-6.46-7.62-11.03-8.48-11.51-1.77-.99-9.88-5.16-28.47,1.82-17.37,6.52-18.26,13.14-37.56,22.42-10.21,4.91-17.2,8.27-27.26,8.48-16.55.36-29.85-8.05-33.32-10.3-9.74-6.32-10.27-10.53-20.6-15.75-8.03-4.06-14.96-5.19-20.6-6.06-6.87-1.06-27.63-4.27-50.28,4.24-24.82,9.32-21.93,21.45-44.83,27.26-5.17,1.31-24.79,6.29-39.38-3.63-6.91-4.71-5.78-8.05-14.54-15.15-10.69-8.66-21.81-11.31-30.29-13.33-8.96-2.14-22.16-5.28-38.17-1.21-2.9.74-13.38,3.62-24.23,11.51-9.58,6.97-10.25,11.15-18.17,16.36-10.65,7-21.78,7.57-27.87,7.88-37.58,1.9-50.33-36.17-92.09-36.96-7.31-.14-26.3-.49-42.41,10.9-6.22,4.4-7.91,7.65-16.96,13.33-7.66,4.8-17.2,10.78-29.69,11.51-12.81.75-22.57-4.39-31.5-9.09-15.05-7.92-13.86-12.56-28.47-19.99-7.15-3.64-24.04-12.23-36.35-5.45Z"/><path class="cls-4" d="m32.58,25.25c-1.04.58-8.29,4.56-8.48,10.9-.15,5,4.15,8.68,5.45,9.69,5.73,4.45,13.13,3.75,15.15,3.63,17.77-1.01,29.06,20.51,52.71,30.29,22.63,9.36,54.04,6.92,73.91-7.27,9.57-6.84,11.41-12.79,24.23-18.78,4.63-2.17,20.34-9.51,36.96-4.85,10.68,3,10.7,7.86,26.05,18.17,10.95,7.35,25.84,17.35,44.83,18.17,16.48.71,29.92-5.75,39.38-10.3,11.69-5.62,11.37-8.1,26.66-15.75,15.67-7.84,23.71-11.74,33.93-10.3,6.69.94,12.14,4.06,23.02,10.3,8.58,4.92,8.45,5.97,17.57,11.51,11.25,6.83,18.32,11.12,28.47,13.33,9.32,2.03,16.9,1.36,25.44.61,7.87-.69,14.85-1.31,22.42-4.24,14.55-5.64,15.26-13.62,28.47-21.81,2.37-1.47,18.42-11.13,36.96-9.09,12.26,1.35,13.87,6.53,43.01,21.81,16.47,8.64,24.7,12.95,32.11,13.93,22.58,2.99,43.24-8.56,47.25-10.9,3.82-2.23,9.7-6.12,24.84-15.15,8.08-4.82,9.8-5.74,12.72-6.66,9.69-3.08,14.43-.51,21.2-4.85,1.65-1.06,7.04-4.51,7.27-9.69.29-6.46-7.62-11.03-8.48-11.51-1.77-.99-9.88-5.16-28.47,1.82-17.37,6.52-18.26,13.14-37.56,22.42-10.21,4.91-17.2,8.27-27.26,8.48-16.55.36-29.85-8.05-33.32-10.3-9.74-6.32-10.27-10.53-20.6-15.75-8.03-4.06-14.96-5.19-20.6-6.06-6.87-1.06-27.63-4.27-50.28,4.24-24.82,9.32-21.93,21.45-44.83,27.26-5.17,1.31-24.79,6.29-39.38-3.63-6.91-4.71-5.78-8.05-14.54-15.15-10.69-8.66-21.81-11.31-30.29-13.33-8.96-2.14-22.16-5.28-38.17-1.21-2.9.74-13.38,3.62-24.23,11.51-9.58,6.97-10.25,11.15-18.17,16.36-10.65,7-21.78,7.57-27.87,7.88-37.58,1.9-50.33-36.17-92.09-36.96-7.31-.14-26.3-.49-42.41,10.9-6.22,4.4-7.91,7.65-16.96,13.33-7.66,4.8-17.2,10.78-29.69,11.51-12.81.75-22.57-4.39-31.5-9.09-15.05-7.92-13.86-12.56-28.47-19.99-7.15-3.64-24.04-12.23-36.35-5.45Z"/><path class="cls-1" d="m33.36,25.47c-1.04.58-8.29,4.56-8.48,10.9-.15,5,4.15,8.68,5.45,9.69,5.73,4.45,13.13,3.75,15.15,3.63,17.77-1.01,29.06,20.51,52.71,30.29,22.63,9.36,54.04,6.92,73.91-7.27,9.57-6.84,11.41-12.79,24.23-18.78,4.63-2.17,20.34-9.51,36.96-4.85,10.68,3,10.7,7.86,26.05,18.17,10.95,7.35,25.84,17.35,44.83,18.17,16.48.71,29.92-5.75,39.38-10.3,11.69-5.62,11.37-8.1,26.66-15.75,15.67-7.84,23.71-11.74,33.93-10.3,6.69.94,12.14,4.06,23.02,10.3,8.58,4.92,8.45,5.97,17.57,11.51,11.25,6.83,18.32,11.12,28.47,13.33,9.32,2.03,16.9,1.36,25.44.61,7.87-.69,14.85-1.31,22.42-4.24,14.55-5.64,15.26-13.62,28.47-21.81,2.37-1.47,18.42-11.13,36.96-9.09,12.26,1.35,13.87,6.53,43.01,21.81,16.47,8.64,24.7,12.95,32.11,13.93,22.58,2.99,43.24-8.56,47.25-10.9,3.82-2.23,9.7-6.12,24.84-15.15,8.08-4.82,9.8-5.74,12.72-6.66,9.69-3.08,14.43-.51,21.2-4.85,1.65-1.06,7.04-4.51,7.27-9.69.29-6.46-7.62-11.03-8.48-11.51-1.77-.99-9.88-5.16-28.47,1.82-17.37,6.52-18.26,13.14-37.56,22.42-10.21,4.91-17.2,8.27-27.26,8.48-16.55.36-29.85-8.05-33.32-10.3-9.74-6.32-10.27-10.53-20.6-15.75-8.03-4.06-14.96-5.19-20.6-6.06-6.87-1.06-27.63-4.27-50.28,4.24-24.82,9.32-21.93,21.45-44.83,27.26-5.17,1.31-24.79,6.29-39.38-3.63-6.91-4.71-5.78-8.05-14.54-15.15-10.69-8.66-21.81-11.31-30.29-13.33-8.96-2.14-22.16-5.28-38.17-1.21-2.9.74-13.38,3.62-24.23,11.51-9.58,6.97-10.25,11.15-18.17,16.36-10.65,7-21.78,7.57-27.87,7.88-37.58,1.9-50.33-36.17-92.09-36.96-7.31-.14-26.3-.49-42.41,10.9-6.22,4.4-7.91,7.65-16.96,13.33-7.66,4.8-17.2,10.78-29.69,11.51-12.81.75-22.57-4.39-31.5-9.09-15.05-7.92-13.86-12.56-28.47-19.99-7.15-3.64-24.04-12.23-36.35-5.45Z"/><path class="cls-4" d="m32.29,123.33c-1.04.58-8.29,4.56-8.48,10.9-.15,5,4.15,8.68,5.45,9.69,5.73,4.45,13.13,3.75,15.15,3.63,17.77-1.01,29.06,20.51,52.71,30.29,22.63,9.36,54.04,6.92,73.91-7.27,9.57-6.84,11.41-12.79,24.23-18.78,4.63-2.17,20.34-9.51,36.96-4.85,10.68,3,10.7,7.86,26.05,18.17,10.95,7.35,25.84,17.35,44.83,18.17,16.48.71,29.92-5.75,39.38-10.3,11.69-5.62,11.37-8.1,26.66-15.75,15.67-7.84,23.71-11.74,33.93-10.3,6.69.94,12.14,4.06,23.02,10.3,8.58,4.92,8.45,5.97,17.57,11.51,11.25,6.83,18.32,11.12,28.47,13.33,9.32,2.03,16.9,1.36,25.44.61,7.87-.69,14.85-1.31,22.42-4.24,14.55-5.64,15.26-13.62,28.47-21.81,2.37-1.47,18.42-11.13,36.96-9.09,12.26,1.35,13.87,6.53,43.01,21.81,16.47,8.64,24.7,12.95,32.11,13.93,22.58,2.99,43.24-8.56,47.25-10.9,3.82-2.23,9.7-6.12,24.84-15.15,8.08-4.82,9.8-5.74,12.72-6.66,9.69-3.08,14.43-.51,21.2-4.85,1.65-1.06,7.04-4.51,7.27-9.69.29-6.46-7.62-11.03-8.48-11.51-1.77-.99-9.88-5.16-28.47,1.82-17.37,6.52-18.26,13.14-37.56,22.42-10.21,4.91-17.2,8.27-27.26,8.48-16.55.36-29.85-8.05-33.32-10.3-9.74-6.32-10.27-10.53-20.6-15.75-8.03-4.06-14.96-5.19-20.6-6.06-6.87-1.06-27.63-4.27-50.28,4.24-24.82,9.32-21.93,21.45-44.83,27.26-5.17,1.31-24.79,6.29-39.38-3.63-6.91-4.71-5.78-8.05-14.54-15.15-10.69-8.66-21.81-11.31-30.29-13.33-8.96-2.14-22.16-5.28-38.17-1.21-2.9.74-13.38,3.62-24.23,11.51-9.58,6.97-10.25,11.15-18.17,16.36-10.65,7-21.78,7.57-27.87,7.88-37.58,1.9-50.33-36.17-92.09-36.96-7.31-.14-26.3-.49-42.41,10.9-6.22,4.4-7.91,7.65-16.96,13.33-7.66,4.8-17.2,10.78-29.69,11.51-12.81.75-22.57-4.39-31.5-9.09-15.05-7.92-13.86-12.56-28.47-19.99-7.15-3.64-24.04-12.23-36.35-5.45Z"/><path class="cls-1" d="m33.07,123.56c-1.04.58-8.29,4.56-8.48,10.9-.15,5,4.15,8.68,5.45,9.69,5.73,4.45,13.13,3.75,15.15,3.63,17.77-1.01,29.06,20.51,52.71,30.29,22.63,9.36,54.04,6.92,73.91-7.27,9.57-6.84,11.41-12.79,24.23-18.78,4.63-2.17,20.34-9.51,36.96-4.85,10.68,3,10.7,7.86,26.05,18.17,10.95,7.35,25.84,17.35,44.83,18.17,16.48.71,29.92-5.75,39.38-10.3,11.69-5.62,11.37-8.1,26.66-15.75,15.67-7.84,23.71-11.74,33.93-10.3,6.69.94,12.14,4.06,23.02,10.3,8.58,4.92,8.45,5.97,17.57,11.51,11.25,6.83,18.32,11.12,28.47,13.33,9.32,2.03,16.9,1.36,25.44.61,7.87-.69,14.85-1.31,22.42-4.24,14.55-5.64,15.26-13.62,28.47-21.81,2.37-1.47,18.42-11.13,36.96-9.09,12.26,1.35,13.87,6.53,43.01,21.81,16.47,8.64,24.7,12.95,32.11,13.93,22.58,2.99,43.24-8.56,47.25-10.9,3.82-2.23,9.7-6.12,24.84-15.15,8.08-4.82,9.8-5.74,12.72-6.66,9.69-3.08,14.43-.51,21.2-4.85,1.65-1.06,7.04-4.51,7.27-9.69.29-6.46-7.62-11.03-8.48-11.51-1.77-.99-9.88-5.16-28.47,1.82-17.37,6.52-18.26,13.14-37.56,22.42-10.21,4.91-17.2,8.27-27.26,8.48-16.55.36-29.85-8.05-33.32-10.3-9.74-6.32-10.27-10.53-20.6-15.75-8.03-4.06-14.96-5.19-20.6-6.06-6.87-1.06-27.63-4.27-50.28,4.24-24.82,9.32-21.93,21.45-44.83,27.26-5.17,1.31-24.79,6.29-39.38-3.63-6.91-4.71-5.78-8.05-14.54-15.15-10.69-8.66-21.81-11.31-30.29-13.33-8.96-2.14-22.16-5.28-38.17-1.21-2.9.74-13.38,3.62-24.23,11.51-9.58,6.97-10.25,11.15-18.17,16.36-10.65,7-21.78,7.57-27.87,7.88-37.58,1.9-50.33-36.17-92.09-36.96-7.31-.14-26.3-.49-42.41,10.9-6.22,4.4-7.91,7.65-16.96,13.33-7.66,4.8-17.2,10.78-29.69,11.51-12.81.75-22.57-4.39-31.5-9.09-15.05-7.92-13.86-12.56-28.47-19.99-7.15-3.64-24.04-12.23-36.35-5.45Z"/><path class="cls-4" d="m31.71,221.48c-1.04.58-8.29,4.56-8.48,10.9-.15,5,4.15,8.68,5.45,9.69,5.73,4.45,13.13,3.75,15.15,3.63,17.77-1.01,29.06,20.51,52.71,30.29,22.63,9.36,54.04,6.92,73.91-7.27,9.57-6.84,11.41-12.79,24.23-18.78,4.63-2.17,20.34-9.51,36.96-4.85,10.68,3,10.7,7.86,26.05,18.17,10.95,7.35,25.84,17.35,44.83,18.17,16.48.71,29.92-5.75,39.38-10.3,11.69-5.62,11.37-8.1,26.66-15.75,15.67-7.84,23.71-11.74,33.93-10.3,6.69.94,12.14,4.06,23.02,10.3,8.58,4.92,8.45,5.97,17.57,11.51,11.25,6.83,18.32,11.12,28.47,13.33,9.32,2.03,16.9,1.36,25.44.61,7.87-.69,14.85-1.31,22.42-4.24,14.55-5.64,15.26-13.62,28.47-21.81,2.37-1.47,18.42-11.13,36.96-9.09,12.26,1.35,13.87,6.53,43.01,21.81,16.47,8.64,24.7,12.95,32.11,13.93,22.58,2.99,43.24-8.56,47.25-10.9,3.82-2.23,9.7-6.12,24.84-15.15,8.08-4.82,9.8-5.74,12.72-6.66,9.69-3.08,14.43-.51,21.2-4.85,1.65-1.06,7.04-4.51,7.27-9.69.29-6.46-7.62-11.03-8.48-11.51-1.77-.99-9.88-5.16-28.47,1.82-17.37,6.52-18.26,13.14-37.56,22.42-10.21,4.91-17.2,8.27-27.26,8.48-16.55.36-29.85-8.05-33.32-10.3-9.74-6.32-10.27-10.53-20.6-15.75-8.03-4.06-14.96-5.19-20.6-6.06-6.87-1.06-27.63-4.27-50.28,4.24-24.82,9.32-21.93,21.45-44.83,27.26-5.17,1.31-24.79,6.29-39.38-3.63-6.91-4.71-5.78-8.05-14.54-15.15-10.69-8.66-21.81-11.31-30.29-13.33-8.96-2.14-22.16-5.28-38.17-1.21-2.9.74-13.38,3.62-24.23,11.51-9.58,6.97-10.25,11.15-18.17,16.36-10.65,7-21.78,7.57-27.87,7.88-37.58,1.9-50.33-36.17-92.09-36.96-7.31-.14-26.3-.49-42.41,10.9-6.22,4.4-7.91,7.65-16.96,13.33-7.66,4.8-17.2,10.78-29.69,11.51-12.81.75-22.57-4.39-31.5-9.09-15.05-7.92-13.86-12.56-28.47-19.99-7.15-3.64-24.04-12.23-36.35-5.45Z"/><path class="cls-1" d="m32.48,221.71c-1.04.58-8.29,4.56-8.48,10.9-.15,5,4.15,8.68,5.45,9.69,5.73,4.45,13.13,3.75,15.15,3.63,17.77-1.01,29.06,20.51,52.71,30.29,22.63,9.36,54.04,6.92,73.91-7.27,9.57-6.84,11.41-12.79,24.23-18.78,4.63-2.17,20.34-9.51,36.96-4.85,10.68,3,10.7,7.86,26.05,18.17,10.95,7.35,25.84,17.35,44.83,18.17,16.48.71,29.92-5.75,39.38-10.3,11.69-5.62,11.37-8.1,26.66-15.75,15.67-7.84,23.71-11.74,33.93-10.3,6.69.94,12.14,4.06,23.02,10.3,8.58,4.92,8.45,5.97,17.57,11.51,11.25,6.83,18.32,11.12,28.47,13.33,9.32,2.03,16.9,1.36,25.44.61,7.87-.69,14.85-1.31,22.42-4.24,14.55-5.64,15.26-13.62,28.47-21.81,2.37-1.47,18.42-11.13,36.96-9.09,12.26,1.35,13.87,6.53,43.01,21.81,16.47,8.64,24.7,12.95,32.11,13.93,22.58,2.99,43.24-8.56,47.25-10.9,3.82-2.23,9.7-6.12,24.84-15.15,8.08-4.82,9.8-5.74,12.72-6.66,9.69-3.08,14.43-.51,21.2-4.85,1.65-1.06,7.04-4.51,7.27-9.69.29-6.46-7.62-11.03-8.48-11.51-1.77-.99-9.88-5.16-28.47,1.82-17.37,6.52-18.26,13.14-37.56,22.42-10.21,4.91-17.2,8.27-27.26,8.48-16.55.36-29.85-8.05-33.32-10.3-9.74-6.32-10.27-10.53-20.6-15.75-8.03-4.06-14.96-5.19-20.6-6.06-6.87-1.06-27.63-4.27-50.28,4.24-24.82,9.32-21.93,21.45-44.83,27.26-5.17,1.31-24.79,6.29-39.38-3.63-6.91-4.71-5.78-8.05-14.54-15.15-10.69-8.66-21.81-11.31-30.29-13.33-8.96-2.14-22.16-5.28-38.17-1.21-2.9.74-13.38,3.62-24.23,11.51-9.58,6.97-10.25,11.15-18.17,16.36-10.65,7-21.78,7.57-27.87,7.88-37.58,1.9-50.33-36.17-92.09-36.96-7.31-.14-26.3-.49-42.41,10.9-6.22,4.4-7.91,7.65-16.96,13.33-7.66,4.8-17.2,10.78-29.69,11.51-12.81.75-22.57-4.39-31.5-9.09-15.05-7.92-13.86-12.56-28.47-19.99-7.15-3.64-24.04-12.23-36.35-5.45Z"/><path class="cls-4" d="m32.92,319.63c-1.04.58-8.29,4.56-8.48,10.9-.15,5,4.15,8.68,5.45,9.69,5.73,4.45,13.13,3.75,15.15,3.63,17.77-1.01,29.06,20.51,52.71,30.29,22.63,9.36,54.04,6.92,73.91-7.27,9.57-6.84,11.41-12.79,24.23-18.78,4.63-2.17,20.34-9.51,36.96-4.85,10.68,3,10.7,7.86,26.05,18.17,10.95,7.35,25.84,17.35,44.83,18.17,16.48.71,29.92-5.75,39.38-10.3,11.69-5.62,11.37-8.1,26.66-15.75,15.67-7.84,23.71-11.74,33.93-10.3,6.69.94,12.14,4.06,23.02,10.3,8.58,4.92,8.45,5.97,17.57,11.51,11.25,6.83,18.32,11.12,28.47,13.33,9.32,2.03,16.9,1.36,25.44.61,7.87-.69,14.85-1.31,22.42-4.24,14.55-5.64,15.26-13.62,28.47-21.81,2.37-1.47,18.42-11.13,36.96-9.09,12.26,1.35,13.87,6.53,43.01,21.81,16.47,8.64,24.7,12.95,32.11,13.93,22.58,2.99,43.24-8.56,47.25-10.9,3.82-2.23,9.7-6.12,24.84-15.15,8.08-4.82,9.8-5.74,12.72-6.66,9.69-3.08,14.43-.51,21.2-4.85,1.65-1.06,7.04-4.51,7.27-9.69.29-6.46-7.62-11.03-8.48-11.51-1.77-.99-9.88-5.16-28.47,1.82-17.37,6.52-18.26,13.14-37.56,22.42-10.21,4.91-17.2,8.27-27.26,8.48-16.55.36-29.85-8.05-33.32-10.3-9.74-6.32-10.27-10.53-20.6-15.75-8.03-4.06-14.96-5.19-20.6-6.06-6.87-1.06-27.63-4.27-50.28,4.24-24.82,9.32-21.93,21.45-44.83,27.26-5.17,1.31-24.79,6.29-39.38-3.63-6.91-4.71-5.78-8.05-14.54-15.15-10.69-8.66-21.81-11.31-30.29-13.33-8.96-2.14-22.16-5.28-38.17-1.21-2.9.74-13.38,3.62-24.23,11.51-9.58,6.97-10.25,11.15-18.17,16.36-10.65,7-21.78,7.57-27.87,7.88-37.58,1.9-50.33-36.17-92.09-36.96-7.31-.14-26.3-.49-42.41,10.9-6.22,4.4-7.91,7.65-16.96,13.33-7.66,4.8-17.2,10.78-29.69,11.51-12.81.75-22.57-4.39-31.5-9.09-15.05-7.92-13.86-12.56-28.47-19.99-7.15-3.64-24.04-12.23-36.35-5.45Z"/><path class="cls-1" d="m33.7,319.85c-1.04.58-8.29,4.56-8.48,10.9-.15,5,4.15,8.68,5.45,9.69,5.73,4.45,13.13,3.75,15.15,3.63,17.77-1.01,29.06,20.51,52.71,30.29,22.63,9.36,54.04,6.92,73.91-7.27,9.57-6.84,11.41-12.79,24.23-18.78,4.63-2.17,20.34-9.51,36.96-4.85,10.68,3,10.7,7.86,26.05,18.17,10.95,7.35,25.84,17.35,44.83,18.17,16.48.71,29.92-5.75,39.38-10.3,11.69-5.62,11.37-8.1,26.66-15.75,15.67-7.84,23.71-11.74,33.93-10.3,6.69.94,12.14,4.06,23.02,10.3,8.58,4.92,8.45,5.97,17.57,11.51,11.25,6.83,18.32,11.12,28.47,13.33,9.32,2.03,16.9,1.36,25.44.61,7.87-.69,14.85-1.31,22.42-4.24,14.55-5.64,15.26-13.62,28.47-21.81,2.37-1.47,18.42-11.13,36.96-9.09,12.26,1.35,13.87,6.53,43.01,21.81,16.47,8.64,24.7,12.95,32.11,13.93,22.58,2.99,43.24-8.56,47.25-10.9,3.82-2.23,9.7-6.12,24.84-15.15,8.08-4.82,9.8-5.74,12.72-6.66,9.69-3.08,14.43-.51,21.2-4.85,1.65-1.06,7.04-4.51,7.27-9.69.29-6.46-7.62-11.03-8.48-11.51-1.77-.99-9.88-5.16-28.47,1.82-17.37,6.52-18.26,13.14-37.56,22.42-10.21,4.91-17.2,8.27-27.26,8.48-16.55.36-29.85-8.05-33.32-10.3-9.74-6.32-10.27-10.53-20.6-15.75-8.03-4.06-14.96-5.19-20.6-6.06-6.87-1.06-27.63-4.27-50.28,4.24-24.82,9.32-21.93,21.45-44.83,27.26-5.17,1.31-24.79,6.29-39.38-3.63-6.91-4.71-5.78-8.05-14.54-15.15-10.69-8.66-21.81-11.31-30.29-13.33-8.96-2.14-22.16-5.28-38.17-1.21-2.9.74-13.38,3.62-24.23,11.51-9.58,6.97-10.25,11.15-18.17,16.36-10.65,7-21.78,7.57-27.87,7.88-37.58,1.9-50.33-36.17-92.09-36.96-7.31-.14-26.3-.49-42.41,10.9-6.22,4.4-7.91,7.65-16.96,13.33-7.66,4.8-17.2,10.78-29.69,11.51-12.81.75-22.57-4.39-31.5-9.09-15.05-7.92-13.86-12.56-28.47-19.99-7.15-3.64-24.04-12.23-36.35-5.45Z"/><path class="cls-4" d="m31.2,412.76c-1.04.58-8.29,4.56-8.48,10.9-.15,5,4.15,8.68,5.45,9.69,5.73,4.45,13.13,3.75,15.15,3.63,17.77-1.01,29.06,20.51,52.71,30.29,22.63,9.36,54.04,6.92,73.91-7.27,9.57-6.84,11.41-12.79,24.23-18.78,4.63-2.17,20.34-9.51,36.96-4.85,10.68,3,10.7,7.86,26.05,18.17,10.95,7.35,25.84,17.35,44.83,18.17,16.48.71,29.92-5.75,39.38-10.3,11.69-5.62,11.37-8.1,26.66-15.75,15.67-7.84,23.71-11.74,33.93-10.3,6.69.94,12.14,4.06,23.02,10.3,8.58,4.92,8.45,5.97,17.57,11.51,11.25,6.83,18.32,11.12,28.47,13.33,9.32,2.03,16.9,1.36,25.44.61,7.87-.69,14.85-1.31,22.42-4.24,14.55-5.64,15.26-13.62,28.47-21.81,2.37-1.47,18.42-11.13,36.96-9.09,12.26,1.35,13.87,6.53,43.01,21.81,16.47,8.64,24.7,12.95,32.11,13.93,22.58,2.99,43.24-8.56,47.25-10.9,3.82-2.23,9.7-6.12,24.84-15.15,8.08-4.82,9.8-5.74,12.72-6.66,9.69-3.08,14.43-.51,21.2-4.85,1.65-1.06,7.04-4.51,7.27-9.69.29-6.46-7.62-11.03-8.48-11.51-1.77-.99-9.88-5.16-28.47,1.82-17.37,6.52-18.26,13.14-37.56,22.42-10.21,4.91-17.2,8.27-27.26,8.48-16.55.36-29.85-8.05-33.32-10.3-9.74-6.32-10.27-10.53-20.6-15.75-8.03-4.06-14.96-5.19-20.6-6.06-6.87-1.06-27.63-4.27-50.28,4.24-24.82,9.32-21.93,21.45-44.83,27.26-5.17,1.31-24.79,6.29-39.38-3.63-6.91-4.71-5.78-8.05-14.54-15.15-10.69-8.66-21.81-11.31-30.29-13.33-8.96-2.14-22.16-5.28-38.17-1.21-2.9.74-13.38,3.62-24.23,11.51-9.58,6.97-10.25,11.15-18.17,16.36-10.65,7-21.78,7.57-27.87,7.88-37.58,1.9-50.33-36.17-92.09-36.96-7.31-.14-26.3-.49-42.41,10.9-6.22,4.4-7.91,7.65-16.96,13.33-7.66,4.8-17.2,10.78-29.69,11.51-12.81.75-22.57-4.39-31.5-9.09-15.05-7.92-13.86-12.56-28.47-19.99-7.15-3.64-24.04-12.23-36.35-5.45Z"/><path class="cls-1" d="m31.98,412.98c-1.04.58-8.29,4.56-8.48,10.9-.15,5,4.15,8.68,5.45,9.69,5.73,4.45,13.13,3.75,15.15,3.63,17.77-1.01,29.06,20.51,52.71,30.29,22.63,9.36,54.04,6.92,73.91-7.27,9.57-6.84,11.41-12.79,24.23-18.78,4.63-2.17,20.34-9.51,36.96-4.85,10.68,3,10.7,7.86,26.05,18.17,10.95,7.35,25.84,17.35,44.83,18.17,16.48.71,29.92-5.75,39.38-10.3,11.69-5.62,11.37-8.1,26.66-15.75,15.67-7.84,23.71-11.74,33.93-10.3,6.69.94,12.14,4.06,23.02,10.3,8.58,4.92,8.45,5.97,17.57,11.51,11.25,6.83,18.32,11.12,28.47,13.33,9.32,2.03,16.9,1.36,25.44.61,7.87-.69,14.85-1.31,22.42-4.24,14.55-5.64,15.26-13.62,28.47-21.81,2.37-1.47,18.42-11.13,36.96-9.09,12.26,1.35,13.87,6.53,43.01,21.81,16.47,8.64,24.7,12.95,32.11,13.93,22.58,2.99,43.24-8.56,47.25-10.9,3.82-2.23,9.7-6.12,24.84-15.15,8.08-4.82,9.8-5.74,12.72-6.66,9.69-3.08,14.43-.51,21.2-4.85,1.65-1.06,7.04-4.51,7.27-9.69.29-6.46-7.62-11.03-8.48-11.51-1.77-.99-9.88-5.16-28.47,1.82-17.37,6.52-18.26,13.14-37.56,22.42-10.21,4.91-17.2,8.27-27.26,8.48-16.55.36-29.85-8.05-33.32-10.3-9.74-6.32-10.27-10.53-20.6-15.75-8.03-4.06-14.96-5.19-20.6-6.06-6.87-1.06-27.63-4.27-50.28,4.24-24.82,9.32-21.93,21.45-44.83,27.26-5.17,1.31-24.79,6.29-39.38-3.63-6.91-4.71-5.78-8.05-14.54-15.15-10.69-8.66-21.81-11.31-30.29-13.33-8.96-2.14-22.16-5.28-38.17-1.21-2.9.74-13.38,3.62-24.23,11.51-9.58,6.97-10.25,11.15-18.17,16.36-10.65,7-21.78,7.57-27.87,7.88-37.58,1.9-50.33-36.17-92.09-36.96-7.31-.14-26.3-.49-42.41,10.9-6.22,4.4-7.91,7.65-16.96,13.33-7.66,4.8-17.2,10.78-29.69,11.51-12.81.75-22.57-4.39-31.5-9.09-15.05-7.92-13.86-12.56-28.47-19.99-7.15-3.64-24.04-12.23-36.35-5.45Z"/></svg>