<?xml version="1.0" encoding="UTF-8"?>
<svg id="Layer_1" data-name="Layer 1" xmlns="http://www.w3.org/2000/svg" viewBox="0 0 500.9 701.4">
  <defs>
    <style>
      .cls-1 {
        fill: #ebe6e0;
      }

      .cls-2 {
        fill: #f28f38;
      }

      .cls-3 {
        fill: #fff;
      }

      .cls-4 {
        fill: #f2b56b;
      }

      .cls-5 {
        fill: #c37441;
      }

      .cls-6 {
        fill: #c2bbb5;
      }

      .cls-7 {
        fill: #a89898;
      }

      .cls-8 {
        fill: #a6431f;
      }

      .cls-9 {
        fill: #d9753b;
      }

      .cls-10 {
        fill: #bcb5ad;
      }

      .cls-11 {
        fill: #cb9b31;
      }

      .cls-12 {
        fill: #cbc4be;
      }

      .cls-13 {
        fill: #877f7d;
      }
    </style>
  </defs>
  <g>
    <path class="cls-3" d="m22.67,144.37c-1.72.72-1.24,4.82-1.11,18.34.06,5.73-.07,11.46,0,17.19v64.18c.01,34.38,1.3,71.3,2.21,114.6.48,22.89,1,47.59,1.11,80.22.19,57.88-1.12,81.94,1.11,129.5,1.52,32.61,2.29,48.92,4.42,53.86,22.87,52.88,113.83,56.59,215.62,60.74,0,0,111.53,4.55,193.51-37.82,8.49-4.39,16.59-11.46,16.59-11.46,6.92-6.05,12.74-11.13,15.48-19.48.5-1.51.97-3.35,1.11-21.77.07-8.61.02-15.1,0-17.19v-63.03c0-34.7,2-92.44,2.21-98.56,3.84-112.35,2.3-236.99,2.21-242.95-.05-3.11-.15-5.3,0-9.17.54-13.91,3.26-20.52,1.11-21.77-1.04-.6-2.54.41-10.47,6.65-6.2,4.88-9.31,7.32-10.26,8.16-30.5,27-107.53,39.05-107.54,39.05-11,1.72-44.03,6.56-97.31,6.88-9.57.06-78.88.16-148.17-14.9-20.44-4.44-59.81-14.32-72.98-33.23-.87-1.25-6.21-9.12-8.85-8.02Z"/>
    <path class="cls-3" d="m256.4,701.4c-6.38,0-10.31-.14-11.12-.18-51.74-2.11-100.6-4.1-140.42-12.47-48.54-10.2-78.38-29.59-91.21-59.25-3.46-8-4.03-20.11-5.9-60.25-1.54-33.01-1.41-55.47-1.24-83.91.08-13.21.17-28.18.11-46.38-.11-32.49-.61-56.59-1.1-79.9-.28-13.26-.59-25.92-.9-38.1-.67-27.17-1.31-52.82-1.32-76.88v-64.08c-.04-3.06-.02-6.1,0-9.03.01-2.69.03-5.38,0-8.08-.03-2.51-.06-4.7-.1-6.59-.08-4.68-.13-7.76.08-10.45.95-11.85,8.13-16.56,12.33-18.32h0c4.06-1.7,14.67-4.36,25.44,7.49,2.27,2.5,4.13,5.09,5.33,6.83l.08.11c3.05,4.39,15.2,15.68,61.88,25.83,65.42,14.22,131.58,14.56,144.19,14.48,35.4-.21,68.11-2.52,94.59-6.66h0c19.98-3.14,76.59-15.5,98.27-34.69,1.29-1.14,3.34-2.76,10.99-8.78,4.65-3.65,7.2-5.6,9.35-6.98,9.81-6.27,17.78-3.42,21.67-1.16,11.79,6.86,10.01,19.7,9.15,25.87-.45,3.22-1.01,7.23-1.21,12.38-.1,2.51-.07,4.06-.02,6.21l.04,1.98c.02,1.25,1.73,128.5-2.22,243.84v.24c-.52,14.95-2.19,66.17-2.2,97.69v63.07c.02,2.4.06,8.77,0,17.28-.15,19.92-.65,23.16-2.02,27.34-4.3,13.1-13.07,20.76-20.81,27.52-1,.87-10.05,8.68-20.21,13.93-70.78,36.58-160.36,40.02-191.5,40.02Zm-209.01-85.85c18.83,41.85,106.54,45.43,199.38,49.21,1.06.04,107.81,3.78,184.38-35.8,5.27-2.72,11.16-7.43,12.98-9.01,5.66-4.95,8.62-7.62,9.9-10.79.13-1.5.34-5.61.43-16.85.06-8.24.02-14.41,0-16.74v-.31s0-63.03,0-63.03c0-32.1,1.7-83.84,2.21-98.94v-.24c3.47-101.14,2.55-211.53,2.27-236.75-14.79,9.68-35.5,18.24-61.78,25.52-17.57,4.87-36.83,8.74-44.39,9.78v.06c-28.23,4.42-62.82,6.87-100.01,7.09-13.26.08-82.99-.28-152.15-15.31-26.19-5.69-46.2-12.47-60.81-20.7v61.32c0,23.6.64,49.04,1.31,75.98.3,12.22.62,24.93.9,38.24.47,22.37,1,47.73,1.11,80.54.06,18.38-.03,33.44-.11,46.72-.17,28.99-.3,49.94,1.2,81.98,1.08,23.06,2.01,43.04,3.18,48.01Zm.08.31h0,0ZM29.7,161.2h0s0,0,0,0Z"/>
  </g>
  <g>
    <path class="cls-3" d="m23.77,128.55c-1.72.72-1.24,4.82-1.11,18.34.06,5.73-.07,11.46,0,17.19v64.18c.01,34.38,1.3,71.3,2.21,114.6.48,22.89,1,47.59,1.11,80.22.19,57.88-1.12,81.94,1.11,129.5,1.52,32.61,2.29,48.92,4.42,53.86,22.87,52.88,113.83,56.59,215.62,60.74,0,0,111.53,4.55,193.51-37.82,8.49-4.39,16.59-11.46,16.59-11.46,6.92-6.05,12.74-11.13,15.48-19.48.5-1.51.97-3.35,1.11-21.77.07-8.61.02-15.1,0-17.19v-63.03c0-34.7,2-92.44,2.21-98.56,3.84-112.35,2.3-236.99,2.21-242.95-.05-3.11-.15-5.3,0-9.17.54-13.91,3.26-20.52,1.11-21.77-1.04-.6-2.54.41-10.47,6.65-6.2,4.88-9.31,7.32-10.26,8.16-30.5,27-107.53,39.05-107.54,39.05-11,1.72-44.03,6.56-97.31,6.88-9.57.06-78.88.16-148.17-14.9-20.44-4.44-59.81-14.32-72.98-33.23-.87-1.25-6.21-9.12-8.85-8.02Z"/>
    <path class="cls-3" d="m257.51,685.58c-6.38,0-10.31-.14-11.12-.18-51.74-2.11-100.61-4.1-140.42-12.47-48.54-10.2-78.37-29.59-91.2-59.25-3.46-8-4.03-20.11-5.9-60.25-1.54-33.01-1.41-55.47-1.24-83.91.08-13.21.17-28.18.11-46.38-.11-32.49-.61-56.59-1.1-79.9-.28-13.26-.59-25.92-.9-38.1-.67-27.17-1.31-52.82-1.32-76.88v-64.08c-.04-3.06-.02-6.1,0-9.03.01-2.69.03-5.38,0-8.08-.03-2.51-.06-4.7-.1-6.59-.08-4.68-.13-7.76.08-10.45.95-11.85,8.13-16.56,12.33-18.32h0c4.06-1.7,14.66-4.36,25.44,7.49,2.27,2.5,4.13,5.09,5.34,6.83l.08.12c3.06,4.39,15.2,15.69,61.88,25.83,65.42,14.22,131.58,14.56,144.19,14.48,35.4-.21,68.11-2.51,94.59-6.66h0c19.98-3.14,76.59-15.5,98.27-34.69,1.29-1.14,3.34-2.76,10.99-8.78,4.65-3.65,7.2-5.6,9.35-6.98,9.8-6.27,17.78-3.42,21.66-1.16,11.8,6.86,10.01,19.7,9.16,25.87-.45,3.22-1.01,7.23-1.21,12.38-.1,2.5-.07,4.06-.02,6.21l.04,1.98c.02,1.25,1.73,128.5-2.22,243.84v.24c-.52,14.95-2.19,66.17-2.2,97.69v63.07c.02,2.4.06,8.77,0,17.28-.15,19.92-.65,23.16-2.02,27.34-4.3,13.1-13.07,20.76-20.81,27.52-1,.87-10.05,8.68-20.21,13.93-70.78,36.58-160.36,40.02-191.5,40.02Zm-209.01-85.85c18.83,41.85,106.54,45.42,199.37,49.21,1.07.04,107.82,3.78,184.39-35.8,5.27-2.72,11.16-7.43,12.98-9.01,5.66-4.95,8.62-7.62,9.9-10.79.13-1.5.34-5.61.43-16.85.06-8.24.02-14.41,0-16.74v-.31s0-63.03,0-63.03c0-32.1,1.7-83.84,2.21-98.94v-.24c3.47-101.14,2.55-211.53,2.27-236.75-14.79,9.68-35.5,18.24-61.78,25.52-17.57,4.87-36.83,8.74-44.39,9.79v.06c-28.23,4.42-62.82,6.87-100.01,7.09-13.26.08-82.98-.28-152.15-15.31-26.19-5.69-46.2-12.47-60.81-20.7v61.32c0,23.6.64,49.05,1.31,75.98.3,12.22.62,24.92.9,38.24.47,22.37,1,47.73,1.11,80.54.06,18.38-.03,33.44-.11,46.72-.17,28.99-.3,49.94,1.2,81.98,1.08,23.06,2.01,43.04,3.18,48.01Zm.08.31h0,0ZM30.81,145.39h0s0,0,0,0Z"/>
  </g>
  <g>
    <path class="cls-3" d="m19.54,104.85c-1.75.73-1.26,4.86-1.12,18.51.06,5.78-.07,11.57,0,17.35v64.78c.01,34.7,1.32,71.96,2.24,115.67.49,23.1,1.01,48.04,1.12,80.97.19,58.42-1.13,82.7,1.12,130.71,1.55,32.92,2.32,49.38,4.49,54.37,23.21,53.37,115.51,57.12,218.8,61.31,0,0,113.17,4.59,196.36-38.17,8.62-4.43,16.83-11.57,16.83-11.57,7.03-6.11,12.92-11.23,15.71-19.66.5-1.53.98-3.39,1.12-21.98.07-8.69.02-15.24,0-17.35v-63.62c0-35.02,2.03-93.3,2.24-99.48,3.9-113.4,2.33-239.21,2.24-245.23-.05-3.14-.15-5.35,0-9.25.55-14.04,3.31-20.71,1.12-21.98-1.05-.61-2.58.42-10.63,6.71-6.3,4.92-9.44,7.39-10.41,8.24-30.95,27.25-109.12,39.42-109.12,39.42-11.16,1.74-44.68,6.62-98.74,6.94-9.72.06-80.05.16-150.36-15.04-20.74-4.48-60.69-14.45-74.06-33.55-.88-1.26-6.3-9.21-8.98-8.1Z"/>
    <path class="cls-3" d="m256.73,666.92c-6.48,0-10.46-.15-11.28-.18-52.49-2.13-102.06-4.14-142.43-12.58-49.16-10.28-79.37-29.8-92.37-59.68-3.5-8.06-4.08-20.27-5.98-60.76-1.57-33.34-1.43-56.01-1.26-84.71.08-13.33.17-28.44.11-46.82-.11-32.77-.62-57.1-1.12-80.63-.28-13.4-.6-26.15-.91-38.49-.68-27.41-1.33-53.3-1.34-77.57v-64.68c-.04-3.09-.02-6.15,0-9.11.02-2.72.03-5.44,0-8.16-.03-2.54-.06-4.74-.1-6.65-.08-4.72-.14-7.83.08-10.54.96-11.89,8.17-16.6,12.38-18.35,4.05-1.68,14.64-4.33,25.45,7.49,2.3,2.52,4.18,5.13,5.4,6.87l.08.12c3.12,4.45,15.49,15.91,62.96,26.18,66.42,14.36,133.59,14.7,146.39,14.63,35.95-.22,69.16-2.54,96.05-6.72,20.3-3.17,77.82-15.67,99.87-35.08,1.31-1.15,3.57-2.93,11.23-8.92,4.62-3.62,7.21-5.58,9.38-6.97,9.8-6.23,17.75-3.41,21.62-1.17,11.87,6.87,10.06,19.77,9.2,25.97-.45,3.25-1.02,7.3-1.22,12.51-.1,2.53-.07,4.1-.02,6.28l.04,2c.02,1.27,1.73,130.22-2.25,246.12v.39c-.53,15.11-2.22,66.85-2.23,98.47v63.67c.02,2.42.06,8.85,0,17.44-.15,20.09-.65,23.35-2.04,27.56-4.36,13.2-13.24,20.91-21.07,27.72l-.02-.02c-1.85,1.73-3.98,3.32-6.21,4.99-4.96,3.71-9.75,6.75-14.22,9.05-71.76,36.89-162.58,40.35-194.17,40.35Zm-212.37-86.45c19.16,42.37,108.26,45.99,202.57,49.81,1.07.04,109.49,3.82,187.28-36.17,5.36-2.76,11.34-7.5,13.2-9.11h0c5.8-5.04,8.81-7.76,10.12-10.98.13-1.5.35-5.65.44-17.03.06-8.31.02-14.55,0-16.9v-.31s0-63.62,0-63.62c0-31.32,1.57-80.17,2.24-99.72v-.39c3.53-102.22,2.58-214.7,2.31-239.38-36.96,24.3-100.29,34.74-108.05,35.94-28.64,4.46-63.72,6.93-101.44,7.16-13.46.08-84.17-.28-154.32-15.45-26.81-5.8-47.22-12.7-62.05-21.11v62.27c0,23.82.65,49.49,1.33,76.67.31,12.37.63,25.17.91,38.62.48,22.6,1.02,48.21,1.13,81.3.06,18.55-.03,33.75-.11,47.16-.18,29.26-.31,50.41,1.21,82.75,1.1,23.3,2.04,43.48,3.23,48.49Zm.08.31s0,0,0,0t0,0Z"/>
  </g>
  <g>
    <g>
      <ellipse class="cls-3" cx="250.45" cy="101.73" rx="232.21" ry="83.48"/>
      <path class="cls-3" d="m250.45,203.46c-64.08,0-124.58-9.07-170.37-25.53C13.89,154.13,0,123.36,0,101.73S13.89,49.32,80.08,25.53C125.87,9.07,186.38,0,250.45,0s124.58,9.07,170.37,25.53c66.19,23.8,80.08,54.57,80.08,76.2s-13.89,52.4-80.08,76.2c-45.79,16.46-106.29,25.53-170.37,25.53Zm0-166.97c-59.97,0-116.09,8.3-158.02,23.38-33.98,12.22-55.94,28.65-55.94,41.86s21.96,29.65,55.94,41.86c41.93,15.07,98.05,23.38,158.02,23.38s116.09-8.3,158.02-23.38c33.98-12.22,55.94-28.65,55.94-41.86s-21.96-29.65-55.94-41.86c-41.93-15.07-98.05-23.38-158.02-23.38Z"/>
    </g>
    <g>
      <ellipse class="cls-3" cx="250.45" cy="97.49" rx="224.47" ry="73.2"/>
      <path class="cls-3" d="m250.45,188.94c-61.83,0-120.2-7.93-164.38-22.34C21.33,145.49,7.74,117.37,7.74,97.49S21.33,49.5,86.07,28.39C130.25,13.98,188.62,6.05,250.45,6.05s120.2,7.93,164.38,22.34c64.74,21.11,78.33,49.23,78.33,69.11s-13.59,47.99-78.33,69.11c-44.17,14.4-102.55,22.34-164.38,22.34Zm0-146.4c-58.09,0-112.45,7.29-153.07,20.54-42.05,13.71-53.16,28.51-53.16,34.41s11.11,20.7,53.16,34.41c40.62,13.25,94.98,20.54,153.07,20.54s112.45-7.29,153.07-20.54c42.05-13.71,53.16-28.51,53.16-34.41s-11.11-20.7-53.16-34.41c-40.62-13.25-94.98-20.54-153.07-20.54Z"/>
    </g>
    <g>
      <ellipse class="cls-3" cx="249.35" cy="93.26" rx="225.57" ry="70.17"/>
      <path class="cls-3" d="m249.35,181.68c-62.04,0-120.61-7.59-164.92-21.38C48.43,149.1,5.53,128.39,5.53,93.26S48.43,37.41,84.42,26.22C128.73,12.43,187.3,4.84,249.35,4.84s120.61,7.59,164.92,21.38c35.99,11.2,78.89,31.92,78.89,67.04s-42.9,55.85-78.89,67.04c-44.31,13.79-102.88,21.38-164.92,21.38Zm0-140.35c-58.46,0-113.19,7.01-154.08,19.73-38.79,12.07-53.24,26.15-53.24,32.2s14.46,20.13,53.24,32.2c40.9,12.72,95.62,19.73,154.08,19.73s113.19-7.01,154.08-19.73c38.79-12.07,53.24-26.15,53.24-32.2s-14.45-20.13-53.24-32.2c-40.9-12.72-95.62-19.73-154.08-19.73Z"/>
    </g>
    <g>
      <path class="cls-3" d="m27.1,100.51c1.78.66,5.61-7.31,6.76-9.35,19.08-33.54,113.83-45.4,113.83-45.4,40.44-5.06,60.66-7.59,96.93-8.01,189.08-2.19,223.55,51.18,225.41,57.41.13.44,1.56,5.51,2.25,5.34.83-.2.2-7.63,0-9.35-1.87-16.16-23.53-28.52-27.23-30.58-19.98-11.12-51.16-22.49-107.26-30.25-14.5-2-39.59-5-71.22-5.81-3.98-.1-13.63-.31-26.46-.13-22.12.32-74.98,2.1-137.83,16.83,0,0-16.96,3.97-42.02,15.73-19.64,9.21-28.39,16.14-32.07,26.62-2.46,7.01-2.87,16.27-1.09,16.93Z"/>
      <path class="cls-3" d="m27.46,118.8c-3.02,0-5.45-.71-6.71-1.18h0c-5.23-1.94-13.86-7.68-12.9-24.24.3-5.25,1.44-11.02,3.13-15.84,6.15-17.55,20.45-27.21,41.53-37.1,26.48-12.42,44.84-16.8,45.61-16.98C143.57,12.83,192.58,6.84,239.85,6.16c9.25-.13,18.65-.09,27.19.13,24.45.62,49.09,2.63,73.26,5.98,49.64,6.86,86.81,17.45,113.63,32.38,10.07,5.6,33.79,21.15,36.48,44.42.12,1.07.39,3.85.49,6.65.07,1.87.06,3.44-.04,4.8-.77,10.66-7.84,16.14-14.21,17.71-6.06,1.49-17.69.3-22.77-13.7-.36-.99-.68-1.98-.92-2.76-1.66-2.38-10.52-13.38-38.84-24.2-49.38-18.87-119.32-22.14-169.29-21.57-35.24.41-55.17,2.9-94.87,7.87-.22.03-23.04,2.95-47.58,9.72-41.3,11.4-50.75,23.24-52.66,26.6-.12.21-.29.53-.48.9-.93,1.76-2.34,4.41-3.96,6.85-5.84,8.8-12.69,10.86-17.82,10.86Zm425.81-16.56h0Z"/>
    </g>
  </g>
  <g>
    <path class="cls-3" d="m177.88,340.21c-2.96-38.95,1.42-51.78,3.83-57.49,6.93-16.42,17.53-26.04,31.14-38.12,23.99-21.3,46.3-41.11,79.9-43.22,6.87-.43,39.05-2.45,65.07,20.15,26.7,23.19,28.73,56.5,29.56,70.22,1.7,27.95-7.31,49.06-11.61,58.81-10.16,23.06-24,37.21-32.28,45.52-25.33,25.41-35.7,18.07-59.03,38.86-34.04,30.34-40.47,70.06-53.35,67.52-8.3-1.63-7.73-19.01-21.62-23.54-10.61-3.46-16.87,4.93-22.96,1.51-10.33-5.81,2.25-33.01,1.18-73.05-.72-26.89-6.7-26.02-9.83-67.17Z"/>
    <path class="cls-3" d="m232.36,520.84c-1.53,0-3.12-.15-4.77-.47-12.45-2.45-17.58-12.63-20.64-18.72-.83-1.66-2.18-4.34-3.02-5.26-.62.16-1.62.5-2.39.77-4.54,1.55-13.98,4.78-23.95-.83-5.94-3.34-13.09-10.45-13.39-25.31-.13-6.3.89-13.44,2.07-21.7,1.62-11.34,3.63-25.45,3.2-41.45-.29-11-1.48-15.97-3.28-23.49-2.12-8.88-4.76-19.94-6.5-42.78h0c-3.06-40.27,1.17-56.4,5.21-65.97,8.67-20.56,21.87-32.27,35.84-44.67,25.07-22.26,51-45.28,90.88-47.78,30-1.88,57.76,6.85,78.18,24.58,32.48,28.21,34.9,67.93,35.81,82.89,2.01,32.94-8.98,57.89-13.12,67.28-11.74,26.64-28.16,43.12-36.06,51.04-16.01,16.06-27.53,21.25-37.7,25.82-7.51,3.38-13.44,6.05-22.12,13.78-15.49,13.81-24.55,30.08-31.82,43.15-3.81,6.84-7.09,12.75-10.85,17.44-3.69,4.62-11.06,11.68-21.58,11.68Zm-28.11-61.02c3.31,0,6.97.47,10.9,1.76,8.22,2.68,13.77,7.59,17.66,12.55.03-.05.06-.1.09-.16,8.15-14.66,19.32-34.74,39.43-52.65,12.86-11.46,22.72-15.9,31.42-19.81,8.7-3.92,15.56-7.01,26.83-18.31,7.3-7.32,19.51-19.58,28.51-40,3.46-7.85,11.56-26.24,10.09-50.35-.78-12.79-2.4-39.39-23.31-57.55-13.14-11.41-31.59-16.99-51.96-15.71-27.33,1.71-45.69,18.01-68.93,38.65-13.4,11.9-21.23,19.23-26.44,31.57-4.32,10.24-3.71,32.31-2.44,49.01,1.52,19.96,3.69,29.05,5.61,37.07,1.99,8.33,3.87,16.19,4.27,31,.51,19.08-1.84,35.55-3.55,47.58-.25,1.75-.52,3.61-.76,5.45.84-.06,1.71-.1,2.61-.1Z"/>
  </g>
  <g>
    <path class="cls-3" d="m184.65,339.84c-2.56-36.71,1.51-48.83,3.74-54.22,6.42-15.51,16.2-24.63,28.73-36.07,22.11-20.18,42.66-38.95,73.51-41.07,6.3-.43,35.85-2.46,59.64,18.74,24.41,21.76,26.14,53.16,26.85,66.1,1.45,26.35-6.91,46.29-10.89,55.5-9.42,21.79-22.18,35.19-29.81,43.05-23.35,24.06-32.84,17.18-54.34,36.88-31.36,28.74-37.43,66.22-49.24,63.88-7.61-1.51-7.02-17.89-19.75-22.11-9.72-3.22-15.51,4.72-21.08,1.51-9.45-5.44,2.2-31.13,1.37-68.89-.55-25.36-6.05-24.51-8.76-63.3Z"/>
    <path class="cls-3" d="m233.91,510.98c-1.76,0-3.31-.2-4.6-.45-12.28-2.43-17.33-12.81-20.04-18.38-.56-1.15-1.31-2.7-1.94-3.75-.29.1-.58.2-.83.29-4.43,1.57-13.66,4.85-23.56-.84-5.75-3.3-12.64-10.28-12.86-24.74-.09-5.98.87-12.74,1.99-20.56,1.53-10.68,3.43-23.96,3.1-39.01-.23-10.31-1.29-14.96-2.9-22.01-1.92-8.39-4.31-18.83-5.81-40.42h0c-2.66-38.07,1.32-53.39,5.08-62.48,8.11-19.58,20.34-30.74,33.29-42.56,23.29-21.26,47.36-43.24,84.56-45.79,28.06-1.93,54,6.35,73.04,23.32,30.07,26.8,32.15,64.52,32.93,78.71,1.72,31.18-8.51,54.84-12.36,63.74-10.94,25.31-26.15,40.98-33.46,48.52-14.91,15.37-25.63,20.36-35.09,24.77-6.8,3.17-12.17,5.67-20.01,12.86-14.16,12.97-22.49,28.28-29.19,40.58-3.54,6.5-6.59,12.11-10.1,16.6-7.35,9.42-15.39,11.59-21.23,11.59Zm-25.56-59.5c3.18,0,6.7.47,10.5,1.72,6.86,2.27,11.76,6.16,15.34,10.3,7.14-13.09,17.79-31.89,35.58-48.2,11.99-10.99,21.16-15.26,29.26-19.03,7.87-3.67,14.08-6.56,24.31-17.1,6.69-6.89,17.87-18.41,26.16-37.58,3.19-7.38,10.66-24.67,9.42-47.26-.66-11.93-2.02-36.77-20.78-53.48-11.82-10.53-27.81-15.42-46.25-14.16-24.5,1.68-41.25,16.98-62.46,36.34-12.25,11.18-19.41,18.07-24.18,29.58-3.97,9.57-3.49,30.28-2.4,45.97h0c1.31,18.76,3.26,27.3,4.99,34.83,1.8,7.88,3.5,15.32,3.81,29.35.39,18.04-1.83,33.6-3.45,44.97-.17,1.21-.36,2.49-.53,3.77.23,0,.46,0,.69,0Z"/>
  </g>
  <g>
    <path class="cls-3" d="m198.26,342.16c-1.8-36.47,2.17-48.53,4.32-53.91,6.2-15.45,15.41-24.56,27.21-36.01,20.81-20.18,40.17-38.95,68.81-41.23,5.85-.47,33.28-2.65,55.01,18.29,22.29,21.48,23.4,52.68,23.86,65.53.93,26.18-7.13,46.04-10.97,55.22-9.07,21.71-21.12,35.09-28.32,42.95-6.34,6.91-11.57,11.28-16.29,14.46-9.77,6.58-15.75,9.08-23.15,13.02-1.41.75-18.31,9.91-30.98,24.51-19.48,22.45-20.58,48.09-32.66,47.99-.89,0-1.5-.15-2.47-.38-12.25-2.91-12.56-17.95-22-21.07-7.36-2.43-11.97,5.14-15.56,2.65-7.61-5.28,10.54-41.13,10.31-69.16-.06-7.31-4.71-13.92-7.12-62.86Z"/>
    <path class="cls-3" d="m235.2,511.22c-.08,0-.17,0-.25,0-2.96-.02-5.11-.54-6.53-.87-13.44-3.19-19.79-12.8-23.61-19.02-7.44,2.68-14.2,1.95-20.13-2.16-7.95-5.51-11.03-14.69-9.15-27.28.88-5.85,2.65-12.39,4.71-19.97,3.28-12.07,6.99-25.75,6.9-36.76-.02-.53-.41-2.45-.76-4.14-1.6-7.85-4.59-22.46-6.34-57.96h0c-1.85-37.58,2.03-52.66,5.61-61.6,7.77-19.36,19.27-30.51,31.44-42.31,22.07-21.39,44.88-43.51,80.06-46.32,26.74-2.13,51.29,6.16,69.12,23.34,27.6,26.6,28.93,63.96,29.43,78.02,1.09,30.71-8.69,54.1-12.37,62.91-10.49,25.09-24.82,40.72-31.7,48.24-6.7,7.31-12.91,12.79-19.55,17.27-8.25,5.55-14.34,8.65-19.71,11.38-1.66.84-3.32,1.68-5.06,2.61-.15.08-15.18,8.15-25.78,20.36-7.35,8.47-11.64,17.87-15.42,26.15-5.41,11.87-12.82,28.12-30.92,28.12Zm-20.36-57.48c.5.14,1.01.29,1.52.46,8.4,2.78,13.33,8.5,16.68,13.49,4.31-9.46,10.23-22.32,20.94-34.66,14.43-16.62,32.68-26.79,36.19-28.66,1.96-1.04,3.82-1.99,5.68-2.93,5.08-2.58,9.46-4.81,15.86-9.11,4.19-2.82,8.33-6.52,13.03-11.65,6.32-6.9,16.91-18.45,24.94-37.66,3.11-7.43,10.38-24.82,9.57-47.53-1.3-36.68-13.2-48.15-18.28-53.04-10.34-9.97-24.5-14.54-40.9-13.24-22.1,1.76-37.75,16.93-57.56,36.14-11.56,11.21-18.32,18.11-22.98,29.71-3.91,9.74-3.81,30.51-3.03,46.21,1.61,32.72,4.24,45.56,5.65,52.46.79,3.85,1.46,7.17,1.5,11.15.13,16.02-4.47,32.98-8.17,46.61-.2.73-.4,1.49-.61,2.26Z"/>
  </g>
  <g>
    <g>
      <path class="cls-3" d="m120.96,535.2c10.08-12.83,19.05-8.19,35.53-21.5,25.96-20.97,18.21-44.17,37.15-50.94,1.19-.43,2.11-.65,2.55-.77,20.43-5.11,47.82,10.47,49.35,24.97.78,7.42-5.9,8.24-15.51,24.59-6.38,10.86-14.26,24.25-11.83,38.66,2.68,15.9,15,15.76,18.4,32.53,3.81,18.73-8.38,34.55-11.83,38.66-5.79,6.91-13.28,15.84-22.87,15.36-15.16-.75-15.31-24.01-38.42-35.62-19.23-9.66-30.86.55-42.49-9.26-13.98-11.79-13.15-40-.03-56.68Z"/>
      <path class="cls-3" d="m202.73,655.03c-.57,0-1.14-.01-1.72-.04-16.75-.83-24.96-13.37-30.39-21.66-4.29-6.54-7.99-12.2-15.32-15.88-5.6-2.81-9.78-2.74-15.58-2.64-7.74.14-19.43.34-30.49-8.98-23.06-19.44-20.4-59.28-2.61-81.9,8.49-10.8,17.25-14.1,24.29-16.75,4.65-1.75,8.66-3.26,14.12-7.67,9.52-7.69,12.64-15.56,15.94-23.89,4-10.1,9.48-23.94,26.53-30.03,2.01-.72,3.56-1.11,4.22-1.28,19.65-4.92,39.8,2.55,52.12,11.17,11.65,8.15,18.7,18.66,19.85,29.58,1.27,12.07-5.05,19.23-9.23,23.96-2.47,2.8-5.28,5.97-8.69,11.79-5.1,8.68-10.89,18.52-9.56,26.38.39,2.31.84,2.9,4.15,6.39,4.54,4.78,11.39,12.01,14.14,25.53,5.21,25.62-9.26,46.31-15.72,54.02-6.92,8.26-18.37,21.9-36.03,21.9Zm-60.09-76.74c7.38,0,17.4.71,29.03,6.55,16.1,8.09,24.14,20.37,29.46,28.5.81,1.24,1.78,2.72,2.65,3.95,2.32-2.02,5.34-5.62,7.01-7.61,2.39-2.85,10.03-12.96,7.93-23.3-.64-3.14-1.53-4.19-4.85-7.69-4.54-4.78-11.4-12.02-13.66-25.44-3.53-20.96,7.07-39,14.09-50.94,4.19-7.13,7.98-11.88,10.88-15.25-5.02-4.32-16.1-9.49-24.56-7.37-.25.06-.5.13-.83.25-1.18.42-1.92,1.6-4.9,9.12-3.96,10.01-9.95,25.13-26.94,38.84-10.03,8.1-18.22,11.18-24.19,13.43-5.27,1.98-6.33,2.44-8.46,5.15h0c-8.19,10.42-7.57,27.23-2.55,31.46.19.16.28.21.28.21.78.27,3.94.22,6.04.18,1.11-.02,2.3-.04,3.57-.04Zm84.99-88.35h0Z"/>
    </g>
    <g>
      <path class="cls-3" d="m130.15,534.85c8.85-12.09,16.55-7.86,30.94-20.47,22.66-19.87,16.23-41.45,32.66-47.99,1.03-.41,1.83-.63,2.21-.74,17.71-5,41.21,9.25,42.36,22.78.59,6.92-5.19,7.76-13.67,23.14-5.64,10.21-12.59,22.8-10.65,36.23,2.14,14.82,12.78,14.55,15.54,30.18,3.08,17.45-7.62,32.36-10.65,36.23-5.08,6.52-11.65,14.94-19.93,14.6-13.09-.54-12.97-22.25-32.81-32.84-16.51-8.81-26.67.86-36.62-8.18-11.95-10.86-10.92-37.21.6-52.94Z"/>
      <path class="cls-3" d="m199.53,647.07c-.43,0-.87,0-1.31-.03-16.3-.67-23.71-13.04-28.61-21.23-3.46-5.78-6.45-10.76-12.04-13.75-3.95-2.11-6.67-2.02-11.6-1.87-7.27.23-18.26.58-28.7-8.9-9.66-8.78-14.8-22.46-14.47-38.52.29-14.03,4.89-28.14,12.62-38.7h0c7.69-10.51,15.94-13.95,21.96-16.47,4-1.67,7.15-2.99,11.68-6.95,8.13-7.13,10.89-14.47,13.82-22.24,3.62-9.62,8.59-22.8,24.13-28.98,1.92-.76,3.44-1.19,4.01-1.35,14.42-4.07,32.09-.58,46.1,9.11,11.55,7.99,18.44,18.53,19.39,29.67.96,11.21-4.61,18-8.3,22.5-2.15,2.62-4.58,5.59-7.58,11.01-4.51,8.18-9.63,17.44-8.56,24.81.28,1.94.46,2.24,3.19,5.36,3.98,4.55,9.99,11.41,12.26,24.26,4.21,23.84-8.55,43.35-14.23,50.63-6.35,8.14-16.87,21.63-33.75,21.63Zm-50.35-73.43c6.65,0,15.42.82,25.57,6.23,14.52,7.75,21.53,19.45,26.17,27.2.04.07.09.15.13.22,1.28-1.5,2.55-3.14,3.46-4.3,1.49-1.91,8.82-11.92,7.07-21.84-.5-2.81-1.13-3.53-3.78-6.57-3.99-4.55-10.01-11.43-11.85-24.17-2.82-19.49,6.17-35.77,12.73-47.66,3.64-6.6,6.92-11.06,9.46-14.24-3.97-3.33-11.86-6.82-17.22-5.31-.19.05-.27.08-.43.14,0,0,0,0,0,0-.9,1.15-2.37,5.05-3.46,7.93-3.55,9.43-8.91,23.67-23.92,36.82-9.01,7.9-16.32,10.95-21.67,13.18-4.33,1.81-4.89,2.04-6.58,4.35h0c-6.95,9.49-6.56,24.11-3.51,28.15.93.03,2.35-.02,3.46-.05,1.33-.04,2.79-.09,4.37-.09Zm51.18-90.24h0,0Z"/>
    </g>
    <g>
      <path class="cls-3" d="m169.41,558.59c-2.56-1.94,23.76-45.42,26.97-43.82,2.19,1.09-4.54,24.06-21.27,39.64-2.43,2.27-5.02,4.68-5.69,4.17Z"/>
      <path class="cls-3" d="m169.71,576.91c-5.88,0-10.14-2.88-11.32-3.77h0c-2.63-2-10.83-9.6-5.74-23.54.79-2.17,1.95-4.75,3.55-7.9,2.55-5.02,6.25-11.51,10.15-17.79,2.56-4.12,6.37-10.05,10.02-14.87,1.93-2.56,3.63-4.55,5.18-6.08,9.98-9.84,20.1-5.94,22.97-4.51,5.61,2.8,9.36,8.07,10.28,14.45,1.77,12.26-9.51,38.33-27.26,54.87-1.42,1.32-3.01,2.8-4.6,4.07-4.83,3.84-9.37,5.07-13.22,5.07Z"/>
    </g>
    <g>
      <path class="cls-3" d="m183.3,610.79c-2.81,1.55-31.83-40.17-29.06-42.46,1.89-1.56,20.13,13.93,27.56,35.56,1.08,3.15,2.23,6.49,1.49,6.9Z"/>
      <path class="cls-3" d="m183.05,629.07c-4.25,0-9.47-1.49-14.78-6.62-1.66-1.6-3.54-3.71-5.76-6.45-3.54-4.36-7.96-10.37-12.11-16.48-2.73-4.02-6.6-9.92-9.53-15.23-1.55-2.81-2.68-5.17-3.45-7.21-4.94-13.12,2.74-20.79,5.21-22.83,4.84-3.99,11.18-5.27,17.39-3.51,11.92,3.37,31.15,24.28,39.04,47.22.63,1.82,1.33,3.88,1.84,5.85,3.89,15.07-6.61,21.75-8.79,22.96h0c-1.45.8-4.76,2.31-9.05,2.31Z"/>
    </g>
  </g>
  <path class="cls-13" d="m21.46,143.73c-1.72.72-1.24,4.82-1.11,18.34.06,5.73-.07,11.46,0,17.19v64.18c.01,34.38,1.3,71.3,2.21,114.6.48,22.89,1,47.59,1.11,80.22.19,57.88-1.12,81.94,1.11,129.5,1.52,32.61,2.29,48.92,4.42,53.86,22.87,52.88,113.83,56.59,215.62,60.74,0,0,111.53,4.55,193.51-37.82,8.49-4.39,16.59-11.46,16.59-11.46,6.92-6.05,12.74-11.13,15.48-19.48.5-1.51.97-3.35,1.11-21.77.07-8.61.02-15.1,0-17.19v-63.03c0-34.7,2-92.44,2.21-98.56,3.84-112.35,2.3-236.99,2.21-242.95-.05-3.11-.15-5.3,0-9.17.54-13.91,3.26-20.52,1.11-21.77-1.04-.6-2.54.41-10.47,6.65-6.2,4.88-9.31,7.32-10.26,8.16-30.5,27-107.53,39.05-107.54,39.05-11,1.72-44.03,6.56-97.31,6.88-9.57.06-78.88.16-148.17-14.9-20.44-4.44-59.81-14.32-72.98-33.23-.87-1.25-6.21-9.12-8.85-8.02Z"/>
  <path class="cls-10" d="m22.56,127.92c-1.72.72-1.24,4.82-1.11,18.34.06,5.73-.07,11.46,0,17.19v64.18c.01,34.38,1.3,71.3,2.21,114.6.48,22.89,1,47.59,1.11,80.22.19,57.88-1.12,81.94,1.11,129.5,1.52,32.61,2.29,48.92,4.42,53.86,22.87,52.88,113.83,56.59,215.62,60.74,0,0,111.53,4.55,193.51-37.82,8.49-4.39,16.59-11.46,16.59-11.46,6.92-6.05,12.74-11.13,15.48-19.48.5-1.51.97-3.35,1.11-21.77.07-8.61.02-15.1,0-17.19v-63.03c0-34.7,2-92.44,2.21-98.56,3.84-112.35,2.3-236.99,2.21-242.95-.05-3.11-.15-5.3,0-9.17.54-13.91,3.26-20.52,1.11-21.77-1.04-.6-2.54.41-10.47,6.65-6.2,4.88-9.31,7.32-10.26,8.16-30.5,27-107.53,39.05-107.54,39.05-11,1.72-44.03,6.56-97.31,6.88-9.57.06-78.88.16-148.17-14.9-20.44-4.44-59.81-14.32-72.98-33.23-.87-1.25-6.21-9.12-8.85-8.02Z"/>
  <path class="cls-11" d="m18.32,104.21c-1.75.73-1.26,4.86-1.12,18.51.06,5.78-.07,11.57,0,17.35v64.78c.01,34.7,1.32,71.96,2.24,115.67.49,23.1,1.01,48.04,1.12,80.97.19,58.42-1.13,82.7,1.12,130.71,1.55,32.92,2.32,49.38,4.49,54.37,23.21,53.37,115.51,57.12,218.8,61.31,0,0,113.17,4.59,196.36-38.17,8.62-4.43,16.83-11.57,16.83-11.57,7.03-6.11,12.92-11.23,15.71-19.66.5-1.53.98-3.39,1.12-21.98.07-8.69.02-15.24,0-17.35v-63.62c0-35.02,2.03-93.3,2.24-99.48,3.9-113.4,2.33-239.21,2.24-245.23-.05-3.14-.15-5.35,0-9.25.55-14.04,3.31-20.71,1.12-21.98-1.05-.61-2.58.42-10.63,6.71-6.3,4.92-9.44,7.39-10.41,8.24-30.95,27.25-109.12,39.42-109.12,39.42-11.16,1.74-44.68,6.62-98.74,6.94-9.72.06-80.05.16-150.36-15.04-20.74-4.48-60.69-14.45-74.06-33.55-.88-1.26-6.3-9.21-8.98-8.1Z"/>
  <g>
    <ellipse class="cls-7" cx="249.24" cy="101.09" rx="232.21" ry="83.48"/>
    <ellipse class="cls-12" cx="249.24" cy="96.86" rx="224.47" ry="73.2"/>
    <ellipse class="cls-1" cx="248.13" cy="92.62" rx="225.57" ry="70.17"/>
    <path class="cls-6" d="m25.89,99.88c1.78.66,5.61-7.31,6.76-9.35,19.08-33.54,113.83-45.4,113.83-45.4,40.44-5.06,60.66-7.59,96.93-8.01,189.08-2.19,223.55,51.18,225.41,57.41.13.44,1.56,5.51,2.25,5.34.83-.2.2-7.63,0-9.35-1.87-16.16-23.53-28.52-27.23-30.58-19.98-11.12-51.16-22.49-107.26-30.25-14.5-2-39.59-5-71.22-5.81-3.98-.1-13.63-.31-26.46-.13-22.12.32-74.98,2.1-137.83,16.83,0,0-16.96,3.97-42.02,15.73-19.64,9.21-28.39,16.14-32.07,26.62-2.46,7.01-2.87,16.27-1.09,16.93Z"/>
  </g>
  <path class="cls-8" d="m176.67,339.57c-2.96-38.95,1.42-51.78,3.83-57.49,6.93-16.42,17.53-26.04,31.14-38.12,23.99-21.3,46.3-41.11,79.9-43.22,6.87-.43,39.05-2.45,65.07,20.15,26.7,23.19,28.73,56.5,29.56,70.22,1.7,27.95-7.31,49.06-11.61,58.81-10.16,23.06-24,37.21-32.28,45.52-25.33,25.41-35.7,18.07-59.03,38.86-34.04,30.34-40.47,70.06-53.35,67.52-8.3-1.63-7.73-19.01-21.62-23.54-10.61-3.46-16.87,4.93-22.96,1.51-10.33-5.81,2.25-33.01,1.18-73.05-.72-26.89-6.7-26.02-9.83-67.17Z"/>
  <path class="cls-2" d="m183.44,339.21c-2.56-36.71,1.51-48.83,3.74-54.22,6.42-15.51,16.2-24.63,28.73-36.07,22.11-20.18,42.66-38.95,73.51-41.07,6.3-.43,35.85-2.46,59.64,18.74,24.41,21.76,26.14,53.16,26.85,66.1,1.45,26.35-6.91,46.29-10.89,55.5-9.42,21.79-22.18,35.19-29.81,43.05-23.35,24.06-32.84,17.18-54.34,36.88-31.36,28.74-37.43,66.22-49.24,63.88-7.61-1.51-7.02-17.89-19.75-22.11-9.72-3.22-15.51,4.72-21.08,1.51-9.45-5.44,2.2-31.13,1.37-68.89-.55-25.36-6.05-24.51-8.76-63.3Z"/>
  <path class="cls-9" d="m197.05,341.52c-1.8-36.47,2.17-48.53,4.32-53.91,6.2-15.45,15.41-24.56,27.21-36.01,20.81-20.18,40.17-38.95,68.81-41.23,5.85-.47,33.28-2.65,55.01,18.29,22.29,21.48,23.4,52.68,23.86,65.53.93,26.18-7.13,46.04-10.97,55.22-9.07,21.71-21.12,35.09-28.32,42.95-6.34,6.91-11.57,11.28-16.29,14.46-9.77,6.58-15.75,9.08-23.15,13.02-1.41.75-18.31,9.91-30.98,24.51-19.48,22.45-20.58,48.09-32.66,47.99-.89,0-1.5-.15-2.47-.38-12.25-2.91-12.56-17.95-22-21.07-7.36-2.43-11.97,5.14-15.56,2.65-7.61-5.28,10.54-41.13,10.31-69.16-.06-7.31-4.71-13.92-7.12-62.86Z"/>
  <g>
    <path class="cls-8" d="m119.75,534.56c10.08-12.83,19.05-8.19,35.53-21.5,25.96-20.97,18.21-44.17,37.15-50.94,1.19-.43,2.11-.65,2.55-.77,20.43-5.11,47.82,10.47,49.35,24.97.78,7.42-5.9,8.24-15.51,24.59-6.38,10.86-14.26,24.25-11.83,38.66,2.68,15.9,15,15.76,18.4,32.53,3.81,18.73-8.38,34.55-11.83,38.66-5.79,6.91-13.28,15.84-22.87,15.36-15.16-.75-15.31-24.01-38.42-35.62-19.23-9.66-30.86.55-42.49-9.26-13.98-11.79-13.15-40-.03-56.68Z"/>
    <path class="cls-4" d="m128.93,534.22c8.85-12.09,16.55-7.86,30.94-20.47,22.66-19.87,16.23-41.45,32.66-47.99,1.03-.41,1.83-.63,2.21-.74,17.71-5,41.21,9.25,42.36,22.78.59,6.92-5.19,7.76-13.67,23.14-5.64,10.21-12.59,22.8-10.65,36.23,2.14,14.82,12.78,14.55,15.54,30.18,3.08,17.45-7.62,32.36-10.65,36.23-5.08,6.52-11.65,14.94-19.93,14.6-13.09-.54-12.97-22.25-32.81-32.84-16.51-8.81-26.67.86-36.62-8.18-11.95-10.86-10.92-37.21.6-52.94Z"/>
    <path class="cls-5" d="m168.2,557.96c-2.56-1.94,23.76-45.42,26.97-43.82,2.19,1.09-4.54,24.06-21.27,39.64-2.43,2.27-5.02,4.68-5.69,4.17Z"/>
    <path class="cls-5" d="m182.08,610.15c-2.81,1.55-31.83-40.17-29.06-42.46,1.89-1.56,20.13,13.93,27.56,35.56,1.08,3.15,2.23,6.49,1.49,6.9Z"/>
  </g>
</svg>