<?xml version="1.0" encoding="UTF-8"?>
<svg id="Layer_1" data-name="Layer 1" xmlns="http://www.w3.org/2000/svg" viewBox="0 0 1020.38 842.9">
  <defs>
    <style>
      .cls-1 {
        fill: #f7b538;
      }

      .cls-2 {
        fill: #c32f27;
      }

      .cls-3 {
        fill: #780116;
      }
    </style>
  </defs>
  <path class="cls-3" d="m2.67,777.51c-.6,1-3.95,6.2-2.14,8.85.87,1.27,2.57,1.42,2.87,1.44,2.61.17,5.41-2.29,6.54-6.25,38.28-63.91,69.22-116,89.87-150.88,60.81-102.68,80.53-137.18,138.87-235.28,34.66-58.29,37.21-62.1,80.62-134.77,36.17-60.55,85.4-143.28,144.21-243.08.3-1.32.92-4.79-.72-8.56-1.87-4.31-5.48-6.2-7.07-7.03-4.42-2.31-8.54-1.99-10.05-1.85-3.37.31-5.93,1.46-7.38,2.26C186.76,450.27,6.88,770.47,2.67,777.51Z"/>
  <path class="cls-1" d="m406.96,113.26c-1.11-1.74-4.04-5.87-9.57-9.26-6.39-3.92-12.25-4.38-14.21-4.46,1.7-2.94,3.4-5.89,5.1-8.83,1.18-.13,7.24-.7,13.96,3.25,7.07,4.16,9.51,10.15,9.91,11.18-1.73,2.71-3.47,5.41-5.2,8.12Z"/>
  <path class="cls-1" d="m319.33,260.22c-.95-1.37-3.44-4.64-7.98-7.42-5.26-3.22-9.96-3.76-11.54-3.89,1.27-2.2,2.53-4.4,3.8-6.61.94-.06,5.78-.3,11.3,2.96,5.81,3.42,7.96,8.1,8.31,8.9-1.3,2.02-2.6,4.04-3.9,6.06Z"/>
  <path class="cls-2" d="m303.61,242.31c1.93-.04,6.5.14,11.3,2.96,5.06,2.98,7.45,7.18,8.31,8.9,27.91-46.97,55.82-93.94,83.73-140.91-1.52-2.3-4.84-6.66-10.68-9.91-5.38-2.99-10.38-3.65-13.09-3.81-26.52,47.59-53.05,95.18-79.57,142.77Z"/>
  <path class="cls-3" d="m70.54,809.5c-.6,1-3.95,6.2-2.14,8.85.87,1.27,2.57,1.42,2.87,1.44,2.61.17,5.41-2.29,6.54-6.25,38.28-63.91,69.22-116,89.87-150.88,60.81-102.68,80.53-137.18,138.87-235.28,34.66-58.29,37.21-62.1,80.62-134.77,36.17-60.55,85.4-143.28,144.21-243.08.3-1.32.92-4.79-.72-8.56-1.87-4.31-5.48-6.2-7.07-7.03-4.42-2.31-8.54-1.99-10.05-1.85-3.37.31-5.93,1.46-7.38,2.26C254.63,482.27,74.76,802.47,70.54,809.5Z"/>
  <path class="cls-1" d="m474.83,145.25c-1.11-1.74-4.04-5.87-9.57-9.26-6.39-3.92-12.25-4.38-14.21-4.46,1.7-2.94,3.4-5.89,5.1-8.83,1.18-.13,7.24-.7,13.96,3.25,7.07,4.16,9.51,10.15,9.91,11.18-1.73,2.71-3.47,5.41-5.2,8.12Z"/>
  <path class="cls-1" d="m387.2,292.22c-.95-1.37-3.44-4.64-7.98-7.42-5.26-3.22-9.96-3.76-11.54-3.89,1.27-2.2,2.53-4.4,3.8-6.61.94-.06,5.78-.3,11.3,2.96,5.81,3.42,7.96,8.1,8.31,8.9-1.3,2.02-2.6,4.04-3.9,6.06Z"/>
  <path class="cls-2" d="m371.48,274.3c1.93-.04,6.5.14,11.3,2.96,5.06,2.98,7.45,7.18,8.31,8.9,27.91-46.97,55.82-93.93,83.73-140.9-1.52-2.3-4.84-6.66-10.68-9.91-5.38-2.99-10.38-3.65-13.09-3.81-26.52,47.59-53.05,95.17-79.57,142.76Z"/>
  <path class="cls-3" d="m491.31,800.61c-.6,1-3.95,6.2-2.14,8.85.87,1.27,2.57,1.42,2.87,1.44,2.61.17,5.41-2.29,6.54-6.25,38.28-63.91,69.22-116,89.87-150.88,60.81-102.68,80.53-137.18,138.87-235.28,34.66-58.29,37.21-62.1,80.62-134.77,36.17-60.55,85.4-143.28,144.21-243.08.3-1.32.92-4.79-.72-8.56-1.87-4.31-5.48-6.2-7.07-7.03-4.42-2.31-8.54-1.99-10.05-1.85-3.37.31-5.93,1.46-7.38,2.26-251.52,447.92-431.39,768.12-435.6,775.15Z"/>
  <path class="cls-1" d="m895.59,136.36c-1.11-1.74-4.04-5.87-9.57-9.26-6.39-3.92-12.25-4.38-14.21-4.46,1.7-2.94,3.4-5.89,5.1-8.83,1.18-.13,7.24-.7,13.96,3.25,7.07,4.16,9.51,10.15,9.91,11.18-1.73,2.71-3.47,5.41-5.2,8.12Z"/>
  <path class="cls-1" d="m807.96,283.32c-.95-1.37-3.44-4.64-7.98-7.42-5.26-3.22-9.96-3.76-11.54-3.89,1.27-2.2,2.53-4.4,3.8-6.61.94-.06,5.78-.3,11.3,2.96,5.81,3.42,7.96,8.1,8.31,8.9-1.3,2.02-2.6,4.04-3.9,6.06Z"/>
  <path class="cls-2" d="m792.24,265.41c1.93-.04,6.5.14,11.3,2.96,5.06,2.98,7.45,7.18,8.31,8.9,27.91-46.97,55.82-93.94,83.73-140.91-1.52-2.3-4.84-6.66-10.68-9.91-5.38-2.99-10.38-3.65-13.09-3.81-26.52,47.59-53.05,95.18-79.57,142.77Z"/>
  <path class="cls-3" d="m559.18,832.6c-.6,1-3.95,6.2-2.14,8.85.87,1.27,2.57,1.42,2.87,1.44,2.61.17,5.41-2.29,6.54-6.25,38.28-63.91,69.22-116,89.87-150.88,60.81-102.68,80.53-137.18,138.87-235.28,34.66-58.29,37.21-62.1,80.62-134.77,36.17-60.55,85.4-143.28,144.21-243.08.3-1.32.92-4.79-.72-8.56-1.87-4.31-5.48-6.2-7.07-7.03-4.42-2.31-8.54-1.99-10.05-1.85-3.37.31-5.93,1.46-7.38,2.26-251.52,447.92-431.39,768.12-435.6,775.15Z"/>
  <path class="cls-1" d="m963.47,168.35c-1.11-1.74-4.04-5.87-9.57-9.26-6.39-3.92-12.25-4.38-14.21-4.46,1.7-2.94,3.4-5.89,5.1-8.83,1.18-.13,7.24-.7,13.96,3.25,7.07,4.16,9.51,10.15,9.91,11.18-1.73,2.71-3.47,5.41-5.2,8.12Z"/>
  <path class="cls-1" d="m875.83,315.32c-.95-1.37-3.44-4.64-7.98-7.42-5.26-3.22-9.96-3.76-11.54-3.89,1.27-2.2,2.53-4.4,3.8-6.61.94-.06,5.78-.3,11.3,2.96,5.81,3.42,7.96,8.1,8.31,8.9-1.3,2.02-2.6,4.04-3.9,6.06Z"/>
  <path class="cls-2" d="m860.12,297.41c1.93-.04,6.5.14,11.3,2.96,5.06,2.98,7.45,7.18,8.31,8.9,27.91-46.97,55.82-93.93,83.73-140.9-1.52-2.3-4.84-6.66-10.68-9.91-5.38-2.99-10.38-3.65-13.09-3.81-26.52,47.59-53.05,95.17-79.57,142.76Z"/>
</svg>