<?xml version="1.0" encoding="UTF-8"?>
<svg id="Layer_1" data-name="Layer 1" xmlns="http://www.w3.org/2000/svg" viewBox="0 0 406.49 495.35">
  <defs>
    <style>
      .cls-1 {
        fill: #f7b538;
      }

      .cls-2 {
        fill: #fff;
      }

      .cls-3 {
        fill: #780116;
      }
    </style>
  </defs>
  <path class="cls-3" d="m308.39,387.69l35.51,73.15c4.17,9.53.98,20.37-6.67,25.43-9.07,6-22.9,2.88-29.04-8.09-11.84-24.38-23.67-48.77-35.51-73.15l35.72-17.34Z"/>
  <path class="cls-3" d="m98.1,394.16l-35.51,73.15c-4.06,9.58-.42,20.53,7.87,25.43,9.25,5.47,22.14,2.12,27.85-8.09,11.84-24.38,23.67-48.77,35.51-73.15l-35.72-17.34Z"/>
  <path class="cls-3" d="m289,85.46l38.8,34.06,34.06-38.8c.2-1.78,1.54-15.43-8.77-25.83-12.18-12.28-29.13-8.45-30.03-8.23-5.4,6.49-11.01,13.07-16.85,19.71-5.78,6.58-11.53,12.94-17.22,19.08Z"/>
  <path class="cls-3" d="m117.49,85.46l-38.8,34.06-34.06-38.8c-.2-1.78-1.54-15.43,8.77-25.83,12.18-12.28,29.13-8.45,30.03-8.23,5.4,6.49,11.01,13.07,16.85,19.71,5.78,6.58,11.53,12.94,17.22,19.08Z"/>
  <rect class="cls-3" x="170.31" y="19.61" width="65.87" height="44.96"/>
  <circle class="cls-1" cx="203.24" cy="241.51" r="203.24"/>
  <circle class="cls-2" cx="203.24" cy="241.51" r="158.78"/>
  <path class="cls-3" d="m263.95,23.92h-120.54c-6.21-1.68-10.19-7.52-9.52-13.39.57-4.96,4.36-9.2,9.52-10.52h120.54c4.74,1.66,8.13,5.77,8.66,10.52.63,5.67-2.91,11.3-8.66,13.39Z"/>
  <g>
    <path class="cls-3" d="m145.36,203.65c0-10.54-4.35-18.45-13.04-23.72l-30.35,22.01-11.11-23.08c7.98-4.56,15.24-7.83,21.8-9.83,6.55-1.99,15.46-2.99,26.71-2.99,18.24,0,32.84,3.42,43.81,10.26,1.28,3.85,1.92,7.55,1.92,11.11,0,13.82-7.05,27.36-21.16,40.61,4.99,0,9.47.57,13.46,1.71,5.7,5.56,10.01,11.65,12.93,18.27,2.92,6.62,4.38,15,4.38,25.11,0,13.54-4.1,23.62-12.29,30.24-8.19,6.62-21.48,9.94-39.86,9.94s-35.69-4.42-51.93-13.25l10.26-19.24c15.67,10.12,33.48,15.53,53.43,16.24,2.14-7.98,3.21-18.02,3.21-30.13s-1.07-20.02-3.21-23.72c-8.84,2.28-17.24,5.84-25.22,10.69l-5.56-7.05,2.99-2.78c6.27-5.98,10.97-12.68,14.11-20.09,3.13-7.41,4.7-14.18,4.7-20.3Z"/>
    <path class="cls-3" d="m273.38,313.07c-17.24,0-30.71-4.42-40.39-13.25-8.27-20.09-12.4-40.53-12.4-61.34,0-15.24,2.17-28.71,6.52-40.39,4.34-11.68,9.51-20.66,15.5-26.93,10.83-3.42,20.3-5.13,28.42-5.13,17.24,0,30.7,4.42,40.39,13.25,8.26,20.09,12.4,40.54,12.4,61.34,0,15.25-2.17,28.71-6.52,40.39-4.35,11.68-9.51,20.66-15.49,26.93-10.83,3.42-20.3,5.13-28.42,5.13Zm23.08-108.35c0-6.7-.5-12.54-1.5-17.52-4.13-1-9.12-1.5-14.96-1.5-10.12,11.26-17.99,24.97-23.62,41.14-5.63,16.17-8.44,32.02-8.44,47.55,0,6.7.5,12.54,1.5,17.52,4.13,1,9.12,1.5,14.96,1.5,10.12-11.25,17.99-24.97,23.62-41.14,5.63-16.17,8.44-32.02,8.44-47.55Z"/>
  </g>
</svg>