<?xml version="1.0" encoding="UTF-8"?>
<svg id="Layer_1" data-name="Layer 1" xmlns="http://www.w3.org/2000/svg" viewBox="0 0 1165.9 832.18">
  <defs>
    <style>
      .cls-1 {
        fill: #f7b538;
      }

      .cls-2 {
        fill: #f6f6ee;
      }

      .cls-3 {
        fill: #eeeac4;
      }

      .cls-4 {
        fill: #f15a24;
      }

      .cls-5 {
        fill: #eae5e1;
      }

      .cls-6 {
        fill: #eaeaea;
      }

      .cls-7 {
        fill: #e9e6e1;
      }

      .cls-8 {
        fill: #e86e00;
      }

      .cls-9 {
        fill: #fffcfa;
      }

      .cls-10 {
        fill: #fff;
      }

      .cls-11 {
        fill: #ff0;
      }

      .cls-12 {
        fill: #ed1c24;
      }

      .cls-13 {
        fill: #e2eaed;
      }

      .cls-14 {
        fill: #ff8603;
      }

      .cls-15 {
        fill: #ced1c0;
      }

      .cls-16 {
        fill: #a6aa91;
      }

      .cls-17 {
        fill: #603813;
      }

      .cls-18 {
        fill: #780116;
      }

      .cls-19 {
        fill: #5f2c0e;
      }

      .cls-20 {
        fill: #532104;
      }
    </style>
  </defs>
  <path class="cls-10" d="m446.09,186.51c16.43,8.85,27.54,25.57,27.54,44.77,0,28.42-24.32,51.46-54.31,51.46-29.99,0-54.31-23.04-54.31-51.46,0-1.44.06-2.85.19-4.26-25.7-1.98-45.89-22.36-45.89-47.21,0-8.26,2.22-16.02,6.14-22.77-20.56-12.95-34.39-34.76-35.4-59.67-22.79-5.3-39.69-24.76-39.69-47.98,0-27.28,23.35-49.4,52.14-49.4,18.32,0,34.42,8.96,43.72,22.5,7.3-2.1,15.04-3.23,23.06-3.23,43.81,0,79.32,33.65,79.32,75.16,0,13.33-3.68,25.86-10.1,36.71,10.66,6.5,17.71,17.81,17.71,30.71,0,9.52-3.86,18.19-10.16,24.69l.03-.03Z"/>
  <path class="cls-13" d="m433.83,177.82c13.75,7.79,23.03,22.56,23.03,39.49,0,25.08-20.32,45.4-45.4,45.4-25.08,0-45.4-20.32-45.4-45.4,0-1.26.06-2.53.16-3.76-21.48-1.74-38.36-19.71-38.36-41.64,0-7.3,1.86-14.13,5.14-20.1-17.19-11.43-28.74-30.66-29.59-52.65-19.04-4.67-33.17-21.84-33.17-42.33,0-24.08,19.52-43.59,43.59-43.59,15.31,0,28.77,7.91,36.55,19.86,6.1-1.86,12.58-2.85,19.28-2.85,36.61,0,66.3,29.68,66.3,66.3,0,11.76-3.06,22.8-8.43,32.37,8.91,5.73,14.82,15.71,14.82,27.09,0,8.4-3.22,16.05-8.5,21.78l-.02.02Z"/>
  <path class="cls-10" d="m353.98,50.6c-.38,1.76,39.88,2.08,52.1,26.21,12.32,24.34-11.75,57.34-10,58.14,1.84.83,36.65-32.15,21.12-63.23-15.54-31.09-62.83-22.98-63.23-21.12h0Z"/>
  <path class="cls-10" d="m352.57,153.61c.78.43-12.53,15.54-7.62,28.13,4.94,12.71,25.27,14.75,24.98,15.67-.3.96-24.18,2.93-30.58-13.22-6.4-16.15,12.39-31.04,13.22-30.58h0Z"/>
  <path class="cls-10" d="m810.38,753.89c-11.07,12.23-29.39,29.04-56.52,40.14-9.73,3.98-17.18,5.83-34.68,9.73-51.33,11.44-77,17.15-96.35,19.46-9.17,1.09-44.86,5.12-91.75,3.94,0,0-7.96-.2-16.14-.6-39.18-1.92-143.59-23.08-281.35-58.07-7-3.83-16.6-10.25-24.41-20.68-18.5-24.71-13.56-54.08-11.05-77.69,4.8-45.15,1.77-79.27-3.09-133.95-5.22-58.79-16.09-90.79,6.42-121.63,5.92-8.11,12.36-13.68,16.7-17.03,18.58-5.58,45.91-12.82,79.65-18.24,32.43-5.22,56.53-6.46,98.92-8.51,22.45-1.09,59.58-2.8,109.94-2.42,20.38.16,75.41.91,146.98,7.28,61.5,5.48,85.39,10.67,106.62,17.03,26.33,7.89,47.27,17.18,61.66,24.33,5.44,50.71,7.28,93.13,7.85,124.34.82,45.1-.93,70.76-1.42,77.57-1.02,14.08-3.63,47.06-9.94,77.1-.71,3.36-2.45,11.42-4.19,22.64-2.34,15.1-3.36,27.44-3.85,35.27Z"/>
  <g>
    <path class="cls-10" d="m1136.51,497.24c-158,32.59-316,65.17-474,97.76l-21.97-81c156-45.73,311.99-91.45,467.99-137.18,4.04,1.28,34.38,11.45,46.22,42.57,9.98,26.23,2.82,56.85-18.24,77.84Z"/>
    <path class="cls-10" d="m657.7,602.83l-25.33-93.4,476.24-139.59,1.94.62c6.22,1.97,37.86,13.47,50.45,46.57,10.93,28.74,3.17,62.09-19.77,84.96l-1.42,1.41-1.96.4-480.16,99.03Zm-8.99-84.25l18.61,68.6,465.83-96.08c18.15-19.08,24.19-46.08,15.35-69.33-9.47-24.9-32.21-35.07-40.12-37.93l-459.67,134.74Z"/>
  </g>
  <path class="cls-10" d="m215.02,430.9l9.88,281.81c-.02,7.21.95,21.03,9.35,34.64,5.46,8.84,12.41,14.92,20.79,20.47,21.31,14.1,45.1,20.17,89.36,26.24,31.34,4.31,54.87,6.13,57.14,6.3,43.86,3.32,77.65,3.28,96.11,3.19,0,0,136.71-.67,227.03-19.98,11.03-2.36,33.23-7.53,49.88-26.24,9.39-10.55,13.62-21.59,16.63-30.97,12.61-39.4,10.35-70.91,10.91-140.12.29-35.71.95-34.08,1.03-69.79.1-34.65-.45-63.88-1.03-85.54-8.9,4.69-21.21,10.63-36.37,16.27-8.14,3.03-31.47,11.3-68.95,17.1-20.15,3.11-35.72,4.18-62.48,5.46-39.37,1.89-72.2,3.45-121.57,3.67-24.41.11-51.77-.56-106.46-1.87-16.25-.39-37.17-.95-64.54-3.97-17.6-1.95-31.42-4.2-43.18-6.48-16.81-3.27-28.29-5.5-42.85-10.65-10.61-3.76-24.8-9.75-40.65-19.53h-.02Z"/>
  <path class="cls-10" d="m802.54,429.62c-16.92,9.17-39.04,19.23-65.92,26.86-30.06,8.53-56.78,11.38-77.41,12.07,3.03,77.6,6.07,155.2,9.1,232.8.45,9.67-.16,23.17-5.01,38.22-10.87,33.74-35.63,52.12-45.05,58.41,16.21-.78,39.34-2.49,66.95-6.67,47.16-7.14,62.35-11.6,75.92-22.19,11.6-9.05,18.01-18.76,21.75-24.52,18.4-28.36,18.05-55,19.22-144.32.71-53.74.91-50.28,1.01-77.14.15-38.74-.19-70.9-.55-93.51h0Z"/>
  <path class="cls-10" d="m213.93,430.01c3.89,2.41,8.17,4.87,12.86,7.25,3.95,2.02,7.77,3.77,11.4,5.32-2.41,57.06-3.08,104.53-3.11,140.51,0,9.74,1.16,35.49,3.5,86.98,1.13,24.78,1.92,39.76,8.19,58.65,7.29,21.99,18.29,38.11,26.3,48.13-4.18-1.76-9.84-4.44-16.16-8.37-5.55-3.44-10.18-6.32-15.19-11.41-2.6-2.65-8.34-8.98-12.47-18.5-4.07-9.43-4.63-17.48-5.06-24.8-1.42-24.03-2.14-36.06-2.32-53.52-.11-10.59-.46-21.1-1.18-42.13-1.14-33.52-2.04-38.13-3.11-69.27-.78-22.57-.45-24.91-1.17-52.74-.73-28.3-1.72-51.22-2.43-66.09h-.02Z"/>
  <ellipse class="cls-10" cx="509.04" cy="425.75" rx="291.49" ry="37.75"/>
  <ellipse class="cls-10" cx="510.11" cy="425.73" rx="284.28" ry="33.04"/>
  <path class="cls-10" d="m267.11,439.13c40.5-5.45,83.01-9.78,127.4-12.6,134.26-8.51,256.01-1.28,361.6,12.99,14.92-3.39,32.23-8.38,32.11-13.99-.17-7.8-33.96-13.44-69.9-17.89-85.12-10.51-152.12-10.52-219.36-10.23-55.8.23-117.98.69-195.9,10.53-38.69,4.89-71.32,10.84-71.4,18.2-.04,3.89,9.03,7.19,17.15,9.45"/>
  <path class="cls-10" d="m278.88,441.55s.78-.11,2.31-.32c22.26-2.92,203.65-24.8,461.29.32,0,0-60.21,10.74-223.17,10.48-43.34.79-91.22.22-142.84-2.63-34.65-1.91-67.24-4.63-97.59-7.86h0Z"/>
  <path class="cls-19" d="m213.67,427.19l9.89,283.29c-.02,7.25.95,21.14,9.38,34.82,5.47,8.89,12.44,15.01,20.82,20.58,21.36,14.17,45.21,20.28,89.56,26.38,31.42,4.33,54.99,6.15,57.28,6.32,43.96,3.34,77.83,3.3,96.33,3.21,0,0,137.03-.67,227.55-20.09,11.06-2.37,33.3-7.58,49.99-26.37,9.41-10.61,13.65-21.7,16.66-31.13,12.64-39.6,10.38-71.29,10.93-140.85.29-35.89.95-34.26,1.05-70.17.1-34.84-.45-64.22-1.05-85.99-8.92,4.72-21.26,10.69-36.45,16.36-8.16,3.04-31.54,11.36-69.11,17.2-20.19,3.14-35.81,4.2-62.63,5.49-39.46,1.9-72.36,3.48-121.84,3.7-24.46.11-51.88-.56-106.71-1.89-16.29-.39-37.26-.95-64.68-3.99-17.64-1.96-31.49-4.22-43.29-6.52-16.85-3.28-28.35-5.52-42.95-10.7-10.63-3.77-24.86-9.8-40.75-19.63,362.67,52.34,527.63,46.43.01-.02Z"/>
  <path class="cls-15" d="m226.14,434.33l9.48,267.97c-.02,6.86.91,20,8.98,32.94,5.24,8.4,11.92,14.19,19.96,19.46,20.47,13.4,43.33,19.17,85.82,24.95,30.1,4.09,52.7,5.83,54.89,5.98,42.13,3.16,74.58,3.11,92.32,3.03,0,0,131.31-.63,218.06-19,10.59-2.24,31.92-7.16,47.91-24.95,9.01-10.03,13.09-20.53,15.97-29.45,12.11-37.46,9.94-67.43,10.48-133.24.28-33.95.91-32.4,1-66.36.09-32.95-.44-60.74-1-81.34-8.55,4.46-20.37,10.11-34.93,15.47-7.82,2.88-30.23,10.75-66.23,16.26-19.35,2.97-34.31,3.98-60.01,5.19-37.82,1.79-69.34,3.28-116.77,3.49-23.45.1-49.71-.52-102.26-1.79-15.62-.38-35.71-.9-61.98-3.77-16.91-1.85-30.18-3.99-41.48-6.17-16.14-3.1-27.17-5.23-41.16-10.13-10.19-3.56-23.83-9.27-39.04-18.57h-.01Z"/>
  <path class="cls-16" d="m790.45,433.11c-16.26,8.72-37.5,18.28-63.32,25.53-28.88,8.11-54.53,10.83-74.35,11.48,2.91,73.78,5.83,147.58,8.73,221.36.44,9.2-.16,22.04-4.82,36.33-10.45,32.09-34.21,49.55-43.28,55.54,15.57-.74,37.79-2.37,64.31-6.34,45.28-6.79,59.89-11.03,72.92-21.1,11.14-8.61,17.31-17.84,20.9-23.32,17.67-26.97,17.33-52.3,18.46-137.22.68-51.1.88-47.8.97-73.34.13-36.83-.19-67.42-.52-88.91Z"/>
  <path class="cls-2" d="m225.08,433.49c3.73,2.3,7.85,4.62,12.35,6.9,3.79,1.92,7.46,3.59,10.95,5.05-2.31,54.25-2.96,99.4-2.99,133.61,0,9.26,1.12,33.74,3.37,82.71,1.08,23.56,1.85,37.82,7.86,55.77,7.01,20.91,17.56,36.23,25.25,45.76-4.01-1.68-9.45-4.22-15.52-7.95-5.33-3.27-9.78-6.01-14.6-10.85-2.51-2.52-8.02-8.54-11.98-17.59-3.92-8.96-4.45-16.63-4.87-23.57-1.37-22.85-2.06-34.29-2.23-50.89-.11-10.07-.45-20.07-1.14-40.05-1.09-31.88-1.97-36.26-2.99-65.86-.74-21.47-.44-23.69-1.12-50.15-.71-26.92-1.64-48.71-2.34-62.85v-.02Z"/>
  <ellipse class="cls-5" cx="508.56" cy="429.44" rx="279.98" ry="35.91"/>
  <ellipse class="cls-20" cx="509.57" cy="429.42" rx="273.05" ry="31.42"/>
  <path class="cls-7" d="m276.17,442.15c38.91-5.18,79.74-9.3,122.37-11.98,128.95-8.1,245.9-1.2,347.32,12.36,14.34-3.22,30.96-7.98,30.85-13.31-.17-7.42-32.61-12.78-67.14-17-81.76-10-146.12-10-210.7-9.73-53.59.22-113.32.66-188.16,10.02-37.16,4.65-68.5,10.3-68.58,17.3-.04,3.7,8.67,6.84,16.47,8.98"/>
  <path class="cls-3" d="m287.47,444.46s.74-.11,2.21-.29c21.38-2.77,195.6-23.58,443.07.29,0,0-57.82,10.2-214.35,9.96-41.62.75-87.62.21-137.2-2.49-33.28-1.81-64.59-4.4-93.73-7.47h0Z"/>
  <g>
    <path class="cls-17" d="m777.45,671.07c5.96,8.6,13.23,21.08,18.54,37.22,6.06,18.43,7.25,34.64,7.18,45.82-1.18,5.05-6.62,25.76-26.95,38.96-12.2,7.92-24.3,9.58-30.57,9.99,0,0-34.57-.02-25.42-36.77,2.08-7.04,4.65-14.4,7.8-21.97,13.49-32.37,32.73-56.46,49.42-73.23h.01Z"/>
    <path class="cls-4" d="m776.12,683.32c5.02,7.25,11.15,17.75,15.62,31.34,5.11,15.52,6.11,29.18,6.05,38.58-.99,4.24-5.57,21.7-22.72,32.82-10.28,6.67-20.48,8.08-25.76,8.42,0,0-29.13-.02-21.42-30.97,1.75-5.94,3.92-12.13,6.57-18.5,11.37-27.27,27.59-47.55,41.66-61.69h.01Z"/>
    <path class="cls-12" d="m774.29,689.84c4.43,6.4,9.83,15.67,13.77,27.67,4.5,13.71,5.39,25.76,5.33,34.07-.88,3.75-4.91,19.16-20.01,28.97-9.06,5.89-18.05,7.13-22.7,7.43,0,0-25.68-.02-18.88-27.34,1.54-5.24,3.45-10.7,5.79-16.34,10.02-24.07,24.3-41.98,36.71-54.45h-.01Z"/>
    <path class="cls-11" d="m763.02,736.96c2.25,3.31,5,8.11,7.01,14.32,2.3,7.09,2.75,13.32,2.72,17.61-.44,1.93-2.48,9.9-10.14,14.96-4.6,3.04-9.16,3.67-11.52,3.83,0,0-13.03-.02-9.6-14.15.78-2.71,1.74-5.53,2.93-8.44,5.07-12.44,12.31-21.69,18.6-28.13h0Z"/>
  </g>
  <g>
    <path class="cls-17" d="m454.41,707.7c-5.34,7.71-11.86,18.88-16.6,33.34-5.42,16.52-6.5,31.04-6.43,41.05,1.06,4.52,5.92,23.09,24.14,34.91,10.93,7.09,21.77,8.59,27.38,8.95,0,0,30.97-.02,22.77-32.95-1.86-6.31-4.16-12.91-6.98-19.68-12.09-29-29.33-50.59-44.29-65.62h.01Z"/>
    <path class="cls-4" d="m455.6,718.67c-4.5,6.5-9.99,15.9-14,28.08-4.57,13.91-5.47,26.14-5.41,34.57.89,3.81,5,19.45,20.35,29.4,9.21,5.97,18.35,7.24,23.07,7.54,0,0,26.1-.02,19.19-27.74-1.57-5.32-3.5-10.86-5.89-16.58-10.19-24.42-24.72-42.61-37.33-55.27h.01Z"/>
    <path class="cls-12" d="m457.24,724.52c-3.97,5.73-8.81,14.04-12.33,24.8-4.04,12.28-4.83,23.09-4.78,30.53.78,3.36,4.4,17.16,17.93,25.96,8.11,5.27,16.18,6.39,20.34,6.65,0,0,23-.02,16.92-24.5-1.39-4.69-3.09-9.6-5.19-14.63-8.98-21.57-21.77-37.61-32.89-48.8h.01Z"/>
    <path class="cls-11" d="m467.34,766.74c-2.02,2.97-4.48,7.26-6.28,12.82-2.06,6.35-2.47,11.93-2.44,15.79.39,1.74,2.23,8.87,9.09,13.4,4.11,2.72,8.21,3.28,10.31,3.43,0,0,11.68-.02,8.6-12.67-.71-2.42-1.56-4.96-2.63-7.57-4.54-11.14-11.03-19.44-16.66-25.2h.01Z"/>
  </g>
  <g>
    <path class="cls-17" d="m347.2,699.8c-5.73,8.27-12.72,20.26-17.83,35.8-5.83,17.73-6.97,33.31-6.9,44.07,1.13,4.85,6.36,24.78,25.92,37.47,11.74,7.61,23.38,9.22,29.4,9.61,0,0,33.25-.02,24.45-35.37-2.01-6.77-4.46-13.85-7.5-21.13-12.98-31.14-31.48-54.3-47.53-70.45Z"/>
    <path class="cls-4" d="m348.48,711.58c-4.83,6.97-10.73,17.08-15.02,30.15-4.91,14.94-5.87,28.06-5.81,37.11.95,4.09,5.36,20.87,21.85,31.56,9.89,6.41,19.7,7.76,24.78,8.09,0,0,28.02-.02,20.6-29.79-1.69-5.7-3.77-11.66-6.32-17.79-10.93-26.22-26.54-45.73-40.07-59.33h0Z"/>
    <path class="cls-12" d="m350.24,717.85c-4.26,6.15-9.45,15.07-13.25,26.61-4.33,13.18-5.18,24.78-5.13,32.77.84,3.61,4.72,18.43,19.25,27.87,8.71,5.66,17.36,6.85,21.83,7.14,0,0,24.69-.02,18.16-26.3-1.48-5.04-3.32-10.3-5.57-15.71-9.63-23.15-23.38-40.38-35.3-52.37h0Z"/>
    <path class="cls-11" d="m361.08,763.18c-2.17,3.19-4.8,7.8-6.74,13.77-2.2,6.82-2.64,12.81-2.63,16.94.43,1.86,2.38,9.52,9.75,14.39,4.42,2.92,8.81,3.53,11.08,3.69,0,0,12.54-.02,9.23-13.61-.75-2.6-1.68-5.33-2.82-8.12-4.88-11.97-11.85-20.86-17.89-27.06h.01Z"/>
  </g>
  <g>
    <path class="cls-17" d="m654.42,701.49c5.5,7.94,12.21,19.46,17.11,34.36,5.6,17.02,6.69,31.99,6.63,42.3-1.08,4.66-6.11,23.79-24.89,35.98-11.26,7.31-22.44,8.84-28.22,9.22,0,0-31.92-.02-23.47-33.95,1.92-6.51,4.29-13.29,7.2-20.29,12.46-29.88,30.23-52.13,45.64-67.63h0Z"/>
    <path class="cls-4" d="m653.19,712.79c4.63,6.69,10.29,16.38,14.43,28.94,4.72,14.34,5.64,26.94,5.58,35.63-.91,3.93-5.15,20.03-20.97,30.3-9.49,6.15-18.91,7.46-23.78,7.77,0,0-26.9-.02-19.78-28.6,1.62-5.47,3.61-11.2,6.07-17.09,10.5-25.18,25.47-43.91,38.46-56.96h-.01Z"/>
    <path class="cls-12" d="m651.5,718.83c4.09,5.91,9.07,14.47,12.71,25.55,4.16,12.66,4.97,23.79,4.93,31.45-.8,3.47-4.54,17.69-18.48,26.75-8.37,5.44-16.66,6.58-20.96,6.86,0,0-23.71-.02-17.43-25.25,1.42-4.84,3.19-9.89,5.35-15.08,9.24-22.22,22.44-38.76,33.89-50.28h-.01Z"/>
    <path class="cls-11" d="m641.09,762.33c2.08,3.05,4.61,7.48,6.47,13.22,2.12,6.54,2.54,12.3,2.52,16.26-.4,1.79-2.29,9.15-9.37,13.82-4.24,2.8-8.45,3.39-10.63,3.53,0,0-12.03-.02-8.87-13.06.72-2.49,1.61-5.11,2.7-7.8,4.68-11.48,11.37-20.02,17.17-25.98h0Z"/>
  </g>
  <g>
    <g>
      <path class="cls-16" d="m763.08,484.25c-6.17,9.27,6.03,18.39,7.3,41.35,1.31,23.67-10.43,36.16-3.65,42.57,3.48,3.29,11.69,1.83,27.98-1.22,15.92-2.98,23.88-4.47,27.98-7.3,23.68-16.36,16.28-80.8-6.08-88.79-4.13-1.48-11.67.23-26.76,3.65-15.92,3.6-23.88,5.41-26.76,9.73Z"/>
      <path class="cls-19" d="m773.19,582.2c-6.13,0-10.82-1.4-14.82-5.19-8.79-8.31-5.72-19.31-3.47-27.34,1.81-6.47,3.86-13.81,3.33-23.4-.49-8.85-2.98-15.26-5.18-20.91-3.06-7.88-6.88-17.68-.1-27.86h0c5.58-8.37,15.14-10.54,34.2-14.85,17.91-4.06,26.09-5.91,33.54-3.24,14.22,5.09,24.63,22.7,27.83,47.1,4.44,33.85-6.87,54.81-18.93,63.15-6.23,4.3-14.51,5.85-32.65,9.25-9.89,1.85-17.56,3.28-23.75,3.28Zm.6-90.98c.43,1.47,1.27,3.63,1.93,5.34,2.57,6.61,6.09,15.66,6.79,28.38.75,13.61-2.11,23.83-4.19,31.29-.11.4-.23.83-.36,1.27,4.13-.56,9.68-1.6,14.49-2.5,11.34-2.12,21.13-3.96,23.31-5.36,7.24-5,10.96-22.18,8.62-39.96-2.09-15.95-7.94-25.41-11.51-27.2-2.83-.05-11.35,1.85-20.37,3.89-7.53,1.71-15.28,3.46-18.73,4.83Zm39.43-8.7h0Z"/>
    </g>
    <g>
      <path class="cls-15" d="m766.72,480.6c-1.46.81-3.75,2.22-4.87,4.87-1.11,2.63-.53,5.21,0,7.3,1.74,6.84,3.59,10.99,4.87,14.6.82,2.32,3.32,9.52,3.65,18.24.31,8.25-1.56,11.06,0,12.16,3.58,2.51,12.36-12.95,30.41-19.46,16.61-5.99,25.86,1.09,31.62-6.08,6.48-8.06.29-23.86-4.87-31.62-2.04-3.08-5.21-7.72-10.95-9.73-4.26-1.49-6.88-.47-15.81,1.22-12.85,2.42-25.25,3.65-34.06,8.51Z"/>
      <path class="cls-19" d="m770.99,550.29c-2.44,0-5-.73-7.61-2.56-6.82-4.79-5.86-12.36-5.5-15.21.21-1.67.45-3.55.34-6.45-.18-4.68-1.17-9.61-2.96-14.65-.28-.8-.6-1.63-.94-2.52-1.23-3.25-2.77-7.3-4.25-13.14-.65-2.55-2.17-8.52.58-15.03,2.84-6.72,8.37-9.77,10.19-10.78h0c8.79-4.85,19.08-6.61,29.98-8.46,2.53-.43,5.11-.87,7.71-1.36,1.52-.29,2.86-.55,4.04-.79,6.36-1.27,11.39-2.28,18.04.05,9.71,3.4,14.68,10.89,17.06,14.49,3.78,5.71,6.96,13.06,8.5,19.66,3.13,13.43-.6,21.72-4.29,26.31-6.75,8.4-15.95,8.17-22.04,8.01-4.45-.11-9.05-.23-14.94,1.89-7.97,2.87-13.78,8.14-18.45,12.36-3.44,3.11-9.02,8.17-15.46,8.17Zm2.87-59.67c1.08,4.06,2.2,7.03,3.2,9.67.4,1.06.78,2.06,1.12,3.02,1.37,3.87,2.43,7.75,3.16,11.59,4.26-2.97,9.32-5.86,15.31-8.02,10.18-3.67,18.38-3.47,23.8-3.33.81.02,1.73.03,2.6.04.18-3.25-1.85-10.53-5.65-16.26-1.55-2.34-2.98-4.32-4.83-4.97-.04-.01-.07-.03-.11-.04-.76.01-3.07.47-5.11.88-1.27.25-2.69.54-4.32.84-2.74.52-5.45.98-8.12,1.43-8.13,1.38-15.84,2.7-21.05,5.14Zm-.48-2.03h0Z"/>
    </g>
    <g>
      <ellipse class="cls-2" cx="788.87" cy="487.65" rx="19.29" ry="5.62" transform="translate(-111.91 266.93) rotate(-17.96)"/>
      <path class="cls-19" d="m776.6,507.8c-4.91,0-14.66-1.21-17.66-10.46-1.65-5.09-2.56-17.86,24.44-26.61,27-8.75,33.76,2.13,35.4,7.22h0c1.65,5.09,2.56,17.87-24.44,26.62-5.97,1.93-11.96,3.08-16.87,3.23-.27,0-.56.01-.88.01Z"/>
    </g>
    <g>
      <path class="cls-16" d="m799.56,485.47c2.84,21.89,5.68,43.79,8.51,65.68,107.79-21.89,215.58-43.79,323.37-65.68,2.44-3.19,17.57-23.63,12.33-51.09-6.02-31.54-33.7-44.93-36.49-46.22l-307.73,97.31"/>
      <path class="cls-19" d="m797.7,565.67l-11.5-88.73,321.93-101.8,4.28,1.98c3.69,1.71,36.22,17.73,43.33,54.98,5.91,30.96-9.7,54.34-14.62,60.76l-2.77,3.62-340.64,69.19Zm15.24-71.67l5.53,42.63,305.76-62.1c4.11-6.62,10.89-20.7,7.61-37.86-3.81-19.97-18.48-31.01-25.75-35.36l-293.15,92.7Z"/>
    </g>
    <g>
      <path class="cls-15" d="m798.27,487.74c-3.97,5.66.95,18.61,13.05,30.63,110.82-28,221.64-55.99,332.46-83.99-1.15-5.67-4.06-16.19-12.16-26.76-8.72-11.37-19.01-17-24.33-19.46-14.56,4.88-36.48,12.14-63.25,20.68-36.75,11.72-39.4,12.07-70.55,21.89-65.91,20.8-143.66,47.54-156.9,48.65-.83.07-4.93.34-9.73,2.43-.46.2-6.44,2.86-8.6,5.92Z"/>
      <path class="cls-19" d="m807.63,531.85l-4.88-4.85c-6.96-6.91-12.22-14.41-15.23-21.69-5.3-12.84-1.78-20.9.79-24.56h0c3.62-5.15,10.12-8.52,13.68-10.08,4.3-1.88,8.84-3.02,13.51-3.4,7.79-.66,52.29-15.14,91.55-27.91,20.76-6.75,42.22-13.74,62.79-20.23,13.99-4.41,22.33-6.95,30.41-9.4,10.22-3.1,19.86-6.03,40.1-12.49,21.13-6.74,42.35-13.68,63.08-20.62l4.59-1.54,4.39,2.03c11.31,5.24,21.29,13.23,28.86,23.09,7.12,9.28,12.11,20.26,14.44,31.75l2.3,11.36-350.37,88.51Zm1.71-37.64c.62,2.22,2.44,6.03,6.08,10.58l312.91-79.05c-1.52-3.43-3.58-7.09-6.36-10.71-5.04-6.56-10.82-10.9-15.69-13.7-19.29,6.44-38.95,12.85-58.54,19.1-20.4,6.51-30.58,9.6-40.43,12.59-8.01,2.43-16.29,4.95-30.15,9.32-20.46,6.46-41.87,13.42-62.58,20.16-55.2,17.96-86.93,28.17-96.96,29.01h-.14c-2.47.21-4.48.91-5.74,1.46-.75.33-1.64.79-2.39,1.24Zm-1.56,1.07h0Z"/>
    </g>
    <g>
      <path class="cls-2" d="m790.41,488.75c-4.17,2.89-.08,6.84,11.05,9.07,108.84-31.28,217.67-62.57,326.51-93.85-.87-1.11-2.11-2.58-3.74-4.17-1.33-1.31-2.49-2.27-3.56-3.12-3.8-3.03-6.31-5.03-8.51-6.08-4.6-2.19-9.49-1.02-13.38,0-16.91,4.42-34.9,11.09-41.35,13.38-4.21,1.49-10.92,3.76-19.46,6.08-4.2,1.38-10.52,3.47-18.24,6.08-8.44,2.85-7.9,2.73-12.01,4.09-9.59,3.18-13.85,4.27-27.65,8.55-4.54,1.41-9.75,3.03-16.18,5.05-65.21,20.41-142.25,45.33-155.19,48.28-.81.18-4.82,1.07-9.59,2.77-.46.16-6.42,2.31-8.68,3.87Z"/>
      <path class="cls-19" d="m801.97,510.33l-2.9-.58c-4.87-.98-19.68-3.94-22.12-15.71-1.2-5.79,1.3-11.65,6.53-15.28h0c3.18-2.21,8.59-4.29,11.53-5.34,2.4-.86,6.26-2.11,10.89-3.15,8.5-1.93,49.16-14.81,92.22-28.45,20.54-6.51,41.79-13.23,62.12-19.6,6.45-2.02,11.67-3.64,16.21-5.06,5.54-1.72,9.55-2.93,12.99-3.96,5.13-1.54,8.83-2.66,14.44-4.52,1.92-.64,2.79-.94,4.09-1.39,1.46-.5,3.44-1.19,7.85-2.68,6.18-2.09,12.35-4.14,18.34-6.11l.6-.18c6.33-1.72,12.58-3.68,18.59-5.81l2.54-.91c7.88-2.83,24.26-8.71,39.8-12.77,4.52-1.18,12.93-3.38,21.69.79,3.47,1.65,6.57,4.13,10.87,7.55,1.23.98,2.73,2.22,4.49,3.95,1.71,1.67,3.32,3.48,4.8,5.36l11.12,14.2-346.69,99.65Z"/>
    </g>
    <g>
      <path class="cls-2" d="m1107.29,388.16l4.87,2.43-4.87-2.43Z"/>
      <rect class="cls-19" x="1097.56" y="386.66" width="24.33" height="5.44" transform="translate(265.17 1207.81) rotate(-63.43)"/>
    </g>
    <g>
      <path class="cls-2" d="m1098.2,390.83c-.05-.5,2.3-1.32,9.09-2.66,2.89.92,4.96,1.8,4.87,2.43-.23,1.58-13.83,1.41-13.96.23Z"/>
      <path class="cls-19" d="m1105.63,403.92c-.7,0-1.33-.01-1.87-.02-4.07-.08-16.45-.32-17.66-11.8h0c-.26-2.44-.25-10.64,10.53-13.92,1.94-.59,4.58-1.21,8.29-1.94l3.07-.61,2.98.95c2.14.68,3.76,1.3,5.11,1.94,6.97,3.33,8.76,9.32,8.11,13.82-1.55,10.68-12.6,11.58-18.57,11.58Zm-5.63-13.28c.03,3.75,1.85,6.82,3.78,8.57l2.95-9.28-6.73.71Zm7.63-.8l1.31,6.63c1.03-1.91,1.64-4.26,1.36-6.91l-2.67.28Zm-2.58-8.98c-2.22,1.56-4.39,4.28-4.93,7.99-.09.61-.13,1.21-.12,1.79l6.73-.71.56-1.77.33,1.67,2.67-.28c-.43-4.08-2.8-7.05-5.25-8.7Z"/>
    </g>
  </g>
  <path class="cls-16" d="m758.24,482.65c-6.17,9.27,6.03,18.39,7.3,41.35,1.31,23.67-10.43,36.16-3.65,42.57,3.48,3.29,11.69,1.83,27.98-1.22,15.92-2.98,23.88-4.47,27.98-7.3,23.68-16.36,16.28-80.8-6.08-88.79-4.13-1.48-11.67.23-26.76,3.65-15.92,3.6-23.88,5.41-26.76,9.73Z"/>
  <path class="cls-15" d="m761.89,479c-1.46.81-3.75,2.22-4.87,4.87-1.11,2.63-.53,5.21,0,7.3,1.74,6.84,3.59,10.99,4.87,14.6.82,2.32,3.32,9.52,3.65,18.24.31,8.25-1.56,11.06,0,12.16,3.58,2.51,12.36-12.95,30.41-19.46,16.61-5.99,25.86,1.09,31.62-6.08,6.48-8.06.29-23.86-4.87-31.62-2.04-3.08-5.21-7.72-10.95-9.73-4.26-1.49-6.88-.47-15.81,1.22-12.85,2.42-25.25,3.65-34.06,8.51Z"/>
  <ellipse class="cls-2" cx="784.03" cy="486.04" rx="19.29" ry="5.62" transform="translate(-111.65 265.36) rotate(-17.96)"/>
  <path class="cls-16" d="m794.73,483.86c2.84,21.89,5.68,43.79,8.51,65.68,107.79-21.89,215.58-43.79,323.37-65.68,2.44-3.19,17.57-23.63,12.33-51.09-6.02-31.54-33.7-44.93-36.49-46.22l-307.73,97.31"/>
  <path class="cls-15" d="m793.43,486.14c-3.97,5.66.95,18.61,13.05,30.63,110.82-28,221.64-55.99,332.46-83.99-1.15-5.67-4.06-16.19-12.16-26.76-8.72-11.37-19.01-17-24.33-19.46-14.56,4.88-36.48,12.14-63.25,20.68-36.75,11.72-39.4,12.07-70.55,21.89-65.91,20.8-143.66,47.54-156.9,48.65-.83.07-4.93.34-9.73,2.43-.46.2-6.44,2.86-8.6,5.92Z"/>
  <path class="cls-2" d="m785.57,487.15c-4.17,2.89-.08,6.84,11.05,9.07,108.84-31.28,217.67-62.57,326.51-93.85-.87-1.11-2.11-2.58-3.74-4.17-1.33-1.31-2.49-2.27-3.56-3.12-3.8-3.03-6.31-5.03-8.51-6.08-4.6-2.19-9.49-1.02-13.38,0-16.91,4.42-34.9,11.09-41.35,13.38-4.21,1.49-10.92,3.76-19.46,6.08-4.2,1.38-10.52,3.47-18.24,6.08-8.44,2.85-7.9,2.73-12.01,4.09-9.59,3.18-13.85,4.27-27.65,8.55-4.54,1.41-9.75,3.03-16.18,5.05-65.21,20.41-142.25,45.33-155.19,48.28-.81.18-4.82,1.07-9.59,2.77-.46.16-6.42,2.31-8.68,3.87Z"/>
  <g>
    <path class="cls-10" d="m1058.19,615.36l4.87,2.43-4.87-2.43Z"/>
    <rect class="cls-10" x="1060.02" y="613.85" width="1.22" height="5.44" transform="translate(34.82 1289.48) rotate(-63.43)"/>
  </g>
  <g>
    <path class="cls-17" d="m215.62,674.83c-5.73,8.27-12.72,20.26-17.83,35.8-5.83,17.73-6.97,33.31-6.9,44.07,1.13,4.85,6.36,24.78,25.92,37.47,11.74,7.61,23.38,9.22,29.4,9.61,0,0,33.25-.02,24.45-35.37-2.01-6.77-4.46-13.85-7.5-21.13-12.98-31.14-31.48-54.3-47.53-70.45Z"/>
    <path class="cls-4" d="m216.89,686.6c-4.83,6.97-10.73,17.08-15.02,30.15-4.91,14.94-5.87,28.06-5.81,37.11.95,4.09,5.36,20.87,21.85,31.56,9.89,6.41,19.7,7.76,24.78,8.09,0,0,28.02-.02,20.6-29.79-1.69-5.7-3.77-11.66-6.32-17.79-10.93-26.22-26.54-45.73-40.07-59.33h0Z"/>
    <path class="cls-12" d="m218.66,692.88c-4.26,6.15-9.45,15.07-13.25,26.61-4.33,13.18-5.18,24.78-5.13,32.77.84,3.61,4.72,18.43,19.25,27.87,8.71,5.66,17.36,6.85,21.83,7.14,0,0,24.69-.02,18.16-26.3-1.48-5.04-3.32-10.3-5.57-15.71-9.63-23.15-23.38-40.38-35.3-52.37h0Z"/>
    <path class="cls-11" d="m229.49,738.21c-2.17,3.19-4.8,7.8-6.74,13.77-2.2,6.82-2.64,12.81-2.63,16.94.43,1.86,2.38,9.52,9.75,14.39,4.42,2.92,8.81,3.53,11.08,3.69,0,0,12.54-.02,9.23-13.61-.75-2.6-1.68-5.33-2.82-8.12-4.88-11.97-11.85-20.86-17.89-27.06h.01Z"/>
  </g>
  <g>
    <path class="cls-17" d="m270.04,670.19c-7.24,10.16-16.08,24.89-22.53,43.96-7.36,21.78-8.81,40.92-8.72,54.12,1.43,5.96,8.04,30.43,32.76,46.03,14.83,9.35,29.54,11.32,37.15,11.8,0,0,42.02-.03,30.9-43.44-2.54-8.32-5.64-17.02-9.48-25.95-16.4-38.24-39.78-66.69-60.07-86.52Z"/>
    <path class="cls-4" d="m271.65,684.65c-6.1,8.56-13.56,20.97-18.98,37.03-6.21,18.34-7.42,34.46-7.35,45.58,1.2,5.02,6.78,25.63,27.61,38.77,12.5,7.87,24.9,9.53,31.31,9.93,0,0,35.41-.03,26.04-36.58-2.14-7.01-4.76-14.33-7.99-21.86-13.82-32.21-33.54-56.17-50.63-72.87h0Z"/>
    <path class="cls-12" d="m273.88,692.36c-5.38,7.56-11.94,18.51-16.74,32.69-5.47,16.19-6.55,30.43-6.49,40.24,1.06,4.44,5.96,22.63,24.33,34.22,11.01,6.95,21.93,8.41,27.59,8.77,0,0,31.2-.03,22.95-32.3-1.88-6.18-4.2-12.65-7.04-19.3-12.17-28.43-29.54-49.6-44.61-64.33h0Z"/>
    <path class="cls-11" d="m287.58,748.03c-2.74,3.91-6.07,9.58-8.52,16.91-2.78,8.38-3.34,15.73-3.32,20.81.54,2.29,3.01,11.7,12.33,17.67,5.58,3.59,11.13,4.33,14,4.53,0,0,15.85-.03,11.67-16.72-.95-3.2-2.12-6.54-3.57-9.98-6.16-14.7-14.97-25.62-22.61-33.24h.02Z"/>
  </g>
  <g>
    <path class="cls-17" d="m543.31,759.03c-3.84,8.93-6.95,17.63-9.48,25.95-11.13,43.41,30.9,43.44,30.9,43.44,7.61-.48,22.32-2.45,37.15-11.8,24.72-15.6,31.33-40.07,32.76-46.03.09-13.21-1.35-32.34-8.72-54.12-6.46-19.08-15.29-33.81-22.53-43.96-20.29,19.84-43.67,48.28-60.07,86.52Z"/>
    <path class="cls-4" d="m601.76,686.97c-17.09,16.7-36.81,40.66-50.63,72.87-3.23,7.53-5.86,14.85-7.99,21.86-9.38,36.55,26.04,36.58,26.04,36.58,6.41-.4,18.81-2.06,31.31-9.93,20.83-13.13,26.41-33.75,27.61-38.77.08-11.11-1.14-27.23-7.35-45.58-5.43-16.06-12.88-28.47-18.98-37.03h0Z"/>
    <path class="cls-12" d="m599.53,694.68c-15.06,14.73-32.43,35.9-44.61,64.33-2.84,6.65-5.16,13.12-7.04,19.3-8.25,32.27,22.95,32.3,22.95,32.3,5.66-.36,16.59-1.82,27.59-8.77,18.37-11.59,23.27-29.79,24.33-34.22.06-9.81-1.01-24.05-6.49-40.24-4.8-14.18-11.36-25.13-16.74-32.69h0Z"/>
    <path class="cls-11" d="m585.85,750.34c-7.64,7.62-16.45,18.54-22.61,33.24-1.44,3.44-2.61,6.78-3.57,9.98-4.18,16.69,11.67,16.72,11.67,16.72,2.87-.19,8.42-.94,14-4.53,9.31-5.98,11.79-15.39,12.33-17.67.02-5.08-.54-12.43-3.32-20.81-2.44-7.33-5.78-13-8.52-16.91h.02Z"/>
  </g>
  <g>
    <path class="cls-17" d="m395.9,694.52c-6.81,8.97-15.13,21.98-21.2,38.82-6.93,19.23-8.29,36.13-8.2,47.79,1.34,5.26,7.56,26.87,30.82,40.64,13.95,8.26,27.79,10,34.95,10.42,0,0,39.53-.03,29.07-38.36-2.39-7.35-5.31-15.02-8.92-22.91-15.43-33.77-37.42-58.88-56.51-76.4Z"/>
    <path class="cls-4" d="m397.42,707.28c-5.74,7.56-12.75,18.52-17.86,32.7-5.84,16.2-6.98,30.43-6.91,40.24,1.13,4.43,6.38,22.63,25.97,34.23,11.76,6.95,23.43,8.42,29.46,8.77,0,0,33.32-.03,24.5-32.3-2.01-6.19-4.48-12.65-7.52-19.3-13-28.44-31.55-49.6-47.63-64.34h0Z"/>
    <path class="cls-12" d="m399.52,714.09c-5.06,6.67-11.24,16.34-15.75,28.86-5.15,14.3-6.16,26.87-6.1,35.54,1,3.92,5.61,19.98,22.89,30.22,10.35,6.13,20.64,7.43,25.96,7.74,0,0,29.35-.03,21.59-28.52-1.76-5.46-3.95-11.17-6.62-17.04-11.45-25.1-27.79-43.79-41.96-56.8h0Z"/>
    <path class="cls-11" d="m412.4,763.25c-2.57,3.46-5.71,8.46-8.01,14.93-2.62,7.4-3.14,13.89-3.12,18.37.51,2.02,2.83,10.33,11.6,15.6,5.25,3.17,10.47,3.83,13.17,4,0,0,14.91-.03,10.98-14.76-.9-2.82-2-5.78-3.35-8.81-5.8-12.98-14.08-22.62-21.27-29.35h.01Z"/>
  </g>
  <g>
    <path class="cls-17" d="m496.48,793.64c-1.75,4.18-3.16,8.25-4.31,12.14-5.06,20.31,14.05,20.32,14.05,20.32,3.46-.22,10.15-1.15,16.89-5.52,11.24-7.3,14.24-18.74,14.89-21.53.04-6.18-.61-15.13-3.96-25.32-2.94-8.92-6.95-15.82-10.25-20.57-9.22,9.28-19.85,22.59-27.31,40.48Z"/>
    <path class="cls-4" d="m523.06,759.93c-7.77,7.81-16.74,19.02-23.02,34.09-1.47,3.52-2.66,6.95-3.63,10.22-4.26,17.1,11.84,17.11,11.84,17.11,2.91-.19,8.55-.96,14.24-4.65,9.47-6.14,12.01-15.79,12.55-18.14.03-5.2-.52-12.74-3.34-21.32-2.47-7.51-5.86-13.32-8.63-17.32h0Z"/>
    <path class="cls-12" d="m522.04,763.54c-6.85,6.89-14.75,16.79-20.28,30.09-1.29,3.11-2.35,6.14-3.2,9.03-3.75,15.1,10.43,15.11,10.43,15.11,2.57-.17,7.54-.85,12.54-4.1,8.35-5.42,10.58-13.94,11.06-16.01.03-4.59-.46-11.25-2.95-18.83-2.18-6.63-5.16-11.75-7.61-15.29h0Z"/>
    <path class="cls-11" d="m515.82,789.57c-3.47,3.56-7.48,8.67-10.28,15.55-.66,1.61-1.19,3.17-1.62,4.67-1.9,7.81,5.3,7.82,5.3,7.82,1.31-.09,3.83-.44,6.37-2.12,4.24-2.8,5.36-7.2,5.6-8.27,0-2.38-.24-5.81-1.51-9.74-1.11-3.43-2.63-6.08-3.87-7.91h0Z"/>
  </g>
  <g>
    <path class="cls-17" d="m663,786.1c-1.75,4.18-3.16,8.25-4.31,12.14-5.06,20.31,14.05,20.32,14.05,20.32,3.46-.22,10.15-1.15,16.89-5.52,11.24-7.3,14.24-18.74,14.89-21.53.04-6.18-.61-15.13-3.96-25.32-2.94-8.92-6.95-15.82-10.25-20.57-9.22,9.28-19.85,22.59-27.31,40.48Z"/>
    <path class="cls-4" d="m689.58,752.39c-7.77,7.81-16.74,19.02-23.02,34.09-1.47,3.52-2.66,6.95-3.63,10.22-4.26,17.1,11.84,17.11,11.84,17.11,2.91-.19,8.55-.96,14.24-4.65,9.47-6.14,12.01-15.79,12.55-18.14.03-5.2-.52-12.74-3.34-21.32-2.47-7.51-5.86-13.32-8.63-17.32h0Z"/>
    <path class="cls-12" d="m688.56,755.99c-6.85,6.89-14.75,16.79-20.28,30.09-1.29,3.11-2.35,6.14-3.2,9.03-3.75,15.1,10.43,15.11,10.43,15.11,2.57-.17,7.54-.85,12.54-4.1,8.35-5.42,10.58-13.94,11.06-16.01.03-4.59-.46-11.25-2.95-18.83-2.18-6.63-5.16-11.75-7.61-15.29h0Z"/>
    <path class="cls-11" d="m682.34,782.03c-3.47,3.56-7.48,8.67-10.28,15.55-.66,1.61-1.19,3.17-1.62,4.67-1.9,7.81,5.3,7.82,5.3,7.82,1.31-.09,3.83-.44,6.37-2.12,4.24-2.8,5.36-7.2,5.6-8.27,0-2.38-.24-5.81-1.51-9.74-1.11-3.43-2.63-6.08-3.87-7.91h0Z"/>
  </g>
  <g>
    <path class="cls-17" d="m694.91,759.88c-3.04,7.27-5.5,14.35-7.5,21.13-8.81,35.35,24.45,35.37,24.45,35.37,6.02-.39,17.66-1.99,29.4-9.61,19.56-12.7,24.79-32.62,25.92-37.47.07-10.75-1.07-26.33-6.9-44.07-5.11-15.53-12.1-27.53-17.83-35.8-16.06,16.15-34.56,39.31-47.53,70.45Z"/>
    <path class="cls-4" d="m741.17,701.2c-13.53,13.6-29.13,33.11-40.07,59.33-2.55,6.13-4.63,12.09-6.32,17.79-7.42,29.76,20.6,29.79,20.6,29.79,5.07-.33,14.89-1.68,24.78-8.09,16.48-10.69,20.9-27.48,21.85-31.56.06-9.05-.9-22.17-5.81-37.11-4.29-13.08-10.19-23.18-15.02-30.15h0Z"/>
    <path class="cls-12" d="m739.41,707.48c-11.92,11.99-25.66,29.23-35.3,52.37-2.25,5.41-4.09,10.68-5.57,15.71-6.53,26.27,18.16,26.3,18.16,26.3,4.48-.29,13.12-1.48,21.83-7.14,14.53-9.44,18.42-24.25,19.25-27.87.05-7.99-.8-19.58-5.13-32.77-3.79-11.54-8.99-20.46-13.25-26.61h0Z"/>
    <path class="cls-11" d="m728.58,752.8c-6.05,6.2-13.01,15.09-17.89,27.06-1.14,2.8-2.07,5.52-2.82,8.12-3.31,13.59,9.23,13.61,9.23,13.61,2.27-.16,6.67-.77,11.08-3.69,7.37-4.87,9.33-12.53,9.75-14.39.01-4.14-.43-10.12-2.63-16.94-1.93-5.97-4.57-10.58-6.74-13.77h.01Z"/>
  </g>
  <path class="cls-10" d="m527.65,368.72c-4.79-4.94-7.72-11.53-7.72-18.77,0-9.8,5.36-18.4,13.46-23.34-4.88-8.25-7.67-17.77-7.67-27.9,0-31.55,26.99-57.13,60.29-57.13,6.09,0,11.98.86,17.53,2.46,7.07-10.29,19.3-17.1,33.23-17.1,21.88,0,39.63,16.81,39.63,37.55,0,17.65-12.84,32.44-30.16,36.47-.77,18.94-11.28,35.52-26.9,45.36,2.98,5.13,4.67,11.03,4.67,17.31,0,18.89-15.35,34.37-34.88,35.88.1,1.07.15,2.14.15,3.24,0,21.6-18.49,39.12-41.28,39.12s-41.28-17.51-41.28-39.12c0-14.6,8.44-27.31,20.93-34.03l.02.02Z"/>
  <path class="cls-13" d="m536.94,362.08c-4.01-4.35-6.46-10.17-6.46-16.55,0-8.65,4.49-16.24,11.26-20.59-4.09-7.27-6.41-15.67-6.41-24.61,0-27.83,22.56-50.39,50.39-50.39,5.1,0,10.02.75,14.66,2.17,5.91-9.09,16.14-15.09,27.78-15.09,18.29,0,33.13,14.83,33.13,33.13,0,15.57-10.74,28.62-25.21,32.17-.64,16.71-9.43,31.33-22.49,40.02,2.49,4.54,3.9,9.73,3.9,15.28,0,16.66-12.83,30.32-29.16,31.65.07.94.12,1.9.12,2.86,0,19.06-15.45,34.51-34.51,34.51s-34.51-15.45-34.51-34.51c0-12.87,7.05-24.1,17.5-30.02h-.01Z"/>
  <path class="cls-10" d="m619.16,246.38c.33-1.03,27.66-3.22,34.9,15.28,7.24,18.49-14.27,35.47-15.28,34.9-.95-.55,14.45-18.09,8.68-32.57-5.72-14.36-28.62-16.61-28.3-17.6h0Z"/>
  <path class="cls-10" d="m597.64,265.39c-.3-1.41-36.25-7.58-48.06,16.06-11.8,23.62,14.66,48.69,16.06,48.06,1.33-.61-16.97-25.69-7.6-44.19,9.29-18.34,39.9-18.59,39.6-19.92h0Z"/>
  <path class="cls-10" d="m598.71,343.69c.63-.35,14.91,10.97,10.05,23.24-4.87,12.27-23.01,10.78-23.24,10.05-.22-.69,15.23-2.25,18.99-11.91,3.73-9.57-6.39-21.05-5.79-21.38h0Z"/>
  <g>
    <path class="cls-10" d="m777.67,354.22c15.54-35.89,31.08-71.77,46.62-107.66l-107.92-46.15,19.93,50.37c-8.6,3.93-61.66,29.24-79.09,89.17-10.53,36.2-2.86,67.16,1.34,80.51-.12-6.86.42-16.31,3.27-27.11,2.91-11.03,7.22-19.67,10.78-25.63,3.76-6.17,8.77-13.31,15.4-20.63,8.16-9.01,16.36-15.65,23.2-20.41,7.41-4.7,15.6-9.47,24.58-14.13,7.44-3.86,14.62-7.23,21.46-10.17,6.81,17.28,13.62,34.56,20.44,51.84Z"/>
    <path class="cls-1" d="m777.19,336.26c12.37-28.87,24.73-57.75,37.1-86.62l-86.53-37.41,16.07,40.62c-12,4.79-42.58,18.87-64.78,52.54-28.27,42.89-23.09,87.43-21.44,98.7.54-7.51,2.07-16.7,5.77-26.62,1.01-2.7,5.23-13.64,14.48-25.76,5.04-6.6,9.48-10.82,14.46-15.53,11.27-10.68,21.09-17.21,23.24-18.62,7.18-4.71,14.12-8.13,27.99-14.96,7.08-3.49,13.02-6.25,17.16-8.14,5.49,13.93,10.99,27.87,16.48,41.8Z"/>
  </g>
  <path class="cls-18" d="m562.88,240.62l16.58,34.16c1.95,4.45.46,9.51-3.12,11.87-4.24,2.8-10.7,1.34-13.56-3.78-5.53-11.39-11.06-22.78-16.58-34.16l16.68-8.1Z"/>
  <path class="cls-18" d="m464.66,243.64l-16.58,34.16c-1.9,4.47-.2,9.59,3.68,11.87,4.32,2.55,10.34.99,13.01-3.78,5.53-11.39,11.06-22.78,16.58-34.16l-16.68-8.1Z"/>
  <path class="cls-18" d="m553.82,99.47l18.12,15.91,15.91-18.12c.1-.83.72-7.21-4.1-12.06-5.69-5.73-13.61-3.95-14.02-3.85-2.52,3.03-5.14,6.1-7.87,9.21-2.7,3.08-5.38,6.05-8.04,8.91Z"/>
  <path class="cls-18" d="m473.72,99.47l-18.12,15.91-15.91-18.12c-.1-.83-.72-7.21,4.1-12.06,5.69-5.73,13.61-3.95,14.02-3.85,2.52,3.03,5.14,6.1,7.87,9.21,2.7,3.08,5.38,6.05,8.04,8.91Z"/>
  <rect class="cls-18" x="498.39" y="68.72" width="30.76" height="21"/>
  <circle class="cls-1" cx="513.77" cy="172.35" r="94.92"/>
  <circle class="cls-10" cx="513.77" cy="172.35" r="74.16"/>
  <path class="cls-18" d="m542.12,70.73h-56.3c-2.9-.79-4.76-3.51-4.45-6.26.26-2.32,2.04-4.3,4.45-4.91h56.3c2.21.77,3.8,2.69,4.04,4.91.3,2.65-1.36,5.28-4.04,6.26Z"/>
  <path class="cls-18" d="m476.64,126.49l62.82,2.34,2.19,3.21-24.69,90.87-16.07,1.46,5.55-82.98-27.17,2.34-2.63-17.24Z"/>
  <path class="cls-6" d="m794.76,145.89c1.31-27.65,12.77-88.37,52.19-98.62,40.13-10.44,82.7,38.3,98.83,75.31,4.11,9.43,24.69,56.65,0,97.31-3.49,5.75-18.36,29.39-47.64,36.49-37.54,9.1-67.65-16.54-72.98-21.29-33.24-29.63-31.11-74.39-30.41-89.2Z"/>
  <path class="cls-9" d="m794.76,138.99c1.31-27.65,12.77-88.37,52.19-98.62,40.13-10.44,82.7,38.3,98.83,75.31,4.11,9.43,24.69,56.65,0,97.31-3.49,5.75-18.36,29.39-47.64,36.49-37.54,9.1-67.65-16.54-72.98-21.29-33.24-29.63-31.11-74.39-30.41-89.2Z"/>
  <path class="cls-14" d="m817.93,145.76c3.37-18.39,17.99-42.29,43.36-47.64,37.17-7.83,80.2,27.82,82.41,62.84.15,2.44,1.53,33.9-27.55,49.67-24.66,13.37-51.94,5-54.86,4.05-31.48-10.16-48.37-41.59-43.36-68.92Z"/>
  <path class="cls-8" d="m839.58,149.85c2.2-12.01,11.76-27.64,28.34-31.13,24.29-5.12,52.41,18.18,53.85,41.07.1,1.59,1,22.15-18,32.46-16.11,8.73-33.94,3.26-35.85,2.65-20.57-6.64-31.61-27.17-28.34-45.04Z"/>
  <g>
    <path class="cls-6" d="m1098.16,158.5c-1.31-27.65-12.77-88.37-52.19-98.62-40.13-10.44-82.7,38.3-98.83,75.31-4.11,9.43-24.69,56.65,0,97.31,3.49,5.75,18.36,29.39,47.64,36.49,37.54,9.1,67.65-16.54,72.98-21.29,33.24-29.63,31.11-74.39,30.41-89.2Z"/>
    <path class="cls-9" d="m1098.16,151.59c-1.31-27.65-12.77-88.37-52.19-98.62-40.13-10.44-82.7,38.3-98.83,75.31-4.11,9.43-24.69,56.65,0,97.31,3.49,5.75,18.36,29.39,47.64,36.49,37.54,9.1,67.65-16.54,72.98-21.29,33.24-29.63,31.11-74.39,30.41-89.2Z"/>
    <path class="cls-14" d="m1074.99,158.36c-3.37-18.39-17.99-42.29-43.36-47.64-37.17-7.83-80.2,27.82-82.41,62.84-.15,2.44-1.53,33.9,27.55,49.67,24.66,13.37,51.94,5,54.86,4.05,31.48-10.16,48.37-41.59,43.36-68.92Z"/>
    <path class="cls-8" d="m1053.34,162.45c-2.2-12.01-11.76-27.64-28.34-31.13-24.29-5.12-52.41,18.18-53.85,41.07-.1,1.59-1,22.15,18,32.46,16.11,8.73,33.94,3.26,35.85,2.65,20.57-6.64,31.61-27.17,28.34-45.04Z"/>
  </g>
  <path class="cls-6" d="m.3,184.34c1.31-27.65,12.77-88.37,52.19-98.62,40.13-10.44,82.7,38.3,98.83,75.31,4.11,9.43,24.69,56.65,0,97.31-3.49,5.75-18.36,29.39-47.64,36.49-37.54,9.1-67.65-16.54-72.98-21.29C-2.53,243.9-.4,199.15.3,184.34Z"/>
  <path class="cls-9" d="m.3,177.43c1.31-27.65,12.77-88.37,52.19-98.62,40.13-10.44,82.7,38.3,98.83,75.31,4.11,9.43,24.69,56.65,0,97.31-3.49,5.75-18.36,29.39-47.64,36.49-37.54,9.1-67.65-16.54-72.98-21.29C-2.53,237-.4,192.24.3,177.43Z"/>
  <path class="cls-6" d="m144.69,155.3c16.17-22.47,58.87-67.13,97.51-54.24,39.33,13.12,48.46,77.19,41.81,117.01-1.69,10.14-10.18,60.95-53.04,81.58-6.06,2.92-31.41,14.64-59.83,4.63-36.44-12.83-47.71-50.74-49.58-57.62-11.72-42.96,14.46-79.32,23.12-91.36Z"/>
  <path class="cls-9" d="m148.45,149.51c16.17-22.47,58.87-67.13,97.51-54.24,39.33,13.12,48.46,77.19,41.81,117.01-1.69,10.14-10.18,60.95-53.04,81.58-6.06,2.92-31.41,14.64-59.83,4.63-36.44-12.83-47.71-50.74-49.58-57.62-11.72-42.96,14.46-79.32,23.12-91.36Z"/>
  <g>
    <path class="cls-10" d="m280.31,384.51c38.53,6.67,77.06,13.34,115.6,20.01l19.49-115.74-44.27,31.21c-5.84-7.43-42.91-53.06-105.26-55.92-37.66-1.72-65.95,13-77.94,20.22,6.64-1.73,15.95-3.42,27.12-3.19,11.41.24,20.81,2.39,27.44,4.45,6.88,2.2,15,5.4,23.67,10.12,10.67,5.81,19.05,12.22,25.29,17.75,6.31,6.1,12.87,12.94,19.51,20.57,5.5,6.32,10.46,12.51,14.93,18.47-15.19,10.68-30.39,21.37-45.58,32.05Z"/>
    <path class="cls-1" d="m297.65,379.83c30.97,5.23,61.94,10.47,92.91,15.7l16.02-92.9-35.7,25.17c-7.47-10.54-28.35-36.96-66.3-50.62-48.33-17.4-90.41-1.89-100.98,2.36,7.42-1.24,16.72-1.91,27.23-.65,2.86.34,14.49,1.87,28.44,8.02,7.6,3.35,12.74,6.68,18.49,10.4,13.03,8.44,21.68,16.45,23.56,18.21,6.27,5.87,11.22,11.81,21.12,23.69,5.06,6.06,9.14,11.19,11.95,14.77-12.25,8.62-24.51,17.23-36.76,25.85Z"/>
  </g>
</svg>