<?xml version="1.0" encoding="UTF-8"?>
<svg id="Layer_1" data-name="Layer 1" xmlns="http://www.w3.org/2000/svg" viewBox="0 0 1026.24 737.78">
  <defs>
    <style>
      .cls-1, .cls-2 {
        fill: #f7b538;
      }

      .cls-3 {
        fill: #f6f6ee;
      }

      .cls-4 {
        fill: #f2f2f2;
      }

      .cls-5 {
        fill: #003f82;
      }

      .cls-6 {
        fill: #eeeac4;
      }

      .cls-7 {
        fill: #f15a24;
      }

      .cls-8 {
        fill: #ebe6e0;
      }

      .cls-9, .cls-10 {
        fill: #f28f38;
      }

      .cls-11 {
        fill: #eae5e1;
      }

      .cls-12 {
        fill: #e9e6e1;
      }

      .cls-13 {
        fill: #fff;
      }

      .cls-14 {
        fill: #ff0;
      }

      .cls-15 {
        fill: #ed1c24;
      }

      .cls-16 {
        fill: #f2b56b;
      }

      .cls-17 {
        fill: #fefefe;
      }

      .cls-18 {
        fill: #e2eaed;
      }

      .cls-19 {
        fill: #c32f27;
      }

      .cls-20 {
        fill: #c37441;
      }

      .cls-21 {
        fill: #c2bbb5;
      }

      .cls-22 {
        fill: #ced1c0;
      }

      .cls-23 {
        fill: #a89898;
      }

      .cls-24 {
        fill: #a6aa91;
      }

      .cls-25 {
        fill: #a6431f;
      }

      .cls-26, .cls-27 {
        fill: #d9753b;
      }

      .cls-28 {
        fill: #bcb5ad;
      }

      .cls-29 {
        fill: #cb9b31;
      }

      .cls-30, .cls-31 {
        fill: #d30909;
      }

      .cls-32 {
        fill: #cbc4be;
      }

      .cls-33, .cls-34 {
        fill: #af0202;
      }

      .cls-35 {
        fill: #877f7d;
      }

      .cls-36 {
        fill: #56250e;
      }

      .cls-37 {
        fill: #64381f;
      }

      .cls-38 {
        fill: #603813;
      }

      .cls-39 {
        fill: #780116;
      }

      .cls-40, .cls-41 {
        fill: #5f2c0e;
      }

      .cls-42 {
        fill: #532104;
      }

      .cls-10, .cls-31, .cls-34, .cls-27, .cls-41, .cls-43 {
        stroke: #fff;
        stroke-miterlimit: 10;
        stroke-width: 16.52px;
      }

      .cls-2 {
        font-family: JotiOne-Regular, 'Joti One';
        font-size: 36.28px;
      }
    </style>
  </defs>
  <g>
    <g>
      <path class="cls-13" d="m325.68,432.3c-11.04-9.39-53.7,10.9-53.68,37.59.02,26.73,42.84,46.92,53.68,37.59,3.12-2.68,2.23-6.65,2.21-34.5-.03-33.31,1.24-37.76-2.21-40.69h0Z"/>
      <path class="cls-13" d="m325.9,437.26c-10.03-8.14-48.8,9.45-48.79,32.58.02,23.17,38.93,40.67,48.79,32.58,2.84-2.33,2.03-5.76,2.01-29.9-.02-28.87,1.12-32.73-2.01-35.27h0Z"/>
      <path class="cls-13" d="m326.12,442.97c-9.03-6.72-43.91,7.81-43.89,26.93,0,19.15,35.03,33.61,43.89,26.93,2.55-1.92,1.83-4.76,1.81-24.71-.02-23.86,1.01-27.04-1.81-29.14h0Z"/>
      <path class="cls-13" d="m327.01,450.74c-7.71-4.91-37.48,5.71-37.47,19.68.01,13.99,29.9,24.56,37.47,19.68,2.18-1.41,1.56-3.48,1.54-18.06-.02-17.44.86-19.76-1.54-21.3Z"/>
    </g>
    <g>
      <path class="cls-13" d="m799.15,431.77c11.04-9.39,53.7,10.9,53.68,37.59-.02,26.73-42.84,46.92-53.68,37.59-3.12-2.68-2.23-6.65-2.21-34.5.03-33.31-1.24-37.76,2.21-40.69h0Z"/>
      <path class="cls-13" d="m798.93,436.73c10.03-8.14,48.8,9.45,48.79,32.58-.02,23.17-38.93,40.67-48.79,32.58-2.84-2.33-2.03-5.76-2.01-29.9.02-28.87-1.12-32.73,2.01-35.27h0Z"/>
      <path class="cls-13" d="m798.71,442.43c9.03-6.72,43.91,7.81,43.89,26.93-.01,19.15-35.03,33.61-43.89,26.93-2.55-1.92-1.83-4.76-1.81-24.71.02-23.86-1.01-27.04,1.81-29.14h0Z"/>
      <path class="cls-13" d="m797.82,450.21c7.71-4.91,37.48,5.71,37.47,19.68-.01,13.99-29.9,24.56-37.47,19.68-2.18-1.41-1.56-3.48-1.54-18.06.02-17.44-.86-19.76,1.54-21.3Z"/>
    </g>
    <path class="cls-13" d="m309.14,406.15l8.47,244.95c-.02,6.27.82,18.28,8.02,30.11,4.68,7.69,10.65,12.98,17.83,17.79,18.29,12.25,38.69,17.53,76.66,22.81,26.89,3.74,47.07,5.32,49.03,5.47,37.63,2.89,66.62,2.85,82.46,2.77,0,0,117.29-.58,194.77-17.37,9.47-2.05,28.51-6.55,42.79-22.81,8.05-9.17,11.69-18.77,14.26-26.91,10.82-34.25,8.88-61.64,9.36-121.79.07-9.38.24-18.8.24-18.8.04-2.3.08-3.94.1-4.56.24-10.7.49-29.7.55-37.3.11-14.58-.08-40.83-.89-74.35-7.64,4.08-18.2,9.24-31.2,14.14-6.99,2.63-26.99,9.83-59.16,14.87-17.29,2.71-30.65,3.63-53.61,4.75-33.77,1.64-61.94,3.01-104.29,3.19-20.94.09-44.41-.48-91.33-1.63-13.94-.34-31.89-.82-55.37-3.45-15.1-1.69-26.96-3.65-37.05-5.63-14.42-2.84-24.27-4.78-36.76-9.26-9.1-3.26-21.28-8.48-34.88-16.97v-.02Z"/>
    <path class="cls-13" d="m319.81,412.33l8.12,231.69c-.02,5.93.78,17.29,7.69,28.48,4.49,7.27,10.2,12.27,17.09,16.83,17.52,11.59,37.08,16.58,73.47,21.57,25.77,3.54,45.11,5.04,46.98,5.18,36.06,2.73,63.84,2.7,79.02,2.62,0,0,112.4-.55,186.65-16.43,9.07-1.94,27.32-6.19,41.01-21.57,7.72-8.67,11.2-17.75,13.67-25.46,10.37-32.39,8.51-58.3,8.97-115.2.24-29.36.78-28.02.85-57.38.08-28.49-.37-52.52-.85-70.33-7.32,3.86-17.44,8.74-29.9,13.38-6.69,2.49-25.87,9.29-56.69,14.06-16.57,2.56-29.37,3.44-51.37,4.49-32.37,1.55-59.36,2.84-99.95,3.02-20.07.09-42.56-.46-87.53-1.54-13.36-.32-30.56-.78-53.06-3.26-14.47-1.6-25.83-3.45-35.5-5.33-13.82-2.69-23.26-4.52-35.23-8.76-8.72-3.09-20.39-8.02-33.42-16.06h-.02Z"/>
    <path class="cls-13" d="m802.84,411.28c-13.91,7.54-32.1,15.81-54.2,22.08-24.71,7.01-46.68,9.36-63.64,9.92,2.49,63.8,4.99,127.6,7.48,191.4.37,7.95-.13,19.05-4.12,31.42-8.94,27.74-29.29,42.85-37.04,48.02,13.33-.64,32.34-2.05,55.04-5.48,38.77-5.87,51.26-9.54,62.42-18.24,9.54-7.44,14.81-15.42,17.88-20.16,15.13-23.32,14.84-45.22,15.8-118.65.58-44.18.75-41.34.83-63.42.12-31.85-.16-58.29-.45-76.88h0Z"/>
    <path class="cls-13" d="m318.91,411.6c3.2,1.98,6.72,4,10.57,5.96,3.25,1.66,6.39,3.1,9.37,4.37-1.98,46.91-2.53,85.94-2.56,115.52,0,8.01.95,29.18,2.88,71.51.93,20.37,1.58,32.69,6.73,48.22,5.99,18.08,15.04,31.33,21.62,39.57-3.44-1.45-8.09-3.65-13.29-6.88-4.56-2.83-8.37-5.2-12.49-9.38-2.14-2.18-6.86-7.38-10.25-15.21-3.35-7.75-3.81-14.37-4.16-20.39-1.17-19.76-1.76-29.65-1.91-44-.09-8.71-.38-17.35-.97-34.64-.94-27.56-1.68-31.35-2.56-56.95-.64-18.56-.37-20.48-.96-43.36-.6-23.27-1.41-42.11-2-54.34h-.02Z"/>
    <ellipse class="cls-13" cx="561.07" cy="408.1" rx="251.71" ry="38.13"/>
    <ellipse class="cls-13" cx="561.54" cy="408.1" rx="239.65" ry="31.04"/>
    <ellipse class="cls-13" cx="562.42" cy="408.08" rx="233.72" ry="27.16"/>
    <path class="cls-13" d="m362.63,419.1c33.3-4.48,68.25-8.04,104.74-10.36,110.38-7,210.48-1.05,297.29,10.68,12.27-2.79,26.5-6.89,26.4-11.5-.14-6.41-27.92-11.05-57.47-14.71-69.98-8.64-125.07-8.65-180.35-8.41-45.88.19-97,.57-161.06,8.66-31.81,4.02-58.64,8.91-58.7,14.96-.03,3.2,7.42,5.91,14.1,7.77"/>
    <path class="cls-13" d="m372.31,421.09s.64-.09,1.9-.26c18.3-2.4,167.43-20.39,379.25.26,0,0-49.5,8.83-183.48,8.62-35.63.65-75,.18-117.44-2.16-28.49-1.57-55.28-3.81-80.23-6.46h0Z"/>
  </g>
  <g>
    <g>
      <path class="cls-36" d="m334.59,434.14c-10.6-8.93-51.58,10.36-51.56,35.74.02,25.42,41.15,44.61,51.56,35.74,3-2.55,2.15-6.32,2.12-32.8-.03-31.67,1.19-35.9-2.12-38.69h0Z"/>
      <path class="cls-24" d="m334.8,438.85c-9.64-7.74-46.88,8.98-46.86,30.98,0,22.03,37.4,38.67,46.86,30.98,2.73-2.21,1.95-5.48,1.93-28.43-.02-27.45,1.08-31.12-1.93-33.53h0Z"/>
      <path class="cls-37" d="m335.01,444.28c-8.67-6.39-42.17,7.42-42.16,25.6.01,18.21,33.64,31.95,42.16,25.6,2.45-1.83,1.75-4.53,1.74-23.49-.02-22.69.97-25.71-1.74-27.71h0Z"/>
      <path class="cls-17" d="m335.87,451.68c-7.4-4.67-36,5.43-35.99,18.71.01,13.31,28.72,23.35,35.99,18.71,2.09-1.34,1.5-3.31,1.48-17.17-.02-16.58.83-18.79-1.48-20.25h0Z"/>
    </g>
    <g>
      <path class="cls-36" d="m789.36,433.64c10.6-8.93,51.58,10.36,51.56,35.74-.02,25.42-41.15,44.61-51.56,35.74-3-2.55-2.15-6.32-2.12-32.8.03-31.67-1.19-35.9,2.12-38.69h0Z"/>
      <path class="cls-24" d="m789.15,438.35c9.64-7.74,46.88,8.98,46.86,30.98-.01,22.03-37.4,38.67-46.86,30.98-2.73-2.21-1.95-5.48-1.93-28.43.02-27.45-1.08-31.12,1.93-33.53h0Z"/>
      <path class="cls-37" d="m788.94,443.78c8.67-6.39,42.17,7.42,42.16,25.6-.01,18.21-33.64,31.95-42.16,25.6-2.45-1.83-1.75-4.53-1.74-23.49.02-22.69-.97-25.71,1.74-27.71h0Z"/>
      <path class="cls-17" d="m788.08,451.17c7.4-4.67,36,5.43,35.99,18.71-.01,13.31-28.72,23.35-35.99,18.71-2.09-1.34-1.5-3.31-1.48-17.17.02-16.58-.83-18.79,1.48-20.25h0Z"/>
    </g>
    <path class="cls-40" d="m318.7,409.28l8.13,232.91c-.02,5.96.78,17.38,7.71,28.63,4.5,7.31,10.23,12.34,17.12,16.92,17.56,11.65,37.17,16.67,73.63,21.69,25.83,3.56,45.21,5.06,47.09,5.2,36.14,2.75,63.99,2.71,79.2,2.64,0,0,112.66-.55,187.08-16.52,9.09-1.95,27.38-6.23,41.1-21.68,7.74-8.72,11.22-17.84,13.7-25.59,10.39-32.56,8.53-58.61,8.99-115.8.24-29.51.78-28.17.86-57.69.08-28.64-.37-52.8-.86-70.7-7.33,3.88-17.48,8.79-29.97,13.45-6.71,2.5-25.93,9.34-56.82,14.14-16.6,2.58-29.44,3.45-51.49,4.51-32.44,1.56-59.49,2.86-100.17,3.04-20.11.09-42.65-.46-87.73-1.55-13.39-.32-30.63-.78-53.18-3.28-14.5-1.61-25.89-3.47-35.59-5.36-13.85-2.7-23.31-4.54-35.31-8.8-8.74-3.1-20.44-8.06-33.5-16.14v-.02Z"/>
    <path class="cls-22" d="m328.95,415.15l7.79,220.31c-.02,5.64.75,16.44,7.38,27.08,4.31,6.91,9.8,11.67,16.41,16,16.83,11.02,35.62,15.76,70.56,20.51,24.75,3.36,43.33,4.79,45.13,4.92,34.64,2.6,61.32,2.56,75.9,2.49,0,0,107.96-.52,179.28-15.62,8.71-1.84,26.24-5.89,39.39-20.51,7.41-8.25,10.76-16.88,13.13-24.21,9.96-30.8,8.17-55.44,8.62-109.54.23-27.91.75-26.64.82-54.56.07-27.09-.36-49.94-.82-66.87-7.03,3.67-16.75,8.31-28.72,12.72-6.43,2.37-24.85,8.84-54.45,13.37-15.91,2.44-28.21,3.27-49.34,4.27-31.09,1.47-57.01,2.7-96,2.87-19.28.08-40.87-.43-84.07-1.47-12.84-.31-29.36-.74-50.96-3.1-13.9-1.52-24.81-3.28-34.1-5.07-13.27-2.55-22.34-4.3-33.84-8.33-8.38-2.93-19.59-7.62-32.1-15.27h-.01Z"/>
    <path class="cls-24" d="m792.9,414.15c-13.37,7.17-30.83,15.03-52.06,20.99-23.74,6.67-44.83,8.9-61.13,9.44,2.39,60.66,4.79,121.33,7.18,181.99.36,7.56-.13,18.12-3.96,29.87-8.59,26.38-28.13,40.74-35.58,45.66,12.8-.61,31.07-1.95,52.87-5.21,37.23-5.58,49.24-9.07,59.95-17.35,9.16-7.08,14.23-14.67,17.18-19.17,14.53-22.17,14.25-43,15.18-112.82.56-42.01.72-39.3.8-60.3.11-30.28-.16-55.43-.43-73.1Z"/>
    <path class="cls-3" d="m328.08,414.46c3.07,1.89,6.45,3.8,10.15,5.67,3.12,1.58,6.13,2.95,9,4.15-1.9,44.6-2.43,81.72-2.46,109.85,0,7.61.92,27.74,2.77,68,.89,19.37,1.52,31.09,6.46,45.85,5.76,17.19,14.44,29.79,20.76,37.62-3.3-1.38-7.77-3.47-12.76-6.54-4.38-2.69-8.04-4.94-12-8.92-2.06-2.07-6.59-7.02-9.85-14.46-3.22-7.37-3.66-13.67-4-19.38-1.13-18.79-1.69-28.19-1.83-41.84-.09-8.28-.37-16.5-.94-32.93-.9-26.21-1.62-29.81-2.46-54.15-.61-17.65-.36-19.48-.92-41.23-.58-22.13-1.35-40.05-1.92-51.67v-.02Z"/>
    <ellipse class="cls-40" cx="560.68" cy="411.13" rx="241.77" ry="36.25"/>
    <ellipse class="cls-11" cx="561.14" cy="411.13" rx="230.19" ry="29.52"/>
    <ellipse class="cls-42" cx="561.97" cy="411.11" rx="224.49" ry="25.83"/>
    <path class="cls-12" d="m370.08,421.58c31.99-4.26,65.56-7.65,100.61-9.85,106.02-6.66,202.17-.99,285.55,10.16,11.79-2.65,25.45-6.56,25.36-10.94-.14-6.1-26.81-10.51-55.2-13.98-67.22-8.22-120.13-8.22-173.23-8-44.06.18-93.17.54-154.7,8.24-30.55,3.82-56.32,8.47-56.38,14.22-.03,3.04,7.13,5.62,13.54,7.38"/>
    <path class="cls-6" d="m379.37,423.48s.61-.09,1.82-.24c17.58-2.28,160.81-19.39,364.27.24,0,0-47.54,8.39-176.23,8.19-34.22.62-72.04.17-112.8-2.05-27.36-1.49-53.1-3.62-77.06-6.14h0Z"/>
  </g>
  <path class="cls-13" d="m502.75,256.54c8.68-8.94,13.98-20.86,13.98-33.96,0-17.73-9.72-33.3-24.37-42.23,8.83-14.93,13.88-32.15,13.88-50.48,0-57.09-48.84-103.37-109.09-103.37-11.04,0-21.68,1.56-31.72,4.45C352.64,12.32,330.49,0,305.29,0c-39.61-.01-71.72,30.41-71.72,67.94,0,31.93,23.25,58.7,54.58,65.99,1.4,34.27,20.4,64.26,48.69,82.08-5.39,9.3-8.46,19.97-8.46,31.32,0,34.18,27.78,62.2,63.12,64.93-.17,1.93-.27,3.88-.27,5.86,0,39.1,33.45,70.79,74.71,70.79s74.71-31.69,74.71-70.79c0-26.4-15.27-49.41-37.88-61.58h-.02Z"/>
  <path class="cls-18" d="m485.95,244.53c7.26-7.88,11.69-18.4,11.69-29.96,0-15.64-8.12-29.38-20.37-37.25,7.39-13.17,11.6-28.36,11.6-44.53,0-50.36-40.83-91.19-91.19-91.19-9.22,0-18.13,1.37-26.52,3.92-10.69-16.43-29.21-27.31-50.27-27.31-33.11,0-59.95,26.84-59.95,59.95,0,28.17,19.43,51.79,45.62,58.21,1.17,30.24,17.05,56.69,40.7,72.41-4.5,8.2-7.07,17.62-7.07,27.63,0,30.16,23.22,54.87,52.76,57.28-.14,1.71-.23,3.43-.23,5.17,0,34.49,27.96,62.45,62.45,62.45s62.45-27.96,62.45-62.45c0-23.29-12.76-43.59-31.66-54.33h-.01Z"/>
  <path class="cls-13" d="m622.18,358.74c-3.94-4.06-6.35-9.48-6.35-15.43,0-8.06,4.41-15.13,11.07-19.19-4.01-6.78-6.31-14.61-6.31-22.94,0-25.94,22.19-46.97,49.57-46.97,5.01,0,9.85.71,14.41,2.02,5.81-8.46,15.87-14.06,27.32-14.06,17.99,0,32.58,13.82,32.58,30.87,0,14.51-10.56,26.67-24.8,29.98-.63,15.57-9.27,29.2-22.12,37.29,2.45,4.22,3.84,9.07,3.84,14.23,0,15.53-12.62,28.26-28.68,29.5.08.88.12,1.76.12,2.66,0,17.76-15.2,32.16-33.94,32.16s-33.94-14.4-33.94-32.16c0-12,6.94-22.45,17.21-27.98l.02.02Z"/>
  <path class="cls-18" d="m629.81,353.28c-3.3-3.58-5.31-8.36-5.31-13.61,0-7.11,3.69-13.35,9.26-16.93-3.36-5.98-5.27-12.88-5.27-20.23,0-22.88,18.55-41.43,41.43-41.43,4.19,0,8.24.62,12.05,1.78,4.86-7.47,13.27-12.41,22.84-12.41,15.04,0,27.24,12.19,27.24,27.24,0,12.8-8.83,23.53-20.73,26.45-.53,13.74-7.75,25.76-18.49,32.9,2.05,3.73,3.21,8,3.21,12.56,0,13.7-10.55,24.93-23.97,26.02.06.77.1,1.56.1,2.35,0,15.67-12.7,28.37-28.37,28.37s-28.37-12.7-28.37-28.37c0-10.58,5.8-19.81,14.39-24.68h-.01Z"/>
  <path class="cls-13" d="m320.86,121.37c-1.05,1.31-41.65-10.93-41.65-41.65s40.54-43.04,41.65-41.65c1.06,1.32-31,17.92-30.86,42.02.14,23.9,31.85,40.05,30.86,41.29h0Z"/>
  <path class="cls-13" d="m386.63,197.3c-.41,1.63-42.44,7.32-55.18-20.64-12.73-27.94,19.04-55.97,20.64-55.18,1.51.76-20.78,29.16-10.66,51.04,10.04,21.7,45.59,23.24,45.2,24.78h0Z"/>
  <path class="cls-13" d="m394.94,271.73c-.33,1.16-30.55,4.35-39.09-15.94-8.53-20.28,14.81-39.7,15.94-39.09,1.07.57-15.5,20.45-8.71,36.33,6.73,15.75,32.17,17.6,31.86,18.7h0Z"/>
  <path class="cls-13" d="m697.41,258.16c.27-.85,22.74-2.65,28.69,12.56,5.95,15.2-11.73,29.16-12.56,28.69-.78-.45,11.88-14.87,7.14-26.78-4.7-11.81-23.53-13.66-23.27-14.47h0Z"/>
  <path class="cls-13" d="m679.72,273.79c-.25-1.16-29.8-6.23-39.51,13.2-9.7,19.42,12.05,40.03,13.2,39.51,1.09-.5-13.95-21.12-6.25-36.33,7.64-15.08,32.8-15.28,32.56-16.38h0Z"/>
  <path class="cls-13" d="m680.6,338.16c.52-.29,12.26,9.02,8.26,19.11-4,10.09-18.92,8.86-19.11,8.26-.18-.57,12.52-1.85,15.61-9.79,3.07-7.87-5.25-17.31-4.76-17.58h0Z"/>
  <g>
    <path class="cls-38" d="m782.21,609.79c4.9,7.07,10.88,17.33,15.24,30.6,4.98,15.15,5.96,28.48,5.9,37.67-.97,4.15-5.44,21.18-22.16,32.03-10.03,6.51-19.98,7.88-25.13,8.21,0,0-28.42-.02-20.9-30.23,1.71-5.79,3.82-11.84,6.41-18.06,11.09-26.61,26.91-46.42,40.63-60.21h0Z"/>
    <path class="cls-7" d="m781.12,619.86c4.13,5.96,9.17,14.59,12.84,25.77,4.2,12.76,5.02,23.99,4.97,31.72-.81,3.49-4.58,17.84-18.68,26.98-8.45,5.48-16.84,6.64-21.18,6.92,0,0-23.95-.02-17.61-25.46,1.44-4.88,3.22-9.97,5.4-15.21,9.35-22.42,22.68-39.09,34.25-50.72h0Z"/>
    <path class="cls-15" d="m779.61,625.22c3.64,5.26,8.08,12.88,11.32,22.75,3.7,11.27,4.43,21.18,4.38,28.01-.72,3.08-4.04,15.75-16.45,23.82-7.45,4.84-14.84,5.86-18.66,6.11,0,0-21.11-.02-15.52-22.48,1.27-4.31,2.84-8.8,4.76-13.43,8.24-19.79,19.98-34.51,30.18-44.77h-.01Z"/>
    <path class="cls-14" d="m770.35,663.96c1.85,2.72,4.11,6.67,5.76,11.77,1.89,5.83,2.26,10.95,2.24,14.48-.36,1.59-2.04,8.14-8.34,12.3-3.78,2.5-7.53,3.02-9.47,3.15,0,0-10.71-.02-7.89-11.63.64-2.23,1.43-4.55,2.41-6.94,4.17-10.23,10.12-17.83,15.29-23.13h0Z"/>
  </g>
  <g>
    <path class="cls-38" d="m516.62,639.9c-4.39,6.34-9.75,15.52-13.65,27.41-4.46,13.58-5.34,25.52-5.29,33.75.87,3.72,4.87,18.98,19.85,28.7,8.99,5.83,17.9,7.06,22.51,7.36,0,0,25.46-.02,18.72-27.09-1.53-5.19-3.42-10.61-5.74-16.18-9.94-23.84-24.11-41.59-36.41-53.95h0Z"/>
    <path class="cls-7" d="m517.6,648.92c-3.7,5.34-8.21,13.07-11.51,23.09-3.76,11.44-4.5,21.49-4.45,28.42.73,3.13,4.11,15.99,16.73,24.17,7.57,4.91,15.09,5.95,18.97,6.2,0,0,21.46-.02,15.78-22.81-1.29-4.37-2.88-8.93-4.84-13.63-8.38-20.08-20.32-35.03-30.69-45.44h.01Z"/>
    <path class="cls-15" d="m518.95,653.73c-3.26,4.71-7.24,11.54-10.14,20.39-3.32,10.1-3.97,18.98-3.93,25.1.64,2.76,3.62,14.11,14.74,21.34,6.67,4.33,13.3,5.25,16.72,5.47,0,0,18.91-.02,13.91-20.14-1.14-3.86-2.54-7.89-4.27-12.03-7.38-17.73-17.9-30.92-27.04-40.12h.01Z"/>
    <path class="cls-14" d="m527.25,688.44c-1.66,2.44-3.68,5.97-5.16,10.54-1.69,5.22-2.03,9.81-2.01,12.98.32,1.43,1.83,7.29,7.47,11.02,3.38,2.24,6.75,2.7,8.48,2.82,0,0,9.6-.02,7.07-10.42-.58-1.99-1.28-4.08-2.16-6.22-3.73-9.16-9.07-15.98-13.7-20.72h.01Z"/>
  </g>
  <g>
    <path class="cls-38" d="m312.9,612.78c-4.62,6.67-10.26,16.35-14.38,28.87-4.7,14.3-5.62,26.87-5.57,35.54.91,3.91,5.13,19.99,20.9,30.22,9.46,6.14,18.85,7.43,23.71,7.75,0,0,26.81-.02,19.72-28.52-1.62-5.46-3.6-11.17-6.05-17.04-10.46-25.11-25.39-43.79-38.34-56.81h0Z"/>
    <path class="cls-7" d="m313.93,622.28c-3.89,5.62-8.65,13.77-12.12,24.31-3.96,12.04-4.74,22.63-4.69,29.93.77,3.3,4.32,16.83,17.62,25.45,7.97,5.17,15.89,6.26,19.98,6.53,0,0,22.6-.02,16.62-24.02-1.36-4.6-3.04-9.41-5.1-14.35-8.82-21.15-21.4-36.88-32.31-47.85h0Z"/>
    <path class="cls-15" d="m315.35,627.34c-3.43,4.96-7.62,12.16-10.68,21.47-3.49,10.63-4.18,19.98-4.14,26.43.68,2.91,3.81,14.86,15.52,22.47,7.03,4.56,14,5.53,17.61,5.76,0,0,19.92-.02,14.65-21.21-1.2-4.06-2.68-8.31-4.49-12.67-7.77-18.67-18.85-32.56-28.47-42.24h0Z"/>
    <path class="cls-14" d="m324.09,663.89c-1.75,2.57-3.88,6.29-5.43,11.1-1.78,5.5-2.13,10.33-2.12,13.66.34,1.5,1.92,7.68,7.87,11.61,3.56,2.36,7.1,2.85,8.93,2.97,0,0,10.11-.02,7.45-10.97-.61-2.1-1.35-4.29-2.27-6.55-3.93-9.65-9.55-16.82-14.42-21.82h-.01Z"/>
  </g>
  <g>
    <path class="cls-38" d="m428.48,633.41c-4.71,6.8-10.46,16.66-14.66,29.43-4.79,14.58-5.73,27.39-5.67,36.23.93,3.99,5.23,20.37,21.31,30.81,9.65,6.26,19.22,7.58,24.17,7.9,0,0,27.34-.02,20.1-29.08-1.65-5.57-3.67-11.39-6.17-17.37-10.67-25.6-25.88-44.64-39.08-57.92Z"/>
    <path class="cls-7" d="m429.53,643.09c-3.97,5.73-8.82,14.04-12.35,24.79-4.04,12.28-4.83,23.07-4.78,30.51.78,3.36,4.41,17.16,17.96,25.95,8.13,5.27,16.2,6.38,20.37,6.65,0,0,23.04-.02,16.94-24.49-1.39-4.69-3.1-9.59-5.2-14.63-8.99-21.56-21.82-37.6-32.94-48.78h0Z"/>
    <path class="cls-15" d="m430.98,648.25c-3.5,5.06-7.77,12.39-10.89,21.88-3.56,10.84-4.26,20.37-4.22,26.94.69,2.97,3.88,15.15,15.83,22.91,7.16,4.65,14.27,5.63,17.95,5.87,0,0,20.3-.02,14.93-21.62-1.22-4.14-2.73-8.47-4.58-12.92-7.92-19.03-19.22-33.2-29.02-43.06h0Z"/>
    <path class="cls-14" d="m439.89,685.52c-1.78,2.62-3.95,6.41-5.54,11.32-1.81,5.61-2.17,10.53-2.16,13.93.35,1.53,1.96,7.83,8.02,11.83,3.63,2.4,7.24,2.9,9.11,3.03,0,0,10.31-.02,7.59-11.19-.62-2.14-1.38-4.38-2.32-6.68-4.01-9.84-9.74-17.15-14.71-22.25h.01Z"/>
  </g>
  <g>
    <path class="cls-38" d="m681.06,634.8c4.52,6.53,10.04,16,14.07,28.25,4.6,13.99,5.5,26.3,5.45,34.78-.89,3.83-5.02,19.56-20.46,29.58-9.26,6.01-18.45,7.27-23.2,7.58,0,0-26.24-.02-19.3-27.91,1.58-5.35,3.53-10.93,5.92-16.68,10.24-24.57,24.85-42.86,37.52-55.6h0Z"/>
    <path class="cls-7" d="m680.05,644.09c3.81,5.5,8.46,13.47,11.86,23.79,3.88,11.79,4.64,22.15,4.59,29.29-.75,3.23-4.23,16.47-17.24,24.91-7.8,5.06-15.55,6.13-19.55,6.39,0,0-22.12-.02-16.26-23.51,1.33-4.5,2.97-9.21,4.99-14.05,8.63-20.7,20.94-36.1,31.62-46.83h0Z"/>
    <path class="cls-15" d="m678.66,649.05c3.36,4.86,7.46,11.9,10.45,21.01,3.42,10.41,4.09,19.56,4.05,25.86-.66,2.85-3.73,14.54-15.19,21.99-6.88,4.47-13.7,5.41-17.23,5.64,0,0-19.49-.02-14.33-20.76,1.17-3.98,2.62-8.13,4.4-12.4,7.6-18.27,18.45-31.87,27.86-41.34h0Z"/>
    <path class="cls-14" d="m670.1,684.82c1.71,2.51,3.79,6.15,5.32,10.87,1.74,5.38,2.09,10.11,2.07,13.37-.33,1.47-1.88,7.52-7.7,11.36-3.49,2.3-6.95,2.79-8.74,2.9,0,0-9.89-.02-7.29-10.74.59-2.05,1.32-4.2,2.22-6.41,3.85-9.44,9.35-16.46,14.12-21.36h0Z"/>
  </g>
  <path class="cls-39" d="m606.57,280.19l16.06,33.08c1.89,4.31.44,9.21-3.02,11.5-4.1,2.71-10.36,1.3-13.13-3.66-5.35-11.03-10.7-22.05-16.06-33.08l16.15-7.84Z"/>
  <path class="cls-39" d="m511.48,283.12l-16.06,33.08c-1.84,4.33-.19,9.28,3.56,11.5,4.18,2.47,10.01.96,12.59-3.66,5.35-11.03,10.7-22.05,16.06-33.08l-16.15-7.84Z"/>
  <path class="cls-39" d="m597.81,143.53l17.54,15.4,15.4-17.54c.09-.8.7-6.98-3.97-11.68-5.51-5.55-13.17-3.82-13.58-3.72-2.44,2.94-4.98,5.91-7.62,8.91-2.61,2.98-5.21,5.85-7.78,8.63Z"/>
  <path class="cls-39" d="m520.25,143.53l-17.54,15.4-15.4-17.54c-.09-.8-.7-6.98,3.97-11.68,5.51-5.55,13.17-3.82,13.58-3.72,2.44,2.94,4.98,5.91,7.62,8.91,2.61,2.98,5.21,5.85,7.78,8.63Z"/>
  <rect class="cls-39" x="544.14" y="113.75" width="29.78" height="20.33"/>
  <circle class="cls-1" cx="559.03" cy="214.09" r="91.91"/>
  <circle class="cls-13" cx="559.03" cy="214.09" r="71.8"/>
  <path class="cls-39" d="m586.48,115.7h-54.51c-2.81-.76-4.61-3.4-4.3-6.06.26-2.24,1.97-4.16,4.3-4.76h54.51c2.14.75,3.68,2.61,3.91,4.76.29,2.56-1.32,5.11-3.91,6.06Z"/>
  <g>
    <path class="cls-39" d="m544.79,177.51l3.48,1.64-6.67,63.2-10.63.97-3.58-46.39-11.11,7.92-5.03-10.44,33.53-16.91Z"/>
    <path class="cls-39" d="m588.67,244.19c-7.8,0-13.88-2-18.27-5.99-3.74-9.08-5.6-18.33-5.6-27.74,0-6.89.98-12.98,2.95-18.27,1.96-5.28,4.3-9.34,7.01-12.18,4.9-1.55,9.18-2.32,12.85-2.32,7.79,0,13.88,2,18.27,5.99,3.74,9.08,5.6,18.33,5.6,27.74,0,6.9-.98,12.98-2.95,18.27-1.97,5.28-4.3,9.34-7.01,12.18-4.9,1.55-9.18,2.32-12.85,2.32Zm10.44-49c0-3.03-.23-5.67-.68-7.92-1.87-.45-4.12-.68-6.76-.68-4.58,5.09-8.13,11.29-10.68,18.6-2.55,7.31-3.82,14.48-3.82,21.5,0,3.03.22,5.67.68,7.92,1.87.45,4.12.68,6.77.68,4.57-5.09,8.13-11.29,10.68-18.6,2.54-7.31,3.82-14.48,3.82-21.5Z"/>
  </g>
  <g>
    <path class="cls-13" d="m326.07,335.3c31.68,5.48,63.36,10.97,95.04,16.45l16.02-95.16-36.4,25.66c-4.8-6.11-35.28-43.63-86.54-45.97-30.96-1.42-54.22,10.69-64.08,16.63,5.46-1.42,13.11-2.81,22.3-2.62,9.38.19,17.11,1.97,22.56,3.66,5.66,1.81,12.33,4.44,19.46,8.32,8.78,4.78,15.67,10.05,20.79,14.59,5.18,5.01,10.59,10.64,16.04,16.91,4.52,5.2,8.6,10.29,12.27,15.18-12.49,8.78-24.98,17.57-37.48,26.35Z"/>
    <path class="cls-1" d="m340.32,331.45c25.46,4.3,50.93,8.6,76.39,12.91l13.17-76.37-29.35,20.69c-6.14-8.67-23.31-30.38-54.51-41.61-39.73-14.3-74.33-1.55-83.02,1.94,6.1-1.02,13.75-1.57,22.39-.53,2.35.28,11.91,1.54,23.38,6.59,6.25,2.75,10.48,5.49,15.21,8.55,10.71,6.94,17.83,13.53,19.37,14.97,5.15,4.83,9.22,9.71,17.37,19.47,4.16,4.99,7.51,9.2,9.82,12.14-10.07,7.08-20.15,14.17-30.22,21.25Z"/>
  </g>
  <g>
    <path class="cls-13" d="m783.17,335.3c-31.68,5.48-63.36,10.97-95.04,16.45l-16.02-95.16,36.4,25.66c4.8-6.11,35.28-43.63,86.54-45.97,30.96-1.42,54.22,10.69,64.08,16.63-5.46-1.42-13.11-2.81-22.3-2.62-9.38.19-17.11,1.97-22.56,3.66-5.66,1.81-12.33,4.44-19.46,8.32-8.78,4.78-15.67,10.05-20.79,14.59-5.18,5.01-10.59,10.64-16.04,16.91-4.52,5.2-8.6,10.29-12.27,15.18,12.49,8.78,24.98,17.57,37.48,26.35Z"/>
    <path class="cls-1" d="m768.92,331.45c-25.46,4.3-50.93,8.6-76.39,12.91l-13.17-76.37,29.35,20.69c6.14-8.67,23.31-30.38,54.51-41.61,39.73-14.3,74.33-1.55,83.02,1.94-6.1-1.02-13.75-1.57-22.39-.53-2.35.28-11.91,1.54-23.38,6.59-6.25,2.75-10.48,5.49-15.21,8.55-10.71,6.94-17.83,13.53-19.37,14.97-5.15,4.83-9.22,9.71-17.37,19.47-4.16,4.99-7.51,9.2-9.82,12.14,10.07,7.08,20.15,14.17,30.22,21.25Z"/>
  </g>
  <g>
    <path class="cls-13" d="m68.49,114.83c-.7.29-.51,1.96-.45,7.47.02,2.33-.03,4.67,0,7v26.13c0,14,.53,29.03.9,46.66.2,9.32.41,19.38.45,32.66.08,23.56-.45,33.36.45,52.73.62,13.28.93,19.92,1.8,21.93,9.31,21.53,46.35,23.04,87.79,24.73,0,0,45.41,1.85,78.79-15.4,3.46-1.79,6.75-4.67,6.75-4.67,2.82-2.46,5.19-4.53,6.3-7.93.2-.62.39-1.37.45-8.87.03-3.5,0-6.15,0-7v-25.66c0-14.13.82-37.64.9-40.13,1.57-45.74.94-96.49.9-98.92-.02-1.27-.06-2.16,0-3.73.22-5.66,1.33-8.35.45-8.87-.42-.25-1.03.17-4.26,2.71-2.53,1.99-3.79,2.98-4.18,3.32-12.42,10.99-43.78,15.9-43.78,15.9-4.48.7-17.93,2.67-39.62,2.8-3.9.02-32.12.06-60.33-6.07-8.32-1.81-24.35-5.83-29.71-13.53-.35-.51-2.53-3.71-3.6-3.27Z"/>
    <path class="cls-13" d="m163.66,341.63c-2.6,0-4.2-.06-4.53-.07-21.06-.86-40.96-1.67-57.17-5.08-19.76-4.15-31.91-12.05-37.14-24.13-1.41-3.26-1.64-8.19-2.4-24.53-.63-13.44-.57-22.58-.5-34.16.03-5.38.07-11.47.05-18.89-.04-13.23-.25-23.04-.45-32.53-.11-5.4-.24-10.56-.36-15.51-.27-11.06-.53-21.51-.54-31.3v-26.09c-.01-1.25,0-2.48,0-3.68,0-1.1.01-2.19,0-3.29-.01-1.02-.03-1.91-.04-2.68-.03-1.9-.05-3.16.03-4.26.39-4.82,3.31-6.74,5.02-7.46h0c1.65-.69,5.97-1.78,10.36,3.05.93,1.02,1.68,2.07,2.17,2.78l.03.05c1.24,1.79,6.19,6.39,25.19,10.52,26.64,5.79,53.57,5.93,58.71,5.9,14.41-.09,27.73-1.02,38.51-2.71h0c8.14-1.28,31.18-6.31,40.01-14.12.52-.47,1.36-1.12,4.47-3.57,1.89-1.49,2.93-2.28,3.81-2.84,3.99-2.55,7.24-1.39,8.82-.47,4.8,2.79,4.07,8.02,3.73,10.53-.18,1.31-.41,2.94-.49,5.04-.04,1.02-.03,1.65,0,2.53v.81c.02.51.72,52.32-.89,99.28v.1c-.21,6.09-.89,26.94-.9,39.78v25.68c0,.98.03,3.57,0,7.04-.06,8.11-.26,9.43-.82,11.13-1.75,5.33-5.32,8.45-8.47,11.21-.41.35-4.09,3.53-8.23,5.67-28.82,14.89-65.29,16.29-77.97,16.29Zm-85.1-34.95c7.67,17.04,43.38,18.5,81.18,20.04.43.02,43.9,1.54,75.07-14.57,2.14-1.11,4.54-3.02,5.29-3.67,2.31-2.01,3.51-3.1,4.03-4.39.05-.61.14-2.28.17-6.86.03-3.35,0-5.87,0-6.82v-.13s0-25.66,0-25.66c0-13.07.69-34.14.9-40.28v-.1c1.41-41.18,1.04-86.13.93-96.39-6.02,3.94-14.46,7.43-25.16,10.39-7.16,1.98-15,3.56-18.07,3.98v.02c-11.49,1.8-25.58,2.8-40.72,2.89-5.4.03-33.79-.11-61.95-6.24-10.67-2.32-18.81-5.08-24.76-8.43v24.97c0,9.61.26,19.97.53,30.94.12,4.97.25,10.15.37,15.57.19,9.11.41,19.43.45,32.79.02,7.48-.01,13.61-.05,19.02-.07,11.8-.12,20.33.49,33.38.44,9.39.82,17.52,1.3,19.55Zm.03.13h0,0Zm-7.23-185.12h0s0,0,0,0Z"/>
  </g>
  <g>
    <path class="cls-13" d="m68.94,108.39c-.7.29-.51,1.96-.45,7.47.02,2.33-.03,4.67,0,7v26.13c0,14,.53,29.03.9,46.66.2,9.32.41,19.38.45,32.66.08,23.56-.45,33.36.45,52.73.62,13.28.93,19.92,1.8,21.93,9.31,21.53,46.35,23.04,87.79,24.73,0,0,45.41,1.85,78.79-15.4,3.46-1.79,6.75-4.67,6.75-4.67,2.82-2.46,5.19-4.53,6.3-7.93.2-.62.39-1.37.45-8.87.03-3.5,0-6.15,0-7v-25.66c0-14.13.82-37.64.9-40.13,1.57-45.74.94-96.49.9-98.92-.02-1.27-.06-2.16,0-3.73.22-5.66,1.33-8.35.45-8.87-.42-.25-1.03.17-4.26,2.71-2.53,1.99-3.79,2.98-4.18,3.32-12.42,10.99-43.78,15.9-43.78,15.9-4.48.7-17.93,2.67-39.62,2.8-3.9.02-32.12.06-60.33-6.07-8.32-1.81-24.35-5.83-29.71-13.53-.35-.51-2.53-3.71-3.6-3.27Z"/>
    <path class="cls-13" d="m164.11,335.19c-2.6,0-4.2-.06-4.53-.07-21.07-.86-40.96-1.67-57.17-5.08-19.76-4.15-31.91-12.05-37.13-24.13-1.41-3.26-1.64-8.19-2.4-24.53-.63-13.44-.57-22.59-.5-34.16.03-5.38.07-11.47.05-18.89-.04-13.23-.25-23.04-.45-32.53-.11-5.4-.24-10.56-.36-15.51-.27-11.06-.53-21.51-.54-31.3v-26.09c-.01-1.25,0-2.48,0-3.68,0-1.1.01-2.19,0-3.29-.01-1.02-.03-1.91-.04-2.68-.03-1.9-.05-3.16.03-4.26.39-4.82,3.31-6.74,5.02-7.46h0c1.65-.69,5.97-1.78,10.36,3.05.93,1.02,1.68,2.07,2.17,2.78l.03.05c1.24,1.79,6.19,6.39,25.2,10.52,26.64,5.79,53.57,5.93,58.71,5.9,14.41-.09,27.73-1.02,38.51-2.71h0c8.14-1.28,31.18-6.31,40.01-14.12.52-.47,1.36-1.12,4.47-3.57,1.89-1.49,2.93-2.28,3.81-2.84,3.99-2.55,7.24-1.39,8.82-.47,4.8,2.79,4.08,8.02,3.73,10.53-.18,1.31-.41,2.94-.49,5.04-.04,1.02-.03,1.65,0,2.53v.81c.02.51.72,52.32-.89,99.28v.1c-.21,6.09-.89,26.94-.9,39.78v25.68c0,.98.03,3.57,0,7.04-.06,8.11-.26,9.43-.82,11.13-1.75,5.33-5.32,8.45-8.47,11.21-.41.35-4.09,3.53-8.23,5.67-28.82,14.89-65.29,16.29-77.97,16.29Zm-85.1-34.95c7.67,17.04,43.38,18.49,81.18,20.04.43.02,43.9,1.54,75.08-14.57,2.14-1.11,4.54-3.02,5.29-3.67,2.31-2.01,3.51-3.1,4.03-4.39.05-.61.14-2.28.17-6.86.03-3.35,0-5.87,0-6.82v-.13s0-25.66,0-25.66c0-13.07.69-34.14.9-40.28v-.1c1.41-41.18,1.04-86.13.93-96.39-6.02,3.94-14.46,7.43-25.16,10.39-7.16,1.98-15,3.56-18.07,3.98v.02c-11.49,1.8-25.58,2.8-40.72,2.89-5.4.03-33.79-.11-61.95-6.24-10.67-2.32-18.81-5.08-24.76-8.43v24.97c0,9.61.26,19.97.53,30.94.12,4.97.25,10.15.37,15.57.19,9.11.41,19.43.45,32.79.02,7.48-.01,13.61-.05,19.02-.07,11.8-.12,20.33.49,33.38.44,9.39.82,17.52,1.3,19.55Zm.03.13h0,0Zm-7.23-185.12h0s0,0,0,0Z"/>
  </g>
  <g>
    <path class="cls-13" d="m67.21,98.74c-.71.3-.51,1.98-.46,7.54.02,2.35-.03,4.71,0,7.06v26.37c0,14.13.54,29.3.91,47.1.2,9.41.41,19.56.46,32.97.08,23.79-.46,33.67.46,53.22.63,13.4.94,20.11,1.83,22.14,9.45,21.73,47.03,23.26,89.09,24.96,0,0,46.08,1.87,79.95-15.54,3.51-1.8,6.85-4.71,6.85-4.71,2.86-2.49,5.26-4.57,6.4-8.01.21-.62.4-1.38.46-8.95.03-3.54,0-6.2,0-7.06v-25.9c0-14.26.83-37.99.91-40.5,1.59-46.17.95-97.4.91-99.85-.02-1.28-.06-2.18,0-3.77.22-5.71,1.35-8.43.46-8.95-.43-.25-1.05.17-4.33,2.73-2.56,2.01-3.84,3.01-4.24,3.35-12.6,11.1-44.43,16.05-44.43,16.05-4.54.71-18.19,2.69-40.2,2.83-3.96.02-32.59.07-61.22-6.12-8.44-1.83-24.71-5.88-30.15-13.66-.36-.51-2.57-3.75-3.65-3.3Z"/>
    <path class="cls-13" d="m163.79,327.59c-2.64,0-4.26-.06-4.59-.07-21.37-.87-41.55-1.69-57.99-5.12-20.02-4.19-32.32-12.13-37.61-24.3-1.43-3.28-1.66-8.26-2.43-24.74-.64-13.58-.58-22.81-.51-34.49.03-5.43.07-11.58.05-19.06-.04-13.34-.25-23.25-.46-32.83-.12-5.45-.24-10.65-.37-15.67-.28-11.16-.54-21.7-.55-31.58v-26.33c-.01-1.26,0-2.5,0-3.71,0-1.11.01-2.21,0-3.32-.01-1.03-.03-1.93-.04-2.71-.03-1.92-.06-3.19.03-4.29.39-4.84,3.32-6.76,5.04-7.47,1.65-.69,5.96-1.76,10.36,3.05.94,1.02,1.7,2.09,2.2,2.8l.03.05c1.27,1.81,6.31,6.48,25.64,10.66,27.04,5.85,54.39,5.98,59.6,5.96,14.64-.09,28.16-1.03,39.11-2.74,8.26-1.29,31.69-6.38,40.66-14.28.53-.47,1.46-1.19,4.57-3.63,1.88-1.47,2.93-2.27,3.82-2.84,3.99-2.54,7.23-1.39,8.8-.48,4.83,2.8,4.1,8.05,3.74,10.58-.19,1.32-.42,2.97-.5,5.09-.04,1.03-.03,1.67-.01,2.56v.81c.02.52.72,53.02-.9,100.21v.16c-.22,6.15-.91,27.22-.91,40.09v25.92c0,.99.03,3.6,0,7.1-.06,8.18-.27,9.51-.83,11.22-1.77,5.37-5.39,8.51-8.58,11.29h0c-.75.7-1.62,1.34-2.53,2.02-2.02,1.51-3.97,2.75-5.79,3.69-29.22,15.02-66.2,16.43-79.06,16.43Zm-86.47-35.2c7.8,17.25,44.08,18.72,82.48,20.28.44.02,44.58,1.55,76.25-14.73,2.18-1.12,4.62-3.06,5.38-3.71h0c2.36-2.05,3.59-3.16,4.12-4.47.05-.61.14-2.3.18-6.93.03-3.39,0-5.92,0-6.88v-.13s0-25.9,0-25.9c0-12.75.64-32.64.91-40.6v-.16c1.44-41.62,1.05-87.42.94-97.47-15.05,9.89-40.83,14.14-43.99,14.64-11.66,1.81-25.94,2.82-41.3,2.91-5.48.03-34.27-.12-62.83-6.29-10.92-2.36-19.23-5.17-25.27-8.59v25.35c0,9.7.26,20.15.54,31.22.13,5.04.26,10.25.37,15.73.19,9.2.41,19.63.46,33.1.02,7.55-.01,13.74-.05,19.2-.07,11.91-.12,20.52.49,33.69.45,9.49.83,17.7,1.32,19.74Zm.03.12s0,0,0,0t0,0Z"/>
  </g>
  <g>
    <g>
      <ellipse class="cls-13" cx="161.23" cy="97.47" rx="94.54" ry="33.99"/>
      <path class="cls-13" d="m161.23,138.89c-26.09,0-50.72-3.69-69.37-10.39-26.95-9.69-32.61-22.22-32.61-31.03s5.66-21.34,32.61-31.03c18.64-6.7,43.28-10.39,69.37-10.39s50.72,3.69,69.37,10.39c26.95,9.69,32.61,22.22,32.61,31.03s-5.66,21.34-32.61,31.03c-18.64,6.7-43.28,10.39-69.37,10.39Zm0-67.98c-24.42,0-47.27,3.38-64.34,9.52-13.84,4.97-22.78,11.66-22.78,17.04s8.94,12.07,22.78,17.04c17.07,6.14,39.92,9.52,64.34,9.52s47.27-3.38,64.34-9.52c13.84-4.97,22.78-11.66,22.78-17.04s-8.94-12.07-22.78-17.04c-17.07-6.14-39.92-9.52-64.34-9.52Z"/>
    </g>
    <g>
      <ellipse class="cls-13" cx="161.23" cy="95.74" rx="91.39" ry="29.8"/>
      <path class="cls-13" d="m161.23,132.97c-25.17,0-48.94-3.23-66.93-9.1-26.36-8.6-31.89-20.05-31.89-28.14s5.53-19.54,31.89-28.14c17.99-5.87,41.75-9.1,66.93-9.1s48.94,3.23,66.93,9.1c26.36,8.6,31.89,20.05,31.89,28.14s-5.53,19.54-31.89,28.14c-17.99,5.87-41.75,9.1-66.93,9.1Zm0-59.61c-23.65,0-45.78,2.97-62.32,8.36-17.12,5.58-21.64,11.61-21.64,14.01s4.52,8.43,21.64,14.01c16.54,5.39,38.67,8.36,62.32,8.36s45.78-2.97,62.32-8.36c17.12-5.58,21.64-11.61,21.64-14.01s-4.52-8.43-21.64-14.01c-16.54-5.39-38.67-8.36-62.32-8.36Z"/>
    </g>
    <g>
      <ellipse class="cls-13" cx="160.78" cy="94.02" rx="91.84" ry="28.57"/>
      <path class="cls-13" d="m160.78,130.02c-25.26,0-49.11-3.09-67.15-8.7-14.65-4.56-32.12-13-32.12-27.3s17.47-22.74,32.12-27.3c18.04-5.61,41.89-8.7,67.15-8.7s49.11,3.09,67.15,8.7c14.65,4.56,32.12,13,32.12,27.3s-17.47,22.74-32.12,27.3c-18.04,5.61-41.89,8.7-67.15,8.7Zm0-57.14c-23.8,0-46.08,2.85-62.74,8.03-15.79,4.91-21.68,10.65-21.68,13.11s5.89,8.2,21.68,13.11c16.65,5.18,38.93,8.03,62.74,8.03s46.08-2.85,62.74-8.03c15.79-4.91,21.68-10.65,21.68-13.11s-5.89-8.2-21.68-13.11c-16.65-5.18-38.93-8.03-62.74-8.03Z"/>
    </g>
    <g>
      <path class="cls-13" d="m70.3,96.97c.72.27,2.28-2.98,2.75-3.81,7.77-13.66,46.35-18.48,46.35-18.48,16.47-2.06,24.7-3.09,39.46-3.26,76.98-.89,91.02,20.84,91.78,23.38.05.18.63,2.24.92,2.17.34-.08.08-3.11,0-3.81-.76-6.58-9.58-11.61-11.09-12.45-8.14-4.53-20.83-9.16-43.67-12.32-5.9-.82-16.12-2.04-29-2.37-1.62-.04-5.55-.13-10.78-.05-9.01.13-30.53.86-56.12,6.85,0,0-6.91,1.62-17.11,6.4-7.99,3.75-11.56,6.57-13.06,10.84-1,2.85-1.17,6.63-.45,6.89Z"/>
      <path class="cls-13" d="m70.44,104.42c-1.23,0-2.22-.29-2.73-.48h0c-2.13-.79-5.64-3.13-5.25-9.87.12-2.14.59-4.49,1.28-6.45,2.51-7.15,8.33-11.08,16.91-15.1,10.78-5.06,18.26-6.84,18.57-6.91,18.5-4.33,38.46-6.77,57.71-7.05,3.77-.05,7.59-.04,11.07.05,9.95.25,19.99,1.07,29.83,2.43,20.21,2.79,35.35,7.11,46.26,13.18,4.1,2.28,13.76,8.61,14.85,18.09.05.44.16,1.57.2,2.71.03.76.02,1.4-.02,1.95-.31,4.34-3.19,6.57-5.79,7.21-2.47.61-7.2.12-9.27-5.58-.15-.4-.28-.8-.37-1.12-.68-.97-4.28-5.45-15.81-9.85-20.11-7.68-48.58-9.01-68.93-8.78-14.35.17-22.46,1.18-38.63,3.2-.09.01-9.38,1.2-19.37,3.96-16.82,4.64-20.66,9.46-21.44,10.83-.05.09-.12.22-.2.37-.38.72-.95,1.8-1.61,2.79-2.38,3.58-5.17,4.42-7.26,4.42Zm173.37-6.74h0Z"/>
    </g>
  </g>
  <g>
    <path class="cls-13" d="m131.69,194.56c-1.21-15.86.58-21.08,1.56-23.41,2.82-6.68,7.14-10.6,12.68-15.52,9.77-8.67,18.85-16.74,32.53-17.6,2.8-.18,15.9-1,26.49,8.2,10.87,9.44,11.7,23,12.04,28.59.69,11.38-2.98,19.98-4.73,23.95-4.14,9.39-9.77,15.15-13.14,18.53-10.31,10.34-14.54,7.36-24.03,15.82-13.86,12.35-16.48,28.52-21.72,27.49-3.38-.67-3.15-7.74-8.8-9.58-4.32-1.41-6.87,2.01-9.35.61-4.2-2.37.92-13.44.48-29.74-.29-10.95-2.73-10.59-4-27.35Z"/>
    <path class="cls-13" d="m153.87,268.11c-.62,0-1.27-.06-1.94-.19-5.07-1-7.16-5.14-8.4-7.62-.34-.67-.89-1.77-1.23-2.14-.25.07-.66.2-.97.31-1.85.63-5.69,1.95-9.75-.34-2.42-1.36-5.33-4.25-5.45-10.3-.05-2.56.36-5.47.84-8.84.66-4.62,1.48-10.36,1.3-16.88-.12-4.48-.6-6.5-1.34-9.57-.86-3.62-1.94-8.12-2.65-17.42h0c-1.25-16.39.48-22.97,2.12-26.86,3.53-8.37,8.9-13.14,14.59-18.19,10.21-9.06,20.77-18.44,37-19.45,12.21-.76,23.52,2.79,31.83,10.01,13.22,11.49,14.21,27.66,14.58,33.75.82,13.41-3.66,23.57-5.34,27.39-4.78,10.85-11.47,17.56-14.68,20.78-6.52,6.54-11.21,8.65-15.35,10.51-3.06,1.38-5.47,2.46-9.01,5.61-6.31,5.62-9.99,12.25-12.95,17.57-1.55,2.79-2.89,5.19-4.42,7.1-1.5,1.88-4.5,4.76-8.79,4.76Zm-11.45-24.84c1.35,0,2.84.19,4.44.72,3.34,1.09,5.61,3.09,7.19,5.11.01-.02.02-.04.04-.06,3.32-5.97,7.87-14.14,16.05-21.44,5.24-4.67,9.25-6.47,12.79-8.07,3.54-1.59,6.34-2.85,10.92-7.45,2.97-2.98,7.94-7.97,11.61-16.28,1.41-3.2,4.71-10.68,4.11-20.5-.32-5.21-.98-16.04-9.49-23.43-5.35-4.65-12.86-6.92-21.16-6.4-11.13.7-18.6,7.33-28.07,15.74-5.46,4.84-8.65,7.83-10.77,12.85-1.76,4.17-1.51,13.15-.99,19.96.62,8.13,1.5,11.83,2.28,15.09.81,3.39,1.58,6.59,1.74,12.62.21,7.77-.75,14.48-1.45,19.37-.1.71-.21,1.47-.31,2.22.34-.03.7-.04,1.06-.04Z"/>
  </g>
  <g>
    <path class="cls-13" d="m134.44,194.42c-1.04-14.95.61-19.88,1.52-22.08,2.62-6.31,6.59-10.03,11.7-14.69,9-8.22,17.37-15.86,29.93-16.72,2.57-.18,14.6-1,24.28,7.63,9.94,8.86,10.64,21.65,10.93,26.91.59,10.73-2.81,18.85-4.43,22.6-3.83,8.87-9.03,14.33-12.14,17.53-9.51,9.8-13.37,7-22.12,15.02-12.77,11.7-15.24,26.96-20.05,26.01-3.1-.61-2.86-7.29-8.04-9-3.96-1.31-6.31,1.92-8.58.61-3.85-2.21.89-12.68.56-28.05-.23-10.32-2.46-9.98-3.56-25.77Z"/>
    <path class="cls-13" d="m154.5,264.09c-.72,0-1.35-.08-1.87-.18-5-.99-7.06-5.22-8.16-7.49-.23-.47-.54-1.1-.79-1.53-.12.04-.23.08-.34.12-1.81.64-5.56,1.98-9.59-.34-2.34-1.35-5.15-4.19-5.24-10.07-.04-2.43.36-5.19.81-8.37.62-4.35,1.39-9.76,1.26-15.88-.09-4.2-.52-6.09-1.18-8.96-.78-3.42-1.75-7.67-2.37-16.46h0c-1.08-15.5.54-21.74,2.07-25.44,3.3-7.97,8.28-12.52,13.55-17.33,9.48-8.65,19.28-17.6,34.43-18.65,11.43-.79,21.99,2.59,29.74,9.5,12.24,10.91,13.09,26.27,13.41,32.05.7,12.69-3.46,22.33-5.03,25.95-4.45,10.3-10.65,16.69-13.63,19.75-6.07,6.26-10.44,8.29-14.29,10.08-2.77,1.29-4.95,2.31-8.15,5.24-5.76,5.28-9.16,11.51-11.88,16.52-1.44,2.64-2.68,4.93-4.11,6.76-2.99,3.84-6.26,4.72-8.64,4.72Zm-10.41-24.23c1.29,0,2.73.19,4.28.7,2.79.93,4.79,2.51,6.25,4.19,2.91-5.33,7.24-12.99,14.49-19.62,4.88-4.47,8.62-6.21,11.91-7.75,3.2-1.49,5.73-2.67,9.9-6.96,2.72-2.8,7.28-7.5,10.65-15.3,1.3-3.01,4.34-10.04,3.83-19.24-.27-4.86-.82-14.97-8.46-21.77-4.81-4.29-11.32-6.28-18.83-5.77-9.98.69-16.8,6.91-25.43,14.8-4.99,4.55-7.9,7.36-9.84,12.04-1.61,3.9-1.42,12.33-.98,18.72h0c.53,7.64,1.33,11.11,2.03,14.18.73,3.21,1.43,6.24,1.55,11.95.16,7.34-.75,13.68-1.41,18.31-.07.49-.15,1.01-.22,1.54.09,0,.19,0,.28,0Z"/>
  </g>
  <g>
    <path class="cls-13" d="m139.98,195.36c-.73-14.85.88-19.76,1.76-21.95,2.52-6.29,6.27-10,11.08-14.66,8.47-8.22,16.36-15.86,28.02-16.79,2.38-.19,13.55-1.08,22.4,7.45,9.08,8.75,9.53,21.45,9.71,26.68.38,10.66-2.9,18.75-4.47,22.48-3.69,8.84-8.6,14.29-11.53,17.49-2.58,2.82-4.71,4.59-6.63,5.89-3.98,2.68-6.41,3.7-9.43,5.3-.57.31-7.45,4.03-12.61,9.98-7.93,9.14-8.38,19.58-13.3,19.54-.36,0-.61-.06-1-.16-4.99-1.18-5.11-7.31-8.96-8.58-3-.99-4.87,2.09-6.34,1.08-3.1-2.15,4.29-16.75,4.2-28.16-.02-2.97-1.92-5.67-2.9-25.59Z"/>
    <path class="cls-13" d="m155.02,264.19s-.07,0-.1,0c-1.2-.01-2.08-.22-2.66-.36-5.47-1.3-8.06-5.21-9.61-7.75-3.03,1.09-5.78.8-8.2-.88-3.24-2.24-4.49-5.98-3.72-11.11.36-2.38,1.08-5.05,1.92-8.13,1.33-4.92,2.85-10.49,2.81-14.97,0-.22-.17-1-.31-1.69-.65-3.2-1.87-9.15-2.58-23.6h0c-.75-15.3.83-21.44,2.29-25.08,3.16-7.88,7.85-12.42,12.8-17.23,8.98-8.71,18.27-17.72,32.6-18.86,10.89-.87,20.88,2.51,28.14,9.5,11.24,10.83,11.78,26.04,11.98,31.77.44,12.5-3.54,22.03-5.04,25.61-4.27,10.21-10.1,16.58-12.91,19.64-2.73,2.98-5.26,5.21-7.96,7.03-3.36,2.26-5.84,3.52-8.02,4.63-.67.34-1.35.69-2.06,1.06-.06.03-6.18,3.32-10.5,8.29-2.99,3.45-4.74,7.27-6.28,10.65-2.2,4.83-5.22,11.45-12.59,11.45Zm-8.29-23.4c.2.06.41.12.62.19,3.42,1.13,5.43,3.46,6.79,5.49,1.76-3.85,4.16-9.09,8.52-14.11,5.87-6.77,13.3-10.91,14.73-11.67.8-.42,1.56-.81,2.31-1.19,2.07-1.05,3.85-1.96,6.46-3.71,1.71-1.15,3.39-2.66,5.3-4.74,2.57-2.81,6.88-7.51,10.15-15.34,1.26-3.02,4.23-10.11,3.9-19.35-.53-14.93-5.38-19.6-7.44-21.6-4.21-4.06-9.97-5.92-16.65-5.39-9,.72-15.37,6.89-23.44,14.71-4.71,4.56-7.46,7.37-9.36,12.09-1.59,3.97-1.55,12.42-1.23,18.82.66,13.32,1.73,18.55,2.3,21.36.32,1.57.6,2.92.61,4.54.05,6.52-1.82,13.43-3.33,18.98-.08.3-.16.61-.25.92Z"/>
  </g>
  <g>
    <g>
      <path class="cls-13" d="m108.51,273.96c4.1-5.22,7.76-3.34,14.47-8.76,10.57-8.54,7.42-17.98,15.13-20.74.49-.17.86-.27,1.04-.31,8.32-2.08,19.47,4.26,20.09,10.17.32,3.02-2.4,3.35-6.32,10.01-2.6,4.42-5.8,9.87-4.81,15.74,1.09,6.47,6.11,6.42,7.49,13.24,1.55,7.63-3.41,14.07-4.81,15.74-2.36,2.81-5.41,6.45-9.31,6.25-6.17-.31-6.23-9.78-15.64-14.5-7.83-3.93-12.57.22-17.3-3.77-5.69-4.8-5.35-16.29-.01-23.08Z"/>
      <path class="cls-13" d="m141.8,322.75c-.23,0-.46,0-.7-.02-6.82-.34-10.16-5.44-12.37-8.82-1.75-2.66-3.25-4.97-6.24-6.47-2.28-1.14-3.98-1.11-6.34-1.07-3.15.06-7.91.14-12.41-3.66-9.39-7.92-8.3-24.14-1.06-33.35,3.46-4.4,7.02-5.74,9.89-6.82,1.89-.71,3.53-1.33,5.75-3.12,3.87-3.13,5.14-6.33,6.49-9.73,1.63-4.11,3.86-9.75,10.8-12.23.82-.29,1.45-.45,1.72-.52,8-2,16.2,1.04,21.22,4.55,4.74,3.32,7.61,7.6,8.08,12.05.52,4.91-2.06,7.83-3.76,9.76-1.01,1.14-2.15,2.43-3.54,4.8-2.08,3.53-4.43,7.54-3.89,10.74.16.94.34,1.18,1.69,2.6,1.85,1.95,4.64,4.89,5.76,10.4,2.12,10.43-3.77,18.85-6.4,21.99-2.82,3.36-7.48,8.92-14.67,8.92Zm-24.46-31.25c3.01,0,7.09.29,11.82,2.67,6.56,3.29,9.83,8.29,12,11.6.33.5.73,1.11,1.08,1.61.95-.82,2.17-2.29,2.85-3.1.97-1.16,4.08-5.28,3.23-9.49-.26-1.28-.62-1.71-1.98-3.13-1.85-1.95-4.64-4.89-5.56-10.36-1.44-8.53,2.88-15.88,5.74-20.74,1.71-2.9,3.25-4.84,4.43-6.21-2.04-1.76-6.56-3.86-10-3-.1.03-.2.05-.34.1-.48.17-.78.65-1.99,3.71-1.61,4.07-4.05,10.23-10.97,15.81-4.09,3.3-7.42,4.55-9.85,5.47-2.15.81-2.58.99-3.44,2.1h0c-3.34,4.24-3.08,11.09-1.04,12.81.08.06.11.08.11.09.32.11,1.61.09,2.46.07.45,0,.94-.02,1.45-.02Zm34.61-35.97h0Z"/>
    </g>
    <g>
      <path class="cls-13" d="m112.25,273.82c3.6-4.92,6.74-3.2,12.6-8.34,9.23-8.09,6.61-16.88,13.3-19.54.42-.17.74-.26.9-.3,7.21-2.04,16.78,3.77,17.25,9.27.24,2.82-2.11,3.16-5.57,9.42-2.29,4.16-5.12,9.29-4.33,14.75.87,6.03,5.2,5.93,6.33,12.29,1.25,7.11-3.1,13.17-4.33,14.75-2.07,2.65-4.74,6.08-8.12,5.94-5.33-.22-5.28-9.06-13.36-13.37-6.72-3.59-10.86.35-14.91-3.33-4.87-4.42-4.44-15.15.24-21.55Z"/>
      <path class="cls-13" d="m140.5,319.51c-.18,0-.35,0-.53-.01-6.64-.27-9.65-5.31-11.65-8.64-1.41-2.35-2.62-4.38-4.9-5.6-1.61-.86-2.72-.82-4.72-.76-2.96.09-7.43.24-11.68-3.63-3.93-3.57-6.03-9.14-5.89-15.68.12-5.71,1.99-11.46,5.14-15.76h0c3.13-4.28,6.49-5.68,8.94-6.7,1.63-.68,2.91-1.22,4.75-2.83,3.31-2.9,4.44-5.89,5.63-9.05,1.48-3.92,3.5-9.28,9.82-11.8.78-.31,1.4-.48,1.63-.55,5.87-1.66,13.07-.24,18.77,3.71,4.7,3.25,7.51,7.54,7.89,12.08.39,4.56-1.88,7.33-3.38,9.16-.87,1.07-1.87,2.27-3.09,4.48-1.84,3.33-3.92,7.1-3.49,10.1.11.79.19.91,1.3,2.18,1.62,1.85,4.07,4.65,4.99,9.88,1.71,9.71-3.48,17.65-5.79,20.61-2.58,3.31-6.87,8.81-13.74,8.81Zm-20.5-29.9c2.71,0,6.28.33,10.41,2.54,5.91,3.16,8.77,7.92,10.65,11.07.02.03.04.06.05.09.52-.61,1.04-1.28,1.41-1.75.61-.78,3.59-4.85,2.88-8.89-.2-1.15-.46-1.44-1.54-2.67-1.62-1.85-4.08-4.66-4.82-9.84-1.15-7.94,2.51-14.56,5.18-19.4,1.48-2.69,2.82-4.5,3.85-5.8-1.62-1.36-4.83-2.78-7.01-2.16-.08.02-.11.03-.17.06,0,0,0,0,0,0-.37.47-.97,2.06-1.41,3.23-1.45,3.84-3.63,9.64-9.74,14.99-3.67,3.21-6.65,4.46-8.82,5.37-1.76.74-1.99.83-2.68,1.77h0c-2.83,3.86-2.67,9.82-1.43,11.46.38.01.96,0,1.41-.02.54-.02,1.14-.04,1.78-.04Zm20.84-36.74h0,0Z"/>
    </g>
    <g>
      <path class="cls-13" d="m128.24,283.48c-1.04-.79,9.67-18.49,10.98-17.84.89.44-1.85,9.8-8.66,16.14-.99.92-2.05,1.91-2.32,1.7Z"/>
      <path class="cls-13" d="m128.36,290.94c-2.39,0-4.13-1.17-4.61-1.54h0c-1.07-.81-4.41-3.91-2.34-9.59.32-.88.8-1.93,1.45-3.22,1.04-2.04,2.55-4.69,4.13-7.24,1.04-1.68,2.59-4.09,4.08-6.05.79-1.04,1.48-1.85,2.11-2.47,4.06-4.01,8.18-2.42,9.35-1.84,2.28,1.14,3.81,3.28,4.19,5.88.72,4.99-3.87,15.61-11.1,22.34-.58.54-1.23,1.14-1.87,1.66-1.97,1.56-3.82,2.06-5.38,2.06Z"/>
    </g>
    <g>
      <path class="cls-13" d="m133.89,304.73c-1.14.63-12.96-16.36-11.83-17.29.77-.63,8.2,5.67,11.22,14.48.44,1.28.91,2.64.61,2.81Z"/>
      <path class="cls-13" d="m133.79,312.18c-1.73,0-3.86-.6-6.02-2.7-.68-.65-1.44-1.51-2.35-2.62-1.44-1.78-3.24-4.22-4.93-6.71-1.11-1.64-2.69-4.04-3.88-6.2-.63-1.14-1.09-2.11-1.41-2.94-2.01-5.34,1.12-8.47,2.12-9.3,1.97-1.62,4.55-2.15,7.08-1.43,4.85,1.37,12.68,9.88,15.89,19.23.25.74.54,1.58.75,2.38,1.58,6.14-2.69,8.86-3.58,9.35h0c-.59.33-1.94.94-3.68.94Z"/>
    </g>
  </g>
  <path class="cls-35" d="m68,114.57c-.7.29-.51,1.96-.45,7.47.02,2.33-.03,4.67,0,7v26.13c0,14,.53,29.03.9,46.66.2,9.32.41,19.38.45,32.66.08,23.56-.45,33.36.45,52.73.62,13.28.93,19.92,1.8,21.93,9.31,21.53,46.35,23.04,87.79,24.73,0,0,45.41,1.85,78.79-15.4,3.46-1.79,6.75-4.67,6.75-4.67,2.82-2.46,5.19-4.53,6.3-7.93.2-.62.39-1.37.45-8.87.03-3.5,0-6.15,0-7v-25.66c0-14.13.82-37.64.9-40.13,1.57-45.74.94-96.49.9-98.92-.02-1.27-.06-2.16,0-3.73.22-5.66,1.33-8.35.45-8.87-.42-.25-1.03.17-4.26,2.71-2.53,1.99-3.79,2.98-4.18,3.32-12.42,10.99-43.78,15.9-43.78,15.9-4.48.7-17.93,2.67-39.62,2.8-3.9.02-32.12.06-60.33-6.07-8.32-1.81-24.35-5.83-29.71-13.53-.35-.51-2.53-3.71-3.6-3.27Z"/>
  <path class="cls-28" d="m68.45,108.13c-.7.29-.51,1.96-.45,7.47.02,2.33-.03,4.67,0,7v26.13c0,14,.53,29.03.9,46.66.2,9.32.41,19.38.45,32.66.08,23.56-.45,33.36.45,52.73.62,13.28.93,19.92,1.8,21.93,9.31,21.53,46.35,23.04,87.79,24.73,0,0,45.41,1.85,78.79-15.4,3.46-1.79,6.75-4.67,6.75-4.67,2.82-2.46,5.19-4.53,6.3-7.93.2-.62.39-1.37.45-8.87.03-3.5,0-6.15,0-7v-25.66c0-14.13.82-37.64.9-40.13,1.57-45.74.94-96.49.9-98.92-.02-1.27-.06-2.16,0-3.73.22-5.66,1.33-8.35.45-8.87-.42-.25-1.03.17-4.26,2.71-2.53,1.99-3.79,2.98-4.18,3.32-12.42,10.99-43.78,15.9-43.78,15.9-4.48.7-17.93,2.67-39.62,2.8-3.9.02-32.12.06-60.33-6.07-8.32-1.81-24.35-5.83-29.71-13.53-.35-.51-2.53-3.71-3.6-3.27Z"/>
  <path class="cls-29" d="m66.72,98.48c-.71.3-.51,1.98-.46,7.54.02,2.35-.03,4.71,0,7.06v26.37c0,14.13.54,29.3.91,47.1.2,9.41.41,19.56.46,32.97.08,23.79-.46,33.67.46,53.22.63,13.4.94,20.11,1.83,22.14,9.45,21.73,47.03,23.26,89.09,24.96,0,0,46.08,1.87,79.95-15.54,3.51-1.8,6.85-4.71,6.85-4.71,2.86-2.49,5.26-4.57,6.4-8.01.21-.62.4-1.38.46-8.95.03-3.54,0-6.2,0-7.06v-25.9c0-14.26.83-37.99.91-40.5,1.59-46.17.95-97.4.91-99.85-.02-1.28-.06-2.18,0-3.77.22-5.71,1.35-8.43.46-8.95-.43-.25-1.05.17-4.33,2.73-2.56,2.01-3.84,3.01-4.24,3.35-12.6,11.1-44.43,16.05-44.43,16.05-4.54.71-18.19,2.69-40.2,2.83-3.96.02-32.59.07-61.22-6.12-8.44-1.83-24.71-5.88-30.15-13.66-.36-.51-2.57-3.75-3.65-3.3Z"/>
  <g>
    <ellipse class="cls-23" cx="160.74" cy="97.21" rx="94.54" ry="33.99"/>
    <ellipse class="cls-32" cx="160.74" cy="95.48" rx="91.39" ry="29.8"/>
    <ellipse class="cls-8" cx="160.29" cy="93.76" rx="91.84" ry="28.57"/>
    <path class="cls-21" d="m69.8,96.71c.72.27,2.28-2.98,2.75-3.81,7.77-13.66,46.35-18.48,46.35-18.48,16.47-2.06,24.7-3.09,39.46-3.26,76.98-.89,91.02,20.84,91.78,23.38.05.18.63,2.24.92,2.17.34-.08.08-3.11,0-3.81-.76-6.58-9.58-11.61-11.09-12.45-8.14-4.53-20.83-9.16-43.67-12.32-5.9-.82-16.12-2.04-29-2.37-1.62-.04-5.55-.13-10.78-.05-9.01.13-30.53.86-56.12,6.85,0,0-6.91,1.62-17.11,6.4-7.99,3.75-11.56,6.57-13.06,10.84-1,2.85-1.17,6.63-.45,6.89Z"/>
  </g>
  <path class="cls-25" d="m131.19,194.3c-1.21-15.86.58-21.08,1.56-23.41,2.82-6.68,7.14-10.6,12.68-15.52,9.77-8.67,18.85-16.74,32.53-17.6,2.8-.18,15.9-1,26.49,8.2,10.87,9.44,11.7,23,12.04,28.59.69,11.38-2.98,19.98-4.73,23.95-4.14,9.39-9.77,15.15-13.14,18.53-10.31,10.34-14.54,7.36-24.03,15.82-13.86,12.35-16.48,28.52-21.72,27.49-3.38-.67-3.15-7.74-8.8-9.58-4.32-1.41-6.87,2.01-9.35.61-4.2-2.37.92-13.44.48-29.74-.29-10.95-2.73-10.59-4-27.35Z"/>
  <path class="cls-9" d="m133.95,194.16c-1.04-14.95.61-19.88,1.52-22.08,2.62-6.31,6.59-10.03,11.7-14.69,9-8.22,17.37-15.86,29.93-16.72,2.57-.18,14.6-1,24.28,7.63,9.94,8.86,10.64,21.65,10.93,26.91.59,10.73-2.81,18.85-4.43,22.6-3.83,8.87-9.03,14.33-12.14,17.53-9.51,9.8-13.37,7-22.12,15.02-12.77,11.7-15.24,26.96-20.05,26.01-3.1-.61-2.86-7.29-8.04-9-3.96-1.31-6.31,1.92-8.58.61-3.85-2.21.89-12.68.56-28.05-.23-10.32-2.46-9.98-3.56-25.77Z"/>
  <path class="cls-26" d="m139.49,195.1c-.73-14.85.88-19.76,1.76-21.95,2.52-6.29,6.27-10,11.08-14.66,8.47-8.22,16.36-15.86,28.02-16.79,2.38-.19,13.55-1.08,22.4,7.45,9.08,8.75,9.53,21.45,9.71,26.68.38,10.66-2.9,18.75-4.47,22.48-3.69,8.84-8.6,14.29-11.53,17.49-2.58,2.82-4.71,4.59-6.63,5.89-3.98,2.68-6.41,3.7-9.43,5.3-.57.31-7.45,4.03-12.61,9.98-7.93,9.14-8.38,19.58-13.3,19.54-.36,0-.61-.06-1-.16-4.99-1.18-5.11-7.31-8.96-8.58-3-.99-4.87,2.09-6.34,1.08-3.1-2.15,4.29-16.75,4.2-28.16-.02-2.97-1.92-5.67-2.9-25.59Z"/>
  <g>
    <path class="cls-25" d="m108.02,273.7c4.1-5.22,7.76-3.34,14.47-8.76,10.57-8.54,7.42-17.98,15.13-20.74.49-.17.86-.27,1.04-.31,8.32-2.08,19.47,4.26,20.09,10.17.32,3.02-2.4,3.35-6.32,10.01-2.6,4.42-5.8,9.87-4.81,15.74,1.09,6.47,6.11,6.42,7.49,13.24,1.55,7.63-3.41,14.07-4.81,15.74-2.36,2.81-5.41,6.45-9.31,6.25-6.17-.31-6.23-9.78-15.64-14.5-7.83-3.93-12.57.22-17.3-3.77-5.69-4.8-5.35-16.29-.01-23.08Z"/>
    <path class="cls-16" d="m111.76,273.56c3.6-4.92,6.74-3.2,12.6-8.34,9.23-8.09,6.61-16.88,13.3-19.54.42-.17.74-.26.9-.3,7.21-2.04,16.78,3.77,17.25,9.27.24,2.82-2.11,3.16-5.57,9.42-2.29,4.16-5.12,9.29-4.33,14.75.87,6.03,5.2,5.93,6.33,12.29,1.25,7.11-3.1,13.17-4.33,14.75-2.07,2.65-4.74,6.08-8.12,5.94-5.33-.22-5.28-9.06-13.36-13.37-6.72-3.59-10.86.35-14.91-3.33-4.87-4.42-4.44-15.15.24-21.55Z"/>
    <path class="cls-20" d="m127.74,283.22c-1.04-.79,9.67-18.49,10.98-17.84.89.44-1.85,9.8-8.66,16.14-.99.92-2.05,1.91-2.32,1.7Z"/>
    <path class="cls-20" d="m133.4,304.47c-1.14.63-12.96-16.36-11.83-17.29.77-.63,8.2,5.67,11.22,14.48.44,1.28.91,2.64.61,2.81Z"/>
  </g>
  <g>
    <rect class="cls-13" x="841.3" y="103.07" width="180.41" height="234.33"/>
    <path class="cls-13" d="m1026.19,341.88h-189.39V98.57h189.39v243.31Zm-180.41-8.98h171.42V107.56h-171.42v225.34Z"/>
  </g>
  <polyline class="cls-13" points="836.76 98.23 843.16 79.88 1018.19 79.88 1026.24 99.54"/>
  <g>
    <g>
      <path class="cls-5" d="m1010.94,83.41h-160.57c-2.18,5.04-4.37,10.08-6.55,15.12h173.74l-6.62-15.12Z"/>
      <path class="cls-4" d="m843.82,98.53v234.01h173.74V98.53h-173.74Zm158.23,189.73c0,17.12-13.88,30.99-30.99,30.99s-30.99-13.88-30.99-30.99c0-.09,0-.17,0-.26-3.06.33-6.18.51-9.33.51-46.9,0-84.91-38.02-84.91-84.91s38.02-84.91,84.91-84.91,84.91,38.02,84.91,84.91c0,23.65-9.67,45.04-25.28,60.44,7.11,5.68,11.67,14.42,11.67,24.22Z"/>
      <path class="cls-19" d="m1015.66,203.6c0-46.9-38.02-84.91-84.91-84.91s-84.91,38.02-84.91,84.91,38.02,84.91,84.91,84.91c3.15,0,6.27-.18,9.33-.51.14-17,13.96-30.73,30.99-30.73,7.31,0,14.02,2.54,19.32,6.77,15.6-15.4,25.28-36.79,25.28-60.44Z"/>
      <path class="cls-1" d="m940.07,288c0,.09,0,.17,0,.26,0,17.12,13.88,30.99,30.99,30.99s30.99-13.88,30.99-30.99c0-9.81-4.56-18.54-11.67-24.22-5.3-4.23-12.01-6.77-19.32-6.77-17.03,0-30.84,13.74-30.99,30.73Zm35.31-7.82c1.18.44,2.6.97,4.28,1.99.98.59,3.32,2.12,4.13,2.75.27.21.49.34.92.61.42.26.52.29.61.31.46.07.87-.29,1.22-.61,1.42-1.3,2.13-1.94,2.45-2.29.43-.48.76-.84,1.22-1.38.81-.95,2.39-2.85,2.91-3.36.17-.17.28-.23.46-.46.15-.18.19-.29.31-.31.17-.03.33.17.46.31.05.05-.06-.07,1.07.76.33.24.74.55,1.22.92-.95,1.23-2.02,2.52-3.21,3.82-1.78,1.95-3.54,3.62-5.2,5.05,2.7,3.01,5.4,6.01,8.1,9.02l-2.75,2.29c-2.7-2.96-5.4-5.91-8.1-8.87-1.84,1.39-4.6,3.22-8.26,4.74-2.6,1.08-5.96,2.47-10.55,2.6-6.46.18-11.22-2.27-13-3.21-4.19-2.22-6.95-5.06-8.56-7.03,1.71-1.86,4.36-4.33,7.95-6.27,2.36-1.28,4.42-1.95,5.05-2.14.81-.25,2.15-.67,3.98-.92.4-.06,2.22-.3,4.74-.15,1.16.07,4.52.33,8.56,1.83Z"/>
      <path class="cls-5" d="m962.08,278.5c-1.82.25-3.17.67-3.98.92-.63.2-2.68.86-5.05,2.14-3.59,1.94-6.24,4.41-7.95,6.27,1.61,1.97,4.37,4.81,8.56,7.03,1.77.94,6.54,3.39,13,3.21,4.59-.13,7.95-1.52,10.55-2.6,3.66-1.52,6.42-3.35,8.26-4.74,2.7,2.96,5.4,5.91,8.1,8.87l2.75-2.29c-2.7-3.01-5.4-6.01-8.1-9.02,1.66-1.43,3.42-3.1,5.2-5.05,1.19-1.31,2.26-2.59,3.21-3.82-.48-.37-.9-.68-1.22-.92-1.13-.83-1.02-.71-1.07-.76-.13-.14-.29-.34-.46-.31-.11.02-.16.12-.31.31-.18.23-.29.29-.46.46-.52.52-2.09,2.42-2.91,3.36-.46.54-.79.9-1.22,1.38-.32.35-1.03,1-2.45,2.29-.35.32-.76.69-1.22.61-.09-.01-.19-.05-.61-.31-.43-.27-.65-.4-.92-.61-.81-.63-3.15-2.16-4.13-2.75-1.68-1.02-3.1-1.55-4.28-1.99-4.04-1.51-7.41-1.77-8.56-1.83-2.52-.14-4.34.1-4.74.15Zm4.59,2.91c4.59.29,8.08,1.82,10.55,2.91.85.37,1.36.65,2.14,1.07,2.86,1.54,4.29,2.32,4.28,3.21,0,.87-1.31,1.52-3.82,2.75-1.99.98-3.57,1.5-3.67,1.53-1.94.63-5.02,1.62-9.17,1.68-4.54.07-7.96-1.01-9.02-1.38-2.23-.76-8.3-2.82-8.26-5.5.04-2.48,5.3-4.26,7.64-5.05,3.85-1.3,7.26-1.35,9.33-1.22Z"/>
      <path class="cls-1" d="m949.69,287.67c-.04,2.68,6.03,4.75,8.26,5.5,1.06.36,4.48,1.44,9.02,1.38,4.15-.06,7.23-1.06,9.17-1.68.1-.03,1.68-.55,3.67-1.53,2.51-1.24,3.81-1.88,3.82-2.75,0-.89-1.42-1.67-4.28-3.21-.78-.42-1.29-.7-2.14-1.07-2.47-1.08-5.96-2.62-10.55-2.91-2.07-.13-5.47-.07-9.33,1.22-2.34.79-7.6,2.56-7.64,5.05Z"/>
    </g>
    <text class="cls-2" transform="translate(887.96 197.54)"><tspan x="0" y="0">HON </tspan><tspan x="-10.41" y="43.54">DASHI</tspan></text>
  </g>
  <g>
    <path class="cls-13" d="m305.93,472.67c17.69-26.84,35.38-53.69,53.08-80.53l-80.81-52.73,8.97,43.62c-7.52,1.96-54.09,14.89-76.74,60.94-13.68,27.81-11.88,53.97-10.38,65.38.88-5.57,2.66-13.15,6.51-21.49,3.93-8.52,8.64-14.9,12.38-19.22,3.92-4.46,9-9.53,15.41-14.51,7.89-6.13,15.47-10.34,21.69-13.23,6.67-2.75,13.98-5.45,21.91-7.94,6.57-2.07,12.87-3.77,18.82-5.18,3.06,14.96,6.11,29.92,9.17,44.89Z"/>
    <path class="cls-1" d="m308.1,458.07c14.12-21.62,28.25-43.24,42.37-64.86l-64.74-42.61,7.23,35.18c-10.4,2.17-37.17,9.21-59.94,33.32-29,30.7-31.14,67.51-31.41,76.87,1.51-6,4.06-13.23,8.46-20.73,1.2-2.04,6.17-10.3,15.39-18.8,5.02-4.63,9.22-7.41,13.92-10.52,10.64-7.05,19.53-10.93,21.47-11.77,6.49-2.79,12.59-4.57,24.79-8.13,6.23-1.82,11.43-3.21,15.06-4.15,2.46,12.07,4.93,24.13,7.39,36.2Z"/>
  </g>
  <ellipse class="cls-34" cx="142.25" cy="692.29" rx="27.06" ry="9.83"/>
  <path class="cls-31" d="m272.44,583.37c7.95,43.15-60.12,84.48-87.09,100.85-14.87,9.03-26.63,14.08-40.92,14.68-16.31.68-31.09-4.36-50.96-16.99-38.12-24.24-89.46-54.81-84.93-94.59,2.3-20.2,18.66-40.42,30.93-49.3,2.82-2.04,9.55-6.47,18.16-10.84,0,0,9.49-4.81,20.21-8.49,29.61-10.17,65.01-9.96,65.01-9.96,24.21,0,49.15,3.79,71.39,13.34,9.64,4.14,17.63,9.18,18.83,9.95,2.61,1.66,10.98,6.99,17.88,13.67,11.38,11.02,19.41,26.37,21.49,37.67Z"/>
  <ellipse class="cls-43" cx="140.35" cy="590.29" rx="128.77" ry="79.84"/>
  <path class="cls-41" d="m44.14,613.88c11.98,40.2,77.66,46.26,89.97,47.09,33.41,2.25,90.22-6.1,101.91-40.06,7.03-20.42-5.26-41.33-22.49-70.64-17.78-30.25-31.45-53.49-56.23-58.34-36.33-7.1-68.93,30.72-81.53,45.33-14.63,16.97-40.47,46.95-31.63,76.61Z"/>
  <path class="cls-27" d="m47.48,604.21c10.56,37.09,68.41,42.69,79.25,43.45,29.44,2.07,79.48-5.63,89.78-36.96,6.19-18.84-4.64-38.13-19.81-65.17-15.66-27.91-27.7-49.35-49.53-53.82-32-6.55-60.72,28.34-71.82,41.83-12.88,15.65-35.65,43.31-27.86,70.69Z"/>
  <path class="cls-10" d="m65.77,571.27c8.29,26.28,53.69,30.25,62.2,30.79,23.1,1.47,62.38-3.99,70.46-26.19,4.86-13.35-3.64-27.02-15.55-46.18-12.29-19.78-21.74-34.97-38.88-38.14-25.11-4.64-47.66,20.08-56.37,29.64-10.11,11.09-27.98,30.69-21.87,50.09Z"/>
  <ellipse class="cls-33" cx="140.5" cy="692.29" rx="27.06" ry="9.83"/>
  <path class="cls-30" d="m270.68,583.37c7.95,43.15-60.12,84.48-87.09,100.85-14.87,9.03-26.63,14.08-40.92,14.68-16.31.68-31.09-4.36-50.96-16.99-38.12-24.24-89.46-54.81-84.93-94.59,2.3-20.2,18.66-40.42,30.93-49.3,2.82-2.04,9.55-6.47,18.16-10.84,0,0,9.49-4.81,20.21-8.49,29.61-10.17,65.01-9.96,65.01-9.96,24.21,0,49.15,3.79,71.39,13.34,9.64,4.14,17.63,9.18,18.83,9.95,2.61,1.66,10.98,6.99,17.88,13.67,11.38,11.02,19.41,26.37,21.49,37.67Z"/>
  <ellipse cx="138.6" cy="590.29" rx="128.77" ry="79.84"/>
  <path class="cls-40" d="m42.38,613.88c11.98,40.2,77.66,46.26,89.97,47.09,33.41,2.25,90.22-6.1,101.91-40.06,7.03-20.42-5.26-41.33-22.49-70.64-17.78-30.25-31.45-53.49-56.23-58.34-36.33-7.1-68.93,30.72-81.53,45.33-14.63,16.97-40.47,46.95-31.63,76.61Z"/>
  <path class="cls-26" d="m45.73,604.21c10.56,37.09,68.41,42.69,79.25,43.45,29.44,2.07,79.48-5.63,89.78-36.96,6.19-18.84-4.64-38.13-19.81-65.17-15.66-27.91-27.7-49.35-49.53-53.82-32-6.55-60.72,28.34-71.82,41.83-12.88,15.65-35.65,43.31-27.86,70.69Z"/>
  <path class="cls-9" d="m64.01,571.27c8.29,26.28,53.69,30.25,62.2,30.79,23.1,1.47,62.38-3.99,70.46-26.19,4.86-13.35-3.64-27.02-15.55-46.18-12.29-19.78-21.74-34.97-38.88-38.14-25.11-4.64-47.66,20.08-56.37,29.64-10.11,11.09-27.98,30.69-21.87,50.09Z"/>
</svg>