<?xml version="1.0" encoding="UTF-8"?>
<svg id="Layer_1" data-name="Layer 1" xmlns="http://www.w3.org/2000/svg" viewBox="0 0 951.77 675.24">
  <defs>
    <style>
      .cls-1 {
        fill: #f7b538;
      }

      .cls-2 {
        fill: #f6f6ee;
      }

      .cls-3 {
        fill: #eeeac4;
      }

      .cls-4 {
        fill: #f15a24;
      }

      .cls-5 {
        fill: #eae5e1;
      }

      .cls-6 {
        fill: #e9e6e1;
      }

      .cls-7 {
        fill: #fff;
      }

      .cls-8 {
        fill: #ff0;
      }

      .cls-9 {
        fill: #ed1c24;
      }

      .cls-10 {
        fill: #e2eaed;
      }

      .cls-11 {
        fill: #ced1c0;
      }

      .cls-12 {
        fill: #a6aa91;
      }

      .cls-13 {
        fill: #db7c26;
      }

      .cls-14 {
        fill: #603813;
      }

      .cls-15 {
        fill: #5f2c0e;
      }

      .cls-16 {
        fill: #532104;
      }
    </style>
  </defs>
  <path class="cls-1" d="m120.19,97.19c-9.4,10.34-8.36,27.47,1.75,37.07s27.51,8.57,38.17-.15c12.26-10.03,13.79-28.5,6.34-41.88-8.1-14.55-26.06-21.19-42.03-18.44-16.44,2.83-30.91,15.48-37.12,30.79-3.17,7.82-3.56,16.59,1.39,23.76,4.52,6.55,11.82,10.51,18.82,13.88,18.4,8.85,37.72,17.72,58.36,19.24,18.67,1.38,36.27-4.04,49.88-17.07,7.66-7.33,13.96-15.92,21.49-23.37,8.07-7.98,17.77-14.13,28.47-17.93s21.4-5.23,32.37-4.39c11.5.89,27.5,5.02,28.31,19.04.16,2.84,4.6,2.86,4.44,0-.9-15.47-16.23-21.58-29.57-23.16-15.46-1.84-31.36,1.08-45.36,7.83-14.8,7.14-24.97,18.77-35.67,30.82-5.45,6.14-11.23,12.14-18.33,16.37-7.89,4.71-16.99,7.03-26.11,7.53-18.56,1-36.39-5.3-53.09-12.76-14.25-6.36-37.92-14.3-32.55-34.38,4.23-15.84,19.39-29.26,35.47-31.92s35.06,6.26,39.78,23.2-6.98,36.2-26.18,35.48c-17.69-.67-28.15-22.91-15.88-36.41,1.92-2.11-1.21-5.25-3.14-3.14h0Z"/>
  <path class="cls-1" d="m207.01,78.11c-14.82,7.66-27.4,23.12-28.84,40.2-1.77,21.04,22.49,19.66,36.11,14.49,19.17-7.29,38.93-25.43,60.82-19.56,10.14,2.72,18.32,11.54,18.76,22.25.47,11.63-7.97,19.13-17.88,23.32-11.26,4.75-23.48,7.62-35.15,11.18-13,3.97-26.01,7.93-39.01,11.9-2.72.83-1.56,5.11,1.18,4.28,22.46-6.85,45.1-13.27,67.41-20.6,15.96-5.25,31.48-16.13,27.22-35.24s-24.49-25.16-41.28-21.23c-20.59,4.82-37.66,22.69-59.37,22.95-6.53.08-13.19-2.28-14.28-9.51-.87-5.77,1.44-12.24,3.89-17.39,4.79-10.07,12.8-18.1,22.67-23.2,2.54-1.31.3-5.14-2.24-3.83h0Z"/>
  <path class="cls-1" d="m252.63,60.28c-5.54-1.93-11.57,1.52-13.11,7.15-1.82,6.66,2.13,13.57,7.57,17.28,11.04,7.52,26.17,2.99,31.02-9.46,5.46-14.01-5.5-27.09-18.96-30.17-15.06-3.44-30.98,4.24-37.53,18.22s-2.46,28.75,7.42,39.67c11.73,12.96,28.77,18.09,45.28,21.84s43.15,6.22,44.34,27.8c1.11,20.21-17.81,32.04-34.87,37-46.16,13.42-93.77-3.55-137.03-19.16-2.69-.97-3.85,3.31-1.18,4.28,32.68,11.79,66.19,23.76,101.36,24.08,25.85.23,65.52-5.66,74.63-34.73,3.83-12.21.32-25.17-10.52-32.39-12.73-8.47-29.85-9.44-44.29-13.26s-30.01-10.46-38.67-23.88c-8.71-13.49-6.2-31.95,7.63-41.09,7.56-5,17.68-6.21,26.13-2.88,8.2,3.23,14.86,11.08,12.95,20.31-1.79,8.65-9.88,14.49-18.66,12.84-3.97-.74-7.64-2.82-10.08-6.06-1.93-2.58-3.05-5.71-2.16-8.88.96-3.42,4.04-5.44,7.55-4.23,2.7.94,3.86-3.34,1.18-4.28h0Z"/>
  <path class="cls-1" d="m187.27,45.12c-12.02,3.75-25.38,8.41-30.93,20.8s1.78,22.54,11.58,29.64c11.82,8.57,25.38,14.53,39.1,19.32s28.96,8.04,43.16,12.88c9.29,3.17,17.48,11.02,11.64,21.22-4.72,8.25-14.68,10.78-23.22,13.02-2.76.72-1.59,5,1.18,4.28,11.5-3.02,25.58-7.72,28.2-21.09s-10.45-20.04-21.25-23.12c-14.53-4.14-29.17-7.91-43.34-13.2s-29.57-11.73-39.54-22.61c-7.01-7.65-6.05-17.42.81-24.86,6.14-6.66,15.43-9.39,23.8-12,2.72-.85,1.56-5.13-1.18-4.28h0Z"/>
  <path class="cls-1" d="m83.96,79.45c-11.39,11.15-20.2,26.14-20.14,42.49.05,15.19,8.15,29.19,19.58,38.81,29.25,24.61,70.17,17.51,105,14.17,22.18-2.13,45.36-2.68,66.04,6.86,2.57,1.19,4.83-2.63,2.24-3.83-33.05-15.24-69.1-6.05-103.76-4.11-31.3,1.75-72.19-5.34-82.85-40.09-5.82-18.98,3.56-37.99,17.03-51.16,2.04-2-1.09-5.14-3.14-3.14h0Z"/>
  <path class="cls-1" d="m85.1,199.5c37.54,6.32,73.61,21.55,112.07,22.08,16.92.23,34.09-2.46,49.41-9.89,16.65-8.07,29.78-21.43,44.97-31.72,16.53-11.19,38.57-19.27,56.99-7.42,2.41,1.55,4.63-2.29,2.24-3.83-32.31-20.78-64.66,10.57-89.21,28.5-15.65,11.43-32.94,18.13-52.33,19.57s-38.47-1.55-57.2-5.92c-21.95-5.12-43.5-11.9-65.77-15.65-2.79-.47-3.99,3.8-1.18,4.28h0Z"/>
  <path class="cls-1" d="m293.16,216.8c-38.56.3-76.94-4.65-114.15-14.77-17.42-4.74-35.26-10.52-53.55-9.47-15.97.92-30.7,7.58-41.84,19.07-1.99,2.05,1.14,5.19,3.14,3.14,12.72-13.11,29.76-18.81,47.85-17.73s35.1,7.36,52.39,11.68c34.69,8.66,70.42,12.81,106.16,12.53,2.85-.02,2.86-4.46,0-4.44h0Z"/>
  <path class="cls-1" d="m51.47,183.79c31.12,2.92,62.6.88,93.05-6.18,15.07-3.49,29.51-8.83,44.33-13.17,14.79-4.32,30.69-7.18,45.88-3.04,13.53,3.69,25.35,13.78,28.15,27.99,2.88,14.61-7.32,25.55-17.57,34.27-6.41,5.46-22.01,15.05-14.64,25.25,6.44,8.91,21.96,9.14,31.54,7.08,30.59-6.55,44.5-36.86,55.37-62.95,1.1-2.63-3.19-3.78-4.28-1.18-10.27,24.64-23.32,53.69-52.28,59.86-6.4,1.36-13.16,1.25-19.38-.9-3.27-1.13-8.18-3.1-8.42-7.28-.25-4.4,4.75-7.95,7.69-10.45,8.65-7.36,18.56-14.44,23.65-24.92,10.81-22.28-7.24-45.2-28.67-51.04-27.57-7.52-54.66,5.97-80.72,13.2-33.7,9.35-68.91,12.29-103.72,9.03-2.84-.27-2.82,4.17,0,4.44h0Z"/>
  <path class="cls-1" d="m140.48,182.67c-26.91-1.39-52.15,13.96-62.78,38.8-4.84,11.31-7.15,25.18-2.51,36.93,4.2,10.63,14.01,17.35,25.01,19.5,12.93,2.53,25.77-1.1,37.62-6.18,9.22-3.95,24.92-9.13,23.88-21.81-.96-11.78-14.05-18.73-24.02-22.03-4.71-1.56-10.46-1.48-13.92,2.61-2.86,3.38-2.25,8.04.43,11.3,4.57,5.54,12.91,5,19.35,4.75,7.7-.29,15.39-1.29,22.92-2.95,16.03-3.55,31.23-10.22,44.79-19.45,2.35-1.6.13-5.44-2.24-3.83-17.88,12.17-38.67,19.77-60.27,21.49-5.23.42-11.4,1.18-16.52-.17-3.96-1.05-8.54-5.91-3.88-9.3,3.16-2.3,7.68-.48,10.8.89,7.85,3.45,23.81,11.88,16.68,22.8-2.62,4.01-7.7,6.07-11.86,8.05-5.36,2.54-10.78,5-16.42,6.87-9.79,3.26-20.28,4.75-30.3,1.62-22.94-7.16-23.38-33.16-14.43-51.72,10.6-22,33.4-35.02,57.67-33.76,2.85.15,2.84-4.29,0-4.44h0Z"/>
  <path class="cls-1" d="m19.21,36.33c22.92,20.5,52.82,32.43,83.58,33.3,36.49,1.04,68.7-17.93,104.34-22.01,20.36-2.33,41.94.64,58.34,13.77,2.21,1.77,5.37-1.35,3.14-3.14-27.59-22.08-64.19-16.98-95.68-7.51-17.84,5.37-35.56,11.99-54.22,13.88-15.96,1.61-32.15.04-47.55-4.42-18.07-5.24-34.8-14.47-48.82-27.01-2.12-1.9-5.27,1.23-3.14,3.14h0Z"/>
  <path class="cls-1" d="m101.54,18.8c-6.38,36.05,21.61,65.24,52.41,78.47,17.99,7.73,37.5,12.02,56.81,14.89,21.47,3.19,43.25,4.21,64.92,2.92,11.8-.7,23.84-3.28,35.67-2.43,11.02.79,23.81,7.14,24.25,19.65.1,2.85,4.54,2.86,4.44,0-.61-17.15-18.45-24.33-33.29-24.21-10.37.08-20.72,1.95-31.07,2.56-10.89.64-21.82.72-32.72.22-21.46-.98-42.91-4.11-63.67-9.65-18.67-4.98-37.35-12.43-51.83-25.59-15.27-13.88-25.33-34.77-21.64-55.64.49-2.79-3.78-3.99-4.28-1.18h0Z"/>
  <path class="cls-1" d="m206.72,5.74c4.1,15.28,16.07,27.97,27.74,38.11s24.81,18.19,39.01,24.08,29.97,9.62,45.65,10.5,42.89-4.23,50.78,15.15c1.06,2.61,5.36,1.47,4.28-1.18-6.16-15.11-22.73-18.28-37.37-18.3-17.3-.03-33.67-.89-50.32-6.13-15.9-5-30.95-12.9-44.04-23.23-12.95-10.22-27.05-23.81-31.44-40.17-.74-2.75-5.02-1.59-4.28,1.18h0Z"/>
  <path class="cls-1" d="m288.54,16.68c-5.92,21.94-12.04,44.5-25.71,63.06s-33.49,27.68-55.49,32.06-45.8,4.48-67.93,10.99c-17.48,5.14-33.78,13.84-48.02,25.17-16.66,13.26-30.2,30.26-39.35,49.48-1.22,2.56,2.6,4.82,3.83,2.24,16.97-35.62,49.43-63.15,87.62-73.43,22.9-6.16,46.91-5.9,69.97-11.23,19.98-4.62,37.99-13.78,50.91-30.04,15.41-19.4,22.12-43.62,28.46-67.12.74-2.76-3.53-3.94-4.28-1.18h0Z"/>
  <path class="cls-1" d="m90.04,22.88c-32.62,27.7-57.72,68-50.49,112.31,3.34,20.46,13.86,38.51,30.27,51.21,18.43,14.25,41.79,23.36,63.66,30.86,25.76,8.84,54.12,13.11,80.26,3.28,2.65-1,1.5-5.28-1.18-4.28-22.41,8.43-46.6,6.21-69.16-.47-21.19-6.28-43.08-14.99-61.9-26.67s-31.19-27.44-36.3-48.32c-4.81-19.66-2.48-40.47,5.2-59.08,9.06-21.96,24.81-40.45,42.77-55.7,2.18-1.85-.97-4.97-3.14-3.14h0Z"/>
  <path class="cls-1" d="m179.26,28.53c-16.85,24.4-23.08,55.23-17.69,84.34,6.13,33.1,28.93,57.14,48.93,82.74,12.09,15.47,22.97,32.26,27.2,51.69.61,2.79,4.88,1.61,4.28-1.18-6.99-32.04-30.8-55.51-50.03-80.69-9.85-12.9-18.63-26.73-23.36-42.38-4.32-14.27-5.49-29.43-3.72-44.22,2.06-17.25,8.34-33.78,18.21-48.07,1.63-2.35-2.22-4.58-3.83-2.24h0Z"/>
  <path class="cls-13" d="m235.05,48.75c-13.16,1.27-24.46,10.03-29.57,22.19-5.83,13.86-2.84,30.27,5.35,42.53s21.4,20.91,35.36,25.9c16.33,5.83,34.33,7.34,49.55,16.13s26.66,26.01,28.71,44.21c.32,2.8,4.76,2.84,4.44,0-1.45-12.88-6.58-24.9-15.01-34.78-9.47-11.1-22.22-17.38-36.04-21.38-15.08-4.37-30.84-6.81-44.49-15.03s-24.78-21.9-26.32-38.46c-1.61-17.33,9.86-35.12,28.01-36.88,2.82-.27,2.84-4.71,0-4.44h0Z"/>
  <path class="cls-13" d="m82.27,76.48c-13.63,12.22-10.04,33.55-2.62,48.13,8.4,16.52,23.56,29.22,40.43,36.49,43.57,18.79,91.69,3.74,135.48-5.8,27.86-6.07,56.83-10.17,84.92-3.14,2.77.69,3.95-3.58,1.18-4.28-44.33-11.1-88.34,4.56-131.62,12.99-39.74,7.74-87.18,8.66-116.57-24.02-12.42-13.81-25.05-42-8.06-57.24,2.13-1.91-1.02-5.04-3.14-3.14h0Z"/>
  <path class="cls-13" d="m134.32,18.44c-37.71,51.59-68.46,116.52-48.01,181.26,5.09,16.12,13.35,31.01,24.67,43.58,1.92,2.12,5.04-1.02,3.14-3.14-20.08-22.28-29.4-52.04-29.87-81.71-.5-32.16,9.66-63.38,24.55-91.58,8.52-16.16,18.58-31.44,29.36-46.17,1.69-2.31-2.16-4.52-3.83-2.24h0Z"/>
  <path class="cls-13" d="m76.8,112.31c.63,37.57,23.52,71.53,54.68,91.31,35.99,22.84,80.31,27.68,121.95,23.73,26.56-2.52,52.65-8.36,78.51-14.72,2.77-.68,1.6-4.96-1.18-4.28-42.16,10.37-85.79,19.59-129.4,14.35-38.62-4.64-76.73-21.14-100.17-53.25-12.15-16.64-19.61-36.44-19.96-57.13-.05-2.85-4.48-2.86-4.44,0h0Z"/>
  <path class="cls-13" d="m221.56,11.77c-19.04,18.75-28.95,48.62-11.14,71.71,16.17,20.97,47.23,31.02,72.63,24.11,22.6-6.15,48.81-30.84,33.87-55.58-5.97-9.88-17.9-19.47-29.38-21.77-9.37-1.87-22.43,4.48-19.23,15.84,3.54,12.58,24.45,15.29,34.89,16.72,16.94,2.32,34.13.74,50.4-4.49,2.71-.87,1.55-5.15-1.18-4.28-22.22,7.15-49.75,8.39-71.47-1.48-4.2-1.91-9.69-5.53-8.52-10.98,1.55-7.27,10.46-8.24,16.27-6.47,9.71,2.95,19.73,10.99,24.76,19.77,13.16,22.97-13.79,44.39-33.9,49.01-21.92,5.04-47.3-3.25-62.65-19.59-19.97-21.25-11.02-50.91,7.76-69.41,2.04-2.01-1.1-5.14-3.14-3.14h0Z"/>
  <path class="cls-13" d="m305.84,17.86c9.55,22.75,15.59,46.88,17.57,71.48,1.86,23.07,1.68,48.9-6.36,70.9-8.78,24.02-31.35,34.45-55.74,35.04-13.49.33-26.98-1.66-40.3-3.57s-26.15-4.07-39.15-6.56c-28.53-5.47-56.76-12.43-84.59-20.77-2.74-.82-3.91,3.46-1.18,4.28,26.9,8.06,54.18,14.84,81.74,20.22,13.62,2.66,27.31,4.98,41.04,6.97,13.7,1.98,27.58,4.12,41.46,3.89,22.17-.37,45.04-8.15,56.5-28.41,11.39-20.15,12.28-46.73,11.69-69.28-.76-29.32-7.06-58.33-18.41-85.37-1.09-2.59-5.38-1.45-4.28,1.18h0Z"/>
  <path class="cls-13" d="m177.35,9.49c-13.64,9.13-26.05,20-36.69,32.52-5.18,6.09-10.02,12.54-14.29,19.31-3.71,5.89-7.22,13.1-4.36,20.08,2.53,6.15,8.64,9.71,14.42,12.33,7.98,3.62,16.38,6.32,24.99,7.97,12.58,2.42,30.12,4.88,40.6-4.56s6.4-26.14-.93-36.38c-7.89-11.02-21.71-18.21-35.18-13.3-11.16,4.07-17.86,17.3-12.25,28.39,6.68,13.19,26.16,12.26,38.34,9.99,19.62-3.66,36.65-14.74,52.81-25.88,18.26-12.59,36.47-25.25,54.7-37.87,2.33-1.61.12-5.46-2.24-3.83-12.39,8.58-24.79,17.16-37.18,25.74-11.76,8.14-23.35,16.67-35.65,23.97s-26.34,13.56-41.04,14.54c-12.17.81-30.87-2.63-26.75-19.23,3.47-13.98,20.85-15.68,31.43-9.04s20.32,22.87,14.34,35.17-24.22,10.41-35.28,8.78c-6.66-.98-13.24-2.6-19.6-4.79s-13.66-4.66-18.48-9.48c-7.25-7.24-1.65-16.23,2.99-23.18,4.23-6.36,8.9-12.41,13.96-18.14,9.89-11.19,21.19-20.99,33.59-29.29,2.36-1.58.14-5.42-2.24-3.83h0Z"/>
  <path class="cls-13" d="m105.03,17.1c-19.55,6.84-38.08,16.35-54.9,28.44-15.81,11.36-32.4,25.29-43.2,41.69-4.8,7.29-7.01,16.26-1.86,23.98s13.9,11.21,21.92,14.37c19.72,7.77,40.79,11.08,60.88,17.65,11.06,3.62,23.32,8.21,32.23,15.97,5.12,4.46,9.82,13.12,3.9,19-5.04,5.01-13.15,3.79-19.48,2.95-2.82-.37-2.79,4.07,0,4.44,8.36,1.11,18.89,1.7,24.28-6.27,4.96-7.32,1.35-16.62-4.44-22.23-6.7-6.48-15.92-10.69-24.44-14.17-9.74-3.98-19.9-6.81-30.07-9.44-10.53-2.72-21.12-5.22-31.48-8.55-9.6-3.09-21.87-6.61-28.54-14.71-8.95-10.86,2.16-23.13,9.45-31.21s14.49-14.89,22.5-21.49c19.13-15.75,41.05-27.97,64.43-36.14,2.68-.94,1.53-5.22-1.18-4.28h0Z"/>
  <path class="cls-13" d="m94.88,91.09c-9.82,7.91-3.09,21.67,5.86,26.83,6.88,3.96,15.06,5.66,22.6,7.89,9.02,2.68,18.05,5.35,27.07,8.03s17.63,5.14,26.4,7.85c8.24,2.55,16.58,5.51,23.42,10.91s11.72,12.64,11.8,21.23-4.42,15.9-10.31,21.42c-14.95,13.98-37.22,12.4-56.12,11.06-2.85-.2-2.84,4.23,0,4.44,16.49,1.17,34.48,2.37,49.65-5.53,11.87-6.18,22.05-18.84,21.16-32.82-.96-15.02-13.69-25.32-26.57-30.78-16.95-7.18-35.57-11.26-53.19-16.49-9.89-2.93-20.34-5.21-29.86-9.2-4.32-1.81-8.79-4.43-10.91-8.8s-1.83-9.71,2.13-12.9c2.22-1.79-.93-4.91-3.14-3.14h0Z"/>
  <polygon class="cls-7" points="0 4.47 0 4.47 0 4.47 0 0 0 0 0 0 0 0 0 4.47 0 4.47"/>
  <path class="cls-7" d="m512.18,162.02c-5.48-5.64-8.83-13.18-8.83-21.45,0-11.2,6.13-21.03,15.39-26.67-5.57-9.42-8.77-20.31-8.77-31.88,0-36.05,30.84-65.28,68.9-65.28,6.96,0,13.69.99,20.03,2.81,8.08-11.76,22.06-19.54,37.97-19.54,25,0,45.28,19.21,45.28,42.91,0,20.17-14.68,37.07-34.47,41.67-.88,21.64-12.88,40.58-30.74,51.83,3.41,5.87,5.34,12.61,5.34,19.78,0,21.58-17.54,39.28-39.86,41,.11,1.22.17,2.45.17,3.7,0,24.68-21.13,44.7-47.17,44.7s-47.17-20.01-47.17-44.7c0-16.68,9.65-31.2,23.92-38.89l.03.03Z"/>
  <path class="cls-10" d="m522.79,154.43c-4.59-4.98-7.38-11.62-7.38-18.92,0-9.88,5.13-18.55,12.87-23.53-4.67-8.31-7.32-17.9-7.32-28.12,0-31.8,25.78-57.58,57.58-57.58,5.82,0,11.45.86,16.75,2.47,6.75-10.38,18.44-17.25,31.74-17.25,20.9,0,37.86,16.94,37.86,37.86,0,17.79-12.27,32.7-28.81,36.76-.74,19.1-10.77,35.8-25.7,45.73,2.85,5.18,4.46,11.12,4.46,17.46,0,19.04-14.66,34.65-33.32,36.16.08,1.07.14,2.17.14,3.27,0,21.78-17.65,39.43-39.43,39.43-21.78,0-39.43-17.65-39.43-39.43,0-14.7,8.06-27.53,20-34.3h-.01Z"/>
  <path class="cls-7" d="m592.16,43.95c-.35-1.61-41.42-8.66-54.91,18.35-13.48,26.99,16.75,55.64,18.35,54.91,1.51-.69-19.39-29.35-8.69-50.49,10.62-20.96,45.59-21.24,45.25-22.77h0Z"/>
  <path class="cls-7" d="m593.38,133.41c.72-.4,17.04,12.54,11.48,26.56-5.56,14.02-26.3,12.31-26.56,11.48-.25-.79,17.4-2.57,21.7-13.61,4.27-10.94-7.3-24.06-6.62-24.43h0Z"/>
  <path class="cls-7" d="m662.15,611.45c-9.02,9.97-23.94,23.66-46.05,32.7-7.93,3.24-14,4.75-28.26,7.93-41.82,9.32-62.73,13.98-78.49,15.85-7.47.89-36.54,4.17-74.74,3.21,0,0-6.49-.16-13.15-.49-31.91-1.56-116.97-18.8-229.2-47.31-5.7-3.12-13.53-8.35-19.88-16.84-15.07-20.13-11.04-44.06-9-63.29,3.91-36.78,1.44-64.58-2.51-109.12-4.25-47.89-13.11-73.96,5.23-99.09,4.82-6.61,10.07-11.15,13.6-13.87,15.14-4.54,37.4-10.44,64.88-14.86,26.42-4.25,46.05-5.26,80.58-6.94,18.29-.89,48.54-2.28,89.56-1.97,16.6.13,61.43.74,119.74,5.93,50.1,4.46,69.56,8.69,86.86,13.87,21.45,6.43,38.51,14,50.23,19.82,4.43,41.31,5.93,75.87,6.39,101.29.67,36.74-.76,57.64-1.16,63.19-.83,11.47-2.96,38.34-8.1,62.81-.57,2.74-2,9.3-3.42,18.44-1.91,12.3-2.74,22.36-3.14,28.73Z"/>
  <g>
    <path class="cls-7" d="m927.83,402.38c-128.71,26.55-257.42,53.09-386.14,79.64l-17.9-65.99c127.08-37.25,254.16-74.5,381.24-111.75,3.29,1.04,28.01,9.33,37.65,34.68,8.13,21.37,2.3,46.31-14.86,63.41Z"/>
    <path class="cls-7" d="m537.78,488.4l-20.64-76.09,387.96-113.72,1.58.5c5.06,1.6,30.84,10.97,41.1,37.94,8.91,23.42,2.58,50.58-16.11,69.21l-1.15,1.15-1.59.33-391.15,80.67Zm-7.32-68.63l15.16,55.89,379.49-78.27c14.79-15.55,19.7-37.54,12.5-56.48-7.72-20.29-26.24-28.57-32.68-30.9l-374.46,109.76Z"/>
  </g>
  <path class="cls-7" d="m177.15,348.34l8.05,229.57c-.02,5.88.77,17.13,7.62,28.22,4.45,7.2,10.11,12.16,16.93,16.68,17.36,11.48,36.74,16.43,72.8,21.37,25.53,3.51,44.7,4.99,46.55,5.13,35.73,2.71,63.26,2.68,78.3,2.6,0,0,111.37-.54,184.94-16.28,8.99-1.92,27.07-6.13,40.64-21.37,7.65-8.59,11.1-17.59,13.54-25.23,10.28-32.09,8.43-57.77,8.89-114.15.24-29.09.77-27.76.84-56.86.08-28.23-.37-52.04-.84-69.69-7.25,3.82-17.28,8.66-29.63,13.26-6.63,2.47-25.63,9.21-56.17,13.93-16.42,2.54-29.1,3.41-50.9,4.45-32.07,1.54-58.82,2.81-99.04,2.99-19.89.09-42.17-.46-86.73-1.53-13.24-.32-30.28-.77-52.57-3.23-14.34-1.59-25.59-3.42-35.18-5.28-13.69-2.67-23.05-4.48-34.91-8.68-8.64-3.06-20.2-7.95-33.11-15.91h-.02Z"/>
  <path class="cls-7" d="m655.76,347.3c-13.78,7.47-31.81,15.67-53.7,21.88-24.48,6.95-46.25,9.27-63.06,9.83,2.47,63.22,4.94,126.43,7.41,189.65.37,7.88-.13,18.88-4.08,31.13-8.86,27.49-29.02,42.46-36.7,47.58,13.21-.63,32.04-2.03,54.54-5.43,38.42-5.82,50.79-9.45,61.85-18.07,9.45-7.37,14.67-15.28,17.72-19.98,14.99-23.11,14.7-44.81,15.66-117.57.57-43.78.74-40.96.82-62.84.12-31.56-.16-57.76-.45-76.18h0Z"/>
  <path class="cls-7" d="m176.26,347.61c3.17,1.96,6.66,3.96,10.47,5.91,3.22,1.64,6.33,3.07,9.28,4.33-1.96,46.48-2.51,85.15-2.54,114.46,0,7.94.94,28.91,2.85,70.86.92,20.18,1.57,32.39,6.67,47.78,5.94,17.91,14.9,31.04,21.42,39.21-3.41-1.44-8.02-3.62-13.17-6.82-4.52-2.8-8.29-5.15-12.38-9.29-2.12-2.16-6.8-7.31-10.16-15.07-3.32-7.68-3.78-14.24-4.12-20.2-1.16-19.58-1.74-29.38-1.89-43.6-.09-8.63-.38-17.19-.96-34.32-.93-27.31-1.66-31.06-2.54-56.43-.63-18.39-.37-20.29-.95-42.96-.59-23.06-1.4-41.72-1.98-53.84h-.02Z"/>
  <ellipse class="cls-7" cx="416.67" cy="344.15" rx="237.46" ry="30.76"/>
  <ellipse class="cls-7" cx="417.54" cy="344.13" rx="231.58" ry="26.91"/>
  <path class="cls-7" d="m219.58,355.05c33-4.44,67.63-7.97,103.78-10.27,109.37-6.94,208.56-1.04,294.57,10.58,12.16-2.76,26.26-6.83,26.16-11.39-.14-6.35-27.66-10.95-56.94-14.58-69.34-8.56-123.93-8.57-178.7-8.33-45.46.19-96.11.56-159.59,8.58-31.52,3.98-58.1,8.83-58.16,14.82-.03,3.17,7.35,5.86,13.97,7.7"/>
  <path class="cls-7" d="m229.17,357.02s.63-.09,1.88-.26c18.13-2.38,165.9-20.2,375.78.26,0,0-49.05,8.75-181.8,8.54-35.3.64-74.31.18-116.37-2.14-28.23-1.56-54.77-3.78-79.5-6.4h0Z"/>
  <path class="cls-15" d="m176.05,345.32l8.06,230.78c-.02,5.91.77,17.22,7.64,28.37,4.46,7.24,10.14,12.23,16.96,16.77,17.4,11.54,36.83,16.52,72.96,21.49,25.59,3.53,44.8,5.01,46.66,5.15,35.81,2.72,63.4,2.69,78.48,2.62,0,0,111.63-.54,185.37-16.37,9.01-1.93,27.13-6.17,40.72-21.48,7.67-8.64,11.12-17.68,13.57-25.36,10.3-32.26,8.45-58.07,8.91-114.74.24-29.24.77-27.91.85-57.16.08-28.38-.37-52.32-.85-70.05-7.26,3.84-17.32,8.71-29.7,13.33-6.65,2.48-25.69,9.25-56.3,14.01-16.45,2.56-29.17,3.42-51.02,4.47-32.14,1.55-58.95,2.83-99.25,3.01-19.93.09-42.26-.46-86.93-1.54-13.27-.32-30.35-.77-52.69-3.25-14.37-1.6-25.65-3.44-35.26-5.31-13.72-2.68-23.1-4.5-34.99-8.72-8.66-3.07-20.25-7.99-33.19-15.99,295.44,42.64,429.82,37.83,0-.02Z"/>
  <path class="cls-11" d="m186.21,351.13l7.72,218.3c-.02,5.59.74,16.29,7.31,26.83,4.27,6.85,9.71,11.56,16.26,15.85,16.68,10.92,35.29,15.62,69.91,20.32,24.52,3.33,42.93,4.75,44.72,4.87,34.32,2.58,60.76,2.54,75.21,2.47,0,0,106.97-.52,177.64-15.48,8.63-1.82,26-5.84,39.03-20.32,7.34-8.17,10.66-16.73,13.01-23.99,9.87-30.52,8.1-54.93,8.54-108.54.23-27.65.74-26.4.81-54.06.07-26.84-.36-49.48-.81-66.26-6.97,3.64-16.6,8.23-28.46,12.6-6.37,2.35-24.62,8.76-53.95,13.25-15.76,2.42-27.95,3.24-48.89,4.23-30.81,1.46-56.49,2.68-95.12,2.84-19.1.08-40.5-.43-83.3-1.46-12.72-.31-29.09-.73-50.49-3.07-13.77-1.51-24.58-3.25-33.79-5.02-13.15-2.53-22.14-4.26-33.53-8.25-8.3-2.9-19.41-7.55-31.81-15.13h0Z"/>
  <path class="cls-12" d="m645.92,350.14c-13.25,7.1-30.55,14.89-51.58,20.8-23.52,6.61-44.42,8.82-60.57,9.35,2.37,60.11,4.75,120.22,7.11,180.33.36,7.49-.13,17.95-3.92,29.6-8.51,26.14-27.87,40.37-35.25,45.24,12.68-.6,30.79-1.93,52.39-5.16,36.89-5.53,48.79-8.99,59.4-17.19,9.08-7.02,14.1-14.54,17.02-18.99,14.4-21.97,14.12-42.61,15.04-111.79.55-41.63.71-38.94.79-59.75.11-30-.16-54.92-.43-72.43Z"/>
  <path class="cls-2" d="m185.35,350.45c3.04,1.87,6.39,3.77,10.06,5.62,3.09,1.57,6.07,2.92,8.92,4.11-1.88,44.19-2.41,80.97-2.44,108.85,0,7.54.91,27.49,2.74,67.38.88,19.19,1.51,30.81,6.4,45.43,5.71,17.03,14.31,29.52,20.57,37.28-3.27-1.37-7.7-3.44-12.64-6.48-4.34-2.67-7.97-4.89-11.89-8.84-2.04-2.05-6.53-6.96-9.76-14.33-3.19-7.3-3.63-13.54-3.96-19.2-1.12-18.62-1.67-27.93-1.81-41.46-.09-8.2-.37-16.35-.93-32.63-.89-25.97-1.61-29.54-2.44-53.65-.6-17.49-.36-19.3-.91-40.85-.57-21.93-1.34-39.68-1.9-51.2v-.02Z"/>
  <ellipse class="cls-5" cx="416.28" cy="347.15" rx="228.09" ry="29.25"/>
  <ellipse class="cls-16" cx="417.1" cy="347.13" rx="222.44" ry="25.59"/>
  <path class="cls-6" d="m226.96,357.5c31.7-4.22,64.96-7.58,99.69-9.76,105.05-6.6,200.32-.98,282.94,10.07,11.68-2.63,25.22-6.5,25.13-10.84-.14-6.04-26.56-10.41-54.7-13.85-66.61-8.14-119.03-8.14-171.65-7.93-43.66.18-92.32.54-153.29,8.16-30.27,3.79-55.8,8.39-55.86,14.09-.03,3.01,7.06,5.57,13.42,7.31"/>
  <path class="cls-3" d="m236.17,359.39s.6-.09,1.8-.24c17.42-2.26,159.34-19.21,360.94.24,0,0-47.11,8.31-174.62,8.12-33.91.61-71.38.17-111.77-2.03-27.11-1.48-52.61-3.59-76.36-6.08h0Z"/>
  <g>
    <path class="cls-14" d="m635.32,543.99c4.86,7.01,10.78,17.17,15.1,30.32,4.93,15.01,5.91,28.22,5.85,37.33-.96,4.11-5.39,20.99-21.96,31.74-9.94,6.45-19.8,7.81-24.9,8.13,0,0-28.16-.02-20.71-29.95,1.69-5.74,3.79-11.73,6.35-17.89,10.99-26.37,26.66-46,40.26-59.66h0Z"/>
    <path class="cls-4" d="m634.24,553.97c4.09,5.91,9.09,14.46,12.72,25.53,4.16,12.64,4.97,23.77,4.92,31.43-.8,3.46-4.54,17.68-18.51,26.73-8.37,5.43-16.69,6.58-20.99,6.86,0,0-23.73-.02-17.45-25.23,1.43-4.84,3.19-9.88,5.35-15.07,9.26-22.21,22.47-38.73,33.94-50.26h0Z"/>
    <path class="cls-9" d="m632.75,559.28c3.61,5.21,8.01,12.76,11.22,22.54,3.67,11.17,4.39,20.99,4.34,27.75-.71,3.05-4,15.61-16.3,23.6-7.38,4.8-14.7,5.81-18.49,6.05,0,0-20.92-.02-15.38-22.27,1.26-4.27,2.81-8.72,4.72-13.31,8.16-19.61,19.8-34.19,29.9-44.36h0Z"/>
    <path class="cls-8" d="m623.57,597.67c1.83,2.7,4.07,6.61,5.71,11.66,1.87,5.78,2.24,10.85,2.22,14.35-.36,1.58-2.02,8.07-8.26,12.19-3.75,2.48-7.46,2.99-9.38,3.12,0,0-10.61-.02-7.82-11.52.63-2.21,1.42-4.51,2.39-6.88,4.13-10.14,10.03-17.67,15.15-22.92h0Z"/>
  </g>
  <g>
    <path class="cls-14" d="m372.16,573.83c-4.35,6.28-9.66,15.38-13.53,27.16-4.42,13.46-5.29,25.29-5.24,33.44.86,3.69,4.83,18.81,19.67,28.44,8.91,5.78,17.74,7,22.3,7.29,0,0,25.23-.02,18.55-26.84-1.52-5.14-3.39-10.51-5.69-16.03-9.85-23.62-23.89-41.21-36.08-53.46h0Z"/>
    <path class="cls-4" d="m373.13,582.76c-3.67,5.29-8.13,12.95-11.4,22.88-3.73,11.34-4.46,21.29-4.41,28.16.72,3.1,4.07,15.84,16.58,23.95,7.5,4.87,14.95,5.9,18.8,6.14,0,0,21.26-.02,15.64-22.6-1.28-4.33-2.85-8.85-4.8-13.51-8.3-19.9-20.13-34.71-30.41-45.02h0Z"/>
    <path class="cls-9" d="m374.47,587.53c-3.23,4.67-7.17,11.43-10.05,20.2-3.29,10.01-3.93,18.81-3.89,24.87.63,2.73,3.59,13.98,14.61,21.14,6.61,4.29,13.18,5.2,16.57,5.42,0,0,18.74-.02,13.78-19.96-1.13-3.82-2.52-7.82-4.23-11.92-7.31-17.57-17.74-30.64-26.79-39.75h0Z"/>
    <path class="cls-8" d="m382.69,621.92c-1.64,2.42-3.65,5.92-5.11,10.44-1.67,5.17-2.01,9.72-1.99,12.86.32,1.42,1.81,7.22,7.4,10.92,3.35,2.22,6.69,2.68,8.4,2.79,0,0,9.51-.02,7.01-10.32-.57-1.97-1.27-4.04-2.14-6.16-3.7-9.08-8.99-15.83-13.57-20.53h0Z"/>
  </g>
  <g>
    <path class="cls-14" d="m284.83,567.4c-4.67,6.74-10.36,16.51-14.53,29.16-4.75,14.45-5.68,27.14-5.62,35.9.92,3.95,5.18,20.18,21.12,30.53,9.56,6.2,19.04,7.51,23.95,7.83,0,0,27.09-.02,19.92-28.81-1.63-5.52-3.64-11.29-6.11-17.21-10.57-25.37-25.64-44.23-38.72-57.39Z"/>
    <path class="cls-4" d="m285.87,576.99c-3.93,5.68-8.74,13.91-12.24,24.56-4,12.17-4.79,22.86-4.74,30.23.77,3.33,4.37,17,17.8,25.71,8.06,5.22,16.05,6.32,20.18,6.59,0,0,22.83-.02,16.79-24.27-1.38-4.65-3.07-9.5-5.15-14.5-8.91-21.36-21.62-37.26-32.64-48.33h0Z"/>
    <path class="cls-9" d="m287.31,582.1c-3.47,5.01-7.7,12.28-10.79,21.68-3.53,10.74-4.22,20.18-4.18,26.69.68,2.94,3.84,15.01,15.69,22.7,7.09,4.61,14.14,5.58,17.79,5.82,0,0,20.11-.02,14.79-21.42-1.21-4.1-2.71-8.39-4.54-12.8-7.85-18.86-19.04-32.9-28.75-42.67h0Z"/>
    <path class="cls-8" d="m296.13,619.03c-1.76,2.6-3.91,6.35-5.49,11.22-1.79,5.56-2.15,10.43-2.14,13.8.35,1.52,1.94,7.76,7.95,11.72,3.6,2.38,7.17,2.87,9.03,3,0,0,10.22-.02,7.52-11.09-.61-2.12-1.37-4.34-2.3-6.62-3.97-9.75-9.65-16.99-14.58-22.05h0Z"/>
  </g>
  <g>
    <path class="cls-14" d="m535.1,568.77c4.48,6.47,9.95,15.85,13.94,27.99,4.56,13.86,5.45,26.06,5.4,34.46-.88,3.79-4.97,19.38-20.27,29.31-9.18,5.96-18.28,7.2-22.99,7.51,0,0-26-.02-19.12-27.65,1.57-5.3,3.5-10.83,5.87-16.53,10.15-24.35,24.62-42.47,37.18-55.09h0Z"/>
    <path class="cls-4" d="m534.1,577.98c3.78,5.45,8.38,13.35,11.75,23.57,3.84,11.68,4.6,21.95,4.55,29.02-.74,3.2-4.19,16.32-17.08,24.68-7.73,5.01-15.41,6.07-19.37,6.33,0,0-21.92-.02-16.11-23.3,1.32-4.46,2.94-9.13,4.94-13.92,8.55-20.51,20.75-35.77,31.33-46.4h0Z"/>
    <path class="cls-9" d="m532.72,582.89c3.33,4.82,7.39,11.79,10.35,20.82,3.39,10.31,4.05,19.38,4.01,25.62-.65,2.82-3.7,14.41-15.05,21.79-6.82,4.43-13.57,5.36-17.07,5.59,0,0-19.31-.02-14.2-20.57,1.16-3.94,2.6-8.06,4.36-12.29,7.53-18.1,18.28-31.58,27.61-40.96h0Z"/>
    <path class="cls-8" d="m524.24,618.34c1.69,2.49,3.76,6.09,5.27,10.77,1.72,5.33,2.07,10.02,2.05,13.25-.33,1.46-1.86,7.45-7.63,11.26-3.46,2.28-6.89,2.76-8.66,2.87,0,0-9.8-.02-7.22-10.64.58-2.03,1.31-4.16,2.2-6.35,3.81-9.35,9.26-16.31,13.99-21.16h0Z"/>
  </g>
  <g>
    <g>
      <path class="cls-12" d="m623.61,391.8c-5.03,7.55,4.91,14.98,5.95,33.69,1.06,19.28-8.5,29.46-2.97,34.68,2.83,2.68,9.52,1.49,22.79-.99,12.97-2.43,19.45-3.64,22.79-5.95,19.29-13.33,13.26-65.82-4.95-72.33-3.36-1.2-9.51.19-21.8,2.97-12.97,2.94-19.45,4.4-21.8,7.93Z"/>
      <path class="cls-15" d="m631.85,471.6c-4.99,0-8.81-1.14-12.07-4.22-7.16-6.77-4.66-15.73-2.83-22.27,1.47-5.27,3.15-11.25,2.72-19.06-.4-7.21-2.43-12.43-4.22-17.03-2.5-6.42-5.6-14.41-.08-22.7h0c4.54-6.82,12.33-8.59,27.86-12.1,14.59-3.3,21.25-4.81,27.32-2.64,11.59,4.14,20.06,18.49,22.67,38.37,3.62,27.57-5.59,44.65-15.42,51.44-5.07,3.5-11.82,4.77-26.6,7.53-8.06,1.51-14.3,2.68-19.35,2.68Zm.49-74.12c.35,1.2,1.04,2.96,1.58,4.35,2.09,5.38,4.96,12.76,5.53,23.12.61,11.09-1.72,19.41-3.42,25.49-.09.33-.19.68-.29,1.04,3.36-.45,7.88-1.3,11.81-2.03,9.24-1.73,17.22-3.22,18.99-4.37,5.9-4.08,8.93-18.07,7.03-32.55-1.7-12.99-6.47-20.7-9.38-22.16-2.31-.04-9.25,1.51-16.59,3.17-6.14,1.39-12.45,2.82-15.26,3.94Zm32.12-7.09h0Z"/>
    </g>
    <g>
      <path class="cls-11" d="m626.59,388.83c-1.19.66-3.05,1.81-3.96,3.96-.91,2.14-.43,4.25,0,5.95,1.42,5.57,2.92,8.95,3.96,11.89.67,1.89,2.7,7.76,2.97,14.86.26,6.72-1.27,9.01,0,9.91,2.92,2.05,10.07-10.55,24.77-15.85,13.53-4.88,21.07.89,25.76-4.95,5.28-6.57.23-19.43-3.96-25.76-1.66-2.51-4.24-6.29-8.92-7.93-3.47-1.22-5.6-.38-12.88.99-10.47,1.97-20.57,2.97-27.74,6.94Z"/>
      <path class="cls-15" d="m630.07,445.59c-1.99,0-4.07-.59-6.2-2.09-5.56-3.9-4.78-10.07-4.48-12.39.17-1.36.37-2.9.28-5.25-.15-3.81-.96-7.83-2.41-11.93-.23-.65-.49-1.33-.76-2.05-1-2.65-2.25-5.95-3.46-10.7-.53-2.08-1.76-6.94.48-12.24,2.31-5.47,6.82-7.96,8.3-8.78h0c7.16-3.95,15.54-5.38,24.42-6.89,2.06-.35,4.16-.71,6.28-1.11,1.24-.23,2.33-.45,3.29-.65,5.18-1.04,9.28-1.86,14.7.04,7.91,2.77,11.96,8.87,13.9,11.8,3.08,4.65,5.67,10.64,6.93,16.01,2.55,10.94-.49,17.69-3.5,21.43-5.5,6.84-12.99,6.66-17.96,6.53-3.63-.09-7.38-.19-12.17,1.54-6.49,2.34-11.23,6.63-15.03,10.07-2.8,2.54-7.35,6.66-12.59,6.66Zm2.34-48.61c.88,3.31,1.79,5.73,2.61,7.88.33.87.64,1.68.91,2.46,1.12,3.16,1.98,6.31,2.57,9.44,3.47-2.42,7.59-4.77,12.47-6.53,8.29-2.99,14.97-2.82,19.39-2.71.66.02,1.41.03,2.12.03.14-2.64-1.51-8.58-4.6-13.24-1.26-1.9-2.43-3.52-3.94-4.05-.03-.01-.06-.02-.09-.03-.62.01-2.5.39-4.16.72-1.03.21-2.19.44-3.52.69-2.23.42-4.44.8-6.61,1.17-6.62,1.13-12.9,2.2-17.14,4.18Zm-.39-1.65h0Z"/>
    </g>
    <g>
      <ellipse class="cls-2" cx="644.62" cy="394.57" rx="15.72" ry="4.58" transform="translate(-90.24 217.94) rotate(-17.96)"/>
      <path class="cls-15" d="m634.63,410.99c-4,0-11.95-.99-14.39-8.52-1.34-4.14-2.09-14.55,19.91-21.68,22-7.13,27.5,1.74,28.84,5.88h0c1.34,4.15,2.09,14.55-19.91,21.68-4.86,1.58-9.74,2.51-13.74,2.63-.22,0-.46.01-.71.01Z"/>
    </g>
    <g>
      <path class="cls-12" d="m653.34,392.79c2.31,17.84,4.62,35.67,6.94,53.51,87.81-17.84,175.62-35.67,263.43-53.51,1.99-2.6,14.32-19.25,10.04-41.62-4.91-25.69-27.45-36.6-29.73-37.65l-250.69,79.27"/>
      <path class="cls-15" d="m651.82,458.13l-9.37-72.28,262.25-82.93,3.49,1.61c3,1.39,29.5,14.45,35.3,44.79,4.82,25.22-7.9,44.26-11.91,49.5l-2.26,2.95-277.5,56.36Zm12.41-58.39l4.5,34.73,249.09-50.59c3.35-5.39,8.87-16.87,6.2-30.84-3.11-16.26-15.05-25.26-20.98-28.81l-238.81,75.51Z"/>
    </g>
    <g>
      <path class="cls-11" d="m652.28,394.64c-3.24,4.61.77,15.16,10.63,24.95,90.28-22.81,180.56-45.61,270.84-68.42-.93-4.62-3.3-13.19-9.91-21.8-7.1-9.26-15.49-13.85-19.82-15.85-11.86,3.97-29.71,9.89-51.52,16.84-29.94,9.55-32.1,9.83-57.47,17.84-53.69,16.94-117.03,38.72-127.82,39.63-.68.06-4.02.27-7.93,1.98-.38.16-5.25,2.33-7,4.82Z"/>
      <path class="cls-15" d="m659.91,430.58l-3.98-3.95c-5.67-5.63-9.96-11.74-12.4-17.67-4.31-10.46-1.45-17.02.65-20h0c2.95-4.19,8.25-6.94,11.14-8.21,3.5-1.53,7.2-2.46,11-2.77,6.35-.54,42.6-12.33,74.58-22.74,16.91-5.5,34.39-11.19,51.15-16.48,11.39-3.59,18.19-5.66,24.77-7.65,8.32-2.53,16.18-4.91,32.67-10.17,17.21-5.49,34.5-11.14,51.39-16.8l3.74-1.25,3.58,1.66c9.22,4.27,17.35,10.78,23.51,18.81,5.8,7.56,9.87,16.5,11.76,25.87l1.87,9.26-285.43,72.11Zm1.39-30.67c.51,1.81,1.99,4.92,4.96,8.62l254.9-64.4c-1.24-2.8-2.92-5.78-5.18-8.73-4.1-5.35-8.82-8.88-12.78-11.16-15.71,5.24-31.73,10.47-47.69,15.56-16.62,5.3-24.91,7.82-32.94,10.25-6.52,1.98-13.27,4.03-24.56,7.59-16.67,5.26-34.11,10.93-50.98,16.42-44.97,14.63-70.81,22.95-78.99,23.64h-.12c-2.01.17-3.65.74-4.68,1.19-.61.27-1.33.65-1.95,1.01Zm-1.27.87h0Z"/>
    </g>
    <g>
      <path class="cls-2" d="m645.88,395.47c-3.39,2.36-.06,5.57,9,7.39,88.66-25.48,177.32-50.97,265.99-76.45-.71-.9-1.72-2.1-3.04-3.4-1.09-1.06-2.03-1.85-2.9-2.55-3.09-2.47-5.14-4.1-6.94-4.95-3.75-1.79-7.73-.83-10.9,0-13.78,3.6-28.43,9.03-33.69,10.9-3.43,1.22-8.89,3.06-15.85,4.95-3.42,1.12-8.57,2.83-14.86,4.95-6.88,2.33-6.44,2.22-9.78,3.33-7.81,2.59-11.28,3.48-22.53,6.97-3.7,1.15-7.94,2.47-13.18,4.11-53.12,16.63-115.88,36.93-126.42,39.33-.66.15-3.92.87-7.81,2.26-.37.13-5.23,1.88-7.07,3.16Z"/>
      <path class="cls-15" d="m655.3,413.05l-2.36-.47c-3.97-.79-16.03-3.21-18.02-12.8-.98-4.72,1.06-9.49,5.32-12.44h0c2.59-1.8,7-3.5,9.4-4.35,1.96-.7,5.1-1.72,8.87-2.57,6.92-1.58,40.05-12.07,75.12-23.17,16.74-5.3,34.04-10.78,50.6-15.96,5.25-1.64,9.5-2.97,13.21-4.12,4.51-1.4,7.78-2.39,10.58-3.23,4.18-1.26,7.19-2.17,11.76-3.68,1.56-.52,2.27-.76,3.34-1.13,1.19-.41,2.81-.97,6.4-2.18,5.03-1.7,10.06-3.38,14.94-4.98l.49-.15c5.16-1.4,10.25-2.99,15.14-4.73l2.07-.74c6.42-2.3,19.77-7.1,32.43-10.41,3.68-.96,10.54-2.75,17.67.64,2.83,1.35,5.35,3.36,8.85,6.15,1,.8,2.23,1.81,3.66,3.22,1.39,1.36,2.71,2.83,3.91,4.37l9.06,11.57-282.43,81.18Z"/>
    </g>
    <g>
      <path class="cls-2" d="m904.03,313.52l3.96,1.98-3.96-1.98Z"/>
      <rect class="cls-15" x="896.1" y="312.3" width="19.82" height="4.43" transform="translate(219.52 984.22) rotate(-63.43)"/>
    </g>
    <g>
      <path class="cls-2" d="m896.62,315.7c-.04-.41,1.88-1.07,7.41-2.17,2.36.75,4.04,1.47,3.96,1.98-.19,1.29-11.27,1.15-11.37.19Z"/>
      <path class="cls-15" d="m902.67,326.36c-.57,0-1.08-.01-1.52-.02-3.32-.07-13.4-.26-14.39-9.61h0c-.21-1.99-.2-8.67,8.58-11.34,1.58-.48,3.73-.98,6.75-1.58l2.5-.5,2.43.77c1.74.55,3.07,1.06,4.16,1.58,5.68,2.71,7.13,7.6,6.6,11.26-1.26,8.7-10.26,9.44-15.12,9.44Zm-4.59-10.82c.02,3.05,1.5,5.55,3.08,6.98l2.4-7.56-5.48.57Zm6.21-.65l1.07,5.4c.84-1.55,1.33-3.47,1.11-5.63l-2.18.23Zm-2.1-7.32c-1.81,1.27-3.58,3.49-4.01,6.51-.07.5-.1.99-.1,1.46l5.48-.58.46-1.44.27,1.36,2.18-.23c-.35-3.33-2.28-5.74-4.28-7.09Z"/>
    </g>
  </g>
  <path class="cls-12" d="m619.67,390.49c-5.03,7.55,4.91,14.98,5.95,33.69,1.06,19.28-8.5,29.46-2.97,34.68,2.83,2.68,9.52,1.49,22.79-.99,12.97-2.43,19.45-3.64,22.79-5.95,19.29-13.33,13.26-65.82-4.95-72.33-3.36-1.2-9.51.19-21.8,2.97-12.97,2.94-19.45,4.4-21.8,7.93Z"/>
  <path class="cls-11" d="m622.65,387.52c-1.19.66-3.05,1.81-3.96,3.96-.91,2.14-.43,4.25,0,5.95,1.42,5.57,2.92,8.95,3.96,11.89.67,1.89,2.7,7.76,2.97,14.86.26,6.72-1.27,9.01,0,9.91,2.92,2.05,10.07-10.55,24.77-15.85,13.53-4.88,21.07.89,25.76-4.95,5.28-6.57.23-19.43-3.96-25.76-1.66-2.51-4.24-6.29-8.92-7.93-3.47-1.22-5.6-.38-12.88.99-10.47,1.97-20.57,2.97-27.74,6.94Z"/>
  <ellipse class="cls-2" cx="640.68" cy="393.26" rx="15.72" ry="4.58" transform="translate(-90.03 216.66) rotate(-17.96)"/>
  <path class="cls-12" d="m649.4,391.48c2.31,17.84,4.62,35.67,6.94,53.51,87.81-17.84,175.62-35.67,263.43-53.51,1.99-2.6,14.32-19.25,10.04-41.62-4.91-25.69-27.45-36.6-29.73-37.65l-250.69,79.27"/>
  <path class="cls-11" d="m648.34,393.34c-3.24,4.61.77,15.16,10.63,24.95,90.28-22.81,180.56-45.61,270.84-68.42-.93-4.62-3.3-13.19-9.91-21.8-7.1-9.26-15.49-13.85-19.82-15.85-11.86,3.97-29.71,9.89-51.52,16.84-29.94,9.55-32.1,9.83-57.47,17.84-53.69,16.94-117.03,38.72-127.82,39.63-.68.06-4.02.27-7.93,1.98-.38.16-5.25,2.33-7,4.82Z"/>
  <path class="cls-2" d="m641.94,394.16c-3.39,2.36-.06,5.57,9,7.39,88.66-25.48,177.32-50.97,265.99-76.45-.71-.9-1.72-2.1-3.04-3.4-1.09-1.06-2.03-1.85-2.9-2.55-3.09-2.47-5.14-4.1-6.94-4.95-3.75-1.79-7.73-.83-10.9,0-13.78,3.6-28.43,9.03-33.69,10.9-3.43,1.22-8.89,3.06-15.85,4.95-3.42,1.12-8.57,2.83-14.86,4.95-6.88,2.33-6.44,2.22-9.78,3.33-7.81,2.59-11.28,3.48-22.53,6.97-3.7,1.15-7.94,2.47-13.18,4.11-53.12,16.63-115.88,36.93-126.42,39.33-.66.15-3.92.87-7.81,2.26-.37.13-5.23,1.88-7.07,3.16Z"/>
  <g>
    <path class="cls-7" d="m864.03,498.6l3.96,1.98-3.96-1.98Z"/>
    <rect class="cls-7" x="865.51" y="497.38" width=".99" height="4.43" transform="translate(31.87 1050.75) rotate(-63.43)"/>
  </g>
  <g>
    <path class="cls-14" d="m177.63,547.05c-4.67,6.74-10.36,16.51-14.53,29.16-4.75,14.45-5.68,27.14-5.62,35.9.92,3.95,5.18,20.18,21.12,30.53,9.56,6.2,19.04,7.51,23.95,7.83,0,0,27.09-.02,19.92-28.81-1.63-5.52-3.64-11.29-6.11-17.21-10.57-25.37-25.64-44.23-38.72-57.39Z"/>
    <path class="cls-4" d="m178.67,556.64c-3.93,5.68-8.74,13.91-12.24,24.56-4,12.17-4.79,22.86-4.74,30.23.77,3.33,4.37,17,17.8,25.71,8.06,5.22,16.05,6.32,20.18,6.59,0,0,22.83-.02,16.79-24.27-1.38-4.65-3.07-9.5-5.15-14.5-8.91-21.36-21.62-37.26-32.64-48.33h0Z"/>
    <path class="cls-9" d="m180.11,561.76c-3.47,5.01-7.7,12.28-10.79,21.68-3.53,10.74-4.22,20.18-4.18,26.69.68,2.94,3.84,15.01,15.69,22.7,7.09,4.61,14.14,5.58,17.79,5.82,0,0,20.11-.02,14.79-21.42-1.21-4.1-2.71-8.39-4.54-12.8-7.85-18.86-19.04-32.9-28.75-42.67h0Z"/>
    <path class="cls-8" d="m188.94,598.69c-1.76,2.6-3.91,6.35-5.49,11.22-1.79,5.56-2.15,10.43-2.14,13.8.35,1.52,1.94,7.76,7.95,11.72,3.6,2.38,7.17,2.87,9.03,3,0,0,10.22-.02,7.52-11.09-.61-2.12-1.37-4.34-2.3-6.62-3.97-9.75-9.65-16.99-14.58-22.05h0Z"/>
  </g>
  <g>
    <path class="cls-14" d="m221.97,543.27c-5.9,8.28-13.1,20.27-18.36,35.81-6,17.74-7.17,33.33-7.1,44.09,1.16,4.86,6.55,24.79,26.68,37.49,12.08,7.62,24.07,9.22,30.26,9.61,0,0,34.23-.02,25.17-35.39-2.07-6.78-4.6-13.86-7.73-21.14-13.36-31.15-32.41-54.32-48.93-70.49Z"/>
    <path class="cls-4" d="m223.28,555.05c-4.97,6.97-11.04,17.09-15.46,30.17-5.06,14.94-6.05,28.07-5.99,37.13.98,4.09,5.52,20.88,22.49,31.58,10.18,6.41,20.29,7.76,25.51,8.09,0,0,28.85-.02,21.21-29.8-1.74-5.71-3.88-11.67-6.51-17.8-11.26-26.24-27.32-45.76-41.25-59.36h0Z"/>
    <path class="cls-9" d="m225.1,561.33c-4.38,6.16-9.73,15.08-13.64,26.63-4.46,13.19-5.33,24.79-5.28,32.78.86,3.61,4.86,18.44,19.82,27.88,8.97,5.66,17.87,6.85,22.48,7.14,0,0,25.42-.02,18.69-26.31-1.53-5.04-3.42-10.31-5.73-15.72-9.92-23.16-24.07-40.4-36.34-52.4h0Z"/>
    <path class="cls-8" d="m236.26,606.69c-2.23,3.19-4.95,7.8-6.94,13.78-2.27,6.83-2.72,12.81-2.7,16.95.44,1.86,2.45,9.53,10.04,14.4,4.55,2.92,9.07,3.53,11.41,3.69,0,0,12.91-.02,9.5-13.62-.78-2.6-1.73-5.33-2.91-8.13-5.02-11.97-12.2-20.87-18.42-27.08h.01Z"/>
  </g>
  <g>
    <path class="cls-14" d="m444.58,615.65c-3.13,7.28-5.66,14.36-7.73,21.14-9.07,35.36,25.17,35.39,25.17,35.39,6.2-.39,18.18-2,30.26-9.61,20.13-12.7,25.52-32.64,26.68-37.49.08-10.76-1.1-26.35-7.1-44.09-5.26-15.54-12.46-27.54-18.36-35.81-16.53,16.16-35.57,39.33-48.93,70.49Z"/>
    <path class="cls-4" d="m492.2,556.94c-13.92,13.61-29.99,33.13-41.25,59.36-2.63,6.13-4.77,12.1-6.51,17.8-7.64,29.78,21.21,29.8,21.21,29.8,5.22-.33,15.33-1.68,25.51-8.09,16.97-10.7,21.51-27.49,22.49-31.58.06-9.05-.93-22.18-5.99-37.13-4.42-13.08-10.49-23.2-15.46-30.17h0Z"/>
    <path class="cls-9" d="m490.39,563.22c-12.27,12-26.42,29.24-36.34,52.4-2.32,5.42-4.21,10.68-5.73,15.72-6.72,26.29,18.69,26.31,18.69,26.31,4.61-.29,13.51-1.48,22.48-7.14,14.96-9.44,18.96-24.27,19.82-27.88.05-8-.83-19.59-5.28-32.78-3.91-11.55-9.25-20.47-13.64-26.63h0Z"/>
    <path class="cls-8" d="m479.24,608.57c-6.22,6.21-13.4,15.1-18.42,27.08-1.18,2.8-2.13,5.52-2.91,8.13-3.41,13.59,9.5,13.62,9.5,13.62,2.34-.16,6.86-.77,11.41-3.69,7.59-4.87,9.6-12.53,10.04-14.4.01-4.14-.44-10.13-2.7-16.95-1.99-5.98-4.71-10.59-6.94-13.78h.01Z"/>
  </g>
  <g>
    <path class="cls-14" d="m324.5,563.09c-5.55,7.31-12.32,17.9-17.27,31.62-5.64,15.67-6.75,29.43-6.68,38.93,1.1,4.29,6.16,21.89,25.1,33.11,11.37,6.73,22.64,8.15,28.47,8.49,0,0,32.21-.02,23.68-31.25-1.94-5.99-4.32-12.24-7.27-18.66-12.57-27.51-30.49-47.97-46.04-62.24Z"/>
    <path class="cls-4" d="m325.74,573.49c-4.68,6.16-10.39,15.09-14.55,26.64-4.76,13.2-5.69,24.79-5.63,32.78.92,3.61,5.19,18.44,21.16,27.88,9.58,5.66,19.08,6.86,24,7.15,0,0,27.14-.02,19.96-26.32-1.64-5.04-3.65-10.3-6.13-15.72-10.59-23.17-25.7-40.4-38.8-52.42h0Z"/>
    <path class="cls-9" d="m327.45,579.04c-4.12,5.44-9.15,13.31-12.83,23.51-4.19,11.65-5.02,21.89-4.97,28.95.81,3.19,4.57,16.28,18.65,24.62,8.43,5,16.81,6.05,21.15,6.31,0,0,23.91-.02,17.59-23.23-1.44-4.45-3.22-9.1-5.4-13.88-9.33-20.45-22.64-35.67-34.19-46.27h0Z"/>
    <path class="cls-8" d="m337.94,619.08c-2.1,2.82-4.65,6.89-6.53,12.16-2.13,6.03-2.56,11.31-2.54,14.97.41,1.64,2.31,8.41,9.45,12.71,4.28,2.58,8.53,3.12,10.73,3.26,0,0,12.15-.02,8.94-12.02-.73-2.3-1.63-4.71-2.73-7.18-4.72-10.57-11.47-18.43-17.33-23.91h.01Z"/>
  </g>
  <g>
    <path class="cls-14" d="m406.44,643.84c-1.42,3.4-2.57,6.72-3.51,9.89-4.12,16.54,11.44,16.56,11.44,16.56,2.82-.18,8.27-.93,13.76-4.5,9.15-5.94,11.6-15.27,12.13-17.54.03-5.03-.5-12.33-3.23-20.63-2.39-7.27-5.66-12.88-8.35-16.75-7.51,7.56-16.17,18.4-22.25,32.97Z"/>
    <path class="cls-4" d="m428.09,616.38c-6.33,6.36-13.64,15.5-18.75,27.77-1.2,2.87-2.17,5.66-2.96,8.33-3.47,13.93,9.64,13.94,9.64,13.94,2.37-.15,6.97-.79,11.6-3.79,7.71-5,9.78-12.86,10.22-14.77.03-4.24-.42-10.38-2.72-17.37-2.01-6.12-4.77-10.85-7.03-14.11h0Z"/>
    <path class="cls-9" d="m427.26,619.32c-5.58,5.61-12.01,13.68-16.52,24.51-1.05,2.53-1.91,5-2.61,7.36-3.06,12.3,8.5,12.31,8.5,12.31,2.1-.14,6.14-.69,10.22-3.34,6.8-4.42,8.62-11.35,9.01-13.04.02-3.74-.38-9.17-2.4-15.34-1.78-5.4-4.21-9.58-6.2-12.46h0Z"/>
    <path class="cls-8" d="m422.19,640.53c-2.83,2.9-6.09,7.07-8.37,12.67-.54,1.31-.97,2.58-1.32,3.8-1.55,6.36,4.32,6.37,4.32,6.37,1.06-.07,3.12-.36,5.19-1.73,3.45-2.28,4.37-5.86,4.57-6.73,0-1.94-.2-4.74-1.23-7.93-.91-2.8-2.14-4.95-3.15-6.44h0Z"/>
  </g>
  <g>
    <path class="cls-14" d="m542.09,637.7c-1.42,3.4-2.57,6.72-3.51,9.89-4.12,16.54,11.44,16.56,11.44,16.56,2.82-.18,8.27-.93,13.76-4.5,9.15-5.94,11.6-15.27,12.13-17.54.03-5.03-.5-12.33-3.23-20.63-2.39-7.27-5.66-12.88-8.35-16.75-7.51,7.56-16.17,18.4-22.25,32.97Z"/>
    <path class="cls-4" d="m563.74,610.23c-6.33,6.36-13.64,15.5-18.75,27.77-1.2,2.87-2.17,5.66-2.96,8.33-3.47,13.93,9.64,13.94,9.64,13.94,2.37-.15,6.97-.79,11.6-3.79,7.71-5,9.78-12.86,10.22-14.77.03-4.24-.42-10.38-2.72-17.37-2.01-6.12-4.77-10.85-7.03-14.11h0Z"/>
    <path class="cls-9" d="m562.91,613.17c-5.58,5.61-12.01,13.68-16.52,24.51-1.05,2.53-1.91,5-2.61,7.36-3.06,12.3,8.5,12.31,8.5,12.31,2.1-.14,6.14-.69,10.22-3.34,6.8-4.42,8.62-11.35,9.01-13.04.02-3.74-.38-9.17-2.4-15.34-1.78-5.4-4.21-9.58-6.2-12.46h0Z"/>
    <path class="cls-8" d="m557.85,634.38c-2.83,2.9-6.09,7.07-8.37,12.67-.54,1.31-.97,2.58-1.32,3.8-1.55,6.36,4.32,6.37,4.32,6.37,1.06-.07,3.12-.36,5.19-1.73,3.45-2.28,4.37-5.86,4.57-6.73,0-1.94-.2-4.74-1.23-7.93-.91-2.8-2.14-4.95-3.15-6.44h0Z"/>
  </g>
  <g>
    <path class="cls-14" d="m568.09,616.33c-2.48,5.93-4.48,11.69-6.11,17.21-7.17,28.79,19.92,28.81,19.92,28.81,4.9-.32,14.39-1.63,23.95-7.83,15.93-10.34,20.19-26.57,21.12-30.53.06-8.76-.87-21.45-5.62-35.9-4.16-12.65-9.86-22.42-14.53-29.16-13.08,13.16-28.15,32.02-38.72,57.39Z"/>
    <path class="cls-4" d="m605.77,568.54c-11.02,11.08-23.73,26.97-32.64,48.33-2.08,4.99-3.78,9.85-5.15,14.5-6.04,24.25,16.79,24.27,16.79,24.27,4.13-.27,12.13-1.37,20.18-6.59,13.43-8.71,17.02-22.38,17.8-25.71.05-7.37-.73-18.06-4.74-30.23-3.5-10.65-8.3-18.89-12.24-24.56h0Z"/>
    <path class="cls-9" d="m604.33,573.65c-9.71,9.77-20.91,23.81-28.75,42.67-1.83,4.41-3.33,8.7-4.54,12.8-5.32,21.4,14.79,21.42,14.79,21.42,3.65-.24,10.69-1.21,17.79-5.82,11.84-7.69,15-19.76,15.69-22.7.04-6.51-.65-15.95-4.18-26.69-3.09-9.4-7.32-16.67-10.79-21.68h0Z"/>
    <path class="cls-8" d="m595.51,610.57c-4.92,5.05-10.6,12.3-14.58,22.05-.93,2.28-1.68,4.5-2.3,6.62-2.7,11.07,7.52,11.09,7.52,11.09,1.85-.13,5.43-.62,9.03-3,6-3.96,7.6-10.21,7.95-11.72,0-3.37-.35-8.24-2.14-13.8-1.58-4.87-3.73-8.62-5.49-11.22h0Z"/>
  </g>
  <path class="cls-7" d="m445.17,208.67c10.85,5.84,18.18,16.88,18.18,29.56,0,18.76-16.06,33.97-35.86,33.97s-35.86-15.21-35.86-33.97c0-.95.04-1.88.13-2.81-16.97-1.31-30.3-14.76-30.3-31.16,0-5.45,1.47-10.57,4.06-15.03-13.58-8.55-22.7-22.95-23.37-39.39-15.04-3.5-26.2-16.34-26.2-31.67,0-18.01,15.41-32.61,34.42-32.61,12.1,0,22.72,5.92,28.86,14.85,4.82-1.38,9.93-2.13,15.22-2.13,28.93,0,52.37,22.22,52.37,49.62,0,8.8-2.43,17.07-6.67,24.23,7.04,4.29,11.69,11.76,11.69,20.27,0,6.29-2.55,12.01-6.71,16.3l.02-.02Z"/>
  <path class="cls-10" d="m437.07,202.94c9.07,5.14,15.2,14.9,15.2,26.07,0,16.55-13.42,29.97-29.97,29.97s-29.97-13.42-29.97-29.97c0-.83.04-1.67.11-2.48-14.18-1.15-25.32-13.02-25.32-27.49,0-4.82,1.23-9.33,3.39-13.27-11.35-7.54-18.97-20.24-19.53-34.76-12.57-3.08-21.9-14.42-21.9-27.94,0-15.9,12.89-28.78,28.78-28.78,10.11,0,18.99,5.22,24.13,13.11,4.03-1.23,8.3-1.88,12.73-1.88,24.17,0,43.77,19.6,43.77,43.77,0,7.76-2.02,15.05-5.57,21.37,5.88,3.78,9.78,10.37,9.78,17.89,0,5.55-2.12,10.6-5.61,14.38h-.01Z"/>
  <path class="cls-7" d="m365.67,102.44c.27.86-19.62,2.81-24.58,15.29-5.01,12.58,8.37,27.82,7.54,28.29-.88.5-19.55-14.25-13.27-30.31,6.29-16.07,30.02-14.17,30.31-13.27h0Z"/>
  <path class="cls-7" d="m384.36,118.95c-.25,1.16,26.33,1.37,34.4,17.3,8.13,16.07-7.75,37.85-6.6,38.38,1.21.55,24.19-21.22,13.94-41.74-10.26-20.53-41.48-15.17-41.74-13.94h0Z"/>
  <path class="cls-7" d="m383.43,186.95c.52.29-8.27,10.26-5.03,18.57,3.26,8.39,16.68,9.74,16.49,10.34-.2.63-15.96,1.93-20.19-8.73-4.23-10.66,8.18-20.49,8.73-20.19h0Z"/>
  <g>
    <path class="cls-7" d="m293.18,343.37c31.39,5.43,62.78,10.87,94.17,16.3l15.88-94.29-36.06,25.43c-4.76-6.06-34.96-43.23-85.75-45.55-30.68-1.41-53.73,10.59-63.49,16.48,5.41-1.41,12.99-2.79,22.09-2.6,9.29.19,16.95,1.95,22.36,3.63,5.6,1.79,12.22,4.4,19.28,8.24,8.7,4.73,15.52,9.96,20.6,14.46,5.14,4.97,10.49,10.54,15.9,16.76,4.48,5.15,8.52,10.19,12.16,15.04-12.38,8.7-24.76,17.41-37.13,26.11Z"/>
    <path class="cls-1" d="m307.3,339.56c25.23,4.26,50.46,8.53,75.69,12.79l13.05-75.68-29.08,20.5c-6.09-8.59-23.09-30.11-54.01-41.23-39.37-14.17-73.65-1.54-82.26,1.92,6.05-1.01,13.62-1.56,22.18-.53,2.33.28,11.8,1.52,23.17,6.53,6.19,2.73,10.38,5.44,15.07,8.47,10.62,6.87,17.66,13.4,19.19,14.84,5.11,4.78,9.14,9.62,17.21,19.29,4.12,4.94,7.45,9.11,9.73,12.03-9.98,7.02-19.96,14.04-29.94,21.05Z"/>
  </g>
</svg>