<?xml version="1.0" encoding="UTF-8"?>
<svg id="Layer_1" data-name="Layer 1" xmlns="http://www.w3.org/2000/svg" viewBox="0 0 977.21 664.84">
  <defs>
    <style>
      .cls-1, .cls-2 {
        fill: #ffec5d;
      }

      .cls-3, .cls-4 {
        fill: #ffd62c;
      }

      .cls-5, .cls-6 {
        fill: #ffd52f;
      }

      .cls-7, .cls-8 {
        fill: #fec10f;
      }

      .cls-6 {
        stroke-width: 16.75px;
      }

      .cls-6, .cls-8, .cls-2, .cls-4 {
        stroke: #fff;
        stroke-miterlimit: 10;
      }

      .cls-8, .cls-2, .cls-4 {
        stroke-width: 24px;
      }
    </style>
  </defs>
  <path class="cls-6" d="m227.47,112.27c7.25,7.12,5.4,14.44,10.12,38.93,4.66,24.17,7.94,24.71,5.92,30.56-6.16,17.83-40.89,25.05-67.39,20.23-9.15-1.66-35.59-6.47-49.27-30.27-11.46-19.94-12.01-49.82,4.7-65.76,12.71-12.13,31.04-12.03,36.42-12,6.57.04,16.81,3.21,37.29,9.56,18.85,5.85,20.71,7.28,22.21,8.75Z"/>
  <path class="cls-2" d="m160.56,132.24c-1.45-.58-.62-16.53,10.16-23.62,8.02-5.27,18.64-3.71,19-2.03.34,1.59-8.77,2.42-17.78,10.43-8.5,7.56-10.31,15.65-11.37,15.22Z"/>
  <path class="cls-4" d="m223.45,111.89c4.81,4.75,3.52,9.71,6.5,26.21,2.95,16.28,5.14,16.62,3.75,20.59-4.26,12.08-27.61,17.2-45.35,14.15-6.12-1.06-23.82-4.11-32.82-20.08-7.54-13.38-7.69-33.54,3.63-44.43,8.61-8.28,20.9-8.35,24.51-8.37,4.4-.02,11.25,2.05,24.94,6.18,12.6,3.81,13.84,4.76,14.83,5.75Z"/>
  <path class="cls-8" d="m221.97,110.81c6.23,6.15,4.55,12.56,8.42,33.92,3.82,21.08,6.66,21.52,4.85,26.65-5.52,15.64-35.74,22.27-58.7,18.31-7.93-1.37-30.84-5.32-42.49-25.99-9.76-17.32-9.95-43.42,4.7-57.51,11.15-10.72,27.06-10.81,31.73-10.83,5.7-.03,14.56,2.65,32.29,8,16.31,4.93,17.91,6.17,19.2,7.44Z"/>
  <path class="cls-5" d="m223.63,111.26c6.93,6.8,5.16,13.79,9.67,37.18,4.45,23.09,7.58,23.6,5.65,29.19-5.88,17.03-39.05,23.92-64.36,19.32-8.74-1.59-33.99-6.18-47.05-28.91-10.94-19.04-11.47-47.58,4.48-62.81,12.14-11.59,29.64-11.49,34.78-11.46,6.27.03,16.05,3.07,35.62,9.13,18,5.58,19.78,6.95,21.22,8.36Z"/>
  <path class="cls-7" d="m222.27,110.35c6.23,6.15,4.55,12.56,8.42,33.92,3.82,21.08,6.66,21.52,4.85,26.65-5.52,15.64-35.74,22.27-58.7,18.31-7.93-1.37-30.84-5.32-42.49-25.99-9.76-17.32-9.95-43.42,4.7-57.51,11.15-10.72,27.06-10.81,31.73-10.83,5.7-.03,14.56,2.65,32.29,8,16.31,4.93,17.91,6.17,19.2,7.44Z"/>
  <path class="cls-3" d="m223.75,111.43c4.81,4.75,3.52,9.71,6.5,26.21,2.95,16.28,5.14,16.62,3.75,20.59-4.26,12.08-27.61,17.2-45.35,14.15-6.12-1.06-23.82-4.11-32.82-20.08-7.54-13.38-7.69-33.54,3.63-44.43,8.61-8.28,20.9-8.35,24.51-8.37,4.4-.02,11.25,2.05,24.94,6.18,12.6,3.81,13.84,4.76,14.83,5.75Z"/>
  <path class="cls-1" d="m160.87,131.78c-1.45-.58-.62-16.53,10.16-23.62,8.02-5.27,18.64-3.71,19-2.03.34,1.59-8.77,2.42-17.78,10.43-8.5,7.56-10.31,15.65-11.37,15.22Z"/>
  <path class="cls-6" d="m127.7,162.11c10.07,1.36,12.97,8.33,31.41,25.13,18.2,16.58,21.15,15.05,23.04,20.94,5.74,17.97-17.77,44.54-41.88,56.54-8.32,4.14-32.38,16.12-57.59,5.24-21.11-9.12-39.44-32.72-35.6-55.49,2.92-17.32,17.66-28.22,21.99-31.41,5.28-3.9,15.39-7.49,35.6-14.66,18.6-6.6,20.95-6.56,23.04-6.28Z"/>
  <path class="cls-4" d="m124.25,164.22c6.7.92,8.63,5.67,20.9,17.1,12.11,11.28,14.07,10.24,15.32,14.25,3.82,12.23-11.82,30.31-27.86,38.47-5.54,2.82-21.54,10.97-38.31,3.56-14.05-6.2-26.23-22.27-23.68-37.76,1.94-11.79,11.75-19.2,14.63-21.37,3.51-2.65,10.24-5.09,23.68-9.97,12.37-4.49,13.94-4.47,15.32-4.27Z"/>
  <path class="cls-8" d="m122.41,164.24c8.67,1.2,11.17,7.34,27.05,22.14,15.67,14.6,18.22,13.25,19.84,18.45,4.94,15.83-15.3,39.23-36.07,49.81-7.17,3.65-27.89,14.2-49.59,4.61-18.18-8.03-33.96-28.83-30.66-48.88,2.51-15.26,15.21-24.85,18.93-27.67,4.55-3.44,13.25-6.6,30.66-12.91,16.02-5.81,18.04-5.78,19.84-5.53Z"/>
  <path class="cls-5" d="m124.02,163.61c9.62,1.3,12.39,7.96,30,24,17.38,15.83,20.2,14.37,22,20,5.48,17.16-16.97,42.54-40,54-7.95,3.96-30.93,15.39-55,5-20.16-8.71-37.66-31.25-34-53,2.79-16.54,16.87-26.95,21-30,5.04-3.73,14.7-7.15,34-14,17.76-6.3,20.01-6.27,22-6Z"/>
  <path class="cls-7" d="m122.38,163.69c8.67,1.2,11.17,7.34,27.05,22.14,15.67,14.6,18.22,13.25,19.84,18.45,4.94,15.83-15.3,39.23-36.07,49.81-7.17,3.65-27.89,14.2-49.59,4.61-18.18-8.03-33.96-28.83-30.66-48.88,2.51-15.26,15.21-24.85,18.93-27.67,4.55-3.44,13.25-6.6,30.66-12.91,16.02-5.81,18.04-5.78,19.84-5.53Z"/>
  <path class="cls-3" d="m124.22,163.67c6.7.92,8.63,5.67,20.9,17.1,12.11,11.28,14.07,10.24,15.32,14.25,3.82,12.23-11.82,30.31-27.86,38.47-5.54,2.82-21.54,10.97-38.31,3.56-14.05-6.2-26.23-22.27-23.68-37.76,1.94-11.79,11.75-19.2,14.63-21.37,3.51-2.65,10.24-5.09,23.68-9.97,12.37-4.49,13.94-4.47,15.32-4.27Z"/>
  <g>
    <path class="cls-6" d="m346.19,128.45c-6.74,7.61-4.37,14.78-7.36,39.55-2.95,24.44-6.18,25.21-3.76,30.9,7.4,17.36,42.55,22.11,68.65,15.44,9.01-2.3,35.05-8.96,47.02-33.66,10.03-20.7,8.47-50.54-9.31-65.27-13.53-11.21-31.81-9.82-37.17-9.41-6.55.5-16.54,4.39-36.53,12.16-18.39,7.16-20.15,8.72-21.54,10.3Z"/>
    <path class="cls-2" d="m414.34,143.67c1.41-.68-.55-16.54-11.79-22.85-8.37-4.7-18.86-2.39-19.09-.69-.23,1.61,8.92,1.79,18.47,9.16,9.01,6.95,11.38,14.89,12.41,14.38Z"/>
    <path class="cls-4" d="m350.18,127.79c-4.47,5.08-2.83,9.93-4.65,26.6-1.8,16.45-3.96,16.95-2.29,20.8,5.1,11.75,28.75,15.22,46.23,10.92,6.03-1.48,23.48-5.77,31.33-22.33,6.58-13.87,5.31-34-6.75-44.06-9.17-7.66-21.44-6.86-25.04-6.62-4.39.29-11.08,2.83-24.45,7.92-12.3,4.68-13.47,5.73-14.39,6.78Z"/>
    <path class="cls-8" d="m351.58,126.61c-5.78,6.57-3.66,12.85-6.01,34.43-2.32,21.29-5.13,21.94-2.96,26.92,6.6,15.21,37.22,19.7,59.84,14.14,7.81-1.92,30.39-7.47,40.55-28.91,8.52-17.96,6.87-44.01-8.73-57.04-11.87-9.91-27.75-8.88-32.41-8.57-5.69.37-14.34,3.66-31.64,10.26-15.92,6.06-17.44,7.41-18.63,8.77Z"/>
    <path class="cls-5" d="m349.95,127.18c-6.43,7.27-4.18,14.12-7.03,37.77-2.81,23.34-5.9,24.08-3.59,29.51,7.07,16.58,40.64,21.11,65.56,14.74,8.6-2.2,33.47-8.55,44.9-32.15,9.58-19.77,8.09-48.27-8.89-62.34-12.92-10.7-30.38-9.38-35.5-8.99-6.25.47-15.8,4.19-34.89,11.62-17.57,6.83-19.24,8.33-20.57,9.83Z"/>
    <path class="cls-7" d="m351.24,126.17c-5.78,6.57-3.66,12.85-6.01,34.43-2.32,21.29-5.13,21.94-2.96,26.92,6.6,15.21,37.22,19.7,59.84,14.14,7.81-1.92,30.39-7.47,40.55-28.91,8.52-17.96,6.87-44.01-8.73-57.04-11.87-9.91-27.75-8.88-32.41-8.57-5.69.37-14.34,3.66-31.64,10.26-15.92,6.06-17.44,7.41-18.63,8.77Z"/>
    <path class="cls-3" d="m349.84,127.35c-4.47,5.08-2.83,9.93-4.65,26.6-1.8,16.45-3.96,16.95-2.29,20.8,5.1,11.75,28.75,15.22,46.23,10.92,6.03-1.48,23.48-5.77,31.33-22.33,6.58-13.87,5.31-34-6.75-44.06-9.17-7.66-21.44-6.86-25.04-6.62-4.39.29-11.08,2.83-24.45,7.92-12.3,4.68-13.47,5.73-14.39,6.78Z"/>
    <path class="cls-1" d="m414,143.23c1.41-.68-.55-16.54-11.79-22.85-8.37-4.7-18.86-2.39-19.09-.69-.23,1.61,8.92,1.79,18.47,9.16,9.01,6.95,11.38,14.89,12.41,14.38Z"/>
  </g>
  <g>
    <path class="cls-6" d="m203.07,230.05c-6.74,7.61-4.37,14.78-7.36,39.55-2.95,24.44-6.18,25.21-3.76,30.9,7.4,17.36,42.55,22.11,68.65,15.44,9.01-2.3,35.05-8.96,47.02-33.66,10.03-20.7,8.47-50.54-9.31-65.27-13.53-11.21-31.81-9.82-37.17-9.41-6.55.5-16.54,4.39-36.53,12.16-18.39,7.16-20.15,8.72-21.54,10.3Z"/>
    <path class="cls-2" d="m271.22,245.27c1.41-.68-.55-16.54-11.79-22.85-8.37-4.7-18.86-2.39-19.09-.69-.23,1.61,8.92,1.79,18.47,9.16,9.01,6.95,11.38,14.89,12.41,14.38Z"/>
    <path class="cls-4" d="m207.06,229.39c-4.47,5.08-2.83,9.93-4.65,26.6-1.8,16.45-3.96,16.95-2.29,20.8,5.1,11.75,28.75,15.22,46.23,10.92,6.03-1.48,23.48-5.77,31.33-22.33,6.58-13.87,5.31-34-6.75-44.06-9.17-7.66-21.44-6.86-25.04-6.62-4.39.29-11.08,2.83-24.45,7.92-12.3,4.68-13.47,5.73-14.39,6.78Z"/>
    <path class="cls-8" d="m208.46,228.21c-5.78,6.57-3.66,12.85-6.01,34.43-2.32,21.29-5.13,21.94-2.96,26.92,6.6,15.21,37.22,19.7,59.84,14.14,7.81-1.92,30.39-7.47,40.55-28.91,8.52-17.96,6.87-44.01-8.73-57.04-11.87-9.91-27.75-8.88-32.41-8.57-5.69.37-14.34,3.66-31.64,10.26-15.92,6.06-17.44,7.41-18.63,8.77Z"/>
    <path class="cls-5" d="m206.83,228.78c-6.43,7.27-4.18,14.12-7.03,37.77-2.81,23.34-5.9,24.08-3.59,29.51,7.07,16.58,40.64,21.11,65.56,14.74,8.6-2.2,33.47-8.55,44.9-32.15,9.58-19.77,8.09-48.27-8.89-62.34-12.92-10.7-30.38-9.38-35.5-8.99-6.25.47-15.8,4.19-34.89,11.62-17.57,6.83-19.24,8.33-20.57,9.83Z"/>
    <path class="cls-7" d="m208.12,227.77c-5.78,6.57-3.66,12.85-6.01,34.43-2.32,21.29-5.13,21.94-2.96,26.92,6.6,15.21,37.22,19.7,59.84,14.14,7.81-1.92,30.39-7.47,40.55-28.91,8.52-17.96,6.87-44.01-8.73-57.04-11.87-9.91-27.75-8.88-32.41-8.57-5.69.37-14.34,3.66-31.64,10.26-15.92,6.06-17.44,7.41-18.63,8.77Z"/>
    <path class="cls-3" d="m206.72,228.95c-4.47,5.08-2.83,9.93-4.65,26.6-1.8,16.45-3.96,16.95-2.29,20.8,5.1,11.75,28.75,15.22,46.23,10.92,6.03-1.48,23.48-5.77,31.33-22.33,6.58-13.87,5.31-34-6.75-44.06-9.17-7.66-21.44-6.86-25.04-6.62-4.39.29-11.08,2.83-24.45,7.92-12.3,4.68-13.47,5.73-14.39,6.78Z"/>
    <path class="cls-1" d="m270.88,244.83c1.41-.68-.55-16.54-11.79-22.85-8.37-4.7-18.86-2.39-19.09-.69-.23,1.61,8.92,1.79,18.47,9.16,9.01,6.95,11.38,14.89,12.41,14.38Z"/>
  </g>
  <g>
    <path class="cls-6" d="m256.07,33.05c-6.74,7.61-4.37,14.78-7.36,39.55-2.95,24.44-6.18,25.21-3.76,30.9,7.4,17.36,42.55,22.11,68.65,15.44,9.01-2.3,35.05-8.96,47.02-33.66,10.03-20.7,8.47-50.54-9.31-65.27-13.53-11.21-31.81-9.82-37.17-9.41-6.55.5-16.54,4.39-36.53,12.16-18.39,7.16-20.15,8.72-21.54,10.3Z"/>
    <path class="cls-2" d="m324.22,48.27c1.41-.68-.55-16.54-11.79-22.85-8.37-4.7-18.86-2.39-19.09-.69-.23,1.61,8.92,1.79,18.47,9.16,9.01,6.95,11.38,14.89,12.41,14.38Z"/>
    <path class="cls-4" d="m260.06,32.39c-4.47,5.08-2.83,9.93-4.65,26.6-1.8,16.45-3.96,16.95-2.29,20.8,5.1,11.75,28.75,15.22,46.23,10.92,6.03-1.48,23.48-5.77,31.33-22.33,6.58-13.87,5.31-34-6.75-44.06-9.17-7.66-21.44-6.86-25.04-6.62-4.39.29-11.08,2.83-24.45,7.92-12.3,4.68-13.47,5.73-14.39,6.78Z"/>
    <path class="cls-8" d="m261.46,31.21c-5.78,6.57-3.66,12.85-6.01,34.43-2.32,21.29-5.13,21.94-2.96,26.92,6.6,15.21,37.22,19.7,59.84,14.14,7.81-1.92,30.39-7.47,40.55-28.91,8.52-17.96,6.87-44.01-8.73-57.04-11.87-9.91-27.75-8.88-32.41-8.57-5.69.37-14.34,3.66-31.64,10.26-15.92,6.06-17.44,7.41-18.63,8.77Z"/>
    <path class="cls-5" d="m259.83,31.78c-6.43,7.27-4.18,14.12-7.03,37.77-2.81,23.34-5.9,24.08-3.59,29.51,7.07,16.58,40.64,21.11,65.56,14.74,8.6-2.2,33.47-8.55,44.9-32.15,9.58-19.77,8.09-48.27-8.89-62.34-12.92-10.7-30.38-9.38-35.5-8.99-6.25.47-15.8,4.19-34.89,11.62-17.57,6.83-19.24,8.33-20.57,9.83Z"/>
    <path class="cls-7" d="m261.12,30.77c-5.78,6.57-3.66,12.85-6.01,34.43-2.32,21.29-5.13,21.94-2.96,26.92,6.6,15.21,37.22,19.7,59.84,14.14,7.81-1.92,30.39-7.47,40.55-28.91,8.52-17.96,6.87-44.01-8.73-57.04-11.87-9.91-27.75-8.88-32.41-8.57-5.69.37-14.34,3.66-31.64,10.26-15.92,6.06-17.44,7.41-18.63,8.77Z"/>
    <path class="cls-3" d="m259.72,31.95c-4.47,5.08-2.83,9.93-4.65,26.6-1.8,16.45-3.96,16.95-2.29,20.8,5.1,11.75,28.75,15.22,46.23,10.92,6.03-1.48,23.48-5.77,31.33-22.33,6.58-13.87,5.31-34-6.75-44.06-9.17-7.66-21.44-6.86-25.04-6.62-4.39.29-11.08,2.83-24.45,7.92-12.3,4.68-13.47,5.73-14.39,6.78Z"/>
    <path class="cls-1" d="m323.88,47.83c1.41-.68-.55-16.54-11.79-22.85-8.37-4.7-18.86-2.39-19.09-.69-.23,1.61,8.92,1.79,18.47,9.16,9.01,6.95,11.38,14.89,12.41,14.38Z"/>
  </g>
  <g>
    <path class="cls-6" d="m80.9,292.95c-6.74,7.61-4.37,14.78-7.36,39.55-2.95,24.44-6.18,25.21-3.76,30.9,7.4,17.36,42.55,22.11,68.65,15.44,9.01-2.3,35.05-8.96,47.02-33.66,10.03-20.7,8.47-50.54-9.31-65.27-13.53-11.21-31.81-9.82-37.17-9.41-6.55.5-16.54,4.39-36.53,12.16-18.39,7.16-20.15,8.72-21.54,10.3Z"/>
    <path class="cls-2" d="m149.05,308.17c1.41-.68-.55-16.54-11.79-22.85-8.37-4.7-18.86-2.39-19.09-.69-.23,1.61,8.92,1.79,18.47,9.16,9.01,6.95,11.38,14.89,12.41,14.38Z"/>
    <path class="cls-4" d="m84.89,292.29c-4.47,5.08-2.83,9.93-4.65,26.6-1.8,16.45-3.96,16.95-2.29,20.8,5.1,11.75,28.75,15.22,46.23,10.92,6.03-1.48,23.48-5.77,31.33-22.33,6.58-13.87,5.31-34-6.75-44.06-9.17-7.66-21.44-6.86-25.04-6.62-4.39.29-11.08,2.83-24.45,7.92-12.3,4.68-13.47,5.73-14.39,6.78Z"/>
    <path class="cls-8" d="m86.29,291.11c-5.78,6.57-3.66,12.85-6.01,34.43-2.32,21.29-5.13,21.94-2.96,26.92,6.6,15.21,37.22,19.7,59.84,14.14,7.81-1.92,30.39-7.47,40.55-28.91,8.52-17.96,6.87-44.01-8.73-57.04-11.87-9.91-27.75-8.88-32.41-8.57-5.69.37-14.34,3.66-31.64,10.26-15.92,6.06-17.44,7.41-18.63,8.77Z"/>
    <path class="cls-5" d="m84.66,291.68c-6.43,7.27-4.18,14.12-7.03,37.77-2.81,23.34-5.9,24.08-3.59,29.51,7.07,16.58,40.64,21.11,65.56,14.74,8.6-2.2,33.47-8.55,44.9-32.15,9.58-19.77,8.09-48.27-8.89-62.34-12.92-10.7-30.38-9.38-35.5-8.99-6.25.47-15.8,4.19-34.89,11.62-17.57,6.83-19.24,8.33-20.57,9.83Z"/>
    <path class="cls-7" d="m85.95,290.67c-5.78,6.57-3.66,12.85-6.01,34.43-2.32,21.29-5.13,21.94-2.96,26.92,6.6,15.21,37.22,19.7,59.84,14.14,7.81-1.92,30.39-7.47,40.55-28.91,8.52-17.96,6.87-44.01-8.73-57.04-11.87-9.91-27.75-8.88-32.41-8.57-5.69.37-14.34,3.66-31.64,10.26-15.92,6.06-17.44,7.41-18.63,8.77Z"/>
    <path class="cls-3" d="m84.55,291.85c-4.47,5.08-2.83,9.93-4.65,26.6-1.8,16.45-3.96,16.95-2.29,20.8,5.1,11.75,28.75,15.22,46.23,10.92,6.03-1.48,23.48-5.77,31.33-22.33,6.58-13.87,5.31-34-6.75-44.06-9.17-7.66-21.44-6.86-25.04-6.62-4.39.29-11.08,2.83-24.45,7.92-12.3,4.68-13.47,5.73-14.39,6.78Z"/>
    <path class="cls-1" d="m148.71,307.73c1.41-.68-.55-16.54-11.79-22.85-8.37-4.7-18.86-2.39-19.09-.69-.23,1.61,8.92,1.79,18.47,9.16,9.01,6.95,11.38,14.89,12.41,14.38Z"/>
  </g>
  <g>
    <path class="cls-6" d="m346.33,349.21c8.22,5.97,7.46,13.49,15.73,37.02,8.16,23.23,11.48,23.28,10.34,29.36-3.47,18.54-36.77,30.78-63.69,29.9-9.29-.3-36.16-1.17-53.18-22.71-14.26-18.04-19.19-47.52-5.01-65.74,10.79-13.87,28.93-16.46,34.26-17.22,6.5-.93,17.1.71,38.29,3.99,19.5,3.01,21.56,4.16,23.26,5.4Z"/>
    <path class="cls-2" d="m283.08,378.79c-1.52-.36-3.04-16.26,6.58-24.85,7.16-6.4,17.89-6.41,18.49-4.8.57,1.53-8.32,3.68-16.06,12.93-7.3,8.73-7.9,16.99-9.01,16.73Z"/>
    <path class="cls-4" d="m342.3,349.43c5.46,3.99,4.91,9.08,10.28,24.97,5.31,15.67,7.53,15.69,6.73,19.81-2.44,12.58-24.78,21.07-42.78,20.65-6.21-.15-24.17-.56-35.41-15.04-9.42-12.12-12.53-32.05-2.93-44.48,7.3-9.46,19.45-11.33,23.02-11.88,4.35-.67,11.43.37,25.58,2.45,13.02,1.92,14.39,2.68,15.52,3.51Z"/>
    <path class="cls-8" d="m340.67,348.57c7.07,5.17,6.35,11.76,13.31,32.32,6.87,20.29,9.75,20.31,8.71,25.65-3.16,16.28-32.08,27.28-55.38,26.73-8.04-.19-31.28-.73-45.84-19.47-12.19-15.7-16.22-41.49-3.8-57.58,9.45-12.24,25.18-14.66,29.79-15.37,5.63-.87,14.79.48,33.11,3.18,16.86,2.48,18.62,3.47,20.09,4.54Z"/>
    <path class="cls-5" d="m342.39,348.78c7.85,5.7,7.13,12.88,15.02,35.36,7.79,22.18,10.97,22.23,9.88,28.04-3.32,17.71-35.12,29.39-60.83,28.56-8.87-.29-34.53-1.12-50.79-21.69-13.62-17.23-18.33-45.38-4.79-62.79,10.3-13.24,27.63-15.72,32.72-16.45,6.21-.89,16.33.68,36.57,3.81,18.63,2.88,20.59,3.97,22.21,5.16Z"/>
    <path class="cls-7" d="m340.91,348.07c7.07,5.17,6.35,11.76,13.31,32.32,6.87,20.29,9.75,20.31,8.71,25.65-3.16,16.28-32.08,27.28-55.38,26.73-8.04-.19-31.28-.73-45.84-19.47-12.19-15.7-16.22-41.49-3.8-57.58,9.45-12.24,25.18-14.66,29.79-15.37,5.63-.87,14.79.48,33.11,3.18,16.86,2.48,18.62,3.47,20.09,4.54Z"/>
    <path class="cls-3" d="m342.53,348.92c5.46,3.99,4.91,9.08,10.28,24.97,5.31,15.67,7.53,15.69,6.73,19.81-2.44,12.58-24.78,21.07-42.78,20.65-6.21-.15-24.17-.56-35.41-15.04-9.42-12.12-12.53-32.05-2.93-44.48,7.3-9.46,19.45-11.33,23.02-11.88,4.35-.67,11.43.37,25.58,2.45,13.02,1.92,14.39,2.68,15.52,3.51Z"/>
    <path class="cls-1" d="m283.32,378.28c-1.52-.36-3.04-16.26,6.58-24.85,7.16-6.4,17.89-6.41,18.49-4.8.57,1.53-8.32,3.68-16.06,12.93-7.3,8.73-7.9,16.99-9.01,16.73Z"/>
  </g>
  <g>
    <path class="cls-6" d="m413.72,236.59c8.22,5.97,7.46,13.49,15.73,37.02,8.16,23.23,11.48,23.28,10.34,29.36-3.47,18.54-36.77,30.78-63.69,29.9-9.29-.3-36.16-1.17-53.18-22.71-14.26-18.04-19.19-47.52-5.01-65.74,10.79-13.87,28.93-16.46,34.26-17.22,6.5-.93,17.1.71,38.29,3.99,19.5,3.01,21.56,4.16,23.26,5.4Z"/>
    <path class="cls-2" d="m350.46,266.17c-1.52-.36-3.04-16.26,6.58-24.85,7.16-6.4,17.89-6.41,18.49-4.8.57,1.53-8.32,3.68-16.06,12.93-7.3,8.73-7.9,16.99-9.01,16.73Z"/>
    <path class="cls-4" d="m409.68,236.81c5.46,3.99,4.91,9.08,10.28,24.97,5.31,15.67,7.53,15.69,6.73,19.81-2.44,12.58-24.78,21.07-42.78,20.65-6.21-.15-24.17-.56-35.41-15.04-9.42-12.12-12.53-32.05-2.93-44.48,7.3-9.46,19.45-11.33,23.02-11.88,4.35-.67,11.43.37,25.58,2.45,13.02,1.92,14.39,2.68,15.52,3.51Z"/>
    <path class="cls-8" d="m408.05,235.96c7.07,5.17,6.35,11.76,13.31,32.32,6.87,20.29,9.75,20.31,8.71,25.65-3.16,16.28-32.08,27.28-55.38,26.73-8.04-.19-31.28-.73-45.84-19.47-12.19-15.7-16.22-41.49-3.8-57.58,9.45-12.24,25.18-14.66,29.79-15.37,5.63-.87,14.79.48,33.11,3.18,16.86,2.48,18.62,3.47,20.09,4.54Z"/>
    <path class="cls-5" d="m409.77,236.16c7.85,5.7,7.13,12.88,15.02,35.36,7.79,22.18,10.97,22.23,9.88,28.04-3.32,17.71-35.12,29.39-60.83,28.56-8.87-.29-34.53-1.12-50.79-21.69-13.62-17.23-18.33-45.38-4.79-62.79,10.3-13.24,27.63-15.72,32.72-16.45,6.21-.89,16.33.68,36.57,3.81,18.63,2.88,20.59,3.97,22.21,5.16Z"/>
    <path class="cls-7" d="m408.29,235.46c7.07,5.17,6.35,11.76,13.31,32.32,6.87,20.29,9.75,20.31,8.71,25.65-3.16,16.28-32.08,27.28-55.38,26.73-8.04-.19-31.28-.73-45.84-19.47-12.19-15.7-16.22-41.49-3.8-57.58,9.45-12.24,25.18-14.66,29.79-15.37,5.63-.87,14.79.48,33.11,3.18,16.86,2.48,18.62,3.47,20.09,4.54Z"/>
    <path class="cls-3" d="m409.91,236.31c5.46,3.99,4.91,9.08,10.28,24.97,5.31,15.67,7.53,15.69,6.73,19.81-2.44,12.58-24.78,21.07-42.78,20.65-6.21-.15-24.17-.56-35.41-15.04-9.42-12.12-12.53-32.05-2.93-44.48,7.3-9.46,19.45-11.33,23.02-11.88,4.35-.67,11.43.37,25.58,2.45,13.02,1.92,14.39,2.68,15.52,3.51Z"/>
    <path class="cls-1" d="m350.7,265.67c-1.52-.36-3.04-16.26,6.58-24.85,7.16-6.4,17.89-6.41,18.49-4.8.57,1.53-8.32,3.68-16.06,12.93-7.3,8.73-7.9,16.99-9.01,16.73Z"/>
  </g>
  <path class="cls-6" d="m536.57,254.91c7.25,7.12,5.4,14.44,10.12,38.93,4.66,24.17,7.94,24.71,5.92,30.56-6.16,17.83-40.89,25.05-67.39,20.23-9.15-1.66-35.59-6.47-49.27-30.27-11.46-19.94-12.01-49.82,4.7-65.76,12.71-12.13,31.04-12.03,36.42-12,6.57.04,16.81,3.21,37.29,9.56,18.85,5.85,20.71,7.28,22.21,8.75Z"/>
  <path class="cls-2" d="m469.67,274.88c-1.45-.58-.62-16.53,10.16-23.62,8.02-5.27,18.64-3.71,19-2.03.34,1.59-8.77,2.42-17.78,10.43-8.5,7.56-10.31,15.65-11.37,15.22Z"/>
  <path class="cls-4" d="m532.55,254.53c4.81,4.75,3.52,9.71,6.5,26.21,2.95,16.28,5.14,16.62,3.75,20.59-4.26,12.08-27.61,17.2-45.35,14.15-6.12-1.06-23.82-4.11-32.82-20.08-7.54-13.38-7.69-33.54,3.63-44.43,8.61-8.28,20.9-8.35,24.51-8.37,4.4-.02,11.25,2.05,24.94,6.18,12.6,3.81,13.84,4.76,14.83,5.75Z"/>
  <path class="cls-8" d="m531.07,253.45c6.23,6.15,4.55,12.56,8.42,33.92,3.82,21.08,6.66,21.52,4.85,26.65-5.52,15.64-35.74,22.27-58.7,18.31-7.93-1.37-30.84-5.32-42.49-25.99-9.76-17.32-9.95-43.42,4.7-57.51,11.15-10.72,27.06-10.81,31.73-10.83,5.7-.03,14.56,2.65,32.29,8,16.31,4.93,17.91,6.17,19.2,7.44Z"/>
  <path class="cls-5" d="m532.73,253.9c6.93,6.8,5.16,13.79,9.67,37.18,4.45,23.09,7.58,23.6,5.65,29.19-5.88,17.03-39.05,23.92-64.36,19.32-8.74-1.59-33.99-6.18-47.05-28.91-10.94-19.04-11.47-47.58,4.48-62.81,12.14-11.59,29.64-11.49,34.78-11.46,6.27.03,16.05,3.07,35.62,9.13,18,5.58,19.78,6.95,21.22,8.36Z"/>
  <path class="cls-7" d="m531.37,252.99c6.23,6.15,4.55,12.56,8.42,33.92,3.82,21.08,6.66,21.52,4.85,26.65-5.52,15.64-35.74,22.27-58.7,18.31-7.93-1.37-30.84-5.32-42.49-25.99-9.76-17.32-9.95-43.42,4.7-57.51,11.15-10.72,27.06-10.81,31.73-10.83,5.7-.03,14.56,2.65,32.29,8,16.31,4.93,17.91,6.17,19.2,7.44Z"/>
  <path class="cls-3" d="m532.85,254.07c4.81,4.75,3.52,9.71,6.5,26.21,2.95,16.28,5.14,16.62,3.75,20.59-4.26,12.08-27.61,17.2-45.35,14.15-6.12-1.06-23.82-4.11-32.82-20.08-7.54-13.38-7.69-33.54,3.63-44.43,8.61-8.28,20.9-8.35,24.51-8.37,4.4-.02,11.25,2.05,24.94,6.18,12.6,3.81,13.84,4.76,14.83,5.75Z"/>
  <path class="cls-1" d="m469.97,274.42c-1.45-.58-.62-16.53,10.16-23.62,8.02-5.27,18.64-3.71,19-2.03.34,1.59-8.77,2.42-17.78,10.43-8.5,7.56-10.31,15.65-11.37,15.22Z"/>
  <path class="cls-6" d="m380.11,344.06c1.01,10.11-5.1,14.55-17.17,36.38-11.91,21.55-9.74,24.06-15.03,27.26-16.15,9.75-47.44-6.96-64.71-27.64-5.96-7.14-23.18-27.77-18.44-54.81,3.98-22.65,22.7-45.95,45.73-47.49,17.53-1.18,31.54,10.64,35.65,14.11,5.02,4.23,10.85,13.23,22.51,31.23,10.73,16.56,11.24,18.86,11.45,20.95Z"/>
  <path class="cls-2" d="m315.93,316.53c-.74-1.38,10.12-13.09,22.93-11.63,9.54,1.09,16.69,9.09,15.89,10.61-.76,1.44-8.28-3.76-20.34-3.38-11.37.36-17.94,5.42-18.48,4.4Z"/>
  <path class="cls-4" d="m377.26,341.19c.65,6.73-3.52,9.71-11.79,24.29-8.17,14.39-6.7,16.06-10.31,18.21-11.01,6.55-32.22-4.47-43.88-18.19-4.03-4.73-15.66-18.41-12.34-36.44,2.78-15.1,15.58-30.68,31.25-31.79,11.92-.84,21.4,6.98,24.18,9.28,3.4,2.8,7.33,8.78,15.19,20.73,7.24,10.99,7.57,12.52,7.71,13.92Z"/>
  <path class="cls-8" d="m376.81,339.41c.85,8.71-4.55,12.57-15.26,31.44-10.57,18.63-8.67,20.79-13.35,23.57-14.25,8.48-41.71-5.79-56.81-23.54-5.21-6.13-20.27-23.84-15.98-47.17,3.6-19.55,20.17-39.71,40.45-41.15,15.43-1.09,27.7,9.03,31.3,12.01,4.4,3.63,9.49,11.36,19.67,26.83,9.37,14.23,9.81,16.21,9.98,18.01Z"/>
  <path class="cls-5" d="m377.8,340.83c.97,9.66-4.87,13.89-16.39,34.75-11.37,20.58-9.3,22.98-14.36,26.04-15.43,9.31-45.31-6.65-61.8-26.4-5.69-6.82-22.14-26.52-17.61-52.34,3.8-21.63,21.68-43.88,43.68-45.36,16.74-1.12,30.12,10.16,34.05,13.48,4.79,4.04,10.36,12.64,21.5,29.83,10.25,15.82,10.74,18.01,10.93,20.01Z"/>
  <path class="cls-7" d="m377.34,339.25c.85,8.71-4.55,12.57-15.26,31.44-10.57,18.63-8.67,20.79-13.35,23.57-14.25,8.48-41.71-5.79-56.81-23.54-5.21-6.13-20.27-23.84-15.98-47.17,3.6-19.55,20.17-39.71,40.45-41.15,15.43-1.09,27.7,9.03,31.3,12.01,4.4,3.63,9.49,11.36,19.67,26.83,9.37,14.23,9.81,16.21,9.98,18.01Z"/>
  <path class="cls-3" d="m377.79,341.03c.65,6.73-3.52,9.71-11.79,24.29-8.17,14.39-6.7,16.06-10.31,18.21-11.01,6.55-32.22-4.47-43.88-18.19-4.03-4.73-15.66-18.41-12.34-36.44,2.78-15.1,15.58-30.68,31.25-31.79,11.92-.84,21.4,6.98,24.18,9.28,3.4,2.8,7.33,8.78,15.19,20.73,7.24,10.99,7.57,12.52,7.71,13.92Z"/>
  <path class="cls-1" d="m316.47,316.37c-.74-1.38,10.12-13.09,22.93-11.63,9.54,1.09,16.69,9.09,15.89,10.61-.76,1.44-8.28-3.76-20.34-3.38-11.37.36-17.94,5.42-18.48,4.4Z"/>
  <path class="cls-6" d="m436.8,304.75c10.07,1.36,12.97,8.33,31.41,25.13,18.2,16.58,21.15,15.05,23.04,20.94,5.74,17.97-17.77,44.54-41.88,56.54-8.32,4.14-32.38,16.12-57.59,5.24-21.11-9.12-39.44-32.72-35.6-55.49,2.92-17.32,17.66-28.22,21.99-31.41,5.28-3.9,15.39-7.49,35.6-14.66,18.6-6.6,20.95-6.56,23.04-6.28Z"/>
  <path class="cls-2" d="m395.15,360.8c-1.51.4-10.39-12.88-6-25,3.27-9.03,12.71-14.13,14-13,1.23,1.07-5.58,7.18-8,19-2.28,11.15,1.11,18.7,0,19Z"/>
  <path class="cls-4" d="m433.35,306.86c6.7.92,8.63,5.67,20.9,17.1,12.11,11.28,14.07,10.24,15.32,14.25,3.82,12.23-11.82,30.31-27.86,38.47-5.54,2.82-21.54,10.97-38.31,3.56-14.05-6.2-26.23-22.27-23.68-37.76,1.94-11.79,11.75-19.2,14.63-21.37,3.51-2.65,10.24-5.09,23.68-9.97,12.37-4.49,13.94-4.47,15.32-4.27Z"/>
  <path class="cls-8" d="m431.52,306.88c8.67,1.2,11.17,7.34,27.05,22.14,15.67,14.6,18.22,13.25,19.84,18.45,4.94,15.83-15.3,39.23-36.07,49.81-7.17,3.65-27.89,14.2-49.59,4.61-18.18-8.03-33.96-28.83-30.66-48.88,2.51-15.26,15.21-24.85,18.93-27.67,4.55-3.44,13.25-6.6,30.66-12.91,16.02-5.81,18.04-5.78,19.84-5.53Z"/>
  <path class="cls-5" d="m433.12,306.25c9.62,1.3,12.39,7.96,30,24,17.38,15.83,20.2,14.37,22,20,5.48,17.16-16.97,42.54-40,54-7.95,3.96-30.93,15.39-55,5-20.16-8.71-37.66-31.25-34-53,2.79-16.54,16.87-26.95,21-30,5.04-3.73,14.7-7.15,34-14,17.76-6.3,20.01-6.27,22-6Z"/>
  <path class="cls-7" d="m431.48,306.33c8.67,1.2,11.17,7.34,27.05,22.14,15.67,14.6,18.22,13.25,19.84,18.45,4.94,15.83-15.3,39.23-36.07,49.81-7.17,3.65-27.89,14.2-49.59,4.61-18.18-8.03-33.96-28.83-30.66-48.88,2.51-15.26,15.21-24.85,18.93-27.67,4.55-3.44,13.25-6.6,30.66-12.91,16.02-5.81,18.04-5.78,19.84-5.53Z"/>
  <path class="cls-3" d="m433.32,306.31c6.7.92,8.63,5.67,20.9,17.1,12.11,11.28,14.07,10.24,15.32,14.25,3.82,12.23-11.82,30.31-27.86,38.47-5.54,2.82-21.54,10.97-38.31,3.56-14.05-6.2-26.23-22.27-23.68-37.76,1.94-11.79,11.75-19.2,14.63-21.37,3.51-2.65,10.24-5.09,23.68-9.97,12.37-4.49,13.94-4.47,15.32-4.27Z"/>
  <path class="cls-1" d="m395.12,360.25c-1.51.4-10.39-12.88-6-25,3.27-9.03,12.71-14.13,14-13,1.23,1.07-5.58,7.18-8,19-2.28,11.15,1.11,18.7,0,19Z"/>
  <path class="cls-6" d="m285.04,173.6c4.65,9.03.59,15.4-2.62,40.14-3.17,24.41-.23,25.96-3.98,30.88-11.45,14.99-46.69,10.93-70.34-1.97-8.16-4.45-31.75-17.33-37.26-44.22-4.61-22.53,4.26-51.07,25.12-60.96,15.87-7.52,33.25-1.67,38.34.05,6.22,2.1,14.95,8.33,32.4,20.8,16.06,11.47,17.38,13.42,18.34,15.29Z"/>
  <path class="cls-2" d="m215.25,171.53c-1.19-1.01,4.61-15.89,17.06-19.23,9.27-2.49,18.86,2.33,18.67,4.04-.18,1.62-9.08-.46-20.16,4.32-10.45,4.51-14.7,11.62-15.58,10.88Z"/>
  <path class="cls-4" d="m281.34,171.98c3.08,6.02.29,10.32-2.06,26.92-2.32,16.38-.34,17.4-2.91,20.72-7.84,10.13-31.62,7.66-47.5-.82-5.48-2.93-21.33-11.38-24.85-29.37-2.95-15.07,3.24-34.26,17.41-41.03,10.78-5.16,22.47-1.36,25.9-.24,4.19,1.36,10.04,5.48,21.74,13.71,10.76,7.57,11.64,8.87,12.28,10.12Z"/>
  <path class="cls-8" d="m280.27,170.48c3.98,7.79.38,13.36-2.67,34.85-3,21.21-.44,22.52-3.77,26.82-10.15,13.11-40.93,9.91-61.48-1.06-7.09-3.79-27.61-14.74-32.17-38.02-3.82-19.5,4.2-44.35,22.53-53.12,13.95-6.67,29.08-1.76,33.53-.31,5.42,1.76,12.99,7.09,28.14,17.74,13.93,9.8,15.07,11.48,15.89,13.1Z"/>
  <path class="cls-5" d="m281.71,171.44c4.44,8.63.57,14.71-2.51,38.34-3.03,23.31-.22,24.79-3.81,29.49-10.94,14.32-44.59,10.44-67.17-1.89-7.79-4.25-30.33-16.55-35.58-42.23-4.4-21.52,4.07-48.77,23.99-58.22,15.16-7.19,31.75-1.6,36.62.05,5.94,2,14.28,7.96,30.94,19.86,15.34,10.96,16.59,12.82,17.51,14.6Z"/>
  <path class="cls-7" d="m280.71,170.14c3.98,7.79.38,13.36-2.67,34.85-3,21.21-.44,22.52-3.77,26.82-10.15,13.11-40.93,9.91-61.48-1.06-7.09-3.79-27.61-14.74-32.17-38.02-3.82-19.5,4.2-44.35,22.53-53.12,13.95-6.67,29.08-1.76,33.53-.31,5.42,1.76,12.99,7.09,28.14,17.74,13.93,9.8,15.07,11.48,15.89,13.1Z"/>
  <path class="cls-3" d="m281.77,171.63c3.08,6.02.29,10.32-2.06,26.92-2.32,16.38-.34,17.4-2.91,20.72-7.84,10.13-31.62,7.66-47.5-.82-5.48-2.93-21.33-11.38-24.85-29.37-2.95-15.07,3.24-34.26,17.41-41.03,10.78-5.16,22.47-1.36,25.9-.24,4.19,1.36,10.04,5.48,21.74,13.71,10.76,7.57,11.64,8.87,12.28,10.12Z"/>
  <path class="cls-1" d="m215.68,171.19c-1.19-1.01,4.61-15.89,17.06-19.23,9.27-2.49,18.86,2.33,18.67,4.04-.18,1.62-9.08-.46-20.16,4.32-10.45,4.51-14.7,11.62-15.58,10.88Z"/>
  <g>
    <path class="cls-6" d="m655.29,271.09c-6.74,7.61-4.37,14.78-7.36,39.55-2.95,24.44-6.18,25.21-3.76,30.9,7.4,17.36,42.55,22.11,68.65,15.44,9.01-2.3,35.05-8.96,47.02-33.66,10.03-20.7,8.47-50.54-9.31-65.27-13.53-11.21-31.81-9.82-37.17-9.41-6.55.5-16.54,4.39-36.53,12.16-18.39,7.16-20.15,8.72-21.54,10.3Z"/>
    <path class="cls-2" d="m723.44,286.31c1.41-.68-.55-16.54-11.79-22.85-8.37-4.7-18.86-2.39-19.09-.69-.23,1.61,8.92,1.79,18.47,9.16,9.01,6.95,11.38,14.89,12.41,14.38Z"/>
    <path class="cls-4" d="m659.28,270.43c-4.47,5.08-2.83,9.93-4.65,26.6-1.8,16.45-3.96,16.95-2.29,20.8,5.1,11.75,28.75,15.22,46.23,10.92,6.03-1.48,23.48-5.77,31.33-22.33,6.58-13.87,5.31-34-6.75-44.06-9.17-7.66-21.44-6.86-25.04-6.62-4.39.29-11.08,2.83-24.45,7.92-12.3,4.68-13.47,5.73-14.39,6.78Z"/>
    <path class="cls-8" d="m660.68,269.25c-5.78,6.57-3.66,12.85-6.01,34.43-2.32,21.29-5.13,21.94-2.96,26.92,6.6,15.21,37.22,19.7,59.84,14.14,7.81-1.92,30.39-7.47,40.55-28.91,8.52-17.96,6.87-44.01-8.73-57.04-11.87-9.91-27.75-8.88-32.41-8.57-5.69.37-14.34,3.66-31.64,10.26-15.92,6.06-17.44,7.41-18.63,8.77Z"/>
    <path class="cls-5" d="m659.05,269.82c-6.43,7.27-4.18,14.12-7.03,37.77-2.81,23.34-5.9,24.08-3.59,29.51,7.07,16.58,40.64,21.11,65.56,14.74,8.6-2.2,33.47-8.55,44.9-32.15,9.58-19.77,8.09-48.27-8.89-62.34-12.92-10.7-30.38-9.38-35.5-8.99-6.25.47-15.8,4.19-34.89,11.62-17.57,6.83-19.24,8.33-20.57,9.83Z"/>
    <path class="cls-7" d="m660.34,268.81c-5.78,6.57-3.66,12.85-6.01,34.43-2.32,21.29-5.13,21.94-2.96,26.92,6.6,15.21,37.22,19.7,59.84,14.14,7.81-1.92,30.39-7.47,40.55-28.91,8.52-17.96,6.87-44.01-8.73-57.04-11.87-9.91-27.75-8.88-32.41-8.57-5.69.37-14.34,3.66-31.64,10.26-15.92,6.06-17.44,7.41-18.63,8.77Z"/>
    <path class="cls-3" d="m658.94,269.99c-4.47,5.08-2.83,9.93-4.65,26.6-1.8,16.45-3.96,16.95-2.29,20.8,5.1,11.75,28.75,15.22,46.23,10.92,6.03-1.48,23.48-5.77,31.33-22.33,6.58-13.87,5.31-34-6.75-44.06-9.17-7.66-21.44-6.86-25.04-6.62-4.39.29-11.08,2.83-24.45,7.92-12.3,4.68-13.47,5.73-14.39,6.78Z"/>
    <path class="cls-1" d="m723.1,285.87c1.41-.68-.55-16.54-11.79-22.85-8.37-4.7-18.86-2.39-19.09-.69-.23,1.61,8.92,1.79,18.47,9.16,9.01,6.95,11.38,14.89,12.41,14.38Z"/>
  </g>
  <g>
    <path class="cls-6" d="m512.17,372.69c-6.74,7.61-4.37,14.78-7.36,39.55-2.95,24.44-6.18,25.21-3.76,30.9,7.4,17.36,42.55,22.11,68.65,15.44,9.01-2.3,35.05-8.96,47.02-33.66,10.03-20.7,8.47-50.54-9.31-65.27-13.53-11.21-31.81-9.82-37.17-9.41-6.55.5-16.54,4.39-36.53,12.16-18.39,7.16-20.15,8.72-21.54,10.3Z"/>
    <path class="cls-2" d="m580.32,387.91c1.41-.68-.55-16.54-11.79-22.85-8.37-4.7-18.86-2.39-19.09-.69-.23,1.61,8.92,1.79,18.47,9.16,9.01,6.95,11.38,14.89,12.41,14.38Z"/>
    <path class="cls-4" d="m516.16,372.04c-4.47,5.08-2.83,9.93-4.65,26.6-1.8,16.45-3.96,16.95-2.29,20.8,5.1,11.75,28.75,15.22,46.23,10.92,6.03-1.48,23.48-5.77,31.33-22.33,6.58-13.87,5.31-34-6.75-44.06-9.17-7.66-21.44-6.86-25.04-6.62-4.39.29-11.08,2.83-24.45,7.92-12.3,4.68-13.47,5.73-14.39,6.78Z"/>
    <path class="cls-8" d="m517.56,370.85c-5.78,6.57-3.66,12.85-6.01,34.43-2.32,21.29-5.13,21.94-2.96,26.92,6.6,15.21,37.22,19.7,59.84,14.14,7.81-1.92,30.39-7.47,40.55-28.91,8.52-17.96,6.87-44.01-8.73-57.04-11.87-9.91-27.75-8.88-32.41-8.57-5.69.37-14.34,3.66-31.64,10.26-15.92,6.06-17.44,7.41-18.63,8.77Z"/>
    <path class="cls-5" d="m515.93,371.42c-6.43,7.27-4.18,14.12-7.03,37.77-2.81,23.34-5.9,24.08-3.59,29.51,7.07,16.58,40.64,21.11,65.56,14.74,8.6-2.2,33.47-8.55,44.9-32.15,9.58-19.77,8.09-48.27-8.89-62.34-12.92-10.7-30.38-9.38-35.5-8.99-6.25.47-15.8,4.19-34.89,11.62-17.57,6.83-19.24,8.33-20.57,9.83Z"/>
    <path class="cls-7" d="m517.23,370.41c-5.78,6.57-3.66,12.85-6.01,34.43-2.32,21.29-5.13,21.94-2.96,26.92,6.6,15.21,37.22,19.7,59.84,14.14,7.81-1.92,30.39-7.47,40.55-28.91,8.52-17.96,6.87-44.01-8.73-57.04-11.87-9.91-27.75-8.88-32.41-8.57-5.69.37-14.34,3.66-31.64,10.26-15.92,6.06-17.44,7.41-18.63,8.77Z"/>
    <path class="cls-3" d="m515.82,371.6c-4.47,5.08-2.83,9.93-4.65,26.6-1.8,16.45-3.96,16.95-2.29,20.8,5.1,11.75,28.75,15.22,46.23,10.92,6.03-1.48,23.48-5.77,31.33-22.33,6.58-13.87,5.31-34-6.75-44.06-9.17-7.66-21.44-6.86-25.04-6.62-4.39.29-11.08,2.83-24.45,7.92-12.3,4.68-13.47,5.73-14.39,6.78Z"/>
    <path class="cls-1" d="m579.98,387.47c1.41-.68-.55-16.54-11.79-22.85-8.37-4.7-18.86-2.39-19.09-.69-.23,1.61,8.92,1.79,18.47,9.16,9.01,6.95,11.38,14.89,12.41,14.38Z"/>
  </g>
  <g>
    <path class="cls-6" d="m565.17,175.69c-6.74,7.61-4.37,14.78-7.36,39.55-2.95,24.44-6.18,25.21-3.76,30.9,7.4,17.36,42.55,22.11,68.65,15.44,9.01-2.3,35.05-8.96,47.02-33.66,10.03-20.7,8.47-50.54-9.31-65.27-13.53-11.21-31.81-9.82-37.17-9.41-6.55.5-16.54,4.39-36.53,12.16-18.39,7.16-20.15,8.72-21.54,10.3Z"/>
    <path class="cls-2" d="m633.32,190.91c1.41-.68-.55-16.54-11.79-22.85-8.37-4.7-18.86-2.39-19.09-.69-.23,1.61,8.92,1.79,18.47,9.16,9.01,6.95,11.38,14.89,12.41,14.38Z"/>
    <path class="cls-4" d="m569.16,175.04c-4.47,5.08-2.83,9.93-4.65,26.6-1.8,16.45-3.96,16.95-2.29,20.8,5.1,11.75,28.75,15.22,46.23,10.92,6.03-1.48,23.48-5.77,31.33-22.33,6.58-13.87,5.31-34-6.75-44.06-9.17-7.66-21.44-6.86-25.04-6.62-4.39.29-11.08,2.83-24.45,7.92-12.3,4.68-13.47,5.73-14.39,6.78Z"/>
    <path class="cls-8" d="m570.56,173.85c-5.78,6.57-3.66,12.85-6.01,34.43-2.32,21.29-5.13,21.94-2.96,26.92,6.6,15.21,37.22,19.7,59.84,14.14,7.81-1.92,30.39-7.47,40.55-28.91,8.52-17.96,6.87-44.01-8.73-57.04-11.87-9.91-27.75-8.88-32.41-8.57-5.69.37-14.34,3.66-31.64,10.26-15.92,6.06-17.44,7.41-18.63,8.77Z"/>
    <path class="cls-5" d="m568.93,174.42c-6.43,7.27-4.18,14.12-7.03,37.77-2.81,23.34-5.9,24.08-3.59,29.51,7.07,16.58,40.64,21.11,65.56,14.74,8.6-2.2,33.47-8.55,44.9-32.15,9.58-19.77,8.09-48.27-8.89-62.34-12.92-10.7-30.38-9.38-35.5-8.99-6.25.47-15.8,4.19-34.89,11.62-17.57,6.83-19.24,8.33-20.57,9.83Z"/>
    <path class="cls-7" d="m570.23,173.41c-5.78,6.57-3.66,12.85-6.01,34.43-2.32,21.29-5.13,21.94-2.96,26.92,6.6,15.21,37.22,19.7,59.84,14.14,7.81-1.92,30.39-7.47,40.55-28.91,8.52-17.96,6.87-44.01-8.73-57.04-11.87-9.91-27.75-8.88-32.41-8.57-5.69.37-14.34,3.66-31.64,10.26-15.92,6.06-17.44,7.41-18.63,8.77Z"/>
    <path class="cls-3" d="m568.82,174.6c-4.47,5.08-2.83,9.93-4.65,26.6-1.8,16.45-3.96,16.95-2.29,20.8,5.1,11.75,28.75,15.22,46.23,10.92,6.03-1.48,23.48-5.77,31.33-22.33,6.58-13.87,5.31-34-6.75-44.06-9.17-7.66-21.44-6.86-25.04-6.62-4.39.29-11.08,2.83-24.45,7.92-12.3,4.68-13.47,5.73-14.39,6.78Z"/>
    <path class="cls-1" d="m632.98,190.47c1.41-.68-.55-16.54-11.79-22.85-8.37-4.7-18.86-2.39-19.09-.69-.23,1.61,8.92,1.79,18.47,9.16,9.01,6.95,11.38,14.89,12.41,14.38Z"/>
  </g>
  <path class="cls-6" d="m189.29,468.41c7.25,7.12,5.4,14.44,10.12,38.93,4.66,24.17,7.94,24.71,5.92,30.56-6.16,17.83-40.89,25.05-67.39,20.23-9.15-1.66-35.59-6.47-49.27-30.27-11.46-19.94-12.01-49.82,4.7-65.76,12.71-12.13,31.04-12.03,36.42-12,6.57.04,16.81,3.21,37.29,9.56,18.85,5.85,20.71,7.28,22.21,8.75Z"/>
  <path class="cls-2" d="m122.38,488.38c-1.45-.58-.62-16.53,10.16-23.62,8.02-5.27,18.64-3.71,19-2.03.34,1.59-8.77,2.42-17.78,10.43-8.5,7.56-10.31,15.65-11.37,15.22Z"/>
  <path class="cls-4" d="m185.26,468.03c4.81,4.75,3.52,9.71,6.5,26.21,2.95,16.28,5.14,16.62,3.75,20.59-4.26,12.08-27.61,17.2-45.35,14.15-6.12-1.06-23.82-4.11-32.82-20.08-7.54-13.38-7.69-33.54,3.63-44.43,8.61-8.28,20.9-8.35,24.51-8.37,4.4-.02,11.25,2.05,24.94,6.18,12.6,3.81,13.84,4.76,14.83,5.75Z"/>
  <path class="cls-8" d="m183.78,466.95c6.23,6.15,4.55,12.56,8.42,33.92,3.82,21.08,6.66,21.52,4.85,26.65-5.52,15.64-35.74,22.27-58.7,18.31-7.93-1.37-30.84-5.32-42.49-25.99-9.76-17.32-9.95-43.42,4.7-57.51,11.15-10.72,27.06-10.81,31.73-10.83,5.7-.03,14.56,2.65,32.29,8,16.31,4.93,17.91,6.17,19.2,7.44Z"/>
  <path class="cls-5" d="m185.44,467.4c6.93,6.8,5.16,13.79,9.67,37.18,4.45,23.09,7.58,23.6,5.65,29.19-5.88,17.03-39.05,23.92-64.36,19.32-8.74-1.59-33.99-6.18-47.05-28.91-10.94-19.04-11.47-47.58,4.48-62.81,12.14-11.59,29.64-11.49,34.78-11.46,6.27.03,16.05,3.07,35.62,9.13,18,5.58,19.78,6.95,21.22,8.36Z"/>
  <path class="cls-7" d="m184.08,466.49c6.23,6.15,4.55,12.56,8.42,33.92,3.82,21.08,6.66,21.52,4.85,26.65-5.52,15.64-35.74,22.27-58.7,18.31-7.93-1.37-30.84-5.32-42.49-25.99-9.76-17.32-9.95-43.42,4.7-57.51,11.15-10.72,27.06-10.81,31.73-10.83,5.7-.03,14.56,2.65,32.29,8,16.31,4.93,17.91,6.17,19.2,7.44Z"/>
  <path class="cls-3" d="m185.57,467.57c4.81,4.75,3.52,9.71,6.5,26.21,2.95,16.28,5.14,16.62,3.75,20.59-4.26,12.08-27.61,17.2-45.35,14.15-6.12-1.06-23.82-4.11-32.82-20.08-7.54-13.38-7.69-33.54,3.63-44.43,8.61-8.28,20.9-8.35,24.51-8.37,4.4-.02,11.25,2.05,24.94,6.18,12.6,3.81,13.84,4.76,14.83,5.75Z"/>
  <path class="cls-1" d="m122.68,487.92c-1.45-.58-.62-16.53,10.16-23.62,8.02-5.27,18.64-3.71,19-2.03.34,1.59-8.77,2.42-17.78,10.43-8.5,7.56-10.31,15.65-11.37,15.22Z"/>
  <path class="cls-6" d="m89.51,518.25c10.07,1.36,12.97,8.33,31.41,25.13,18.2,16.58,21.15,15.05,23.04,20.94,5.74,17.97-17.77,44.54-41.88,56.54-8.32,4.14-32.38,16.12-57.59,5.24-21.11-9.12-39.44-32.72-35.6-55.49,2.92-17.32,17.66-28.22,21.99-31.41,5.28-3.9,15.39-7.49,35.6-14.66,18.6-6.6,20.95-6.56,23.04-6.28Z"/>
  <path class="cls-4" d="m86.06,520.36c6.7.92,8.63,5.67,20.9,17.1,12.11,11.28,14.07,10.24,15.32,14.25,3.82,12.23-11.82,30.31-27.86,38.47-5.54,2.82-21.54,10.97-38.31,3.56-14.05-6.2-26.23-22.27-23.68-37.76,1.94-11.79,11.75-19.2,14.63-21.37,3.51-2.65,10.24-5.09,23.68-9.97,12.37-4.49,13.94-4.47,15.32-4.27Z"/>
  <path class="cls-8" d="m84.23,520.38c8.67,1.2,11.17,7.34,27.05,22.14,15.67,14.6,18.22,13.25,19.84,18.45,4.94,15.83-15.3,39.23-36.07,49.81-7.17,3.65-27.89,14.2-49.59,4.61-18.18-8.03-33.96-28.83-30.66-48.88,2.51-15.26,15.21-24.85,18.93-27.67,4.55-3.44,13.25-6.6,30.66-12.91,16.02-5.81,18.04-5.78,19.84-5.53Z"/>
  <path class="cls-5" d="m85.83,519.75c9.62,1.3,12.39,7.96,30,24,17.38,15.83,20.2,14.37,22,20,5.48,17.16-16.97,42.54-40,54-7.95,3.96-30.93,15.39-55,5-20.16-8.71-37.66-31.25-34-53,2.79-16.54,16.87-26.95,21-30,5.04-3.73,14.7-7.15,34-14,17.76-6.3,20.01-6.27,22-6Z"/>
  <path class="cls-7" d="m84.19,519.83c8.67,1.2,11.17,7.34,27.05,22.14,15.67,14.6,18.22,13.25,19.84,18.45,4.94,15.83-15.3,39.23-36.07,49.81-7.17,3.65-27.89,14.2-49.59,4.61-18.18-8.03-33.96-28.83-30.66-48.88,2.51-15.26,15.21-24.85,18.93-27.67,4.55-3.44,13.25-6.6,30.66-12.91,16.02-5.81,18.04-5.78,19.84-5.53Z"/>
  <path class="cls-3" d="m86.03,519.81c6.7.92,8.63,5.67,20.9,17.1,12.11,11.28,14.07,10.24,15.32,14.25,3.82,12.23-11.82,30.31-27.86,38.47-5.54,2.82-21.54,10.97-38.31,3.56-14.05-6.2-26.23-22.27-23.68-37.76,1.94-11.79,11.75-19.2,14.63-21.37,3.51-2.65,10.24-5.09,23.68-9.97,12.37-4.49,13.94-4.47,15.32-4.27Z"/>
  <g>
    <path class="cls-6" d="m390,435.59c-6.74,7.61-4.37,14.78-7.36,39.55-2.95,24.44-6.18,25.21-3.76,30.9,7.4,17.36,42.55,22.11,68.65,15.44,9.01-2.3,35.05-8.96,47.02-33.66,10.03-20.7,8.47-50.54-9.31-65.27-13.53-11.21-31.81-9.82-37.17-9.41-6.55.5-16.54,4.39-36.53,12.16-18.39,7.16-20.15,8.72-21.54,10.3Z"/>
    <path class="cls-2" d="m458.15,450.81c1.41-.68-.55-16.54-11.79-22.85-8.37-4.7-18.86-2.39-19.09-.69-.23,1.61,8.92,1.79,18.47,9.16,9.01,6.95,11.38,14.89,12.41,14.38Z"/>
    <path class="cls-4" d="m393.99,434.93c-4.47,5.08-2.83,9.93-4.65,26.6-1.8,16.45-3.96,16.95-2.29,20.8,5.1,11.75,28.75,15.22,46.23,10.92,6.03-1.48,23.48-5.77,31.33-22.33,6.58-13.87,5.31-34-6.75-44.06-9.17-7.66-21.44-6.86-25.04-6.62-4.39.29-11.08,2.83-24.45,7.92-12.3,4.68-13.47,5.73-14.39,6.78Z"/>
    <path class="cls-8" d="m395.39,433.75c-5.78,6.57-3.66,12.85-6.01,34.43-2.32,21.29-5.13,21.94-2.96,26.92,6.6,15.21,37.22,19.7,59.84,14.14,7.81-1.92,30.39-7.47,40.55-28.91,8.52-17.96,6.87-44.01-8.73-57.04-11.87-9.91-27.75-8.88-32.41-8.57-5.69.37-14.34,3.66-31.64,10.26-15.92,6.06-17.44,7.41-18.63,8.77Z"/>
    <path class="cls-5" d="m393.76,434.32c-6.43,7.27-4.18,14.12-7.03,37.77-2.81,23.34-5.9,24.08-3.59,29.51,7.07,16.58,40.64,21.11,65.56,14.74,8.6-2.2,33.47-8.55,44.9-32.15,9.58-19.77,8.09-48.27-8.89-62.34-12.92-10.7-30.38-9.38-35.5-8.99-6.25.47-15.8,4.19-34.89,11.62-17.57,6.83-19.24,8.33-20.57,9.83Z"/>
    <path class="cls-7" d="m395.05,433.31c-5.78,6.57-3.66,12.85-6.01,34.43-2.32,21.29-5.13,21.94-2.96,26.92,6.6,15.21,37.22,19.7,59.84,14.14,7.81-1.92,30.39-7.47,40.55-28.91,8.52-17.96,6.87-44.01-8.73-57.04-11.87-9.91-27.75-8.88-32.41-8.57-5.69.37-14.34,3.66-31.64,10.26-15.92,6.06-17.44,7.41-18.63,8.77Z"/>
    <path class="cls-3" d="m393.65,434.49c-4.47,5.08-2.83,9.93-4.65,26.6-1.8,16.45-3.96,16.95-2.29,20.8,5.1,11.75,28.75,15.22,46.23,10.92,6.03-1.48,23.48-5.77,31.33-22.33,6.58-13.87,5.31-34-6.75-44.06-9.17-7.66-21.44-6.86-25.04-6.62-4.39.29-11.08,2.83-24.45,7.92-12.3,4.68-13.47,5.73-14.39,6.78Z"/>
    <path class="cls-1" d="m457.81,450.37c1.41-.68-.55-16.54-11.79-22.85-8.37-4.7-18.86-2.39-19.09-.69-.23,1.61,8.92,1.79,18.47,9.16,9.01,6.95,11.38,14.89,12.41,14.38Z"/>
  </g>
  <g>
    <path class="cls-6" d="m211.88,491.19c-6.74,7.61-4.37,14.78-7.36,39.55-2.95,24.44-6.18,25.21-3.76,30.9,7.4,17.36,42.55,22.11,68.65,15.44,9.01-2.3,35.05-8.96,47.02-33.66,10.03-20.7,8.47-50.54-9.31-65.27-13.53-11.21-31.81-9.82-37.17-9.41-6.55.5-16.54,4.39-36.53,12.16-18.39,7.16-20.15,8.72-21.54,10.3Z"/>
    <path class="cls-2" d="m280.03,506.41c1.41-.68-.55-16.54-11.79-22.85-8.37-4.7-18.86-2.39-19.09-.69-.23,1.61,8.92,1.79,18.47,9.16,9.01,6.95,11.38,14.89,12.41,14.38Z"/>
    <path class="cls-4" d="m215.87,490.54c-4.47,5.08-2.83,9.93-4.65,26.6-1.8,16.45-3.96,16.95-2.29,20.8,5.1,11.75,28.75,15.22,46.23,10.92,6.03-1.48,23.48-5.77,31.33-22.33,6.58-13.87,5.31-34-6.75-44.06-9.17-7.66-21.44-6.86-25.04-6.62-4.39.29-11.08,2.83-24.45,7.92-12.3,4.68-13.47,5.73-14.39,6.78Z"/>
    <path class="cls-8" d="m217.27,489.35c-5.78,6.57-3.66,12.85-6.01,34.43-2.32,21.29-5.13,21.94-2.96,26.92,6.6,15.21,37.22,19.7,59.84,14.14,7.81-1.92,30.39-7.47,40.55-28.91,8.52-17.96,6.87-44.01-8.73-57.04-11.87-9.91-27.75-8.88-32.41-8.57-5.69.37-14.34,3.66-31.64,10.26-15.92,6.06-17.44,7.41-18.63,8.77Z"/>
    <path class="cls-5" d="m215.64,489.92c-6.43,7.27-4.18,14.12-7.03,37.77-2.81,23.34-5.9,24.08-3.59,29.51,7.07,16.58,40.64,21.11,65.56,14.74,8.6-2.2,33.47-8.55,44.9-32.15,9.58-19.77,8.09-48.27-8.89-62.34-12.92-10.7-30.38-9.38-35.5-8.99-6.25.47-15.8,4.19-34.89,11.62-17.57,6.83-19.24,8.33-20.57,9.83Z"/>
    <path class="cls-7" d="m216.94,488.91c-5.78,6.57-3.66,12.85-6.01,34.43-2.32,21.29-5.13,21.94-2.96,26.92,6.6,15.21,37.22,19.7,59.84,14.14,7.81-1.92,30.39-7.47,40.55-28.91,8.52-17.96,6.87-44.01-8.73-57.04-11.87-9.91-27.75-8.88-32.41-8.57-5.69.37-14.34,3.66-31.64,10.26-15.92,6.06-17.44,7.41-18.63,8.77Z"/>
    <path class="cls-3" d="m215.54,490.1c-4.47,5.08-2.83,9.93-4.65,26.6-1.8,16.45-3.96,16.95-2.29,20.8,5.1,11.75,28.75,15.22,46.23,10.92,6.03-1.48,23.48-5.77,31.33-22.33,6.58-13.87,5.31-34-6.75-44.06-9.17-7.66-21.44-6.86-25.04-6.62-4.39.29-11.08,2.83-24.45,7.92-12.3,4.68-13.47,5.73-14.39,6.78Z"/>
    <path class="cls-1" d="m279.69,505.97c1.41-.68-.55-16.54-11.79-22.85-8.37-4.7-18.86-2.39-19.09-.69-.23,1.61,8.92,1.79,18.47,9.16,9.01,6.95,11.38,14.89,12.41,14.38Z"/>
  </g>
  <g>
    <path class="cls-6" d="m217.88,389.19c-6.74,7.61-4.37,14.78-7.36,39.55-2.95,24.44-6.18,25.21-3.76,30.9,7.4,17.36,42.55,22.11,68.65,15.44,9.01-2.3,35.05-8.96,47.02-33.66,10.03-20.7,8.47-50.54-9.31-65.27-13.53-11.21-31.81-9.82-37.17-9.41-6.55.5-16.54,4.39-36.53,12.16-18.39,7.16-20.15,8.72-21.54,10.3Z"/>
    <path class="cls-2" d="m286.03,404.41c1.41-.68-.55-16.54-11.79-22.85-8.37-4.7-18.86-2.39-19.09-.69-.23,1.61,8.92,1.79,18.47,9.16,9.01,6.95,11.38,14.89,12.41,14.38Z"/>
    <path class="cls-4" d="m221.87,388.54c-4.47,5.08-2.83,9.93-4.65,26.6-1.8,16.45-3.96,16.95-2.29,20.8,5.1,11.75,28.75,15.22,46.23,10.92,6.03-1.48,23.48-5.77,31.33-22.33,6.58-13.87,5.31-34-6.75-44.06-9.17-7.66-21.44-6.86-25.04-6.62-4.39.29-11.08,2.83-24.45,7.92-12.3,4.68-13.47,5.73-14.39,6.78Z"/>
    <path class="cls-8" d="m223.27,387.35c-5.78,6.57-3.66,12.85-6.01,34.43-2.32,21.29-5.13,21.94-2.96,26.92,6.6,15.21,37.22,19.7,59.84,14.14,7.81-1.92,30.39-7.47,40.55-28.91,8.52-17.96,6.87-44.01-8.73-57.04-11.87-9.91-27.75-8.88-32.41-8.57-5.69.37-14.34,3.66-31.64,10.26-15.92,6.06-17.44,7.41-18.63,8.77Z"/>
    <path class="cls-5" d="m221.64,387.92c-6.43,7.27-4.18,14.12-7.03,37.77-2.81,23.34-5.9,24.08-3.59,29.51,7.07,16.58,40.64,21.11,65.56,14.74,8.6-2.2,33.47-8.55,44.9-32.15,9.58-19.77,8.09-48.27-8.89-62.34-12.92-10.7-30.38-9.38-35.5-8.99-6.25.47-15.8,4.19-34.89,11.62-17.57,6.83-19.24,8.33-20.57,9.83Z"/>
    <path class="cls-7" d="m222.94,386.91c-5.78,6.57-3.66,12.85-6.01,34.43-2.32,21.29-5.13,21.94-2.96,26.92,6.6,15.21,37.22,19.7,59.84,14.14,7.81-1.92,30.39-7.47,40.55-28.91,8.52-17.96,6.87-44.01-8.73-57.04-11.87-9.91-27.75-8.88-32.41-8.57-5.69.37-14.34,3.66-31.64,10.26-15.92,6.06-17.44,7.41-18.63,8.77Z"/>
    <path class="cls-3" d="m221.54,388.1c-4.47,5.08-2.83,9.93-4.65,26.6-1.8,16.45-3.96,16.95-2.29,20.8,5.1,11.75,28.75,15.22,46.23,10.92,6.03-1.48,23.48-5.77,31.33-22.33,6.58-13.87,5.31-34-6.75-44.06-9.17-7.66-21.44-6.86-25.04-6.62-4.39.29-11.08,2.83-24.45,7.92-12.3,4.68-13.47,5.73-14.39,6.78Z"/>
    <path class="cls-1" d="m285.69,403.97c1.41-.68-.55-16.54-11.79-22.85-8.37-4.7-18.86-2.39-19.09-.69-.23,1.61,8.92,1.79,18.47,9.16,9.01,6.95,11.38,14.89,12.41,14.38Z"/>
  </g>
  <path class="cls-6" d="m767.85,450.4c-5.55,8.51-2.16,15.26-1.47,40.2.67,24.61-2.41,25.85.82,31.12,9.87,16.08,45.34,15.62,70.17,5.19,8.57-3.6,33.35-14.01,41.56-40.2,6.88-21.95.96-51.24-18.79-63.2-15.03-9.1-32.9-5.04-38.15-3.85-6.4,1.45-15.72,6.77-34.35,17.4-17.14,9.78-18.65,11.58-19.8,13.35Z"/>
  <path class="cls-2" d="m837.5,455.45c1.29-.88-2.97-16.28-15.02-20.87-8.97-3.42-19,.4-18.99,2.12.01,1.63,9.08.46,19.61,6.35,9.93,5.55,13.44,13.05,14.39,12.4Z"/>
  <path class="cls-4" d="m771.7,449.17c-3.67,5.68-1.34,10.24-.69,26.99.64,16.53-1.43,17.34.79,20.91,6.77,10.88,30.67,10.83,47.33,4.02,5.75-2.35,22.37-9.16,27.71-26.69,4.47-14.69.26-34.41-13.14-42.59-10.2-6.23-22.21-3.64-25.74-2.88-4.3.93-10.54,4.43-23.02,11.43-11.48,6.44-12.48,7.64-13.24,8.82Z"/>
  <path class="cls-8" d="m772.91,447.79c-4.75,7.35-1.73,13.25-.89,34.94.83,21.4-1.85,22.45,1.02,27.07,8.76,14.08,39.71,14.02,61.27,5.2,7.44-3.05,28.96-11.85,35.87-34.55,5.79-19.01.34-44.54-17.01-55.14-13.2-8.06-28.76-4.71-33.32-3.72-5.57,1.2-13.65,5.73-29.8,14.79-14.86,8.34-16.16,9.89-17.14,11.41Z"/>
  <path class="cls-5" d="m771.39,448.59c-5.3,8.13-2.06,14.58-1.41,38.39.64,23.5-2.3,24.68.79,29.72,9.42,15.36,43.3,14.92,67.02,4.96,8.19-3.44,31.85-13.38,39.7-38.4,6.57-20.96.92-48.93-17.95-60.36-14.35-8.69-31.42-4.82-36.43-3.68-6.12,1.39-15.01,6.46-32.8,16.61-16.37,9.34-17.81,11.06-18.91,12.75Z"/>
  <path class="cls-7" d="m772.52,447.4c-4.75,7.35-1.73,13.25-.89,34.94.83,21.4-1.85,22.45,1.02,27.07,8.76,14.08,39.71,14.02,61.27,5.2,7.44-3.05,28.96-11.85,35.87-34.55,5.79-19.01.34-44.54-17.01-55.14-13.2-8.06-28.76-4.71-33.32-3.72-5.57,1.2-13.65,5.73-29.8,14.79-14.86,8.34-16.16,9.89-17.14,11.41Z"/>
  <path class="cls-3" d="m771.3,448.78c-3.67,5.68-1.34,10.24-.69,26.99.64,16.53-1.43,17.34.79,20.91,6.77,10.88,30.67,10.83,47.33,4.02,5.75-2.35,22.37-9.16,27.71-26.69,4.47-14.69.26-34.41-13.14-42.59-10.2-6.23-22.21-3.64-25.74-2.88-4.3.93-10.54,4.43-23.02,11.43-11.48,6.44-12.48,7.64-13.24,8.82Z"/>
  <path class="cls-1" d="m837.1,455.06c1.29-.88-2.97-16.28-15.02-20.87-8.97-3.42-19,.4-18.99,2.12.01,1.63,9.08.46,19.61,6.35,9.93,5.55,13.44,13.05,14.39,12.4Z"/>
  <path class="cls-6" d="m876.04,477.52c-9.54,3.5-10.86,10.94-25.24,31.32-14.19,20.12-17.4,19.26-17.97,25.42-1.72,18.79,26.97,39.65,53.11,46.16,9.02,2.25,35.1,8.74,57.36-7.33,18.65-13.46,31.44-40.47,22.77-61.87-6.59-16.28-23.34-23.73-28.25-25.92-6-2.67-16.64-3.99-37.93-6.62-19.59-2.43-21.87-1.88-23.85-1.16Z"/>
  <path class="cls-4" d="m879.86,478.83c-6.34,2.35-7.2,7.4-16.71,21.21-9.38,13.63-11.53,13.04-11.88,17.22-1.09,12.77,18.09,27.04,35.51,31.55,6.01,1.56,23.4,6.06,38.17-4.8,12.37-9.09,20.8-27.41,14.97-41.99-4.44-11.09-15.62-16.21-18.9-17.71-4-1.83-11.09-2.76-25.28-4.62-13.05-1.71-14.57-1.35-15.89-.86Z"/>
  <path class="cls-8" d="m881.66,478.45c-8.21,3.04-9.32,9.58-21.63,27.46-12.15,17.64-14.92,16.88-15.38,22.3-1.41,16.53,23.41,35,45.97,40.84,7.79,2.01,30.3,7.84,49.42-6.21,16.02-11.77,26.93-35.48,19.37-54.35-5.75-14.36-20.22-20.98-24.46-22.93-5.18-2.37-14.36-3.58-32.72-5.99-16.89-2.22-18.86-1.75-20.56-1.12Z"/>
  <path class="cls-5" d="m879.95,478.18c-9.11,3.34-10.38,10.45-24.11,29.91-13.55,19.21-16.62,18.4-17.16,24.28-1.64,17.94,25.76,37.87,50.72,44.08,8.62,2.15,33.52,8.35,54.78-7,17.81-12.86,30.02-38.65,21.75-59.09-6.3-15.55-22.29-22.67-26.98-24.76-5.73-2.55-15.89-3.81-36.22-6.32-18.71-2.32-20.89-1.8-22.78-1.11Z"/>
  <path class="cls-7" d="m881.57,477.9c-8.21,3.04-9.32,9.58-21.63,27.46-12.15,17.64-14.92,16.88-15.38,22.3-1.41,16.53,23.41,35,45.97,40.84,7.79,2.01,30.3,7.84,49.42-6.21,16.02-11.77,26.93-35.48,19.37-54.35-5.75-14.36-20.22-20.98-24.46-22.93-5.18-2.37-14.36-3.58-32.72-5.99-16.89-2.22-18.86-1.75-20.56-1.12Z"/>
  <path class="cls-3" d="m879.77,478.28c-6.34,2.35-7.2,7.4-16.71,21.21-9.38,13.63-11.53,13.04-11.88,17.22-1.09,12.77,18.09,27.04,35.51,31.55,6.01,1.56,23.4,6.06,38.17-4.8,12.37-9.09,20.8-27.41,14.97-41.99-4.44-11.09-15.62-16.21-18.9-17.71-4-1.83-11.09-2.76-25.28-4.62-13.05-1.71-14.57-1.35-15.89-.86Z"/>
  <g>
    <path class="cls-6" d="m655.44,491.85c8.22,5.97,7.46,13.49,15.73,37.02,8.16,23.23,11.48,23.28,10.34,29.36-3.47,18.54-36.77,30.78-63.69,29.9-9.29-.3-36.16-1.17-53.18-22.71-14.26-18.04-19.19-47.52-5.01-65.74,10.79-13.87,28.93-16.46,34.26-17.22,6.5-.93,17.1.71,38.29,3.99,19.5,3.01,21.56,4.16,23.26,5.4Z"/>
    <path class="cls-2" d="m592.18,521.43c-1.52-.36-3.04-16.26,6.58-24.85,7.16-6.4,17.89-6.41,18.49-4.8.57,1.53-8.32,3.68-16.06,12.93-7.3,8.73-7.9,16.99-9.01,16.73Z"/>
    <path class="cls-4" d="m651.4,492.07c5.46,3.99,4.91,9.08,10.28,24.97,5.31,15.67,7.53,15.69,6.73,19.81-2.44,12.58-24.78,21.07-42.78,20.65-6.21-.15-24.17-.56-35.41-15.04-9.42-12.12-12.53-32.05-2.93-44.48,7.3-9.46,19.45-11.33,23.02-11.88,4.35-.67,11.43.37,25.58,2.45,13.02,1.92,14.39,2.68,15.52,3.51Z"/>
    <path class="cls-8" d="m649.77,491.21c7.07,5.17,6.35,11.76,13.31,32.32,6.87,20.29,9.75,20.31,8.71,25.65-3.16,16.28-32.08,27.28-55.38,26.73-8.04-.19-31.28-.73-45.84-19.47-12.19-15.7-16.22-41.49-3.8-57.58,9.45-12.24,25.18-14.66,29.79-15.37,5.63-.87,14.79.48,33.11,3.18,16.86,2.48,18.62,3.47,20.09,4.54Z"/>
    <path class="cls-5" d="m651.49,491.42c7.85,5.7,7.13,12.88,15.02,35.36,7.79,22.18,10.97,22.23,9.88,28.04-3.32,17.71-35.12,29.39-60.83,28.56-8.87-.29-34.53-1.12-50.79-21.69-13.62-17.23-18.33-45.38-4.79-62.79,10.3-13.24,27.63-15.72,32.72-16.45,6.21-.89,16.33.68,36.57,3.81,18.63,2.88,20.59,3.97,22.21,5.16Z"/>
    <path class="cls-7" d="m650.01,490.71c7.07,5.17,6.35,11.76,13.31,32.32,6.87,20.29,9.75,20.31,8.71,25.65-3.16,16.28-32.08,27.28-55.38,26.73-8.04-.19-31.28-.73-45.84-19.47-12.19-15.7-16.22-41.49-3.8-57.58,9.45-12.24,25.18-14.66,29.79-15.37,5.63-.87,14.79.48,33.11,3.18,16.86,2.48,18.62,3.47,20.09,4.54Z"/>
    <path class="cls-3" d="m651.63,491.56c5.46,3.99,4.91,9.08,10.28,24.97,5.31,15.67,7.53,15.69,6.73,19.81-2.44,12.58-24.78,21.07-42.78,20.65-6.21-.15-24.17-.56-35.41-15.04-9.42-12.12-12.53-32.05-2.93-44.48,7.3-9.46,19.45-11.33,23.02-11.88,4.35-.67,11.43.37,25.58,2.45,13.02,1.92,14.39,2.68,15.52,3.51Z"/>
    <path class="cls-1" d="m592.42,520.92c-1.52-.36-3.04-16.26,6.58-24.85,7.16-6.4,17.89-6.41,18.49-4.8.57,1.53-8.32,3.68-16.06,12.93-7.3,8.73-7.9,16.99-9.01,16.73Z"/>
  </g>
  <g>
    <path class="cls-6" d="m817.12,560.13c8.22,5.97,7.46,13.49,15.73,37.02,8.16,23.23,11.48,23.28,10.34,29.36-3.47,18.54-36.77,30.78-63.69,29.9-9.29-.3-36.16-1.17-53.18-22.71-14.26-18.04-19.19-47.52-5.01-65.74,10.79-13.87,28.93-16.46,34.26-17.22,6.5-.93,17.1.71,38.29,3.99,19.5,3.01,21.56,4.16,23.26,5.4Z"/>
    <path class="cls-2" d="m753.87,589.71c-1.52-.36-3.04-16.26,6.58-24.85,7.16-6.4,17.89-6.41,18.49-4.8.57,1.53-8.32,3.68-16.06,12.93-7.3,8.73-7.9,16.99-9.01,16.73Z"/>
    <path class="cls-4" d="m813.09,560.35c5.46,3.99,4.91,9.08,10.28,24.97,5.31,15.67,7.53,15.69,6.73,19.81-2.44,12.58-24.78,21.07-42.78,20.65-6.21-.15-24.17-.56-35.41-15.04-9.42-12.12-12.53-32.05-2.93-44.48,7.3-9.46,19.45-11.33,23.02-11.88,4.35-.67,11.43.37,25.58,2.45,13.02,1.92,14.39,2.68,15.52,3.51Z"/>
    <path class="cls-8" d="m811.46,559.5c7.07,5.17,6.35,11.76,13.31,32.32,6.87,20.29,9.75,20.31,8.71,25.65-3.16,16.28-32.08,27.28-55.38,26.73-8.04-.19-31.28-.73-45.84-19.47-12.19-15.7-16.22-41.49-3.8-57.58,9.45-12.24,25.18-14.66,29.79-15.37,5.63-.87,14.79.48,33.11,3.18,16.86,2.48,18.62,3.47,20.09,4.54Z"/>
    <path class="cls-5" d="m813.18,559.7c7.85,5.7,7.13,12.88,15.02,35.36,7.79,22.18,10.97,22.23,9.88,28.04-3.32,17.71-35.12,29.39-60.83,28.56-8.87-.29-34.53-1.12-50.79-21.69-13.62-17.23-18.33-45.38-4.79-62.79,10.3-13.24,27.63-15.72,32.72-16.45,6.21-.89,16.33.68,36.57,3.81,18.63,2.88,20.59,3.97,22.21,5.16Z"/>
    <path class="cls-7" d="m811.7,559c7.07,5.17,6.35,11.76,13.31,32.32,6.87,20.29,9.75,20.31,8.71,25.65-3.16,16.28-32.08,27.28-55.38,26.73-8.04-.19-31.28-.73-45.84-19.47-12.19-15.7-16.22-41.49-3.8-57.58,9.45-12.24,25.18-14.66,29.79-15.37,5.63-.87,14.79.48,33.11,3.18,16.86,2.48,18.62,3.47,20.09,4.54Z"/>
    <path class="cls-3" d="m813.32,559.85c5.46,3.99,4.91,9.08,10.28,24.97,5.31,15.67,7.53,15.69,6.73,19.81-2.44,12.58-24.78,21.07-42.78,20.65-6.21-.15-24.17-.56-35.41-15.04-9.42-12.12-12.53-32.05-2.93-44.48,7.3-9.46,19.45-11.33,23.02-11.88,4.35-.67,11.43.37,25.58,2.45,13.02,1.92,14.39,2.68,15.52,3.51Z"/>
    <path class="cls-1" d="m754.11,589.21c-1.52-.36-3.04-16.26,6.58-24.85,7.16-6.4,17.89-6.41,18.49-4.8.57,1.53-8.32,3.68-16.06,12.93-7.3,8.73-7.9,16.99-9.01,16.73Z"/>
  </g>
  <g>
    <path class="cls-6" d="m722.82,379.23c8.22,5.97,7.46,13.49,15.73,37.02,8.16,23.23,11.48,23.28,10.34,29.36-3.47,18.54-36.77,30.78-63.69,29.9-9.29-.3-36.16-1.17-53.18-22.71-14.26-18.04-19.19-47.52-5.01-65.74,10.79-13.87,28.93-16.46,34.26-17.22,6.5-.93,17.1.71,38.29,3.99,19.5,3.01,21.56,4.16,23.26,5.4Z"/>
    <path class="cls-2" d="m659.57,408.82c-1.52-.36-3.04-16.26,6.58-24.85,7.16-6.4,17.89-6.41,18.49-4.8.57,1.53-8.32,3.68-16.06,12.93-7.3,8.73-7.9,16.99-9.01,16.73Z"/>
    <path class="cls-4" d="m718.78,379.46c5.46,3.99,4.91,9.08,10.28,24.97,5.31,15.67,7.53,15.69,6.73,19.81-2.44,12.58-24.78,21.07-42.78,20.65-6.21-.15-24.17-.56-35.41-15.04-9.42-12.12-12.53-32.05-2.93-44.48,7.3-9.46,19.45-11.33,23.02-11.88,4.35-.67,11.43.37,25.58,2.45,13.02,1.92,14.39,2.68,15.52,3.51Z"/>
    <path class="cls-8" d="m717.16,378.6c7.07,5.17,6.35,11.76,13.31,32.32,6.87,20.29,9.75,20.31,8.71,25.65-3.16,16.28-32.08,27.28-55.38,26.73-8.04-.19-31.28-.73-45.84-19.47-12.19-15.7-16.22-41.49-3.8-57.58,9.45-12.24,25.18-14.66,29.79-15.37,5.63-.87,14.79.48,33.11,3.18,16.86,2.48,18.62,3.47,20.09,4.54Z"/>
    <path class="cls-5" d="m718.87,378.8c7.85,5.7,7.13,12.88,15.02,35.36,7.79,22.18,10.97,22.23,9.88,28.04-3.32,17.71-35.12,29.39-60.83,28.56-8.87-.29-34.53-1.12-50.79-21.69-13.62-17.23-18.33-45.38-4.79-62.79,10.3-13.24,27.63-15.72,32.72-16.45,6.21-.89,16.33.68,36.57,3.81,18.63,2.88,20.59,3.97,22.21,5.16Z"/>
    <path class="cls-7" d="m717.39,378.1c7.07,5.17,6.35,11.76,13.31,32.32,6.87,20.29,9.75,20.31,8.71,25.65-3.16,16.28-32.08,27.28-55.38,26.73-8.04-.19-31.28-.73-45.84-19.47-12.19-15.7-16.22-41.49-3.8-57.58,9.45-12.24,25.18-14.66,29.79-15.37,5.63-.87,14.79.48,33.11,3.18,16.86,2.48,18.62,3.47,20.09,4.54Z"/>
    <path class="cls-3" d="m719.01,378.95c5.46,3.99,4.91,9.08,10.28,24.97,5.31,15.67,7.53,15.69,6.73,19.81-2.44,12.58-24.78,21.07-42.78,20.65-6.21-.15-24.17-.56-35.41-15.04-9.42-12.12-12.53-32.05-2.93-44.48,7.3-9.46,19.45-11.33,23.02-11.88,4.35-.67,11.43.37,25.58,2.45,13.02,1.92,14.39,2.68,15.52,3.51Z"/>
    <path class="cls-1" d="m659.8,408.31c-1.52-.36-3.04-16.26,6.58-24.85,7.16-6.4,17.89-6.41,18.49-4.8.57,1.53-8.32,3.68-16.06,12.93-7.3,8.73-7.9,16.99-9.01,16.73Z"/>
  </g>
</svg>