<?xml version="1.0" encoding="UTF-8"?>
<svg id="Layer_1" data-name="Layer 1" xmlns="http://www.w3.org/2000/svg" viewBox="0 0 733.64 588.62">
  <defs>
    <style>
      .cls-1 {
        fill: #eaeaea;
      }

      .cls-2 {
        fill: #e86e00;
      }

      .cls-3 {
        fill: #fffcfa;
      }

      .cls-4 {
        fill: #ff8603;
      }

      .cls-5 {
        fill: #fff;
        stroke: #fff;
        stroke-miterlimit: 10;
        stroke-width: 57px;
      }
    </style>
  </defs>
  <g>
    <path class="cls-5" d="m29.21,277.53c3.06-64.38,29.73-205.75,121.52-229.62,93.42-24.3,192.55,89.18,230.11,175.34,9.57,21.95,57.48,131.89,0,226.55-8.13,13.38-42.74,68.43-110.92,84.96-87.41,21.19-157.51-38.5-169.91-49.56C22.62,416.22,27.57,312.01,29.21,277.53Z"/>
    <path class="cls-5" d="m29.21,261.46c3.06-64.38,29.73-205.75,121.52-229.62,93.42-24.3,192.55,89.18,230.11,175.34,9.57,21.95,57.48,131.89,0,226.55-8.13,13.38-42.74,68.43-110.92,84.96-87.41,21.19-157.51-38.5-169.91-49.56C22.62,400.15,27.57,295.94,29.21,261.46Z"/>
    <path class="cls-5" d="m83.15,277.21c7.84-42.81,41.89-98.47,100.96-110.92,86.55-18.23,186.72,64.77,191.88,146.31.36,5.68,3.57,78.94-64.15,115.64-57.41,31.12-120.94,11.63-127.73,9.44-73.3-23.65-112.62-96.82-100.96-160.47Z"/>
    <path class="cls-5" d="m133.56,286.75c5.12-27.97,27.37-64.35,65.97-72.48,56.56-11.91,122.01,42.32,125.39,95.61.23,3.71,2.33,51.58-41.92,75.56-37.52,20.33-79.03,7.6-83.47,6.17-47.9-15.46-73.59-63.27-65.97-104.86Z"/>
  </g>
  <g>
    <path class="cls-5" d="m704.44,298.38c-3.06-64.38-29.73-205.75-121.52-229.62-93.42-24.3-192.55,89.18-230.11,175.34-9.57,21.95-57.48,131.89,0,226.55,8.13,13.38,42.74,68.43,110.92,84.96,87.41,21.19,157.51-38.5,169.91-49.56,77.38-68.98,72.43-173.19,70.8-207.67Z"/>
    <path class="cls-5" d="m704.44,282.31c-3.06-64.38-29.73-205.75-121.52-229.62-93.42-24.3-192.55,89.18-230.11,175.34-9.57,21.95-57.48,131.89,0,226.55,8.13,13.38,42.74,68.43,110.92,84.96,87.41,21.19,157.51-38.5,169.91-49.56,77.38-68.98,72.43-173.19,70.8-207.67Z"/>
    <path class="cls-5" d="m650.49,298.06c-7.84-42.81-41.89-98.47-100.96-110.92-86.55-18.23-186.72,64.77-191.88,146.31-.36,5.68-3.57,78.94,64.15,115.64,57.41,31.12,120.94,11.63,127.73,9.44,73.3-23.65,112.62-96.82,100.96-160.47Z"/>
    <path class="cls-5" d="m600.08,307.59c-5.12-27.97-27.37-64.35-65.97-72.48-56.56-11.91-122.01,42.32-125.39,95.61-.23,3.71-2.33,51.58,41.92,75.56,37.52,20.33,79.03,7.6,83.47,6.17,47.9-15.46,73.59-63.27,65.97-104.86Z"/>
  </g>
  <g>
    <path class="cls-1" d="m38.06,275.2c3.06-64.38,29.73-205.75,121.52-229.62,93.42-24.3,192.55,89.18,230.11,175.34,9.57,21.95,57.48,131.89,0,226.55-8.13,13.38-42.74,68.43-110.92,84.96-87.41,21.19-157.51-38.5-169.91-49.56-77.38-68.98-72.43-173.19-70.8-207.67Z"/>
    <path class="cls-3" d="m38.06,259.13c3.06-64.38,29.73-205.75,121.52-229.62,93.42-24.3,192.55,89.18,230.11,175.34,9.57,21.95,57.48,131.89,0,226.55-8.13,13.38-42.74,68.43-110.92,84.96-87.41,21.19-157.51-38.5-169.91-49.56-77.38-68.98-72.43-173.19-70.8-207.67Z"/>
    <path class="cls-4" d="m92,274.88c7.84-42.81,41.89-98.47,100.96-110.92,86.55-18.23,186.72,64.77,191.88,146.31.36,5.68,3.57,78.94-64.15,115.64-57.41,31.12-120.94,11.63-127.73,9.44-73.3-23.65-112.62-96.82-100.96-160.47Z"/>
    <path class="cls-2" d="m142.41,284.42c5.12-27.97,27.37-64.35,65.97-72.48,56.56-11.91,122.01,42.32,125.39,95.61.23,3.71,2.33,51.58-41.92,75.56-37.52,20.33-79.03,7.6-83.47,6.17-47.9-15.46-73.59-63.27-65.97-104.86Z"/>
  </g>
  <g>
    <path class="cls-1" d="m713.29,296.04c-3.06-64.38-29.73-205.75-121.52-229.62-93.42-24.3-192.55,89.18-230.11,175.34-9.57,21.95-57.48,131.89,0,226.55,8.13,13.38,42.74,68.43,110.92,84.96,87.41,21.19,157.51-38.5,169.91-49.56,77.38-68.98,72.43-173.19,70.8-207.67Z"/>
    <path class="cls-3" d="m713.29,279.97c-3.06-64.38-29.73-205.75-121.52-229.62-93.42-24.3-192.55,89.18-230.11,175.34-9.57,21.95-57.48,131.89,0,226.55,8.13,13.38,42.74,68.43,110.92,84.96,87.41,21.19,157.51-38.5,169.91-49.56,77.38-68.98,72.43-173.19,70.8-207.67Z"/>
    <path class="cls-4" d="m659.34,295.72c-7.84-42.81-41.89-98.47-100.96-110.92-86.55-18.23-186.72,64.77-191.88,146.31-.36,5.68-3.57,78.94,64.15,115.64,57.41,31.12,120.94,11.63,127.73,9.44,73.3-23.65,112.62-96.82,100.96-160.47Z"/>
    <path class="cls-2" d="m608.94,305.26c-5.12-27.97-27.37-64.35-65.97-72.48-56.56-11.91-122.01,42.32-125.39,95.61-.23,3.71-2.33,51.58,41.92,75.56,37.52,20.33,79.03,7.6,83.47,6.17,47.9-15.46,73.59-63.27,65.97-104.86Z"/>
  </g>
</svg>