<?xml version="1.0" encoding="UTF-8"?><svg id="Layer_1" xmlns="http://www.w3.org/2000/svg" xmlns:xlink="http://www.w3.org/1999/xlink" viewBox="0 0 580.84 392.23"><defs><style>.cls-1{fill:#f6f6ee;}.cls-2{fill:#eae5e1;}.cls-3{fill:#e9e6e1;}.cls-4{fill:#fff;}.cls-5{fill:#fefefe;}.cls-6{fill:#ced1c0;}.cls-7{fill:#a6aa91;}.cls-8{fill:#56250e;}.cls-9{fill:#64381f;}.cls-10{fill:#5f2c0e;}.cls-11{fill:#532104;}.cls-12{filter:url(#drop-shadow-1);}</style><filter id="drop-shadow-1" filterUnits="userSpaceOnUse"><feOffset dx="7" dy="7"/><feGaussianBlur result="blur" stdDeviation="5"/><feFlood flood-color="#000" flood-opacity=".3"/><feComposite in2="blur" operator="in"/><feComposite in="SourceGraphic"/></filter></defs><g class="cls-12"><g><path class="cls-4" d="m53.68,94.46C42.64,85.07-.02,105.36,0,132.05c.02,26.73,42.84,46.92,53.68,37.59,3.12-2.68,2.23-6.65,2.21-34.5-.03-33.31,1.24-37.76-2.21-40.69Z"/><path class="cls-4" d="m53.9,99.42c-10.03-8.14-48.8,9.45-48.79,32.58.02,23.17,38.93,40.67,48.79,32.58,2.84-2.33,2.03-5.76,2.01-29.9-.02-28.87,1.12-32.73-2.01-35.27Z"/><path class="cls-4" d="m54.13,105.12c-9.03-6.72-43.91,7.81-43.89,26.93.01,19.15,35.03,33.61,43.89,26.93,2.55-1.92,1.83-4.76,1.81-24.71-.02-23.86,1.01-27.04-1.81-29.14Z"/><path class="cls-4" d="m55.01,112.9c-7.71-4.91-37.48,5.71-37.47,19.68.01,13.99,29.9,24.56,37.47,19.68,2.18-1.41,1.56-3.48,1.54-18.06-.02-17.44.86-19.76-1.54-21.3Z"/></g><g><path class="cls-4" d="m527.16,93.93c11.04-9.39,53.7,10.9,53.68,37.59-.02,26.73-42.84,46.92-53.68,37.59-3.12-2.68-2.23-6.65-2.21-34.5.03-33.31-1.24-37.76,2.21-40.69Z"/><path class="cls-4" d="m526.94,98.88c10.03-8.14,48.8,9.45,48.79,32.58-.02,23.17-38.93,40.67-48.79,32.58-2.84-2.33-2.03-5.76-2.01-29.9.02-28.87-1.12-32.73,2.01-35.27Z"/><path class="cls-4" d="m526.72,104.59c9.03-6.72,43.91,7.81,43.89,26.93-.01,19.15-35.03,33.61-43.89,26.93-2.55-1.92-1.83-4.76-1.81-24.71.02-23.86-1.01-27.04,1.81-29.14Z"/><path class="cls-4" d="m525.83,112.37c7.71-4.91,37.48,5.71,37.47,19.68-.01,13.99-29.9,24.56-37.47,19.68-2.18-1.41-1.56-3.48-1.54-18.06.02-17.44-.86-19.76,1.54-21.3Z"/></g><path class="cls-4" d="m37.14,68.31l8.47,244.95c-.02,6.27.82,18.28,8.02,30.11,4.68,7.69,10.65,12.98,17.83,17.79,18.29,12.25,38.69,17.53,76.66,22.81,26.89,3.74,47.07,5.32,49.03,5.47,37.63,2.89,66.62,2.85,82.46,2.77,0,0,117.29-.58,194.77-17.37,9.47-2.05,28.51-6.55,42.79-22.81,8.05-9.17,11.69-18.77,14.26-26.91,10.82-34.25,8.88-61.64,9.36-121.79.07-9.38.24-18.8.24-18.8.04-2.3.08-3.94.1-4.56.24-10.7.49-29.7.55-37.3.11-14.58-.08-40.83-.89-74.35-7.64,4.08-18.2,9.24-31.2,14.14-6.99,2.63-26.99,9.83-59.16,14.87-17.29,2.71-30.65,3.63-53.61,4.75-33.77,1.64-61.94,3.01-104.29,3.19-20.94.09-44.41-.48-91.33-1.63-13.94-.34-31.89-.82-55.37-3.45-15.1-1.69-26.96-3.65-37.05-5.63-14.42-2.84-24.27-4.78-36.76-9.26-9.1-3.26-21.28-8.48-34.88-16.97Z"/><path class="cls-4" d="m47.81,74.49l8.12,231.69c-.02,5.93.78,17.29,7.69,28.48,4.49,7.27,10.2,12.27,17.09,16.83,17.52,11.59,37.08,16.58,73.47,21.57,25.77,3.54,45.11,5.04,46.98,5.18,36.06,2.73,63.84,2.7,79.02,2.62,0,0,112.4-.55,186.65-16.43,9.07-1.94,27.32-6.19,41.01-21.57,7.72-8.67,11.2-17.75,13.67-25.46,10.37-32.39,8.51-58.3,8.97-115.2.24-29.36.78-28.02.85-57.38.08-28.49-.37-52.52-.85-70.33-7.32,3.86-17.44,8.74-29.9,13.38-6.69,2.49-25.87,9.29-56.69,14.06-16.57,2.56-29.37,3.44-51.37,4.49-32.37,1.55-59.36,2.84-99.95,3.02-20.07.09-42.56-.46-87.53-1.54-13.36-.32-30.56-.78-53.06-3.26-14.47-1.6-25.83-3.45-35.5-5.33-13.82-2.69-23.26-4.52-35.23-8.76-8.72-3.09-20.39-8.02-33.42-16.06Z"/><path class="cls-4" d="m530.84,73.44c-13.91,7.54-32.1,15.81-54.2,22.08-24.71,7.01-46.68,9.36-63.64,9.92,2.49,63.8,4.99,127.6,7.48,191.4.37,7.95-.13,19.05-4.12,31.42-8.94,27.74-29.29,42.85-37.04,48.02,13.33-.64,32.34-2.05,55.04-5.48,38.77-5.87,51.26-9.54,62.42-18.24,9.54-7.44,14.81-15.42,17.88-20.16,15.13-23.32,14.84-45.22,15.8-118.65.58-44.18.75-41.34.83-63.42.12-31.85-.16-58.29-.45-76.88Z"/><path class="cls-4" d="m46.91,73.76c3.2,1.98,6.72,4,10.57,5.96,3.25,1.66,6.39,3.1,9.37,4.37-1.98,46.91-2.53,85.94-2.56,115.52,0,8.01.95,29.18,2.88,71.51.93,20.37,1.58,32.69,6.73,48.22,5.99,18.08,15.04,31.33,21.62,39.57-3.44-1.45-8.09-3.65-13.29-6.88-4.56-2.83-8.37-5.2-12.49-9.38-2.14-2.18-6.86-7.38-10.25-15.21-3.35-7.75-3.81-14.37-4.16-20.39-1.17-19.76-1.76-29.65-1.91-44-.09-8.71-.38-17.35-.97-34.64-.94-27.56-1.68-31.35-2.56-56.95-.64-18.56-.37-20.48-.96-43.36-.6-23.27-1.41-42.11-2-54.34Z"/><ellipse class="cls-4" cx="289.07" cy="70.26" rx="251.71" ry="38.13"/><ellipse class="cls-4" cx="289.55" cy="70.26" rx="239.65" ry="31.04"/><ellipse class="cls-4" cx="290.42" cy="70.23" rx="233.72" ry="27.16"/><path class="cls-4" d="m90.64,81.25c33.3-4.48,68.25-8.04,104.74-10.36,110.38-7,210.48-1.05,297.29,10.68,12.27-2.79,26.5-6.89,26.4-11.5-.14-6.41-27.92-11.05-57.47-14.71-69.98-8.64-125.07-8.65-180.35-8.41-45.88.19-97,.57-161.06,8.66-31.81,4.02-58.64,8.91-58.7,14.96-.03,3.2,7.42,5.91,14.1,7.77"/><path class="cls-4" d="m100.31,83.25s.64-.09,1.9-.26c18.3-2.4,167.43-20.39,379.25.26,0,0-49.5,8.83-183.48,8.62-35.63.65-75,.18-117.44-2.16-28.49-1.57-55.28-3.81-80.23-6.46Z"/></g><g><g><path class="cls-8" d="m62.59,95.99c-10.6-8.93-51.58,10.36-51.56,35.74.02,25.42,41.15,44.61,51.56,35.74,3-2.55,2.15-6.32,2.12-32.8-.03-31.67,1.19-35.9-2.12-38.69Z"/><path class="cls-7" d="m62.8,100.7c-9.64-7.74-46.88,8.98-46.86,30.98.01,22.03,37.4,38.67,46.86,30.98,2.73-2.21,1.95-5.48,1.93-28.43-.02-27.45,1.08-31.12-1.93-33.53Z"/><path class="cls-9" d="m63.01,106.13c-8.67-6.39-42.17,7.42-42.16,25.6.01,18.21,33.64,31.95,42.16,25.6,2.45-1.83,1.75-4.53,1.74-23.49-.02-22.69.97-25.71-1.74-27.71Z"/><path class="cls-5" d="m63.87,113.53c-7.4-4.67-36,5.43-35.99,18.71.01,13.31,28.72,23.35,35.99,18.71,2.09-1.34,1.5-3.31,1.48-17.17-.02-16.58.83-18.79-1.48-20.25Z"/></g><g><path class="cls-8" d="m517.36,95.49c10.6-8.93,51.58,10.36,51.56,35.74-.02,25.42-41.15,44.61-51.56,35.74-3-2.55-2.15-6.32-2.12-32.8.03-31.67-1.19-35.9,2.12-38.69Z"/><path class="cls-7" d="m517.15,100.2c9.64-7.74,46.88,8.98,46.86,30.98-.01,22.03-37.4,38.67-46.86,30.98-2.73-2.21-1.95-5.48-1.93-28.43.02-27.45-1.08-31.12,1.93-33.53Z"/><path class="cls-9" d="m516.94,105.63c8.67-6.39,42.17,7.42,42.16,25.6-.01,18.21-33.64,31.95-42.16,25.6-2.45-1.83-1.75-4.53-1.74-23.49.02-22.69-.97-25.71,1.74-27.71Z"/><path class="cls-5" d="m516.09,113.02c7.4-4.67,36,5.43,35.99,18.71-.01,13.31-28.72,23.35-35.99,18.71-2.09-1.34-1.5-3.31-1.48-17.17.02-16.58-.83-18.79,1.48-20.25Z"/></g><path class="cls-10" d="m46.7,71.13l8.13,232.91c-.02,5.96.78,17.38,7.71,28.63,4.5,7.31,10.23,12.34,17.12,16.92,17.56,11.65,37.17,16.67,73.63,21.69,25.83,3.56,45.21,5.06,47.09,5.2,36.14,2.75,63.99,2.71,79.2,2.64,0,0,112.66-.55,187.08-16.52,9.09-1.95,27.38-6.23,41.1-21.68,7.74-8.72,11.22-17.84,13.7-25.59,10.39-32.56,8.53-58.61,8.99-115.8.24-29.51.78-28.17.86-57.69.08-28.64-.37-52.8-.86-70.7-7.33,3.88-17.48,8.79-29.97,13.45-6.71,2.5-25.93,9.34-56.82,14.14-16.6,2.58-29.44,3.45-51.49,4.51-32.44,1.56-59.49,2.86-100.17,3.04-20.11.09-42.65-.46-87.73-1.55-13.39-.32-30.63-.78-53.18-3.28-14.5-1.61-25.89-3.47-35.59-5.36-13.85-2.7-23.31-4.54-35.31-8.8-8.74-3.1-20.44-8.06-33.5-16.14Z"/><path class="cls-6" d="m56.95,77.01l7.79,220.31c-.02,5.64.75,16.44,7.38,27.08,4.31,6.91,9.8,11.67,16.41,16,16.83,11.02,35.62,15.76,70.56,20.51,24.75,3.36,43.33,4.79,45.13,4.92,34.64,2.6,61.32,2.56,75.9,2.49,0,0,107.96-.52,179.28-15.62,8.71-1.84,26.24-5.89,39.39-20.51,7.41-8.25,10.76-16.88,13.13-24.21,9.96-30.8,8.17-55.44,8.62-109.54.23-27.91.75-26.64.82-54.56.07-27.09-.36-49.94-.82-66.87-7.03,3.67-16.75,8.31-28.72,12.72-6.43,2.37-24.85,8.84-54.45,13.37-15.91,2.44-28.21,3.27-49.34,4.27-31.09,1.47-57.01,2.7-96,2.87-19.28.08-40.87-.43-84.07-1.47-12.84-.31-29.36-.74-50.96-3.1-13.9-1.52-24.81-3.28-34.1-5.07-13.27-2.55-22.34-4.3-33.84-8.33-8.38-2.93-19.59-7.62-32.1-15.27Z"/><path class="cls-7" d="m520.91,76.01c-13.37,7.17-30.83,15.03-52.06,20.99-23.74,6.67-44.83,8.9-61.13,9.44,2.39,60.66,4.79,121.33,7.18,181.99.36,7.56-.13,18.12-3.96,29.87-8.59,26.38-28.13,40.74-35.58,45.66,12.8-.61,31.07-1.95,52.87-5.21,37.23-5.58,49.24-9.07,59.95-17.35,9.16-7.08,14.23-14.67,17.18-19.17,14.53-22.17,14.25-43,15.18-112.82.56-42.01.72-39.3.8-60.3.11-30.28-.16-55.43-.43-73.1Z"/><path class="cls-1" d="m56.09,76.31c3.07,1.89,6.45,3.8,10.15,5.67,3.12,1.58,6.13,2.95,9,4.15-1.9,44.6-2.43,81.72-2.46,109.85,0,7.61.92,27.74,2.77,68,.89,19.37,1.52,31.09,6.46,45.85,5.76,17.19,14.44,29.79,20.76,37.62-3.3-1.38-7.77-3.47-12.76-6.54-4.38-2.69-8.04-4.94-12-8.92-2.06-2.07-6.59-7.02-9.85-14.46-3.22-7.37-3.66-13.67-4-19.38-1.13-18.79-1.69-28.19-1.83-41.84-.09-8.28-.37-16.5-.94-32.93-.9-26.21-1.62-29.81-2.46-54.15-.61-17.65-.36-19.48-.92-41.23-.58-22.13-1.35-40.05-1.92-51.67Z"/><ellipse class="cls-10" cx="288.68" cy="72.98" rx="241.77" ry="36.25"/><ellipse class="cls-2" cx="289.14" cy="72.98" rx="230.19" ry="29.52"/><ellipse class="cls-11" cx="289.98" cy="72.96" rx="224.49" ry="25.83"/><path class="cls-3" d="m111.11,85.05c4.15.5,10.82,1.28,19.01,2.15,127.76,13.68,226.83,8.31,265.69,5.57,21.74-1.53,52.09-4.17,88.43-9.02,11.73-2.64,25.45-6.55,25.36-10.94-.14-6.09-26.81-10.51-55.2-13.98-67.22-8.22-120.13-8.22-173.23-8-44.06.18-93.17.54-154.7,8.24-30.55,3.82-56.32,8.47-56.38,14.22-.03,3.04,7.13,5.62,13.54,7.38"/></g><path class="cls-4" d="m408.6,0c.52-.29,12.26,9.02,8.26,19.11-4,10.09-18.92,8.86-19.11,8.26-.18-.57,12.52-1.85,15.61-9.79,3.07-7.87-5.25-17.31-4.76-17.58Z"/></svg>