<?xml version="1.0" encoding="UTF-8"?>
<svg id="Layer_1" data-name="Layer 1" xmlns="http://www.w3.org/2000/svg" xmlns:xlink="http://www.w3.org/1999/xlink" viewBox="0 0 605 922.83">
  <defs>
    <style>
      .cls-1 {
        fill: #fff6db;
      }

      .cls-2 {
        fill: #e6cc98;
      }

      .cls-3 {
        fill: #fff;
        filter: url(#drop-shadow-1);
      }
    </style>
    <filter id="drop-shadow-1" filterUnits="userSpaceOnUse">
      <feOffset dx="9.25" dy="9.25"/>
      <feGaussianBlur result="blur" stdDeviation="6.61"/>
      <feFlood flood-color="#000" flood-opacity=".3"/>
      <feComposite in2="blur" operator="in"/>
      <feComposite in="SourceGraphic"/>
    </filter>
  </defs>
  <path class="cls-3" d="m63.51,220.98c11.97,20.78,4.98,50.35,0,71.37-3.68,15.55-7.56,22.41-7.93,38.33-.39,16.59,3.36,28.45,5.29,35.69,6.25,23.47,4.2,39.25,2.64,79.3-1.28,32.93-1.29,69.09-1.32,141.43-.05,115.77,7.1,113.03,5.29,171.83,0,0-.63,20.48,3.97,54.19,4.37,32.04,9.47,42.37,15.86,50.23,2.67,3.28,17.82,21.88,37.01,19.83,13.47-1.44,22.34-12.35,25.11-15.86,22.18-28.09,1.69-60.75,10.57-132.17,2.28-18.35,6.08-35.86,7.93-35.69,2.36.22-.4,29.06,2.64,67.41,2.6,32.8,7,88.21,29.08,93.84,11.59,2.96,25.29-8.51,27.76-10.57,12.72-10.65,10.78-21.32,25.11-31.72,2.46-1.79,14.89-10.81,22.47-6.61,5.75,3.18,2.55,10.56,9.25,19.83,5.77,7.98,15.74,13,25.11,13.22,6.91.16,12.18-2.31,18.5-5.29,13.71-6.45,17.6-13.59,21.15-11.9,4.57,2.19-1.59,14.18,5.29,27.76,1.28,2.54,5.13,9.87,13.22,13.22,7.92,3.28,15.83,1.03,18.5,0,24.34-9.37,20.88-73.95,26.43-74.02,3.68-.05,3.22,28.34,18.5,60.8,6.54,13.89,17.28,36.7,33.04,37.01,10.33.2,20.68-9.3,25.11-18.5,6.24-12.95-.77-22.12,6.61-37.01,3.69-7.45,7.69-9.67,11.9-14.54,17.38-20.12,6.78-48.94,7.93-93.84.33-12.82,1.18-10,6.61-52.87,9.37-74,13.46-134.77,15.86-170.5,3.91-58.07,5.86-87.11,5.29-91.2-.67-4.78-2.29-14.7,1.32-26.43,6.35-20.6,20.94-21.13,27.76-35.69,10.6-22.64-16.08-39.85-26.43-96.49-3.1-16.95-5.63-30.79-2.64-48.9,6.37-38.65,29.23-44.46,30.4-71.37,1.36-31.31-27.93-60.87-52.87-74.02-30.77-16.22-40.97-.1-87.23-13.22-49.79-14.11-53.26-37.11-89.88-37.01-28.61.08-31.09,14.13-64.77,14.54-35.8.43-40.39-15.36-68.73-13.22-31.27,2.36-33.57,22.18-77.98,42.3-48.39,21.92-62.52,6.03-87.23,26.43C12.79,107.47,1.4,163.66,21.21,190.58c13.11,17.81,30.86,10.54,42.3,30.4Z"/>
  <g>
    <g>
      <g>
        <path class="cls-1" d="m248.21,140.83h-50.47c.66,39.1,1.07,92.92,0,157.02-.51,30.56-1.28,57.75-2.09,81-1.5,43.13-3.17,74.7-3.52,81.63-2.13,41.64-3.96,123.26-3.1,296.36h51.64c-1.8-110.79-.07-200.35,1.93-262.72,1.92-60.06,4.54-102.74,5.61-179.45,1-72.2.59-132.08,0-173.84Z"/>
        <path d="m241.35,757.5h-52.97v-.66c-.71-142.71.33-242.43,3.09-296.4l.06-1.21c1.35-26.16,2.51-53.21,3.46-80.41.93-26.76,1.63-54.01,2.09-80.98.87-52.32.87-105.14,0-156.99v-.67s51.78,0,51.78,0v.65c.81,57.32.81,115.82,0,173.86-.72,51.85-2.18,88.93-3.6,124.78-.68,17.31-1.39,35.21-2.01,54.68-2.72,85.3-3.37,173.68-1.93,262.68v.67Zm-51.64-1.32h50.31c-1.43-88.8-.78-176.97,1.94-262.08.62-19.47,1.33-37.37,2.01-54.69,1.41-35.85,2.88-72.92,3.6-124.75.8-57.81.8-116.07,0-173.17h-49.15c.86,51.65.86,104.26-.01,156.37-.45,26.98-1.15,54.24-2.09,81.01-.95,27.2-2.11,54.26-3.46,80.43l-.06,1.21c-2.76,53.86-3.8,153.33-3.1,295.67Z"/>
      </g>
      <path d="m303.44,91.43c2.98,19.26-1.61,46.01-19.08,59.48-9.14,7.04-26.36,6.99-60.43,6.61-29.97-.34-45.26-.44-54.07-6.61-19.34-13.53-27.55-38.81-25.45-59.48,3.83-37.58,42.44-66.09,79.52-66.09s73.88,29.63,79.52,66.09Z"/>
      <path class="cls-2" d="m297.48,92.75c2.62,16.34-1.42,39.04-16.82,50.47-8.05,5.97-23.24,5.93-53.27,5.61-26.42-.29-39.89-.37-47.67-5.61-17.05-11.48-24.29-32.93-22.43-50.47,3.38-31.89,37.42-56.08,70.1-56.08s65.13,25.14,70.1,56.08Z"/>
      <path class="cls-1" d="m285.91,87.5c2.49,15.51-1.35,37.05-15.97,47.9-7.64,5.67-22.05,5.63-50.56,5.32-25.07-.27-37.86-.36-45.24-5.32-16.18-10.89-23.05-31.26-21.29-47.9,3.21-30.26,35.51-53.22,66.52-53.22s61.81,23.86,66.52,53.22Z"/>
    </g>
    <g>
      <g>
        <path class="cls-1" d="m229.77,251.49h-50.47c.66,39.1,1.07,92.92,0,157.02-.51,30.56-1.28,57.75-2.09,80.99-1.19,34.15-2.48,61.08-3.13,74.05-.21,4.17-.37,7.18-.39,7.58-1.19,23.14,1.02,86.65,11.66,237.34-1.29,24.43,12.19,40.68,22.13,40.58,9.01-.09,20.06-13.66,22.13-33.2-5.84-89.29-6.19-161.7-5.45-211.07.98-64.91,4.48-97.96,5.61-179.45,1-72.2.59-132.08,0-173.84Z"/>
        <path d="m207.38,849.71c-3.76,0-7.87-2.13-11.59-6.02-7.7-8.03-11.85-21.21-11.11-35.25-9.17-129.72-13.09-209.6-11.66-237.34.02-.4.18-3.41.39-7.58.82-16.37,2.03-42.5,3.13-74.04.93-26.75,1.63-54,2.09-80.98.87-52.31.87-105.13,0-157v-.67s51.78,0,51.78,0v.65c.81,57.33.81,115.82,0,173.86-.6,43.48-1.87,72.86-3.09,101.27-1.06,24.64-2.06,47.91-2.52,78.18-1.04,68.93.8,139.93,5.45,211.02v.06s0,.06,0,.06c-2.14,20.09-13.5,33.69-22.78,33.79h-.1Zm-27.42-597.56c.86,51.66.86,104.27-.01,156.37-.45,26.99-1.15,54.25-2.09,81.01-1.1,31.55-2.31,57.69-3.14,74.06-.21,4.17-.37,7.18-.39,7.58-1.43,27.69,2.49,107.51,11.66,237.26-.72,13.77,3.29,26.58,10.74,34.35,3.5,3.65,7.33,5.66,10.73,5.61,10.62-.11,19.83-17.23,21.48-32.55-4.65-71.11-6.49-142.12-5.45-211.07.46-30.29,1.46-53.57,2.52-78.22,1.22-28.4,2.49-57.77,3.09-101.23.8-57.81.8-116.07,0-173.17h-49.15Z"/>
      </g>
      <path d="m285,202.09c2.98,19.26-1.61,46.01-19.08,59.48-9.14,7.04-26.36,6.99-60.43,6.61-29.97-.34-45.26-.44-54.07-6.61-19.34-13.53-27.55-38.81-25.45-59.48,3.83-37.58,42.44-66.09,79.52-66.09s73.88,29.63,79.52,66.09Z"/>
      <path class="cls-2" d="m279.04,203.41c2.62,16.34-1.42,39.04-16.82,50.47-8.05,5.97-23.24,5.93-53.27,5.61-26.42-.29-39.89-.37-47.67-5.61-17.05-11.48-24.29-32.93-22.43-50.47,3.38-31.89,37.42-56.08,70.1-56.08s65.13,25.14,70.1,56.08Z"/>
      <path class="cls-1" d="m267.47,198.16c2.49,15.51-1.35,37.05-15.97,47.9-7.64,5.67-22.05,5.63-50.56,5.32-25.07-.27-37.86-.36-45.24-5.32-16.18-10.89-23.05-31.26-21.29-47.9,3.21-30.26,35.51-53.22,66.52-53.22s61.81,23.86,66.52,53.22Z"/>
    </g>
    <g>
      <g>
        <path class="cls-1" d="m366.25,137.14h-50.47c.66,39.1,1.07,92.92,0,157.02-.51,30.56-1.28,57.75-2.09,81-1.55,44.4-3.27,76.61-3.52,81.63-2.09,41.37,1.02,130.42,22.72,336.94,3.04,13.15,16.36,21.48,29.51,18.44s21.48-16.36,18.44-29.51c-19.2-125.03-21.63-224.21-20.21-292.22,1-47.57,4.36-89.55,5.61-179.45,1-72.2.59-132.08,0-173.84Z"/>
        <path d="m356.9,813.46c-4.68,0-9.29-1.32-13.39-3.88-5.75-3.59-9.75-9.17-11.25-15.7-17.83-169.62-25.48-283.02-22.74-337.12l.09-1.68c1.33-25.9,2.49-52.79,3.44-79.94.93-26.75,1.63-54,2.08-80.98.88-52.31.88-105.13,0-157v-.67s51.78,0,51.78,0v.65c.81,57.36.81,115.86,0,173.86-.77,55.17-2.3,91.59-3.65,123.73-.84,20.04-1.57,37.34-1.96,55.72-1.96,93.77,4.83,192.05,20.2,292.11,3.12,13.53-5.37,27.12-18.95,30.25-1.88.43-3.77.65-5.65.65Zm-40.45-675.65c.86,51.66.86,104.27-.01,156.37-.45,26.99-1.15,54.25-2.09,81.01-.95,27.15-2.1,54.05-3.44,79.96l-.09,1.68c-2.73,54.04,4.91,167.36,22.72,336.83,1.42,6.11,5.2,11.39,10.65,14.8,5.45,3.41,11.86,4.5,18.05,3.07,12.87-2.97,20.92-15.85,17.95-28.72-15.39-100.18-22.19-198.54-20.22-292.39.39-18.39,1.11-35.7,1.96-55.75,1.35-32.13,2.88-68.55,3.65-123.69.8-57.77.8-116.03,0-173.17h-49.15Z"/>
      </g>
      <path d="m421.48,87.74c2.98,19.26-1.61,46.01-19.08,59.48-9.14,7.04-26.36,6.99-60.43,6.61-29.97-.34-45.26-.44-54.07-6.61-19.34-13.53-27.55-38.81-25.45-59.48,3.83-37.58,42.44-66.09,79.52-66.09s73.88,29.63,79.52,66.09Z"/>
      <path class="cls-2" d="m415.52,89.06c2.62,16.34-1.42,39.04-16.82,50.47-8.05,5.97-23.24,5.93-53.27,5.61-26.42-.29-39.89-.37-47.67-5.61-17.05-11.48-24.29-32.93-22.43-50.47,3.38-31.89,37.42-56.08,70.1-56.08s65.13,25.14,70.1,56.08Z"/>
      <path class="cls-1" d="m403.95,83.82c2.49,15.51-1.35,37.05-15.97,47.9-7.64,5.67-22.05,5.63-50.56,5.32-25.07-.27-37.86-.36-45.24-5.32-16.18-10.89-23.05-31.26-21.29-47.9,3.21-30.26,35.51-53.22,66.52-53.22s61.81,23.86,66.52,53.22Z"/>
    </g>
    <g>
      <g>
        <path class="cls-1" d="m323.63,247.8h-50.47c.66,39.1,1.07,92.92,0,157.02-.51,30.56-1.28,57.75-2.09,80.99-1.13,32.34-2.34,58.08-3.02,71.74-.21,4.24-.38,7.6-.46,9.09-.03.54-.04.78-.04.8-.16,3.11,6.64,72.25,24.76,248.41,4.04,11.49,15.8,17.58,25.82,14.75,7.78-2.2,13.7-9.54,14.75-18.44-12.35-89.27-14.84-161.7-14.87-211.07-.03-60.47,4.4-92.33,5.61-179.45,1-72.2.59-132.08,0-173.84Z"/>
        <path d="m313.12,831.96c-9.11,0-18.07-6.33-21.43-15.88l-.03-.15c-16.84-163.74-24.94-245.03-24.76-248.51l.04-.8c.08-1.48.25-4.85.46-9.09,1.14-22.88,2.18-47.69,3.02-71.73.93-26.73,1.63-53.98,2.09-80.98.87-52.3.87-105.12,0-156.99v-.67s51.78,0,51.78,0v.65c.81,57.33.81,115.83,0,173.86-.61,43.67-2.03,73.55-3.28,99.92-1.26,26.49-2.35,49.37-2.33,79.52.04,68.96,5.04,139.95,14.86,210.98v.08s0,.08,0,.08c-1.08,9.1-7.2,16.74-15.23,19-1.71.48-3.46.71-5.19.71Zm-20.16-16.25c3.8,10.69,15,17.08,24.99,14.27,7.5-2.12,13.22-9.26,14.27-17.8-9.82-71.06-14.83-142.08-14.86-211.08-.02-30.18,1.07-53.08,2.33-79.59,1.25-26.35,2.67-56.22,3.28-99.87.8-57.8.8-116.06,0-173.17h-49.15c.86,51.67.86,104.28-.01,156.37-.45,27.01-1.15,54.27-2.09,81.01-.84,24.05-1.88,48.86-3.02,71.75-.21,4.24-.38,7.6-.46,9.09l-.04.8c-.17,3.37,8.15,86.9,24.75,248.23Z"/>
      </g>
      <path d="m378.87,198.4c2.98,19.26-1.61,46.01-19.08,59.48-9.14,7.04-26.36,6.99-60.43,6.61-29.97-.34-45.26-.44-54.07-6.61-19.34-13.53-27.55-38.81-25.45-59.48,3.83-37.58,42.44-66.09,79.52-66.09s73.88,29.63,79.52,66.09Z"/>
      <path class="cls-2" d="m372.9,199.72c2.62,16.34-1.42,39.04-16.82,50.47-8.05,5.97-23.24,5.93-53.27,5.61-26.42-.29-39.89-.37-47.67-5.61-17.05-11.48-24.29-32.93-22.43-50.47,3.38-31.89,37.42-56.08,70.1-56.08s65.13,25.14,70.1,56.08Z"/>
      <path class="cls-1" d="m361.33,194.47c2.49,15.51-1.35,37.05-15.97,47.9-7.64,5.67-22.05,5.63-50.56,5.32-25.07-.27-37.86-.36-45.24-5.32-16.18-10.89-23.05-31.26-21.29-47.9,3.21-30.26,35.51-53.22,66.52-53.22s61.81,23.86,66.52,53.22Z"/>
    </g>
    <g>
      <g>
        <path class="cls-1" d="m250.23,330.99h-39.15c.51,30.33.83,72.07,0,121.79-.4,23.71-.99,44.8-1.62,62.82-1.17,33.45-2.46,57.94-2.73,63.31-1.65,32.29-3.07,95.61-2.4,229.86,1.26,9.73,8.88,17.22,17.89,18.15,10.39,1.07,20.55-6.79,22.16-18.15-1.4-85.93-.05-155.4,1.49-203.77,1.49-46.59,3.52-79.69,4.35-139.18.78-56,.45-102.45,0-134.83Z"/>
        <path d="m224.16,827.68c-.66,0-1.33-.03-1.99-.1-9.43-.97-17.2-8.84-18.48-18.72-.56-110.77.25-188.12,2.4-229.98l.05-.94c1.04-20.29,1.95-41.27,2.68-62.37.72-20.72,1.27-41.86,1.62-62.81.68-40.57.68-81.53,0-121.76v-.67s40.46,0,40.46,0v.65c.63,44.46.63,89.84,0,134.85-.56,40.21-1.69,68.97-2.79,96.78-.53,13.43-1.08,27.31-1.56,42.42-2.11,66.17-2.62,134.72-1.49,203.74v.05s0,.05,0,.05c-1.52,10.76-10.67,18.82-20.89,18.82Zm-12.4-496.03c.67,40.03.66,80.78-.01,121.14-.35,20.96-.9,42.1-1.62,62.83-.74,21.1-1.64,42.09-2.68,62.39l-.05.94c-2.14,41.83-2.95,119.16-2.4,229.83,1.2,9.19,8.48,16.58,17.3,17.49,10.29,1.06,19.89-6.8,21.43-17.53-1.12-69.02-.62-137.57,1.49-203.75.48-15.11,1.03-29,1.56-42.43,1.1-27.8,2.23-56.55,2.79-96.75.62-44.79.62-89.92,0-134.17h-37.82Z"/>
      </g>
      <path d="m293.08,292.67c2.31,14.94-1.25,35.69-14.8,46.13-7.09,5.46-20.44,5.42-46.87,5.13-23.25-.26-35.1-.34-41.94-5.13-15-10.49-21.37-30.11-19.74-46.13,2.97-29.15,32.92-51.26,61.68-51.26s57.31,22.98,61.68,51.26Z"/>
      <path class="cls-2" d="m288.45,293.69c2.03,12.67-1.1,30.28-13.05,39.15-6.25,4.63-18.02,4.6-41.32,4.35-20.49-.22-30.94-.29-36.97-4.35-13.22-8.9-18.84-25.54-17.4-39.15,2.62-24.73,29.02-43.49,54.37-43.49s50.52,19.5,54.37,43.49Z"/>
      <path class="cls-1" d="m279.48,289.62c1.93,12.03-1.05,28.74-12.38,37.15-5.93,4.4-17.1,4.37-39.21,4.13-19.45-.21-29.36-.28-35.09-4.13-12.55-8.45-17.88-24.24-16.51-37.15,2.49-23.47,27.54-41.28,51.6-41.28s47.94,18.51,51.6,41.28Z"/>
    </g>
    <g>
      <g>
        <path class="cls-1" d="m236.74,387.97c11.07,0,22.13,0,33.2,0-.43,25.72-.7,61.12,0,103.28.42,25.06,1.12,67.2,3.69,106.97,2.87,44.42,9.43,107.25,25.82,184.43.69,8.34-3.27,15.89-9.22,18.44-8.16,3.49-20.64-2.16-23.98-14.75-16.35-69-22.91-125.93-25.82-165.99-2.54-34.94-2.97-66.4-3.69-118.04-.66-47.49-.39-86.88,0-114.35Z"/>
        <path d="m285.03,802.79c-2.58,0-5.29-.64-7.9-1.91-5.63-2.75-9.83-7.98-11.52-14.36-13.19-55.63-21.88-111.51-25.84-166.11-2.54-34.97-2.97-66.25-3.69-118.08-.53-38.16-.53-76.64,0-114.37v-.65h34.53v.67c-.59,34.12-.59,68.86-.01,103.26.42,25.15,1.12,67.2,3.69,106.94,3.86,59.86,12.54,121.88,25.81,184.34.71,8.61-3.24,16.46-9.61,19.19-1.68.72-3.53,1.08-5.46,1.08Zm-47.64-414.15c-.52,37.51-.52,75.75,0,113.68.72,51.8,1.15,83.07,3.69,118,3.96,54.53,12.64,110.34,25.8,165.88,1.59,5.99,5.53,10.91,10.82,13.49,4.2,2.05,8.67,2.35,12.25.81,5.85-2.5,9.48-9.82,8.82-17.78-13.26-62.44-21.96-124.52-25.82-184.44-2.57-39.77-3.27-81.84-3.69-106.98-.57-34.21-.58-68.74-.01-102.66h-31.87Z"/>
      </g>
      <path d="m200.4,355.48c-1.96,12.67,1.06,30.27,12.55,39.13,6.01,4.63,17.34,4.6,39.75,4.35,19.71-.22,29.77-.29,35.57-4.35,12.72-8.9,18.12-25.53,16.74-39.13-2.52-24.72-27.92-43.47-52.31-43.47-25.03,0-48.6,19.49-52.31,43.47Z"/>
      <path class="cls-2" d="m204.33,356.34c-1.73,10.75.93,25.68,11.07,33.2,5.3,3.93,15.28,3.9,35.04,3.69,17.38-.19,26.24-.25,31.35-3.69,11.21-7.55,15.98-21.66,14.75-33.2-2.22-20.98-24.61-36.89-46.11-36.89-22.06,0-42.84,16.54-46.11,36.89Z"/>
      <path class="cls-1" d="m211.94,352.89c-1.64,10.2.89,24.37,10.5,31.51,5.03,3.73,14.5,3.7,33.26,3.5,16.49-.18,24.9-.23,29.76-3.5,10.64-7.17,15.16-20.56,14-31.51-2.11-19.91-23.36-35.01-43.76-35.01-20.94,0-40.66,15.7-43.76,35.01Z"/>
    </g>
    <g>
      <g>
        <path class="cls-1" d="m502.73,174.03h-50.47c.66,39.1,1.07,92.92,0,157.02-.51,30.56-1.28,57.75-2.09,80.99-1.54,44.05-3.24,76.13-3.52,81.63-2.14,42.1-.99,125.69,11.66,303.74,5,11.84,15.82,19.25,25.82,18.44,13.65-1.1,26.5-17.59,22.13-36.89-9.54-106.61-10.27-192.56-9.14-251.65,1.1-57.78,4.42-94.13,5.61-179.45,1-72.2.59-132.08,0-173.84Z"/>
        <path d="m482.59,816.58c-10.04,0-20.1-7.56-24.9-18.91l-.05-.21c-10.49-147.6-14.41-249.82-11.66-303.82l.07-1.43c1.34-25.91,2.5-52.89,3.45-80.19.93-26.7,1.63-53.95,2.08-80.98.88-52.31.88-105.13,0-156.99v-.67s51.78,0,51.78,0v.65c.81,57.33.81,115.83,0,173.86-.68,48.96-2.09,82.35-3.33,111.81-.93,22.12-1.81,43.02-2.28,67.65-1.56,81.72,1.51,166.37,9.14,251.58,2.17,9.56.22,19.45-5.36,27.05-4.54,6.18-10.88,10.03-17.38,10.56-.53.04-1.06.06-1.59.06Zm-23.64-19.32c4.85,11.37,15.16,18.74,25.12,17.94,6.12-.49,12.1-4.15,16.42-10.02,5.36-7.29,7.22-16.79,5.12-26.06-7.64-85.35-10.72-170.04-9.16-251.81.47-24.64,1.35-45.54,2.28-67.68,1.24-29.45,2.65-62.83,3.33-111.77.8-57.8.8-116.06,0-173.17h-49.15c.86,51.66.86,104.27-.01,156.37-.45,27.04-1.16,54.3-2.09,81.01-.95,27.31-2.11,54.3-3.45,80.21l-.07,1.43c-2.75,53.93,1.17,156.06,11.65,303.55Z"/>
      </g>
      <path d="m557.96,124.63c2.98,19.26-1.61,46.01-19.08,59.48-9.14,7.04-26.36,6.99-60.43,6.61-29.97-.34-45.26-.44-54.07-6.61-19.34-13.53-27.55-38.81-25.45-59.48,3.83-37.58,42.44-66.09,79.52-66.09s73.88,29.63,79.52,66.09Z"/>
      <path class="cls-2" d="m552,125.95c2.62,16.34-1.42,39.04-16.82,50.47-8.05,5.97-23.24,5.93-53.27,5.61-26.42-.29-39.89-.37-47.67-5.61-17.05-11.48-24.29-32.93-22.43-50.47,3.38-31.89,37.42-56.08,70.1-56.08s65.13,25.14,70.1,56.08Z"/>
      <path class="cls-1" d="m540.43,120.7c2.49,15.51-1.35,37.05-15.97,47.9-7.64,5.67-22.05,5.63-50.56,5.32-25.07-.27-37.86-.36-45.24-5.32-16.18-10.89-23.05-31.26-21.29-47.9,3.21-30.26,35.51-53.22,66.52-53.22s61.81,23.86,66.52,53.22Z"/>
    </g>
    <g>
      <g>
        <path class="cls-1" d="m209.04,380.59h-22.23c.29,17.22.47,40.93,0,69.16-.28,16.78-.75,45-2.47,71.63-1.92,29.74-6.32,71.82-17.29,123.5-1.74,10.43,2.66,18.74,7.22,19.75,4.85,1.06,13.17-5.41,15-17.28,10.95-46.2,15.34-84.32,17.29-111.15,1.7-23.4,1.99-44.46,2.47-79.04.44-31.8.26-58.18,0-76.57Z"/>
        <path d="m175.37,665.4c-.43,0-.84-.04-1.24-.13-5.09-1.12-9.52-9.81-7.73-20.5,8.88-41.84,14.7-83.36,17.28-123.43,1.72-26.62,2.19-54.77,2.47-71.6.39-23.04.39-46.3,0-69.14v-.67s23.54,0,23.54,0v.65c.36,25.25.36,51.01,0,76.59-.48,34.71-.77,55.66-2.47,79.08-2.65,36.57-8.48,74-17.31,111.25-1.05,6.78-4.44,12.76-9.06,15.93-1.89,1.29-3.79,1.97-5.49,1.97Zm12.11-284.14c.37,22.64.37,45.68-.01,68.51-.28,16.83-.75,45.01-2.47,71.66-2.59,40.13-8.41,81.72-17.3,123.59-1.74,10.44,2.74,18.09,6.72,18.96,1.59.35,3.66-.25,5.69-1.64,4.33-2.97,7.51-8.61,8.52-15.09,8.82-37.23,14.63-74.59,17.28-111.09,1.7-23.38,1.99-44.31,2.47-78.99.35-25.35.35-50.88,0-75.9h-20.91Z"/>
      </g>
      <path d="m233.37,358.84c1.31,8.48-.71,20.27-8.41,26.2-4.02,3.1-11.61,3.08-26.62,2.91-13.2-.15-19.93-.19-23.82-2.91-8.52-5.96-12.14-17.1-11.21-26.2,1.69-16.55,18.69-29.11,35.02-29.11s32.54,13.05,35.02,29.11Z"/>
      <path class="cls-2" d="m230.74,359.42c1.16,7.2-.63,17.2-7.41,22.23-3.55,2.63-10.23,2.61-23.46,2.47-11.64-.13-17.57-.16-20.99-2.47-7.51-5.06-10.7-14.51-9.88-22.23,1.49-14.05,16.48-24.7,30.87-24.7s28.69,11.07,30.87,24.7Z"/>
      <path class="cls-1" d="m225.65,357.11c1.1,6.83-.59,16.32-7.03,21.1-3.37,2.5-9.71,2.48-22.27,2.34-11.04-.12-16.68-.16-19.92-2.34-7.13-4.8-10.15-13.77-9.38-21.1,1.41-13.33,15.64-23.44,29.3-23.44s27.22,10.51,29.3,23.44Z"/>
    </g>
    <g>
      <g>
        <path class="cls-1" d="m479.05,292.72h-50.47c.66,39.1,1.07,92.92,0,157.02-.51,30.56-1.28,57.76-2.09,80.99-1.05,30.02-2.15,54.18-3.11,73.53-5.23,105.88-12.05,200.47,16.47,237.42,3.72,4.82,12.7,16.45,22.13,14.75,9.1-1.64,13.6-14.77,14.75-18.44-3.94-80.38-4.01-146.19-3.3-191.98,1.05-68.36,4.52-101.18,5.61-179.45,1-72.2.59-132.08,0-173.84Z"/>
        <path d="m460.09,857.26c-9.03,0-17.15-10.51-20.75-15.18-26.89-34.82-22.58-119.74-17.6-218.07.33-6.54.67-13.14.99-19.79.8-16.16,1.99-41.36,3.11-73.52.93-26.75,1.63-54,2.08-80.98.88-52.31.88-105.13,0-157v-.67s51.78,0,51.78,0v.65c.81,57.33.81,115.83,0,173.86-.57,40.99-1.79,69.56-2.98,97.2-1.1,25.55-2.13,49.69-2.63,82.25-.97,62.91.14,127.49,3.3,191.94v.12s-.03.11-.03.11c-1.62,5.15-6.34,17.29-15.27,18.9-.68.12-1.35.18-2.02.18Zm-30.84-563.88c.86,51.66.86,104.27-.01,156.37-.45,27-1.15,54.25-2.09,81.01-1.12,32.17-2.31,57.38-3.11,73.54-.33,6.65-.66,13.25-.99,19.79-4.97,98.07-9.26,182.76,17.33,217.19,3.73,4.83,12.47,16.13,21.49,14.51,8.16-1.47,12.63-12.9,14.21-17.88-3.16-64.44-4.27-129-3.3-191.91.5-32.58,1.54-56.72,2.63-82.29,1.18-27.63,2.41-56.19,2.98-97.16.8-57.8.8-116.06,0-173.17h-49.15Z"/>
      </g>
      <path d="m534.29,243.31c2.98,19.26-1.61,46.01-19.08,59.48-9.14,7.04-26.36,6.99-60.43,6.61-29.97-.34-45.26-.44-54.07-6.61-19.34-13.53-27.55-38.81-25.45-59.48,3.83-37.58,42.44-66.09,79.52-66.09s73.88,29.63,79.52,66.09Z"/>
      <path class="cls-2" d="m528.32,244.63c2.62,16.34-1.42,39.04-16.82,50.47-8.05,5.97-23.24,5.93-53.27,5.61-26.42-.29-39.89-.37-47.67-5.61-17.05-11.48-24.29-32.93-22.43-50.47,3.38-31.89,37.42-56.08,70.1-56.08s65.13,25.14,70.1,56.08Z"/>
      <path class="cls-1" d="m516.76,239.39c2.49,15.51-1.35,37.05-15.97,47.9-7.64,5.67-22.05,5.63-50.56,5.32-25.07-.27-37.86-.36-45.24-5.32-16.18-10.89-23.05-31.26-21.29-47.9,3.21-30.26,35.51-53.22,66.52-53.22s61.81,23.86,66.52,53.22Z"/>
    </g>
    <g>
      <g>
        <path class="cls-1" d="m522.53,362.8h-33.2c.43,25.72.7,61.12,0,103.28-.42,25.06-1.12,67.2-3.69,106.97-2.87,44.42-9.43,107.25-25.82,184.43,1.37,7.04,6.6,12.61,13.23,14.11,7.88,1.78,16.36-2.49,19.96-10.42,16.35-69,22.91-125.93,25.82-165.99,2.54-34.94,2.97-66.4,3.69-118.04.66-47.49.39-86.88,0-114.35Z"/>
        <path d="m476.69,772.66c-1.26,0-2.52-.14-3.78-.42-6.92-1.56-12.32-7.3-13.74-14.62l-.03-.13.03-.13c13.26-62.46,21.95-124.47,25.81-184.34,2.56-39.74,3.27-81.79,3.69-106.92.58-34.46.58-69.2,0-103.28v-.67s34.51,0,34.51,0v.65c.54,37.72.54,76.2,0,114.37-.72,51.82-1.15,83.1-3.69,118.08-3.96,54.6-12.66,110.48-25.84,166.09l-.04.12c-3.13,6.9-9.88,11.21-16.93,11.21Zm-16.19-15.17c1.36,6.74,6.33,12.02,12.7,13.46,7.68,1.73,15.74-2.46,19.19-9.99,13.16-55.52,21.83-111.31,25.79-165.82,2.54-34.93,2.97-66.2,3.69-118,.53-37.94.53-76.18,0-113.68h-31.88c.56,33.88.56,68.41-.01,102.63-.42,25.16-1.12,67.23-3.69,107-3.86,59.88-12.54,121.92-25.8,184.39Z"/>
      </g>
      <path d="m558.87,330.3c1.96,12.67-1.06,30.27-12.55,39.13-6.01,4.63-17.34,4.6-39.75,4.35-19.71-.22-29.77-.29-35.57-4.35-12.72-8.9-18.12-25.53-16.74-39.13,2.52-24.72,27.92-43.47,52.31-43.47s48.6,19.49,52.31,43.47Z"/>
      <path class="cls-2" d="m554.94,331.17c1.73,10.75-.93,25.68-11.07,33.2-5.3,3.93-15.28,3.9-35.04,3.69-17.38-.19-26.24-.25-31.35-3.69-11.21-7.55-15.98-21.66-14.75-33.2,2.22-20.98,24.61-36.89,46.11-36.89s42.84,16.54,46.11,36.89Z"/>
      <path class="cls-1" d="m547.33,327.72c1.64,10.2-.89,24.37-10.5,31.51-5.03,3.73-14.5,3.7-33.26,3.5-16.49-.18-24.9-.23-29.76-3.5-10.64-7.17-15.16-20.56-14-31.51,2.11-19.91,23.36-35.01,43.76-35.01s40.66,15.7,43.76,35.01Z"/>
    </g>
    <g>
      <g>
        <path class="cls-1" d="m488.89,443.3h-39.15c.51,30.33.83,72.07,0,121.79-.4,23.71-.99,44.8-1.62,62.82-.91,26.1-1.9,46.74-2.42,57.11-.17,3.34-.29,5.75-.32,6.21-.91,17.64-1.72,62.79-1.84,170.2,1.6,10.18,9.58,17.73,18.44,18.44,11,.88,22.03-8.88,22.13-22.13-.93-58.61-.33-106.74.41-140.41,1.27-57.49,3.57-83,4.35-139.18.78-56,.45-102.45,0-134.83Z"/>
        <path d="m463.36,880.58c-.47,0-.95-.02-1.42-.06-9.42-.75-17.43-8.74-19.04-19v-.1c.1-91.38.72-148.65,1.84-170.23v-.28c.06-.83.17-3.03.32-5.93.91-18.18,1.75-37.92,2.42-57.1.72-20.72,1.27-41.86,1.62-62.81.68-40.55.68-81.51,0-121.76v-.67s40.46,0,40.46,0v.65c.63,44.44.63,89.81,0,134.85-.42,30.55-1.29,51.9-2.21,74.51-.77,18.9-1.56,38.44-2.14,64.68-1.02,46.08-1.16,93.31-.41,140.39-.05,6.59-2.82,12.86-7.59,17.23-3.95,3.62-8.92,5.62-13.84,5.62Zm-19.15-19.21c1.54,9.63,9.03,17.13,17.83,17.83,4.99.4,10.2-1.5,14.26-5.22,4.5-4.12,7.11-10.05,7.16-16.25-.75-47.08-.61-94.33.41-140.42.58-26.24,1.38-45.79,2.14-64.7.92-22.6,1.78-43.95,2.21-74.48.62-44.81.62-89.94,0-134.16h-37.82c.67,40.05.66,80.8-.01,121.13-.35,20.96-.9,42.1-1.62,62.83-.67,19.18-1.5,38.93-2.42,57.12-.15,2.9-.26,5.1-.3,5.93v.28c-1.13,21.55-1.75,78.79-1.86,170.11Z"/>
      </g>
      <path d="m531.73,404.98c2.31,14.94-1.25,35.69-14.8,46.13-7.09,5.46-20.44,5.42-46.87,5.13-23.25-.26-35.1-.34-41.94-5.13-15-10.49-21.37-30.11-19.74-46.13,2.97-29.15,32.92-51.26,61.68-51.26s57.31,22.98,61.68,51.26Z"/>
      <path class="cls-2" d="m527.1,406.01c2.03,12.67-1.1,30.28-13.05,39.15-6.25,4.63-18.02,4.6-41.32,4.35-20.49-.22-30.94-.29-36.97-4.35-13.22-8.9-18.84-25.54-17.4-39.15,2.62-24.73,29.02-43.49,54.37-43.49s50.52,19.5,54.37,43.49Z"/>
      <path class="cls-1" d="m518.13,401.94c1.93,12.03-1.05,28.74-12.38,37.15-5.93,4.4-17.1,4.37-39.21,4.13-19.45-.21-29.36-.28-35.09-4.13-12.55-8.45-17.88-24.24-16.51-37.15,2.49-23.47,27.54-41.28,51.6-41.28s47.94,18.51,51.6,41.28Z"/>
    </g>
    <g>
      <g>
        <path class="cls-1" d="m409.72,207.23h-33.2c.43,25.72.7,61.12,0,103.28-.42,25.06-1.12,67.2-3.69,106.97-2.87,44.42-9.43,107.25-25.82,184.43,11.07,1.23,22.13,2.46,33.2,3.69,16.35-69,22.91-125.93,25.82-165.99,2.54-34.94,2.97-66.4,3.69-118.04.66-47.49.39-86.88,0-114.35Z"/>
        <path d="m380.72,606.32l-34.5-3.83.15-.71c13.26-62.46,21.95-124.48,25.81-184.34,2.56-39.76,3.27-81.81,3.69-106.94.58-34.42.58-69.16,0-103.26v-.67s34.51,0,34.51,0v.65c.54,37.72.54,76.2,0,114.37-.72,51.82-1.15,83.1-3.69,118.08-3.96,54.6-12.66,110.48-25.84,166.09l-.13.57Zm-32.91-4.99l31.89,3.54c13.09-55.36,21.73-110.97,25.67-165.32,2.54-34.93,2.97-66.2,3.69-118,.53-37.94.53-76.18,0-113.68h-31.87c.56,33.9.56,68.42-.01,102.63-.42,25.14-1.12,67.21-3.69,107-3.85,59.7-12.49,121.54-25.68,183.81Z"/>
      </g>
      <path d="m446.06,174.73c1.96,12.67-1.06,30.27-12.55,39.13-6.01,4.63-17.34,4.6-39.75,4.35-19.71-.22-29.77-.29-35.57-4.35-12.72-8.9-18.12-25.53-16.74-39.13,2.52-24.72,27.92-43.47,52.31-43.47s48.6,19.49,52.31,43.47Z"/>
      <path class="cls-2" d="m442.13,175.6c1.73,10.75-.93,25.68-11.07,33.2-5.3,3.93-15.28,3.9-35.04,3.69-17.38-.19-26.24-.25-31.35-3.69-11.21-7.55-15.98-21.66-14.75-33.2,2.22-20.98,24.61-36.89,46.11-36.89s42.84,16.54,46.11,36.89Z"/>
      <path class="cls-1" d="m434.52,172.15c1.64,10.2-.89,24.37-10.5,31.51-5.03,3.73-14.5,3.7-33.26,3.5-16.49-.18-24.9-.23-29.76-3.5-10.64-7.17-15.16-20.56-14-31.51,2.11-19.91,23.36-35.01,43.76-35.01s40.66,15.7,43.76,35.01Z"/>
    </g>
    <g>
      <g>
        <path class="cls-1" d="m387.15,297.49h-39.15c.51,30.33.83,72.07,0,121.79-.4,23.71-.99,44.8-1.62,62.82-1.17,33.45-2.46,57.94-2.73,63.31-1.65,32.29-3.07,95.6-2.4,229.86,1.15,10.95,10.7,19.02,21.15,18.44,9.67-.53,17.87-8.34,18.9-18.44-1.4-85.93-.05-155.4,1.49-203.77,1.49-46.59,3.52-79.69,4.35-139.18.78-56,.45-102.45,0-134.83Z"/>
        <path d="m361.36,794.41c-10.44,0-19.64-8.34-20.77-19.06-.55-110.75.25-188.1,2.4-229.97l.05-.92c1.04-20.28,1.95-41.27,2.68-62.38.72-20.72,1.27-41.86,1.62-62.81.68-40.55.68-81.51,0-121.76v-.67s40.46,0,40.46,0v.65c.63,44.49.63,89.86,0,134.85-.56,40.21-1.69,68.96-2.79,96.76-.53,13.43-1.08,27.33-1.56,42.43-2.11,66.16-2.62,134.71-1.49,203.74-1.06,10.38-9.45,18.56-19.53,19.11-.36.02-.72.03-1.08.03Zm-12.69-496.26c.67,40.05.66,80.8-.01,121.14-.35,20.96-.9,42.1-1.62,62.83-.74,21.12-1.64,42.12-2.68,62.4l-.05.92c-2.14,41.84-2.95,119.17-2.4,229.83,1.09,10.34,10.25,18.33,20.45,17.79,9.44-.52,17.29-8.19,18.28-17.85-1.13-68.97-.62-137.54,1.49-203.72.48-15.11,1.03-29.01,1.56-42.44,1.1-27.8,2.23-56.54,2.79-96.73.62-44.76.62-89.9,0-134.16h-37.82Z"/>
      </g>
      <path d="m429.99,259.18c2.31,14.94-1.25,35.69-14.8,46.13-7.09,5.46-20.44,5.42-46.87,5.13-23.25-.26-35.1-.34-41.94-5.13-15-10.49-21.37-30.11-19.74-46.13,2.97-29.15,32.92-51.26,61.68-51.26s57.31,22.98,61.68,51.26Z"/>
      <path class="cls-2" d="m425.36,260.2c2.03,12.67-1.1,30.28-13.05,39.15-6.25,4.63-18.02,4.6-41.32,4.35-20.49-.22-30.94-.29-36.97-4.35-13.22-8.9-18.84-25.54-17.4-39.15,2.62-24.73,29.02-43.49,54.37-43.49s50.52,19.5,54.37,43.49Z"/>
      <path class="cls-1" d="m416.39,256.13c1.93,12.03-1.05,28.74-12.38,37.15-5.93,4.4-17.1,4.37-39.21,4.13-19.45-.21-29.36-.28-35.09-4.13-12.55-8.45-17.88-24.24-16.51-37.15,2.49-23.47,27.54-41.28,51.6-41.28s47.94,18.51,51.6,41.28Z"/>
    </g>
    <g>
      <g>
        <path class="cls-1" d="m436.44,403.38h-50.47c.66,39.1,1.07,92.92,0,157.02-.45,27,.11,54.08-2.09,80.99-5.01,61.35-15.88,97.55.65,108.07,7.01,4.46,16.47,2.73,22.13,0,17.29-8.32,19.07-35.48,22.61-82.15,7.19-94.79,7-77.83,7.17-90.09,1-72.2.59-132.08,0-173.84Z"/>
        <path d="m394.78,752.84c-3.73,0-7.46-.82-10.6-2.82-12.46-7.92-9.87-29.35-5.6-64.85,1.55-12.85,3.3-27.42,4.65-43.84,1.61-19.65,1.74-39.72,1.87-59.14.05-7.15.1-14.54.22-21.81.88-52.31.88-105.13,0-157v-.67s51.78,0,51.78,0v.65c.81,57.33.81,115.83,0,173.86-.07,5.09-.08,5.18-.57,10.21-.71,7.25-2.37,24.24-6.6,79.92l-.17,2.23c-3.41,44.97-5.46,72.11-22.81,80.46-3.46,1.67-7.83,2.78-12.17,2.78Zm-8.13-348.8c.86,51.66.86,104.27-.01,156.37-.12,7.26-.17,14.65-.22,21.8-.13,19.44-.26,39.54-1.87,59.24-1.34,16.44-3.1,31.02-4.65,43.89-4.21,34.98-6.76,56.1,4.99,63.57,6.37,4.05,15.38,2.9,21.49-.04,16.66-8.02,18.7-34.88,22.07-79.37l.17-2.23c4.22-55.69,5.89-72.69,6.6-79.95.49-4.97.5-5.07.57-10.1.8-57.8.8-116.06,0-173.17h-49.15Z"/>
      </g>
      <path d="m491.68,353.97c2.98,19.26-1.61,46.01-19.08,59.48-9.14,7.04-26.36,6.99-60.43,6.61-29.97-.34-45.26-.44-54.07-6.61-19.34-13.53-27.55-38.81-25.45-59.48,3.83-37.58,42.44-66.09,79.52-66.09s73.88,29.63,79.52,66.09Z"/>
      <path class="cls-2" d="m485.71,355.29c2.62,16.34-1.42,39.04-16.82,50.47-8.05,5.97-23.24,5.93-53.27,5.61-26.42-.29-39.89-.37-47.67-5.61-17.05-11.48-24.29-32.93-22.43-50.47,3.38-31.89,37.42-56.08,70.1-56.08s65.13,25.14,70.1,56.08Z"/>
      <path class="cls-1" d="m474.14,350.05c2.49,15.51-1.35,37.05-15.97,47.9-7.64,5.67-22.05,5.63-50.56,5.32-25.07-.27-37.86-.36-45.24-5.32-16.18-10.89-23.05-31.26-21.29-47.9,3.21-30.26,35.51-53.22,66.52-53.22s61.81,23.86,66.52,53.22Z"/>
    </g>
    <g>
      <g>
        <path class="cls-1" d="m129.46,189.43h-50.47c.66,39.1,1.07,92.92,0,157.02-.51,30.56-1.28,57.76-2.09,80.99-1.53,43.85-3.22,75.76-3.52,81.63-2.11,41.56-1.64,122.98,8.68,295.71,2.05,20.95,20.61,32.74,33.2,29.51,11.92-3.06,22.16-20.55,16.08-39.23-8.37-107-8.73-193.19-7.49-252.35,1.22-58.17,4.44-95.1,5.61-179.45,1-72.2.59-132.08,0-173.84Z"/>
        <path d="m110.95,835.48c-4.9,0-10.25-1.79-15.02-5.13-8.21-5.75-13.5-15.04-14.53-25.5-8.51-142.32-11.43-241.84-8.69-295.81l.08-1.51c1.34-25.99,2.5-52.95,3.44-80.11.93-26.76,1.63-54.01,2.09-80.98.87-52.3.87-105.12,0-156.99v-.67s51.78,0,51.78,0v.65c.81,57.35.81,115.84,0,173.86-.68,49.14-2.09,82.91-3.33,112.71-.91,21.83-1.77,42.46-2.28,66.74-1.72,81.91.8,166.76,7.48,252.21,3.05,9.44,2.2,19.58-2.33,27.83-3.46,6.3-8.65,10.73-14.24,12.17-1.42.37-2.93.54-4.47.54Zm-31.29-645.39c.86,51.67.86,104.28-.01,156.37-.45,26.98-1.15,54.24-2.09,81.01-.95,27.17-2.11,54.13-3.45,80.13l-.08,1.51c-2.74,53.92.18,153.39,8.68,295.64.98,10.05,6.08,18.99,13.97,24.52,5.97,4.18,12.85,5.81,18.41,4.39,5.24-1.35,10.12-5.55,13.41-11.53,4.37-7.95,5.17-17.74,2.21-26.86l-.03-.15c-6.69-85.51-9.21-170.44-7.49-252.42.51-24.29,1.37-44.92,2.28-66.77,1.3-31.25,2.65-63.56,3.33-112.68.8-57.78.8-116.04,0-173.17h-49.15Z"/>
      </g>
      <path d="m184.69,140.03c2.98,19.26-1.61,46.01-19.08,59.48-9.14,7.04-26.36,6.99-60.43,6.61-29.97-.34-45.26-.44-54.07-6.61-19.34-13.53-27.55-38.81-25.45-59.48,3.83-37.58,42.44-66.09,79.52-66.09s73.88,29.63,79.52,66.09Z"/>
      <path class="cls-2" d="m178.73,141.35c2.62,16.34-1.42,39.04-16.82,50.47-8.05,5.97-23.24,5.93-53.27,5.61-26.42-.29-39.89-.37-47.67-5.61-17.05-11.48-24.29-32.93-22.43-50.47,3.38-31.89,37.42-56.08,70.1-56.08s65.13,25.14,70.1,56.08Z"/>
      <path class="cls-1" d="m167.16,136.1c2.49,15.51-1.35,37.05-15.97,47.9-7.64,5.67-22.05,5.63-50.56,5.32-25.07-.27-37.86-.36-45.24-5.32-16.18-10.89-23.05-31.26-21.29-47.9,3.21-30.26,35.51-53.22,66.52-53.22s61.81,23.86,66.52,53.22Z"/>
    </g>
    <g>
      <g>
        <path class="cls-1" d="m172.94,274.27h-33.2c.43,25.72.7,61.12,0,103.28-.42,25.06-1.12,67.2-3.69,106.97-2.87,44.42-9.43,107.25-25.82,184.43,11.07,1.23,22.13,2.46,33.2,3.69,16.35-69,22.91-125.93,25.82-165.99,2.54-34.94,2.97-66.4,3.69-118.04.66-47.49.39-86.88,0-114.35Z"/>
        <path d="m143.94,673.37l-34.5-3.83.15-.71c13.26-62.46,21.95-124.48,25.81-184.34,2.56-39.75,3.27-81.81,3.69-106.94.58-34.4.58-69.14,0-103.26v-.67s34.51,0,34.51,0v.65c.54,37.72.54,76.2,0,114.37-.72,51.82-1.15,83.1-3.69,118.08-3.96,54.6-12.66,110.48-25.84,166.09l-.13.57Zm-32.91-4.99l31.89,3.54c13.09-55.35,21.73-110.97,25.67-165.32,2.54-34.93,2.97-66.2,3.69-118,.53-37.94.53-76.18,0-113.68h-31.87c.56,33.92.56,68.45-.01,102.63-.42,25.14-1.12,67.22-3.69,107-3.85,59.7-12.49,121.53-25.68,183.81Z"/>
      </g>
      <path d="m209.27,241.78c1.96,12.67-1.06,30.27-12.55,39.13-6.01,4.63-17.34,4.6-39.75,4.35-19.71-.22-29.77-.29-35.57-4.35-12.72-8.9-18.12-25.53-16.74-39.13,2.52-24.72,27.92-43.47,52.31-43.47s48.6,19.49,52.31,43.47Z"/>
      <path class="cls-2" d="m205.35,242.64c1.73,10.75-.93,25.68-11.07,33.2-5.3,3.93-15.28,3.9-35.04,3.69-17.38-.19-26.24-.25-31.35-3.69-11.21-7.55-15.98-21.66-14.75-33.2,2.22-20.98,24.61-36.89,46.11-36.89s42.84,16.54,46.11,36.89Z"/>
      <path class="cls-1" d="m197.74,239.19c1.64,10.2-.89,24.37-10.5,31.51-5.03,3.73-14.5,3.7-33.26,3.5-16.49-.18-24.9-.23-29.76-3.5-10.64-7.17-15.16-20.56-14-31.51,2.11-19.91,23.36-35.01,43.76-35.01s40.66,15.7,43.76,35.01Z"/>
    </g>
    <g>
      <g>
        <path class="cls-1" d="m150.36,364.54h-39.15c.51,30.33.83,72.07,0,121.79-.4,23.71-.99,44.8-1.62,62.82-.91,26.08-1.89,46.71-2.41,57.09,0,0-.15,3.05-.32,6.23-1.77,34.07-11.63,185.88-13.73,218.15,1.65,23.14,20.47,36.23,33.2,33.2,9.73-2.32,17.96-14.53,18.44-29.51-1.4-83-.16-149.87,1.24-195.74,1.48-48.66,3.53-80.04,4.35-139.18.78-56,.45-102.45,0-134.83Z"/>
        <path d="m122.48,864.91c-4.84,0-10.08-1.87-14.89-5.4-8.76-6.43-14.27-16.94-15.12-28.85,3.58-55.13,12.09-186.56,13.73-218.23.17-3.18.32-6.23.32-6.23.63-12.65,1.57-32.83,2.41-57.08.72-20.72,1.27-41.86,1.62-62.81.68-40.57.68-81.53,0-121.76v-.67s40.46,0,40.46,0v.65c.63,44.46.63,89.84,0,134.85-.53,38.51-1.57,64.81-2.67,92.65-.57,14.53-1.17,29.56-1.68,46.54-1.94,63.57-2.35,129.42-1.24,195.71-.48,14.75-8.63,27.7-18.95,30.16-1.29.31-2.63.46-4,.46Zm-10.59-499.71c.67,40.03.66,80.78-.01,121.14-.35,20.96-.9,42.1-1.62,62.83-.85,24.26-1.78,44.44-2.41,57.1,0,0-.15,3.05-.32,6.23-1.64,31.68-10.15,163.12-13.74,218.16.82,11.43,6.13,21.59,14.58,27.79,5.77,4.24,12.43,6,17.8,4.72,9.76-2.33,17.48-14.74,17.94-28.89-1.12-66.28-.7-132.15,1.24-195.74.52-16.99,1.11-32.02,1.68-46.56,1.1-27.83,2.13-54.12,2.67-92.62.62-44.79.62-89.92,0-134.17h-37.82Z"/>
      </g>
      <path d="m193.2,326.22c2.31,14.94-1.25,35.69-14.8,46.13-7.09,5.46-20.44,5.42-46.87,5.13-23.25-.26-35.1-.34-41.94-5.13-15-10.49-21.37-30.11-19.74-46.13,2.97-29.15,32.92-51.26,61.68-51.26s57.31,22.98,61.68,51.26Z"/>
      <path class="cls-2" d="m188.57,327.25c2.03,12.67-1.1,30.28-13.05,39.15-6.25,4.63-18.02,4.6-41.32,4.35-20.49-.22-30.94-.29-36.97-4.35-13.22-8.9-18.84-25.54-17.4-39.15,2.62-24.73,29.02-43.49,54.37-43.49s50.52,19.5,54.37,43.49Z"/>
      <path class="cls-1" d="m179.6,323.18c1.93,12.03-1.05,28.74-12.38,37.15-5.93,4.4-17.1,4.37-39.21,4.13-19.45-.21-29.36-.28-35.09-4.13-12.55-8.45-17.88-24.24-16.51-37.15,2.49-23.47,27.54-41.28,51.6-41.28s47.94,18.51,51.6,41.28Z"/>
    </g>
    <g>
      <g>
        <path class="cls-1" d="m420.79,446.99h-33.2c.43,25.72.7,61.12,0,103.28-.45,27.19-1.1,66.01-3.69,106.97-2.74,43.48-8.5,102.5-21.5,173.37-4.15,8.2-.68,18.27,7.38,22.13,7.78,3.73,17.45.51,21.5-7.38,16.35-69,22.91-125.93,25.82-165.99,2.54-34.94,2.97-66.4,3.69-118.04.66-47.49.39-86.88,0-114.35Z"/>
        <path d="m376.61,854.95c-2.41,0-4.84-.52-7.12-1.61-4.06-1.94-7.11-5.41-8.59-9.77-1.49-4.39-1.18-9.06.87-13.17,10.67-58.16,17.89-116.44,21.48-173.2,2.58-40.95,3.22-79.09,3.69-106.94.58-34.4.58-69.14,0-103.26v-.67s34.51,0,34.51,0v.65c.54,37.69.54,76.17,0,114.37-.72,51.87-1.15,83.13-3.69,118.08-3.96,54.61-12.66,110.49-25.84,166.09l-.06.15c-3.01,5.86-9.06,9.28-15.26,9.28Zm11.65-407.3c.56,33.92.56,68.45-.01,102.63-.47,27.86-1.1,66.02-3.69,107-3.59,56.84-10.83,115.2-21.51,173.44l-.06.18c-1.93,3.81-2.23,8.15-.84,12.23,1.37,4.02,4.18,7.22,7.91,9.01,7.49,3.58,16.71.44,20.59-7.01,13.15-55.51,21.83-111.3,25.79-165.81,2.53-34.91,2.97-66.15,3.69-117.92.53-38.04.53-76.29.01-113.76h-31.88Z"/>
      </g>
      <path d="m457.12,414.49c1.96,12.67-1.06,30.27-12.55,39.13-6.01,4.63-17.34,4.6-39.75,4.35-19.71-.22-29.77-.29-35.57-4.35-12.72-8.9-18.12-25.53-16.74-39.13,2.52-24.72,27.92-43.47,52.31-43.47s48.6,19.49,52.31,43.47Z"/>
      <path class="cls-2" d="m453.2,415.36c1.73,10.75-.93,25.68-11.07,33.2-5.3,3.93-15.28,3.9-35.04,3.69-17.38-.19-26.24-.25-31.35-3.69-11.21-7.55-15.98-21.66-14.75-33.2,2.22-20.98,24.61-36.89,46.11-36.89s42.84,16.54,46.11,36.89Z"/>
      <path class="cls-1" d="m445.59,411.91c1.64,10.2-.89,24.37-10.5,31.51-5.03,3.73-14.5,3.7-33.26,3.5-16.49-.18-24.9-.23-29.76-3.5-10.64-7.17-15.16-20.56-14-31.51,2.11-19.91,23.36-35.01,43.76-35.01s40.66,15.7,43.76,35.01Z"/>
    </g>
    <g>
      <g>
        <path class="cls-1" d="m186.73,410.1h-22.23c.29,17.22.47,40.93,0,69.16-.28,16.78-.75,45-2.47,71.63-1.92,29.74-6.32,71.82-17.29,123.5-1.61,7.88,2.56,14.77,7.41,16.06,5.56,1.47,13.94-3.91,14.82-13.59,10.95-46.2,15.34-84.32,17.29-111.15,1.7-23.4,1.99-44.46,2.47-79.04.44-31.8.26-58.18,0-76.57Z"/>
        <path d="m154.05,691.34c-.72,0-1.41-.08-2.07-.26-6.33-1.68-9.24-10.21-7.89-16.83,8.88-41.82,14.69-83.34,17.28-123.41,1.72-26.6,2.19-54.75,2.47-71.57.39-23.06.39-46.32,0-69.16v-.67s23.54,0,23.54,0v.65c.36,25.25.36,51.01,0,76.58-.48,34.71-.77,55.65-2.47,79.08-2.65,36.57-8.48,74-17.31,111.25-.44,4.9-2.91,9.31-6.77,12.01-2.16,1.51-4.58,2.32-6.79,2.32Zm11.12-280.57c.37,22.64.37,45.68-.01,68.51-.28,16.86-.75,45.03-2.47,71.66-2.59,40.13-8.41,81.72-17.3,123.59-1.53,7.51,2.42,14.09,6.93,15.28,2.31.61,5.22-.09,7.76-1.87,3.54-2.48,5.81-6.54,6.23-11.14,8.83-37.27,14.64-74.63,17.29-111.13,1.7-23.39,1.99-44.32,2.47-79,.35-25.34.35-50.87,0-75.9h-20.91Z"/>
      </g>
      <path d="m211.05,388.34c1.31,8.48-.71,20.27-8.41,26.2-4.02,3.1-11.61,3.08-26.62,2.91-13.2-.15-19.93-.19-23.82-2.91-8.52-5.96-12.14-17.1-11.21-26.2,1.69-16.55,18.69-29.11,35.02-29.11s32.54,13.05,35.02,29.11Z"/>
      <path class="cls-2" d="m208.43,388.93c1.16,7.2-.63,17.2-7.41,22.23-3.55,2.63-10.23,2.61-23.46,2.47-11.64-.13-17.57-.16-20.99-2.47-7.51-5.06-10.7-14.51-9.88-22.23,1.49-14.05,16.48-24.7,30.87-24.7s28.69,11.07,30.87,24.7Z"/>
      <path class="cls-1" d="m203.33,386.62c1.1,6.83-.59,16.32-7.03,21.1-3.37,2.5-9.71,2.48-22.27,2.34-11.04-.12-16.68-.16-19.92-2.34-7.13-4.8-10.15-13.77-9.38-21.1,1.41-13.33,15.64-23.44,29.3-23.44s27.22,10.51,29.3,23.44Z"/>
    </g>
    <g>
      <g>
        <path class="cls-1" d="m445.12,491.25h-22.23c.29,17.22.47,40.93,0,69.16-.28,16.78-.75,45-2.47,71.63-1.92,29.74-6.32,71.82-17.29,123.5-1.57,7.86,2.46,14.73,7.22,16.06,5.5,1.53,13.98-3.79,15-13.59,10.95-46.2,15.34-84.32,17.29-111.15,1.7-23.4,1.99-44.46,2.47-79.04.44-31.8.26-58.18,0-76.57Z"/>
        <path d="m412.31,772.51c-.74,0-1.46-.09-2.14-.28-5.06-1.41-9.36-8.5-7.7-16.82,8.88-41.82,14.69-83.34,17.28-123.41,1.72-26.62,2.19-54.77,2.47-71.59.39-23.01.39-46.27,0-69.14v-.67s23.54,0,23.54,0v.65c.36,25.28.36,51.05,0,76.58-.48,34.71-.77,55.66-2.47,79.08-2.66,36.58-8.48,74.01-17.31,111.25-.52,4.99-3.08,9.44-7.02,12.12-2.14,1.46-4.5,2.23-6.67,2.23Zm11.25-280.59c.37,22.67.37,45.71-.01,68.51-.28,16.83-.75,45.01-2.47,71.66-2.59,40.14-8.41,81.72-17.3,123.59-1.5,7.48,2.36,14.06,6.75,15.28,2.27.63,5.15-.03,7.71-1.77,3.62-2.46,5.97-6.56,6.46-11.25,8.83-37.26,14.64-74.62,17.29-111.12,1.7-23.38,1.99-44.31,2.47-78.99.35-25.31.35-50.84,0-75.9h-20.91Z"/>
      </g>
      <path d="m469.45,469.49c1.31,8.48-.71,20.27-8.41,26.2-4.02,3.1-11.61,3.08-26.62,2.91-13.2-.15-19.93-.19-23.82-2.91-8.52-5.96-12.14-17.1-11.21-26.2,1.69-16.55,18.69-29.11,35.02-29.11s32.54,13.05,35.02,29.11Z"/>
      <path class="cls-2" d="m466.82,470.08c1.16,7.2-.63,17.2-7.41,22.23-3.55,2.63-10.23,2.61-23.46,2.47-11.64-.13-17.57-.16-20.99-2.47-7.51-5.06-10.7-14.51-9.88-22.23,1.49-14.05,16.48-24.7,30.87-24.7s28.69,11.07,30.87,24.7Z"/>
      <path class="cls-1" d="m461.72,467.77c1.1,6.83-.59,16.32-7.03,21.1-3.37,2.5-9.71,2.48-22.27,2.34-11.04-.12-16.68-.16-19.92-2.34-7.13-4.8-10.15-13.77-9.38-21.1,1.41-13.33,15.64-23.44,29.3-23.44s27.22,10.51,29.3,23.44Z"/>
    </g>
    <g>
      <g>
        <path class="cls-1" d="m213.7,424.86c7.41,0,14.82,0,22.23,0-.29,17.22-.47,40.93,0,69.16.28,16.78.75,45,2.47,71.63,1.92,29.74,6.32,71.82,17.29,123.5,1.57,7.86-2.46,14.73-7.22,16.06-5.5,1.53-13.98-3.79-15-13.59-10.95-46.2-15.34-84.32-17.29-111.15-1.7-23.4-1.99-44.46-2.47-79.04-.44-31.8-.26-58.18,0-76.57Z"/>
        <path d="m246.51,706.11c-2.16,0-4.53-.78-6.67-2.23-3.94-2.68-6.5-7.13-7.03-12.2-8.81-37.17-14.64-74.6-17.29-111.17-1.7-23.42-1.99-44.37-2.47-79.08-.35-25.57-.35-51.34,0-76.59v-.65h23.56v.67c-.4,22.84-.4,46.1-.01,69.14.28,16.84.75,44.99,2.47,71.6,2.58,40.07,8.4,81.59,17.28,123.4,1.67,8.33-2.63,15.42-7.69,16.83-.68.19-1.39.28-2.14.28Zm-32.15-280.59c-.35,25.03-.34,50.56,0,75.9.48,34.68.77,55.61,2.47,79,2.65,36.5,8.46,73.86,17.27,111.04.5,4.77,2.86,8.87,6.48,11.33,2.56,1.74,5.44,2.4,7.71,1.77,4.4-1.22,8.25-7.8,6.75-15.29-8.89-41.87-14.71-83.45-17.3-123.58-1.72-26.63-2.19-54.81-2.47-71.64-.38-22.85-.39-45.89-.01-68.53h-20.91Z"/>
      </g>
      <path d="m189.37,403.1c-1.31,8.48.71,20.27,8.41,26.2,4.02,3.1,11.61,3.08,26.62,2.91,13.2-.15,19.93-.19,23.82-2.91,8.52-5.96,12.14-17.1,11.21-26.2-1.69-16.55-18.69-29.11-35.02-29.11-16.76,0-32.54,13.05-35.02,29.11Z"/>
      <path class="cls-2" d="m192,403.68c-1.16,7.2.63,17.2,7.41,22.23,3.55,2.63,10.23,2.61,23.46,2.47,11.64-.13,17.57-.16,20.99-2.47,7.51-5.06,10.7-14.51,9.88-22.23-1.49-14.05-16.48-24.7-30.87-24.7-14.77,0-28.69,11.07-30.87,24.7Z"/>
      <path class="cls-1" d="m197.1,401.37c-1.1,6.83.59,16.32,7.03,21.1,3.37,2.5,9.71,2.48,22.27,2.34,11.04-.12,16.68-.16,19.92-2.34,7.13-4.8,10.15-13.77,9.38-21.1-1.41-13.33-15.64-23.44-29.3-23.44-14.02,0-27.22,10.51-29.3,23.44Z"/>
    </g>
    <g>
      <g>
        <path class="cls-1" d="m293.28,325.26h33.2c-.43,25.72-.7,61.12,0,103.28.86,51.74,2.86,91.45,3.69,106.97,1.88,35.25,4.19,66.34,6.41,92.22,2.64,13.03-3.91,24.07-11.07,25.82-7.93,1.94-20.57-6.59-22.13-22.13-1.94-17.76-4.43-43.15-6.41-73.77-2.69-41.64-3.06-72.5-3.69-118.04-.66-47.49-.39-86.88,0-114.35Z"/>
        <path d="m323.14,654.49c-3.05,0-6.42-1.19-9.58-3.42-6.07-4.29-10.02-11.43-10.84-19.59-2.66-24.32-4.82-49.15-6.41-73.8-2.62-40.49-3.04-71.45-3.64-114.3l-.05-3.77c-.53-38.18-.53-76.66,0-114.37v-.65h34.53v.67c-.59,34.12-.59,68.86-.01,103.26.6,35.93,1.88,72.91,3.69,106.95,1.63,30.64,3.79,61.66,6.41,92.2,2.7,13.27-3.93,24.65-11.57,26.52-.81.2-1.66.3-2.53.3Zm-29.2-328.57c-.52,37.49-.52,75.73,0,113.68l.05,3.77c.59,42.83,1.02,73.77,3.64,114.23,1.59,24.63,3.75,49.44,6.41,73.74.78,7.78,4.53,14.57,10.29,18.64,3.69,2.61,7.82,3.7,11.03,2.92,7.04-1.72,13.06-12.8,10.58-25.05-2.63-30.62-4.79-61.66-6.42-92.31-1.81-34.06-3.09-71.05-3.69-106.99-.57-34.19-.58-68.71-.01-102.63h-31.87Z"/>
      </g>
      <path d="m256.95,292.77c-1.96,12.67,1.06,30.27,12.55,39.13,6.01,4.63,17.34,4.6,39.75,4.35,19.71-.22,29.77-.29,35.57-4.35,12.72-8.9,18.12-25.53,16.74-39.13-2.52-24.72-27.92-43.47-52.31-43.47-25.03,0-48.6,19.49-52.31,43.47Z"/>
      <path class="cls-2" d="m260.87,293.64c-1.73,10.75.93,25.68,11.07,33.2,5.3,3.93,15.28,3.9,35.04,3.69,17.38-.19,26.24-.25,31.35-3.69,11.21-7.55,15.98-21.66,14.75-33.2-2.22-20.98-24.61-36.89-46.11-36.89-22.06,0-42.84,16.54-46.11,36.89Z"/>
      <path class="cls-1" d="m268.48,290.19c-1.64,10.2.89,24.37,10.5,31.51,5.03,3.73,14.5,3.7,33.26,3.5,16.49-.18,24.9-.23,29.76-3.5,10.64-7.17,15.16-20.56,14-31.51-2.11-19.91-23.36-35.01-43.76-35.01-20.94,0-40.66,15.7-43.76,35.01Z"/>
    </g>
    <g>
      <g>
        <path class="cls-1" d="m281.86,410.1h-17.71c.23,13.72.38,32.6,0,55.09-.22,13.37-.6,35.85-1.97,57.06-1.53,23.69-5.03,57.21-13.77,98.38-1.7,7.62,2.81,13.89,7.02,14.48,4.3.6,10.55-4.44,10.69-12.52,8.72-36.8,12.22-67.17,13.77-88.54,1.35-18.64,1.59-35.42,1.97-62.96.35-25.33.21-46.34,0-60.99Z"/>
        <path d="m256.16,635.82c-.28,0-.55-.02-.82-.06-2.01-.28-4.03-1.69-5.54-3.87-2.19-3.17-2.93-7.32-2.02-11.41,7.07-33.29,11.7-66.36,13.76-98.28,1.37-21.19,1.74-43.62,1.97-57.02.31-18.34.31-36.87,0-55.08v-.67s19.02,0,19.02,0v.65c.29,20.11.29,40.63,0,61.01-.38,27.65-.61,44.34-1.97,63-2.11,29.12-6.75,58.92-13.77,88.58-.09,4.26-1.86,8.17-4.86,10.73-1.83,1.56-3.88,2.42-5.76,2.42Zm8.67-225.06c.3,18.01.29,36.32-.01,54.44-.22,13.42-.6,35.87-1.97,57.09-2.06,31.98-6.7,65.11-13.79,98.47-.83,3.73-.17,7.51,1.82,10.37,1.28,1.85,3.02,3.09,4.64,3.32,1.69.24,3.76-.53,5.54-2.05,2.73-2.33,4.33-5.91,4.4-9.82l.02-.14c7.02-29.61,11.65-59.37,13.76-88.43,1.35-18.62,1.58-35.3,1.97-62.92.28-20.14.28-40.44,0-60.32h-16.38Z"/>
      </g>
      <path d="m301.24,392.77c1.04,6.76-.57,16.14-6.7,20.87-3.21,2.47-9.25,2.45-21.2,2.32-10.52-.12-15.88-.15-18.97-2.32-6.78-4.75-9.67-13.62-8.93-20.87,1.35-13.19,14.89-23.19,27.9-23.19s25.92,10.4,27.9,23.19Z"/>
      <path class="cls-2" d="m299.15,393.23c.92,5.73-.5,13.7-5.9,17.71-2.83,2.1-8.15,2.08-18.69,1.97-9.27-.1-14-.13-16.72-1.97-5.98-4.03-8.52-11.56-7.87-17.71,1.19-11.19,13.13-19.68,24.59-19.68s22.85,8.82,24.59,19.68Z"/>
      <path class="cls-1" d="m295.09,391.39c.87,5.44-.47,13-5.6,16.81-2.68,1.99-7.74,1.98-17.74,1.87-8.8-.1-13.28-.12-15.87-1.87-5.68-3.82-8.09-10.97-7.47-16.81,1.13-10.62,12.46-18.67,23.34-18.67s21.69,8.37,23.34,18.67Z"/>
    </g>
  </g>
</svg>