<?xml version="1.0" encoding="UTF-8"?>
<svg id="Layer_1" data-name="Layer 1" xmlns="http://www.w3.org/2000/svg" viewBox="0 0 475.67 417.83">
  <defs>
    <style>
      .cls-1 {
        fill: #e7d7b5;
      }

      .cls-2 {
        fill: #fff;
      }

      .cls-3 {
        fill: #efe8d8;
      }

      .cls-4 {
        fill: #b5a888;
      }

      .cls-5 {
        fill: #9e8f7a;
      }

      .cls-6 {
        fill: #cdb788;
      }

      .cls-7 {
        fill: #d1bd98;
      }

      .cls-8 {
        fill: #e1cea4;
      }
    </style>
  </defs>
  <g>
    <g>
      <path class="cls-2" d="m142.24,7.81c-12.24-2.51-70.55,85.96-37.18,166.95,17.7,42.97,53.11,64.16,63.42,70.14,11.81,6.85,47.49,27.54,85.05,17.85,12.82-3.31,31.62-11.64,30.77-16.27-.3-1.63-2.89-2.06-7.66-4.1,0,0-5.56-2.36-19.11-12.18-16.5-11.95-36.22-40.64-36.22-40.64-13.68-19.89-24.41-35.49-38.01-60.9-15.3-28.59-24.67-46.09-31.5-71.61-9-33.67-4.75-48.26-9.55-49.25Z"/>
      <path class="cls-2" d="m233.1,272.8c-31.46,0-58.29-15.56-68.38-21.4-39.31-22.79-57.91-52.7-66.59-73.77-15.39-37.36-11.39-74.26-5.32-98.64,7.55-30.35,21.24-54.46,31.53-66.9,7.53-9.1,13.7-12.79,19.41-11.62h0c7.74,1.59,8.37,9.31,9.03,17.48.64,7.89,1.61,19.81,6.26,37.18,6.6,24.69,15.73,41.75,30.86,70.01,13.41,25.04,24.07,40.56,37.58,60.19.19.28,19.2,27.77,34.44,38.81,12.01,8.7,17.36,11.22,17.69,11.37,1.14.48,2.17.88,3.08,1.22,3.38,1.29,8,3.06,8.98,8.4,1.44,7.81-6.89,13.03-14.3,16.71-6.51,3.23-14.93,6.37-21.97,8.18-7.58,1.95-15.07,2.78-22.3,2.78ZM137.85,19.37c-5.46,6-13.91,18.16-21.57,36.41-9.82,23.41-23.44,69.62-4.28,116.13,7.8,18.93,24.58,45.83,60.25,66.51,11.09,6.43,44.84,26,79.41,17.08,7.28-1.88,14.59-4.83,19.64-7.38-.82-.44-1.78-.99-2.95-1.68-4.29-2.53-9.42-5.95-15.23-10.16-17.35-12.56-37.17-41.25-38-42.46-13.77-20.02-24.64-35.83-38.44-61.61-15.64-29.22-25.08-46.85-32.13-73.21-4.95-18.51-6.05-31.69-6.7-39.63Z"/>
    </g>
    <g>
      <path class="cls-2" d="m143.4,22.61c-8.85-1.47-54.62,84.06-24.62,152.47,6.75,15.39,22.8,42.68,50.82,62.63,3.4,2.42,6.2,4.21,8.08,5.39,10.8,6.8,43.41,27.33,76.87,19.23,11.42-2.77,28.07-10.12,27.18-14.52-.31-1.55-2.65-2.03-7-4.08-5.02-2.37-9.19-5.57-17.5-12.04-12.24-9.53-21.9-20.4-26.27-25.53-13.26-15.8-23.61-30.51-31.5-42.84-11.16-17.43-18.45-31.72-21.52-37.91-4.89-9.87-11.82-23.96-18.27-43.26-4.49-13.45-7.95-27.03-9.24-32.13-5.87-23.21-5.2-27.1-7.03-27.41Z"/>
      <path class="cls-2" d="m238.57,271.69c-29.56,0-55.36-16.25-64.89-22.25-2.11-1.33-4.98-3.17-8.43-5.62-32.17-22.9-48.02-53.59-53.34-65.72-14.7-33.53-11.55-69.1-6.32-93.05,6.1-27.88,17.33-51.29,25.75-62.13,3.18-4.09,7.56-8.66,13.28-7.71,6.11,1.01,7.16,6.23,8.38,12.27.78,3.89,2.1,10.41,4.7,20.69,1.13,4.48,4.58,18.13,9.08,31.59,6.41,19.2,13.31,33.1,17.87,42.3,6.07,12.23,13.37,25.09,21.12,37.19,9.34,14.58,19.74,28.74,30.93,42.06,5.57,6.55,14.49,16.15,25.13,24.43,8.08,6.29,11.83,9.16,16.09,11.17,1.07.51,2.01.91,2.82,1.25,3.09,1.32,7.31,3.13,8.32,8.12,1.77,8.72-8.94,14.06-12.97,16.07-5.84,2.91-13.42,5.68-19.79,7.22-6,1.45-11.94,2.08-17.74,2.08ZM139.69,37.14c-13.13,21.62-36.78,83.08-14.04,134.93,3.76,8.58,18.36,38.22,48.3,59.53,3.14,2.24,5.78,3.93,7.72,5.15,10.08,6.34,40.73,25.64,71.11,18.29,5.88-1.42,11.85-3.74,16.17-5.84-4.6-2.51-8.93-5.83-16.33-11.59-11.64-9.07-21.31-19.46-27.37-26.59-11.63-13.86-22.42-28.53-32.1-43.66-8.04-12.56-15.62-25.91-21.93-38.62-4.75-9.57-11.92-24.03-18.66-44.22-4.67-14-8.23-28.05-9.4-32.67-1.55-6.12-2.65-10.95-3.47-14.71Z"/>
    </g>
    <g>
      <path class="cls-2" d="m154.63,67.24c-6.8-.28-21.56,41.91-13.97,85.16,1.14,6.51,7.36,39.07,33.91,68.57,7.3,8.11,19.93,21.84,41.16,30.66,23.77,9.88,46.79,9.35,60.59,2.42,1.93-.97,8.32-4.18,7.98-7.56-.3-2.97-5.56-3.71-13.02-7.35-7.65-3.73-12.33-7.93-20.58-15.33-6.21-5.57-10.18-10.18-15.12-15.96-11.01-12.88-18.27-23.72-26.25-35.7-4.59-6.89-9.63-14.81-14.91-23.73-4.03-6.81-6.72-11.71-11.13-19.74-9.61-17.52-14.41-26.28-17.74-33.92-8.71-19.97-8.08-27.4-10.92-27.51Z"/>
      <path class="cls-2" d="m251.64,266.67c-12.34,0-25.79-2.73-38.78-8.12-23.23-9.65-37.16-25.13-43.86-32.57-25.83-28.7-33.59-60.11-35.72-72.29-3.93-22.37-1.97-42.51.37-55.46,2.78-15.43,7.59-28.54,12.55-34.21,3.23-3.7,6.53-4.37,8.74-4.28h0c6.79.27,8.57,6.32,10.14,11.65,1.26,4.29,3.17,10.77,7.35,20.35,3.2,7.33,7.96,16.01,17.44,33.31,4.19,7.64,6.96,12.68,11.01,19.53,4.66,7.87,9.61,15.75,14.7,23.39,7.59,11.41,14.76,22.18,25.71,34.98,4.73,5.53,8.46,9.9,14.43,15.25,8.09,7.26,12.16,10.9,18.86,14.17,2.17,1.06,4.19,1.87,5.96,2.58,4.71,1.89,10.57,4.23,11.23,10.76.86,8.52-8.53,13.24-12.07,15.01-7.9,3.96-17.57,5.93-28.05,5.93Zm-98.65-183.63c-4.83,13.81-9.77,40.51-4.94,68.06,1.91,10.9,8.87,39.04,32.1,64.85,6.42,7.13,18.36,20.4,38.46,28.75,23.43,9.73,43.23,7.79,53.51,3.04-1.27-.53-2.66-1.15-4.13-1.87-8.58-4.19-13.75-8.82-22.29-16.49-6.71-6.02-10.93-10.96-15.82-16.67-11.53-13.49-19.29-25.15-26.79-36.42-5.24-7.87-10.32-15.97-15.12-24.07-4.18-7.05-6.99-12.19-11.25-19.95-9.7-17.69-14.58-26.57-18.04-34.52-2.57-5.89-4.37-10.78-5.69-14.71Z"/>
    </g>
    <g>
      <path class="cls-2" d="m303.41,201.12c-2.57,6.38-9.1,5.68-14.39,14.38-8.33,13.72.49,27.61-4.73,30.98-7.85,5.06-34.07-22.43-40.42-29.09-5.25-5.5-16.66-18.07-33.07-42.11-17.74-25.99-28.8-47.1-37.17-63.21-9.12-17.55-13.77-26.58-18.37-39.38-4.26-11.83-6.79-24.58-11.86-50.09-2.23-11.21-2.53-14.01-1.15-14.81,5.2-2.98,27.55,26.56,43.05,47.04,24.49,32.36,20.07,31.17,32.97,45.99,19.52,22.44,27.72,24.11,59.11,56.81,19.9,20.73,29.9,33.9,26.04,43.47Z"/>
      <path class="cls-2" d="m282.05,254.64c-9.24,0-22.43-9.87-43.6-32.07-10.38-10.88-21.76-25.36-33.84-43.06-18.36-26.89-29.96-49.21-37.63-63.98-8.97-17.26-13.9-26.76-18.78-40.29-4.45-12.36-7.03-25.32-12.16-51.14-2.54-12.78-3.81-19.19,2.46-22.79,7.45-4.28,14.97,2.15,27.1,16.36,8.32,9.74,17.94,22.45,25.66,32.66,12.78,16.89,17.81,24.78,21.48,30.54,3.29,5.16,5.27,8.27,11.17,15.05,9.44,10.86,16.06,16.6,24.43,23.88,8.26,7.18,18.54,16.11,34.43,32.66,19.29,20.09,33.57,36.64,27.58,51.47-2.13,5.28-5.83,7.7-8.81,9.65-2.4,1.57-4.29,2.8-6.12,5.82-3.44,5.66-2.81,11.67-2.26,16.97.55,5.26,1.3,12.47-4.82,16.42-1.9,1.22-3.98,1.86-6.32,1.86ZM151.34,24.1c4.61,23.17,7.07,35.21,10.98,46.06,4.35,12.08,8.65,20.52,17.97,38.46,7.96,15.32,18.86,36.29,36.71,62.44,11.62,17.02,22.49,30.87,32.31,41.16,15.91,16.68,24.6,23.21,28.96,25.75,0-.02,0-.03,0-.05-.68-6.5-1.7-16.34,4.36-26.31,3.6-5.92,7.72-8.62,10.73-10.59,2.35-1.54,2.79-1.92,3.11-2.71h0c2.83-7.01-16.32-26.95-24.49-35.47-15.42-16.06-25-24.38-33.45-31.72-8.47-7.36-15.78-13.71-25.91-25.35-6.63-7.62-9.09-11.49-12.5-16.84-3.54-5.55-8.38-13.15-20.79-29.55-6.45-8.53-18.83-24.88-27.97-35.28Z"/>
    </g>
    <g>
      <path class="cls-2" d="m233.9,183.69c.72-.64,2.48,1.57,23.62,17.75,16.1,12.31,21.89,16.24,24.99,24.78,2.16,5.95,3.49,15.45.31,17.12-9.11,4.76-52.61-56.34-48.93-59.64Z"/>
      <path class="cls-2" d="m281.7,251.12c-6.61,0-13.63-6.39-20.35-13.59-6.77-7.25-14.76-17.33-21.91-27.64-4.09-5.89-7.44-11.2-9.7-15.36-2.35-4.32-6.27-11.55-.85-16.42h0c1.1-.99,5.14-3.93,10.67-.12,1.09.75,2.57,1.92,5.26,4.05,3.49,2.76,8.76,6.93,17.26,13.43l3.37,2.57c14.07,10.73,20.49,15.62,24.11,25.61.77,2.12,7.21,20.85-3.26,26.32-1.5.79-3.04,1.14-4.6,1.14Zm-21.38-38.11c6.67,8.63,12.05,14.58,15.93,18.31-.22-.85-.48-1.71-.79-2.54-1.82-5.02-4.9-7.88-15.14-15.76Zm-21.41-23.74h0s0,0,0,0Z"/>
    </g>
    <g>
      <path class="cls-2" d="m235.3,157.61c.67-.56,5.87,6.61,19.81,18.1,12.78,10.54,17.57,12.08,22.78,20.06,5.62,8.59,8.72,20.05,6.33,21.48-6.16,3.7-50.88-58-48.93-59.64Z"/>
      <path class="cls-2" d="m283.63,224.97c-6.22,0-12.81-6.92-20.47-15.74-6.7-7.72-15.19-18.61-22.71-29.13-3.61-5.05-6.64-9.52-8.76-12.91-2.82-4.52-6.69-10.71-1.22-15.32.53-.45,5.35-4.23,10.85.75.7.64,1.51,1.46,2.62,2.59,2.96,3.03,7.92,8.09,15.95,14.71,4.1,3.39,7.3,5.77,10.11,7.87,5.79,4.31,9.97,7.43,14.18,13.87,5.04,7.71,9.58,19.48,8.05,26.11-.59,2.56-2.05,4.66-4.13,5.91-1.47.88-2.96,1.29-4.46,1.29Z"/>
    </g>
    <g>
      <path class="cls-2" d="m267.69,154.07c.82-.26,3.23,6.11,12.33,17.55,8.34,10.49,12.3,12.65,14.45,19.62,2.31,7.5,1.28,16.55-1.45,17.08-7.03,1.36-27.72-53.47-25.33-54.25Z"/>
      <path class="cls-2" d="m292.49,215.87c-6.41,0-11.69-6.71-19.8-24.61-4.92-10.84-10.03-24.42-11.88-31.58-1.78-6.9-.25-11.19,4.56-12.75h0c5.97-1.94,9.12,3.25,10.82,6.04,1.7,2.81,4.55,7.5,9.7,13.97,2.64,3.32,4.79,5.73,6.69,7.86,3.99,4.47,7.14,8.01,9.06,14.22,2.09,6.77,2.47,16.5-.83,22.01-1.49,2.49-3.75,4.14-6.36,4.64-.66.13-1.31.2-1.95.2Z"/>
    </g>
    <g>
      <path class="cls-2" d="m301.59,197.59c-4.64-2.21-16.8,8.94-21.07,22.3-3.6,11.26-2.07,25.55,2.66,26.85,5.19,1.44,14.22-12.77,17.98-25.06,2.39-7.81,4.84-21.98.43-24.09Z"/>
      <path class="cls-2" d="m283.94,254.35c-.91,0-1.82-.12-2.76-.38-2.07-.57-5-2.1-7.16-6.09-3.76-6.96-4.04-19.7-.65-30.28,3.67-11.48,12.81-22.89,21.26-26.54,4.63-2,8.09-1.24,10.18-.24h0c10.74,5.12,6.04,24.82,3.52,33.06-2.56,8.37-12.19,30.48-24.4,30.48Zm12.41-46.28c-3.11,3.14-6.8,8.22-8.68,14.1-1.57,4.9-1.81,9.89-1.52,13.51,2.63-3.7,5.82-9.58,7.85-16.2,1.27-4.13,2.02-8.23,2.35-11.41Z"/>
    </g>
  </g>
  <g>
    <g>
      <path class="cls-2" d="m450.72,121.37c12.4,1.5,39.67,103.88-17.64,170.13-30.41,35.14-70.7,44.03-82.38,46.43-13.37,2.75-53.77,11.07-86.32-10.01-11.11-7.2-26.3-21.06-24.02-25.18.8-1.45,3.39-1.04,8.57-1.46,0,0,6.02-.48,21.98-5.5,19.43-6.11,47.23-27.07,47.23-27.07,19.28-14.53,34.4-25.93,55.35-45.72,23.57-22.27,38-35.89,52.56-57.94,19.21-29.08,19.8-44.27,24.66-43.68Z"/>
      <path class="cls-2" d="m316.47,349.38c-17.34,0-37.78-3.27-56.16-15.17-6.11-3.96-13.1-9.6-18.25-14.72-5.86-5.84-12.1-13.43-8.27-20.38,2.62-4.75,7.57-4.96,11.18-5.12.98-.04,2.1-.09,3.35-.19-.01,0,5.79-.61,20.34-5.18,17.96-5.64,44.7-25.7,44.97-25.9,19.04-14.35,34.06-25.68,54.71-45.18,23.3-22.01,37.37-35.3,51.46-56.62,9.91-15,14.6-26,17.71-33.28,3.22-7.54,6.26-14.66,14.11-13.71h0c5.79.7,10.47,6.15,14.73,17.17,5.82,15.06,11.16,42.26,8.71,73.44-1.97,25.05-9.87,61.32-36.3,91.87-14.91,17.24-42.03,39.71-86.53,48.87-6.7,1.38-19.94,4.11-35.76,4.11Zm-64.3-40.99c3.98,4.02,9.98,9.14,16.3,13.23,29.98,19.42,68.18,11.55,80.73,8.96,40.38-8.31,64.82-28.51,78.22-44,32.91-38.04,34.64-86.18,32.73-111.5-1.48-19.73-5.65-33.95-8.92-41.37-3.13,7.32-8.35,19.47-18.91,35.46-15.04,22.77-29.58,36.51-53.67,59.26-21.25,20.07-36.57,31.62-55.97,46.25-1.19.89-29.08,21.82-49.51,28.24-11.06,3.48-17.67,4.89-21,5.45Z"/>
    </g>
    <g>
      <path class="cls-2" d="m444.94,135.04c8.86,1.41,25.18,97.03-24.96,152.41-11.28,12.46-35.15,33.26-68.05,43.3-4,1.22-7.21,2.03-9.37,2.55-12.4,3.03-49.84,12.17-79-6.12-9.96-6.24-23.42-18.49-21.18-22.38.79-1.37,3.16-1.08,7.93-1.65,5.52-.66,10.49-2.37,20.41-5.87,14.63-5.16,27.23-12.41,33-15.89,17.58-10.78,32.06-21.46,43.45-30.65,16.11-13,27.55-24.24,32.43-29.13,7.77-7.81,18.8-18.98,31.03-35.24,8.52-11.33,16.1-23.12,18.94-27.55,12.92-20.15,13.52-24.06,15.36-23.76Z"/>
      <path class="cls-2" d="m306.4,345.78c-14.95,0-31.77-2.81-46.82-12.24-5.55-3.48-11.87-8.51-16.48-13.12-3.19-3.19-11.65-11.65-7.21-19.36,2.54-4.41,7.12-4.78,10.46-5.06.87-.07,1.89-.15,3.07-.3,4.68-.56,9.15-2.09,18.81-5.5,12.71-4.49,24.21-10.76,31.62-15.24,14.79-9.07,29.14-19.2,42.62-30.07,11.19-9.03,22.19-18.91,31.82-28.59,7.24-7.28,18.19-18.28,30.36-34.46,8.53-11.35,16.13-23.2,18.62-27.09,5.73-8.93,9.04-14.7,11.01-18.14,3.07-5.34,5.72-9.95,11.83-8.98h0c5.73.91,8.44,6.63,10.16,11.52,4.56,12.95,7.79,38.71,4.74,67.09-2.62,24.37-10.9,59.11-35.47,86.25-8.89,9.82-33.65,33.91-71.42,45.44-4.01,1.22-7.33,2.07-9.78,2.66-6.91,1.69-21.26,5.19-37.95,5.19Zm-52.33-35.61c3.43,3.36,8.36,7.44,13.49,10.66,26.48,16.6,61.67,8.01,73.24,5.19,2.39-.58,5.33-1.33,8.96-2.44,35.15-10.73,58.39-34.21,64.68-41.16,37.99-41.97,35.03-107.75,29.43-132.42-1.97,3.31-4.55,7.54-7.95,12.86-2.57,4.01-10.39,16.21-19.26,28.01-12.79,17.01-24.18,28.46-31.71,36.03-10.01,10.06-21.43,20.32-33.03,29.68-13.98,11.28-28.86,21.78-44.24,31.21-8.05,4.86-20.52,11.66-34.43,16.57-8.84,3.12-14,4.89-19.16,5.82Z"/>
    </g>
    <g>
      <path class="cls-2" d="m420.14,173.81c6.53,1.89,7.17,46.59-13.73,85.19-3.15,5.82-19.36,34.72-53.89,54.29-9.49,5.38-25.82,14.4-48.75,16.04-25.68,1.83-47.34-5.96-58.23-16.9-1.52-1.53-6.57-6.6-5.17-9.7,1.23-2.72,6.45-1.76,14.68-2.85,8.43-1.12,14.21-3.62,24.38-8.02,7.66-3.32,12.88-6.43,19.4-10.35,14.53-8.73,24.85-16.71,36.21-25.54,6.53-5.08,13.83-11,21.66-17.78,5.98-5.18,10.08-8.97,16.81-15.2,14.66-13.57,22-20.36,27.58-26.55,14.59-16.19,16.35-23.42,19.07-22.63Z"/>
      <path class="cls-2" d="m296.35,337.1c-22.94,0-43.96-7.15-56.13-19.38-2.8-2.81-10.21-10.27-6.7-18.07,2.69-5.98,9-6.35,14.06-6.64,1.91-.11,4.08-.24,6.47-.56,7.4-.98,12.4-3.15,22.37-7.46,7.36-3.19,12.29-6.15,18.52-9.9,14.43-8.68,24.65-16.62,35.47-25.04,7.25-5.64,14.43-11.54,21.35-17.53,6.01-5.21,10.24-9.12,16.63-15.03,14.48-13.4,21.75-20.13,27.1-26.06,7-7.76,10.86-13.31,13.42-16.97,3.18-4.56,6.79-9.74,13.31-7.84,2.12.61,5.04,2.29,6.93,6.83,2.91,6.95,3.32,20.91,1.07,36.42-1.89,13.02-6.41,32.74-17.22,52.72-5.89,10.87-23.2,38.21-56.79,57.24-8.71,4.93-26.83,15.2-51.92,17-2.67.19-5.32.29-7.95.29Zm-44.84-29.32c8.25,7.76,26.42,15.87,51.72,14.07,21.71-1.55,37.25-10.36,45.59-15.09,30.21-17.12,45.73-41.6,50.99-51.33,13.32-24.6,17.08-51.48,16.88-66.11-2.49,3.31-5.75,7.38-10.05,12.15-5.81,6.44-13.24,13.32-28.05,27.03-6.5,6.02-10.79,9.99-16.99,15.36-7.12,6.17-14.51,12.24-21.97,18.04-10.69,8.32-21.74,16.91-36.95,26.05-6.45,3.88-12.02,7.22-20.28,10.8-10.54,4.57-16.9,7.32-26.37,8.57-1.63.21-3.14.36-4.51.46Z"/>
    </g>
    <g>
      <path class="cls-2" d="m236.61,253.65c.42,6.86,6.83,8.27,9.09,18.2,3.56,15.65-9.21,26.03-5.33,30.88,5.84,7.29,39.43-10.48,47.56-14.78,6.72-3.56,21.53-11.86,44.71-29.46,25.06-19.03,42.24-35.55,55.28-48.18,14.21-13.76,21.48-20.85,29.9-31.53,7.79-9.87,14.23-21.16,27.12-43.75,5.66-9.92,6.84-12.49,5.79-13.68-3.98-4.48-34.55,16.47-55.74,30.98-33.48,22.94-28.92,23.2-45.84,33.18-25.63,15.1-33.93,14.08-74.07,35.15-25.45,13.36-39.1,22.68-38.47,32.98Z"/>
      <path class="cls-2" d="m245.29,311.97c-4.9,0-8.37-1.54-10.78-4.55-4.55-5.68-1.68-12.01.63-17.1,2.2-4.85,4.7-10.36,3.24-16.81-.78-3.44-2.19-5.22-3.96-7.46-2.2-2.79-4.95-6.26-5.3-11.94h0c-.98-15.96,17.81-27.14,42.47-40.08,20.32-10.66,32.9-15.88,43.01-20.07,10.25-4.25,18.34-7.6,30.74-14.91,7.74-4.56,10.61-6.89,15.36-10.74,5.31-4.3,12.58-10.2,30.05-22.16,10.56-7.24,23.71-16.24,34.69-22.85,16.01-9.63,25.18-13.34,30.89-6.93,4.81,5.41,1.58,11.08-4.87,22.38-13.06,22.88-19.61,34.36-27.75,44.67-8.91,11.29-16.6,18.74-30.57,32.27-11.96,11.58-30.03,29.07-55.96,48.76-17.05,12.95-32.44,23.08-45.74,30.11-22.27,11.78-36.81,17.39-46.14,17.39Zm191.65-178.03c-11.97,6.96-28.88,18.55-37.71,24.6-16.97,11.62-23.97,17.3-29.08,21.44-4.93,3.99-8.49,6.88-17.19,12.01-13.3,7.84-22.25,11.54-32.61,15.84-10.34,4.29-22.06,9.14-41.78,19.49-10.45,5.49-34.93,18.34-34.47,25.88h0c.05.85.35,1.35,2.09,3.55,2.23,2.82,5.29,6.68,6.82,13.44,2.59,11.38-1.5,20.38-4.21,26.34,0,.01-.01.03-.02.04,4.95-1.03,15.25-4.47,35.62-15.25,12.59-6.66,27.29-16.35,43.69-28.81,25.22-19.15,42.2-35.59,54.6-47.59,14.52-14.06,21.28-20.71,29.23-30.78,7.15-9.06,13.3-19.7,25.01-40.21Z"/>
    </g>
    <g>
      <path class="cls-2" d="m308.06,259.14c-.48-.84-2.85.71-28.03,9.35-19.17,6.58-25.91,8.47-31.55,15.59-3.93,4.96-8.21,13.55-5.72,16.13,7.13,7.4,67.75-36.77,65.3-41.07Z"/>
      <path class="cls-2" d="m245.22,308.54c-3.05,0-5.73-.91-7.87-3.13-8.2-8.51,3.85-24.23,5.25-26,6.6-8.32,14.24-10.93,30.99-16.65l4.01-1.37c10.12-3.47,16.44-5.76,20.62-7.27,3.23-1.17,5.01-1.81,6.28-2.18,6.46-1.86,9.35,2.2,10.08,3.49,3.6,6.33-2.42,11.95-6.01,15.3-3.46,3.23-8.33,7.21-14.07,11.5-10.06,7.52-20.82,14.54-29.54,19.27-6.99,3.79-13.99,7.03-19.73,7.03Zm28.48-29.96c-12.22,4.23-16.04,5.97-19.36,10.15-.55.7-1.07,1.43-1.55,2.16,4.86-2.3,11.85-6.24,20.91-12.32Z"/>
    </g>
    <g>
      <path class="cls-2" d="m315,233.96c-.45-.74-7.67,4.41-24.53,10.89-15.46,5.95-20.49,5.89-27.97,11.8-8.05,6.37-14.62,16.25-12.81,18.37,4.67,5.46,66.63-38.89,65.3-41.07Z"/>
      <path class="cls-2" d="m250.9,283.01c-2.72,0-5.04-.93-6.91-3.11-1.58-1.84-2.3-4.3-2.05-6.91.66-6.77,8.69-16.5,15.91-22.21,6.03-4.77,10.99-6.41,17.84-8.67,3.34-1.1,7.12-2.35,12.08-4.26,9.71-3.74,16.02-6.97,19.79-8.9,1.41-.73,2.44-1.25,3.3-1.63,6.79-2.98,10.17,2.13,10.53,2.73h0c3.73,6.1-1.9,10.75-6.01,14.14-3.08,2.55-7.37,5.82-12.39,9.47-10.47,7.6-21.97,15.23-30.77,20.43-8.42,4.97-15.71,8.92-21.32,8.92Z"/>
    </g>
    <g>
      <path class="cls-2" d="m285.4,220.34c-.69-.51-5,4.77-17.26,12.74-11.24,7.3-15.68,8.1-19.92,14.03-4.57,6.38-6.46,15.29-4.04,16.66,6.24,3.52,43.24-41.93,41.21-43.43Z"/>
      <path class="cls-2" d="m245.04,271.55c-1.6,0-3.08-.43-4.54-1.25-2.31-1.31-3.93-3.58-4.56-6.42-1.39-6.26,2.06-15.37,6.18-21.13,3.78-5.29,7.89-7.64,13.1-10.62,2.47-1.42,5.28-3.02,8.83-5.33,6.93-4.5,11.12-8.06,13.63-10.18,2.49-2.11,7.12-6.03,12.17-2.3h0c4.06,3,4.16,7.56.28,13.54-4.02,6.21-13.17,17.47-21.27,26.19-11.41,12.29-18.28,17.51-23.83,17.51Z"/>
    </g>
    <g>
      <path class="cls-2" d="m239.46,250.88c5.11-.63,13.1,13.8,12.92,27.83-.15,11.82-6.13,24.89-11.03,24.63-5.38-.28-9.44-16.62-9.11-29.47.21-8.17,2.37-22.39,7.23-22.98Z"/>
      <path class="cls-2" d="m241.48,310.84c-.19,0-.36,0-.54-.01-13.99-.74-16.46-27.75-16.22-37.15.22-8.61,2-28.79,13.81-30.24h0c2.3-.28,5.82.09,9.58,3.46,6.86,6.14,11.91,19.86,11.75,31.91-.14,11.11-4.44,23.11-10.21,28.52-3.05,2.85-6.05,3.52-8.18,3.52Zm-.38-48.36c-.69,3.13-1.27,7.25-1.38,11.57-.17,6.92.99,13.51,2.31,17.86,1.42-3.34,2.77-8.15,2.84-13.3.08-6.17-1.81-12.16-3.77-16.13Z"/>
    </g>
  </g>
  <g>
    <g>
      <path class="cls-2" d="m11.48,176.16c-11.18,5.58-2.43,111.17,73.82,154.29,40.45,22.87,81.39,17.69,93.19,16.03,13.52-1.9,54.36-7.66,77.93-38.46,8.05-10.52,17.69-28.68,14.16-31.8-1.24-1.1-3.55.16-8.56,1.51,0,0-5.83,1.57-22.55,2.21-20.36.78-53.58-9.61-53.58-9.61-23.04-7.21-41.11-12.86-67.5-24.45-29.69-13.04-47.86-21.02-68.99-36.89-27.87-20.93-33.53-35.03-37.92-32.84Z"/>
      <path class="cls-2" d="m155,355.66c-32.65,0-57.35-9.61-73.4-18.68-35.17-19.89-54.81-51.39-65.08-74.31C3.73,234.13-.39,206.72.03,190.58c.3-11.81,2.88-18.52,8.1-21.12h0c7.07-3.53,12.33,2.15,17.9,8.17,5.38,5.81,13.5,14.59,27.87,25.39,20.43,15.34,38.14,23.13,67.49,36.02,26.01,11.43,43.98,17.05,66.73,24.16.32.1,32.24,9.98,51.06,9.27,15.24-.59,20.9-1.97,20.96-1.98,1.15-.31,2.21-.64,3.16-.93,3.46-1.07,8.19-2.53,12.25,1.06,5.95,5.25,2.63,14.5-.93,21.97-3.12,6.56-7.81,14.22-12.23,20-25.43,33.24-68.64,39.33-82.84,41.33-8.62,1.21-16.8,1.75-24.53,1.75ZM15.16,187.97c-.59,8.09.27,22.88,5.51,41.96,6.72,24.48,24.54,69.24,68.32,94,17.82,10.08,47.63,20.88,88.46,15.13,12.69-1.79,51.32-7.23,73.02-35.59,4.57-5.98,8.51-12.82,10.9-17.94-3.32.58-10.02,1.48-21.61,1.92-21.41.83-54.7-9.5-56.11-9.94-23.19-7.25-41.51-12.98-68.28-24.74-30.35-13.33-48.66-21.38-70.48-37.76-15.32-11.51-24.32-21.19-29.73-27.04Z"/>
    </g>
    <g>
      <path class="cls-2" d="m21.53,187.1c-7.87,4.31,8.92,99.85,74.76,135.14,14.81,7.94,44.29,19.5,78.64,17.89,4.17-.2,7.47-.52,9.68-.75,12.69-1.32,51.03-5.3,72.34-32.33,7.28-9.23,15.84-25.29,12.42-28.2-1.2-1.02-3.34.04-8.02,1.11-5.42,1.24-10.67,1.29-21.2,1.33-15.51.06-29.82-2.52-36.43-3.87-20.18-4.24-37.41-9.43-51.23-14.26-19.54-6.82-34.1-13.56-40.33-16.53-9.94-4.74-24.09-11.55-41.08-22.75-11.83-7.81-22.94-16.36-27.1-19.57-18.94-14.63-20.82-18.11-22.45-17.22Z"/>
      <path class="cls-2" d="m168.31,347.79c-36.15,0-64.59-13.05-75.57-18.94-32.27-17.3-51.75-47.23-62.41-69.3-12.42-25.7-18.04-51.05-18.09-64.77-.02-5.18.6-11.48,5.69-14.26h0c5.43-2.97,9.48.48,14.16,4.48,3.02,2.58,8.08,6.89,16.47,13.38,3.66,2.83,14.81,11.44,26.65,19.25,16.9,11.15,30.91,17.83,40.18,22.25,12.31,5.87,26,11.48,39.58,16.22,16.35,5.71,33.27,10.42,50.3,14,8.43,1.71,21.37,3.75,34.85,3.71,10.24-.04,14.96-.1,19.56-1.15,1.16-.26,2.15-.53,2.99-.75,3.24-.87,7.69-2.05,11.56,1.24,6.78,5.77,1.65,16.58-.28,20.66-2.79,5.9-7.05,12.75-11.11,17.9-23.28,29.52-64.06,33.76-77.46,35.15-2.49.26-5.89.58-10.1.78-2.35.11-4.68.16-6.97.16ZM27.58,200.82c3.02,25.12,22.36,88.07,72.25,114.81,8.25,4.43,38.03,18.73,74.75,17.01,3.84-.18,6.96-.48,9.26-.71,11.84-1.23,47.88-4.97,67.23-29.52,3.75-4.75,7.01-10.26,9.12-14.57-5.17.86-10.62.93-20,.96-14.79.07-28.79-2.15-37.95-4.02-17.7-3.72-35.25-8.61-52.2-14.53-14.09-4.92-28.3-10.74-41.09-16.84-9.64-4.6-24.22-11.54-41.98-23.26-12.3-8.11-23.78-16.98-27.56-19.9-5-3.86-8.85-6.97-11.81-9.43Z"/>
    </g>
    <g>
      <path class="cls-2" d="m57.91,215.27c-5.52,3.98,8.91,46.28,41.58,75.61,4.92,4.42,29.91,26.19,69.01,33,10.75,1.87,29.16,4.88,51.31-1.29,24.8-6.91,42.58-21.53,49.15-35.5.92-1.95,3.97-8.43,1.61-10.87-2.07-2.15-6.66.51-14.78,2.26-8.32,1.78-14.6,1.37-25.65.64-8.33-.55-14.29-1.72-21.75-3.22-16.62-3.34-29.02-7.38-42.69-11.88-7.86-2.59-16.72-5.71-26.38-9.46-7.38-2.87-12.51-5.06-20.94-8.66-18.37-7.85-27.56-11.78-34.9-15.73-19.18-10.34-23.27-16.56-25.57-14.9Z"/>
      <path class="cls-2" d="m192.46,333.77c-10.93,0-19.75-1.54-25.25-2.5-38.03-6.63-63.53-26.55-72.73-34.81-16.9-15.18-27.79-32.23-33.95-43.86-7.34-13.86-11.64-27.14-11.24-34.66.26-4.91,2.45-7.47,4.23-8.76h0c5.51-3.97,10.64-.32,15.17,2.91,3.64,2.59,9.15,6.52,18.35,11.47,7.03,3.79,16.13,7.68,34.26,15.42,8.06,3.44,13.36,5.71,20.74,8.58,8.52,3.32,17.27,6.46,26.01,9.33,13.01,4.29,25.31,8.33,41.82,11.65,7.13,1.43,12.77,2.57,20.76,3.09,10.85.71,16.29,1.07,23.59-.49,2.36-.51,4.45-1.12,6.28-1.65,4.87-1.42,10.93-3.19,15.47,1.53,5.94,6.17,1.46,15.68-.23,19.27-8.2,17.4-28.86,32.55-53.93,39.53-10.71,2.98-20.7,3.95-29.36,3.95Zm-126.09-105.06c4.73,13.85,17.32,37.9,38.13,56.59,8.23,7.39,31.08,25.23,65.29,31.2,9.45,1.65,27.04,4.72,48.01-1.12,24.44-6.81,38.82-20.56,43.97-30.64-1.33.36-2.8.74-4.4,1.08-9.34,2-16.26,1.55-27.72.79-8.99-.59-15.36-1.87-22.73-3.35-17.4-3.5-30.7-7.88-43.56-12.11-8.98-2.96-17.98-6.19-26.75-9.6-7.6-2.96-13-5.26-21.17-8.75-18.57-7.93-27.88-11.91-35.51-16.02-5.65-3.05-10.09-5.78-13.55-8.06Z"/>
    </g>
    <g>
      <path class="cls-2" d="m257.61,228.74c1.91,6.61-3.65,10.09-2.44,20.2,1.91,15.94,17.43,21.42,15.4,27.29-3.05,8.83-40.65,3.39-49.76,2.07-7.53-1.09-24.26-3.93-52.01-12.71-30-9.49-51.73-19.28-68.26-26.78-18-8.18-27.24-12.41-38.76-19.63-10.66-6.68-20.52-15.15-40.25-32.08-8.67-7.44-10.64-9.46-10.05-10.93,2.25-5.56,38.08,3.89,62.91,10.43,39.24,10.34,35.03,12.13,54.33,15.83,29.22,5.6,36.69,1.85,81.57,8.2,28.46,4.02,44.45,8.21,47.32,18.12Z"/>
      <path class="cls-2" d="m252.65,288.7c-8.45,0-19.28-1.01-32.91-2.98-14.89-2.15-32.79-6.52-53.2-12.98-31.05-9.82-53.95-20.22-69.1-27.1-17.71-8.04-27.47-12.47-39.65-20.11-11.13-6.98-21.17-15.59-41.15-32.74-9.87-8.47-14.83-12.73-12.12-19.44,3.22-7.96,13.11-7.55,31.42-3.86,12.56,2.53,27.97,6.59,40.35,9.85,20.47,5.4,29.3,8.5,35.75,10.77,5.77,2.03,9.25,3.25,18.08,4.95,14.13,2.71,22.88,3.15,33.96,3.7,10.93.55,24.53,1.22,47.25,4.44,27.58,3.9,49.03,8.1,53.48,23.47,1.58,5.47.17,9.66-.97,13.03-.92,2.71-1.64,4.85-1.22,8.36.79,6.57,4.99,10.91,8.7,14.74,3.68,3.8,8.72,9.01,6.35,15.89-2.34,6.78-9.87,10.03-25.01,10.03ZM28.69,183.36c17.92,15.37,27.29,23.33,37.07,29.46,10.87,6.81,19.47,10.8,37.88,19.16,15.71,7.14,37.24,16.91,67.42,26.46,19.64,6.21,36.74,10.4,50.82,12.43,22.82,3.3,33.67,3.07,38.68,2.38-.01-.01-.02-.02-.03-.03-4.55-4.7-11.43-11.8-12.82-23.39-.83-6.88.75-11.55,1.9-14.96.9-2.67,1.01-3.23.77-4.05h0c-2.1-7.26-29.48-11.13-41.17-12.78-22.05-3.12-34.72-3.75-45.9-4.31-11.2-.56-20.88-1.04-36.04-3.95-9.92-1.9-14.24-3.42-20.23-5.53-6.21-2.18-14.71-5.17-34.6-10.41-10.34-2.73-30.17-7.95-43.78-10.48Z"/>
    </g>
    <g>
      <path class="cls-2" d="m192.16,257.94c.17-.95,2.92-.29,29.54-.62,20.26-.25,27.24-.74,34.96,4.07,5.37,3.35,12.29,10,10.81,13.27-4.23,9.37-76.17-11.84-75.31-16.71Z"/>
      <path class="cls-2" d="m259.49,284.54c-3.87,0-8.15-.51-12.48-1.19-9.8-1.53-22.31-4.52-34.3-8.22-6.85-2.11-12.77-4.22-17.11-6.1-4.51-1.95-12.07-5.22-10.81-12.39h0c.26-1.46,1.62-6.26,8.32-6.68,1.32-.08,3.21-.07,6.64-.06,4.45.02,11.17.05,21.87-.09l4.24-.06c17.69-.25,25.76-.36,34.78,5.26,1.91,1.19,18.54,11.95,13.68,22.72-2.34,5.18-7.94,6.8-14.82,6.8Zm-28.43-19.84c10.57,2.67,18.48,4.03,23.83,4.57-.7-.53-1.44-1.04-2.19-1.51-4.53-2.82-8.71-3.18-21.64-3.05Z"/>
    </g>
    <g>
      <path class="cls-2" d="m177.16,236.56c.18-.85,8.7,1.57,26.76,2.01,16.56.4,21.28-1.34,30.31,1.71,9.73,3.29,19.24,10.39,18.25,12.99-2.56,6.71-75.83-14.22-75.31-16.71Z"/>
      <path class="cls-2" d="m247.49,262.13c-4.64,0-10.29-.95-16.53-2.16-10.03-1.93-23.42-5.25-35.83-8.89-5.97-1.75-11.11-3.39-14.88-4.75-5.01-1.82-11.88-4.3-10.43-11.3h0c.14-.68,1.6-6.65,9-6.11.95.07,2.09.22,3.66.42,4.2.55,11.23,1.48,21.62,1.73,5.32.13,9.3.03,12.81-.05,7.22-.17,12.43-.31,19.72,2.16,8.72,2.95,19.55,9.41,22.45,15.57,1.12,2.37,1.26,4.93.39,7.2-1.76,4.62-6.05,6.19-12,6.19Z"/>
    </g>
    <g>
      <path class="cls-2" d="m200.45,213.78c.48-.71,6.31,2.81,20.53,6.19,13.04,3.1,17.49,2.36,23.48,6.52,6.45,4.48,11.23,12.23,9.41,14.33-4.69,5.41-54.82-24.95-53.42-27.04Z"/>
      <path class="cls-2" d="m252.05,249.01c-5.25,0-12.88-2.91-24.71-9.06-10.57-5.5-22.97-13.03-28.84-17.52-5.65-4.32-7.09-8.64-4.28-12.83h0c3.5-5.21,9.19-3.08,12.24-1.93,3.07,1.16,8.21,3.09,16.25,5,4.13.98,7.31,1.55,10.11,2.05,5.9,1.06,10.56,1.89,15.91,5.6,5.82,4.04,12.13,11.46,12.93,17.83.36,2.88-.39,5.57-2.13,7.58-1.88,2.16-4.23,3.29-7.49,3.29Z"/>
    </g>
    <g>
      <path class="cls-2" d="m253.99,227.09c-5.02,1.12-7.7,17.4-2.81,30.55,4.12,11.08,14.14,21.37,18.67,19.48,4.97-2.08,3.3-18.82-1.33-30.82-2.94-7.62-9.76-20.29-14.54-19.22Z"/>
      <path class="cls-2" d="m268.66,284.85c-1.53,0-3.31-.31-5.3-1.18-7.26-3.15-15.34-13-19.21-23.42-4.2-11.3-4.05-25.92.34-34.01,2.41-4.43,5.6-5.97,7.86-6.47h0c11.6-2.6,20.07,15.8,23.17,23.83,3.39,8.78,10.14,35.04-2.78,40.44-1.04.43-2.42.81-4.09.81Zm-12.32-46.28c-.51,4.4-.28,10.67,1.87,16.46,1.79,4.83,4.68,8.9,7.15,11.57-.22-4.53-1.34-11.13-3.83-17.59-1.56-4.03-3.49-7.72-5.19-10.43Z"/>
    </g>
  </g>
  <g>
    <g>
      <path class="cls-4" d="m142.22,7.63c-12.24-2.51-70.55,85.96-37.18,166.95,17.7,42.97,53.11,64.16,63.42,70.14,11.81,6.85,47.49,27.54,85.05,17.85,12.82-3.31,31.62-11.64,30.77-16.27-.3-1.63-2.89-2.06-7.66-4.1,0,0-5.56-2.36-19.11-12.18-16.5-11.95-36.22-40.64-36.22-40.64-13.68-19.89-24.41-35.49-38.01-60.9-15.3-28.59-24.67-46.09-31.5-71.61-9-33.67-4.75-48.26-9.55-49.25Z"/>
      <path class="cls-5" d="m233.11,266.85c-29.95,0-55.82-15-65.52-20.62-37.91-21.98-55.81-50.74-64.15-70.99-14.8-35.91-10.92-71.51-5.06-95.05,7.32-29.41,20.49-52.66,30.38-64.61,4.03-4.87,9.7-10.49,13.81-9.65h0c3.51.72,3.84,4.83,4.45,12.3.66,8.1,1.65,20.33,6.43,38.2,6.77,25.33,16.02,42.61,31.35,71.24,13.56,25.33,24.3,40.95,37.91,60.74.2.28,19.75,28.58,35.81,40.21,13.15,9.52,18.72,11.97,18.77,11.99,1.26.53,2.36.96,3.31,1.32,3,1.15,4.98,1.91,5.38,4.06.36,1.95-.41,5.15-11.19,10.51-6.17,3.07-14.16,6.04-20.85,7.76-7.06,1.82-14.06,2.59-20.84,2.59ZM141.67,9.31c-1.23,0-4.65,1.72-10.24,8.48-9.64,11.66-22.5,34.39-29.68,63.24-5.73,23.04-9.54,57.85,4.9,92.89,8.14,19.75,25.62,47.81,62.68,69.3,11.59,6.72,46.87,27.18,83.74,17.67,16.36-4.22,29.63-12.06,29.49-14.28-.23-.3-1.81-.9-3.2-1.44-.99-.38-2.12-.81-3.43-1.37-.23-.1-5.89-2.55-19.45-12.37-16.55-11.99-35.82-39.88-36.64-41.06-13.67-19.87-24.46-35.57-38.11-61.07-15.44-28.85-24.77-46.26-31.64-71.98-4.86-18.17-5.91-31.09-6.54-38.81-.38-4.62-.73-8.98-1.69-9.18h0c-.06-.01-.12-.02-.2-.02Z"/>
    </g>
    <path class="cls-7" d="m143.37,22.43c-8.85-1.47-54.62,84.06-24.62,152.47,6.75,15.39,22.8,42.68,50.82,62.63,3.4,2.42,6.2,4.21,8.08,5.39,10.8,6.8,43.41,27.33,76.87,19.23,11.42-2.77,28.07-10.12,27.18-14.52-.31-1.55-2.65-2.03-7-4.08-5.02-2.37-9.19-5.57-17.5-12.04-12.24-9.53-21.9-20.4-26.27-25.53-13.26-15.8-23.61-30.51-31.5-42.84-11.16-17.43-18.45-31.72-21.52-37.91-4.89-9.87-11.82-23.96-18.27-43.26-4.49-13.45-7.95-27.03-9.24-32.13-5.87-23.21-5.2-27.1-7.03-27.41Z"/>
    <path class="cls-8" d="m154.61,67.06c-6.8-.28-21.56,41.91-13.97,85.16,1.14,6.51,7.36,39.07,33.91,68.57,7.3,8.11,19.93,21.84,41.16,30.66,23.77,9.88,46.79,9.35,60.59,2.42,1.93-.97,8.32-4.18,7.98-7.56-.3-2.97-5.56-3.71-13.02-7.35-7.65-3.73-12.33-7.93-20.58-15.33-6.21-5.57-10.18-10.18-15.12-15.96-11.01-12.88-18.27-23.72-26.25-35.7-4.59-6.89-9.63-14.81-14.91-23.73-4.03-6.81-6.72-11.71-11.13-19.74-9.61-17.52-14.41-26.28-17.74-33.92-8.71-19.97-8.08-27.4-10.92-27.51Z"/>
    <g>
      <path class="cls-1" d="m303.39,200.94c-2.57,6.38-9.1,5.68-14.39,14.38-8.33,13.72.49,27.61-4.73,30.98-7.85,5.06-34.07-22.43-40.42-29.09-5.25-5.5-16.66-18.07-33.07-42.11-17.74-25.99-28.8-47.1-37.17-63.21-9.12-17.55-13.77-26.58-18.37-39.38-4.26-11.83-6.79-24.58-11.86-50.09-2.23-11.21-2.53-14.01-1.15-14.81,5.2-2.98,27.55,26.56,43.05,47.04,24.49,32.36,20.07,31.17,32.97,45.99,19.52,22.44,27.72,24.11,59.11,56.81,19.9,20.73,29.9,33.9,26.04,43.47Z"/>
      <path class="cls-5" d="m282.07,248.61c-7.17,0-20.16-9.95-39.48-30.2-10.17-10.66-21.35-24.9-33.25-42.33-18.16-26.6-29.66-48.74-37.27-63.39-8.85-17.04-13.73-26.42-18.47-39.59-4.3-11.96-6.85-24.78-11.93-50.34-2.33-11.73-2.89-15.17-.32-16.65,5.58-3.21,18.48,12.06,45.3,47.49,12.64,16.7,17.6,24.48,21.22,30.17,3.43,5.39,5.5,8.64,11.68,15.74,9.71,11.16,16.46,17.02,25,24.44,8.6,7.47,18.34,15.94,34.06,32.3,20.41,21.25,30.66,34.77,26.4,45.33h0c-1.46,3.61-3.96,5.25-6.62,6.98-2.65,1.73-5.38,3.52-7.89,7.66-4.44,7.32-3.68,14.66-3.06,20.56.5,4.8.93,8.95-2.21,10.98-.88.57-1.93.85-3.15.85ZM143.17,9.15c-.37,1.51.99,8.35,1.9,12.94,5.05,25.38,7.58,38.12,11.79,49.84,4.47,12.42,8.84,20.98,18.28,39.16,8.03,15.45,19.02,36.6,37.06,63.03,11.79,17.27,22.86,31.36,32.9,41.89,29.31,30.72,36.67,29.83,38.22,28.83,1.35-.87,1.03-3.88.63-7.69-.63-6.08-1.5-14.41,3.55-22.72,2.92-4.81,6.27-7,8.96-8.76,2.47-1.61,4.25-2.78,5.3-5.37h0c3.54-8.75-6.74-21.89-25.68-41.62-15.6-16.25-25.29-24.66-33.83-32.08-8.3-7.21-15.48-13.44-25.34-24.79-6.35-7.3-8.59-10.82-11.99-16.15-3.59-5.63-8.5-13.35-21.05-29.93-7.42-9.8-16.65-22-24.63-31.42-11.75-13.87-15.25-15.11-16.08-15.15Z"/>
    </g>
    <path class="cls-3" d="m233.88,183.51c.72-.64,2.48,1.57,23.62,17.75,16.1,12.31,21.89,16.24,24.99,24.78,2.16,5.95,3.49,15.45.31,17.12-9.11,4.76-52.61-56.34-48.93-59.64Z"/>
    <path class="cls-3" d="m235.28,157.42c.67-.56,5.87,6.61,19.81,18.1,12.78,10.54,17.57,12.08,22.78,20.06,5.62,8.59,8.72,20.05,6.33,21.48-6.16,3.7-50.88-58-48.93-59.64Z"/>
    <path class="cls-3" d="m267.66,153.88c.82-.26,3.23,6.11,12.33,17.55,8.34,10.49,12.3,12.65,14.45,19.62,2.31,7.5,1.28,16.55-1.45,17.08-7.03,1.36-27.72-53.47-25.33-54.25Z"/>
    <g>
      <path class="cls-6" d="m301.57,197.4c-4.64-2.21-16.8,8.94-21.07,22.3-3.6,11.26-2.07,25.55,2.66,26.85,5.19,1.44,14.22-12.77,17.98-25.06,2.39-7.81,4.84-21.98.43-24.09Z"/>
      <path class="cls-5" d="m283.89,248.51c-.42,0-.83-.05-1.23-.17-1.48-.41-2.72-1.53-3.69-3.33-3-5.55-3.11-16.92-.24-25.88,3.54-11.07,12-20.43,18.12-23.08,2.16-.93,4.01-1.04,5.51-.33h0c7.42,3.54.83,25.38.55,26.31-3.06,9.99-11.75,26.47-19.02,26.47Zm16.32-49.54c-.49,0-1.16.17-1.89.48-5.27,2.28-12.99,11.19-16.06,20.81-2.77,8.66-2.25,18.88-.03,22.99.46.84.97,1.4,1.42,1.52,2.94.8,11.48-9.99,15.72-23.82,3.04-9.93,3.73-20.76,1.4-21.88h0c-.14-.07-.33-.1-.55-.1Z"/>
    </g>
  </g>
  <g>
    <g>
      <path class="cls-4" d="m450.7,121.19c12.4,1.5,39.67,103.88-17.64,170.13-30.41,35.14-70.7,44.03-82.38,46.43-13.37,2.75-53.77,11.07-86.32-10.01-11.11-7.2-26.3-21.06-24.02-25.18.8-1.45,3.39-1.04,8.57-1.46,0,0,6.02-.48,21.98-5.5,19.43-6.11,47.23-27.07,47.23-27.07,19.28-14.53,34.4-25.93,55.35-45.72,23.57-22.27,38-35.89,52.56-57.94,19.21-29.08,19.8-44.27,24.66-43.68Z"/>
      <path class="cls-5" d="m316.45,343.43c-16.49,0-35.82-3.08-53.04-14.24-7.82-5.07-28.18-20.99-24.6-27.48,1.06-1.92,3.18-2.01,6.38-2.14,1.03-.04,2.21-.09,3.57-.2.06,0,6.12-.56,21.6-5.42,18.92-5.95,46.43-26.59,46.71-26.79,19.18-14.46,34.32-25.88,55.2-45.6,23.61-22.3,37.86-35.76,52.31-57.64,10.19-15.43,15.01-26.72,18.2-34.19,2.94-6.89,4.56-10.68,8.12-10.26,4.18.5,7.77,7.63,10.05,13.53,5.59,14.47,10.72,40.69,8.34,70.91-1.9,24.19-9.51,59.18-34.92,88.55-14.33,16.56-40.42,38.16-83.34,47-6.48,1.33-19.31,3.98-34.58,3.98Zm133.99-220.52c-.97,0-2.67,3.97-4.46,8.17-3.04,7.12-8.13,19.05-18.5,34.74-14.67,22.22-29.03,35.78-52.82,58.25-21.02,19.86-36.23,31.32-55.49,45.84-1.15.87-28.27,21.21-47.76,27.34-15.97,5.02-22.11,5.55-22.37,5.57-1.42.11-2.63.17-3.69.21-1.49.06-3.18.14-3.53.4-.89,2.25,10.13,14.18,23.49,22.84,31.96,20.7,71.9,12.47,85.03,9.77,41.96-8.64,67.43-29.71,81.41-45.87,24.79-28.66,32.22-62.89,34.08-86.55,2.33-29.64-2.66-55.27-8.12-69.38-3.35-8.68-6.19-11.2-7.22-11.33h0s-.03,0-.04,0Z"/>
    </g>
    <path class="cls-7" d="m444.91,134.86c8.86,1.41,25.18,97.03-24.96,152.41-11.28,12.46-35.15,33.26-68.05,43.3-4,1.22-7.21,2.03-9.37,2.55-12.4,3.03-49.84,12.17-79-6.12-9.96-6.24-23.42-18.49-21.18-22.38.79-1.37,3.16-1.08,7.93-1.65,5.52-.66,10.49-2.37,20.41-5.87,14.63-5.16,27.23-12.41,33-15.89,17.58-10.78,32.06-21.46,43.45-30.65,16.11-13,27.55-24.24,32.43-29.13,7.77-7.81,18.8-18.98,31.03-35.24,8.52-11.33,16.1-23.12,18.94-27.55,12.92-20.15,13.52-24.06,15.36-23.76Z"/>
    <path class="cls-8" d="m420.12,173.63c6.53,1.89,7.17,46.59-13.73,85.19-3.15,5.82-19.36,34.72-53.89,54.29-9.49,5.38-25.82,14.4-48.75,16.04-25.68,1.83-47.34-5.96-58.23-16.9-1.52-1.53-6.57-6.6-5.17-9.7,1.23-2.72,6.45-1.76,14.68-2.85,8.43-1.12,14.21-3.62,24.38-8.02,7.66-3.32,12.88-6.43,19.4-10.35,14.53-8.73,24.85-16.71,36.21-25.54,6.53-5.08,13.83-11,21.66-17.78,5.98-5.18,10.08-8.97,16.81-15.2,14.66-13.57,22-20.36,27.58-26.55,14.59-16.19,16.35-23.42,19.07-22.63Z"/>
    <g>
      <path class="cls-1" d="m236.58,253.47c.42,6.86,6.83,8.27,9.09,18.2,3.56,15.65-9.21,26.03-5.33,30.88,5.84,7.29,39.43-10.48,47.56-14.78,6.72-3.56,21.53-11.86,44.71-29.46,25.06-19.03,42.24-35.55,55.28-48.18,14.21-13.76,21.48-20.85,29.9-31.53,7.79-9.87,14.23-21.16,27.12-43.75,5.66-9.92,6.84-12.49,5.79-13.68-3.98-4.48-34.55,16.47-55.74,30.98-33.48,22.94-28.92,23.2-45.84,33.18-25.63,15.1-33.93,14.08-74.07,35.15-25.45,13.36-39.1,22.68-38.47,32.98Z"/>
      <path class="cls-5" d="m245.32,305.95c-3,0-5.1-.77-6.34-2.32-2.34-2.92-.61-6.71,1.38-11.11,2.45-5.4,5.51-12.12,3.61-20.47-1.07-4.72-3.1-7.28-5.06-9.76-1.97-2.49-3.83-4.84-4.07-8.72h0c-.7-11.36,13.31-20.93,39.4-34.63,20.09-10.54,32.01-15.48,42.54-19.84,10.45-4.33,18.71-7.75,31.46-15.26,8.11-4.78,11.1-7.21,16.07-11.23,5.23-4.24,12.4-10.05,29.68-21.89,36.66-25.12,53.74-35.51,58.02-30.7,1.97,2.22.35,5.31-5.58,15.69-12.91,22.62-19.39,33.98-27.27,43.96-8.66,10.98-16.26,18.34-30.06,31.7-11.86,11.48-29.79,28.84-55.44,48.31-16.8,12.76-31.93,22.72-44.95,29.61-21.04,11.13-35.39,16.65-43.39,16.65Zm203.53-183.7c-1.42,0-5.94,1.06-19.59,9.35-10.55,6.41-23.17,15.05-33.31,22-17.16,11.76-24.27,17.51-29.45,21.72-4.91,3.98-8.16,6.61-16.49,11.52-12.95,7.63-21.73,11.27-31.89,15.48-10.45,4.33-22.3,9.24-42.25,19.71-24.22,12.71-38.12,21.91-37.54,31.34h0c.17,2.79,1.49,4.46,3.32,6.78,1.99,2.52,4.48,5.66,5.72,11.15,2.16,9.49-1.31,17.11-3.83,22.68-1.59,3.49-2.84,6.25-1.84,7.5,1.16,1.45,7.86,4.62,45.38-15.22,12.86-6.81,27.83-16.67,44.48-29.31,25.49-19.35,42.62-35.93,55.12-48.04,14.72-14.25,21.57-20.99,29.75-31.35,7.71-9.78,14.15-21.06,26.98-43.53,2.33-4.08,5.81-10.18,5.91-11.7-.09-.03-.24-.06-.46-.06Z"/>
    </g>
    <path class="cls-3" d="m308.03,258.96c-.48-.84-2.85.71-28.03,9.35-19.17,6.58-25.91,8.47-31.55,15.59-3.93,4.96-8.21,13.55-5.72,16.13,7.13,7.4,67.75-36.77,65.3-41.07Z"/>
    <path class="cls-3" d="m314.97,233.78c-.45-.74-7.67,4.41-24.53,10.89-15.46,5.95-20.49,5.89-27.97,11.8-8.05,6.37-14.62,16.25-12.81,18.37,4.67,5.46,66.63-38.89,65.3-41.07Z"/>
    <path class="cls-3" d="m285.38,220.16c-.69-.51-5,4.77-17.26,12.74-11.24,7.3-15.68,8.1-19.92,14.03-4.57,6.38-6.46,15.29-4.04,16.66,6.24,3.52,43.24-41.93,41.21-43.43Z"/>
    <g>
      <path class="cls-6" d="m239.43,250.69c5.11-.63,13.1,13.8,12.92,27.83-.15,11.82-6.13,24.89-11.03,24.63-5.38-.28-9.44-16.62-9.11-29.47.21-8.17,2.37-22.39,7.23-22.98Z"/>
      <path class="cls-5" d="m241.46,305.01c-.08,0-.17,0-.25,0-7.76-.41-11.15-20.33-10.87-31.37.02-.97.7-23.77,8.86-24.78h0c1.65-.2,3.37.49,5.12,2.06,4.97,4.45,10.03,16.01,9.88,27.63-.12,9.41-3.82,20.16-8.43,24.47-1.41,1.32-2.86,1.99-4.31,1.99Zm-1.71-52.48s-.07,0-.1,0h0c-2.57.32-5.34,10.81-5.6,21.19-.37,14.46,4.33,27.41,7.36,27.57.48.03,1.13-.34,1.83-.99,3.41-3.19,7.14-12.72,7.25-21.81.13-10.1-4.36-20.99-8.64-24.83-.81-.72-1.58-1.14-2.09-1.14Z"/>
    </g>
  </g>
  <g>
    <g>
      <path class="cls-4" d="m11.45,175.98c-11.18,5.58-2.43,111.17,73.82,154.29,40.45,22.87,81.39,17.69,93.19,16.03,13.52-1.9,54.36-7.66,77.93-38.46,8.05-10.52,17.69-28.68,14.16-31.8-1.24-1.1-3.55.16-8.56,1.51,0,0-5.83,1.57-22.55,2.21-20.36.78-53.58-9.61-53.58-9.61-23.04-7.21-41.11-12.86-67.5-24.45-29.69-13.04-47.86-21.02-68.99-36.89-27.87-20.93-33.53-35.03-37.92-32.84Z"/>
      <path class="cls-5" d="m154.99,349.72c-31.43,0-55.17-9.22-70.57-17.93-33.81-19.12-52.74-49.52-62.66-71.66-12.4-27.66-16.39-54.08-15.99-69.58.16-6.31,1.15-14.24,4.91-16.12h0c3.21-1.6,6.01,1.43,11.09,6.93,5.52,5.96,13.85,14.97,28.64,26.08,20.97,15.75,38.91,23.63,68.64,36.69,26.31,11.56,44.41,17.22,67.32,24.38.33.1,33.17,10.29,53,9.53,16.24-.63,22.12-2.14,22.17-2.16,1.31-.35,2.43-.7,3.42-1,3.07-.95,5.1-1.58,6.73-.13,1.48,1.31,2.86,4.31-2.32,15.17-2.96,6.22-7.41,13.5-11.61,18.98-24,31.37-65.45,37.21-79.07,39.12-8.33,1.17-16.25,1.7-23.72,1.7ZM12.41,177.5c-.07,0-.13.01-.18.04h0c-.93.46-2.75,3.8-2.99,13.1-.39,15.12,3.52,40.95,15.69,68.07,9.71,21.66,28.21,51.4,61.2,70.05,18.6,10.52,49.67,21.79,92.09,15.82,13.27-1.87,53.66-7.56,76.79-37.79,10.27-13.42,15.86-27.78,14.38-29.44-.36-.09-1.98.41-3.4.85-1.02.31-2.17.67-3.55,1.04-.26.07-6.31,1.63-22.94,2.27-20.42.8-52.8-9.26-54.17-9.68-23.02-7.2-41.2-12.88-67.68-24.52-29.96-13.16-48.04-21.1-69.33-37.09-15.04-11.3-23.85-20.81-29.11-26.5-2.95-3.19-5.75-6.22-6.81-6.22Z"/>
    </g>
    <path class="cls-7" d="m21.5,186.92c-7.87,4.31,8.92,99.85,74.76,135.14,14.81,7.94,44.29,19.5,78.64,17.89,4.17-.2,7.47-.52,9.68-.75,12.69-1.32,51.03-5.3,72.34-32.33,7.28-9.23,15.84-25.29,12.42-28.2-1.2-1.02-3.34.04-8.02,1.11-5.42,1.24-10.67,1.29-21.2,1.33-15.51.06-29.82-2.52-36.43-3.87-20.18-4.24-37.41-9.43-51.23-14.26-19.54-6.82-34.1-13.56-40.33-16.53-9.94-4.74-24.09-11.55-41.08-22.75-11.83-7.81-22.94-16.36-27.1-19.57-18.94-14.63-20.82-18.11-22.45-17.22Z"/>
    <path class="cls-8" d="m57.89,215.09c-5.52,3.98,8.91,46.28,41.58,75.61,4.92,4.42,29.91,26.19,69.01,33,10.75,1.87,29.16,4.88,51.31-1.29,24.8-6.91,42.58-21.53,49.15-35.5.92-1.95,3.97-8.43,1.61-10.87-2.07-2.15-6.66.51-14.78,2.26-8.32,1.78-14.6,1.37-25.65.64-8.33-.55-14.29-1.72-21.75-3.22-16.62-3.34-29.02-7.38-42.69-11.88-7.86-2.59-16.72-5.71-26.38-9.46-7.38-2.87-12.51-5.06-20.94-8.66-18.37-7.85-27.56-11.78-34.9-15.73-19.18-10.34-23.27-16.56-25.57-14.9Z"/>
    <g>
      <path class="cls-1" d="m257.58,228.56c1.91,6.61-3.65,10.09-2.44,20.2,1.91,15.94,17.43,21.42,15.4,27.29-3.05,8.83-40.65,3.39-49.76,2.07-7.53-1.09-24.26-3.93-52.01-12.71-30-9.49-51.73-19.28-68.26-26.78-18-8.18-27.24-12.41-38.76-19.63-10.66-6.68-20.52-15.15-40.25-32.08-8.67-7.44-10.64-9.46-10.05-10.93,2.25-5.56,38.08,3.89,62.91,10.43,39.24,10.34,35.03,12.13,54.33,15.83,29.22,5.6,36.69,1.85,81.57,8.2,28.46,4.02,44.45,8.21,47.32,18.12Z"/>
      <path class="cls-5" d="m252.47,282.7c-8.12,0-18.73-.96-31.92-2.86-14.58-2.11-32.17-6.41-52.29-12.77-30.72-9.72-53.43-20.03-68.46-26.86-17.48-7.94-27.12-12.32-38.97-19.74-10.77-6.75-20.69-15.27-40.46-32.23-9.07-7.79-11.64-10.15-10.53-12.91,2.41-5.97,21.99-1.92,64.96,9.4,20.25,5.34,28.95,8.4,35.31,10.63,6.02,2.12,9.66,3.4,18.9,5.17,14.53,2.79,23.45,3.23,34.76,3.8,11.38.57,24.27,1.21,46.73,4.39,29.18,4.12,45.59,8.43,48.75,19.36,1.08,3.74.12,6.57-.9,9.58-1.01,2.99-2.06,6.09-1.48,10.89,1.02,8.5,6.16,13.8,10.28,18.06,3.36,3.47,6.26,6.47,5.04,10-1.4,4.06-7.91,6.09-19.73,6.09ZM13.14,176.59c.64,1.42,5.94,5.96,9.49,9.01,19.64,16.85,29.5,25.31,40.04,31.92,11.18,7.01,19.9,11.05,38.56,19.52,15.85,7.2,37.55,17.05,68.07,26.71,19.94,6.31,37.35,10.56,51.74,12.64,42.02,6.08,47.26.83,47.87-.92.52-1.51-1.58-3.69-4.25-6.44-4.25-4.39-10.08-10.41-11.24-20.07-.67-5.59.61-9.38,1.64-12.42.94-2.79,1.63-4.81.85-7.5-2.62-9.07-18.81-13.06-45.9-16.89-22.31-3.15-35.12-3.79-46.42-4.36-10.99-.55-20.47-1.02-35.24-3.85-9.5-1.82-13.44-3.21-19.4-5.3-6.3-2.21-14.93-5.25-35.04-10.55-11.88-3.13-26.67-7.03-38.77-9.51-17.8-3.66-21.33-2.48-22-1.99Z"/>
    </g>
    <path class="cls-3" d="m192.14,257.76c.17-.95,2.92-.29,29.54-.62,20.26-.25,27.24-.74,34.96,4.07,5.37,3.35,12.29,10,10.81,13.27-4.23,9.37-76.17-11.84-75.31-16.71Z"/>
    <path class="cls-3" d="m177.14,236.37c.18-.85,8.7,1.57,26.76,2.01,16.56.4,21.28-1.34,30.31,1.71,9.73,3.29,19.24,10.39,18.25,12.99-2.56,6.71-75.83-14.22-75.31-16.71Z"/>
    <path class="cls-3" d="m200.43,213.6c.48-.71,6.31,2.81,20.53,6.19,13.04,3.1,17.49,2.36,23.48,6.52,6.45,4.48,11.23,12.23,9.41,14.33-4.69,5.41-54.82-24.95-53.42-27.04Z"/>
    <g>
      <path class="cls-6" d="m253.97,226.9c-5.02,1.12-7.7,17.4-2.81,30.55,4.12,11.08,14.14,21.37,18.67,19.48,4.97-2.08,3.3-18.82-1.33-30.82-2.94-7.62-9.76-20.29-14.54-19.22Z"/>
      <path class="cls-5" d="m268.63,279.02c-.94,0-1.96-.24-3.05-.71-5.79-2.51-12.89-11.39-16.16-20.21-4.05-10.9-3.18-23.48,0-29.35,1.12-2.06,2.51-3.3,4.13-3.66h0c8.02-1.81,16.32,19.45,16.67,20.36,3.97,10.3,7.48,30.2.31,33.2-.59.25-1.23.37-1.91.37Zm-14.26-50.31c-.5.11-1.13.79-1.69,1.81-2.74,5.05-3.31,16.82.21,26.29,3.17,8.52,9.88,16.24,14.17,18.1.88.38,1.62.5,2.06.32,2.8-1.17,2.86-14.95-2.34-28.44-3.74-9.68-9.87-18.63-12.4-18.07h0Z"/>
    </g>
  </g>
</svg>