<?xml version="1.0" encoding="UTF-8"?>
<svg id="Layer_1" data-name="Layer 1" xmlns="http://www.w3.org/2000/svg" viewBox="0 0 667.18 662.27">
  <defs>
    <style>
      .cls-1 {
        fill: #ecca9d;
      }

      .cls-2 {
        fill: #f4e181;
      }

      .cls-3 {
        fill: #fff;
      }

      .cls-4 {
        fill: #ffeea7;
      }

      .cls-5 {
        fill: #edc089;
      }

      .cls-6 {
        fill: #debc41;
      }

      .cls-7 {
        fill: #dda057;
      }

      .cls-8 {
        fill: #e2b06a;
      }

      .cls-9 {
        fill: #c78648;
        opacity: .56;
      }
    </style>
  </defs>
  <g>
    <path class="cls-3" d="m24.03,401.22c-12.44-11.12,5.81-83.15,48.03-133.44,39.57-47.12,85.87-58.11,81.57-80.92-3.1-16.42-28.03-15.61-44.31-45.89-8.76-16.3-15.79-43.04-6.25-56.48,16.97-23.91,78.11,5.98,84.57,9.21,26.72,13.35,26.95,22.18,41.6,24.81,33.4,6,49.23-36.8,91.18-69.04C380.01,3.71,450.45,11.39,464.81,12.95c18.92,2.06,85.89,10.46,139.44,70.35,14.01,15.67,45.33,50.7,50.56,102.36.93,9.19,3.52,37.94-9.43,68.12-11.05,25.75-27.65,39.12-37.44,46.8-25.26,19.81-50.53,24.31-80.09,29.56-12.34,2.19-31.66,5.63-55.51,4.53-48.61-2.23-72.6-21.29-106.73-32.16-51.03-16.25-92.81-4.04-148.04,12.09-91.71,26.79-154.43,68.44-154.43,68.44-19.5,12.95-32.79,23.8-39.11,18.16Z"/>
    <path class="cls-3" d="m28.07,414.3c-4.46,0-8.38-1.49-11.72-4.47h0c-7.25-6.48-13.1-22.87.22-64.17,9.89-30.66,26.9-61.75,46.66-85.28,19.16-22.82,39.3-37.21,55.48-48.77,12.62-9.02,24.54-17.53,23.59-22.6-.46-2.45-3.29-4.49-10.12-8.89-9.64-6.21-22.83-14.72-33.02-33.67-8.08-15.03-19.63-48.71-5.5-68.61,10.19-14.37,29.92-17.74,58.62-10.04,18.61,4.99,35.71,13.21,40.51,15.61,14.08,7.04,21.51,13.02,26.94,17.39,5.02,4.04,6.9,5.55,11.54,6.39,14.14,2.54,24.37-8.03,42.72-28.52,10.84-12.1,23.13-25.82,39.4-38.31C354.19,9,408.41-4.8,466.06,1.48c58.35,6.36,109.11,31.99,146.79,74.13,14.31,16.01,47.83,53.5,53.44,108.89,2.71,26.74-.76,51.58-10.31,73.83-12.44,28.99-31.68,44.08-40.92,51.33-27.52,21.59-55.53,26.57-85.18,31.84-12.32,2.19-32.92,5.86-58.07,4.7-35.47-1.63-58.4-11.59-80.58-21.22-9.75-4.23-18.97-8.24-29.12-11.47-47.67-15.19-86.94-3.71-141.3,12.17-88.66,25.9-150.69,66.58-151.3,66.99h-.01c-2.94,1.96-5.74,3.87-8.39,5.67-7.77,5.29-14.49,9.86-20.41,12.67-4.59,2.18-8.81,3.27-12.62,3.27Zm4.43-20.75h0ZM125.91,86.87c-6.79,0-11.45,1.51-13.44,4.31-5.1,7.19-1.83,27.91,7.01,44.34,7.37,13.71,16.84,19.82,25.2,25.21,8.41,5.42,17.94,11.57,20.28,24,3.69,19.54-13.25,31.64-32.85,45.64-15.12,10.8-33.94,24.25-51.22,44.83-23.07,27.47-35.55,57.67-40.93,73.23-7.16,20.66-8.6,34.68-8.18,41.3,4.33-2.27,10.83-6.7,16.34-10.45,2.73-1.86,5.61-3.82,8.64-5.83,2.65-1.76,65.6-43.04,157.58-69.91,56.09-16.38,100.39-29.32,154.77-12.01,11.27,3.59,21.46,8.01,31.31,12.29,21.2,9.2,41.22,17.9,72.45,19.33,22.59,1.04,40.86-2.21,52.96-4.37,29.05-5.17,52-9.25,74.99-27.28,8.33-6.54,23.85-18.71,33.96-42.28,7.99-18.61,10.87-39.61,8.56-62.41-4.86-47.93-33.78-80.29-47.69-95.84-33.82-37.83-79.49-60.85-132.09-66.58-51.7-5.63-100.05,6.52-136.11,34.22-14.57,11.19-26.1,24.06-36.27,35.41-16.81,18.76-32.78,36.59-55.64,36.59-2.68,0-5.45-.24-8.34-.76-10.44-1.87-16.02-6.37-21.93-11.12-4.87-3.92-10.93-8.79-22.79-14.72-23.81-11.9-43.89-17.16-56.57-17.16Z"/>
  </g>
  <g>
    <path class="cls-3" d="m72.29,357.63c-10.25-8.24,6.84-63.93,43.67-103.49,34.51-37.08,73.87-46.59,70.77-63.98-2.23-12.53-23.31-11.32-36.35-34.17-7.02-12.3-12.33-32.65-3.96-43.18,14.89-18.74,65.82,2.77,71.21,5.1,22.25,9.62,22.24,16.39,34.55,18.06,28.07,3.82,42.43-29.38,78.62-55.09,51.39-36.51,110.69-32.27,122.79-31.4,15.93,1.14,72.29,6.02,116.11,50.72,11.47,11.7,37.1,37.84,40.31,77.35.57,7.03,2.09,29.02-9.55,52.48-9.93,20.01-24.26,30.66-32.71,36.78-21.79,15.79-43.24,19.83-68.33,24.55-10.47,1.97-26.87,5.06-46.99,4.77-41-.58-60.82-14.64-89.38-22.18-42.71-11.28-78.29-.94-125.3,12.73-78.07,22.69-132.01,56.11-132.01,56.11-16.77,10.39-28.25,19.02-33.45,14.84Z"/>
    <path class="cls-3" d="m75.32,370.33c-3.61,0-7.01-1.11-10.26-3.71h0c-4.23-3.4-6.64-8.67-7.14-15.64-1.66-23.05,17.87-70.62,49.6-104.71,16.82-18.07,34.97-30.11,48.21-38.9,7.6-5.04,17.89-11.87,19.52-15.19-1.07-1.08-4.28-2.9-6.67-4.26-7.81-4.44-19.61-11.15-28.21-26.22-9.57-16.77-14.58-41.46-2.98-56.07,18.67-23.51,65.53-6.65,84.81,1.68,11.95,5.17,18.21,9.67,22.78,12.96,4.04,2.91,5.26,3.79,8.75,4.26,11.52,1.58,20.28-6.68,36.05-22.61,9.48-9.58,20.22-20.43,34.33-30.45,35.31-25.09,81.58-36.99,130.29-33.5,49.56,3.55,92.27,22.27,123.53,54.15,11.98,12.22,40.02,40.82,43.57,84.49,1.71,21.06-1.89,40.76-10.72,58.54-11.4,22.97-28.2,35.14-36.28,41-23.89,17.31-47.72,21.79-72.96,26.54-10.47,1.97-28,5.27-49.28,4.97-30.12-.43-49.37-7.58-68-14.49-8.1-3.01-15.74-5.85-24.17-8.07-39.62-10.46-72.97-.77-119.13,12.65-75.49,21.94-128.64,54.52-129.17,54.84-2.53,1.57-4.94,3.1-7.23,4.55-11.23,7.12-20.8,13.19-29.25,13.19Zm91.64-253.68c-5.63,0-9.72,1.07-11.51,3.32-3.76,4.73-1.4,19.17,4.95,30.29,5.46,9.58,12.64,13.65,19.58,17.6,7.19,4.08,16.13,9.17,18.11,20.27,3,16.83-12.11,26.86-29.6,38.47-12.97,8.61-29.12,19.32-44.08,35.4-28.59,30.72-41.47,67.26-43.35,82.52,3.38-1.92,7.53-4.55,11.17-6.85,2.35-1.49,4.83-3.07,7.44-4.68,2.26-1.4,56.19-34.51,134.87-57.38,47.86-13.91,85.66-24.89,131.46-12.8,9.51,2.51,18.05,5.68,26.31,8.75,17.56,6.52,34.15,12.68,60.29,13.05,18.96.26,34.44-2.65,44.69-4.57,24.58-4.63,43.99-8.28,63.69-22.55,7.09-5.13,20.28-14.69,29.15-32.57,6.94-13.98,9.76-29.59,8.39-46.42-2.88-35.35-25.96-58.9-37.05-70.21-27.26-27.8-64.84-44.16-108.7-47.29-43.37-3.1-84.32,7.3-115.28,29.3-12.48,8.87-22.47,18.97-31.29,27.88-15.06,15.21-29.35,29.66-49.55,29.66-1.95,0-3.95-.13-6.01-.42-9.18-1.25-14.23-4.88-19.11-8.39-4.13-2.97-8.81-6.34-18.46-10.51-17.57-7.6-34.89-11.83-46.09-11.83Z"/>
  </g>
  <g>
    <path class="cls-3" d="m159.6,312.58c-6.94-5.58,4.63-43.29,29.58-70.09,23.37-25.11,50.03-31.55,47.93-43.33-1.51-8.48-15.79-7.67-24.62-23.14-4.75-8.33-8.35-22.11-2.68-29.24,10.08-12.69,44.58,1.87,48.22,3.45,15.07,6.52,15.06,11.1,23.4,12.23,19.01,2.59,28.73-19.9,53.24-37.31,34.8-24.73,74.96-21.85,83.15-21.27,10.79.77,48.95,4.08,78.63,34.35,7.76,7.92,25.12,25.63,27.3,52.38.39,4.76,1.41,19.65-6.47,35.54-6.73,13.55-16.43,20.76-22.15,24.91-14.76,10.69-29.28,13.43-46.27,16.62-7.09,1.33-18.19,3.42-31.82,3.23-27.76-.39-41.19-9.91-60.53-15.02-28.93-7.64-53.02-.64-84.85,8.62-52.87,15.37-89.4,38-89.4,38-11.35,7.03-19.13,12.88-22.65,10.05Z"/>
    <path class="cls-3" d="m161.54,324.91c-3.15,0-6.21-.97-9.16-3.34-2.55-2.05-5.69-6-6.22-13.22-1.18-16.32,11.71-49.14,34.58-73.71,11.69-12.56,24.19-20.85,33.32-26.91,3.06-2.03,6.86-4.55,9.41-6.56-.17-.1-.33-.19-.49-.28-5.64-3.21-14.17-8.05-20.5-19.15-5.46-9.57-11.97-29.21-1.7-42.14,7.19-9.05,19.98-11.65,38.01-7.72,10.99,2.39,21.01,6.54,23.82,7.76,8.46,3.66,13.07,6.98,16.12,9.17,2.74,1.97,2.91,2.04,4.25,2.22,5.75.79,10.65-3.51,21.27-14.24,6.52-6.59,13.92-14.06,23.74-21.04,24.62-17.49,56.8-25.79,90.65-23.37,34.48,2.47,64.24,15.53,86.05,37.78,8.4,8.57,28.05,28.61,30.56,59.52,1.21,14.94-1.35,28.94-7.63,41.6-8.13,16.38-20.01,24.99-25.72,29.12-16.85,12.21-33.39,15.32-50.9,18.62-7.24,1.36-19.34,3.66-34.12,3.43-21.04-.3-34.98-5.48-47.29-10.05-5.4-2-10.49-3.9-16.02-5.36-25.83-6.82-48-.38-78.69,8.54-50.58,14.7-86.2,36.52-86.56,36.73-1.7,1.05-3.32,2.08-4.86,3.06-7.65,4.85-15.01,9.52-21.92,9.52Zm61.89-171.79c-2.31,0-3.93.31-4.66.9-.94,1.53-.31,9.18,3.74,16.28,3.19,5.6,7.41,7.99,11.87,10.52,5.25,2.98,12.44,7.07,14.09,16.31,2.46,13.81-9.25,21.58-21.66,29.81-8.62,5.72-19.35,12.84-29.19,23.41-14.64,15.73-23.07,33.94-26.58,45.6.02-.01.04-.03.07-.04,1.6-1.02,3.29-2.09,5.07-3.19,1.55-.96,38.49-23.64,92.26-39.27,32.97-9.58,59-17.15,91.02-8.69,6.61,1.75,12.48,3.93,18.16,6.03,11.58,4.3,22.53,8.36,39.59,8.61,12.45.17,22.72-1.75,29.51-3.03,16.2-3.05,28.98-5.46,41.65-14.63,4.86-3.52,12.99-9.41,18.59-20.7,4.39-8.85,6.18-18.77,5.3-29.48-1.84-22.59-16.83-37.89-24.04-45.24-17.82-18.17-42.44-28.87-71.22-30.92-28.52-2.04-55.39,4.77-75.65,19.16-8.19,5.82-14.55,12.25-20.7,18.46-11.33,11.45-23.05,23.29-40.77,20.87-7.14-.97-11.11-3.83-14.61-6.35-2.64-1.9-5.64-4.06-11.81-6.72-12.49-5.4-23.78-7.69-30.02-7.69Z"/>
  </g>
  <g>
    <path class="cls-3" d="m146.88,418.04c-1.97-1.16,11.61-40.91,45.03-76.2,35.75-37.75,78.5-53.83,79.67-51.96,1.02,1.64-30.21,16.55-65.81,51.96-40.35,40.13-56.93,77.35-58.88,76.2Z"/>
    <path class="cls-3" d="m147.08,429.62c-2.96,0-5.26-1.18-6.02-1.62-3.14-1.84-5.23-5-5.76-8.69-1.47-10.28,16.18-51.54,48.24-85.4,19.31-20.39,39.82-34.04,53.63-41.9,6.06-3.45,26.5-14.62,35.23-13.74,3.75.38,7.02,2.39,8.96,5.51.6.97,5.62,9.71-4.7,17.13-1.44,1.04-3.33,2.26-5.93,3.95-10.65,6.9-32.82,21.27-56.84,45.15-27.57,27.42-43.73,53.55-51.49,66.11-1.73,2.79-3.09,5-4.2,6.6-3.76,5.45-7.85,6.88-11.13,6.88Z"/>
  </g>
  <g>
    <path class="cls-3" d="m15.26,483.85c-22.1-79.12,59.16-150.68,100.45-187.04,79.44-69.97,166.68-82.38,211.29-76.2,14.2,1.97,47.77,6.62,62.35,31.17,5.92,9.98,6.65,19.76,6.93,24.25,1.81,28.87-11,141.75-124.69,235.53-48.93,40.36-87.74,72.37-142.01,65.81-50.87-6.15-100.58-44.4-114.3-93.52Z"/>
    <path class="cls-3" d="m143.48,589.76c-4.98,0-10.07-.3-15.29-.94-57.31-6.93-109.48-49.77-124.03-101.87h0c-24.04-86.09,62.39-162.22,103.93-198.8,79.31-69.85,168.35-86.19,220.49-78.97,15.94,2.21,53.27,7.38,70.68,36.71,7.46,12.57,8.23,24.8,8.52,29.41,1.2,19.18-3.26,56.45-19.81,98.38-22.06,55.9-58.75,105.28-109.05,146.77-44.79,36.95-84.01,69.3-135.44,69.3Zm-117.11-109.01c11.95,42.8,56.91,79.41,104.58,85.17,49.36,5.96,84.57-23.07,133.29-63.26,105.06-86.66,122.62-192.46,120.52-225.92-.21-3.38-.71-11.29-5.33-19.08-11.75-19.78-41.37-23.89-54.01-25.64-11.64-1.61-43.5-3.95-87.72,9.18-41.45,12.3-79.93,33.92-114.37,64.26-40.93,36.04-117.11,103.14-96.96,175.28h0Z"/>
  </g>
  <g>
    <path class="cls-3" d="m32.64,490.21c-20.83-75.42,55.78-143.65,94.7-178.31,74.9-66.7,157.15-78.54,199.2-72.64,13.39,1.88,45.03,6.31,58.78,29.72,5.59,9.51,6.27,18.83,6.53,23.11,1.71,27.52-10.37,135.13-117.56,224.54-46.13,38.47-82.72,68.99-133.89,62.74-47.96-5.86-94.83-42.33-107.77-89.15Z"/>
    <path class="cls-3" d="m153.55,591.71c-4.73,0-9.57-.29-14.54-.9-54.3-6.64-103.71-47.65-117.48-97.53-22.74-82.34,58.91-155.05,98.15-189.99,74.96-66.75,159.15-82.37,208.47-75.45,15.13,2.12,50.56,7.08,67.13,35.3,7.09,12.08,7.82,23.82,8.1,28.24,1.14,18.32-3.08,53.93-18.71,93.97-20.83,53.37-55.48,100.52-102.98,140.14-42.33,35.31-79.41,66.23-128.14,66.23Zm149.84-342.51c-69.03,0-136.89,43.28-168.37,71.31-38.51,34.29-110.18,98.12-91.26,166.62,11.21,40.59,53.36,75.32,98.05,80.78,46.22,5.65,79.31-21.95,125.1-60.15,98.88-82.48,115.41-183.14,113.44-214.97-.2-3.19-.66-10.66-4.97-17.99-10.92-18.6-38.61-22.48-50.44-24.14-7.17-1-14.38-1.47-21.57-1.47Z"/>
  </g>
  <g>
    <path class="cls-3" d="m49.84,491.86c-20.09-72.81,53.79-138.67,91.32-172.13,72.23-64.39,151.54-75.82,192.1-70.13,12.91,1.81,43.43,6.09,56.68,28.69,5.39,9.18,6.04,18.18,6.3,22.31,1.65,26.57-10,130.45-113.37,216.76-44.48,37.14-79.77,66.6-129.11,60.57-46.25-5.66-91.45-40.86-103.92-86.07Z"/>
    <path class="cls-3" d="m166.44,590.25c-4.58,0-9.27-.28-14.08-.87-52.52-6.42-100.31-46.15-113.64-94.45h0c-21.99-79.72,56.87-150.02,94.76-183.81,72.39-64.53,153.73-79.62,201.38-72.94,14.65,2.05,48.95,6.87,65.03,34.28,6.89,11.74,7.6,23.14,7.86,27.43,1.1,17.73-2.97,52.17-18.07,90.88-20.11,51.59-53.56,97.16-99.42,135.45-40.88,34.14-76.69,64.03-123.82,64.03Zm144.47-330.65c-66.43,0-131.76,41.71-162.07,68.74-37.07,33.05-106.06,94.56-87.88,160.46h0c10.77,39.04,51.27,72.43,94.2,77.69,3.88.47,7.66.7,11.37.7,38.69,0,68.72-25.08,108.95-58.67,95.23-79.52,111.15-176.53,109.25-207.19-.19-3.05-.63-10.2-4.74-17.19-10.43-17.79-37-21.51-48.34-23.1-6.9-.97-13.83-1.42-20.75-1.42Z"/>
  </g>
  <g>
    <path class="cls-3" d="m193.76,450.42c-1.36-.33-.45-25.91,12.81-52.4,14.19-28.33,36.29-45.25,37.3-44.37.89.78-14.7,14.98-29.22,41.92-16.45,30.53-19.55,55.17-20.89,54.84Z"/>
    <path class="cls-3" d="m193.74,461.94c-.99,0-1.89-.12-2.67-.3h0c-3.5-.84-6.38-3.22-7.92-6.53-3.94-8.47,1.04-38.12,13.12-62.24,13.43-26.82,36.31-48.81,45.18-50.55,3.63-.71,7.29.26,10.04,2.67,6.56,5.74,3.45,13.6.89,16.94-.73.95-1.64,2.03-2.9,3.52-4.9,5.79-15.09,17.84-24.66,35.6-10.99,20.39-15.71,38.14-17.98,46.68-.53,2-.95,3.57-1.35,4.81-2.37,7.41-7.69,9.41-11.75,9.41Z"/>
  </g>
  <g>
    <path class="cls-3" d="m226.79,507.99c-3.17-.81-1.56-62.01,28.89-125.13,32.57-67.52,83.83-107.58,86.2-105.44,2.08,1.87-34.02,35.57-67.39,99.75-37.81,72.73-44.57,131.62-47.71,130.83Z"/>
    <path class="cls-3" d="m226.87,519.53c-.97,0-1.95-.12-2.92-.37-3.5-.89-6.41-3.34-7.99-6.73-4.72-10.12,1.13-44.73,1.82-48.64,3.6-20.66,11.3-52.33,27.52-85.95,30.44-63.1,80.76-109.23,93.85-111.8,3.84-.75,7.64.27,10.46,2.8,2.48,2.23,7.43,8.49.02,18.47-1.45,1.95-3.56,4.52-6.24,7.77-11.65,14.17-35.9,43.65-58.65,87.4-26.12,50.23-37.1,93.85-42.38,114.81-3.4,13.5-4.42,17.57-9.43,20.55-1.86,1.11-3.95,1.68-6.05,1.68Z"/>
  </g>
  <g>
    <path class="cls-3" d="m73.14,543.14c-17.97-64.34,48.11-122.54,81.69-152.11,64.6-56.9,135.55-67,171.82-61.97,11.55,1.6,38.84,5.38,50.7,25.35,4.82,8.11,5.4,16.07,5.63,19.72,1.47,23.48-8.94,115.27-101.4,191.54-39.79,32.82-71.35,58.85-115.49,53.52-41.37-5-81.8-36.11-92.95-76.05Z"/>
    <path class="cls-3" d="m177.47,631.42c-4.15,0-8.4-.25-12.77-.78-47.44-5.73-90.62-41.23-102.68-84.4h0c-19.92-71.31,51.06-133.82,85.17-163.86,65.04-57.28,138.17-70.67,181.03-64.74,13.27,1.84,44.35,6.15,59.04,30.89,6.34,10.68,6.98,21,7.23,24.89.99,15.81-2.67,46.5-16.26,80.93-18.08,45.8-48.13,86.25-89.32,120.23-36.74,30.31-68.92,56.85-111.44,56.85Zm-93.23-91.38c9.5,34.01,45.28,63.12,83.23,67.7,39.23,4.76,67.56-18.62,106.76-50.96,84.74-69.9,98.92-155.02,97.23-181.92-.16-2.59-.54-8.66-4.04-14.55-9.02-15.19-32.39-18.43-42.36-19.81-65.08-9.01-132.84,32.97-162.62,59.2-32.93,29-94.21,82.98-78.2,140.35h0Z"/>
  </g>
  <g>
    <path class="cls-3" d="m87.27,548.31c-16.94-61.33,45.36-116.82,77.01-145,60.91-54.24,127.79-63.87,161.99-59.08,10.88,1.53,36.62,5.13,47.8,24.17,4.54,7.73,5.1,15.32,5.31,18.8,1.39,22.38-8.43,109.89-95.6,182.6-37.51,31.29-67.27,56.11-108.88,51.02-39-4.77-77.12-34.42-87.64-72.5Z"/>
    <path class="cls-3" d="m185.67,633.01c-3.95,0-8-.24-12.16-.75-44.98-5.5-85.93-39.51-97.35-80.88-18.85-68.25,48.22-127.98,80.46-156.69,61.5-54.77,130.69-67.56,171.26-61.88,11.53,1.61,42.14,5.9,56.15,29.75,6.03,10.26,6.65,20.18,6.88,23.92.94,15.12-2.52,44.45-15.36,77.34-17.07,43.74-45.46,82.38-84.37,114.83-34.75,28.98-65.18,54.36-105.51,54.36Zm124.33-278.29c-32.71,0-87.21,11.93-138.04,57.2-30.96,27.57-88.6,78.9-73.57,133.32h0c8.9,32.22,42.4,59.78,77.92,64.13,3.17.39,6.27.58,9.31.58,32.04,0,57.14-20.94,90.78-49,79.73-66.5,93.07-147.45,91.48-173.03-.17-2.65-.51-8.16-3.75-13.67-8.36-14.23-30.15-17.28-39.46-18.59-4.18-.59-9.12-.93-14.68-.93Z"/>
  </g>
  <g>
    <path class="cls-3" d="m101.25,549.65c-16.34-59.21,43.74-112.77,74.27-139.98,58.74-52.36,123.23-61.66,156.21-57.03,10.5,1.47,35.32,4.95,46.1,23.33,4.38,7.47,4.91,14.79,5.12,18.15,1.34,21.61-8.13,106.08-92.19,176.27-36.17,30.2-64.87,54.16-105,49.25-37.61-4.6-74.37-33.23-84.51-69.99Z"/>
    <path class="cls-3" d="m196.15,631.82c-3.83,0-7.76-.24-11.79-.73-43.54-5.33-83.16-38.29-94.23-78.37h0c-18.24-66.12,46.56-123.89,77.71-151.66,59.42-52.97,126.29-65.32,165.49-59.84,11.17,1.57,40.84,5.73,54.44,28.92,5.86,9.99,6.46,19.64,6.69,23.27.91,14.64-2.43,43.01-14.84,74.82-16.49,42.29-43.9,79.65-81.47,111.02-33.57,28.03-62.97,52.58-102,52.58Zm119.87-268.65c-31.46,0-83.9,11.49-132.83,55.11-29.79,26.56-85.25,76-70.82,128.3h0c8.54,30.95,40.69,57.44,74.79,61.61,35.17,4.29,60.77-17.07,96.2-46.65,76.76-64.09,89.6-142.07,88.08-166.71-.16-2.52-.48-7.78-3.56-13.02-7.96-13.57-28.84-16.49-37.75-17.74-4.02-.56-8.76-.9-14.11-.9Z"/>
  </g>
  <g>
    <path class="cls-3" d="m180.17,489.62c-1.61-.94,9.44-33.27,36.62-61.97,29.07-30.7,63.84-43.77,64.79-42.25.83,1.33-24.56,13.46-53.52,42.25-32.81,32.63-46.29,62.9-47.89,61.97Z"/>
    <path class="cls-3" d="m180.4,501.16c-3.16,0-5.56-1.3-6.05-1.59h0c-3.12-1.83-5.21-4.97-5.73-8.62-1.42-9.99,15.03-45.07,39.8-71.23,28.17-29.75,64.51-46.86,74.05-45.91,3.72.38,6.96,2.38,8.9,5.49,2.91,4.66,2.13,10.73-1.89,14.74-.68.68-1.45,1.32-2.5,2.08-1.22.87-2.77,1.88-4.91,3.27-8.6,5.57-26.51,17.17-45.88,36.44-22.24,22.12-35.29,43.22-41.56,53.37-1.42,2.3-2.54,4.11-3.47,5.46-3.55,5.15-7.55,6.5-10.76,6.5Z"/>
  </g>
  <g>
    <path class="cls-3" d="m218.3,515.95c-1.1-.26-.37-21.07,10.42-42.61,11.54-23.04,29.51-36.8,30.33-36.08.72.63-11.95,12.19-23.76,34.09-13.38,24.83-15.9,44.86-16.99,44.6Z"/>
    <path class="cls-3" d="m218.54,527.53c-.92,0-1.9-.11-2.93-.36h0c-3.49-.84-6.37-3.2-7.9-6.5-4.23-9.09,2.28-35.68,10.7-52.5,10.69-21.35,29.66-40.57,38.25-42.25,3.61-.71,7.26.26,9.99,2.66,2.87,2.52,6.75,9.23,1.02,16.72-.53.69-1.35,1.68-2.43,2.95-3.94,4.66-12.12,14.34-19.8,28.58-8.82,16.36-12.61,30.63-14.43,37.49-.44,1.65-.79,2.96-1.12,4.02-1.11,3.46-4.79,9.2-11.35,9.2Z"/>
  </g>
  <g>
    <path class="cls-3" d="m245.16,562.76c-2.58-.65-1.27-50.43,23.49-101.76,26.49-54.9,68.17-87.49,70.1-85.75,1.69,1.52-27.67,28.93-54.8,81.12-30.75,59.15-36.24,107.04-38.8,106.39Z"/>
    <path class="cls-3" d="m245.23,574.31c-.97,0-1.95-.12-2.91-.36h0s0,0,0,0c-3.47-.88-6.36-3.31-7.92-6.65-5.15-11.04,1.23-64.37,23.87-111.3,25.46-52.78,66.57-89.88,77.84-92.1,3.79-.75,7.56.27,10.36,2.79,1.37,1.23,7.78,7.85.3,17.91-1.21,1.63-2.94,3.74-5.14,6.41-9.43,11.47-29.05,35.32-47.44,70.7-21.12,40.63-30.01,75.93-34.28,92.9-2.85,11.34-3.82,15.16-8.66,18.04-1.85,1.11-3.92,1.67-6.02,1.67Zm2.77-22.72h0s0,0,0,0Z"/>
  </g>
  <g>
    <path class="cls-3" d="m182.82,578.09c-15.63-57.61,41.84-109.71,71.04-136.19,56.18-50.94,117.88-59.98,149.42-55.48,10.04,1.43,33.78,4.82,44.09,22.7,4.19,7.26,4.7,14.39,4.9,17.65,1.28,21.02-7.78,103.21-88.18,171.5-34.6,29.39-62.05,52.7-100.43,47.92-35.98-4.48-71.13-32.33-80.83-68.09Z"/>
    <path class="cls-3" d="m273.61,658.35c-3.7,0-7.49-.23-11.38-.72-41.85-5.21-79.93-37.39-90.54-76.52h0c-17.48-64.42,44.59-120.71,74.42-147.75,56.98-51.67,121.16-63.74,158.8-58.36,10.76,1.53,39.34,5.61,52.45,28.35,5.63,9.76,6.2,19.17,6.42,22.71.87,14.25-2.33,41.88-14.2,72.85-15.79,41.19-42.04,77.57-78.03,108.14-32.19,27.34-60.39,51.29-97.94,51.29Zm-79.66-83.28c8.13,29.98,38.71,55.64,71.13,59.67,33.37,4.14,57.76-16.58,91.54-45.27,73.33-62.27,85.6-138.06,84.14-162-.15-2.44-.46-7.54-3.38-12.59-7.51-13.01-27.28-15.84-35.73-17.04-26.32-3.76-85.44,3.1-140.05,52.61-28.46,25.8-81.42,73.84-67.65,124.63h0Z"/>
  </g>
  <g>
    <path class="cls-3" d="m195.11,582.72c-14.73-54.92,39.45-104.59,66.97-129.83,52.97-48.56,111.13-57.18,140.88-52.89,9.47,1.37,31.85,4.59,41.57,21.64,3.95,6.93,4.43,13.71,4.62,16.83,1.21,20.04-7.33,98.39-83.14,163.49-32.62,28.01-58.5,50.23-94.69,45.68-33.92-4.27-67.06-30.82-76.21-64.92Z"/>
    <path class="cls-3" d="m280.74,659.77c-3.53,0-7.14-.22-10.86-.69-39.71-5-75.84-35.85-85.91-73.37h0c-16.55-61.68,42.12-115.47,70.32-141.32,53.9-49.42,114.66-60.95,150.32-55.81,10.24,1.48,37.43,5.4,49.94,27.34,5.36,9.4,5.91,18.45,6.11,21.85.82,13.63-2.2,40.04-13.42,69.63-14.92,39.35-39.72,74.1-73.72,103.3-30.45,26.16-57.13,49.07-92.78,49.07Zm-74.49-80.04c7.61,28.37,36.21,52.65,66.51,56.46,31.11,3.92,54.03-15.76,85.73-42.99,68.97-59.23,80.51-131.28,79.14-154.05-.14-2.3-.43-7.08-3.12-11.81-6.93-12.14-25.33-14.8-33.19-15.94-24.69-3.56-80.15,2.96-131.44,49.98-26.75,24.53-76.54,70.19-63.63,118.34h0Z"/>
  </g>
  <g>
    <path class="cls-3" d="m207.27,583.92c-14.21-53.01,38.04-100.97,64.58-125.33,51.08-46.88,107.17-55.2,135.85-51.06,9.13,1.32,30.71,4.43,40.09,20.89,3.81,6.69,4.27,13.24,4.45,16.25,1.16,19.35-7.07,94.98-80.17,157.83-31.46,27.04-56.41,48.49-91.31,44.1-32.71-4.12-64.67-29.75-73.49-62.67Z"/>
    <path class="cls-3" d="m289.86,658.7c-3.42,0-6.93-.22-10.54-.67-38.46-4.84-73.44-34.75-83.19-71.12h0c-16.02-59.77,40.68-111.81,67.92-136.81,52.09-47.81,110.82-58.96,145.3-53.98,9.93,1.43,36.29,5.24,48.46,26.59,5.21,9.15,5.75,17.95,5.95,21.26.79,13.19-2.12,38.76-12.96,67.38-14.41,38.05-38.37,71.66-71.2,99.89-29.43,25.3-55.22,47.47-89.73,47.47Zm-71.45-77.77c7.3,27.24,34.73,50.55,63.79,54.21,29.82,3.75,51.85-15.18,82.35-41.4,66.39-57.08,77.5-126.47,76.18-148.39-.13-2.19-.41-6.75-2.96-11.23-6.58-11.55-24.19-14.1-31.71-15.18-23.73-3.42-77.06,2.86-126.4,48.14-25.74,23.62-73.64,67.59-61.24,113.85h0Z"/>
  </g>
  <g>
    <path class="cls-3" d="m275.9,530.17c-1.4-.84,8.21-29.79,31.84-55.48,25.28-27.49,55.52-39.19,56.34-37.83.72,1.19-21.36,12.05-46.54,37.83-28.54,29.22-40.26,56.32-41.64,55.48Z"/>
    <path class="cls-3" d="m274.17,542.53l-4.22-2.48c-3.04-1.83-5.07-4.93-5.58-8.5-1.34-9.31,12.73-40.57,34.89-64.67,21.47-23.34,54.62-42.7,65.74-41.6,3.76.38,7.03,2.42,8.96,5.6,4.42,7.29-.54,13.77-4.16,16.46-1.09.8-2.45,1.71-4.33,2.97-7.44,4.96-22.92,15.29-39.66,32.43-19.24,19.7-30.54,38.51-35.97,47.56-3.92,6.52-5.88,9.79-11.03,11.07l-4.64,1.15Z"/>
  </g>
  <g>
    <path class="cls-3" d="m309.06,553.75c-.96-.24-.32-18.87,9.06-38.15,10.03-20.63,25.66-32.95,26.38-32.31.63.56-10.39,10.91-20.66,30.53-11.63,22.23-13.83,40.17-14.78,39.93Z"/>
    <path class="cls-3" d="m309.1,565.28c-.96,0-1.91-.12-2.81-.34h0c-3.43-.85-6.27-3.19-7.79-6.43-3.55-7.58.95-30.89,9.25-47.96,9.5-19.52,26.58-37.08,34.4-38.6l5.65-1.1,4.43,3.87c3.81,3.44,5.77,10.03,1.06,16.37-.47.63-1.2,1.53-2.15,2.68-3.4,4.14-10.46,12.74-17.08,25.39-7.61,14.54-10.89,27.24-12.47,33.34-.41,1.59-.74,2.82-.99,3.64-2.02,6.5-6.93,9.13-11.49,9.13Zm2.73-22.73h0s0,0,0,0Z"/>
  </g>
  <g>
    <path class="cls-3" d="m332.41,595.66c-2.24-.59-1.1-45.15,20.43-91.11,23.03-49.16,59.28-78.33,60.96-76.78,1.47,1.36-24.06,25.9-47.66,72.63-26.74,52.96-31.52,95.84-33.74,95.26Z"/>
    <path class="cls-3" d="m332.48,607.21c-.99,0-1.99-.13-2.98-.39-3.41-.89-6.25-3.28-7.78-6.55-4.65-9.91.76-58.07,20.69-100.61,12.41-26.5,28.01-46.51,38.91-58.63,4.8-5.34,21.15-22.9,29.94-24.61,3.82-.75,7.61.32,10.4,2.91,1.3,1.2,7.43,7.71.43,17.4-1.07,1.48-2.59,3.38-4.51,5.78-8.17,10.23-25.19,31.53-41.13,63.1-18.32,36.27-26.03,67.81-29.73,82.96-2.51,10.27-3.45,14.12-8.24,16.97-1.85,1.1-3.91,1.67-6,1.67Z"/>
  </g>
  <g>
    <path class="cls-3" d="m304.79,598.71c-9.11-42.72,24.38-81.36,41.39-100.99,32.74-37.78,68.68-44.48,87.06-41.14,5.85,1.06,19.68,3.57,25.69,16.83,2.44,5.39,2.74,10.67,2.85,13.09.75,15.59-4.53,76.53-51.38,127.17-20.16,21.79-36.15,39.08-58.52,35.53-20.96-3.32-41.45-23.97-47.1-50.5Z"/>
    <path class="cls-3" d="m357.7,661.21c-2.47,0-5-.2-7.61-.61-26.32-4.17-50.12-29.18-56.58-59.48h0c-10.3-48.34,26.34-90.63,43.95-110.95,34.65-39.99,74.36-49.21,97.84-44.94,6.34,1.15,25.63,4.66,34.14,23.42,3.4,7.51,3.74,14.62,3.87,17.3.03.73,2.83,73.66-54.44,135.56-18.84,20.37-36.73,39.7-61.17,39.7Zm-41.63-64.9c5.09,23.9,23.19,39.22,37.63,41.51,15.53,2.45,27.83-9.91,48.24-31.97,42.13-45.54,49.17-101.19,48.33-118.79-.08-1.61-.26-5.39-1.84-8.88-3.09-6.81-10.11-8.95-17.24-10.25-14.1-2.56-46.03,2.43-76.29,37.35-16.33,18.85-46.73,53.94-38.83,91.04h0Z"/>
  </g>
  <g>
    <path class="cls-3" d="m311.95,602.14c-8.58-40.72,22.98-77.56,39.02-96.28,30.86-36.01,64.75-42.41,82.08-39.22,5.52,1.01,18.56,3.41,24.22,16.05,2.3,5.14,2.58,10.17,2.69,12.48.7,14.86-4.27,72.96-48.44,121.24-19.01,20.77-34.08,37.25-55.17,33.87-19.76-3.17-39.08-22.85-44.41-48.14Z"/>
    <path class="cls-3" d="m361.87,662.27c-2.38,0-4.82-.19-7.33-.6-25.08-4.02-47.73-28.05-53.87-57.15h0c-9.76-46.29,24.9-86.73,41.55-106.16,32.86-38.34,70.59-47.16,92.92-43.06,6.06,1.11,24.52,4.5,32.66,22.67,3.24,7.23,3.57,14.07,3.69,16.65.03.7,2.67,70.41-51.45,129.57-17.87,19.53-34.83,38.07-58.17,38.07Zm62.68-184.81c-15,0-40.44,7.48-64.81,35.92-15.34,17.91-43.91,51.23-36.5,86.39h0c4.17,19.78,19.19,36.61,34.94,39.13,14.25,2.29,25.75-9.41,44.84-30.27,39.6-43.28,46.22-96.18,45.43-112.91-.07-1.51-.24-5.06-1.7-8.31-2.94-6.56-9.68-8.3-15.78-9.42-1.84-.34-4-.53-6.43-.53Z"/>
  </g>
  <g>
    <path class="cls-3" d="m319.04,603.04c-8.28-39.31,22.16-74.87,37.63-92.94,29.76-34.77,62.44-40.94,79.15-37.87,5.32.98,17.89,3.29,23.36,15.49,2.22,4.96,2.49,9.82,2.6,12.05.68,14.35-4.12,70.43-46.71,117.04-18.33,20.05-32.87,35.96-53.2,32.7-19.06-3.06-37.68-22.06-42.82-46.47Z"/>
    <path class="cls-3" d="m367.19,661.48c-2.32,0-4.7-.19-7.16-.58-24.35-3.9-46.33-27.24-52.28-55.48-9.45-44.87,24.05-84.01,40.15-102.82,31.8-37.15,68.37-45.67,90-41.71,5.9,1.09,23.86,4.39,31.8,22.12,3.16,7.05,3.47,13.71,3.59,16.22.03.67,2.59,68.13-49.72,125.36-17.29,18.92-33.72,36.89-56.38,36.89Zm60.41-178.41c-14.36,0-38.76,7.19-62.17,34.53-14.75,17.23-42.21,49.31-35.11,83.06h0c3.99,18.95,18.33,35.05,33.36,37.46,13.53,2.15,24.55-9.06,42.86-29.09,38.1-41.69,44.47-92.61,43.71-108.71-.07-1.44-.23-4.81-1.6-7.88-2.75-6.15-9.14-7.8-14.92-8.86-1.75-.32-3.82-.51-6.14-.51Z"/>
  </g>
  <g>
    <path class="cls-3" d="m359.03,563.17c-.81-.62,4.78-22.09,18.55-41.14,14.73-20.38,32.35-29.06,32.83-28.05.42.88-12.45,8.93-27.12,28.05-16.63,21.67-23.46,41.76-24.26,41.14Z"/>
    <path class="cls-3" d="m356.44,575.7l-4.44-3.37c-7.4-5.68-4.64-14.76.07-26.96,2.92-7.56,8.09-18.92,16.16-30.09,13.05-18.06,33.57-33.72,43.06-32.86,4.11.37,7.76,2.9,9.52,6.6,3.93,8.28-2.7,13.91-5.88,16.62-4.22,3.58-13,11.04-22.5,23.42-11,14.34-17.5,28.12-20.63,34.74-2.43,5.16-4.36,9.24-10.01,10.61l-5.36,1.3Z"/>
  </g>
  <g>
    <path class="cls-3" d="m378.34,580.66c-.56-.18-.19-13.99,5.28-28.29,5.85-15.3,14.95-24.43,15.37-23.96.36.42-6.06,8.09-12.04,22.64-6.78,16.48-8.06,29.79-8.61,29.61Z"/>
    <path class="cls-3" d="m379.81,593.2l-9.68-3.03-2.22-4.54c-3.36-6.95.79-26.51,4.94-37.37,3.6-9.43,14.22-29.47,24.05-31.21l6.43-1.14,4.36,4.94c5.81,6.67,1.19,13.83-.33,16.18-2.08,3.23-5.96,9.24-9.74,18.42-4.38,10.64-6.27,19.98-7.18,24.47-.8,3.93-1.62,7.99-6.2,10.69l-4.43,2.61Z"/>
  </g>
  <g>
    <path class="cls-3" d="m391.95,611.74c-1.31-.43-.64-33.48,11.9-67.56,13.42-36.45,34.54-58.09,35.52-56.93.86,1.01-14.02,19.2-27.77,53.86-15.58,39.27-18.36,71.07-19.66,70.64Z"/>
    <path class="cls-3" d="m393.34,624.32l-5.03-1.64c-3.03-1.01-5.47-3.17-6.87-6.08-.73-1.53-2.97-6.17-.02-28.71,1.5-11.45,4.73-29.01,11.61-47.7,7.35-19.97,16.62-35.06,23.1-44.21,13.28-18.75,18.73-19.72,21.06-20.13,4.09-.72,8.31.78,10.98,3.94,5.72,6.74,1.57,13.35-2.08,19.17-4.72,7.52-14.55,23.18-23.76,46.4-10.62,26.76-15.1,50.06-17.25,61.27-1.61,8.38-2.35,12.2-7.23,15.06l-4.51,2.64Z"/>
  </g>
  <path class="cls-7" d="m26.16,403.78c-12.44-11.12,5.81-83.15,48.03-133.44,39.57-47.12,85.87-58.11,81.57-80.92-3.1-16.42-28.03-15.61-44.31-45.89-8.76-16.3-15.79-43.04-6.25-56.48,16.97-23.91,78.11,5.98,84.57,9.21,26.72,13.35,26.95,22.18,41.6,24.81,33.4,6,49.23-36.8,91.18-69.04C382.14,6.27,452.58,13.95,466.94,15.51c18.92,2.06,85.89,10.46,139.44,70.35,14.01,15.67,45.33,50.7,50.56,102.36.93,9.19,3.52,37.94-9.43,68.12-11.05,25.75-27.65,39.12-37.44,46.8-25.26,19.81-50.53,24.31-80.09,29.56-12.34,2.19-31.66,5.63-55.51,4.53-48.61-2.23-72.6-21.29-106.73-32.16-51.03-16.25-92.81-4.04-148.04,12.09-91.71,26.79-154.43,68.44-154.43,68.44-19.5,12.95-32.79,23.8-39.11,18.16Z"/>
  <path class="cls-8" d="m74.42,360.19c-10.25-8.24,6.84-63.93,43.67-103.49,34.51-37.08,73.87-46.59,70.77-63.98-2.23-12.53-23.31-11.32-36.35-34.17-7.02-12.3-12.33-32.65-3.96-43.18,14.89-18.74,65.82,2.77,71.21,5.1,22.25,9.62,22.24,16.39,34.55,18.06,28.07,3.82,42.43-29.38,78.62-55.09,51.39-36.51,110.69-32.27,122.79-31.4,15.93,1.14,72.29,6.02,116.11,50.72,11.47,11.7,37.1,37.84,40.31,77.35.57,7.03,2.09,29.02-9.55,52.48-9.93,20.01-24.26,30.66-32.71,36.78-21.79,15.79-43.24,19.83-68.33,24.55-10.47,1.97-26.87,5.06-46.99,4.77-41-.58-60.82-14.64-89.38-22.18-42.71-11.28-78.29-.94-125.3,12.73-78.07,22.69-132.01,56.11-132.01,56.11-16.77,10.39-28.25,19.02-33.45,14.84Z"/>
  <path class="cls-1" d="m161.73,315.14c-6.94-5.58,4.63-43.29,29.58-70.09,23.37-25.11,50.03-31.55,47.93-43.33-1.51-8.48-15.79-7.67-24.62-23.14-4.75-8.33-8.35-22.11-2.68-29.24,10.08-12.69,44.58,1.87,48.22,3.45,15.07,6.52,15.06,11.1,23.4,12.23,19.01,2.59,28.73-19.9,53.24-37.31,34.8-24.73,74.96-21.85,83.15-21.27,10.79.77,48.95,4.08,78.63,34.35,7.76,7.92,25.12,25.63,27.3,52.38.39,4.76,1.41,19.65-6.47,35.54-6.73,13.55-16.43,20.76-22.15,24.91-14.76,10.69-29.28,13.43-46.27,16.62-7.09,1.33-18.19,3.42-31.82,3.23-27.76-.39-41.19-9.91-60.53-15.02-28.93-7.64-53.02-.64-84.85,8.62-52.87,15.37-89.4,38-89.4,38-11.35,7.03-19.13,12.88-22.65,10.05Z"/>
  <path class="cls-2" d="m149.02,420.6c-1.97-1.16,11.61-40.91,45.03-76.2,35.75-37.75,78.5-53.83,79.67-51.96,1.02,1.64-30.21,16.55-65.81,51.96-40.35,40.13-56.93,77.35-58.88,76.2Z"/>
  <path class="cls-5" d="m17.39,486.41c-22.1-79.12,59.16-150.68,100.45-187.04,79.44-69.97,166.68-82.38,211.29-76.2,14.2,1.97,47.77,6.62,62.35,31.17,5.92,9.98,6.65,19.76,6.93,24.25,1.81,28.87-11,141.75-124.69,235.53-48.93,40.36-87.74,72.37-142.01,65.81-50.87-6.15-100.58-44.4-114.3-93.52Z"/>
  <path class="cls-6" d="m34.77,492.77c-20.83-75.42,55.78-143.65,94.7-178.31,74.9-66.7,157.15-78.54,199.2-72.64,13.39,1.88,45.03,6.31,58.78,29.72,5.59,9.51,6.27,18.83,6.53,23.11,1.71,27.52-10.37,135.13-117.56,224.54-46.13,38.47-82.72,68.99-133.89,62.74-47.96-5.86-94.83-42.33-107.77-89.15Z"/>
  <path class="cls-4" d="m51.97,494.43c-20.09-72.81,53.79-138.67,91.32-172.13,72.23-64.39,151.54-75.82,192.1-70.13,12.91,1.81,43.43,6.09,56.68,28.69,5.39,9.18,6.04,18.18,6.3,22.31,1.65,26.57-10,130.45-113.37,216.76-44.48,37.14-79.77,66.6-129.11,60.57-46.25-5.66-91.45-40.86-103.92-86.07Z"/>
  <path class="cls-2" d="m195.89,452.98c-1.36-.33-.45-25.91,12.81-52.4,14.19-28.33,36.29-45.25,37.3-44.37.89.78-14.7,14.98-29.22,41.92-16.45,30.53-19.55,55.17-20.89,54.84Z"/>
  <path class="cls-2" d="m228.92,510.55c-3.17-.81-1.56-62.01,28.89-125.13,32.57-67.52,83.83-107.58,86.2-105.44,2.08,1.87-34.02,35.57-67.39,99.75-37.81,72.73-44.57,131.62-47.71,130.83Z"/>
  <path class="cls-5" d="m75.27,545.7c-17.97-64.34,48.11-122.54,81.69-152.11,64.6-56.9,135.55-67,171.82-61.97,11.55,1.6,38.84,5.38,50.7,25.35,4.82,8.11,5.4,16.07,5.63,19.72,1.47,23.48-8.94,115.27-101.4,191.54-39.79,32.82-71.35,58.85-115.49,53.52-41.37-5-81.8-36.11-92.95-76.05Z"/>
  <path class="cls-6" d="m89.4,550.87c-16.94-61.33,45.36-116.82,77.01-145,60.91-54.24,127.79-63.87,161.99-59.08,10.88,1.53,36.62,5.13,47.8,24.17,4.54,7.73,5.1,15.32,5.31,18.8,1.39,22.38-8.43,109.89-95.6,182.6-37.51,31.29-67.27,56.11-108.88,51.02-39-4.77-77.12-34.42-87.64-72.5Z"/>
  <path class="cls-4" d="m103.39,552.22c-16.34-59.21,43.74-112.77,74.27-139.98,58.74-52.36,123.23-61.66,156.21-57.03,10.5,1.47,35.32,4.95,46.1,23.33,4.38,7.47,4.91,14.79,5.12,18.15,1.34,21.61-8.13,106.08-92.19,176.27-36.17,30.2-64.87,54.16-105,49.25-37.61-4.6-74.37-33.23-84.51-69.99Z"/>
  <path class="cls-2" d="m182.31,492.18c-1.61-.94,9.44-33.27,36.62-61.97,29.07-30.7,63.84-43.77,64.79-42.25.83,1.33-24.56,13.46-53.52,42.25-32.81,32.63-46.29,62.9-47.89,61.97Z"/>
  <path class="cls-2" d="m220.43,518.51c-1.1-.26-.37-21.07,10.42-42.61,11.54-23.04,29.51-36.8,30.33-36.08.72.63-11.95,12.19-23.76,34.09-13.38,24.83-15.9,44.86-16.99,44.6Z"/>
  <path class="cls-2" d="m247.29,565.33c-2.58-.65-1.27-50.43,23.49-101.76,26.49-54.9,68.17-87.49,70.1-85.75,1.69,1.52-27.67,28.93-54.8,81.12-30.75,59.15-36.24,107.04-38.8,106.39Z"/>
  <path class="cls-5" d="m184.95,580.65c-15.63-57.61,41.84-109.71,71.04-136.19,56.18-50.94,117.88-59.98,149.42-55.48,10.04,1.43,33.78,4.82,44.09,22.7,4.19,7.26,4.7,14.39,4.9,17.65,1.28,21.02-7.78,103.21-88.18,171.5-34.6,29.39-62.05,52.7-100.43,47.92-35.98-4.48-71.13-32.33-80.83-68.09Z"/>
  <path class="cls-6" d="m197.24,585.28c-14.73-54.92,39.45-104.59,66.97-129.83,52.97-48.56,111.13-57.18,140.88-52.89,9.47,1.37,31.85,4.59,41.57,21.64,3.95,6.93,4.43,13.71,4.62,16.83,1.21,20.04-7.33,98.39-83.14,163.49-32.62,28.01-58.5,50.23-94.69,45.68-33.92-4.27-67.06-30.82-76.21-64.92Z"/>
  <path class="cls-4" d="m209.4,586.49c-14.21-53.01,38.04-100.97,64.58-125.33,51.08-46.88,107.17-55.2,135.85-51.06,9.13,1.32,30.71,4.43,40.09,20.89,3.81,6.69,4.27,13.24,4.45,16.25,1.16,19.35-7.07,94.98-80.17,157.83-31.46,27.04-56.41,48.49-91.31,44.1-32.71-4.12-64.67-29.75-73.49-62.67Z"/>
  <path class="cls-2" d="m278.03,532.73c-1.4-.84,8.21-29.79,31.84-55.48,25.28-27.49,55.52-39.19,56.34-37.83.72,1.19-21.36,12.05-46.54,37.83-28.54,29.22-40.26,56.32-41.64,55.48Z"/>
  <path class="cls-2" d="m311.19,556.31c-.96-.24-.32-18.87,9.06-38.15,10.03-20.63,25.66-32.95,26.38-32.31.63.56-10.39,10.91-20.66,30.53-11.63,22.23-13.83,40.17-14.78,39.93Z"/>
  <path class="cls-2" d="m334.55,598.22c-2.24-.59-1.1-45.15,20.43-91.11,23.03-49.16,59.28-78.33,60.96-76.78,1.47,1.36-24.06,25.9-47.66,72.63-26.74,52.96-31.52,95.84-33.74,95.26Z"/>
  <path class="cls-5" d="m306.92,601.27c-9.11-42.72,24.38-81.36,41.39-100.99,32.74-37.78,68.68-44.48,87.06-41.14,5.85,1.06,19.68,3.57,25.69,16.83,2.44,5.39,2.74,10.67,2.85,13.09.75,15.59-4.53,76.53-51.38,127.17-20.16,21.79-36.15,39.08-58.52,35.53-20.96-3.32-41.45-23.97-47.1-50.5Z"/>
  <path class="cls-6" d="m314.08,604.71c-8.58-40.72,22.98-77.56,39.02-96.28,30.86-36.01,64.75-42.41,82.08-39.22,5.52,1.01,18.56,3.41,24.22,16.05,2.3,5.14,2.58,10.17,2.69,12.48.7,14.86-4.27,72.96-48.44,121.24-19.01,20.77-34.08,37.25-55.17,33.87-19.76-3.17-39.08-22.85-44.41-48.14Z"/>
  <path class="cls-4" d="m321.17,605.6c-8.28-39.31,22.16-74.87,37.63-92.94,29.76-34.77,62.44-40.94,79.15-37.87,5.32.98,17.89,3.29,23.36,15.49,2.22,4.96,2.49,9.82,2.6,12.05.68,14.35-4.12,70.43-46.71,117.04-18.33,20.05-32.87,35.96-53.2,32.7-19.06-3.06-37.68-22.06-42.82-46.47Z"/>
  <path class="cls-2" d="m361.16,565.74c-.81-.62,4.78-22.09,18.55-41.14,14.73-20.38,32.35-29.06,32.83-28.05.42.88-12.45,8.93-27.12,28.05-16.63,21.67-23.46,41.76-24.26,41.14Z"/>
  <path class="cls-2" d="m380.47,583.22c-.56-.18-.19-13.99,5.28-28.29,5.85-15.3,14.95-24.43,15.37-23.96.36.42-6.06,8.09-12.04,22.64-6.78,16.48-8.06,29.79-8.61,29.61Z"/>
  <path class="cls-2" d="m394.08,614.3c-1.31-.43-.64-33.48,11.9-67.56,13.42-36.45,34.54-58.09,35.52-56.93.86,1.01-14.02,19.2-27.77,53.86-15.58,39.27-18.36,71.07-19.66,70.64Z"/>
  <path class="cls-9" d="m353.9,38.3c19.34,11.97,37.39,25.9,53.94,41.5,16.53,15.59,31.59,32.76,44.86,51.21,13.37,18.61,25.01,38.46,34.72,59.21,9.63,20.59,17.27,42.1,22.81,64.14,5.55,22.03,8.95,44.56,10,67.25.13,2.83.22,5.65.28,8.48.12,5.43,8.57,5.45,8.45,0-.49-23.36-3.4-46.67-8.54-69.46-5.14-22.8-12.59-45.02-21.96-66.42-9.31-21.26-20.63-41.63-33.75-60.77-13.2-19.26-28.19-37.32-44.79-53.74-16.59-16.41-34.82-31.21-54.34-43.99-2.45-1.6-4.92-3.17-7.4-4.71-4.64-2.87-8.88,4.44-4.27,7.3h0Z"/>
  <path class="cls-9" d="m505.03,31.85c33.74,5.63,54.13,37.94,69.39,65.52,19.13,34.56,34.21,71.29,44.95,109.3,6.06,21.45,10.73,43.29,13.99,65.35.33,2.26,3.19,3.5,5.2,2.95,2.42-.67,3.29-2.93,2.95-5.2-5.91-40-16.5-79.28-31.49-116.83-7.5-18.79-16.04-37.17-25.65-54.97-8.59-15.91-17.85-31.65-29.84-45.27-12.41-14.1-28.37-25.85-47.26-28.99-2.25-.37-4.55.59-5.2,2.95-.56,2.02.69,4.82,2.95,5.2h0Z"/>
  <path class="cls-9" d="m245.59,126.61c15.83,22.25,29.32,46.14,40.14,71.21,3,6.96,5.77,14.03,8.34,21.16.77,2.15,2.87,3.59,5.2,2.95,2.07-.57,3.73-3.04,2.95-5.2-9.43-26.13-21.56-51.28-36.28-74.85-4.15-6.64-8.51-13.15-13.05-19.54-1.32-1.86-3.69-2.74-5.78-1.52-1.84,1.07-2.85,3.91-1.52,5.78h0Z"/>
  <path class="cls-9" d="m153.94,202.73c7.4,16.83,14.79,33.65,22.19,50.48.92,2.09,3.97,2.57,5.78,1.52,2.15-1.26,2.44-3.68,1.52-5.78-7.4-16.83-14.79-33.65-22.19-50.48-.92-2.09-3.97-2.57-5.78-1.52-2.15,1.26-2.44,3.68-1.52,5.78h0Z"/>
</svg>