<?xml version="1.0" encoding="UTF-8"?>
<svg id="Layer_1" data-name="Layer 1" xmlns="http://www.w3.org/2000/svg" viewBox="0 0 1863.52 1527.43">
  <defs>
    <style>
      .cls-1 {
        fill: #39b54a;
      }

      .cls-1, .cls-2 {
        stroke: #fff;
        stroke-miterlimit: 10;
        stroke-width: 4px;
      }

      .cls-2 {
        fill: #6dc55a;
      }
    </style>
  </defs>
  <g>
    <path class="cls-1" d="m1219.27,474.86h0c-16.05-25.81-26.08-59.89-26.82-91.14-.86-36.51,10.73-64.68,32.64-79.32,19.86-13.28,48.43-15.46,78.39-5.96,39.27,12.45,72.01,41.89,85.46,76.82,13.58,35.3,8.78,79.44-12.53,115.21-16.04,26.91-38.65,44.08-62.04,47.1-2.59.34-5.14.49-7.67.49-45.7,0-80.6-52.21-87.43-63.2Zm18.17-152.01c-33.86,22.65-27.31,95.27.69,140.28h0c3.65,5.87,36.61,57.09,73.4,52.41,16.34-2.11,33.46-15.73,45.81-36.45,17.9-30.04,22.07-66.77,10.88-95.86-11.08-28.8-38.46-53.18-71.44-63.63-10.03-3.18-19.88-4.76-28.96-4.76-11.87,0-22.44,2.69-30.37,8Z"/>
    <path class="cls-2" d="m1227.49,467.84h0c-27.16-43.67-38.21-122.55,5.51-151.79,17.81-11.92,43.36-13.87,70.11-5.4,34.92,11.07,64.05,37.27,76.02,68.37,12.09,31.43,7.83,70.71-11.12,102.51-14.32,24.03-34.57,39.37-55.55,42.08-2.33.3-4.63.44-6.91.44-40.89,0-71.97-46.45-78.06-56.22Zm17.86-133.33c-23.87,15.97-28.75,73.77,1,121.6,11.48,18.45,37.76,48.79,63.26,45.49,13.97-1.81,28.67-13.56,39.32-31.43,15.54-26.09,19.18-57.95,9.47-83.16-9.61-24.96-33.36-46.1-62-55.19-8.71-2.76-17.24-4.13-25.09-4.13-10.17,0-19.19,2.29-25.96,6.82Z"/>
  </g>
  <g>
    <path class="cls-1" d="m1374.91,571.93c-30.88-17.95-27.75-66.34-26.8-75.87h0c3.98-40.15,35.19-94.46,76.76-91.75,17.13,1.13,34.25,12.23,46.96,30.47,16.45,23.6,22.04,53.88,14.6,79.05-7.52,25.42-28.98,47.88-55.99,58.62-10.08,4.01-20.08,6.01-29.37,6.01-9.71,0-18.66-2.19-26.15-6.54Zm-4.7-73.67h0c-1.58,15.89,0,45.25,15.86,54.47,8.61,5.02,22.12,4.68,36.16-.9,16.32-6.49,36.16-21.53,42.9-44.28,5.58-18.85,1.16-41.86-11.52-60.05-8.7-12.48-19.99-20.34-30.19-21-.49-.03-.98-.05-1.47-.05-24.19,0-48.48,38.83-51.74,71.82Z"/>
    <path class="cls-2" d="m1379.59,563.71c-27.88-16.21-25.08-59.51-24.24-68.02h0c3.55-35.86,31.43-84.27,68.94-81.91,15.48,1.02,30.91,11,42.32,27.38,14.7,21.08,19.68,48.16,13.02,70.68-6.73,22.75-25.91,42.84-50.05,52.44-9.02,3.58-17.98,5.37-26.33,5.37-8.78,0-16.88-1.98-23.68-5.93Zm-2.14-65.83h0c-1.36,13.66-.08,38.86,13.3,46.63,7.22,4.2,18.68,3.87,30.65-.88,14.07-5.59,31.16-18.53,36.95-38.1,4.8-16.2.98-36-9.94-51.68-7.43-10.65-16.98-17.35-25.56-17.91-.41-.03-.82-.04-1.23-.04-20.61,0-41.34,33.51-44.15,61.98Z"/>
  </g>
  <g>
    <path class="cls-1" d="m914.5,433.9c-37.82-64.5-57.47-178.31-3.58-217.15,19.43-14,46.95-16.72,77.49-7.61,50.72,15.12,95.95,57.27,115.23,107.4,19.49,50.66,13.86,112.71-14.33,158.08-16.69,26.87-38.85,42.86-62.4,45.02-1.84.17-3.67.25-5.5.25-53.68,0-98.29-71.28-106.92-86Zm9.4-199.12c-31.97,23.03-34.75,111.98,9.76,187.89h0c17.2,29.34,55.78,78.07,91.22,74.87,16.45-1.51,32.64-13.82,45.57-34.64,20.2-32.51,31.88-87.91,12.47-138.39-19.22-49.96-64.5-83.26-100.85-94.09-9.83-2.93-19.12-4.38-27.62-4.38-12.05,0-22.49,2.93-30.55,8.73Z"/>
    <path class="cls-2" d="m923.64,425.25h0c-33.52-57.18-50.79-158.18-2.77-192.79,17.45-12.57,42.07-15.01,69.32-6.89,45.01,13.41,85.14,50.81,102.25,95.28,17.29,44.94,12.29,100-12.72,140.26-14.91,24-34.76,38.29-55.9,40.23-1.66.16-3.31.23-4.95.23-47.97,0-87.56-63.25-95.22-76.32Zm10.21-174.76c-32.91,23.72-22.59,109.74,8.95,163.53h0c14.97,25.54,48.47,68,78.98,65.22,13.84-1.27,28.08-12.15,39.07-29.84,17.59-28.31,27.77-76.58,10.85-120.56-16.75-43.53-56.19-72.53-87.86-81.97-8.53-2.54-16.58-3.8-23.92-3.8-10.32,0-19.23,2.49-26.09,7.43Z"/>
  </g>
  <g>
    <path class="cls-1" d="m1074.74,569.73h0c-29.98-53.08-47.32-145.79-7.44-176.2,13.52-10.3,32.69-12.68,53.96-6.64,33.67,9.54,76.29,41.65,95.61,91.89,19.53,50.78,9.05,103.47-10,133.17-11.84,18.46-27.6,29.21-44.38,30.28-.94.06-1.88.09-2.81.09-40.72,0-75.18-55.31-84.94-72.59Zm6.03-158.53c-26.38,20.11-14.73,97.98,13.31,147.61h0c12.35,21.87,42.2,62.78,67.02,61.26,9.54-.6,19.16-7.74,27.09-20.1,15.51-24.18,24.61-69.92,7.96-113.21-16.48-42.84-53.5-70.73-80.94-78.49-5.77-1.64-11.19-2.45-16.13-2.45-7.36,0-13.63,1.81-18.32,5.38Z"/>
    <path class="cls-2" d="m1081.26,563.07c-13.88-24.57-23.82-56.23-26.58-84.7-3.29-33.92,3.95-59.5,20.38-72.03,12.24-9.33,29.51-11.48,48.65-6.06,29.94,8.48,67.83,37.02,84.99,81.64,17.35,45.11,8.02,91.94-8.92,118.35-10.65,16.61-24.89,26.29-40.08,27.25-.85.05-1.7.08-2.55.08-36.54,0-67.21-49.17-75.89-64.54Zm7.27-139.06c-20.89,15.92-14.8,80.59,12.06,128.14h0c10.72,18.99,36.59,54.66,57.71,53.21,7.96-.5,16.05-6.57,22.79-17.07,13.46-20.99,21.36-60.74,6.88-98.39-14.33-37.26-46.5-61.5-70.32-68.25-4.96-1.41-9.62-2.11-13.83-2.11-6.17,0-11.41,1.5-15.3,4.47Z"/>
  </g>
  <g>
    <path class="cls-1" d="m974.27,715.12c-31.59-1.56-56.32-13.18-69.64-32.72-31.74-46.57,11.46-124.71,20.44-139.9h0c38.05-64.37,128.04-136.79,188.14-108.48,21.68,10.2,37.4,32.95,44.25,64.06,11.39,51.68-3.52,111.69-38,152.88-33.18,39.62-86.43,64.35-137.51,64.35-2.56,0-5.13-.06-7.69-.19Zm-30.08-161.32c-17.31,29.28-41.26,86.68-21.21,116.1,9.3,13.65,27.91,21.83,52.39,23.04,38.25,1.93,92.34-14.77,127.06-56.24,34.36-41.05,41.51-96.8,33.34-133.84-5.34-24.23-16.71-41.53-32.02-48.74-5.36-2.52-11.7-3.75-18.76-3.75-39.91,0-102.75,39.08-140.8,103.43Z"/>
    <path class="cls-2" d="m981.44,700.17c-28.22-1.4-50.35-11.83-62.3-29.37-28.36-41.61,9.96-111.02,17.93-124.51h0c33.73-57.06,113.67-121.16,167.23-95.96,19.46,9.16,33.55,29.5,39.67,57.28,10.11,45.85-3.13,99.09-33.71,135.63-29.44,35.16-76.68,57.09-122,57.09-2.28,0-4.56-.05-6.82-.17Zm-25.25-142.57h0c-15.06,25.49-35.95,75.39-18.7,100.7,7.83,11.48,24.25,18.66,45.05,19.69,33.22,1.6,80.44-12.87,110.69-49,29.94-35.76,36.16-84.32,29.05-116.59-4.61-20.9-14.35-35.81-27.44-41.97-4.99-2.35-10.58-3.44-16.62-3.44-38.44,0-94.61,44.22-122.03,90.61Z"/>
  </g>
  <g>
    <path class="cls-1" d="m763.22,757.93c-12.11-1.59-21.23-7.71-25.68-17.23-13.39-28.7,20.77-84.06,36.08-106.53h0c35.02-51.39,106.64-119.53,144.52-108.41,10.11,2.98,17.63,11.1,21.2,22.89,10.13,33.5-10.8,94.2-47.65,138.19-34.8,41.54-86.39,71.53-121.41,71.53-2.43,0-4.8-.15-7.06-.44Zm28.76-111.26c-24.97,36.65-39.72,73.04-34.31,84.64.43.92,1.74,3.72,8.44,4.6,24.11,3.1,73.53-21.52,108.56-63.33,34.7-41.42,50.47-94.2,43.42-117.5-2.05-6.79-5.18-7.72-6.21-8.01-1.02-.3-2.16-.45-3.42-.45-22.07,0-79.17,45.3-116.49,100.05Z"/>
    <path class="cls-2" d="m772.68,745.84c-11.13-1.46-19.51-7.11-23.62-15.92-12.11-25.93,18.24-75.1,31.85-95.04h0c26.47-38.85,91.4-106.79,128.62-95.89,9.34,2.75,16.28,10.22,19.55,21.04,9.03,29.86-9.5,83.81-42.18,122.81-30.85,36.82-76.68,63.39-107.89,63.39-2.19,0-4.3-.13-6.33-.4Zm26.57-98.44h0c-21.38,31.33-34.59,63.45-30.07,73.13.3.65,1.22,2.61,6.39,3.29,18.13,2.3,61-15.5,94.31-55.24,30.25-36.11,44.04-81.96,37.94-102.13-1.59-5.28-3.83-5.94-4.56-6.15-.86-.25-1.82-.38-2.88-.38-18.95,0-68.53,39.65-101.13,87.48Z"/>
  </g>
  <g>
    <path class="cls-1" d="m836.48,487.67h0c-18.28-27.63-35.06-63-44.89-94.63-12.05-38.76-12.31-65.74-.78-80.18,6.57-8.24,16.93-12.12,29.21-10.96,34.85,3.3,83.12,45.64,109.89,96.4,27.05,51.27,34.59,115.32,17.19,145.81-6.06,10.62-15.17,16.74-25.66,17.25-.46.02-.92.03-1.37.03-31.37,0-68.8-51.39-83.59-73.74Zm-28.31-160.94c-12.31,15.41,8.19,90.28,46.84,148.69,24.2,36.57,51.95,63.78,64.93,63.78.15,0,.29,0,.43-.01,1.01-.05,4.1-.2,7.45-6.07,12.07-21.15,7.9-76.21-17.54-124.45-25.21-47.8-68.1-82.36-92.34-84.65-.8-.08-1.54-.11-2.22-.11-5.28,0-6.95,2.09-7.54,2.82Z"/>
    <path class="cls-2" d="m839.9,481.2h0c-25.94-39.21-64.33-125.02-40.1-155.34,6.08-7.61,15.61-11.18,26.87-10.14,31.06,2.94,73.98,40.5,97.73,85.51,23.98,45.46,30.62,102.37,15.11,129.56-5.56,9.75-13.97,15.38-23.68,15.85-.41.02-.83.03-1.25.03-28.26,0-61.54-45.63-74.67-65.47Zm-22.75-141.48c-10.56,13.22,7.55,78.26,41.27,129.22h0c21.06,31.82,44.98,55.52,55.97,55.52.12,0,.24,0,.35-.01.72-.03,2.88-.14,5.47-4.67,9.07-15.89,8.74-62.34-15.45-108.2-21.98-41.67-59.2-71.78-80.18-73.77-.68-.07-1.29-.09-1.85-.09-3.99,0-5.16,1.46-5.57,1.99Z"/>
  </g>
  <g>
    <path class="cls-1" d="m1075.1,454.35c-12.12-1.59-21.24-7.71-25.68-17.23-13.39-28.7,20.77-84.06,36.08-106.53h0c18.65-27.37,45.05-56.29,70.61-77.36,31.32-25.82,56.18-36.26,73.92-31.05,10.11,2.98,17.64,11.1,21.2,22.89,10.13,33.5-10.81,94.21-47.66,138.2-34.8,41.53-86.38,71.53-121.4,71.53-2.44,0-4.8-.15-7.07-.44Zm28.75-111.25c-24.97,36.65-39.72,73.03-34.31,84.63.43.92,1.74,3.72,8.44,4.6,24.22,3.11,73.54-21.53,108.56-63.32,34.7-41.42,50.47-94.2,43.43-117.51-2.05-6.79-5.18-7.72-6.21-8.01-1.02-.3-2.16-.45-3.41-.45-22.06,0-79.17,45.3-116.5,100.06Z"/>
    <path class="cls-2" d="m1084.57,442.26c-11.13-1.46-19.52-7.11-23.62-15.92-12.07-25.86,18.25-75.07,31.84-95.03h0c26.48-38.85,91.37-106.81,128.63-95.9,9.34,2.75,16.28,10.22,19.55,21.04,9.03,29.86-9.5,83.81-42.18,122.81-30.85,36.82-76.68,63.4-107.88,63.4-2.19,0-4.3-.13-6.33-.4Zm26.57-98.45c-21.72,31.89-34.65,63.33-30.07,73.14.3.65,1.22,2.61,6.39,3.29,18.16,2.33,61-15.5,94.3-55.25,30.25-36.11,44.04-81.96,37.95-102.12-1.6-5.29-3.83-5.95-4.56-6.16-.86-.25-1.82-.38-2.88-.38-18.95,0-68.53,39.66-101.13,87.48Z"/>
  </g>
  <g>
    <path class="cls-1" d="m1198.4,714.04c-12.12-1.59-21.24-7.71-25.68-17.23-13.4-28.73,20.77-84.07,36.08-106.53h0c18.65-27.37,45.05-56.29,70.6-77.36,31.32-25.82,56.19-36.26,73.92-31.05,10.11,2.98,17.64,11.1,21.2,22.89,10.13,33.5-10.81,94.21-47.66,138.2-34.8,41.53-86.38,71.53-121.4,71.53-2.44,0-4.8-.15-7.06-.44Zm28.75-111.25h0c-21.24,31.16-40.48,71.4-34.31,84.63.43.92,1.74,3.72,8.44,4.6,24.14,3.13,73.54-21.53,108.56-63.32,34.7-41.42,50.47-94.2,43.43-117.51-2.05-6.79-5.18-7.72-6.21-8.01-1.02-.3-2.16-.45-3.41-.45-22.06,0-79.17,45.3-116.49,100.06Z"/>
    <path class="cls-2" d="m1207.86,701.95c-11.13-1.46-19.52-7.11-23.63-15.91-12.08-25.88,18.25-75.08,31.85-95.03,26.48-38.85,91.38-106.82,128.62-95.9,9.34,2.75,16.28,10.22,19.55,21.03,9.03,29.86-9.5,83.81-42.18,122.82-30.85,36.82-76.68,63.4-107.88,63.4-2.19,0-4.3-.13-6.33-.4Zm26.57-98.44h0c-21.37,31.36-34.58,63.48-30.07,73.14.3.65,1.22,2.61,6.39,3.29,18.11,2.43,61.01-15.49,94.3-55.24,30.25-36.11,44.05-81.96,37.95-102.13-1.6-5.28-3.83-5.94-4.56-6.15-.86-.25-1.82-.38-2.88-.38-18.95,0-68.53,39.66-101.12,87.48Z"/>
  </g>
  <g>
    <path class="cls-1" d="m658.98,595.49h0c-15.33-31.05-22.32-70.82-18.71-106.39,4.18-41.14,21.61-71.5,49.09-85.47,26.16-13.31,61.34-11.92,96.51,3.8,42.81,19.12,74.67,54.3,85.24,94.09,10.68,40.19.17,86.88-28.11,124.91-22.95,30.87-52.72,49.11-81.67,50.05-.79.03-1.57.04-2.36.04-57.07,0-93.25-67.36-100-81.03Zm40.45-172.07c-44.55,22.66-47.67,107.29-20.54,162.24h0c3.51,7.1,35.21,68.65,80.14,68.65.53,0,1.06-.01,1.59-.03,21.81-.7,45.95-16.07,64.56-41.1,23.91-32.16,33.29-72.76,24.47-105.96-8.73-32.88-36.64-63.35-72.84-79.52-16.13-7.21-32.37-10.86-47.03-10.86-11.32,0-21.7,2.18-30.35,6.58Z"/>
    <path class="cls-2" d="m669.78,588.36h0c-13.59-27.53-19.79-62.78-16.59-94.31,3.72-36.66,19.31-63.74,43.9-76.25,23.39-11.89,54.75-10.68,86.06,3.31,38.02,16.99,66.33,48.26,75.72,83.65,9.5,35.74.17,77.25-24.94,111.03-20.44,27.48-47,43.72-72.88,44.56-.71.02-1.42.03-2.12.03-51.02,0-83.17-59.88-89.17-72.03Zm37.39-150.77c-38.54,19.61-41.07,93.14-17.48,140.94h0c3.08,6.24,31.19,61.06,70.65,59.63,18.79-.61,39.64-13.92,55.77-35.62,20.79-27.97,28.96-63.25,21.3-92.07-7.58-28.54-31.84-55.01-63.32-69.08-14.03-6.27-28.13-9.45-40.83-9.45-9.75,0-18.67,1.87-26.1,5.65Z"/>
  </g>
  <g>
    <path class="cls-1" d="m704.93,765.08h0c-15.33-31.05-22.32-70.81-18.71-106.39,4.18-41.14,21.61-71.5,49.08-85.47,26.17-13.31,61.34-11.93,96.52,3.8,42.8,19.13,74.67,54.3,85.23,94.09,10.68,40.19.17,86.88-28.11,124.91-22.95,30.87-52.72,49.11-81.67,50.05-.79.03-1.57.04-2.36.04-57.07,0-93.25-67.36-100-81.03Zm40.45-172.07c-44.55,22.66-47.66,107.29-20.54,162.24h0c3.51,7.1,35.21,68.65,80.14,68.65.53,0,1.06-.01,1.59-.03,21.81-.7,45.95-16.07,64.56-41.1,23.91-32.16,33.29-72.76,24.47-105.96-8.73-32.88-36.64-63.35-72.83-79.52-16.14-7.21-32.37-10.86-47.03-10.86-11.33,0-21.7,2.18-30.36,6.58Z"/>
    <path class="cls-2" d="m715.72,757.95h0c-13.59-27.53-19.79-62.78-16.59-94.31,3.72-36.66,19.31-63.74,43.9-76.25,23.39-11.89,54.75-10.68,86.06,3.31,38.02,16.99,66.33,48.26,75.72,83.65,9.5,35.74.17,77.25-24.94,111.03-20.44,27.48-47,43.72-72.88,44.56-.71.02-1.42.03-2.12.03-51.02,0-83.17-59.88-89.17-72.03Zm37.39-150.77c-38.54,19.61-41.07,93.14-17.48,140.94h0c3.08,6.24,31.05,60.95,70.65,59.63,18.79-.61,39.64-13.92,55.77-35.62,20.79-27.97,28.96-63.25,21.3-92.07-7.58-28.54-31.84-55.01-63.32-69.08-14.03-6.27-28.13-9.45-40.83-9.45-9.75,0-18.67,1.87-26.1,5.65Z"/>
  </g>
  <g>
    <path class="cls-1" d="m917.84,634.55h0c-12.22-23.59-14.9-54.53-6.84-78.83,5.58-16.82,15.88-29.27,29.78-36.02,18.44-8.95,43.52-7.84,67.1,2.96,24.49,11.22,42.59,31,48.41,52.91,5.88,22.13-.18,48.48-16.21,70.49-15.29,20.99-36.49,34.15-56.72,35.21-.92.05-1.83.07-2.73.07-36.64,0-58.66-38.83-62.78-46.79Zm32.64-94.87c-10.59,5.15-15.85,15.37-18.4,23.04-6.18,18.6-3.97,43.37,5.48,61.62h0c1.89,3.64,18.75,34.8,43.14,34.8.5,0,1-.01,1.5-.04,13.41-.7,28.71-10.7,39.93-26.1,12.13-16.66,16.88-35.99,12.7-51.71-4.14-15.58-17.68-29.94-36.2-38.43-10.05-4.6-20.45-6.95-29.83-6.95-6.83,0-13.12,1.25-18.32,3.77Z"/>
    <path class="cls-2" d="m924.52,630.4c-10.9-21.06-13.29-48.68-6.09-70.38,5.02-15.14,14.32-26.37,26.88-32.47,16.56-8.04,39.06-7.06,60.17,2.6,22.22,10.18,38.01,27.47,43.31,47.42,5.28,19.85-.14,43.46-14.47,63.14-13.69,18.79-32.72,30.57-50.91,31.52-.83.04-1.66.07-2.48.07-33.01,0-52.72-34.76-56.42-41.89Zm30.49-82.88c-7.15,3.48-12.37,10.03-15.51,19.49-5.32,16.04-3.42,37.41,4.74,53.17l-9.86,5.11,9.86-5.11c.64,1.24,15.72,29.89,36.8,29.89.4,0,.81-.01,1.21-.03,11.41-.6,24.48-9.18,34.12-22.41,10.44-14.33,14.54-30.92,10.96-44.36-3.54-13.32-15.17-25.62-31.1-32.93-8.68-3.97-17.64-6-25.7-6-5.8,0-11.13,1.05-15.52,3.19Z"/>
  </g>
  <g>
    <path class="cls-1" d="m1363.43,715.72c-31.18-.16-51.27-38.68-56.68-50.47h0c-8.39-18.32-12.77-41.51-11.7-62.04,1.29-24.85,10.24-43.12,25.22-51.41,12.59-6.98,28.94-6.82,46.04.47,25.41,10.82,46.32,34.75,53.28,60.95,7.03,26.48.54,57.85-16.52,79.92-11.27,14.57-25.27,22.59-39.45,22.59h-.19Zm-32.4-144.5c-16.64,9.22-18.75,52.79-4.09,84.77h0c5.94,12.94,21.22,37.44,36.6,37.52h.07c7.05,0,15.02-5.09,21.89-13.97,10.64-13.76,18.67-37.85,12.62-60.63-5.26-19.83-21.17-37.97-40.52-46.21-5.92-2.52-11.57-3.79-16.52-3.79-3.84,0-7.27.76-10.06,2.31Z"/>
    <path class="cls-2" d="m1362.96,706.64c-28.26-.14-46.24-34.63-51.07-45.19h0c-14.13-30.85-17.82-84.75,12.46-101.52,11.45-6.34,26.25-6.22,41.68.36,22.72,9.68,41.41,31.07,47.63,54.5,6.29,23.68.49,51.73-14.76,71.46-10.17,13.15-22.86,20.39-35.76,20.39h-.17Zm-27.85-127.29c-14.11,7.82-15.68,45.27-3.03,72.85h0c5.92,12.93,19.05,32.17,30.99,32.23,5.84-.01,12.54-4.37,18.26-11.77,9.16-11.85,16.07-32.58,10.87-52.18-5.15-19.4-21.22-33.95-34.87-39.77-5.05-2.15-9.85-3.24-14.01-3.24-3.15,0-5.94.62-8.2,1.87Z"/>
  </g>
  <g>
    <path class="cls-1" d="m1462.16,588.16h0c-15.32-31.04-22.32-70.81-18.7-106.38,4.18-41.14,21.61-71.5,49.08-85.47,26.16-13.31,61.34-11.92,96.52,3.8,42.8,19.13,74.67,54.3,85.23,94.09,10.67,40.19.17,86.88-28.11,124.91-22.95,30.87-52.72,49.11-81.66,50.05-.79.03-1.58.04-2.36.04-57.09,0-93.26-67.36-100-81.03Zm40.45-172.06c-44.55,22.66-47.66,107.29-20.53,162.23h0c3.5,7.1,35.18,68.66,80.13,68.65.53,0,1.06-.01,1.59-.03,21.82-.7,45.95-16.07,64.56-41.1,23.91-32.16,33.29-72.76,24.47-105.96-8.73-32.88-36.64-63.35-72.83-79.52-16.14-7.21-32.37-10.87-47.03-10.87-11.32,0-21.7,2.18-30.36,6.58Z"/>
    <path class="cls-2" d="m1472.96,581.04h0c-13.59-27.53-19.79-62.79-16.58-94.32,3.72-36.66,19.31-63.74,43.9-76.25,23.38-11.9,54.74-10.68,86.07,3.32,38.01,16.99,66.32,48.26,75.72,83.65,9.49,35.74.17,77.25-24.95,111.03-20.43,27.48-46.99,43.72-72.87,44.56-.71.02-1.42.03-2.12.03-51,0-83.17-59.87-89.17-72.02Zm37.39-150.78c-38.54,19.61-41.07,93.14-17.48,140.94,3.08,6.25,31.41,60.76,70.65,59.63,18.79-.61,39.64-13.92,55.77-35.62,20.8-27.97,28.96-63.25,21.3-92.07-7.58-28.54-31.84-55.01-63.32-69.08-14.03-6.27-28.14-9.45-40.84-9.45-9.75,0-18.67,1.87-26.1,5.65Z"/>
  </g>
  <g>
    <path class="cls-1" d="m1375.87,761.45h0c-17.17-36.7-25.8-83.35-23.09-124.78,3.16-48.17,20.94-83.36,50.06-99.09,25-13.5,59.21-12.67,93.85,2.32,50.75,21.94,90.62,67,104.05,117.6,13.37,50.35.43,111.14-32.97,154.84-22.8,29.84-51.96,47.06-80,47.25h-.46c-62.38,0-103.77-81.72-111.45-98.13Zm38.79-201.98c-46.79,25.27-47.16,125.39-16.26,191.44h0c4.02,8.59,40.59,83.8,88.91,83.79.1,0,.2,0,.3,0,20.28-.13,42.29-13.79,60.39-37.47,28.89-37.82,40.16-90.16,28.69-133.35-11.35-42.75-46.62-82.45-89.87-101.15-15.21-6.57-30.02-9.88-43.31-9.88-10.83,0-20.65,2.2-28.84,6.63Z"/>
    <path class="cls-2" d="m1387.17,753.41h0c-15.21-32.52-22.85-73.83-20.45-110.51,2.81-42.91,18.73-74.3,44.82-88.39,22.4-12.1,52.97-11.38,83.87,1.98,45.05,19.48,80.46,59.5,92.39,104.45,11.87,44.73.39,98.7-29.26,137.5-20.34,26.63-46.43,41.99-71.56,42.16h-.41c-55.75,0-92.57-72.6-99.4-87.19Zm36.19-177.01c-33.1,17.88-46.57,96.11-13.66,166.46,12.68,27.1,43.12,72.86,76.88,72.86.08,0,.16,0,.24,0,17.38-.11,36.31-11.91,51.95-32.37,25.15-32.91,34.95-78.45,24.98-116.01-9.87-37.18-40.57-71.72-78.21-87.99-13.2-5.7-26.03-8.58-37.51-8.58-9.27,0-17.67,1.88-24.66,5.66Z"/>
  </g>
  <g>
    <path class="cls-1" d="m478.64,672.86c-17.18-36.71-25.8-83.35-23.09-124.78,3.16-48.17,20.93-83.36,50.06-99.09,25-13.5,59.2-12.67,93.85,2.32,50.74,21.94,90.62,67,104.05,117.6,13.37,50.35.43,111.12-32.97,154.83-22.81,29.85-51.96,47.07-80,47.25h-.46c-62.37,0-103.77-81.72-111.44-98.13Zm38.79-201.98c-46.79,25.27-47.15,125.38-16.26,191.44h0c4.02,8.59,40.6,83.8,88.91,83.79.1,0,.2,0,.3,0,20.28-.13,42.3-13.79,60.39-37.47,28.89-37.82,40.16-90.16,28.69-133.34-11.35-42.75-46.63-82.45-89.88-101.15-15.21-6.57-30.02-9.88-43.31-9.88-10.83,0-20.65,2.2-28.85,6.63Z"/>
    <path class="cls-2" d="m489.93,664.81h0c-15.21-32.51-22.85-73.82-20.45-110.51,2.81-42.91,18.73-74.3,44.82-88.38,22.4-12.11,52.97-11.38,83.87,1.98,45.05,19.48,80.45,59.5,92.38,104.44,11.87,44.73.39,98.7-29.26,137.51-20.34,26.62-46.42,41.99-71.55,42.15h-.41c-55.81,0-92.58-72.61-99.4-87.19Zm36.19-177c-33.1,17.87-46.56,96.11-13.65,166.46h0c12.67,27.1,43.07,72.85,76.87,72.85.08,0,.16,0,.24,0,17.38-.11,36.31-11.91,51.94-32.37,25.15-32.91,34.95-78.45,24.98-116.02-9.87-37.18-40.56-71.72-78.2-87.99-13.2-5.7-26.03-8.58-37.52-8.58-9.27,0-17.67,1.88-24.66,5.66Z"/>
  </g>
  <g>
    <path class="cls-1" d="m575.89,995.13h0c12.47,27.72,17.87,62.83,14.44,93.9-4.01,36.3-19.25,62.67-42.91,74.27-21.45,10.52-50.06,8.87-78.48-4.54-37.26-17.57-65.79-51.1-74.47-87.52-8.76-36.8,1.88-79.91,27.76-112.51,19.48-24.53,44.18-38.54,67.76-38.42,2.61.01,5.16.2,7.67.53,45.29,6.09,72.93,62.48,78.23,74.28Zm-38.25,148.24c36.58-17.94,39.76-90.78,18-139.13h0c-2.83-6.3-28.68-61.46-65.76-61.72-16.47-.09-35.26,11.14-50.25,30.02-21.75,27.39-30.77,63.24-23.55,93.55,7.15,30.02,31.03,57.83,62.33,72.58,9.52,4.49,19.07,7.36,28.07,8.57,11.77,1.58,22.59.32,31.17-3.88Z"/>
    <path class="cls-2" d="m566.81,1000.99h0c21.1,46.9,21.54,126.55-25.68,149.7-19.24,9.44-44.82,7.98-70.2-3.99-33.13-15.62-58.51-45.47-66.24-77.89-7.8-32.76,1.65-71.12,24.68-100.12,17.4-21.91,39.51-34.41,60.66-34.31,2.35,0,4.65.18,6.91.48,40.53,5.45,65.14,55.62,69.87,66.12Zm-35.46,129.77c25.78-12.65,38.32-69.29,15.21-120.65-8.92-19.82-30.93-53.39-56.64-53.51-14.09-.07-30.22,9.62-43.16,25.91-18.88,23.78-26.72,54.88-20.46,81.16,6.2,26.01,26.92,50.14,54.1,62.95,8.26,3.89,16.54,6.39,24.32,7.43,10.08,1.35,19.33.28,26.63-3.3Z"/>
  </g>
  <g>
    <path class="cls-1" d="m434.57,878.19c28.22,21.91,18.66,69.45,16.46,78.76h0c-9.29,39.26-47.46,88.93-88.3,80.7-16.83-3.4-32.31-16.68-42.48-36.46-13.16-25.58-14.67-56.34-3.94-80.29,10.84-24.2,35.1-43.6,63.3-50.64,10.53-2.63,20.7-3.28,29.91-2.04,9.62,1.29,18.2,4.65,25.05,9.96Zm-5.15,73.64h0c3.68-15.54,6.03-44.84-8.47-56.1-7.86-6.12-21.3-7.58-35.96-3.92-17.04,4.26-38.71,16.52-48.41,38.17-8.04,17.94-6.73,41.34,3.42,61.05,6.96,13.53,17.1,22.82,27.13,24.84.48.1.96.18,1.45.24,23.97,3.22,53.22-32.02,60.85-64.29Z"/>
    <path class="cls-2" d="m428.83,885.71c25.47,19.78,16.93,62.32,14.96,70.65h0c-8.3,35.07-42.37,79.34-79.24,72-15.21-3.07-29.17-15.01-38.3-32.77-11.76-22.85-13.09-50.36-3.49-71.78,9.7-21.65,31.39-39.01,56.59-45.3,9.42-2.35,18.53-2.93,26.81-1.82,8.7,1.17,16.47,4.21,22.68,9.03Zm-6.65,65.53h0c3.16-13.36,5.25-38.5-6.97-47.99-6.6-5.12-18-6.33-30.49-3.21-14.69,3.67-33.35,14.22-41.7,32.83-6.91,15.41-5.77,35.55,2.97,52.54,5.94,11.55,14.52,19.46,22.95,21.16.4.08.81.15,1.22.21,20.42,2.74,45.43-27.71,52.02-55.55Z"/>
  </g>
  <g>
    <path class="cls-1" d="m872.49,1076.31c28.89,68.96,33.21,184.38-25.38,215.69-21.12,11.29-48.76,10.31-77.82-2.78-48.25-21.74-87.47-69.54-99.9-121.79-12.57-52.8,1.27-113.55,35.26-154.77,20.13-24.41,44.22-37.3,67.84-36.31,1.85.07,3.67.24,5.48.48,53.21,7.15,87.91,83.74,94.51,99.48Zm-35.84,196.1c34.76-18.57,49.36-106.35,15.35-187.52h0c-13.14-31.37-44.89-84.81-80.43-86.36-16.51-.69-34.18,9.35-49.78,28.26-24.35,29.53-43.31,82.88-30.79,135.5,12.4,52.07,52.84,91.1,87.42,106.68,9.35,4.21,18.37,6.89,26.79,8.02,11.95,1.61,22.68.09,31.44-4.59Z"/>
    <path class="cls-2" d="m862.28,1083.67h0c25.6,61.14,29.27,163.54-22.93,191.44-18.97,10.13-43.7,9.28-69.62-2.4-42.82-19.28-77.61-61.7-88.65-108.05-11.15-46.85,1.13-100.75,31.29-137.31,17.98-21.8,39.55-33.32,60.76-32.43,1.67.07,3.31.21,4.94.43,47.54,6.39,78.35,74.35,84.21,88.32Zm-33.4,171.85c35.78-19.12,37-105.75,12.91-163.26h0c-11.43-27.31-38.98-73.85-69.59-75.16-13.88-.58-29.44,8.3-42.7,24.37-21.21,25.72-37.73,72.2-26.82,118.04,10.8,45.37,46.03,79.37,76.16,92.94,8.11,3.65,15.92,5.97,23.2,6.95,10.23,1.37,19.39.09,26.84-3.89Z"/>
  </g>
  <g>
    <path class="cls-1" d="m731.77,920.36h0c22.65,56.6,27.48,150.8-16.1,175.62-14.77,8.41-34.09,8.21-54.37-.61-32.1-13.94-70.06-51.44-82.52-103.81-12.59-52.93,4.81-103.76,27.65-130.65,14.2-16.72,31.25-25.28,48.02-24.1.94.07,1.87.16,2.8.29,40.36,5.42,67.15,64.83,74.52,83.26Zm-27.09,156.32c28.82-16.42,27.65-95.14,6.47-148.07h0c-9.33-23.32-33.46-67.84-58.26-69.64-9.53-.67-20.02,5.12-29.52,16.31-18.59,21.9-33.71,66.02-22.97,111.14,10.62,44.66,43.61,77.22,69.76,88.58,5.5,2.39,10.77,3.92,15.66,4.58,7.29.98,13.75.02,18.87-2.9Z"/>
    <path class="cls-2" d="m724.42,926.09c10.48,26.2,16.11,58.9,15.06,87.48-1.26,34.06-11.84,58.44-29.8,68.67-13.37,7.61-30.78,7.45-49.02-.47-28.54-12.39-62.29-45.72-73.36-92.24-11.18-47.01,4.3-92.19,24.6-116.11,12.77-15.05,28.17-22.74,43.36-21.67.85.06,1.7.15,2.54.26,36.22,4.87,60.07,57.69,66.62,74.07Zm-25.73,136.86c22.82-13,25.4-77.9,5.11-128.61h0c-8.1-20.25-28.99-59.05-50.1-60.42-7.96-.56-16.78,4.37-24.86,13.89-16.14,19.01-29.26,57.36-19.93,96.6,9.24,38.84,37.89,67.14,60.6,77.01,4.73,2.06,9.25,3.37,13.43,3.93,6.12.82,11.5.03,15.75-2.39Z"/>
  </g>
  <g>
    <path class="cls-1" d="m850.71,789.64c31.1,5.76,54.07,20.57,64.66,41.7,25.25,50.38-27.97,122.07-38.89,135.94h0c-46.29,58.73-145.12,118.51-200.91,82.45-20.13-13-32.68-37.64-35.33-69.38-4.41-52.74,18.37-110.23,58.02-146.46,38.16-34.85,94.23-52.27,144.85-45.46,2.54.34,5.08.74,7.59,1.21Zm8.33,163.89c21.05-26.71,52.43-80.41,36.48-112.24-7.4-14.76-24.75-25.35-48.85-29.81-37.65-7.01-93.49,2.34-133.42,38.82-39.53,36.11-54.03,90.41-50.87,128.21,2.07,24.72,11.03,43.39,25.25,52.57,4.98,3.21,11.1,5.27,18.1,6.21,39.55,5.32,107.04-25.05,153.32-83.75Z"/>
    <path class="cls-2" d="m841.62,803.5c27.78,5.15,48.33,18.43,57.83,37.4,22.57,45.02-24.66,108.7-34.36,121.01h0c-41.03,52.05-128.79,104.94-178.52,72.83-18.07-11.67-29.32-33.71-31.69-62.06-3.91-46.79,16.3-97.79,51.47-129.93,33.86-30.92,83.6-46.37,128.52-40.33,2.26.3,4.51.66,6.74,1.08Zm6.03,144.67h0c18.32-23.26,45.67-69.93,31.95-97.32-6.23-12.42-21.55-21.72-42.02-25.51-32.71-6.01-81.44,2.04-116.23,33.82-34.43,31.45-47.07,78.76-44.32,111.68,1.78,21.33,9.45,37.4,21.6,45.25,4.63,2.99,10.03,4.82,16.02,5.62,38.1,5.12,99.65-31.23,133.01-73.55Z"/>
  </g>
  <g>
    <path class="cls-1" d="m1065.59,775.32c11.79,3.19,20.02,10.47,23.15,20.5,9.45,30.23-31.78,80.55-49.95,100.78h0c-41.55,46.27-121.61,104.26-157.68,88.19-9.62-4.3-16-13.35-17.96-25.51-5.58-34.55,23.25-91.92,65.64-130.61,40.03-36.53,95.15-59.39,129.86-54.72,2.41.32,4.74.78,6.94,1.38Zm-43.32,106.44c29.63-33,49.1-67.1,45.28-79.31-.3-.97-1.22-3.92-7.75-5.69-23.48-6.28-75.74,11.53-116.03,48.3-39.91,36.43-62.57,86.64-58.68,110.67,1.13,7.01,4.11,8.34,5.09,8.77.97.44,2.08.73,3.33.9,21.87,2.94,84.5-34.35,128.78-83.65Z"/>
    <path class="cls-2" d="m1054.59,786.05c10.83,2.93,18.39,9.65,21.29,18.92,8.55,27.32-28.08,72-44.23,89.95h0c-31.41,34.98-104.81,93.67-140.24,77.91-8.89-3.97-14.78-12.3-16.58-23.45-4.97-30.8,20.58-81.8,58.16-116.1,35.48-32.38,84.44-52.62,115.37-48.46,2.17.29,4.24.7,6.22,1.24Zm-39.45,94.03h0c25.36-28.2,42.73-58.28,39.54-68.48-.21-.68-.86-2.75-5.89-4.11-17.66-4.69-62.52,7.24-100.82,42.19-34.79,31.76-54.57,75.36-51.21,96.17.88,5.45,3,6.39,3.7,6.71.82.37,1.76.62,2.8.76,18.78,2.52,73.2-30.17,111.88-73.23Z"/>
  </g>
  <g>
    <path class="cls-1" d="m956.98,1033.42h0c14.44,29.81,26.35,67.11,31.88,99.76,6.78,40.02,3.45,66.79-9.91,79.56-7.61,7.29-18.39,9.76-30.41,6.98-34.1-7.91-76.3-56.31-96.07-110.18-19.98-54.41-18.92-118.9,2.38-146.81,7.42-9.72,17.27-14.57,27.73-13.68.45.04.91.09,1.36.15,31.09,4.18,61.34,60.1,73.02,84.22Zm6.62,163.28c14.25-13.63,3.91-90.56-26.61-153.6-19.12-39.47-42.99-70.14-55.85-71.87-.15-.02-.28-.04-.43-.05-1.01-.09-4.09-.35-8.19,5.03-14.78,19.36-17.98,74.48.81,125.68,18.62,50.73,56.52,90.69,80.24,96.19.78.19,1.51.32,2.19.41,5.23.7,7.17-1.14,7.85-1.8Z"/>
    <path class="cls-2" d="m952.72,1039.38h0c20.49,42.31,47.11,132.48,19.05,159.3-7.04,6.73-16.96,9-27.98,6.48-30.39-7.05-67.93-50-85.47-97.77-17.71-48.25-16.71-105.54,2.29-130.42,6.81-8.92,15.89-13.38,25.58-12.56.41.04.83.08,1.24.14,28.01,3.76,54.91,53.42,65.29,74.83Zm3.7,143.25c12.23-11.69,2.94-78.56-23.69-133.57h0c-16.63-34.34-37.18-61.02-48.07-62.48-.12-.02-.24-.03-.35-.04-.71-.06-2.87-.25-6.04,3.9-11.1,14.54-16.97,60.62.9,109.29,16.23,44.22,49.11,79.03,69.64,83.79.66.15,1.27.26,1.82.34,3.95.53,5.31-.76,5.79-1.23Z"/>
  </g>
  <g>
    <path class="cls-1" d="m716.04,1034.65c11.8,3.19,20.02,10.47,23.15,20.5,9.45,30.23-31.78,80.54-49.95,100.77h0c-22.13,24.64-52.15,49.79-80.28,67.27-34.48,21.42-60.51,28.45-77.4,20.93-9.62-4.3-16-13.35-17.96-25.51-5.58-34.55,23.26-91.93,65.64-130.62,40.02-36.53,95.14-59.38,129.85-54.72,2.42.32,4.74.78,6.95,1.38Zm-43.32,106.43c29.63-32.99,49.09-67.09,45.27-79.31-.3-.97-1.22-3.92-7.75-5.69-23.59-6.31-75.75,11.54-116.03,48.3-39.91,36.43-62.57,86.64-58.69,110.67,1.13,7.01,4.11,8.34,5.09,8.77.97.44,2.08.73,3.32.9,21.87,2.94,84.5-34.35,128.78-83.65Z"/>
    <path class="cls-2" d="m705.05,1045.37c10.83,2.93,18.4,9.65,21.29,18.92,8.52,27.24-28.09,71.97-44.22,89.94h0c-31.42,34.98-104.78,93.69-140.26,77.92-8.89-3.97-14.77-12.3-16.57-23.45-4.97-30.8,20.58-81.8,58.16-116.1,35.48-32.38,84.45-52.62,115.37-48.46,2.17.29,4.25.7,6.22,1.24Zm-39.45,94.03c25.77-28.71,42.78-58.15,39.55-68.48-.21-.68-.86-2.75-5.89-4.11-17.69-4.72-62.52,7.24-100.82,42.19-34.79,31.75-54.57,75.36-51.21,96.16.88,5.45,3,6.41,3.7,6.71.82.37,1.75.62,2.8.76,18.78,2.52,73.2-30.18,111.88-73.23Z"/>
  </g>
  <g>
    <path class="cls-1" d="m628.44,760.85c11.8,3.19,20.02,10.47,23.16,20.5,9.46,30.26-31.78,80.55-49.95,100.78h0c-22.13,24.64-52.14,49.78-80.28,67.26-34.48,21.42-60.52,28.45-77.4,20.93-9.62-4.3-16-13.35-17.96-25.51-5.58-34.55,23.26-91.93,65.64-130.62,40.02-36.53,95.14-59.38,129.85-54.72,2.42.32,4.74.78,6.94,1.38Zm-43.32,106.43h0c25.2-28.05,49.63-65.37,45.27-79.31-.3-.97-1.23-3.92-7.75-5.69-23.51-6.32-75.75,11.54-116.02,48.3-39.91,36.43-62.57,86.64-58.69,110.67,1.13,7.01,4.11,8.34,5.09,8.77.97.44,2.08.73,3.32.9,21.87,2.94,84.5-34.35,128.78-83.65Z"/>
    <path class="cls-2" d="m617.45,771.57c10.84,2.93,18.4,9.64,21.3,18.92,8.52,27.26-28.09,71.98-44.22,89.94-31.41,34.98-104.8,93.7-140.25,77.92-8.89-3.97-14.77-12.3-16.58-23.45-4.97-30.8,20.58-81.8,58.16-116.11,35.48-32.38,84.44-52.62,115.37-48.46,2.17.29,4.24.7,6.22,1.24Zm-39.45,94.03h0c25.36-28.23,42.73-58.31,39.55-68.48-.21-.68-.86-2.75-5.9-4.11-17.62-4.82-62.53,7.23-100.82,42.19-34.79,31.76-54.57,75.36-51.21,96.16.88,5.45,3,6.4,3.7,6.71.82.37,1.75.62,2.8.76,18.78,2.52,73.2-30.18,111.87-73.23Z"/>
  </g>
  <g>
    <path class="cls-1" d="m1147.25,950.2h0c11.06,32.81,12.69,73.16,4.37,107.93-9.62,40.22-30.94,67.98-60.03,78.17-27.7,9.71-62.38,3.65-95.15-16.62-39.88-24.66-66.77-63.76-71.95-104.61-5.23-41.25,11.41-86.13,44.5-120.06,26.86-27.54,58.79-41.65,87.61-38.72.79.08,1.56.17,2.34.28,56.56,7.6,83.45,79.18,88.31,93.62Zm-63.01,165.15c47.17-16.53,61.53-99.98,41.97-158.06h0c-2.53-7.51-25.75-72.73-70.28-78.71-.52-.07-1.05-.13-1.58-.19-21.71-2.21-47.68,9.81-69.46,32.13-27.98,28.69-42.68,67.68-38.37,101.75,4.28,33.75,27.88,67.67,61.6,88.52,15.03,9.3,30.63,15.08,45.16,17.03,11.22,1.51,21.8.73,30.96-2.48Z"/>
    <path class="cls-2" d="m1135.6,955.83h0c9.8,29.09,11.25,64.86,3.88,95.68-8.58,35.84-27.63,60.6-53.67,69.72-24.76,8.67-55.69,3.29-84.86-14.75-35.42-21.91-59.31-56.67-63.91-92.99-4.65-36.69,10.12-76.58,39.51-106.72,23.91-24.51,52.4-37.07,78.16-34.46.71.07,1.41.16,2.11.25,50.56,6.8,74.45,70.42,78.78,83.26Zm-57.14,144.45c40.81-14.3,53.11-86.84,36.09-137.36h0c-2.22-6.6-22.78-64.67-62.08-68.51-18.7-1.9-41.14,8.52-60.02,27.87-24.33,24.95-37.13,58.83-33.38,88.41,3.71,29.3,24.23,58.76,53.56,76.9,13.07,8.09,26.63,13.11,39.21,14.81,9.66,1.3,18.75.63,26.62-2.12Z"/>
  </g>
  <g>
    <path class="cls-1" d="m1124.31,776h0c11.06,32.81,12.69,73.15,4.37,107.93-9.62,40.22-30.94,67.98-60.03,78.17-27.71,9.71-62.39,3.65-95.16-16.62-39.87-24.66-66.77-63.76-71.94-104.61-5.23-41.25,11.41-86.13,44.5-120.06,26.86-27.54,58.79-41.65,87.61-38.72.79.08,1.56.17,2.34.28,56.56,7.6,83.45,79.18,88.31,93.62Zm-63.01,165.15c47.17-16.53,61.53-99.98,41.97-158.06h0c-2.53-7.51-25.75-72.73-70.28-78.71-.52-.07-1.05-.13-1.58-.19-21.71-2.21-47.68,9.81-69.46,32.13-27.98,28.69-42.68,67.68-38.37,101.75,4.28,33.75,27.88,67.67,61.59,88.52,15.03,9.29,30.64,15.08,45.17,17.03,11.23,1.51,21.8.73,30.96-2.48Z"/>
    <path class="cls-2" d="m1112.66,781.63h0c9.8,29.09,11.25,64.86,3.88,95.68-8.58,35.84-27.63,60.6-53.67,69.72-24.76,8.67-55.68,3.29-84.86-14.75-35.42-21.91-59.31-56.67-63.91-92.99-4.65-36.69,10.12-76.58,39.51-106.72,23.91-24.51,52.4-37.07,78.16-34.46.71.07,1.41.16,2.11.25,50.56,6.8,74.45,70.42,78.78,83.26Zm-57.14,144.45c40.81-14.3,53.11-86.84,36.09-137.36h0c-2.22-6.6-22.65-64.54-62.08-68.51-18.7-1.9-41.14,8.52-60.02,27.87-24.33,24.95-37.13,58.83-33.38,88.41,3.71,29.3,24.23,58.76,53.56,76.9,13.07,8.09,26.63,13.11,39.21,14.81,9.66,1.3,18.75.63,26.62-2.12Z"/>
  </g>
  <g>
    <path class="cls-1" d="m895.9,877.01h0c8.96,25.01,7.5,56.03-3.72,79.03-7.78,15.93-19.64,26.9-34.31,31.73-19.47,6.42-44.17,1.97-66.11-11.87-22.78-14.38-38.08-36.39-40.93-58.89-2.88-22.71,6.63-48.02,25.46-67.7,17.95-18.77,40.71-28.99,60.9-27.34.92.07,1.83.17,2.72.29,36.31,4.88,52.97,46.3,55.99,54.74Zm-44.98,89.68c11.19-3.69,17.76-13.12,21.3-20.38,8.6-17.61,9.72-42.45,2.77-61.8h0c-1.39-3.86-13.95-36.99-38.12-40.23-.49-.07-.99-.12-1.49-.16-13.39-1.09-29.88,6.78-43.05,20.55-14.24,14.89-21.52,33.42-19.48,49.56,2.03,15.99,13.53,32.03,30.76,42.91,9.35,5.9,19.34,9.61,28.64,10.86,6.77.91,13.17.51,18.66-1.29Z"/>
    <path class="cls-2" d="m888.74,880.23c8,22.32,6.69,50.02-3.33,70.56-6.99,14.34-17.7,24.23-30.97,28.6-17.48,5.76-39.65,1.8-59.29-10.59-20.67-13.05-34.02-32.29-36.61-52.76-2.58-20.38,5.92-43.05,22.75-60.65,16.07-16.8,36.5-25.94,54.65-24.46.83.07,1.65.16,2.46.27,32.72,4.4,47.62,41.47,50.33,49.03Zm-41.26,78.08c7.55-2.49,13.59-8.29,17.97-17.25,7.41-15.19,8.37-36.62,2.38-53.33l10.46-3.75-10.46,3.75c-.47-1.32-11.6-31.72-32.49-34.53-.4-.05-.8-.1-1.2-.13-11.39-.93-25.49,5.84-36.8,17.67-12.25,12.81-18.53,28.7-16.77,42.51,1.74,13.67,11.62,27.42,26.44,36.78,8.07,5.09,16.69,8.3,24.67,9.37,5.75.77,11.17.44,15.81-1.09Z"/>
  </g>
  <g>
    <path class="cls-1" d="m465.1,737.21c30.89,4.31,45.66,45.16,49.45,57.57h0c5.88,19.27,7.12,42.84,3.33,63.04-4.59,24.46-15.9,41.37-31.85,47.59-13.41,5.24-29.59,2.9-45.57-6.6-23.74-14.11-41.28-40.61-44.68-67.5-3.44-27.18,7.17-57.4,27.02-77,13.11-12.94,28.06-19.02,42.11-17.13l.19.02Zm12.86,147.53c17.72-6.92,25.61-49.83,15.35-83.47h0c-4.16-13.62-16.05-39.94-31.28-42.06h-.07c-6.99-.95-15.57,3.03-23.55,10.92-12.38,12.22-23.55,35.02-20.59,58.41,2.57,20.35,15.92,40.45,34,51.2,5.53,3.28,10.96,5.3,15.87,5.96,3.81.51,7.3.21,10.27-.95Z"/>
    <path class="cls-2" d="m464.36,746.27c27.99,3.9,41.21,40.48,44.6,51.59h0c9.9,32.45,6.38,86.37-25.87,98.96-12.19,4.76-26.85,2.67-41.26-5.91-21.23-12.62-36.91-36.31-39.95-60.36-3.08-24.3,6.4-51.33,24.15-68.85,11.83-11.68,25.38-17.16,38.16-15.45l.17.02Zm10.64,129.86c15.03-5.87,21.57-42.78,12.71-71.8h0c-4.14-13.6-14.6-34.42-26.42-36.07-5.79-.77-13.01,2.66-19.66,9.23-10.65,10.52-20.27,30.14-17.72,50.27,2.52,19.91,16.51,36.48,29.26,44.06,4.72,2.81,9.33,4.52,13.45,5.07,3.12.42,5.97.18,8.37-.76Z"/>
  </g>
  <g>
    <path class="cls-1" d="m350.26,850.48h0c11.05,32.81,12.69,73.15,4.37,107.92-9.62,40.22-30.94,67.98-60.03,78.17-27.7,9.71-62.38,3.65-95.16-16.62-39.87-24.66-66.77-63.76-71.94-104.61-5.23-41.25,11.41-86.13,44.5-120.06,26.86-27.54,58.79-41.65,87.6-38.72.79.08,1.57.17,2.35.28,56.58,7.6,83.45,79.18,88.31,93.63Zm-63.01,165.14c47.17-16.53,61.53-99.98,41.96-158.05h0c-2.53-7.51-25.72-72.73-70.27-78.72-.52-.07-1.05-.13-1.58-.19-21.72-2.21-47.69,9.81-69.46,32.13-27.98,28.69-42.68,67.68-38.36,101.75,4.27,33.75,27.87,67.67,61.59,88.51,15.03,9.3,30.64,15.08,45.17,17.03,11.22,1.51,21.8.73,30.96-2.48Z"/>
    <path class="cls-2" d="m338.61,856.1h0c9.8,29.09,11.25,64.86,3.87,95.68-8.57,35.84-27.63,60.6-53.67,69.72-24.75,8.68-55.68,3.29-84.86-14.75-35.41-21.9-59.3-56.67-63.9-92.99-4.65-36.69,10.12-76.58,39.51-106.71,23.91-24.51,52.4-37.07,78.16-34.46.71.07,1.41.16,2.11.25,50.54,6.79,74.45,70.41,78.78,83.26Zm-57.14,144.45c40.81-14.3,53.11-86.84,36.09-137.36-2.22-6.6-23.03-64.41-62.08-68.51-18.7-1.9-41.14,8.52-60.02,27.87-24.34,24.95-37.13,58.83-33.38,88.41,3.71,29.3,24.23,58.76,53.55,76.89,13.07,8.09,26.63,13.11,39.22,14.81,9.66,1.3,18.75.63,26.62-2.12Z"/>
  </g>
  <g>
    <path class="cls-1" d="m458.87,690.22h0c12.13,38.66,14.47,86.05,6.26,126.75-9.55,47.32-31.85,79.83-62.81,91.54-26.58,10.05-60.37,4.67-92.71-14.8-47.37-28.5-80.89-78.47-87.46-130.41-6.54-51.69,14.38-110.2,53.3-149.07,26.57-26.54,57.77-39.72,85.58-36.17l.45.06c61.82,8.31,91.96,94.81,97.39,112.1Zm-65.35,195.01c49.74-18.81,63.44-117.99,41.61-187.56h0c-2.84-9.05-29.07-88.46-76.96-94.89-.1-.01-.2-.03-.3-.03-20.12-2.57-43.75,8.03-64.84,29.09-33.67,33.63-51.81,84.01-46.19,128.34,5.55,43.88,35.23,87.92,75.6,112.22,14.2,8.54,28.43,13.79,41.61,15.57,10.73,1.44,20.76.57,29.47-2.72Z"/>
    <path class="cls-2" d="m446.59,696.69h0c10.74,34.25,12.82,76.21,5.54,112.25-8.5,42.15-28.46,71.14-56.19,81.63-23.82,9.01-54.01,4.22-82.86-13.13-42.06-25.31-71.81-69.69-77.66-115.83-5.81-45.91,12.76-97.87,47.31-132.38,23.71-23.68,51.61-35.44,76.53-32.25l.41.05c55.26,7.43,82.07,84.28,86.9,99.65Zm-59.45,170.61c35.18-13.31,58.95-89.05,35.71-163.15-8.96-28.55-33.03-77.95-66.49-82.45-.08-.01-.16-.02-.24-.03-17.24-2.21-37.57,6.97-55.8,25.17-29.31,29.27-45.09,73.1-40.21,111.65,4.83,38.16,30.66,76.49,65.79,97.63,12.32,7.41,24.65,11.97,36.03,13.5,9.19,1.24,17.76.49,25.2-2.32Z"/>
  </g>
  <g>
    <path class="cls-1" d="m1336.3,897.54c12.13,38.67,14.47,86.05,6.26,126.75-9.54,47.33-31.85,79.83-62.81,91.54-26.58,10.05-60.36,4.67-92.71-14.8-47.37-28.5-80.89-78.47-87.46-130.42-6.54-51.68,14.38-110.19,53.3-149.06,26.58-26.54,57.77-39.73,85.58-36.18l.46.06c61.81,8.31,91.96,94.81,97.38,112.1Zm-65.35,195.01c49.74-18.81,63.43-117.99,41.61-187.56h0c-2.84-9.05-29.08-88.46-76.96-94.89-.1-.01-.2-.03-.3-.03-20.12-2.57-43.76,8.03-64.84,29.09-33.67,33.63-51.81,84.01-46.19,128.33,5.55,43.88,35.23,87.93,75.6,112.22,14.2,8.54,28.44,13.8,41.61,15.57,10.73,1.44,20.76.57,29.47-2.72Z"/>
    <path class="cls-2" d="m1324.03,904.02h0c10.74,34.25,12.82,76.21,5.54,112.25-8.5,42.15-28.46,71.14-56.19,81.63-23.81,9.02-54.02,4.22-82.86-13.14-42.06-25.3-71.81-69.68-77.65-115.81-5.81-45.91,12.76-97.88,47.31-132.39,23.71-23.68,51.6-35.43,76.53-32.24l.41.05c55.31,7.43,82.09,84.29,86.9,99.66Zm-59.45,170.6c35.18-13.3,58.95-89.05,35.7-163.15h0c-8.94-28.55-32.99-77.94-66.48-82.44-.08-.01-.16-.02-.24-.03-17.24-2.21-37.57,6.97-55.79,25.16-29.31,29.27-45.09,73.1-40.21,111.65,4.83,38.16,30.65,76.48,65.78,97.62,12.32,7.41,24.66,11.97,36.04,13.5,9.19,1.23,17.76.49,25.2-2.32Z"/>
  </g>
  <g>
    <path class="cls-1" d="m1191.65,1292.57h0c25.64,16.33,49.41,42.72,63.6,70.58,16.56,32.55,18.3,62.96,4.88,85.64-12.16,20.56-36.98,34.88-68.1,39.27-40.79,5.76-83.04-6.62-110.28-32.31-27.52-25.96-42.28-67.83-38.53-109.3,2.83-31.2,15.79-56.46,35.57-69.3,2.19-1.42,4.42-2.67,6.7-3.76,41.2-19.76,95.25,12.22,106.16,19.17Zm49.36,144.92c20.74-35.07-16.58-97.71-61.29-126.19h0c-5.82-3.71-57.7-35.64-88.84-15.51-13.82,8.97-23.37,28.66-25.54,52.67-3.15,34.83,8.98,69.75,31.65,91.13,22.44,21.17,57.67,31.32,91.94,26.48,10.42-1.47,19.98-4.31,28.17-8.24,10.7-5.13,19.07-12.13,23.93-20.35Z"/>
    <path class="cls-2" d="m1187.28,1302.45h0c43.38,27.63,87.45,93.97,60.68,139.24-10.91,18.45-33.1,31.26-60.88,35.19-36.27,5.12-73.87-5.91-98.11-28.77-24.5-23.11-37.64-60.37-34.31-97.24,2.52-27.86,14.14-50.45,31.89-61.97,1.97-1.28,3.99-2.4,6.04-3.39,36.87-17.69,84.98,10.75,94.69,16.93Zm41.56,127.94c14.62-24.72-5.98-78.95-53.49-109.21-18.33-11.67-55.15-27.66-76.71-13.65-11.82,7.67-19.99,24.62-21.86,45.34-2.73,30.24,7.77,60.54,27.43,79.08,19.45,18.35,50.02,27.14,79.77,22.94,9.04-1.28,17.33-3.74,24.41-7.13,9.17-4.4,16.31-10.37,20.46-17.37Z"/>
  </g>
  <g>
    <path class="cls-1" d="m1009.34,1272.36c35.61,2.83,53.71,47.82,56.98,56.81h0c13.78,37.92,9.12,100.39-29.53,115.92-15.93,6.39-36.17,3.78-55.52-7.17-25.04-14.16-43.18-39.05-47.35-64.96-4.21-26.18,5.42-55.7,25.14-77.07,7.36-7.97,15.5-14.1,23.88-18.12s17.77-6.1,26.41-5.41Zm36.1,64.39h0c-5.45-15.01-19.56-40.8-37.86-42.25-9.93-.8-21.97,5.35-32.22,16.45-11.91,12.91-23.3,35.05-19.53,58.48,3.13,19.41,17.06,38.25,36.36,49.16,13.24,7.49,26.82,9.69,36.31,5.88.46-.18.9-.38,1.34-.59,21.81-10.46,26.92-55.97,15.59-87.13Z"/>
    <path class="cls-2" d="m1008.67,1281.8c32.15,2.55,48.35,42.81,51.27,50.85h0c12.31,33.87,8.11,89.58-26.74,103.67-14.4,5.78-32.62,3.45-50-6.38-22.37-12.65-38.58-34.91-42.31-58.09-3.77-23.43,4.83-49.84,22.45-68.92,6.59-7.13,13.89-12.62,21.41-16.23,7.91-3.8,16.08-5.52,23.92-4.89Zm30.4,58.44h0c-4.69-12.91-16.74-35.07-32.16-36.3-8.33-.66-18.52,4.59-27.25,14.05-10.27,11.12-20.08,30.19-16.84,50.33,2.68,16.68,14.68,32.88,31.32,42.29,11.31,6.39,22.82,8.3,30.8,5.1.38-.15.76-.32,1.13-.49,18.58-8.91,22.78-48.09,13.01-74.98Z"/>
  </g>
  <g>
    <path class="cls-1" d="m1484.16,1197.69c61.99,41.8,128.94,135.92,97.14,194.24-11.47,21.03-35.11,35.38-66.58,40.38-52.27,8.3-111.28-10.14-150.35-47-39.48-37.25-61.24-95.63-55.45-148.73,3.43-31.45,16.5-55.45,36.79-67.58,1.59-.95,3.2-1.82,4.85-2.61,48.4-23.22,119.45,21.77,133.6,31.31Zm77.64,183.61c18.87-34.6-17.1-116-90.06-165.19h0c-28.2-19.02-84.06-46.27-114.63-28.06-14.18,8.48-23.45,26.57-26.11,50.94-4.15,38.04,9.27,93.05,48.61,130.17,38.94,36.73,94.16,47.17,131.62,41.22,10.13-1.61,19.14-4.32,26.8-7.99,10.87-5.21,19.01-12.37,23.77-21.09Z"/>
    <path class="cls-2" d="m1479.66,1209.44h0c54.95,37.06,114.21,120.66,85.87,172.63-10.3,18.88-31.44,31.73-59.52,36.19-46.38,7.38-98.74-8.99-133.4-41.69-35.02-33.05-54.33-84.85-49.19-131.96,3.07-28.09,14.78-49.56,33.01-60.45,1.43-.86,2.88-1.64,4.36-2.35,43.25-20.75,106.3,19.16,118.86,27.63Zm66.38,161.99c19.42-35.62-27.09-108.71-78.79-143.57h0c-24.54-16.56-73.11-40.35-99.42-24.64-11.93,7.13-20.06,23.1-22.32,43.81-3.62,33.14,8.08,81.06,42.35,113.4,33.93,32,82.03,41.09,114.67,35.91,8.79-1.4,16.59-3.74,23.21-6.92,9.3-4.46,16.26-10.57,20.3-17.98Z"/>
  </g>
  <g>
    <path class="cls-1" d="m1280.94,1144.52h0c49.99,34.89,105.72,110.99,82.91,155.65-7.73,15.14-23.99,25.57-45.79,29.32-34.48,5.96-86.8-4.56-125.95-41.51-39.57-37.34-52.91-89.38-48.58-124.4,2.69-21.77,12.25-38.28,26.92-46.49.82-.46,1.65-.89,2.5-1.29,36.72-17.61,91.71,17.35,107.98,28.71Zm63.13,145.55c15.09-29.54-29.09-94.71-75.84-127.34h0c-20.59-14.38-65.2-38.35-86.92-26.25-8.34,4.67-13.93,15.27-15.73,29.84-3.53,28.51,8.05,73.69,41.78,105.52,33.39,31.5,78.83,40.63,106.92,35.77,5.91-1.02,11.15-2.63,15.6-4.77,6.64-3.18,11.5-7.53,14.19-12.78Z"/>
    <path class="cls-2" d="m1277.94,1153.35c23.14,16.15,45.79,40.4,60.59,64.87,17.63,29.16,22.17,55.36,12.77,73.76-7,13.7-21.65,23.11-41.24,26.5-30.66,5.3-77.17-4.04-111.94-36.86-35.15-33.17-46.99-79.43-43.14-110.57,2.42-19.59,11.07-34.47,24.35-41.91.75-.42,1.5-.81,2.26-1.18,32.95-15.8,81.87,15.27,96.34,25.37Zm53.59,128.53c11.94-23.39-21.51-79.07-66.3-110.32h0c-17.88-12.48-56.64-33.46-75.04-23.02-6.96,3.9-11.63,12.86-13.17,25.25-3.06,24.75,7.01,64.01,36.35,91.69,29.04,27.4,68.52,35.34,92.92,31.12,5.09-.88,9.58-2.26,13.38-4.08,5.57-2.67,9.63-6.29,11.86-10.64Z"/>
  </g>
  <g>
    <path class="cls-1" d="m1308.64,969.98c29.16-12.25,56.48-12.47,76.94-.62,48.76,28.26,43.61,117.4,42.08,134.98h0c-6.47,74.5-56.29,178.71-122.72,179.17-23.96.18-47.97-13.53-67.6-38.62-32.63-41.67-45.13-102.23-31.86-154.28,12.78-50.08,50.1-95.4,96.15-117.49,2.31-1.11,4.66-2.17,7.01-3.15Zm96.89,132.45c2.94-33.88-.29-96-31.09-113.85-14.29-8.28-34.6-7.61-57.2,1.88-35.32,14.8-76.87,53.25-90.24,105.66-13.23,51.87,4.44,105.23,27.82,135.1,15.29,19.53,33.03,30.22,49.95,30.1,5.93-.05,12.17-1.68,18.54-4.74,35.98-17.26,75.74-79.68,82.22-154.15Z"/>
    <path class="cls-2" d="m1308.65,986.56c26.05-10.94,50.51-11.11,68.87-.47,43.57,25.25,39.03,104.4,37.68,120.01h0c-5.74,66.03-50.09,158.4-109.28,158.85-21.51.16-43.01-12.09-60.54-34.49-28.94-36.97-40.04-90.7-28.26-136.87,11.34-44.43,44.45-84.64,85.31-104.24,2.05-.98,4.13-1.92,6.22-2.8Zm84.43,117.63h0c2.56-29.5-.19-83.52-26.69-98.89-12.03-6.97-29.93-6.34-49.13,1.73-30.64,12.92-66.96,46.39-78.61,92.06-11.53,45.19,3.86,91.67,24.23,117.69,13.2,16.85,28.43,26.08,42.89,25.97,5.51-.04,11.03-1.48,16.47-4.09,34.66-16.62,66.18-80.79,70.84-134.47Z"/>
  </g>
  <g>
    <path class="cls-1" d="m1480.43,840.11c11.61-3.81,22.48-2.23,30.61,4.43,24.48,20.09,17.63,84.78,13.54,111.66h0c-9.35,61.48-44.45,153.89-83.43,160.25-10.4,1.69-20.7-2.39-29.02-11.47-23.62-25.83-31-89.61-16.8-145.21,13.42-52.5,46.96-101.86,78.53-117,2.2-1.05,4.39-1.94,6.56-2.65Zm22.19,112.75c6.67-43.85,4.23-83.04-5.67-91.15-.78-.65-3.18-2.61-9.6-.5-23.07,7.63-56.99,51.21-70.49,104.05-13.38,52.35-4.77,106.76,11.67,124.72,4.79,5.24,8.01,4.71,9.06,4.54,1.05-.17,2.15-.53,3.27-1.07,19.9-9.54,51.8-75.08,61.76-140.59Z"/>
    <path class="cls-2" d="m1477.12,855.1c10.66-3.5,20.67-2.03,28.18,4.14,22.13,18.15,16.03,75.6,12.38,99.47h0c-7.07,46.48-36.22,135.82-74.49,142.09-9.61,1.56-19.1-2.17-26.73-10.51-21.05-23.02-27.68-79.67-15.09-128.98,11.89-46.54,41.72-90.32,69.86-103.82,1.97-.95,3.93-1.74,5.88-2.38Zm18.61,100.25h0c5.73-37.5,3.75-72.17-4.52-78.94-.55-.45-2.23-1.82-7.18-.21-17.34,5.77-48.3,40.36-61.14,90.59-11.66,45.64-4.27,92.95,9.96,108.49,3.72,4.07,6.02,3.7,6.77,3.58.89-.14,1.81-.45,2.76-.9,17.09-8.2,44.64-65.39,53.35-122.61Z"/>
  </g>
  <g>
    <path class="cls-1" d="m1531.26,1115.47h0c28.43,17,58.86,41.64,81.4,65.9,27.63,29.74,39.53,53.95,35.37,71.95-2.36,10.27-10.02,18.25-21.59,22.52-32.85,12.1-94.68-5.21-140.77-39.4-46.56-34.53-81.06-89.01-78.56-124.04.87-12.19,6.44-21.66,15.68-26.65.4-.22.81-.43,1.22-.62,28.28-13.57,84.26,16.58,107.26,30.34Zm95.13,132.87c4.43-19.22-46.43-77.85-106.53-113.81-37.64-22.51-74.42-35.04-86.13-29.43-.13.06-.26.12-.39.2-.89.48-3.61,1.95-4.09,8.7-1.73,24.29,25.84,72.13,69.64,104.63,43.4,32.19,97.02,44.8,119.87,36.39.76-.27,1.44-.56,2.05-.86,4.76-2.28,5.36-4.89,5.58-5.81Z"/>
    <path class="cls-2" d="m1530.97,1122.79h0c40.34,24.13,112.07,84.9,103.34,122.72-2.19,9.49-9.24,16.83-19.84,20.77-29.27,10.78-84.22-4.52-125.1-34.84-41.29-30.62-71.88-79.06-69.65-110.29.8-11.2,5.94-19.91,14.49-24.53.36-.19.74-.38,1.11-.56,25.48-12.22,75.22,14.52,95.64,26.74Zm81.7,117.72c3.81-16.49-40.65-67.29-93.1-98.66h0c-32.75-19.58-64.57-30.61-74.47-25.86-.11.05-.21.11-.31.16-.63.34-2.54,1.37-2.91,6.57-1.3,18.25,19.08,59.99,60.73,90.87,37.84,28.06,84.42,39.12,104.2,31.83.64-.23,1.2-.47,1.71-.72,3.59-1.72,4.02-3.55,4.17-4.2Z"/>
  </g>
  <g>
    <path class="cls-1" d="m1330.51,1248.71c11.61-3.81,22.48-2.23,30.61,4.43,24.49,20.09,17.63,84.77,13.54,111.65h0c-4.98,32.75-16.28,70.24-30.21,100.29-17.07,36.82-34.98,56.99-53.22,59.97-10.4,1.69-20.7-2.39-29.02-11.47-23.62-25.83-31-89.62-16.8-145.22,13.41-52.5,46.95-101.85,78.53-117,2.2-1.06,4.39-1.94,6.56-2.66Zm22.19,112.75c6.67-43.84,4.23-83.02-5.67-91.14-.78-.65-3.18-2.61-9.6-.5-23.18,7.67-57,51.21-70.5,104.05-13.38,52.36-4.77,106.76,11.67,124.73,4.79,5.24,8.01,4.72,9.07,4.54,1.05-.17,2.14-.53,3.27-1.07,19.89-9.54,51.79-75.09,61.76-140.6Z"/>
    <path class="cls-2" d="m1327.2,1263.7c10.66-3.5,20.67-2.03,28.18,4.14,22.07,18.1,16.01,75.58,12.39,99.46h0c-7.07,46.48-36.19,135.82-74.5,142.1-9.61,1.56-19.1-2.17-26.72-10.51-21.06-23.02-27.68-79.67-15.08-128.98,11.89-46.54,41.72-90.33,69.85-103.82,1.97-.95,3.94-1.74,5.88-2.38Zm18.62,100.26c5.79-38.14,3.85-72.09-4.52-78.95-.55-.45-2.23-1.83-7.18-.2-17.38,5.76-48.3,40.36-61.14,90.6-11.66,45.64-4.27,92.95,9.95,108.49,3.73,4.07,6.03,3.71,6.78,3.58.89-.14,1.8-.44,2.76-.9,17.08-8.19,44.64-65.39,53.35-122.61Z"/>
  </g>
  <g>
    <path class="cls-1" d="m1107.03,1067.88c11.61-3.81,22.48-2.23,30.61,4.43,24.51,20.1,17.63,84.78,13.54,111.66h0c-4.98,32.74-16.27,70.23-30.2,100.28-17.07,36.82-34.98,56.99-53.22,59.97-10.4,1.69-20.7-2.39-29.02-11.47-23.62-25.83-31-89.62-16.8-145.22,13.41-52.5,46.95-101.85,78.53-117,2.2-1.06,4.39-1.94,6.56-2.65Zm22.19,112.75h0c5.68-37.28,5.62-81.89-5.67-91.15-.78-.65-3.18-2.61-9.6-.5-23.12,7.62-56.99,51.21-70.49,104.04-13.38,52.36-4.77,106.76,11.67,124.73,4.79,5.24,8.01,4.72,9.07,4.54,1.05-.17,2.14-.53,3.27-1.07,19.89-9.54,51.79-75.09,61.76-140.6Z"/>
    <path class="cls-2" d="m1103.72,1082.88c10.66-3.5,20.67-2.03,28.19,4.13,22.08,18.12,16.02,75.59,12.38,99.46-7.07,46.48-36.19,135.84-74.5,142.1-9.61,1.56-19.1-2.17-26.72-10.51-21.06-23.02-27.68-79.68-15.09-128.98,11.89-46.54,41.72-90.33,69.85-103.82,1.97-.95,3.93-1.74,5.88-2.38Zm18.61,100.25h0c5.71-37.52,3.73-72.19-4.51-78.95-.55-.45-2.23-1.83-7.18-.2-17.38,5.64-48.31,40.35-61.14,90.59-11.66,45.64-4.27,92.95,9.95,108.5,3.72,4.07,6.02,3.7,6.77,3.58.89-.14,1.8-.44,2.76-.9,17.08-8.19,44.64-65.39,53.34-122.61Z"/>
  </g>
  <g>
    <path class="cls-1" d="m1644.66,941.49h0c27.25,21.36,50.75,54.2,62.87,87.83,14.02,38.9,11.44,73.81-7.29,98.29-17.83,23.31-50.15,37.28-88.66,38.32-46.87,1.27-90.81-16.67-117.55-47.97-27.01-31.62-37.73-78.26-28.68-124.78,7.34-37.76,26.3-67.08,51.99-80.44.7-.37,1.4-.71,2.11-1.05,51.45-24.68,113.21,20.4,125.21,29.81Zm37.94,172.64c30.37-39.7-3.42-117.35-51.64-155.17h0c-6.23-4.89-61.43-46.67-101.94-27.24-.47.23-.95.47-1.43.71-19.36,10.07-34.48,34.36-40.44,64.98-7.65,39.34,1.45,80,23.76,106.12,22.1,25.87,60.44,41.27,100.07,40.2,17.66-.47,33.88-4.21,47.1-10.55,10.21-4.9,18.62-11.35,24.52-19.06Z"/>
    <path class="cls-2" d="m1638.01,952.59h0c24.16,18.94,44.99,48.05,55.74,77.86,12.5,34.67,10.15,65.82-6.61,87.74-15.94,20.83-44.75,33.3-79.03,34.23-41.63,1.12-80.68-14.83-104.45-42.67-24.02-28.12-33.56-69.57-25.53-110.89,6.54-33.61,23.47-59.75,46.44-71.7.63-.33,1.26-.64,1.9-.95,46-22.06,100.88,18.02,111.55,26.38Zm31.49,152.11c26.27-34.35-3.25-101.74-45.2-134.64h0c-5.47-4.29-54.53-41.56-89.49-23.2-16.68,8.67-29.72,29.7-34.88,56.23-6.65,34.21,1.24,69.56,20.61,92.23,19.18,22.46,52.5,35.83,86.97,34.9,15.37-.41,29.45-3.65,40.9-9.14,8.79-4.22,16.02-9.76,21.09-16.38Z"/>
  </g>
  <g>
    <path class="cls-1" d="m1529.89,808.45h0c27.25,21.36,50.74,54.2,62.87,87.83,14.02,38.9,11.44,73.81-7.29,98.29-17.84,23.32-50.15,37.29-88.67,38.32-46.86,1.26-90.81-16.67-117.54-47.98-27.01-31.62-37.73-78.26-28.68-124.78,7.34-37.76,26.3-67.08,51.99-80.44.7-.37,1.4-.71,2.11-1.05,51.45-24.68,113.21,20.4,125.21,29.81Zm37.95,172.64c30.36-39.7-3.43-117.35-51.65-155.16h0c-6.23-4.89-61.43-46.67-101.94-27.24-.47.23-.95.47-1.43.71-19.36,10.07-34.48,34.36-40.44,64.98-7.65,39.34,1.45,80,23.76,106.12,22.1,25.87,60.44,41.27,100.06,40.2,17.67-.48,33.89-4.21,47.1-10.55,10.21-4.9,18.63-11.35,24.53-19.06Z"/>
    <path class="cls-2" d="m1523.24,819.55h0c24.16,18.94,44.99,48.05,55.74,77.86,12.5,34.67,10.15,65.82-6.61,87.74-15.94,20.83-44.74,33.31-79.03,34.23-41.63,1.12-80.68-14.83-104.45-42.67-24.02-28.12-33.56-69.57-25.53-110.89,6.54-33.61,23.47-59.75,46.44-71.7.63-.33,1.26-.64,1.9-.95,46-22.06,100.88,18.02,111.55,26.38Zm31.49,152.11c26.27-34.35-3.25-101.74-45.2-134.64h0c-5.47-4.29-54.35-41.53-89.49-23.2-16.68,8.67-29.72,29.7-34.88,56.23-6.65,34.21,1.24,69.56,20.61,92.23,19.18,22.46,52.5,35.83,86.97,34.9,15.37-.41,29.45-3.65,40.9-9.14,8.79-4.22,16.02-9.76,21.09-16.38Z"/>
  </g>
  <g>
    <path class="cls-1" d="m1394.37,1018.22h0c21.22,15.99,37.02,42.72,40.26,68.11,2.24,17.58-1.66,33.26-11.27,45.35-12.76,16.05-35.85,25.89-61.78,26.35-26.93.48-51.81-9.53-66.54-26.77-14.87-17.41-20.8-43.79-15.87-70.56,4.71-25.54,18.13-46.58,35.92-56.27.81-.44,1.62-.86,2.43-1.25,33.03-15.84,69.69,9.64,76.84,15.04Zm11.6,99.65c7.33-9.22,7.65-20.71,6.62-28.73-2.48-19.44-15.17-40.82-31.59-53.18h0c-3.27-2.46-31.96-23.26-53.94-12.72-.45.22-.89.44-1.33.68-11.79,6.43-21.26,22.07-24.71,40.8-3.73,20.26.34,39.75,10.91,52.12,10.47,12.25,28.89,19.35,49.26,18.99,11.05-.2,21.44-2.58,29.9-6.64,6.16-2.95,11.29-6.8,14.89-11.32Z"/>
    <path class="cls-2" d="m1390.14,1024.85c18.94,14.27,33.04,38.15,35.93,60.82,2.02,15.83-1.51,29.97-10.19,40.9-11.45,14.41-32.16,23.26-55.38,23.68-24.44.43-46.15-8.33-59.56-24.02-13.34-15.62-18.67-39.24-14.26-63.19,4.21-22.86,16.28-41.71,32.27-50.43.73-.4,1.47-.78,2.21-1.13,29.76-14.28,62.57,8.54,68.98,13.37Zm8.35,87.91c4.95-6.23,6.81-14.39,5.55-24.28-2.14-16.77-13.1-35.21-27.27-45.89l6.68-8.87-6.68,8.87c-1.11-.84-27.1-20.15-46.11-11.04-.36.17-.72.36-1.08.55-10.03,5.47-18.1,18.87-21.07,34.96-3.21,17.43.26,34.16,9.3,44.74,8.95,10.48,24.76,16.55,42.28,16.24,9.54-.17,18.5-2.22,25.77-5.7,5.23-2.51,9.58-5.76,12.62-9.59Z"/>
  </g>
  <g>
    <path class="cls-1" d="m957.51,1137.74c28.19-13.35,62.95,12.7,72.93,21h0c15.48,12.88,29.46,31.91,37.38,50.88,9.59,22.97,9.41,43.31-.51,57.26-8.33,11.74-23.15,18.67-41.72,19.49-27.59,1.23-56.8-11.3-74.4-31.91-17.79-20.83-25.51-51.92-19.67-79.2,3.86-18.01,13.02-31.3,25.8-37.43l.17-.08Zm91.7,116.28c11.02-15.51-5.93-55.71-32.97-78.21h0c-10.95-9.1-35.33-24.58-49.23-18l-.07.03c-6.36,3.05-11.34,11.08-13.69,22.06-3.64,17.01-.47,42.2,14.84,60.13,13.32,15.6,35.51,25.08,56.52,24.14,6.42-.29,12.07-1.59,16.53-3.73,3.47-1.66,6.22-3.83,8.07-6.43Z"/>
    <path class="cls-2" d="m961.85,1145.73c25.54-12.09,56.66,11.22,65.59,18.65h0c26.08,21.7,52.72,68.7,32.67,96.93-7.58,10.67-20.98,16.96-37.73,17.7-24.67,1.1-50.78-10.1-66.52-28.54-15.91-18.63-22.81-46.43-17.59-70.81,3.48-16.26,11.8-28.28,23.43-33.85l.15-.07Zm80.16,102.72c9.34-13.16-5.44-47.6-28.77-67h0c-10.92-9.1-31.09-20.77-41.88-15.66-5.26,2.54-9.42,9.36-11.37,18.51-3.13,14.64-.4,36.32,12.77,51.75,13.03,15.27,33.82,21.43,48.64,20.77,5.48-.24,10.28-1.34,14.03-3.14,2.84-1.36,5.09-3.12,6.58-5.23Z"/>
  </g>
  <g>
    <path class="cls-1" d="m923.65,1295.46h0c27.24,21.36,50.75,54.2,62.87,87.83,14.03,38.9,11.44,73.81-7.29,98.29-17.83,23.31-50.15,37.28-88.67,38.32-46.86,1.26-90.81-16.67-117.54-47.98-27-31.62-37.72-78.27-28.68-124.78,7.34-37.76,26.29-67.08,51.99-80.44.7-.37,1.41-.72,2.11-1.06,51.48-24.69,113.22,20.41,125.21,29.82Zm37.94,172.63c30.36-39.7-3.43-117.35-51.65-155.16h0c-6.23-4.89-61.41-46.69-101.94-27.25-.47.23-.95.47-1.43.71-19.37,10.07-34.48,34.36-40.44,64.98-7.65,39.34,1.45,80,23.76,106.12,22.09,25.87,60.43,41.28,100.06,40.2,17.67-.48,33.89-4.2,47.11-10.54,10.21-4.9,18.62-11.35,24.53-19.06Z"/>
    <path class="cls-2" d="m916.99,1306.54h0c24.15,18.94,44.99,48.06,55.74,77.87,12.5,34.67,10.15,65.82-6.61,87.74-15.93,20.84-44.74,33.31-79.04,34.23-41.62,1.12-80.67-14.83-104.45-42.67-24.02-28.12-33.56-69.58-25.52-110.9,6.54-33.61,23.46-59.75,46.43-71.7.63-.33,1.26-.64,1.9-.95,45.98-22.06,100.88,18.01,111.55,26.37Zm31.49,152.12c26.27-34.35-3.25-101.74-45.2-134.64-5.48-4.3-54.6-41.21-89.49-23.2-16.68,8.67-29.72,29.7-34.88,56.23-6.65,34.21,1.24,69.56,20.61,92.23,19.18,22.46,52.5,35.83,86.96,34.9,15.37-.41,29.46-3.65,40.91-9.14,8.79-4.21,16.02-9.76,21.09-16.38Z"/>
  </g>
  <g>
    <path class="cls-1" d="m926.51,1101.89h0c31.36,25.67,59.31,64,74.78,102.52,17.98,44.8,17.18,84.22-2.28,110.99-16.71,22.99-47.91,37.03-85.62,38.5-55.24,2.17-110.68-21.22-144.68-61.03-33.83-39.62-48.45-100.02-37.24-153.87,7.65-36.77,26.5-64.91,51.7-77.2l.41-.2c56.24-26.98,128.91,28.8,142.93,40.28Zm52.37,198.89c31.26-43.02-11.71-133.45-68.14-179.64h0c-7.34-6.01-72.84-58-116.4-37.1-.09.04-.18.09-.27.13-18.23,8.89-32.17,30.72-38.24,59.9-9.7,46.6,2.79,98.66,31.8,132.64,28.72,33.63,77.7,54.17,124.78,52.33,16.55-.65,31.34-4.07,43.33-9.82,9.76-4.68,17.66-10.91,23.14-18.45Z"/>
    <path class="cls-2" d="m919.8,1114.03h0c27.77,22.74,52.53,56.68,66.23,90.8,16.02,39.91,15.24,75.09-2.18,99.08-14.97,20.6-42.84,33.17-76.48,34.49-49.05,1.92-98.28-18.85-128.48-54.22-30.05-35.19-43.03-88.82-33.08-136.63,6.83-32.81,23.7-57.94,46.29-68.96l.37-.18c50.27-24.11,114.86,25.43,127.33,35.62Zm43.92,175.25c22.11-30.43.42-106.8-59.67-155.99-23.16-18.95-70.39-47.04-100.82-32.44-.07.03-.14.07-.21.11-15.62,7.61-27.59,26.44-32.84,51.66-8.44,40.55,2.41,85.85,27.65,115.4,24.98,29.25,67.6,47.12,108.58,45.51,14.37-.56,27.18-3.52,37.53-8.48,8.36-4.01,15.12-9.33,19.79-15.76Z"/>
  </g>
  <g>
    <path class="cls-1" d="m1773.81,793.74c31.36,25.67,59.31,64,74.78,102.52,17.99,44.8,17.18,84.22-2.28,110.99-16.71,22.98-47.9,37.02-85.62,38.5-55.24,2.17-110.68-21.22-144.68-61.04-33.83-39.62-48.45-100.01-37.24-153.86,7.65-36.78,26.5-64.91,51.7-77.2l.42-.2c56.24-26.97,128.9,28.8,142.92,40.28Zm52.38,198.89c31.26-43.02-11.71-133.44-68.14-179.64h0c-7.34-6-72.85-58-116.4-37.1-.09.04-.18.09-.27.13-18.23,8.89-32.17,30.72-38.25,59.9-9.7,46.6,2.79,98.66,31.8,132.63,28.72,33.64,77.7,54.18,124.78,52.34,16.55-.65,31.34-4.07,43.33-9.82,9.76-4.68,17.66-10.91,23.14-18.45Z"/>
    <path class="cls-2" d="m1767.11,805.88h0c27.77,22.74,52.53,56.68,66.23,90.79,16.02,39.91,15.25,75.09-2.19,99.07-14.96,20.6-42.84,33.17-76.48,34.48-49.04,1.92-98.27-18.85-128.46-54.21-30.05-35.2-43.04-88.83-33.09-136.64,6.83-32.8,23.7-57.94,46.29-68.95l.37-.18c50.32-24.14,114.88,25.43,127.33,35.63Zm43.92,175.24c22.11-30.43.42-106.79-59.68-155.99h0c-23.14-18.95-70.34-47.05-100.81-32.44-.07.03-.15.07-.21.11-15.62,7.61-27.59,26.44-32.84,51.65-8.44,40.55,2.42,85.85,27.65,115.41,24.98,29.25,67.59,47.12,108.56,45.51,14.37-.56,27.18-3.52,37.54-8.49,8.36-4.01,15.12-9.33,19.79-15.77Z"/>
  </g>
  <g>
    <path class="cls-1" d="m363.81,438.58c-2.39.84-4.85,1.53-7.4,2.07-23.07,4.87-50.08-3.87-74.11-23.98-31.93-26.72-51.03-66.8-49.87-104.61,1.16-37.42,22.35-76.02,55.3-100.73,25.14-18.86,52.83-26.23,75.96-20.26,25.51,6.59,45.75,29.36,57,64.1,9.62,29.75,11.41,65.23,4.78,94.89h0c-2.82,12.62-18.52,73.43-61.66,88.52Zm-36.99-223.53c-8.57,3-17.35,7.73-25.77,14.05-27.69,20.76-45.48,52.81-46.43,83.65-.96,31.15,15.1,64.44,41.92,86.89,18.49,15.48,39.15,22.68,55.27,19.28,36.27-7.73,50.47-66.96,51.98-73.7h0c11.57-51.75-6.22-122.45-45.66-132.65-9.24-2.39-20.1-1.44-31.31,2.48Z"/>
    <path class="cls-2" d="m360.28,424.99c-2.15.75-4.37,1.38-6.67,1.86-20.7,4.37-44.88-3.42-66.33-21.38-28.39-23.76-45.38-59.43-44.34-93.09,1.03-33.31,19.88-67.66,49.18-89.64,22.45-16.83,47.21-23.42,67.96-18.05,50.92,13.17,66.54,91.27,55.32,141.46h0c-2.51,11.24-16.52,65.34-55.12,78.84Zm-32.51-196.66c-7.41,2.59-15.02,6.7-22.32,12.18-24.04,18.03-39.48,45.83-40.31,72.56-.84,27,13.11,55.88,36.4,75.37,15.95,13.35,33.71,19.59,47.49,16.68,25.16-5.3,39.95-42.62,44.7-63.82,12.29-54.97-11.4-107.92-39.2-115.11-7.88-2.03-17.15-1.22-26.75,2.14Z"/>
  </g>
  <g>
    <path class="cls-1" d="m288.09,507.88c-8.77,3.07-18.87,4.48-29.71,4.03-29.04-1.21-56.71-15.33-72.21-36.84-15.34-21.3-20.06-51.74-12.32-79.44,5.98-21.41,18.47-37.55,34.27-44.27,38.35-16.29,85.74,24.67,102.75,61.26h0c4.03,8.68,22.97,53.32-.25,80.46-5.64,6.58-13.36,11.6-22.53,14.81Zm-69.91-136.61c-.46.16-.92.34-1.37.53-9.41,4-17.47,15.14-21.56,29.8-5.97,21.36-2.54,44.54,8.95,60.49,13.87,19.26,37.56,26.9,55.11,27.64,15.09.63,27.96-3.51,34.43-11.09,11.94-13.95,3.72-42.17-3.01-56.65h0c-13.98-30.06-49.72-58.7-72.55-50.71Z"/>
    <path class="cls-2" d="m283.08,500.27c-7.88,2.76-16.92,4.02-26.62,3.62-25.95-1.08-50.69-13.72-64.55-32.97-13.72-19.05-17.95-46.26-11.04-71.01,5.37-19.24,16.64-33.75,30.91-39.82,34.63-14.62,76.93,21.88,92.12,54.55h0c3.61,7.76,20.55,47.71-.42,72.21-5.11,5.98-12.11,10.52-20.39,13.42Zm-61.47-120.19c-.39.14-.77.29-1.15.45-7.91,3.37-14.72,12.84-18.21,25.35-5.14,18.41-2.2,38.36,7.68,52.06,11.92,16.55,32.33,23.13,47.46,23.76,12.86.54,23.78-2.94,29.22-9.28,10.06-11.76,2.95-35.96-2.85-48.41h0c-12.06-25.94-42.69-50.73-62.14-43.93Z"/>
  </g>
  <g>
    <path class="cls-1" d="m627.11,327.26c-1.72.6-3.48,1.13-5.27,1.57-22.94,5.73-49.14-2.04-73.77-21.9-41.59-33.52-67.39-90.24-65.72-144.49,1.65-53.68,30.43-108.41,73.31-139.42,25.82-18.68,52.69-25.2,75.66-18.4,63.69,18.86,82.72,132.78,68.32,206.15-3.29,16.75-21.85,98.76-72.53,116.48Zm-33.81-299.49c-8.02,2.81-16.31,7.25-24.62,13.25-30.73,22.23-62.48,68.61-64.13,122.11-1.66,54.07,27.66,102.5,57.46,126.52,19.09,15.38,38.42,21.65,54.45,17.65,34.51-8.68,54.83-67.41,61.38-100.79h0c16.95-86.35-15.04-169.39-52.82-180.58-9.52-2.82-20.34-2.14-31.72,1.84Z"/>
    <path class="cls-2" d="m623.46,309.1c-1.55.54-3.13,1.02-4.75,1.42-20.6,5.15-44.05-1.78-66.05-19.52-36.91-29.74-59.8-80.06-58.32-128.19,1.47-47.63,27-96.18,65.06-123.7,23.04-16.66,47.09-22.49,67.71-16.38,56.75,16.81,73.8,117.85,61.04,182.89h0c-2.92,14.86-19.4,87.64-64.68,103.48Zm-29.73-263.48c-6.93,2.42-14.11,6.27-21.32,11.48-26.77,19.36-54.43,59.76-55.87,106.38-1.45,47.1,24.1,89.3,50.05,110.22,16.22,13.07,33.25,18.64,46.73,15.27,29.72-7.45,47.32-58.58,53.02-87.64h0c12.01-61.19-6.65-145.79-45.54-157.31-8.1-2.4-17.34-1.81-27.08,1.6Z"/>
  </g>
  <g>
    <path class="cls-1" d="m537.01,488.45c-.88.31-1.77.59-2.68.85-16.19,4.54-34.61-.41-51.89-13.93-27.79-21.74-55.08-68.02-53.41-122.4,1.65-53.8,31.28-98.19,59.91-118.31,18.09-12.73,36.96-16.81,53.13-11.55,47.69,15.53,61.93,108.77,51.16,168.77h0c-3.51,19.53-17.78,83.12-56.21,96.57Zm-20.88-243.26c-4.66,1.63-9.51,4.19-14.41,7.64-23.33,16.39-49.07,54.93-50.48,100.82-1.42,46.36,22.28,86.53,44.9,104.23,11.56,9.05,23,12.61,32.2,10.03,23.93-6.75,38.6-55.23,43.03-79.95h0c10.08-56.11-4.63-133.46-36.17-143.73-5.6-1.83-12.12-1.47-19.07.97Z"/>
    <path class="cls-2" d="m534.54,473.73c-.8.28-1.61.53-2.43.77-14.66,4.11-31.29-.32-46.83-12.49-24.71-19.34-48.97-60.47-47.49-108.77,1.46-47.79,27.81-87.24,53.27-105.13,16.27-11.43,33.29-15.1,47.92-10.34,19.65,6.4,34.93,28.16,43.02,61.26,6.79,27.78,7.87,60.95,2.88,88.72-3.12,17.37-15.84,73.91-50.33,85.98Zm-18.36-214.01c-3.98,1.39-8.14,3.59-12.36,6.56-20.26,14.24-42.62,47.73-43.84,87.64-1.24,40.32,19.34,75.23,38.98,90.6,9.83,7.69,19.47,10.74,27.15,8.59,20.41-5.6,33.05-47.82,36.9-69.28h0c9.65-53.75-5.95-116.81-30.92-124.94-4.65-1.52-10.09-1.21-15.91.83Z"/>
  </g>
  <g>
    <path class="cls-1" d="m728.87,498.68c-48.21,16.86-106.64,11.1-151.04-15.35-46.14-27.49-80.03-79.21-86.34-131.76-3.8-31.63,3.53-58.29,20.62-75.08,47.38-46.56,156.23-7.92,213.4,40.28h0c13.49,11.38,80.07,70.87,65.48,125.31-6.11,22.83-25.63,41.97-54.93,53.87-2.37.97-4.77,1.87-7.19,2.72Zm-184.73-216.07c-6.67,2.33-12.24,5.58-16.47,9.73-12.07,11.86-17.09,31.95-14.13,56.58,4.52,37.66,29.67,87.93,75.66,115.33,46.47,27.68,103.04,25.59,138.51,11.14,22.71-9.22,37.57-23.09,41.84-39.04,9.21-34.39-32.35-80.67-58.35-102.59-57.16-48.18-129.38-64.32-167.05-51.14Z"/>
    <path class="cls-2" d="m717.98,486.62c-42.78,14.96-94.61,9.85-134.01-13.61-40.93-24.39-71-70.27-76.6-116.89-3.39-28.25,3.19-52.1,18.53-67.17,42.24-41.46,138.86-7.35,189.53,35.37h0c11.98,10.1,71.07,62.96,58.03,111.6-5.49,20.5-22.93,37.65-49.11,48.29-2.1.85-4.23,1.66-6.38,2.41Zm-161.96-190.56c-5.7,1.99-10.62,4.87-14.55,8.73-10.32,10.13-14.59,27.42-12.04,48.67,3.94,32.8,25.85,76.59,65.92,100.46,40.49,24.12,89.84,22.19,120.67,9.71,19.29-7.84,32.42-20.03,36.02-33.46,7.92-29.59-28.27-69.79-50.9-88.88h0c-41.2-34.73-108.82-57.93-145.1-45.24Z"/>
  </g>
  <g>
    <path class="cls-1" d="m942.89,469.43c-33.06,11.56-91.65.28-138.22-27.44-49.31-29.35-89.11-79.74-90.61-114.71-.52-12.3,3.9-22.46,12.45-28.61,32.09-23.01,122.19,17.67,172.21,54.61h0c21.87,16.15,72.39,57.14,69.23,88.64-1.05,10.46-7.64,19.24-18.55,24.74-2.04,1.03-4.22,1.95-6.52,2.75Zm-200.35-154.26c-1.18.41-2.21.93-3.08,1.55-.87.62-3.52,2.52-3.21,9.61,1.04,24.32,33.35,68.94,79.78,96.58,46.87,27.9,101.65,34.82,123.38,23.94,6.04-3.04,6.35-6.12,6.45-7.13,1.28-12.73-24.66-42.21-60.33-68.56-53.3-39.37-122.16-63.27-142.99-55.98Z"/>
    <path class="cls-2" d="m930.64,460.86c-29.45,10.3-81.49.35-122.77-24.22-43.72-26.03-79.02-70.84-80.36-102-.49-11.29,3.6-20.64,11.51-26.31,31.53-22.57,115.25,20.12,153.06,48.05h0c19.43,14.32,64.31,50.71,61.45,79.19-.97,9.67-7.02,17.78-17.04,22.83-1.83.92-3.78,1.74-5.85,2.46Zm-176.08-135.8c-1,.35-1.86.78-2.59,1.31-.62.45-2.51,1.8-2.27,7.31.9,21.05,29.06,59.78,69.54,83.87,44.55,26.51,90.9,29.16,107.26,21.01,4.65-2.35,4.87-4.51,4.94-5.22,1.07-10.63-22-36.59-52.52-59.09h0c-46.56-34.39-106.45-55.45-124.34-49.19Z"/>
  </g>
  <g>
    <path class="cls-1" d="m736.47,332.97c-.43.15-.87.29-1.31.42-10.07,2.98-20.7.21-29.92-7.81-26.49-23.04-40.52-85.99-31.91-143.31,8.51-56.75,40.09-112.66,71.9-127.28,11.21-5.15,22.27-4.9,31.19.7,15.66,9.82,24.32,35.37,25.74,75.94,1.16,33.1-3,72.03-11.13,104.14h0c-6.58,25.98-24.95,86.85-54.56,97.2Zm20.09-258.65c-.64.23-1.33.5-2.06.84-22.13,10.17-51.2,56.95-59.22,110.39-8.09,53.93,6.16,107.28,24.53,123.26,5.1,4.44,8.06,3.56,9.04,3.27.14-.04.27-.08.41-.13,12.25-4.29,29.46-39.13,40.23-81.65,17.19-67.89,11.82-145.33-4.88-155.81-.8-.5-3.07-1.92-8.05-.18Z"/>
    <path class="cls-2" d="m736.79,317.24c-.39.14-.79.27-1.19.39-9.32,2.76-19.11.22-27.58-7.15-23.62-20.55-36.15-76.45-28.52-127.29,7.55-50.32,35.67-99.95,64.01-112.98,10.28-4.69,20.46-4.47,28.71.71,32.88,20.62,24.98,114.3,13.44,159.87h0c-5.84,23.07-22.19,77.12-48.87,86.45Zm17.71-227.55c-.53.18-1.1.41-1.71.7-19.15,8.8-44.34,49.51-51.33,96.1-7.7,51.28,7.33,95.22,21.14,107.23,3.94,3.42,6.01,2.81,6.7,2.6.11-.03.22-.07.34-.11,10.37-3.63,25.12-33.9,34.5-70.89h0c15-59.24,10.63-126.61-3.71-135.6-.57-.36-2.16-1.35-5.92-.04Z"/>
  </g>
  <g>
    <path class="cls-1" d="m548.26,285.85c-33.06,11.56-91.65.28-138.21-27.43-49.31-29.35-89.11-79.74-90.61-114.71-.53-12.3,3.9-22.46,12.45-28.61,15.03-10.77,41.94-9.13,80.03,4.9,31.08,11.45,65.55,30.03,92.19,49.71h0c21.87,16.15,72.39,57.12,69.23,88.64-1.05,10.45-7.64,19.24-18.55,24.74-2.04,1.03-4.22,1.95-6.52,2.75Zm-200.35-154.26c-1.18.41-2.21.93-3.07,1.55-.87.62-3.52,2.52-3.22,9.62,1.04,24.32,33.35,68.94,79.79,96.58,46.86,27.89,101.55,34.86,123.38,23.93,6.04-3.04,6.35-6.12,6.45-7.13,1.28-12.74-24.65-42.21-60.32-68.56-53.31-39.36-122.17-63.27-143-55.98Z"/>
    <path class="cls-2" d="m536.01,277.28c-29.45,10.3-81.49.35-122.77-24.22-43.72-26.03-79.03-70.83-80.36-102-.49-11.29,3.6-20.63,11.51-26.31,31.57-22.6,115.26,20.13,153.08,48.06h0c19.42,14.35,64.29,50.79,61.43,79.19-.97,9.67-7.02,17.78-17.04,22.83-1.83.92-3.78,1.74-5.85,2.46Zm-176.08-135.8c-1,.35-1.87.78-2.59,1.31-.62.44-2.51,1.8-2.27,7.32.91,21.05,29.06,59.77,69.54,83.87,44.55,26.52,90.88,29.2,107.25,21.01,4.66-2.35,4.87-4.51,4.94-5.22,1.08-10.77-21.5-36.18-52.53-59.11-46.56-34.38-106.45-55.44-124.34-49.19Z"/>
  </g>
  <g>
    <path class="cls-1" d="m517.63,571.69c-33.06,11.56-91.66.28-138.21-27.43-49.31-29.35-89.11-79.74-90.61-114.71-.53-12.3,3.9-22.46,12.45-28.61,15.02-10.77,41.94-9.13,80.03,4.9,31.08,11.45,65.54,30.04,92.18,49.71h0c21.87,16.15,72.4,57.1,69.23,88.64-1.05,10.45-7.64,19.24-18.55,24.74-2.04,1.03-4.22,1.95-6.52,2.75Zm-200.35-154.26c-1.18.41-2.21.93-3.07,1.55-.87.62-3.52,2.52-3.22,9.62,1.04,24.32,33.35,68.94,79.79,96.58,46.86,27.89,101.62,34.85,123.38,23.93,6.04-3.04,6.35-6.12,6.45-7.13,1.46-14.53-29.99-46.16-60.32-68.56h0c-53.31-39.37-122.17-63.27-143-55.99Z"/>
    <path class="cls-2" d="m505.38,563.12c-29.45,10.3-81.49.35-122.77-24.22-43.73-26.03-79.03-70.84-80.37-102.01-.48-11.29,3.61-20.63,11.51-26.31,31.55-22.6,115.26,20.13,153.08,48.06,19.42,14.34,64.29,50.77,61.44,79.19-.97,9.67-7.03,17.77-17.05,22.82-1.83.93-3.78,1.75-5.84,2.47Zm-176.08-135.8c-1,.35-1.87.78-2.59,1.31-.62.44-2.51,1.8-2.27,7.31.9,21.05,29.06,59.78,69.54,83.87,44.55,26.53,90.96,29.28,107.25,21.01,4.66-2.35,4.88-4.5,4.95-5.21,1.07-10.6-22.01-36.57-52.53-59.1h0c-46.56-34.38-106.45-55.45-124.34-49.19Z"/>
  </g>
  <g>
    <path class="cls-1" d="m926.53,388.43c-.74.26-1.48.51-2.24.74-27.63,8.67-61.75,1.28-93.61-20.28-39.25-26.56-64.58-67.17-67.77-108.63-3.16-41.05,15.3-84.78,49.39-116.96,28.01-26.45,60.76-39.38,89.85-35.45,30.55,4.12,57.02,27.02,74.55,64.47,15.15,32.38,21.69,72.23,17.47,106.59h0c-1.85,15.13-13.77,90.66-67.64,109.5Zm-58.18-254.75c-13.83,4.84-27.96,13.64-40.8,25.78-28.83,27.22-45.11,65.2-42.5,99.11,2.64,34.25,24.89,69.48,58.08,91.94,25.83,17.48,53.69,24.02,74.51,17.48.51-.16,1.02-.33,1.51-.5,42.41-14.84,52.01-83.39,52.98-91.26h0c7.46-60.83-23.42-139.67-72.96-146.36-9.62-1.3-20.14.07-30.82,3.81Z"/>
    <path class="cls-2" d="m921.24,373.19c-.67.23-1.33.46-2.01.67-24.71,7.75-55.14,1.19-83.5-18-34.86-23.59-57.37-59.69-60.2-96.57-2.81-36.51,13.58-75.37,43.86-103.96,24.94-23.54,54.14-35.05,80.14-31.54,27.34,3.69,50.99,24.1,66.62,57.48,13.43,28.7,19.22,64.03,15.48,94.5h0c-1.65,13.45-12.23,80.58-60.38,97.43Zm-51.19-224.11c-11.99,4.19-24.25,11.85-35.42,22.4-25.07,23.67-39.23,56.67-36.97,86.11,2.29,29.73,21.64,60.34,50.51,79.87,22.39,15.15,46.47,20.84,64.4,15.21,37.72-11.68,46.15-72.7,47-79.6h0c6.49-52.92-20.18-121.49-63.03-127.27-8.26-1.11-17.3.06-26.5,3.28Z"/>
  </g>
  <g>
    <path class="cls-1" d="m939.16,563.69c-.74.26-1.48.51-2.24.74-27.63,8.67-61.75,1.28-93.61-20.28-39.25-26.56-64.58-67.17-67.77-108.63-3.16-41.05,15.3-84.77,49.39-116.96,28.01-26.46,60.76-39.37,89.86-35.45,30.54,4.12,57.02,27.02,74.55,64.48,15.15,32.39,21.69,72.23,17.47,106.59h0c-1.85,15.13-13.77,90.66-67.64,109.5Zm-58.18-254.75c-13.83,4.84-27.96,13.65-40.81,25.78-28.82,27.22-45.1,65.19-42.49,99.11,2.64,34.25,24.89,69.48,58.08,91.94,25.83,17.48,53.69,24.02,74.51,17.48.51-.16,1.02-.33,1.51-.5,42.41-14.84,52.01-83.39,52.98-91.26h0c7.46-60.83-23.42-139.67-72.95-146.36-9.62-1.3-20.14.07-30.83,3.81Z"/>
    <path class="cls-2" d="m933.87,548.45c-.67.23-1.33.46-2.01.67-24.71,7.75-55.14,1.19-83.5-18-34.86-23.59-57.37-59.69-60.2-96.57-2.81-36.51,13.58-75.37,43.86-103.96,24.94-23.55,54.14-35.05,80.14-31.54,27.34,3.69,50.99,24.1,66.62,57.48,13.43,28.7,19.22,64.03,15.48,94.5h0c-1.65,13.45-12.23,80.58-60.38,97.43Zm-51.19-224.11c-11.99,4.19-24.25,11.85-35.42,22.4-25.07,23.67-39.23,56.67-36.97,86.11,2.29,29.73,21.64,60.34,50.51,79.87,22.39,15.15,46.47,20.84,64.4,15.21,37.82-11.83,46.15-72.7,47-79.6h0c6.49-52.92-20.18-121.49-63.03-127.27-8.26-1.11-17.3.06-26.5,3.28Z"/>
  </g>
  <g>
    <path class="cls-1" d="m718.91,466.17c-.85.3-1.72.58-2.6.84-19.44,5.69-43.8.26-65.16-14.5-22.4-15.48-36.82-38.35-38.57-61.18-1.74-22.61,8.81-47.26,28.23-65.93,18.69-17.98,42-27.31,62.36-24.95,15.34,1.78,29.18,10.14,40,24.17,15.63,20.27,23.31,50.36,19.57,76.66h0c-1.26,8.88-9.23,52.8-43.81,64.9Zm-36.85-141.18c-8.85,3.1-17.9,8.75-25.87,16.41-14.68,14.12-22.71,32.15-21.48,48.22,1.25,16.22,12.12,32.9,29.06,44.62,15.67,10.83,33.41,15.22,46.31,11.46.48-.14.95-.29,1.43-.46,23.02-8.05,28.65-43.03,29.23-47.09h0c2.9-20.35-3.2-44.45-15.17-59.97-4.93-6.4-13.27-14.31-24.97-15.67-5.74-.66-12.09.24-18.54,2.49Z"/>
    <path class="cls-2" d="m715.63,457.73c-.77.27-1.56.52-2.36.76-17.48,5.11-39.34.27-58.46-12.94-20.03-13.85-32.93-34.34-34.51-54.82-1.59-20.58,7.61-42.11,25.23-59.06,16.74-16.09,37.66-24.44,55.94-22.32,13.87,1.61,26.36,9.14,36.1,21.78,13.96,18.1,20.82,44.97,17.48,68.44-1.13,7.94-8.27,47.26-39.42,58.16Zm-32.42-124.21c-7.61,2.66-15.4,7.54-22.28,14.15-12.63,12.16-19.54,27.61-18.49,41.35,1.07,13.87,10.41,28.17,25,38.26,13.46,9.31,28.64,13.1,39.6,9.89.39-.11.77-.24,1.15-.37,19.89-6.96,24.67-38.98,24.87-40.37l11,1.56-11-1.56c2.51-17.57-2.75-38.37-13.08-51.75-6.09-7.89-13.17-12.36-21.07-13.28-4.86-.56-10.23.2-15.71,2.12Z"/>
  </g>
  <g>
    <path class="cls-1" d="m368.75,625.07c-13.39,4.68-29.25,1.74-44.7-8.3-23.39-15.2-39.87-42.67-41.98-69.98-2.09-27.03,9.75-56.52,30.17-75.12,13.73-12.53,29.12-18.08,43.3-15.65,16.88,2.89,31.36,17.17,40.78,40.2,7.78,19.02,11.31,42.36,9.44,62.42h0c-1.21,12.93-7.45,55.92-36.84,66.36l-.18.06Zm-27.21-146.02c-4.67,1.63-9.59,4.7-14.34,9.03-15.54,14.17-24.57,36.54-22.99,57,1.81,23.51,17.35,43.59,31.93,53.07,9.41,6.12,18.62,8.29,25.27,5.96l.07-.02c14.49-5.15,20.83-33.32,22.16-47.5h0c3.27-35.02-13.1-75.46-31.85-78.67-3.14-.54-6.63-.13-10.25,1.14Z"/>
    <path class="cls-2" d="m366.21,616.34c-12.18,4.26-26.55,1.62-40.49-7.44-20.91-13.59-35.65-38.15-37.53-62.58-1.87-24.17,8.72-50.54,26.97-67.17,12.39-11.3,26.32-16.31,39.22-14.1,34.13,5.84,48.44,57.93,45.28,91.71h0c-1.08,11.57-6.66,50.05-33.29,59.52l-.16.06Zm-23.93-128.46c-3.93,1.37-8.1,3.98-12.16,7.68-10.96,9.99-21.33,29.04-19.79,49.05,1.56,20.23,14.93,37.51,27.49,45.67,7.84,5.09,15.6,7,21.12,5.08,11.25-4,17.3-26.5,18.61-40.65h0c2.83-30.21-11.01-65.04-26.92-67.76-2.55-.44-5.38-.1-8.36.94Z"/>
  </g>
  <g>
    <path class="cls-1" d="m165.97,646.7c-.74.26-1.49.51-2.24.74-27.63,8.67-61.75,1.28-93.61-20.28-39.25-26.56-64.58-67.17-67.78-108.63-3.16-41.05,15.3-84.77,49.39-116.96,28.02-26.45,60.77-39.38,89.86-35.45,30.54,4.12,57.02,27.02,74.55,64.48,15.15,32.38,21.68,72.23,17.47,106.59h0c-1.85,15.13-13.75,90.65-67.64,109.5Zm-58.18-254.75c-13.84,4.84-27.96,13.65-40.81,25.79-28.82,27.21-45.1,65.19-42.49,99.11,2.64,34.25,24.89,69.48,58.08,91.94,25.83,17.48,53.68,24.02,74.51,17.48.51-.16,1.02-.33,1.51-.5,42.43-14.84,52.01-83.4,52.97-91.25h0c7.46-60.83-23.41-139.68-72.95-146.36-9.62-1.3-20.14.07-30.83,3.81Z"/>
    <path class="cls-2" d="m160.68,631.47c-.67.23-1.34.46-2.01.67-24.7,7.75-55.14,1.19-83.5-18.01-34.86-23.59-57.37-59.69-60.21-96.56-2.81-36.5,13.58-75.37,43.86-103.95,24.95-23.56,54.15-35.06,80.15-31.55,27.34,3.69,51,24.1,66.62,57.48,13.43,28.7,19.22,64.03,15.48,94.5h0c-1.65,13.46-12.25,80.59-60.39,97.43Zm-51.18-224.12c-11.99,4.19-24.25,11.85-35.43,22.4-25.06,23.67-39.23,56.66-36.96,86.11,2.29,29.73,21.64,60.34,50.51,79.87,22.39,15.15,46.46,20.84,64.4,15.21,37.42-11.88,46.16-72.7,47.01-79.61,6.49-52.91-20.18-121.48-63.03-127.27-8.26-1.11-17.3.07-26.5,3.28Z"/>
  </g>
  <g>
    <path class="cls-1" d="m299.48,801.71l-.43.15c-26.53,9.08-59.74,2.46-91.11-18.19-45.95-30.23-78.23-83.33-82.24-135.28-4.03-52.2,18.73-107.9,59.39-145.36,27.75-25.58,59.77-37.66,87.83-33.17,32.68,5.23,61.08,32.57,79.96,77,16.24,38.21,23.5,85.09,19.41,125.41h0c-1.83,18.03-13.93,108.83-72.8,129.43Zm-59.92-304c-12.55,4.39-25.43,12.41-37.62,23.63-34.65,31.93-54.84,81.05-51.44,125.15,3.43,44.55,31.35,90.24,71.11,116.4,24.9,16.38,50.18,22,69.37,15.43.09-.03.19-.06.28-.09,45.61-15.95,55.3-99.02,56.26-108.45h0c7.36-72.54-26.03-166.93-78.55-175.33-9.2-1.47-19.19-.31-29.41,3.27Z"/>
    <path class="cls-2" d="m293.92,783.53l-.39.14c-23.78,8.14-53.47,2.25-81.46-16.17-40.8-26.84-69.46-73.99-73.02-120.13-3.58-46.37,16.63-95.83,52.72-129.1,24.76-22.81,53.37-33.58,78.51-29.56,29.28,4.69,54.66,29.06,71.49,68.64,14.38,33.83,20.81,75.35,17.19,111.06h0c-1.63,16.03-12.41,96.71-65.04,115.12Zm-52.71-267.44c-10.84,3.79-22,10.74-32.57,20.49-30.16,27.79-47.73,70.53-44.77,108.88,2.99,38.75,27.28,78.49,61.88,101.26,21.52,14.15,43.28,19.04,59.72,13.41.08-.02.15-.05.23-.07,31.86-11.15,45.48-64.38,48.51-94.15,7.84-77.27-30.71-146.67-67.85-152.61-7.85-1.26-16.39-.26-25.15,2.8Z"/>
  </g>
  <g>
    <path class="cls-1" d="m1117.15,421.85l-.44.15c-26.53,9.08-59.74,2.46-91.12-18.19-45.95-30.23-78.23-83.33-82.24-135.26-4.03-52.2,18.73-107.9,59.39-145.36,27.76-25.58,59.77-37.66,87.82-33.17,32.68,5.23,61.08,32.57,79.96,77,16.24,38.21,23.5,85.09,19.41,125.41-1.83,18.03-13.92,108.83-72.79,129.43Zm-59.92-304c-12.54,4.39-25.43,12.41-37.62,23.63-34.65,31.93-54.84,81.05-51.44,125.15,3.43,44.55,31.34,90.23,71.1,116.39,24.9,16.38,50.19,22.01,69.38,15.43.09-.03.19-.06.28-.09,45.6-15.95,55.3-99.01,56.26-108.45h0c7.35-72.55-26.04-166.93-78.55-175.33-9.2-1.47-19.19-.31-29.42,3.27Z"/>
    <path class="cls-2" d="m1111.59,403.67l-.39.14c-23.78,8.14-53.47,2.25-81.46-16.16-40.8-26.84-69.46-73.99-73.02-120.14-3.58-46.36,16.62-95.83,52.72-129.08,24.76-22.81,53.38-33.6,78.51-29.57,29.28,4.68,54.66,29.06,71.49,68.63,14.38,33.83,20.81,75.35,17.19,111.06h0c-1.62,16.02-12.36,96.7-65.04,115.12Zm-52.71-267.44c-10.84,3.79-22,10.75-32.58,20.49-30.16,27.79-47.73,70.52-44.77,108.87,2.99,38.75,27.28,78.5,61.88,101.26,21.51,14.15,43.28,19.04,59.72,13.4.07-.02.16-.05.23-.07,31.9-11.16,45.5-64.38,48.5-94.14h0c7.84-77.27-30.7-146.67-67.85-152.62-7.85-1.26-16.4-.26-25.15,2.81Z"/>
  </g>
</svg>