<?xml version="1.0" encoding="UTF-8"?>
<svg id="Layer_1" data-name="Layer 1" xmlns="http://www.w3.org/2000/svg" viewBox="0 0 454 627.76">
  <defs>
    <style>
      .cls-1, .cls-2 {
        fill: #f7b538;
      }

      .cls-3 {
        fill: #f2f2f2;
      }

      .cls-4 {
        fill: #003f82;
      }

      .cls-5 {
        fill: #fff;
      }

      .cls-6 {
        fill: #c32f27;
      }

      .cls-2 {
        font-family: JotiOne-Regular, 'Joti One';
        font-size: 86.94px;
      }
    </style>
  </defs>
  <g>
    <rect class="cls-5" x="10.87" y="55.54" width="432.26" height="561.46"/>
    <path class="cls-5" d="m453.89,627.76H.1V44.78h453.79v582.98Zm-432.26-21.53h410.74V66.31H21.63v539.93Z"/>
  </g>
  <polyline class="cls-5" points="0 43.96 15.34 0 434.72 0 454 47.09"/>
  <g>
    <g>
      <path class="cls-4" d="m417.33,8.45H32.6c-5.23,12.07-10.46,24.15-15.7,36.22h416.29l-15.86-36.22Z"/>
      <path class="cls-3" d="m16.9,44.68v560.7h416.29V44.68H16.9Zm379.14,454.6c0,41.01-33.25,74.26-74.26,74.26s-74.26-33.25-74.26-74.26c0-.21.01-.42.02-.62-7.34.8-14.8,1.23-22.35,1.23-112.36,0-203.45-91.09-203.45-203.45S112.82,92.97,225.19,92.97s203.45,91.09,203.45,203.45c0,56.67-23.18,107.92-60.56,144.81,17.03,13.61,27.96,34.54,27.96,58.04Z"/>
      <path class="cls-6" d="m428.64,296.43c0-112.36-91.09-203.45-203.45-203.45S21.73,184.06,21.73,296.43s91.09,203.45,203.45,203.45c7.56,0,15.01-.43,22.35-1.23.34-40.72,33.44-73.63,74.24-73.63,17.51,0,33.6,6.08,46.3,16.22,37.38-36.89,60.56-88.14,60.56-144.81Z"/>
      <path class="cls-1" d="m247.54,498.65c0,.21-.02.41-.02.62,0,41.01,33.25,74.26,74.26,74.26s74.26-33.25,74.26-74.26c0-23.5-10.93-44.43-27.96-58.04-12.7-10.14-28.78-16.22-46.3-16.22-40.8,0-73.9,32.91-74.24,73.63Zm84.59-18.73c2.84,1.06,6.22,2.32,10.26,4.76,2.35,1.42,7.95,5.08,9.89,6.59.65.51,1.17.83,2.2,1.47,1,.62,1.24.7,1.47.73,1.1.18,2.1-.7,2.93-1.47,3.4-3.11,5.1-4.66,5.86-5.5,1.04-1.15,1.83-2.01,2.93-3.3,1.95-2.27,5.72-6.82,6.96-8.06.41-.41.66-.55,1.1-1.1.35-.44.46-.69.73-.73.41-.07.8.41,1.1.73.12.13-.14-.16,2.56,1.83.78.57,1.77,1.31,2.93,2.2-2.28,2.95-4.83,6.03-7.69,9.16-4.26,4.66-8.48,8.67-12.46,12.09,6.47,7.2,12.94,14.41,19.42,21.61l-6.59,5.5c-6.47-7.08-12.94-14.17-19.42-21.25-4.4,3.34-11.02,7.73-19.78,11.36-6.23,2.58-14.29,5.92-25.28,6.23-15.47.43-26.89-5.44-31.14-7.69-10.04-5.32-16.66-12.13-20.52-16.85,4.1-4.46,10.46-10.37,19.05-15.02,5.66-3.06,10.59-4.66,12.09-5.13,1.93-.6,5.16-1.6,9.52-2.2.96-.13,5.32-.71,11.36-.37,2.77.16,10.84.79,20.52,4.4Z"/>
      <path class="cls-4" d="m300.26,475.89c-4.36.6-7.59,1.59-9.52,2.2-1.5.47-6.43,2.06-12.09,5.13-8.59,4.65-14.95,10.56-19.05,15.02,3.86,4.72,10.48,11.54,20.52,16.85,4.25,2.25,15.66,8.12,31.14,7.69,10.99-.3,19.05-3.65,25.28-6.23,8.76-3.63,15.38-8.02,19.78-11.36,6.47,7.08,12.94,14.17,19.42,21.25l6.59-5.5c-6.47-7.2-12.94-14.41-19.42-21.61,3.97-3.42,8.2-7.42,12.46-12.09,2.86-3.13,5.42-6.21,7.69-9.16-1.16-.88-2.15-1.62-2.93-2.2-2.7-1.99-2.44-1.7-2.56-1.83-.3-.33-.69-.81-1.1-.73-.27.05-.38.3-.73.73-.44.55-.69.69-1.1,1.1-1.24,1.24-5.01,5.79-6.96,8.06-1.1,1.28-1.89,2.15-2.93,3.3-.76.84-2.46,2.39-5.86,5.5-.83.76-1.83,1.64-2.93,1.47-.22-.04-.47-.11-1.47-.73-1.03-.64-1.55-.96-2.2-1.47-1.94-1.51-7.54-5.17-9.89-6.59-4.03-2.44-7.42-3.7-10.26-4.76-9.68-3.61-17.74-4.24-20.52-4.4-6.04-.34-10.4.23-11.36.37Zm10.99,6.96c11.01.69,19.37,4.36,25.28,6.96,2.04.9,3.26,1.56,5.13,2.56,6.85,3.7,10.28,5.55,10.26,7.69-.02,2.09-3.15,3.64-9.16,6.59-4.77,2.35-8.55,3.59-8.79,3.66-4.65,1.5-12.03,3.88-21.98,4.03-10.89.16-19.07-2.43-21.61-3.3-5.34-1.82-19.89-6.76-19.78-13.19.1-5.95,12.71-10.2,18.32-12.09,9.23-3.11,17.39-3.24,22.35-2.93Z"/>
      <path class="cls-1" d="m270.59,497.87c-.1,6.43,14.44,11.37,19.78,13.19,2.55.87,10.72,3.46,21.61,3.3,9.96-.15,17.33-2.53,21.98-4.03.24-.08,4.02-1.32,8.79-3.66,6.01-2.96,9.14-4.5,9.16-6.59.02-2.14-3.41-3.99-10.26-7.69-1.86-1.01-3.09-1.67-5.13-2.56-5.91-2.6-14.27-6.27-25.28-6.96-4.96-.31-13.11-.18-22.35,2.93-5.61,1.89-18.22,6.14-18.32,12.09Z"/>
    </g>
    <text class="cls-2" transform="translate(122.67 281.91)"><tspan x="0" y="0">HON </tspan><tspan x="-24.95" y="104.32">DASHI</tspan></text>
  </g>
</svg>