<?xml version="1.0" encoding="UTF-8"?><svg id="Layer_1" xmlns="http://www.w3.org/2000/svg" xmlns:xlink="http://www.w3.org/1999/xlink" viewBox="0 0 994 722"><defs><style>.cls-1,.cls-2{fill:#f7b538;}.cls-3{fill:#ea8d7b;}.cls-4{fill:#fbe7e0;}.cls-5{fill:#db7c26;}.cls-6{fill:#da4853;}.cls-7{fill:#55565b;}.cls-8{fill:#766f77;}.cls-2{font-family:MyriadPro-Regular, 'Myriad Pro';font-size:64.64px;}.cls-9{fill:#fff;filter:url(#drop-shadow-1);}.cls-10{fill:#e6e6e6;opacity:.54;}.cls-11{fill:#f0ad9d;stroke:#f0ad9d;stroke-miterlimit:10;stroke-width:45.44px;}</style><filter id="drop-shadow-1" filterUnits="userSpaceOnUse"><feOffset dx="7" dy="7"/><feGaussianBlur result="blur" stdDeviation="5"/><feFlood flood-color="#000" flood-opacity=".5"/><feComposite in2="blur" operator="in"/><feComposite in="SourceGraphic"/></filter></defs><path class="cls-9" d="m862.33,699.91c-.61.03-4.36.02-11.86,0-30.4-.07-47.14-.52-65.95-.74-18.5-.22-28.93-.1-51.13,0h-383.84c-35.07,0-70.15-.09-105.22,0-19.51.05-39.03-.09-58.54,0-56.15.27-58.01,1.07-68.17-.74-12.66-2.25-47.96-8.54-75.58-37.79-26.06-27.6-31.07-60.57-33.35-75.58-1.04-6.85-.26-4.8,0-59.28V120.44c.06-13.92,7.85-51.86,32.25-77.42C65.21,17.6,95.86,8.55,108.72,8.55h749.9c12.23,1.51,40.85,6.72,68.17,28.9,31.95,25.94,42.19,58.89,45.2,70.4v483.88c0,6.72-.66,50.09-36.31,81.51-14.62,12.88-43.11,25.39-73.36,26.68Z"/><path class="cls-7" d="m844.25,681.01c-.58.02-4.15.02-11.28,0-28.93-.07-44.86-.49-62.77-.71-17.61-.21-27.53-.1-48.66,0h-365.32c-33.38,0-66.76-.08-100.15,0-18.57.05-37.14-.09-55.72,0-53.45.26-55.21,1.02-64.88-.71-12.05-2.14-45.64-8.13-71.94-35.97-24.81-26.27-29.57-57.65-31.74-71.94-.99-6.52-.25-4.57,0-56.42V129.49c.06-13.25,7.48-49.36,30.7-73.68,23.1-24.2,52.27-32.81,64.51-32.81h713.72c11.64,1.44,38.88,6.4,64.88,27.51,30.41,24.69,40.15,56.05,43.02,67v460.53c0,6.39-.63,47.67-34.56,77.58-13.91,12.26-41.03,24.16-69.82,25.39Z"/><path class="cls-8" d="m827.99,665.49c-.55.02-3.95.02-10.75,0-27.57-.06-42.76-.47-59.82-.67-16.78-.2-26.24-.09-46.38,0h-348.19c-31.82,0-63.63-.08-95.45,0-17.7.04-35.4-.09-53.1,0-50.94.25-52.62.97-61.84-.67-11.48-2.04-43.5-7.74-68.56-34.28-23.64-25.03-28.18-54.94-30.25-68.56-.94-6.22-.23-4.35,0-53.77V139.84c.06-12.63,7.12-47.04,29.26-70.23,22.02-23.07,49.82-31.27,61.49-31.27h680.25c11.1,1.37,37.06,6.1,61.84,26.22,28.99,23.53,38.27,53.42,41,63.86v438.94c0,6.1-.6,45.44-32.94,73.94-13.26,11.69-39.11,23.03-66.55,24.2Z"/><path class="cls-6" d="m124.91,179.51c-1.04.58-8.29,4.56-8.48,10.9-.15,5,4.15,8.68,5.45,9.69,5.73,4.45,13.13,3.75,15.15,3.63,17.77-1.01,29.06,20.51,52.71,30.29,22.63,9.36,54.04,6.92,73.91-7.27,9.57-6.84,11.41-12.79,24.23-18.78,4.63-2.17,20.34-9.51,36.96-4.85,10.68,3,10.7,7.86,26.05,18.17,10.95,7.35,25.84,17.35,44.83,18.17,16.48.71,29.92-5.75,39.38-10.3,11.69-5.62,11.37-8.1,26.66-15.75,15.67-7.84,23.71-11.74,33.93-10.3,6.69.94,12.14,4.06,23.02,10.3,8.58,4.92,8.45,5.97,17.57,11.51,11.25,6.83,18.32,11.12,28.47,13.33,9.32,2.03,16.9,1.36,25.44.61,7.87-.69,14.85-1.31,22.42-4.24,14.55-5.64,15.26-13.62,28.47-21.81,2.37-1.47,18.42-11.13,36.96-9.09,12.26,1.35,13.87,6.53,43.01,21.81,16.47,8.64,24.7,12.95,32.11,13.93,22.58,2.99,43.24-8.56,47.25-10.9,3.82-2.23,9.7-6.12,24.84-15.15,8.08-4.82,9.8-5.74,12.72-6.66,9.69-3.08,14.43-.51,21.2-4.85,1.65-1.06,7.04-4.51,7.27-9.69.29-6.46-7.62-11.03-8.48-11.51-1.77-.99-9.88-5.16-28.47,1.82-17.37,6.52-18.26,13.14-37.56,22.42-10.21,4.91-17.2,8.27-27.26,8.48-16.55.36-29.85-8.05-33.32-10.3-9.74-6.32-10.27-10.53-20.6-15.75-8.03-4.06-14.96-5.19-20.6-6.06-6.87-1.06-27.63-4.27-50.28,4.24-24.82,9.32-21.93,21.45-44.83,27.26-5.17,1.31-24.79,6.29-39.38-3.63-6.91-4.71-5.78-8.05-14.54-15.15-10.69-8.66-21.81-11.31-30.29-13.33-8.96-2.14-22.16-5.28-38.17-1.21-2.9.74-13.38,3.62-24.23,11.51-9.58,6.97-10.25,11.15-18.17,16.36-10.65,7-21.78,7.57-27.87,7.88-37.58,1.9-50.33-36.17-92.09-36.96-7.31-.14-26.3-.49-42.41,10.9-6.22,4.4-7.91,7.65-16.96,13.33-7.66,4.8-17.2,10.78-29.69,11.51-12.81.75-22.57-4.39-31.5-9.09-15.05-7.92-13.86-12.56-28.47-19.99-7.15-3.64-24.04-12.23-36.35-5.45Z"/><path class="cls-6" d="m124.62,277.6c-1.04.58-8.29,4.56-8.48,10.9-.15,5,4.15,8.68,5.45,9.69,5.73,4.45,13.13,3.75,15.15,3.63,17.77-1.01,29.06,20.51,52.71,30.29,22.63,9.36,54.04,6.92,73.91-7.27,9.57-6.84,11.41-12.79,24.23-18.78,4.63-2.17,20.34-9.51,36.96-4.85,10.68,3,10.7,7.86,26.05,18.17,10.95,7.35,25.84,17.35,44.83,18.17,16.48.71,29.92-5.75,39.38-10.3,11.69-5.62,11.37-8.1,26.66-15.75,15.67-7.84,23.71-11.74,33.93-10.3,6.69.94,12.14,4.06,23.02,10.3,8.58,4.92,8.45,5.97,17.57,11.51,11.25,6.83,18.32,11.12,28.47,13.33,9.32,2.03,16.9,1.36,25.44.61,7.87-.69,14.85-1.31,22.42-4.24,14.55-5.64,15.26-13.62,28.47-21.81,2.37-1.47,18.42-11.13,36.96-9.09,12.26,1.35,13.87,6.53,43.01,21.81,16.47,8.64,24.7,12.95,32.11,13.93,22.58,2.99,43.24-8.56,47.25-10.9,3.82-2.23,9.7-6.12,24.84-15.15,8.08-4.82,9.8-5.74,12.72-6.66,9.69-3.08,14.43-.51,21.2-4.85,1.65-1.06,7.04-4.51,7.27-9.69.29-6.46-7.62-11.03-8.48-11.51-1.77-.99-9.88-5.16-28.47,1.82-17.37,6.52-18.26,13.14-37.56,22.42-10.21,4.91-17.2,8.27-27.26,8.48-16.55.36-29.85-8.05-33.32-10.3-9.74-6.32-10.27-10.53-20.6-15.75-8.03-4.06-14.96-5.19-20.6-6.06-6.87-1.06-27.63-4.27-50.28,4.24-24.82,9.32-21.93,21.45-44.83,27.26-5.17,1.31-24.79,6.29-39.38-3.63-6.91-4.71-5.78-8.05-14.54-15.15-10.69-8.66-21.81-11.31-30.29-13.33-8.96-2.14-22.16-5.28-38.17-1.21-2.9.74-13.38,3.62-24.23,11.51-9.58,6.97-10.25,11.15-18.17,16.36-10.65,7-21.78,7.57-27.87,7.88-37.58,1.9-50.33-36.17-92.09-36.96-7.31-.14-26.3-.49-42.41,10.9-6.22,4.4-7.91,7.65-16.96,13.33-7.66,4.8-17.2,10.78-29.69,11.51-12.81.75-22.57-4.39-31.5-9.09-15.05-7.92-13.86-12.56-28.47-19.99-7.15-3.64-24.04-12.23-36.35-5.45Z"/><path class="cls-6" d="m124.3,567.24c-1.04.58-8.29,4.56-8.48,10.9-.15,5,4.15,8.68,5.45,9.69,5.73,4.45,13.13,3.75,15.15,3.63,17.77-1.01,29.06,20.51,52.71,30.29,22.63,9.36,54.04,6.92,73.91-7.27,9.57-6.84,11.41-12.79,24.23-18.78,4.63-2.17,20.34-9.51,36.96-4.85,10.68,3,10.7,7.86,26.05,18.17,10.95,7.35,25.84,17.35,44.83,18.17,16.48.71,29.92-5.75,39.38-10.3,11.69-5.62,11.37-8.1,26.66-15.75,15.67-7.84,23.71-11.74,33.93-10.3,6.69.94,12.14,4.06,23.02,10.3,8.58,4.92,8.45,5.97,17.57,11.51,11.25,6.83,18.32,11.12,28.47,13.33,9.32,2.03,16.9,1.36,25.44.61,7.87-.69,14.85-1.31,22.42-4.24,14.55-5.64,15.26-13.62,28.47-21.81,2.37-1.47,18.42-11.13,36.96-9.09,12.26,1.35,13.87,6.53,43.01,21.81,16.47,8.64,24.7,12.95,32.11,13.93,22.58,2.99,43.24-8.56,47.25-10.9,3.82-2.23,9.7-6.12,24.84-15.15,8.08-4.82,9.8-5.74,12.72-6.66,9.69-3.08,14.43-.51,21.2-4.85,1.65-1.06,7.04-4.51,7.27-9.69.29-6.46-7.62-11.03-8.48-11.51-1.77-.99-9.88-5.16-28.47,1.82-17.37,6.52-18.26,13.14-37.56,22.42-10.21,4.91-17.2,8.27-27.26,8.48-16.55.36-29.85-8.05-33.32-10.3-9.74-6.32-10.27-10.53-20.6-15.75-8.03-4.06-14.96-5.19-20.6-6.06-6.87-1.06-27.63-4.27-50.28,4.24-24.82,9.32-21.93,21.45-44.83,27.26-5.17,1.31-24.79,6.29-39.38-3.63-6.91-4.71-5.78-8.05-14.54-15.15-10.69-8.66-21.81-11.31-30.29-13.33-8.96-2.14-22.16-5.28-38.17-1.21-2.9.74-13.38,3.62-24.23,11.51-9.58,6.97-10.25,11.15-18.17,16.36-10.65,7-21.78,7.57-27.87,7.88-37.58,1.9-50.33-36.17-92.09-36.96-7.31-.14-26.3-.49-42.41,10.9-6.22,4.4-7.91,7.65-16.96,13.33-7.66,4.8-17.2,10.78-29.69,11.51-12.81.75-22.57-4.39-31.5-9.09-15.05-7.92-13.86-12.56-28.47-19.99-7.15-3.64-24.04-12.23-36.35-5.45Z"/><path class="cls-6" d="m124.03,375.75c-1.04.58-8.29,4.56-8.48,10.9-.15,5,4.15,8.68,5.45,9.69,5.73,4.45,13.13,3.75,15.15,3.63,17.77-1.01,29.06,20.51,52.71,30.29,22.63,9.36,54.04,6.92,73.91-7.27,9.57-6.84,11.41-12.79,24.23-18.78,4.63-2.17,20.34-9.51,36.96-4.85,10.68,3,10.7,7.86,26.05,18.17,10.95,7.35,25.84,17.35,44.83,18.17,16.48.71,29.92-5.75,39.38-10.3,11.69-5.62,11.37-8.1,26.66-15.75,15.67-7.84,23.71-11.74,33.93-10.3,6.69.94,12.14,4.06,23.02,10.3,8.58,4.92,8.45,5.97,17.57,11.51,11.25,6.83,18.32,11.12,28.47,13.33,9.32,2.03,16.9,1.36,25.44.61,7.87-.69,14.85-1.31,22.42-4.24,14.55-5.64,15.26-13.62,28.47-21.81,2.37-1.47,18.42-11.13,36.96-9.09,12.26,1.35,13.87,6.53,43.01,21.81,16.47,8.64,24.7,12.95,32.11,13.93,22.58,2.99,43.24-8.56,47.25-10.9,3.82-2.23,9.7-6.12,24.84-15.15,8.08-4.82,9.8-5.74,12.72-6.66,9.69-3.08,14.43-.51,21.2-4.85,1.65-1.06,7.04-4.51,7.27-9.69.29-6.46-7.62-11.03-8.48-11.51-1.77-.99-9.88-5.16-28.47,1.82-17.37,6.52-18.26,13.14-37.56,22.42-10.21,4.91-17.2,8.27-27.26,8.48-16.55.36-29.85-8.05-33.32-10.3-9.74-6.32-10.27-10.53-20.6-15.75-8.03-4.06-14.96-5.19-20.6-6.06-6.87-1.06-27.63-4.27-50.28,4.24-24.82,9.32-21.93,21.45-44.83,27.26-5.17,1.31-24.79,6.29-39.38-3.63-6.91-4.71-5.78-8.05-14.54-15.15-10.69-8.66-21.81-11.31-30.29-13.33-8.96-2.14-22.16-5.28-38.17-1.21-2.9.74-13.38,3.62-24.23,11.51-9.58,6.97-10.25,11.15-18.17,16.36-10.65,7-21.78,7.57-27.87,7.88-37.58,1.9-50.33-36.17-92.09-36.96-7.31-.14-26.3-.49-42.41,10.9-6.22,4.4-7.91,7.65-16.96,13.33-7.66,4.8-17.2,10.78-29.69,11.51-12.81.75-22.57-4.39-31.5-9.09-15.05-7.92-13.86-12.56-28.47-19.99-7.15-3.64-24.04-12.23-36.35-5.45Z"/><path class="cls-6" d="m125.25,473.89c-1.04.58-8.29,4.56-8.48,10.9-.15,5,4.15,8.68,5.45,9.69,5.73,4.45,13.13,3.75,15.15,3.63,17.77-1.01,29.06,20.51,52.71,30.29,22.63,9.36,54.04,6.92,73.91-7.27,9.57-6.84,11.41-12.79,24.23-18.78,4.63-2.17,20.34-9.51,36.96-4.85,10.68,3,10.7,7.86,26.05,18.17,10.95,7.35,25.84,17.35,44.83,18.17,16.48.71,29.92-5.75,39.38-10.3,11.69-5.62,11.37-8.1,26.66-15.75,15.67-7.84,23.71-11.74,33.93-10.3,6.69.94,12.14,4.06,23.02,10.3,8.58,4.92,8.45,5.97,17.57,11.51,11.25,6.83,18.32,11.12,28.47,13.33,9.32,2.03,16.9,1.36,25.44.61,7.87-.69,14.85-1.31,22.42-4.24,14.55-5.64,15.26-13.62,28.47-21.81,2.37-1.47,18.42-11.13,36.96-9.09,12.26,1.35,13.87,6.53,43.01,21.81,16.47,8.64,24.7,12.95,32.11,13.93,22.58,2.99,43.24-8.56,47.25-10.9,3.82-2.23,9.7-6.12,24.84-15.15,8.08-4.82,9.8-5.74,12.72-6.66,9.69-3.08,14.43-.51,21.2-4.85,1.65-1.06,7.04-4.51,7.27-9.69.29-6.46-7.62-11.03-8.48-11.51-1.77-.99-9.88-5.16-28.47,1.82-17.37,6.52-18.26,13.14-37.56,22.42-10.21,4.91-17.2,8.27-27.26,8.48-16.55.36-29.85-8.05-33.32-10.3-9.74-6.32-10.27-10.53-20.6-15.75-8.03-4.06-14.96-5.19-20.6-6.06-6.87-1.06-27.63-4.27-50.28,4.24-24.82,9.32-21.93,21.45-44.83,27.26-5.17,1.31-24.79,6.29-39.38-3.63-6.91-4.71-5.78-8.05-14.54-15.15-10.69-8.66-21.81-11.31-30.29-13.33-8.96-2.14-22.16-5.28-38.17-1.21-2.9.74-13.38,3.62-24.23,11.51-9.58,6.97-10.25,11.15-18.17,16.36-10.65,7-21.78,7.57-27.87,7.88-37.58,1.9-50.33-36.17-92.09-36.96-7.31-.14-26.3-.49-42.41,10.9-6.22,4.4-7.91,7.65-16.96,13.33-7.66,4.8-17.2,10.78-29.69,11.51-12.81.75-22.57-4.39-31.5-9.09-15.05-7.92-13.86-12.56-28.47-19.99-7.15-3.64-24.04-12.23-36.35-5.45Z"/><path class="cls-3" d="m120.37,258.71c-1.04.58-8.29,4.56-8.48,10.9-.15,5,4.15,8.68,5.45,9.69,5.73,4.45,13.13,3.75,15.15,3.63,17.77-1.01,29.06,20.51,52.71,30.29,22.63,9.36,54.04,6.92,73.91-7.27,9.57-6.84,11.41-12.79,24.23-18.78,4.63-2.17,20.34-9.51,36.96-4.85,10.68,3,10.7,7.86,26.05,18.17,10.95,7.35,25.84,17.35,44.83,18.17,16.48.71,29.92-5.75,39.38-10.3,11.69-5.62,11.37-8.1,26.66-15.75,15.67-7.84,23.71-11.74,33.93-10.3,6.69.94,12.14,4.06,23.02,10.3,8.58,4.92,8.45,5.97,17.57,11.51,11.25,6.83,18.32,11.12,28.47,13.33,9.32,2.03,16.9,1.36,25.44.61,7.87-.69,14.85-1.31,22.42-4.24,14.55-5.64,15.26-13.62,28.47-21.81,2.37-1.47,18.42-11.13,36.96-9.09,12.26,1.35,13.87,6.53,43.01,21.81,16.47,8.64,24.7,12.95,32.11,13.93,22.58,2.99,43.24-8.56,47.25-10.9,3.82-2.23,9.7-6.12,24.84-15.15,8.08-4.82,9.8-5.74,12.72-6.66,9.69-3.08,14.43-.51,21.2-4.85,1.65-1.06,7.04-4.51,7.27-9.69.29-6.46-7.62-11.03-8.48-11.51-1.77-.99-9.88-5.16-28.47,1.82-17.37,6.52-18.26,13.14-37.56,22.42-10.21,4.91-17.2,8.27-27.26,8.48-16.55.36-29.85-8.05-33.32-10.3-9.74-6.32-10.27-10.53-20.6-15.75-8.03-4.06-14.96-5.19-20.6-6.06-6.87-1.06-27.63-4.27-50.28,4.24-24.82,9.32-21.93,21.45-44.83,27.26-5.17,1.31-24.79,6.29-39.38-3.63-6.91-4.71-5.78-8.05-14.54-15.15-10.69-8.66-21.81-11.31-30.29-13.33-8.96-2.14-22.16-5.28-38.17-1.21-2.9.74-13.38,3.62-24.23,11.51-9.58,6.97-10.25,11.15-18.17,16.36-10.65,7-21.78,7.57-27.87,7.88-37.58,1.9-50.33-36.17-92.09-36.96-7.31-.14-26.3-.49-42.41,10.9-6.22,4.4-7.91,7.65-16.96,13.33-7.66,4.8-17.2,10.78-29.69,11.51-12.81.75-22.57-4.39-31.5-9.09-15.05-7.92-13.86-12.56-28.47-19.99-7.15-3.64-24.04-12.23-36.35-5.45Z"/><path class="cls-3" d="m121.14,258.93c-1.04.58-8.29,4.56-8.48,10.9-.15,5,4.15,8.68,5.45,9.69,5.73,4.45,13.13,3.75,15.15,3.63,17.77-1.01,29.06,20.51,52.71,30.29,22.63,9.36,54.04,6.92,73.91-7.27,9.57-6.84,11.41-12.79,24.23-18.78,4.63-2.17,20.34-9.51,36.96-4.85,10.68,3,10.7,7.86,26.05,18.17,10.95,7.35,25.84,17.35,44.83,18.17,16.48.71,29.92-5.75,39.38-10.3,11.69-5.62,11.37-8.1,26.66-15.75,15.67-7.84,23.71-11.74,33.93-10.3,6.69.94,12.14,4.06,23.02,10.3,8.58,4.92,8.45,5.97,17.57,11.51,11.25,6.83,18.32,11.12,28.47,13.33,9.32,2.03,16.9,1.36,25.44.61,7.87-.69,14.85-1.31,22.42-4.24,14.55-5.64,15.26-13.62,28.47-21.81,2.37-1.47,18.42-11.13,36.96-9.09,12.26,1.35,13.87,6.53,43.01,21.81,16.47,8.64,24.7,12.95,32.11,13.93,22.58,2.99,43.24-8.56,47.25-10.9,3.82-2.23,9.7-6.12,24.84-15.15,8.08-4.82,9.8-5.74,12.72-6.66,9.69-3.08,14.43-.51,21.2-4.85,1.65-1.06,7.04-4.51,7.27-9.69.29-6.46-7.62-11.03-8.48-11.51-1.77-.99-9.88-5.16-28.47,1.82-17.37,6.52-18.26,13.14-37.56,22.42-10.21,4.91-17.2,8.27-27.26,8.48-16.55.36-29.85-8.05-33.32-10.3-9.74-6.32-10.27-10.53-20.6-15.75-8.03-4.06-14.96-5.19-20.6-6.06-6.87-1.06-27.63-4.27-50.28,4.24-24.82,9.32-21.93,21.45-44.83,27.26-5.17,1.31-24.79,6.29-39.38-3.63-6.91-4.71-5.78-8.05-14.54-15.15-10.69-8.66-21.81-11.31-30.29-13.33-8.96-2.14-22.16-5.28-38.17-1.21-2.9.74-13.38,3.62-24.23,11.51-9.58,6.97-10.25,11.15-18.17,16.36-10.65,7-21.78,7.57-27.87,7.88-37.58,1.9-50.33-36.17-92.09-36.96-7.31-.14-26.3-.49-42.41,10.9-6.22,4.4-7.91,7.65-16.96,13.33-7.66,4.8-17.2,10.78-29.69,11.51-12.81.75-22.57-4.39-31.5-9.09-15.05-7.92-13.86-12.56-28.47-19.99-7.15-3.64-24.04-12.23-36.35-5.45Z"/><path class="cls-3" d="m119.79,356.86c-1.04.58-8.29,4.56-8.48,10.9-.15,5,4.15,8.68,5.45,9.69,5.73,4.45,13.13,3.75,15.15,3.63,17.77-1.01,29.06,20.51,52.71,30.29,22.63,9.36,54.04,6.92,73.91-7.27,9.57-6.84,11.41-12.79,24.23-18.78,4.63-2.17,20.34-9.51,36.96-4.85,10.68,3,10.7,7.86,26.05,18.17,10.95,7.35,25.84,17.35,44.83,18.17,16.48.71,29.92-5.75,39.38-10.3,11.69-5.62,11.37-8.1,26.66-15.75,15.67-7.84,23.71-11.74,33.93-10.3,6.69.94,12.14,4.06,23.02,10.3,8.58,4.92,8.45,5.97,17.57,11.51,11.25,6.83,18.32,11.12,28.47,13.33,9.32,2.03,16.9,1.36,25.44.61,7.87-.69,14.85-1.31,22.42-4.24,14.55-5.64,15.26-13.62,28.47-21.81,2.37-1.47,18.42-11.13,36.96-9.09,12.26,1.35,13.87,6.53,43.01,21.81,16.47,8.64,24.7,12.95,32.11,13.93,22.58,2.99,43.24-8.56,47.25-10.9,3.82-2.23,9.7-6.12,24.84-15.15,8.08-4.82,9.8-5.74,12.72-6.66,9.69-3.08,14.43-.51,21.2-4.85,1.65-1.06,7.04-4.51,7.27-9.69.29-6.46-7.62-11.03-8.48-11.51-1.77-.99-9.88-5.16-28.47,1.82-17.37,6.52-18.26,13.14-37.56,22.42-10.21,4.91-17.2,8.27-27.26,8.48-16.55.36-29.85-8.05-33.32-10.3-9.74-6.32-10.27-10.53-20.6-15.75-8.03-4.06-14.96-5.19-20.6-6.06-6.87-1.06-27.63-4.27-50.28,4.24-24.82,9.32-21.93,21.45-44.83,27.26-5.17,1.31-24.79,6.29-39.38-3.63-6.91-4.71-5.78-8.05-14.54-15.15-10.69-8.66-21.81-11.31-30.29-13.33-8.96-2.14-22.16-5.28-38.17-1.21-2.9.74-13.38,3.62-24.23,11.51-9.58,6.97-10.25,11.15-18.17,16.36-10.65,7-21.78,7.57-27.87,7.88-37.58,1.9-50.33-36.17-92.09-36.96-7.31-.14-26.3-.49-42.41,10.9-6.22,4.4-7.91,7.65-16.96,13.33-7.66,4.8-17.2,10.78-29.69,11.51-12.81.75-22.57-4.39-31.5-9.09-15.05-7.92-13.86-12.56-28.47-19.99-7.15-3.64-24.04-12.23-36.35-5.45Z"/><path class="cls-3" d="m120.56,357.08c-1.04.58-8.29,4.56-8.48,10.9-.15,5,4.15,8.68,5.45,9.69,5.73,4.45,13.13,3.75,15.15,3.63,17.77-1.01,29.06,20.51,52.71,30.29,22.63,9.36,54.04,6.92,73.91-7.27,9.57-6.84,11.41-12.79,24.23-18.78,4.63-2.17,20.34-9.51,36.96-4.85,10.68,3,10.7,7.86,26.05,18.17,10.95,7.35,25.84,17.35,44.83,18.17,16.48.71,29.92-5.75,39.38-10.3,11.69-5.62,11.37-8.1,26.66-15.75,15.67-7.84,23.71-11.74,33.93-10.3,6.69.94,12.14,4.06,23.02,10.3,8.58,4.92,8.45,5.97,17.57,11.51,11.25,6.83,18.32,11.12,28.47,13.33,9.32,2.03,16.9,1.36,25.44.61,7.87-.69,14.85-1.31,22.42-4.24,14.55-5.64,15.26-13.62,28.47-21.81,2.37-1.47,18.42-11.13,36.96-9.09,12.26,1.35,13.87,6.53,43.01,21.81,16.47,8.64,24.7,12.95,32.11,13.93,22.58,2.99,43.24-8.56,47.25-10.9,3.82-2.23,9.7-6.12,24.84-15.15,8.08-4.82,9.8-5.74,12.72-6.66,9.69-3.08,14.43-.51,21.2-4.85,1.65-1.06,7.04-4.51,7.27-9.69.29-6.46-7.62-11.03-8.48-11.51-1.77-.99-9.88-5.16-28.47,1.82-17.37,6.52-18.26,13.14-37.56,22.42-10.21,4.91-17.2,8.27-27.26,8.48-16.55.36-29.85-8.05-33.32-10.3-9.74-6.32-10.27-10.53-20.6-15.75-8.03-4.06-14.96-5.19-20.6-6.06-6.87-1.06-27.63-4.27-50.28,4.24-24.82,9.32-21.93,21.45-44.83,27.26-5.17,1.31-24.79,6.29-39.38-3.63-6.91-4.71-5.78-8.05-14.54-15.15-10.69-8.66-21.81-11.31-30.29-13.33-8.96-2.14-22.16-5.28-38.17-1.21-2.9.74-13.38,3.62-24.23,11.51-9.58,6.97-10.25,11.15-18.17,16.36-10.65,7-21.78,7.57-27.87,7.88-37.58,1.9-50.33-36.17-92.09-36.96-7.31-.14-26.3-.49-42.41,10.9-6.22,4.4-7.91,7.65-16.96,13.33-7.66,4.8-17.2,10.78-29.69,11.51-12.81.75-22.57-4.39-31.5-9.09-15.05-7.92-13.86-12.56-28.47-19.99-7.15-3.64-24.04-12.23-36.35-5.45Z"/><path class="cls-3" d="m121,455c-1.04.58-8.29,4.56-8.48,10.9-.15,5,4.15,8.68,5.45,9.69,5.73,4.45,13.13,3.75,15.15,3.63,17.77-1.01,29.06,20.51,52.71,30.29,22.63,9.36,54.04,6.92,73.91-7.27,9.57-6.84,11.41-12.79,24.23-18.78,4.63-2.17,20.34-9.51,36.96-4.85,10.68,3,10.7,7.86,26.05,18.17,10.95,7.35,25.84,17.35,44.83,18.17,16.48.71,29.92-5.75,39.38-10.3,11.69-5.62,11.37-8.1,26.66-15.75,15.67-7.84,23.71-11.74,33.93-10.3,6.69.94,12.14,4.06,23.02,10.3,8.58,4.92,8.45,5.97,17.57,11.51,11.25,6.83,18.32,11.12,28.47,13.33,9.32,2.03,16.9,1.36,25.44.61,7.87-.69,14.85-1.31,22.42-4.24,14.55-5.64,15.26-13.62,28.47-21.81,2.37-1.47,18.42-11.13,36.96-9.09,12.26,1.35,13.87,6.53,43.01,21.81,16.47,8.64,24.7,12.95,32.11,13.93,22.58,2.99,43.24-8.56,47.25-10.9,3.82-2.23,9.7-6.12,24.84-15.15,8.08-4.82,9.8-5.74,12.72-6.66,9.69-3.08,14.43-.51,21.2-4.85,1.65-1.06,7.04-4.51,7.27-9.69.29-6.46-7.62-11.03-8.48-11.51-1.77-.99-9.88-5.16-28.47,1.82-17.37,6.52-18.26,13.14-37.56,22.42-10.21,4.91-17.2,8.27-27.26,8.48-16.55.36-29.85-8.05-33.32-10.3-9.74-6.32-10.27-10.53-20.6-15.75-8.03-4.06-14.96-5.19-20.6-6.06-6.87-1.06-27.63-4.27-50.28,4.24-24.82,9.32-21.93,21.45-44.83,27.26-5.17,1.31-24.79,6.29-39.38-3.63-6.91-4.71-5.78-8.05-14.54-15.15-10.69-8.66-21.81-11.31-30.29-13.33-8.96-2.14-22.16-5.28-38.17-1.21-2.9.74-13.38,3.62-24.23,11.51-9.58,6.97-10.25,11.15-18.17,16.36-10.65,7-21.78,7.57-27.87,7.88-37.58,1.9-50.33-36.17-92.09-36.96-7.31-.14-26.3-.49-42.41,10.9-6.22,4.4-7.91,7.65-16.96,13.33-7.66,4.8-17.2,10.78-29.69,11.51-12.81.75-22.57-4.39-31.5-9.09-15.05-7.92-13.86-12.56-28.47-19.99-7.15-3.64-24.04-12.23-36.35-5.45Z"/><path class="cls-3" d="m121.77,455.23c-1.04.58-8.29,4.56-8.48,10.9-.15,5,4.15,8.68,5.45,9.69,5.73,4.45,13.13,3.75,15.15,3.63,17.77-1.01,29.06,20.51,52.71,30.29,22.63,9.36,54.04,6.92,73.91-7.27,9.57-6.84,11.41-12.79,24.23-18.78,4.63-2.17,20.34-9.51,36.96-4.85,10.68,3,10.7,7.86,26.05,18.17,10.95,7.35,25.84,17.35,44.83,18.17,16.48.71,29.92-5.75,39.38-10.3,11.69-5.62,11.37-8.1,26.66-15.75,15.67-7.84,23.71-11.74,33.93-10.3,6.69.94,12.14,4.06,23.02,10.3,8.58,4.92,8.45,5.97,17.57,11.51,11.25,6.83,18.32,11.12,28.47,13.33,9.32,2.03,16.9,1.36,25.44.61,7.87-.69,14.85-1.31,22.42-4.24,14.55-5.64,15.26-13.62,28.47-21.81,2.37-1.47,18.42-11.13,36.96-9.09,12.26,1.35,13.87,6.53,43.01,21.81,16.47,8.64,24.7,12.95,32.11,13.93,22.58,2.99,43.24-8.56,47.25-10.9,3.82-2.23,9.7-6.12,24.84-15.15,8.08-4.82,9.8-5.74,12.72-6.66,9.69-3.08,14.43-.51,21.2-4.85,1.65-1.06,7.04-4.51,7.27-9.69.29-6.46-7.62-11.03-8.48-11.51-1.77-.99-9.88-5.16-28.47,1.82-17.37,6.52-18.26,13.14-37.56,22.42-10.21,4.91-17.2,8.27-27.26,8.48-16.55.36-29.85-8.05-33.32-10.3-9.74-6.32-10.27-10.53-20.6-15.75-8.03-4.06-14.96-5.19-20.6-6.06-6.87-1.06-27.63-4.27-50.28,4.24-24.82,9.32-21.93,21.45-44.83,27.26-5.17,1.31-24.79,6.29-39.38-3.63-6.91-4.71-5.78-8.05-14.54-15.15-10.69-8.66-21.81-11.31-30.29-13.33-8.96-2.14-22.16-5.28-38.17-1.21-2.9.74-13.38,3.62-24.23,11.51-9.58,6.97-10.25,11.15-18.17,16.36-10.65,7-21.78,7.57-27.87,7.88-37.58,1.9-50.33-36.17-92.09-36.96-7.31-.14-26.3-.49-42.41,10.9-6.22,4.4-7.91,7.65-16.96,13.33-7.66,4.8-17.2,10.78-29.69,11.51-12.81.75-22.57-4.39-31.5-9.09-15.05-7.92-13.86-12.56-28.47-19.99-7.15-3.64-24.04-12.23-36.35-5.45Z"/><path class="cls-3" d="m119.28,548.13c-1.04.58-8.29,4.56-8.48,10.9-.15,5,4.15,8.68,5.45,9.69,5.73,4.45,13.13,3.75,15.15,3.63,17.77-1.01,29.06,20.51,52.71,30.29,22.63,9.36,54.04,6.92,73.91-7.27,9.57-6.84,11.41-12.79,24.23-18.78,4.63-2.17,20.34-9.51,36.96-4.85,10.68,3,10.7,7.86,26.05,18.17,10.95,7.35,25.84,17.35,44.83,18.17,16.48.71,29.92-5.75,39.38-10.3,11.69-5.62,11.37-8.1,26.66-15.75,15.67-7.84,23.71-11.74,33.93-10.3,6.69.94,12.14,4.06,23.02,10.3,8.58,4.92,8.45,5.97,17.57,11.51,11.25,6.83,18.32,11.12,28.47,13.33,9.32,2.03,16.9,1.36,25.44.61,7.87-.69,14.85-1.31,22.42-4.24,14.55-5.64,15.26-13.62,28.47-21.81,2.37-1.47,18.42-11.13,36.96-9.09,12.26,1.35,13.87,6.53,43.01,21.81,16.47,8.64,24.7,12.95,32.11,13.93,22.58,2.99,43.24-8.56,47.25-10.9,3.82-2.23,9.7-6.12,24.84-15.15,8.08-4.82,9.8-5.74,12.72-6.66,9.69-3.08,14.43-.51,21.2-4.85,1.65-1.06,7.04-4.51,7.27-9.69.29-6.46-7.62-11.03-8.48-11.51-1.77-.99-9.88-5.16-28.47,1.82-17.37,6.52-18.26,13.14-37.56,22.42-10.21,4.91-17.2,8.27-27.26,8.48-16.55.36-29.85-8.05-33.32-10.3-9.74-6.32-10.27-10.53-20.6-15.75-8.03-4.06-14.96-5.19-20.6-6.06-6.87-1.06-27.63-4.27-50.28,4.24-24.82,9.32-21.93,21.45-44.83,27.26-5.17,1.31-24.79,6.29-39.38-3.63-6.91-4.71-5.78-8.05-14.54-15.15-10.69-8.66-21.81-11.31-30.29-13.33-8.96-2.14-22.16-5.28-38.17-1.21-2.9.74-13.38,3.62-24.23,11.51-9.58,6.97-10.25,11.15-18.17,16.36-10.65,7-21.78,7.57-27.87,7.88-37.58,1.9-50.33-36.17-92.09-36.96-7.31-.14-26.3-.49-42.41,10.9-6.22,4.4-7.91,7.65-16.96,13.33-7.66,4.8-17.2,10.78-29.69,11.51-12.81.75-22.57-4.39-31.5-9.09-15.05-7.92-13.86-12.56-28.47-19.99-7.15-3.64-24.04-12.23-36.35-5.45Z"/><path class="cls-3" d="m120.06,548.35c-1.04.58-8.29,4.56-8.48,10.9-.15,5,4.15,8.68,5.45,9.69,5.73,4.45,13.13,3.75,15.15,3.63,17.77-1.01,29.06,20.51,52.71,30.29,22.63,9.36,54.04,6.92,73.91-7.27,9.57-6.84,11.41-12.79,24.23-18.78,4.63-2.17,20.34-9.51,36.96-4.85,10.68,3,10.7,7.86,26.05,18.17,10.95,7.35,25.84,17.35,44.83,18.17,16.48.71,29.92-5.75,39.38-10.3,11.69-5.62,11.37-8.1,26.66-15.75,15.67-7.84,23.71-11.74,33.93-10.3,6.69.94,12.14,4.06,23.02,10.3,8.58,4.92,8.45,5.97,17.57,11.51,11.25,6.83,18.32,11.12,28.47,13.33,9.32,2.03,16.9,1.36,25.44.61,7.87-.69,14.85-1.31,22.42-4.24,14.55-5.64,15.26-13.62,28.47-21.81,2.37-1.47,18.42-11.13,36.96-9.09,12.26,1.35,13.87,6.53,43.01,21.81,16.47,8.64,24.7,12.95,32.11,13.93,22.58,2.99,43.24-8.56,47.25-10.9,3.82-2.23,9.7-6.12,24.84-15.15,8.08-4.82,9.8-5.74,12.72-6.66,9.69-3.08,14.43-.51,21.2-4.85,1.65-1.06,7.04-4.51,7.27-9.69.29-6.46-7.62-11.03-8.48-11.51-1.77-.99-9.88-5.16-28.47,1.82-17.37,6.52-18.26,13.14-37.56,22.42-10.21,4.91-17.2,8.27-27.26,8.48-16.55.36-29.85-8.05-33.32-10.3-9.74-6.32-10.27-10.53-20.6-15.75-8.03-4.06-14.96-5.19-20.6-6.06-6.87-1.06-27.63-4.27-50.28,4.24-24.82,9.32-21.93,21.45-44.83,27.26-5.17,1.31-24.79,6.29-39.38-3.63-6.91-4.71-5.78-8.05-14.54-15.15-10.69-8.66-21.81-11.31-30.29-13.33-8.96-2.14-22.16-5.28-38.17-1.21-2.9.74-13.38,3.62-24.23,11.51-9.58,6.97-10.25,11.15-18.17,16.36-10.65,7-21.78,7.57-27.87,7.88-37.58,1.9-50.33-36.17-92.09-36.96-7.31-.14-26.3-.49-42.41,10.9-6.22,4.4-7.91,7.65-16.96,13.33-7.66,4.8-17.2,10.78-29.69,11.51-12.81.75-22.57-4.39-31.5-9.09-15.05-7.92-13.86-12.56-28.47-19.99-7.15-3.64-24.04-12.23-36.35-5.45Z"/><path class="cls-6" d="m125.68,179.73c-1.04.58-8.29,4.56-8.48,10.9-.15,5,4.15,8.68,5.45,9.69,5.73,4.45,13.13,3.75,15.15,3.63,17.77-1.01,29.06,20.51,52.71,30.29,22.63,9.36,54.04,6.92,73.91-7.27,9.57-6.84,11.41-12.79,24.23-18.78,4.63-2.17,20.34-9.51,36.96-4.85,10.68,3,10.7,7.86,26.05,18.17,10.95,7.35,25.84,17.35,44.83,18.17,16.48.71,29.92-5.75,39.38-10.3,11.69-5.62,11.37-8.1,26.66-15.75,15.67-7.84,23.71-11.74,33.93-10.3,6.69.94,12.14,4.06,23.02,10.3,8.58,4.92,8.45,5.97,17.57,11.51,11.25,6.83,18.32,11.12,28.47,13.33,9.32,2.03,16.9,1.36,25.44.61,7.87-.69,14.85-1.31,22.42-4.24,14.55-5.64,15.26-13.62,28.47-21.81,2.37-1.47,18.42-11.13,36.96-9.09,12.26,1.35,13.87,6.53,43.01,21.81,16.47,8.64,24.7,12.95,32.11,13.93,22.58,2.99,43.24-8.56,47.25-10.9,3.82-2.23,9.7-6.12,24.84-15.15,8.08-4.82,9.8-5.74,12.72-6.66,9.69-3.08,14.43-.51,21.2-4.85,1.65-1.06,7.04-4.51,7.27-9.69.29-6.46-7.62-11.03-8.48-11.51-1.77-.99-9.88-5.16-28.47,1.82-17.37,6.52-18.26,13.14-37.56,22.42-10.21,4.91-17.2,8.27-27.26,8.48-16.55.36-29.85-8.05-33.32-10.3-9.74-6.32-10.27-10.53-20.6-15.75-8.03-4.06-14.96-5.19-20.6-6.06-6.87-1.06-27.63-4.27-50.28,4.24-24.82,9.32-21.93,21.45-44.83,27.26-5.17,1.31-24.79,6.29-39.38-3.63-6.91-4.71-5.78-8.05-14.54-15.15-10.69-8.66-21.81-11.31-30.29-13.33-8.96-2.14-22.16-5.28-38.17-1.21-2.9.74-13.38,3.62-24.23,11.51-9.58,6.97-10.25,11.15-18.17,16.36-10.65,7-21.78,7.57-27.87,7.88-37.58,1.9-50.33-36.17-92.09-36.96-7.31-.14-26.3-.49-42.41,10.9-6.22,4.4-7.91,7.65-16.96,13.33-7.66,4.8-17.2,10.78-29.69,11.51-12.81.75-22.57-4.39-31.5-9.09-15.05-7.92-13.86-12.56-28.47-19.99-7.15-3.64-24.04-12.23-36.35-5.45Z"/><path class="cls-6" d="m125.39,277.82c-1.04.58-8.29,4.56-8.48,10.9-.15,5,4.15,8.68,5.45,9.69,5.73,4.45,13.13,3.75,15.15,3.63,17.77-1.01,29.06,20.51,52.71,30.29,22.63,9.36,54.04,6.92,73.91-7.27,9.57-6.84,11.41-12.79,24.23-18.78,4.63-2.17,20.34-9.51,36.96-4.85,10.68,3,10.7,7.86,26.05,18.17,10.95,7.35,25.84,17.35,44.83,18.17,16.48.71,29.92-5.75,39.38-10.3,11.69-5.62,11.37-8.1,26.66-15.75,15.67-7.84,23.71-11.74,33.93-10.3,6.69.94,12.14,4.06,23.02,10.3,8.58,4.92,8.45,5.97,17.57,11.51,11.25,6.83,18.32,11.12,28.47,13.33,9.32,2.03,16.9,1.36,25.44.61,7.87-.69,14.85-1.31,22.42-4.24,14.55-5.64,15.26-13.62,28.47-21.81,2.37-1.47,18.42-11.13,36.96-9.09,12.26,1.35,13.87,6.53,43.01,21.81,16.47,8.64,24.7,12.95,32.11,13.93,22.58,2.99,43.24-8.56,47.25-10.9,3.82-2.23,9.7-6.12,24.84-15.15,8.08-4.82,9.8-5.74,12.72-6.66,9.69-3.08,14.43-.51,21.2-4.85,1.65-1.06,7.04-4.51,7.27-9.69.29-6.46-7.62-11.03-8.48-11.51-1.77-.99-9.88-5.16-28.47,1.82-17.37,6.52-18.26,13.14-37.56,22.42-10.21,4.91-17.2,8.27-27.26,8.48-16.55.36-29.85-8.05-33.32-10.3-9.74-6.32-10.27-10.53-20.6-15.75-8.03-4.06-14.96-5.19-20.6-6.06-6.87-1.06-27.63-4.27-50.28,4.24-24.82,9.32-21.93,21.45-44.83,27.26-5.17,1.31-24.79,6.29-39.38-3.63-6.91-4.71-5.78-8.05-14.54-15.15-10.69-8.66-21.81-11.31-30.29-13.33-8.96-2.14-22.16-5.28-38.17-1.21-2.9.74-13.38,3.62-24.23,11.51-9.58,6.97-10.25,11.15-18.17,16.36-10.65,7-21.78,7.57-27.87,7.88-37.58,1.9-50.33-36.17-92.09-36.96-7.31-.14-26.3-.49-42.41,10.9-6.22,4.4-7.91,7.65-16.96,13.33-7.66,4.8-17.2,10.78-29.69,11.51-12.81.75-22.57-4.39-31.5-9.09-15.05-7.92-13.86-12.56-28.47-19.99-7.15-3.64-24.04-12.23-36.35-5.45Z"/><path class="cls-6" d="m124.81,375.97c-1.04.58-8.29,4.56-8.48,10.9-.15,5,4.15,8.68,5.45,9.69,5.73,4.45,13.13,3.75,15.15,3.63,17.77-1.01,29.06,20.51,52.71,30.29,22.63,9.36,54.04,6.92,73.91-7.27,9.57-6.84,11.41-12.79,24.23-18.78,4.63-2.17,20.34-9.51,36.96-4.85,10.68,3,10.7,7.86,26.05,18.17,10.95,7.35,25.84,17.35,44.83,18.17,16.48.71,29.92-5.75,39.38-10.3,11.69-5.62,11.37-8.1,26.66-15.75,15.67-7.84,23.71-11.74,33.93-10.3,6.69.94,12.14,4.06,23.02,10.3,8.58,4.92,8.45,5.97,17.57,11.51,11.25,6.83,18.32,11.12,28.47,13.33,9.32,2.03,16.9,1.36,25.44.61,7.87-.69,14.85-1.31,22.42-4.24,14.55-5.64,15.26-13.62,28.47-21.81,2.37-1.47,18.42-11.13,36.96-9.09,12.26,1.35,13.87,6.53,43.01,21.81,16.47,8.64,24.7,12.95,32.11,13.93,22.58,2.99,43.24-8.56,47.25-10.9,3.82-2.23,9.7-6.12,24.84-15.15,8.08-4.82,9.8-5.74,12.72-6.66,9.69-3.08,14.43-.51,21.2-4.85,1.65-1.06,7.04-4.51,7.27-9.69.29-6.46-7.62-11.03-8.48-11.51-1.77-.99-9.88-5.16-28.47,1.82-17.37,6.52-18.26,13.14-37.56,22.42-10.21,4.91-17.2,8.27-27.26,8.48-16.55.36-29.85-8.05-33.32-10.3-9.74-6.32-10.27-10.53-20.6-15.75-8.03-4.06-14.96-5.19-20.6-6.06-6.87-1.06-27.63-4.27-50.28,4.24-24.82,9.32-21.93,21.45-44.83,27.26-5.17,1.31-24.79,6.29-39.38-3.63-6.91-4.71-5.78-8.05-14.54-15.15-10.69-8.66-21.81-11.31-30.29-13.33-8.96-2.14-22.16-5.28-38.17-1.21-2.9.74-13.38,3.62-24.23,11.51-9.58,6.97-10.25,11.15-18.17,16.36-10.65,7-21.78,7.57-27.87,7.88-37.58,1.9-50.33-36.17-92.09-36.96-7.31-.14-26.3-.49-42.41,10.9-6.22,4.4-7.91,7.65-16.96,13.33-7.66,4.8-17.2,10.78-29.69,11.51-12.81.75-22.57-4.39-31.5-9.09-15.05-7.92-13.86-12.56-28.47-19.99-7.15-3.64-24.04-12.23-36.35-5.45Z"/><path class="cls-6" d="m126.02,474.12c-1.04.58-8.29,4.56-8.48,10.9-.15,5,4.15,8.68,5.45,9.69,5.73,4.45,13.13,3.75,15.15,3.63,17.77-1.01,29.06,20.51,52.71,30.29,22.63,9.36,54.04,6.92,73.91-7.27,9.57-6.84,11.41-12.79,24.23-18.78,4.63-2.17,20.34-9.51,36.96-4.85,10.68,3,10.7,7.86,26.05,18.17,10.95,7.35,25.84,17.35,44.83,18.17,16.48.71,29.92-5.75,39.38-10.3,11.69-5.62,11.37-8.1,26.66-15.75,15.67-7.84,23.71-11.74,33.93-10.3,6.69.94,12.14,4.06,23.02,10.3,8.58,4.92,8.45,5.97,17.57,11.51,11.25,6.83,18.32,11.12,28.47,13.33,9.32,2.03,16.9,1.36,25.44.61,7.87-.69,14.85-1.31,22.42-4.24,14.55-5.64,15.26-13.62,28.47-21.81,2.37-1.47,18.42-11.13,36.96-9.09,12.26,1.35,13.87,6.53,43.01,21.81,16.47,8.64,24.7,12.95,32.11,13.93,22.58,2.99,43.24-8.56,47.25-10.9,3.82-2.23,9.7-6.12,24.84-15.15,8.08-4.82,9.8-5.74,12.72-6.66,9.69-3.08,14.43-.51,21.2-4.85,1.65-1.06,7.04-4.51,7.27-9.69.29-6.46-7.62-11.03-8.48-11.51-1.77-.99-9.88-5.16-28.47,1.82-17.37,6.52-18.26,13.14-37.56,22.42-10.21,4.91-17.2,8.27-27.26,8.48-16.55.36-29.85-8.05-33.32-10.3-9.74-6.32-10.27-10.53-20.6-15.75-8.03-4.06-14.96-5.19-20.6-6.06-6.87-1.06-27.63-4.27-50.28,4.24-24.82,9.32-21.93,21.45-44.83,27.26-5.17,1.31-24.79,6.29-39.38-3.63-6.91-4.71-5.78-8.05-14.54-15.15-10.69-8.66-21.81-11.31-30.29-13.33-8.96-2.14-22.16-5.28-38.17-1.21-2.9.74-13.38,3.62-24.23,11.51-9.58,6.97-10.25,11.15-18.17,16.36-10.65,7-21.78,7.57-27.87,7.88-37.58,1.9-50.33-36.17-92.09-36.96-7.31-.14-26.3-.49-42.41,10.9-6.22,4.4-7.91,7.65-16.96,13.33-7.66,4.8-17.2,10.78-29.69,11.51-12.81.75-22.57-4.39-31.5-9.09-15.05-7.92-13.86-12.56-28.47-19.99-7.15-3.64-24.04-12.23-36.35-5.45Z"/><path class="cls-6" d="m123.53,567.02c-1.04.58-8.29,4.56-8.48,10.9-.15,5,4.15,8.68,5.45,9.69,5.73,4.45,13.13,3.75,15.15,3.63,17.77-1.01,29.06,20.51,52.71,30.29,22.63,9.36,54.04,6.92,73.91-7.27,9.57-6.84,11.41-12.79,24.23-18.78,4.63-2.17,20.34-9.51,36.96-4.85,10.68,3,10.7,7.86,26.05,18.17,10.95,7.35,25.84,17.35,44.83,18.17,16.48.71,29.92-5.75,39.38-10.3,11.69-5.62,11.37-8.1,26.66-15.75,15.67-7.84,23.71-11.74,33.93-10.3,6.69.94,12.14,4.06,23.02,10.3,8.58,4.92,8.45,5.97,17.57,11.51,11.25,6.83,18.32,11.12,28.47,13.33,9.32,2.03,16.9,1.36,25.44.61,7.87-.69,14.85-1.31,22.42-4.24,14.55-5.64,15.26-13.62,28.47-21.81,2.37-1.47,18.42-11.13,36.96-9.09,12.26,1.35,13.87,6.53,43.01,21.81,16.47,8.64,24.7,12.95,32.11,13.93,22.58,2.99,43.24-8.56,47.25-10.9,3.82-2.23,9.7-6.12,24.84-15.15,8.08-4.82,9.8-5.74,12.72-6.66,9.69-3.08,14.43-.51,21.2-4.85,1.65-1.06,7.04-4.51,7.27-9.69.29-6.46-7.62-11.03-8.48-11.51-1.77-.99-9.88-5.16-28.47,1.82-17.37,6.52-18.26,13.14-37.56,22.42-10.21,4.91-17.2,8.27-27.26,8.48-16.55.36-29.85-8.05-33.32-10.3-9.74-6.32-10.27-10.53-20.6-15.75-8.03-4.06-14.96-5.19-20.6-6.06-6.87-1.06-27.63-4.27-50.28,4.24-24.82,9.32-21.93,21.45-44.83,27.26-5.17,1.31-24.79,6.29-39.38-3.63-6.91-4.71-5.78-8.05-14.54-15.15-10.69-8.66-21.81-11.31-30.29-13.33-8.96-2.14-22.16-5.28-38.17-1.21-2.9.74-13.38,3.62-24.23,11.51-9.58,6.97-10.25,11.15-18.17,16.36-10.65,7-21.78,7.57-27.87,7.88-37.58,1.9-50.33-36.17-92.09-36.96-7.31-.14-26.3-.49-42.41,10.9-6.22,4.4-7.91,7.65-16.96,13.33-7.66,4.8-17.2,10.78-29.69,11.51-12.81.75-22.57-4.39-31.5-9.09-15.05-7.92-13.86-12.56-28.47-19.99-7.15-3.64-24.04-12.23-36.35-5.45Z"/><path class="cls-3" d="m120.66,160.62c-1.04.58-8.29,4.56-8.48,10.9-.15,5,4.15,8.68,5.45,9.69,5.73,4.45,13.13,3.75,15.15,3.63,17.77-1.01,29.06,20.51,52.71,30.29,22.63,9.36,54.04,6.92,73.91-7.27,9.57-6.84,11.41-12.79,24.23-18.78,4.63-2.17,20.34-9.51,36.96-4.85,10.68,3,10.7,7.86,26.05,18.17,10.95,7.35,25.84,17.35,44.83,18.17,16.48.71,29.92-5.75,39.38-10.3,11.69-5.62,11.37-8.1,26.66-15.75,15.67-7.84,23.71-11.74,33.93-10.3,6.69.94,12.14,4.06,23.02,10.3,8.58,4.92,8.45,5.97,17.57,11.51,11.25,6.83,18.32,11.12,28.47,13.33,9.32,2.03,16.9,1.36,25.44.61,7.87-.69,14.85-1.31,22.42-4.24,14.55-5.64,15.26-13.62,28.47-21.81,2.37-1.47,18.42-11.13,36.96-9.09,12.26,1.35,13.87,6.53,43.01,21.81,16.47,8.64,24.7,12.95,32.11,13.93,22.58,2.99,43.24-8.56,47.25-10.9,3.82-2.23,9.7-6.12,24.84-15.15,8.08-4.82,9.8-5.74,12.72-6.66,9.69-3.08,14.43-.51,21.2-4.85,1.65-1.06,7.04-4.51,7.27-9.69.29-6.46-7.62-11.03-8.48-11.51-1.77-.99-9.88-5.16-28.47,1.82-17.37,6.52-18.26,13.14-37.56,22.42-10.21,4.91-17.2,8.27-27.26,8.48-16.55.36-29.85-8.05-33.32-10.3-9.74-6.32-10.27-10.53-20.6-15.75-8.03-4.06-14.96-5.19-20.6-6.06-6.87-1.06-27.63-4.27-50.28,4.24-24.82,9.32-21.93,21.45-44.83,27.26-5.17,1.31-24.79,6.29-39.38-3.63-6.91-4.71-5.78-8.05-14.54-15.15-10.69-8.66-21.81-11.31-30.29-13.33-8.96-2.14-22.16-5.28-38.17-1.21-2.9.74-13.38,3.62-24.23,11.51-9.58,6.97-10.25,11.15-18.17,16.36-10.65,7-21.78,7.57-27.87,7.88-37.58,1.9-50.33-36.17-92.09-36.96-7.31-.14-26.3-.49-42.41,10.9-6.22,4.4-7.91,7.65-16.96,13.33-7.66,4.8-17.2,10.78-29.69,11.51-12.81.75-22.57-4.39-31.5-9.09-15.05-7.92-13.86-12.56-28.47-19.99-7.15-3.64-24.04-12.23-36.35-5.45Z"/><path class="cls-3" d="m121.43,160.85c-1.04.58-8.29,4.56-8.48,10.9-.15,5,4.15,8.68,5.45,9.69,5.73,4.45,13.13,3.75,15.15,3.63,17.77-1.01,29.06,20.51,52.71,30.29,22.63,9.36,54.04,6.92,73.91-7.27,9.57-6.84,11.41-12.79,24.23-18.78,4.63-2.17,20.34-9.51,36.96-4.85,10.68,3,10.7,7.86,26.05,18.17,10.95,7.35,25.84,17.35,44.83,18.17,16.48.71,29.92-5.75,39.38-10.3,11.69-5.62,11.37-8.1,26.66-15.75,15.67-7.84,23.71-11.74,33.93-10.3,6.69.94,12.14,4.06,23.02,10.3,8.58,4.92,8.45,5.97,17.57,11.51,11.25,6.83,18.32,11.12,28.47,13.33,9.32,2.03,16.9,1.36,25.44.61,7.87-.69,14.85-1.31,22.42-4.24,14.55-5.64,15.26-13.62,28.47-21.81,2.37-1.47,18.42-11.13,36.96-9.09,12.26,1.35,13.87,6.53,43.01,21.81,16.47,8.64,24.7,12.95,32.11,13.93,22.58,2.99,43.24-8.56,47.25-10.9,3.82-2.23,9.7-6.12,24.84-15.15,8.08-4.82,9.8-5.74,12.72-6.66,9.69-3.08,14.43-.51,21.2-4.85,1.65-1.06,7.04-4.51,7.27-9.69.29-6.46-7.62-11.03-8.48-11.51-1.77-.99-9.88-5.16-28.47,1.82-17.37,6.52-18.26,13.14-37.56,22.42-10.21,4.91-17.2,8.27-27.26,8.48-16.55.36-29.85-8.05-33.32-10.3-9.74-6.32-10.27-10.53-20.6-15.75-8.03-4.06-14.96-5.19-20.6-6.06-6.87-1.06-27.63-4.27-50.28,4.24-24.82,9.32-21.93,21.45-44.83,27.26-5.17,1.31-24.79,6.29-39.38-3.63-6.91-4.71-5.78-8.05-14.54-15.15-10.69-8.66-21.81-11.31-30.29-13.33-8.96-2.14-22.16-5.28-38.17-1.21-2.9.74-13.38,3.62-24.23,11.51-9.58,6.97-10.25,11.15-18.17,16.36-10.65,7-21.78,7.57-27.87,7.88-37.58,1.9-50.33-36.17-92.09-36.96-7.31-.14-26.3-.49-42.41,10.9-6.22,4.4-7.91,7.65-16.96,13.33-7.66,4.8-17.2,10.78-29.69,11.51-12.81.75-22.57-4.39-31.5-9.09-15.05-7.92-13.86-12.56-28.47-19.99-7.15-3.64-24.04-12.23-36.35-5.45Z"/><path class="cls-11" d="m122.13,116.51c-1.04.58-8.29,4.56-8.48,10.9-.15,5,4.15,8.68,5.45,9.69,5.73,4.45,13.13,3.75,15.15,3.63,17.77-1.01,29.06,20.51,52.71,30.29,22.63,9.36,54.04,6.92,73.91-7.27,9.57-6.84,11.41-12.79,24.23-18.78,4.63-2.17,20.34-9.51,36.96-4.85,10.68,3,10.7,7.86,26.05,18.17,10.95,7.35,25.84,17.35,44.83,18.17,16.48.71,29.92-5.75,39.38-10.3,11.69-5.62,11.37-8.1,26.66-15.75,15.67-7.84,23.71-11.74,33.93-10.3,6.69.94,12.14,4.06,23.02,10.3,8.58,4.92,8.45,5.97,17.57,11.51,11.25,6.83,18.32,11.12,28.47,13.33,9.32,2.03,16.9,1.36,25.44.61,7.87-.69,14.85-1.31,22.42-4.24,14.55-5.64,15.26-13.62,28.47-21.81,2.37-1.47,18.42-11.13,36.96-9.09,12.26,1.35,13.87,6.53,43.01,21.81,16.47,8.64,24.7,12.95,32.11,13.93,22.58,2.99,43.24-8.56,47.25-10.9,3.82-2.23,9.7-6.12,24.84-15.15,8.08-4.82,9.8-5.74,12.72-6.66,9.69-3.08,14.43-.51,21.2-4.85,1.65-1.06,7.04-4.51,7.27-9.69.29-6.46-7.62-11.03-8.48-11.51-1.77-.99-9.88-5.16-28.47,1.82-17.37,6.52-18.26,13.14-37.56,22.42-10.21,4.91-17.2,8.27-27.26,8.48-16.55.36-29.85-8.05-33.32-10.3-9.74-6.32-10.27-10.53-20.6-15.75-8.03-4.06-14.96-5.19-20.6-6.06-6.87-1.06-27.63-4.27-50.28,4.24-24.82,9.32-21.93,21.45-44.83,27.26-5.17,1.31-24.79,6.29-39.38-3.63-6.91-4.71-5.78-8.05-14.54-15.15-10.69-8.66-21.81-11.31-30.29-13.33-8.96-2.14-22.16-5.28-38.17-1.21-2.9.74-13.38,3.62-24.23,11.51-9.58,6.97-10.25,11.15-18.17,16.36-10.65,7-21.78,7.57-27.87,7.88-37.58,1.9-50.33-36.17-92.09-36.96-7.31-.14-26.3-.49-42.41,10.9-6.22,4.4-7.91,7.65-16.96,13.33-7.66,4.8-17.2,10.78-29.69,11.51-12.81.75-22.57-4.39-31.5-9.09-15.05-7.92-13.86-12.56-28.47-19.99-7.15-3.64-24.04-12.23-36.35-5.45Z"/><path class="cls-4" d="m122.9,116.73c-1.04.58-8.29,4.56-8.48,10.9-.15,5,4.15,8.68,5.45,9.69,5.73,4.45,13.13,3.75,15.15,3.63,17.77-1.01,29.06,20.51,52.71,30.29,22.63,9.36,54.04,6.92,73.91-7.27,9.57-6.84,11.41-12.79,24.23-18.78,4.63-2.17,20.34-9.51,36.96-4.85,10.68,3,10.7,7.86,26.05,18.17,10.95,7.35,25.84,17.35,44.83,18.17,16.48.71,29.92-5.75,39.38-10.3,11.69-5.62,11.37-8.1,26.66-15.75,15.67-7.84,23.71-11.74,33.93-10.3,6.69.94,12.14,4.06,23.02,10.3,8.58,4.92,8.45,5.97,17.57,11.51,11.25,6.83,18.32,11.12,28.47,13.33,9.32,2.03,16.9,1.36,25.44.61,7.87-.69,14.85-1.31,22.42-4.24,14.55-5.64,15.26-13.62,28.47-21.81,2.37-1.47,18.42-11.13,36.96-9.09,12.26,1.35,13.87,6.53,43.01,21.81,16.47,8.64,24.7,12.95,32.11,13.93,22.58,2.99,43.24-8.56,47.25-10.9,3.82-2.23,9.7-6.12,24.84-15.15,8.08-4.82,9.8-5.74,12.72-6.66,9.69-3.08,14.43-.51,21.2-4.85,1.65-1.06,7.04-4.51,7.27-9.69.29-6.46-7.62-11.03-8.48-11.51-1.77-.99-9.88-5.16-28.47,1.82-17.37,6.52-18.26,13.14-37.56,22.42-10.21,4.91-17.2,8.27-27.26,8.48-16.55.36-29.85-8.05-33.32-10.3-9.74-6.32-10.27-10.53-20.6-15.75-8.03-4.06-14.96-5.19-20.6-6.06-6.87-1.06-27.63-4.27-50.28,4.24-24.82,9.32-21.93,21.45-44.83,27.26-5.17,1.31-24.79,6.29-39.38-3.63-6.91-4.71-5.78-8.05-14.54-15.15-10.69-8.66-21.81-11.31-30.29-13.33-8.96-2.14-22.16-5.28-38.17-1.21-2.9.74-13.38,3.62-24.23,11.51-9.58,6.97-10.25,11.15-18.17,16.36-10.65,7-21.78,7.57-27.87,7.88-37.58,1.9-50.33-36.17-92.09-36.96-7.31-.14-26.3-.49-42.41,10.9-6.22,4.4-7.91,7.65-16.96,13.33-7.66,4.8-17.2,10.78-29.69,11.51-12.81.75-22.57-4.39-31.5-9.09-15.05-7.92-13.86-12.56-28.47-19.99-7.15-3.64-24.04-12.23-36.35-5.45Z"/><path class="cls-11" d="m121.84,214.59c-1.04.58-8.29,4.56-8.48,10.9-.15,5,4.15,8.68,5.45,9.69,5.73,4.45,13.13,3.75,15.15,3.63,17.77-1.01,29.06,20.51,52.71,30.29,22.63,9.36,54.04,6.92,73.91-7.27,9.57-6.84,11.41-12.79,24.23-18.78,4.63-2.17,20.34-9.51,36.96-4.85,10.68,3,10.7,7.86,26.05,18.17,10.95,7.35,25.84,17.35,44.83,18.17,16.48.71,29.92-5.75,39.38-10.3,11.69-5.62,11.37-8.1,26.66-15.75,15.67-7.84,23.71-11.74,33.93-10.3,6.69.94,12.14,4.06,23.02,10.3,8.58,4.92,8.45,5.97,17.57,11.51,11.25,6.83,18.32,11.12,28.47,13.33,9.32,2.03,16.9,1.36,25.44.61,7.87-.69,14.85-1.31,22.42-4.24,14.55-5.64,15.26-13.62,28.47-21.81,2.37-1.47,18.42-11.13,36.96-9.09,12.26,1.35,13.87,6.53,43.01,21.81,16.47,8.64,24.7,12.95,32.11,13.93,22.58,2.99,43.24-8.56,47.25-10.9,3.82-2.23,9.7-6.12,24.84-15.15,8.08-4.82,9.8-5.74,12.72-6.66,9.69-3.08,14.43-.51,21.2-4.85,1.65-1.06,7.04-4.51,7.27-9.69.29-6.46-7.62-11.03-8.48-11.51-1.77-.99-9.88-5.16-28.47,1.82-17.37,6.52-18.26,13.14-37.56,22.42-10.21,4.91-17.2,8.27-27.26,8.48-16.55.36-29.85-8.05-33.32-10.3-9.74-6.32-10.27-10.53-20.6-15.75-8.03-4.06-14.96-5.19-20.6-6.06-6.87-1.06-27.63-4.27-50.28,4.24-24.82,9.32-21.93,21.45-44.83,27.26-5.17,1.31-24.79,6.29-39.38-3.63-6.91-4.71-5.78-8.05-14.54-15.15-10.69-8.66-21.81-11.31-30.29-13.33-8.96-2.14-22.16-5.28-38.17-1.21-2.9.74-13.38,3.62-24.23,11.51-9.58,6.97-10.25,11.15-18.17,16.36-10.65,7-21.78,7.57-27.87,7.88-37.58,1.9-50.33-36.17-92.09-36.96-7.31-.14-26.3-.49-42.41,10.9-6.22,4.4-7.91,7.65-16.96,13.33-7.66,4.8-17.2,10.78-29.69,11.51-12.81.75-22.57-4.39-31.5-9.09-15.05-7.92-13.86-12.56-28.47-19.99-7.15-3.64-24.04-12.23-36.35-5.45Z"/><path class="cls-4" d="m122.61,214.82c-1.04.58-8.29,4.56-8.48,10.9-.15,5,4.15,8.68,5.45,9.69,5.73,4.45,13.13,3.75,15.15,3.63,17.77-1.01,29.06,20.51,52.71,30.29,22.63,9.36,54.04,6.92,73.91-7.27,9.57-6.84,11.41-12.79,24.23-18.78,4.63-2.17,20.34-9.51,36.96-4.85,10.68,3,10.7,7.86,26.05,18.17,10.95,7.35,25.84,17.35,44.83,18.17,16.48.71,29.92-5.75,39.38-10.3,11.69-5.62,11.37-8.1,26.66-15.75,15.67-7.84,23.71-11.74,33.93-10.3,6.69.94,12.14,4.06,23.02,10.3,8.58,4.92,8.45,5.97,17.57,11.51,11.25,6.83,18.32,11.12,28.47,13.33,9.32,2.03,16.9,1.36,25.44.61,7.87-.69,14.85-1.31,22.42-4.24,14.55-5.64,15.26-13.62,28.47-21.81,2.37-1.47,18.42-11.13,36.96-9.09,12.26,1.35,13.87,6.53,43.01,21.81,16.47,8.64,24.7,12.95,32.11,13.93,22.58,2.99,43.24-8.56,47.25-10.9,3.82-2.23,9.7-6.12,24.84-15.15,8.08-4.82,9.8-5.74,12.72-6.66,9.69-3.08,14.43-.51,21.2-4.85,1.65-1.06,7.04-4.51,7.27-9.69.29-6.46-7.62-11.03-8.48-11.51-1.77-.99-9.88-5.16-28.47,1.82-17.37,6.52-18.26,13.14-37.56,22.42-10.21,4.91-17.2,8.27-27.26,8.48-16.55.36-29.85-8.05-33.32-10.3-9.74-6.32-10.27-10.53-20.6-15.75-8.03-4.06-14.96-5.19-20.6-6.06-6.87-1.06-27.63-4.27-50.28,4.24-24.82,9.32-21.93,21.45-44.83,27.26-5.17,1.31-24.79,6.29-39.38-3.63-6.91-4.71-5.78-8.05-14.54-15.15-10.69-8.66-21.81-11.31-30.29-13.33-8.96-2.14-22.16-5.28-38.17-1.21-2.9.74-13.38,3.62-24.23,11.51-9.58,6.97-10.25,11.15-18.17,16.36-10.65,7-21.78,7.57-27.87,7.88-37.58,1.9-50.33-36.17-92.09-36.96-7.31-.14-26.3-.49-42.41,10.9-6.22,4.4-7.91,7.65-16.96,13.33-7.66,4.8-17.2,10.78-29.69,11.51-12.81.75-22.57-4.39-31.5-9.09-15.05-7.92-13.86-12.56-28.47-19.99-7.15-3.64-24.04-12.23-36.35-5.45Z"/><path class="cls-11" d="m121.25,312.74c-1.04.58-8.29,4.56-8.48,10.9-.15,5,4.15,8.68,5.45,9.69,5.73,4.45,13.13,3.75,15.15,3.63,17.77-1.01,29.06,20.51,52.71,30.29,22.63,9.36,54.04,6.92,73.91-7.27,9.57-6.84,11.41-12.79,24.23-18.78,4.63-2.17,20.34-9.51,36.96-4.85,10.68,3,10.7,7.86,26.05,18.17,10.95,7.35,25.84,17.35,44.83,18.17,16.48.71,29.92-5.75,39.38-10.3,11.69-5.62,11.37-8.1,26.66-15.75,15.67-7.84,23.71-11.74,33.93-10.3,6.69.94,12.14,4.06,23.02,10.3,8.58,4.92,8.45,5.97,17.57,11.51,11.25,6.83,18.32,11.12,28.47,13.33,9.32,2.03,16.9,1.36,25.44.61,7.87-.69,14.85-1.31,22.42-4.24,14.55-5.64,15.26-13.62,28.47-21.81,2.37-1.47,18.42-11.13,36.96-9.09,12.26,1.35,13.87,6.53,43.01,21.81,16.47,8.64,24.7,12.95,32.11,13.93,22.58,2.99,43.24-8.56,47.25-10.9,3.82-2.23,9.7-6.12,24.84-15.15,8.08-4.82,9.8-5.74,12.72-6.66,9.69-3.08,14.43-.51,21.2-4.85,1.65-1.06,7.04-4.51,7.27-9.69.29-6.46-7.62-11.03-8.48-11.51-1.77-.99-9.88-5.16-28.47,1.82-17.37,6.52-18.26,13.14-37.56,22.42-10.21,4.91-17.2,8.27-27.26,8.48-16.55.36-29.85-8.05-33.32-10.3-9.74-6.32-10.27-10.53-20.6-15.75-8.03-4.06-14.96-5.19-20.6-6.06-6.87-1.06-27.63-4.27-50.28,4.24-24.82,9.32-21.93,21.45-44.83,27.26-5.17,1.31-24.79,6.29-39.38-3.63-6.91-4.71-5.78-8.05-14.54-15.15-10.69-8.66-21.81-11.31-30.29-13.33-8.96-2.14-22.16-5.28-38.17-1.21-2.9.74-13.38,3.62-24.23,11.51-9.58,6.97-10.25,11.15-18.17,16.36-10.65,7-21.78,7.57-27.87,7.88-37.58,1.9-50.33-36.17-92.09-36.96-7.31-.14-26.3-.49-42.41,10.9-6.22,4.4-7.91,7.65-16.96,13.33-7.66,4.8-17.2,10.78-29.69,11.51-12.81.75-22.57-4.39-31.5-9.09-15.05-7.92-13.86-12.56-28.47-19.99-7.15-3.64-24.04-12.23-36.35-5.45Z"/><path class="cls-4" d="m122.03,312.97c-1.04.58-8.29,4.56-8.48,10.9-.15,5,4.15,8.68,5.45,9.69,5.73,4.45,13.13,3.75,15.15,3.63,17.77-1.01,29.06,20.51,52.71,30.29,22.63,9.36,54.04,6.92,73.91-7.27,9.57-6.84,11.41-12.79,24.23-18.78,4.63-2.17,20.34-9.51,36.96-4.85,10.68,3,10.7,7.86,26.05,18.17,10.95,7.35,25.84,17.35,44.83,18.17,16.48.71,29.92-5.75,39.38-10.3,11.69-5.62,11.37-8.1,26.66-15.75,15.67-7.84,23.71-11.74,33.93-10.3,6.69.94,12.14,4.06,23.02,10.3,8.58,4.92,8.45,5.97,17.57,11.51,11.25,6.83,18.32,11.12,28.47,13.33,9.32,2.03,16.9,1.36,25.44.61,7.87-.69,14.85-1.31,22.42-4.24,14.55-5.64,15.26-13.62,28.47-21.81,2.37-1.47,18.42-11.13,36.96-9.09,12.26,1.35,13.87,6.53,43.01,21.81,16.47,8.64,24.7,12.95,32.11,13.93,22.58,2.99,43.24-8.56,47.25-10.9,3.82-2.23,9.7-6.12,24.84-15.15,8.08-4.82,9.8-5.74,12.72-6.66,9.69-3.08,14.43-.51,21.2-4.85,1.65-1.06,7.04-4.51,7.27-9.69.29-6.46-7.62-11.03-8.48-11.51-1.77-.99-9.88-5.16-28.47,1.82-17.37,6.52-18.26,13.14-37.56,22.42-10.21,4.91-17.2,8.27-27.26,8.48-16.55.36-29.85-8.05-33.32-10.3-9.74-6.32-10.27-10.53-20.6-15.75-8.03-4.06-14.96-5.19-20.6-6.06-6.87-1.06-27.63-4.27-50.28,4.24-24.82,9.32-21.93,21.45-44.83,27.26-5.17,1.31-24.79,6.29-39.38-3.63-6.91-4.71-5.78-8.05-14.54-15.15-10.69-8.66-21.81-11.31-30.29-13.33-8.96-2.14-22.16-5.28-38.17-1.21-2.9.74-13.38,3.62-24.23,11.51-9.58,6.97-10.25,11.15-18.17,16.36-10.65,7-21.78,7.57-27.87,7.88-37.58,1.9-50.33-36.17-92.09-36.96-7.31-.14-26.3-.49-42.41,10.9-6.22,4.4-7.91,7.65-16.96,13.33-7.66,4.8-17.2,10.78-29.69,11.51-12.81.75-22.57-4.39-31.5-9.09-15.05-7.92-13.86-12.56-28.47-19.99-7.15-3.64-24.04-12.23-36.35-5.45Z"/><path class="cls-11" d="m122.46,410.89c-1.04.58-8.29,4.56-8.48,10.9-.15,5,4.15,8.68,5.45,9.69,5.73,4.45,13.13,3.75,15.15,3.63,17.77-1.01,29.06,20.51,52.71,30.29,22.63,9.36,54.04,6.92,73.91-7.27,9.57-6.84,11.41-12.79,24.23-18.78,4.63-2.17,20.34-9.51,36.96-4.85,10.68,3,10.7,7.86,26.05,18.17,10.95,7.35,25.84,17.35,44.83,18.17,16.48.71,29.92-5.75,39.38-10.3,11.69-5.62,11.37-8.1,26.66-15.75,15.67-7.84,23.71-11.74,33.93-10.3,6.69.94,12.14,4.06,23.02,10.3,8.58,4.92,8.45,5.97,17.57,11.51,11.25,6.83,18.32,11.12,28.47,13.33,9.32,2.03,16.9,1.36,25.44.61,7.87-.69,14.85-1.31,22.42-4.24,14.55-5.64,15.26-13.62,28.47-21.81,2.37-1.47,18.42-11.13,36.96-9.09,12.26,1.35,13.87,6.53,43.01,21.81,16.47,8.64,24.7,12.95,32.11,13.93,22.58,2.99,43.24-8.56,47.25-10.9,3.82-2.23,9.7-6.12,24.84-15.15,8.08-4.82,9.8-5.74,12.72-6.66,9.69-3.08,14.43-.51,21.2-4.85,1.65-1.06,7.04-4.51,7.27-9.69.29-6.46-7.62-11.03-8.48-11.51-1.77-.99-9.88-5.16-28.47,1.82-17.37,6.52-18.26,13.14-37.56,22.42-10.21,4.91-17.2,8.27-27.26,8.48-16.55.36-29.85-8.05-33.32-10.3-9.74-6.32-10.27-10.53-20.6-15.75-8.03-4.06-14.96-5.19-20.6-6.06-6.87-1.06-27.63-4.27-50.28,4.24-24.82,9.32-21.93,21.45-44.83,27.26-5.17,1.31-24.79,6.29-39.38-3.63-6.91-4.71-5.78-8.05-14.54-15.15-10.69-8.66-21.81-11.31-30.29-13.33-8.96-2.14-22.16-5.28-38.17-1.21-2.9.74-13.38,3.62-24.23,11.51-9.58,6.97-10.25,11.15-18.17,16.36-10.65,7-21.78,7.57-27.87,7.88-37.58,1.9-50.33-36.17-92.09-36.96-7.31-.14-26.3-.49-42.41,10.9-6.22,4.4-7.91,7.65-16.96,13.33-7.66,4.8-17.2,10.78-29.69,11.51-12.81.75-22.57-4.39-31.5-9.09-15.05-7.92-13.86-12.56-28.47-19.99-7.15-3.64-24.04-12.23-36.35-5.45Z"/><path class="cls-4" d="m123.24,411.11c-1.04.58-8.29,4.56-8.48,10.9-.15,5,4.15,8.68,5.45,9.69,5.73,4.45,13.13,3.75,15.15,3.63,17.77-1.01,29.06,20.51,52.71,30.29,22.63,9.36,54.04,6.92,73.91-7.27,9.57-6.84,11.41-12.79,24.23-18.78,4.63-2.17,20.34-9.51,36.96-4.85,10.68,3,10.7,7.86,26.05,18.17,10.95,7.35,25.84,17.35,44.83,18.17,16.48.71,29.92-5.75,39.38-10.3,11.69-5.62,11.37-8.1,26.66-15.75,15.67-7.84,23.71-11.74,33.93-10.3,6.69.94,12.14,4.06,23.02,10.3,8.58,4.92,8.45,5.97,17.57,11.51,11.25,6.83,18.32,11.12,28.47,13.33,9.32,2.03,16.9,1.36,25.44.61,7.87-.69,14.85-1.31,22.42-4.24,14.55-5.64,15.26-13.62,28.47-21.81,2.37-1.47,18.42-11.13,36.96-9.09,12.26,1.35,13.87,6.53,43.01,21.81,16.47,8.64,24.7,12.95,32.11,13.93,22.58,2.99,43.24-8.56,47.25-10.9,3.82-2.23,9.7-6.12,24.84-15.15,8.08-4.82,9.8-5.74,12.72-6.66,9.69-3.08,14.43-.51,21.2-4.85,1.65-1.06,7.04-4.51,7.27-9.69.29-6.46-7.62-11.03-8.48-11.51-1.77-.99-9.88-5.16-28.47,1.82-17.37,6.52-18.26,13.14-37.56,22.42-10.21,4.91-17.2,8.27-27.26,8.48-16.55.36-29.85-8.05-33.32-10.3-9.74-6.32-10.27-10.53-20.6-15.75-8.03-4.06-14.96-5.19-20.6-6.06-6.87-1.06-27.63-4.27-50.28,4.24-24.82,9.32-21.93,21.45-44.83,27.26-5.17,1.31-24.79,6.29-39.38-3.63-6.91-4.71-5.78-8.05-14.54-15.15-10.69-8.66-21.81-11.31-30.29-13.33-8.96-2.14-22.16-5.28-38.17-1.21-2.9.74-13.38,3.62-24.23,11.51-9.58,6.97-10.25,11.15-18.17,16.36-10.65,7-21.78,7.57-27.87,7.88-37.58,1.9-50.33-36.17-92.09-36.96-7.31-.14-26.3-.49-42.41,10.9-6.22,4.4-7.91,7.65-16.96,13.33-7.66,4.8-17.2,10.78-29.69,11.51-12.81.75-22.57-4.39-31.5-9.09-15.05-7.92-13.86-12.56-28.47-19.99-7.15-3.64-24.04-12.23-36.35-5.45Z"/><path class="cls-11" d="m120.75,504.02c-1.04.58-8.29,4.56-8.48,10.9-.15,5,4.15,8.68,5.45,9.69,5.73,4.45,13.13,3.75,15.15,3.63,17.77-1.01,29.06,20.51,52.71,30.29,22.63,9.36,54.04,6.92,73.91-7.27,9.57-6.84,11.41-12.79,24.23-18.78,4.63-2.17,20.34-9.51,36.96-4.85,10.68,3,10.7,7.86,26.05,18.17,10.95,7.35,25.84,17.35,44.83,18.17,16.48.71,29.92-5.75,39.38-10.3,11.69-5.62,11.37-8.1,26.66-15.75,15.67-7.84,23.71-11.74,33.93-10.3,6.69.94,12.14,4.06,23.02,10.3,8.58,4.92,8.45,5.97,17.57,11.51,11.25,6.83,18.32,11.12,28.47,13.33,9.32,2.03,16.9,1.36,25.44.61,7.87-.69,14.85-1.31,22.42-4.24,14.55-5.64,15.26-13.62,28.47-21.81,2.37-1.47,18.42-11.13,36.96-9.09,12.26,1.35,13.87,6.53,43.01,21.81,16.47,8.64,24.7,12.95,32.11,13.93,22.58,2.99,43.24-8.56,47.25-10.9,3.82-2.23,9.7-6.12,24.84-15.15,8.08-4.82,9.8-5.74,12.72-6.66,9.69-3.08,14.43-.51,21.2-4.85,1.65-1.06,7.04-4.51,7.27-9.69.29-6.46-7.62-11.03-8.48-11.51-1.77-.99-9.88-5.16-28.47,1.82-17.37,6.52-18.26,13.14-37.56,22.42-10.21,4.91-17.2,8.27-27.26,8.48-16.55.36-29.85-8.05-33.32-10.3-9.74-6.32-10.27-10.53-20.6-15.75-8.03-4.06-14.96-5.19-20.6-6.06-6.87-1.06-27.63-4.27-50.28,4.24-24.82,9.32-21.93,21.45-44.83,27.26-5.17,1.31-24.79,6.29-39.38-3.63-6.91-4.71-5.78-8.05-14.54-15.15-10.69-8.66-21.81-11.31-30.29-13.33-8.96-2.14-22.16-5.28-38.17-1.21-2.9.74-13.38,3.62-24.23,11.51-9.58,6.97-10.25,11.15-18.17,16.36-10.65,7-21.78,7.57-27.87,7.88-37.58,1.9-50.33-36.17-92.09-36.96-7.31-.14-26.3-.49-42.41,10.9-6.22,4.4-7.91,7.65-16.96,13.33-7.66,4.8-17.2,10.78-29.69,11.51-12.81.75-22.57-4.39-31.5-9.09-15.05-7.92-13.86-12.56-28.47-19.99-7.15-3.64-24.04-12.23-36.35-5.45Z"/><path class="cls-4" d="m121.52,504.24c-1.04.58-8.29,4.56-8.48,10.9-.15,5,4.15,8.68,5.45,9.69,5.73,4.45,13.13,3.75,15.15,3.63,17.77-1.01,29.06,20.51,52.71,30.29,22.63,9.36,54.04,6.92,73.91-7.27,9.57-6.84,11.41-12.79,24.23-18.78,4.63-2.17,20.34-9.51,36.96-4.85,10.68,3,10.7,7.86,26.05,18.17,10.95,7.35,25.84,17.35,44.83,18.17,16.48.71,29.92-5.75,39.38-10.3,11.69-5.62,11.37-8.1,26.66-15.75,15.67-7.84,23.71-11.74,33.93-10.3,6.69.94,12.14,4.06,23.02,10.3,8.58,4.92,8.45,5.97,17.57,11.51,11.25,6.83,18.32,11.12,28.47,13.33,9.32,2.03,16.9,1.36,25.44.61,7.87-.69,14.85-1.31,22.42-4.24,14.55-5.64,15.26-13.62,28.47-21.81,2.37-1.47,18.42-11.13,36.96-9.09,12.26,1.35,13.87,6.53,43.01,21.81,16.47,8.64,24.7,12.95,32.11,13.93,22.58,2.99,43.24-8.56,47.25-10.9,3.82-2.23,9.7-6.12,24.84-15.15,8.08-4.82,9.8-5.74,12.72-6.66,9.69-3.08,14.43-.51,21.2-4.85,1.65-1.06,7.04-4.51,7.27-9.69.29-6.46-7.62-11.03-8.48-11.51-1.77-.99-9.88-5.16-28.47,1.82-17.37,6.52-18.26,13.14-37.56,22.42-10.21,4.91-17.2,8.27-27.26,8.48-16.55.36-29.85-8.05-33.32-10.3-9.74-6.32-10.27-10.53-20.6-15.75-8.03-4.06-14.96-5.19-20.6-6.06-6.87-1.06-27.63-4.27-50.28,4.24-24.82,9.32-21.93,21.45-44.83,27.26-5.17,1.31-24.79,6.29-39.38-3.63-6.91-4.71-5.78-8.05-14.54-15.15-10.69-8.66-21.81-11.31-30.29-13.33-8.96-2.14-22.16-5.28-38.17-1.21-2.9.74-13.38,3.62-24.23,11.51-9.58,6.97-10.25,11.15-18.17,16.36-10.65,7-21.78,7.57-27.87,7.88-37.58,1.9-50.33-36.17-92.09-36.96-7.31-.14-26.3-.49-42.41,10.9-6.22,4.4-7.91,7.65-16.96,13.33-7.66,4.8-17.2,10.78-29.69,11.51-12.81.75-22.57-4.39-31.5-9.09-15.05-7.92-13.86-12.56-28.47-19.99-7.15-3.64-24.04-12.23-36.35-5.45Z"/><rect class="cls-10" x="328" y="23" width="73.35" height="658.01"/><rect class="cls-10" x="179.9" y="23" width="116.37" height="657.3"/><rect class="cls-5" x="245.48" y="270.55" width="486.63" height="107.9"/><rect class="cls-1" x="254.65" y="277.6" width="466.18" height="93.53"/><rect class="cls-5" x="264.53" y="285.36" width="447.84" height="78.54"/><text class="cls-2" transform="translate(292.66 346.41)"><tspan x="0" y="0">MINCED PORK</tspan></text></svg>