<?xml version="1.0" encoding="UTF-8"?>
<svg id="Layer_1" data-name="Layer 1" xmlns="http://www.w3.org/2000/svg" viewBox="0 0 124.2 264.38">
  <defs>
    <style>
      .cls-1 {
        fill: #edf6fb;
      }

      .cls-2 {
        fill: #9dacb3;
      }

      .cls-3 {
        fill: #99bed0;
      }

      .cls-4 {
        fill: #878787;
      }

      .cls-5 {
        fill: #262626;
      }

      .cls-6 {
        fill: #5a6265;
      }

      .cls-7 {
        fill: #494949;
      }
    </style>
  </defs>
  <path class="cls-3" d="m59.87,264.29c-7.22.19-18.66-.45-31.43-5.5-7.72-3.05-13.79-6.88-18.23-10.19-1.77-1.47-4.14-3.77-6.29-7.07-2.15-3.31-3.3-6.42-3.93-8.64.75-24.28,2.02-49.44,3.93-75.42,2.24-30.59,5.19-59.95,8.64-87.99,1.18-9.55,3.35-14.23,5.54-17.1,0,0,1.04-1.33,2.32-2.54,6.06-5.74,17.05-8.46,38.66-9.45,15.4-.71,21.08.15,24.36.79,8.25,1.59,14.27,4.23,18.86,8.64.5.48,1.35,1.31,2.32,2.54,5.3,6.73,5.45,14.62,5.54,17.1.43,12.5,5.15,64.97,8.64,87.99,0,0,8.83,58.2,3.93,75.42-.57,2.01-1.39,3.91-1.39,3.91-.26.6-1.13,2.57-2.54,4.73,0,0-2.45,3.77-6.29,7.07-13.66,11.77-35.35,14.93-35.35,14.93-5.76.84-14.18,1.45-24.36,0"/>
  <path class="cls-5" d="m4.87,230.97l5.39-106.28c2.63,2.37,7,5.71,13.02,7.89,5.93,2.15,11.07,2.3,14.37,2.1,4.29-.81,8.78-1.52,13.47-2.1,7.62-.94,14.82-1.43,21.55-1.58,1.77-.94,3.87-1.88,6.29-2.63,3.99-1.24,7.55-1.58,10.33-1.58h7.63c1.81-.14,4.82-.65,8.08-2.63,2.5-1.52,4.27-3.36,5.39-4.74,2.54,36.13,5.09,72.26,7.63,108.38-1.05,2.59-2.38,5.26-4.04,7.89-9.58,15.16-24.4,19.61-30.98,21.05-18.34,4.05-33.08,2.4-42.2.53-11.85-2.43-24.88-5.33-32.32-17.89-1.91-3.23-2.98-6.29-3.59-8.42Z"/>
  <path class="cls-7" d="m4.84,227.48l4.27-102.87c2.09,2.29,5.54,5.53,10.31,7.64,4.7,2.08,8.77,2.23,11.38,2.04,3.4-.78,6.95-1.47,10.67-2.04,6.03-.91,11.74-1.38,17.07-1.53,1.4-.91,3.07-1.82,4.98-2.55,3.16-1.2,5.98-1.53,8.18-1.53h6.04c1.43-.14,3.82-.63,6.4-2.55,1.98-1.47,3.38-3.25,4.27-4.58,2.01,34.97,4.03,69.94,6.04,104.91-.83,2.51-1.88,5.09-3.2,7.64-7.59,14.68-19.32,18.98-24.53,20.37-14.53,3.92-26.19,2.32-33.42.51-9.39-2.35-19.71-5.16-25.6-17.32-1.51-3.12-2.36-6.09-2.84-8.15Z"/>
  <path class="cls-4" d="m9.65,125.86c.64,5.02,6.1,8.23,7.89,9.29,4.67,2.75,9.1,2.76,13.92,2.58,10.77-.41,17.07-.65,28.3-3.1,12.26-2.67,14.06-4.4,21.34-4.13,6.1.23,7.37,1.54,12.53,1.03,7.26-.72,17.71-4.62,18.09-10.32.34-5.05-7.21-11.18-13.92-11.87-3.33-.34-4.49.86-11.13,1.03,0,0-4.23.11-9.28-.52-10.49-1.3-15.02-5.32-22.73-7.22-14.4-3.55-26.78,3.5-29.69,5.16-2.27,1.29-16.42,9.35-15.31,18.06Z"/>
  <ellipse class="cls-1" cx="61.44" cy="56.48" rx="45.57" ry="16.11"/>
  <path class="cls-6" d="m17.93,43.59c-.68.24-.43,2.48-.26,4.88.17,2.3.33,5.64.26,9.82,1.58,1.27,3.71,2.83,6.37,4.41,0,0,4.31,2.56,9.31,4.41,11.4,4.22,25.96,3.92,25.96,3.92,21.25-.44,44.83-7.16,45.55-14.69.1-1.09-.21-2.82,0-7.35.19-4.25.62-6.11,0-6.37-.95-.4-2.69,3.66-5.88,6.86-4.26,4.27-9.39,5.27-18.12,6.86-9.52,1.73-17.12,1.58-20.08,1.47-20.82-.76-37.78-7.7-41.12-12.43-.24-.34-1.34-1.99-1.98-1.77Z"/>
  <ellipse class="cls-2" cx="61.28" cy="43.59" rx="43.84" ry="15.67"/>
  <path class="cls-6" d="m22.34,12.24c-.55.16-.54,1.74-.49,3.92.07,2.76.2,6.42.49,10.78v7.35c0,2.69-.03,2.76,0,3.43.08,2.09.12,3.13.49,3.92.62,1.33,1.81,1.97,3.92,2.94,5.24,2.42,8.33,3.43,8.33,3.43,4.08,1.34,6.12,2.01,7.84,2.45,6.04,1.56,11.02,1.55,20.08,1.47,5.92-.05,12.11-.37,19.1-1.47,2.62-.41,6.49-1.12,10.78-3.43,2.4-1.29,4.76-2.6,6.37-5.39,1.82-3.14,1.65-6.37,1.47-7.84.19-1.75.43-4.47.49-7.84.03-1.93-.03-1.95,0-3.92.09-5.99.71-8.57,0-8.82-.59-.21-1.24,1.5-3.43,3.43-.47.42-1.74,1.48-4.9,2.94-5.58,2.57-12.9,4.45-14.69,4.9-4.57.33-9.14.65-13.71.98-1.75.04-4.48.08-7.84,0-8.18-.18-13.89-.35-20.57-2.45-3.97-1.25-6.46-2.06-8.82-4.41-2.94-2.94-4.02-6.63-4.9-6.37Z"/>
  <ellipse class="cls-2" cx="61.77" cy="13.96" rx="39.92" ry="13.96"/>
  <ellipse class="cls-6" cx="39.13" cy="11.75" rx="3.07" ry="1.47"/>
  <ellipse class="cls-6" cx="48.53" cy="7.01" rx="3.07" ry="1.47"/>
  <ellipse class="cls-6" cx="51.66" cy="12.32" rx="3.07" ry="1.47"/>
  <ellipse class="cls-6" cx="61.06" cy="7.58" rx="3.07" ry="1.47"/>
  <ellipse class="cls-6" cx="65.48" cy="12.53" rx="3.07" ry="1.47"/>
  <ellipse class="cls-6" cx="74.88" cy="7.79" rx="3.07" ry="1.47"/>
  <ellipse class="cls-6" cx="78.01" cy="13.1" rx="3.07" ry="1.47"/>
  <ellipse class="cls-6" cx="87.41" cy="8.35" rx="3.07" ry="1.47"/>
  <ellipse class="cls-6" cx="36.14" cy="20.96" rx="3.07" ry="1.47"/>
  <ellipse class="cls-6" cx="45.54" cy="16.22" rx="3.07" ry="1.47"/>
  <ellipse class="cls-6" cx="48.68" cy="21.53" rx="3.07" ry="1.47"/>
  <ellipse class="cls-6" cx="58.07" cy="16.78" rx="3.07" ry="1.47"/>
  <ellipse class="cls-6" cx="62.49" cy="21.73" rx="3.07" ry="1.47"/>
  <ellipse class="cls-6" cx="71.89" cy="16.99" rx="3.07" ry="1.47"/>
  <ellipse class="cls-6" cx="75.02" cy="22.3" rx="3.07" ry="1.47"/>
  <ellipse class="cls-6" cx="84.42" cy="17.56" rx="3.07" ry="1.47"/>
</svg>