<?xml version="1.0" encoding="UTF-8"?><svg id="Layer_1" xmlns="http://www.w3.org/2000/svg" xmlns:xlink="http://www.w3.org/1999/xlink" viewBox="0 0 2000 2000"><defs><style>.cls-1{fill:none;}.cls-2{fill:url(#New_Pattern);}.cls-3{fill:#fff;stroke:#780116;stroke-miterlimit:10;stroke-width:12px;}</style><pattern id="New_Pattern" x="0" y="0" width="510" height="540" patternUnits="userSpaceOnUse" viewBox="0 0 510 540"><g><rect class="cls-1" width="510" height="540"/><g><circle class="cls-3" cx="765" cy="-270" r="336.5"/><circle class="cls-3" cx="765" cy="-270" r="298.64"/></g><g><circle class="cls-3" cx="255" cy="-270" r="336.5"/><circle class="cls-3" cx="255" cy="-270" r="298.64"/></g><g><circle class="cls-3" cx="-255" cy="-270" r="336.5"/><circle class="cls-3" cx="-255" cy="-270" r="298.64"/></g><g><circle class="cls-3" cx="510" cy="0" r="336.5"/><circle class="cls-3" cx="510" cy="0" r="298.64"/><circle class="cls-3" cx="510" cy="0" r="260.79"/><circle class="cls-3" cx="510" cy="0" r="222.93"/><circle class="cls-3" cx="510" cy="0" r="185.07"/><circle class="cls-3" cx="510" cy="0" r="147.21"/><circle class="cls-3" cx="510" cy="0" r="109.36"/><circle class="cls-3" cx="510" cy="0" r="71.5"/></g><g><circle class="cls-3" cx="0" cy="0" r="336.5"/><circle class="cls-3" cx="0" cy="0" r="298.64"/><circle class="cls-3" cx="0" cy="0" r="260.79"/><circle class="cls-3" cx="0" cy="0" r="222.93"/><circle class="cls-3" cx="0" cy="0" r="185.07"/><circle class="cls-3" cx="0" cy="0" r="147.21"/><circle class="cls-3" cx="0" cy="0" r="109.36"/><circle class="cls-3" cx="0" cy="0" r="71.5"/></g><g><circle class="cls-3" cx="765" cy="270" r="336.5"/><circle class="cls-3" cx="765" cy="270" r="298.64"/><circle class="cls-3" cx="765" cy="270" r="260.79"/></g><g><circle class="cls-3" cx="255" cy="270" r="336.5"/><circle class="cls-3" cx="255" cy="270" r="298.64"/><circle class="cls-3" cx="255" cy="270" r="260.79"/><circle class="cls-3" cx="255" cy="270" r="222.93"/><circle class="cls-3" cx="255" cy="270" r="185.07"/><circle class="cls-3" cx="255" cy="270" r="147.21"/><circle class="cls-3" cx="255" cy="270" r="109.36"/><circle class="cls-3" cx="255" cy="270" r="71.5"/></g><g><circle class="cls-3" cx="-255" cy="270" r="336.5"/><circle class="cls-3" cx="-255" cy="270" r="298.64"/><circle class="cls-3" cx="-255" cy="270" r="260.79"/></g><g><circle class="cls-3" cx="510" cy="540" r="336.5"/><circle class="cls-3" cx="510" cy="540" r="298.64"/><circle class="cls-3" cx="510" cy="540" r="260.79"/><circle class="cls-3" cx="510" cy="540" r="222.93"/><circle class="cls-3" cx="510" cy="540" r="185.07"/><circle class="cls-3" cx="510" cy="540" r="147.21"/><circle class="cls-3" cx="510" cy="540" r="109.36"/><circle class="cls-3" cx="510" cy="540" r="71.5"/></g><g><circle class="cls-3" cx="0" cy="540" r="336.5"/><circle class="cls-3" cx="0" cy="540" r="298.64"/><circle class="cls-3" cx="0" cy="540" r="260.79"/><circle class="cls-3" cx="0" cy="540" r="222.93"/><circle class="cls-3" cx="0" cy="540" r="185.07"/><circle class="cls-3" cx="0" cy="540" r="147.21"/><circle class="cls-3" cx="0" cy="540" r="109.36"/><circle class="cls-3" cx="0" cy="540" r="71.5"/></g><g><circle class="cls-3" cx="765" cy="810" r="336.5"/><circle class="cls-3" cx="765" cy="810" r="298.64"/></g><g><circle class="cls-3" cx="255" cy="810" r="336.5"/><circle class="cls-3" cx="255" cy="810" r="298.64"/></g><g><circle class="cls-3" cx="-255" cy="810" r="336.5"/><circle class="cls-3" cx="-255" cy="810" r="298.64"/></g></g></pattern></defs><rect class="cls-2" width="2000" height="2000"/></svg>