<?xml version="1.0" encoding="UTF-8"?>
<svg id="Layer_1" data-name="Layer 1" xmlns="http://www.w3.org/2000/svg" viewBox="0 0 278.17 592.11">
  <defs>
    <style>
      .cls-1 {
        fill: #ebf3f6;
      }

      .cls-2 {
        fill: #fff;
      }

      .cls-3 {
        fill: #edf6fb;
      }

      .cls-4 {
        fill: #9dacb3;
      }

      .cls-5 {
        fill: #cddfeb;
      }

      .cls-6 {
        fill: #99bed0;
      }

      .cls-7 {
        fill: #5a6265;
      }
    </style>
  </defs>
  <path class="cls-6" d="m134.09,591.91c-16.17.43-41.8-1.02-70.38-12.32-17.3-6.84-30.89-15.4-40.83-22.83-3.97-3.3-9.27-8.45-14.08-15.84-4.82-7.41-7.39-14.38-8.8-19.36,1.68-54.37,4.53-110.73,8.8-168.92,5.02-68.52,11.61-134.27,19.36-197.08,2.64-21.39,7.5-31.88,12.4-38.3,0,0,2.33-2.97,5.2-5.69,13.57-12.86,38.19-18.94,86.58-21.16,34.5-1.59,47.2.34,54.55,1.76,18.47,3.56,31.96,9.47,42.23,19.36,1.12,1.08,3.03,2.93,5.2,5.69,11.86,15.08,12.21,32.73,12.4,38.3.96,27.99,11.53,145.5,19.36,197.08,0,0,19.77,130.34,8.8,168.92-1.28,4.5-3.12,8.76-3.12,8.76-.58,1.35-2.54,5.76-5.68,10.59,0,0-5.49,8.44-14.08,15.84-30.6,26.35-79.18,33.43-79.18,33.43-12.91,1.88-31.75,3.25-54.55,0"/>
  <path class="cls-5" d="m10.92,517.3l12.07-238.03c5.9,5.31,15.68,12.79,29.16,17.68,13.28,4.81,24.8,5.15,32.18,4.71,9.6-1.81,19.67-3.41,30.16-4.71,17.06-2.12,33.2-3.19,48.26-3.54,3.96-2.11,8.67-4.21,14.08-5.89,8.93-2.78,16.9-3.53,23.13-3.54h17.09c4.05-.31,10.79-1.46,18.1-5.89,5.6-3.4,9.56-7.53,12.07-10.61,5.7,80.91,11.4,161.83,17.09,242.74-2.36,5.8-5.32,11.77-9.05,17.68-21.46,33.96-54.65,43.92-69.38,47.13-41.08,9.07-74.08,5.37-94.52,1.18-26.55-5.44-55.73-11.93-72.4-40.06-4.28-7.23-6.68-14.1-8.04-18.85Z"/>
  <path class="cls-1" d="m10.84,509.48l9.56-230.4c4.67,5.14,12.42,12.38,23.09,17.11,10.52,4.66,19.64,4.99,25.48,4.56,7.61-1.75,15.57-3.3,23.89-4.56,13.51-2.05,26.29-3.09,38.22-3.42,3.14-2.04,6.87-4.07,11.15-5.7,7.07-2.69,13.39-3.42,18.31-3.42h13.54c3.21-.3,8.55-1.41,14.33-5.7,4.44-3.29,7.57-7.29,9.56-10.27,4.51,78.32,9.02,156.64,13.54,234.96-1.87,5.61-4.21,11.39-7.17,17.11-16.99,32.87-43.28,42.51-54.94,45.62-32.53,8.78-58.66,5.2-74.85,1.14-21.02-5.27-44.13-11.55-57.33-38.78-3.39-7-5.29-13.65-6.37-18.25Z"/>
  <path class="cls-2" d="m21.61,281.89c1.43,11.25,13.65,18.44,17.66,20.8,10.46,6.16,20.37,6.19,31.17,5.78,24.11-.92,38.23-1.46,63.38-6.93,27.45-5.97,31.49-9.86,47.8-9.24,13.66.51,16.51,3.46,28.05,2.31,16.26-1.62,39.65-10.34,40.52-23.11.77-11.3-16.14-25.04-31.17-26.58-7.46-.76-10.06,1.92-24.94,2.31,0,0-9.48.25-20.78-1.16-23.5-2.92-33.65-11.92-50.91-16.18-32.24-7.96-59.99,7.85-66.5,11.56-5.08,2.89-36.77,20.95-34.29,40.45Z"/>
  <ellipse class="cls-3" cx="137.61" cy="126.5" rx="102.06" ry="36.07"/>
  <path class="cls-7" d="m40.17,97.63c-1.52.53-.97,5.55-.58,10.93.38,5.16.74,12.63.58,21.98,3.54,2.84,8.31,6.34,14.26,9.87,0,0,9.66,5.73,20.84,9.87,25.53,9.45,58.14,8.78,58.14,8.78,47.6-.99,100.39-16.03,102.02-32.91.23-2.43-.46-6.31,0-16.45.43-9.51,1.39-13.67,0-14.26-2.13-.9-6.02,8.2-13.16,15.36-9.54,9.56-21.03,11.81-40.59,15.36-21.33,3.87-38.35,3.53-44.97,3.29-46.64-1.71-84.61-17.24-92.09-27.85-.53-.76-3.01-4.46-4.44-3.96Z"/>
  <ellipse class="cls-4" cx="137.25" cy="97.63" rx="98.18" ry="35.1"/>
  <path class="cls-7" d="m50.04,27.42c-1.24.36-1.22,3.9-1.1,8.78.15,6.18.46,14.37,1.1,24.13v16.45c-.02,6.02-.06,6.18,0,7.68.19,4.67.28,7.01,1.1,8.78,1.38,2.98,4.05,4.4,8.78,6.58,11.74,5.41,18.65,7.68,18.65,7.68,9.13,2.99,13.7,4.49,17.55,5.48,13.53,3.49,24.68,3.46,44.97,3.29,13.25-.11,27.13-.82,42.78-3.29,5.87-.93,14.53-2.5,24.13-7.68,5.37-2.9,10.65-5.83,14.26-12.07,4.08-7.04,3.69-14.26,3.29-17.55.43-3.93.96-10,1.1-17.55.08-4.32-.06-4.38,0-8.78.19-13.42,1.58-19.19,0-19.74-1.32-.46-2.78,3.36-7.68,7.68-1.06.94-3.9,3.32-10.97,6.58-12.5,5.76-28.89,9.96-32.91,10.97-10.24.73-20.48,1.46-30.71,2.19-3.92.09-10.04.17-17.55,0-18.32-.41-31.1-.79-46.07-5.48-8.89-2.79-14.48-4.62-19.74-9.87-6.59-6.58-8.99-14.84-10.97-14.26Z"/>
  <ellipse class="cls-4" cx="138.34" cy="31.26" rx="89.4" ry="31.26"/>
  <ellipse class="cls-7" cx="87.63" cy="26.33" rx="6.88" ry="3.29"/>
  <ellipse class="cls-7" cx="108.68" cy="15.71" rx="6.88" ry="3.29"/>
  <ellipse class="cls-7" cx="115.71" cy="27.6" rx="6.88" ry="3.29"/>
  <ellipse class="cls-7" cx="136.76" cy="16.98" rx="6.88" ry="3.29"/>
  <ellipse class="cls-7" cx="146.65" cy="28.06" rx="6.88" ry="3.29"/>
  <ellipse class="cls-7" cx="167.7" cy="17.44" rx="6.88" ry="3.29"/>
  <ellipse class="cls-7" cx="174.72" cy="29.33" rx="6.88" ry="3.29"/>
  <ellipse class="cls-7" cx="195.77" cy="18.71" rx="6.88" ry="3.29"/>
  <ellipse class="cls-7" cx="80.94" cy="46.94" rx="6.88" ry="3.29"/>
  <ellipse class="cls-7" cx="101.99" cy="36.32" rx="6.88" ry="3.29"/>
  <ellipse class="cls-7" cx="109.02" cy="48.21" rx="6.88" ry="3.29"/>
  <ellipse class="cls-7" cx="130.07" cy="37.59" rx="6.88" ry="3.29"/>
  <ellipse class="cls-7" cx="139.95" cy="48.67" rx="6.88" ry="3.29"/>
  <ellipse class="cls-7" cx="161" cy="38.05" rx="6.88" ry="3.29"/>
  <ellipse class="cls-7" cx="168.03" cy="49.94" rx="6.88" ry="3.29"/>
  <ellipse class="cls-7" cx="189.08" cy="39.32" rx="6.88" ry="3.29"/>
</svg>