<?xml version="1.0" encoding="UTF-8"?>
<svg id="Layer_1" data-name="Layer 1" xmlns="http://www.w3.org/2000/svg" viewBox="0 0 1001.62 523.73">
  <defs>
    <style>
      .cls-1 {
        fill: #ecb941;
      }

      .cls-2 {
        fill: #fff;
      }

      .cls-3 {
        fill: #ffedba;
      }

      .cls-4 {
        fill: #ffdf73;
      }

      .cls-5 {
        fill: #ffd269;
      }
    </style>
  </defs>
  <g>
    <g>
      <path class="cls-2" d="m932.78,213.3c-3.28-4.93-8.06-8.96-13.94-11.92,4.89,2.66,8.9,6.14,11.73,10.31,7.24,10.68,8.33,28.17-.43,38.92-11.79,14.48-36.17,10.26-49.17,8-32.27-5.59-53.64-28.56-57.92-33.17-.66-.7-1.19-1.29-1.56-1.71l-4.9,2.74c.4.46,1.01,1.15,1.77,1.99,4.55,4.98,27.22,29.81,61.54,35.79,13.83,2.41,39.75,6.93,52.33-8.79,9.34-11.66,8.23-30.6.55-42.16Z"/>
      <path class="cls-2" d="m902.92,273.27c-9.05,0-17.74-1.52-24.13-2.63-23.54-4.1-46.7-17.53-65.23-37.81-.81-.88-1.45-1.62-1.87-2.1l-5.28-6.04,16.46-9.19,3.47,3.89c.35.39.85.95,1.46,1.61,15.58,16.75,34.85,27.82,54.27,31.19,11.75,2.04,33.63,5.83,43.02-5.7,6.92-8.5,5.64-22.98.09-31.17-2.21-3.26-5.39-6.03-9.45-8.24l6.03-11.52c7.02,3.53,12.55,8.28,16.43,14.13,8.69,13.09,10.74,35.3-.89,49.82-8.69,10.86-21.88,13.76-34.39,13.76Z"/>
    </g>
    <g>
      <path class="cls-2" d="m880.97,258.61c13,2.25,37.38,6.48,49.17-8,8.75-10.75,7.67-28.23.43-38.92-2.83-4.17-6.84-7.65-11.73-10.31-5.56-3.02-12.27-4.98-19.71-5.66,10.56,1.65,19.12,6.36,23.86,13.25,6.27,9.12,7.23,24.03-.31,33.18-10.17,12.33-31.24,8.69-42.48,6.75-27.89-4.81-46.39-24.42-50.1-28.35-.41-.44-.76-.82-1.05-1.14l-7.68,4.2s.08.09.11.13c.37.42.9,1.01,1.56,1.71,4.29,4.61,25.65,27.57,57.92,33.17Z"/>
      <path class="cls-2" d="m902.75,267.49c-8.59,0-16.84-1.43-22.9-2.48h0c-22.21-3.85-44.07-16.33-61.57-35.14-.69-.75-1.25-1.37-1.65-1.81l-5.52-6.25,19.3-10.55,3.44,3.78c.27.29.59.65.97,1.05,13.36,14.17,29.86,23.54,46.48,26.41,9.99,1.72,28.59,4.93,36.36-4.48,5.68-6.89,4.57-18.67-.03-25.35-3.71-5.39-10.64-9.13-19.51-10.51l1.6-12.89c8.31.77,15.78,2.93,22.22,6.43,5.91,3.21,10.62,7.37,14,12.37,8.31,12.27,10.3,33.08-.77,46.67-8.21,10.08-20.63,12.78-32.42,12.78Zm-21.28-11.79l-.5,2.9.5-2.9Z"/>
    </g>
    <g>
      <path class="cls-2" d="m830.1,220.54c3.71,3.93,22.2,23.54,50.1,28.35,11.24,1.94,32.31,5.57,42.48-6.75,7.55-9.15,6.59-24.06.31-33.18-4.74-6.89-13.3-11.6-23.86-13.25-12.14-1.9-26.93.24-41.65,7.74l-28.83,15.51c.11.12.25.27.39.43.29.32.64.7,1.05,1.14Zm42.5-8.45c-6.78,1.97-14.66,1.49-15.04-.3-.43-2,8.47-5.62,14.45-7.31,3.95-1.12,12.99-3.2,13.74-1.36.7,1.71-5.83,6.85-13.14,8.98Z"/>
      <path class="cls-2" d="m899.14,257.46c-7.52,0-14.74-1.25-20.04-2.16-19.37-3.34-38.44-14.1-53.72-30.3h0c-.44-.47-.82-.88-1.13-1.22l-5.94-6.62,36.22-19.49c15.01-7.65,31.21-10.63,45.61-8.38,12.43,1.94,22.45,7.62,28.21,15.99,7.41,10.78,9.19,29.06-.66,41-7.28,8.82-18.2,11.18-28.55,11.18Zm-59.78-36.87c12.47,11.64,27.16,19.35,41.94,21.9,9.99,1.72,28.59,4.93,36.36-4.48,5.68-6.89,4.57-18.67-.03-25.35-3.71-5.39-10.64-9.13-19.51-10.51-1.97-.31-4-.49-6.06-.56.44,1.72.24,3.56-.6,5.29-2.38,4.91-10.56,9.57-17.05,11.46h0c-5.16,1.5-14.65,2.67-19.59-.28-1.6-.96-2.77-2.35-3.36-3.98l-12.11,6.51Z"/>
    </g>
    <g>
      <path class="cls-2" d="m872.01,204.48c-5.98,1.69-14.88,5.31-14.45,7.31.39,1.79,8.27,2.27,15.04.3,7.31-2.13,13.84-7.26,13.14-8.98-.75-1.84-9.78.24-13.74,1.36Z"/>
      <path class="cls-2" d="m863.5,219.88c-3.27,0-6.43-.49-8.67-1.82-1.9-1.13-3.18-2.87-3.62-4.89-1.39-6.44,5.74-9.77,8.42-11.03,3.06-1.43,7.02-2.89,10.61-3.91h0c11.06-3.13,18.95-3.91,21.53,2.44.8,1.96.69,4.16-.3,6.21-2.38,4.91-10.56,9.57-17.05,11.46-2.83.82-6.96,1.55-10.92,1.55Z"/>
    </g>
  </g>
  <g>
    <path class="cls-1" d="m931.85,213.07c-3.28-4.93-8.06-8.96-13.94-11.92,4.89,2.66,8.9,6.14,11.73,10.31,7.24,10.68,8.33,28.17-.43,38.92-11.79,14.48-36.17,10.26-49.17,8-32.27-5.59-53.64-28.56-57.92-33.17-.66-.7-1.19-1.29-1.56-1.71l-4.9,2.74c.4.46,1.01,1.15,1.77,1.99,4.55,4.98,27.22,29.81,61.54,35.79,13.83,2.41,39.75,6.93,52.33-8.79,9.34-11.66,8.23-30.6.55-42.16Z"/>
    <path class="cls-5" d="m880.03,258.38c13,2.25,37.38,6.48,49.17-8,8.75-10.75,7.67-28.23.43-38.92-2.83-4.17-6.84-7.65-11.73-10.31-5.56-3.02-12.27-4.98-19.71-5.66,10.56,1.65,19.12,6.36,23.86,13.25,6.27,9.12,7.23,24.03-.31,33.18-10.17,12.33-31.24,8.69-42.48,6.75-27.89-4.81-46.39-24.42-50.1-28.35-.41-.44-.76-.82-1.05-1.14l-7.68,4.2s.08.09.11.13c.37.42.9,1.01,1.56,1.71,4.29,4.61,25.65,27.57,57.92,33.17Z"/>
    <path class="cls-4" d="m829.17,220.31c3.71,3.93,22.2,23.54,50.1,28.35,11.24,1.94,32.31,5.57,42.48-6.75,7.55-9.15,6.59-24.06.31-33.18-4.74-6.89-13.3-11.6-23.86-13.25-12.14-1.9-26.93.24-41.65,7.74l-28.83,15.51c.11.12.25.27.39.43.29.32.64.7,1.05,1.14Zm42.5-8.45c-6.78,1.97-14.66,1.49-15.04-.3-.43-2,8.47-5.62,14.45-7.31,3.95-1.12,12.99-3.2,13.74-1.36.7,1.71-5.83,6.85-13.14,8.98Z"/>
    <path class="cls-3" d="m871.08,204.25c-5.98,1.69-14.88,5.31-14.45,7.31.39,1.79,8.27,2.27,15.04.3,7.31-2.13,13.84-7.26,13.14-8.98-.75-1.84-9.78.24-13.74,1.36Z"/>
  </g>
  <g>
    <g>
      <path class="cls-2" d="m293.18,232.91c-3.28-4.93-8.06-8.96-13.94-11.92,4.89,2.66,8.9,6.14,11.73,10.31,7.24,10.68,8.33,28.17-.43,38.92-11.79,14.48-36.17,10.26-49.17,8-32.27-5.59-53.64-28.56-57.92-33.17-.66-.7-1.19-1.29-1.56-1.71l-4.9,2.74c.4.46,1.01,1.15,1.77,1.99,4.55,4.98,27.22,29.81,61.54,35.79,13.83,2.41,39.75,6.93,52.33-8.79,9.34-11.66,8.23-30.6.55-42.16Z"/>
      <path class="cls-2" d="m263.32,292.88c-9.05,0-17.74-1.52-24.13-2.63-23.54-4.1-46.71-17.53-65.23-37.81-.81-.88-1.46-1.62-1.88-2.1l-5.26-6.04,16.45-9.18,3.47,3.9c.35.39.85.95,1.46,1.61,15.58,16.75,34.85,27.82,54.27,31.19,11.75,2.04,33.63,5.83,43.02-5.7,6.92-8.5,5.64-22.98.09-31.17-2.21-3.26-5.39-6.03-9.45-8.24l6.03-11.52c7.02,3.53,12.55,8.28,16.44,14.13h0c8.69,13.09,10.74,35.3-.89,49.82-8.69,10.86-21.88,13.75-34.39,13.75Z"/>
    </g>
    <g>
      <path class="cls-2" d="m241.37,278.22c13,2.25,37.38,6.48,49.17-8,8.75-10.75,7.67-28.23.43-38.92-2.83-4.17-6.84-7.65-11.73-10.31-5.56-3.02-12.27-4.98-19.71-5.66,10.56,1.65,19.12,6.36,23.86,13.25,6.27,9.12,7.23,24.03-.31,33.18-10.17,12.33-31.24,8.69-42.48,6.75-27.89-4.81-46.39-24.42-50.1-28.35-.41-.44-.76-.82-1.05-1.14l-7.68,4.2s.08.09.11.13c.37.42.9,1.01,1.56,1.71,4.29,4.61,25.65,27.57,57.92,33.17Z"/>
      <path class="cls-2" d="m263.16,287.1c-8.59,0-16.84-1.43-22.9-2.48h0c-22.2-3.85-44.07-16.33-61.57-35.14-.69-.75-1.26-1.37-1.65-1.82l-5.52-6.25,19.3-10.55,3.44,3.78c.27.29.59.65.97,1.05,13.36,14.17,29.86,23.54,46.48,26.41,9.99,1.72,28.59,4.93,36.36-4.48,5.68-6.89,4.57-18.67-.03-25.35-3.71-5.39-10.64-9.13-19.51-10.51l1.6-12.89c8.31.77,15.78,2.93,22.21,6.43,5.91,3.21,10.62,7.37,14,12.37,8.31,12.27,10.3,33.08-.77,46.67-8.21,10.09-20.63,12.78-32.42,12.78Z"/>
    </g>
    <g>
      <path class="cls-2" d="m190.5,240.15c3.71,3.93,22.2,23.54,50.1,28.35,11.24,1.94,32.31,5.57,42.48-6.75,7.55-9.15,6.59-24.06.31-33.18-4.74-6.89-13.3-11.6-23.86-13.25-12.14-1.9-26.93.24-41.65,7.74l-28.83,15.51c.11.12.25.27.39.43.29.32.64.7,1.05,1.14Zm42.5-8.45c-6.78,1.97-14.66,1.49-15.04-.3-.43-2,8.47-5.62,14.45-7.31,3.95-1.12,12.99-3.2,13.74-1.36.7,1.71-5.83,6.85-13.14,8.98Z"/>
      <path class="cls-2" d="m259.54,277.07c-7.52,0-14.74-1.25-20.04-2.16-19.37-3.34-38.44-14.1-53.72-30.3-.44-.47-.82-.88-1.13-1.22l-5.95-6.62,36.24-19.5c15.01-7.65,31.21-10.63,45.61-8.38,12.44,1.95,22.45,7.62,28.21,15.99,7.41,10.78,9.19,29.06-.66,41-7.28,8.82-18.2,11.18-28.55,11.18Zm-59.78-36.87c12.47,11.64,27.16,19.35,41.94,21.9,9.99,1.72,28.59,4.93,36.36-4.48,5.68-6.89,4.57-18.67-.03-25.35-3.71-5.39-10.64-9.13-19.51-10.51-1.98-.31-4-.49-6.06-.56.44,1.72.24,3.57-.6,5.3-2.38,4.91-10.56,9.57-17.05,11.46-5.16,1.5-14.65,2.67-19.59-.28-1.6-.96-2.77-2.35-3.36-3.98l-12.11,6.51Z"/>
    </g>
    <g>
      <path class="cls-2" d="m232.41,224.09c-5.98,1.69-14.88,5.31-14.45,7.31.39,1.79,8.27,2.27,15.04.3,7.31-2.13,13.84-7.26,13.14-8.98-.75-1.84-9.78.24-13.74,1.36Z"/>
      <path class="cls-2" d="m223.9,239.49c-3.27,0-6.43-.49-8.67-1.82-1.9-1.13-3.18-2.87-3.62-4.89-1.39-6.44,5.74-9.78,8.42-11.03,3.06-1.43,7.02-2.89,10.61-3.91,13.25-3.75,19.29-3.07,21.53,2.44.8,1.96.69,4.17-.3,6.21-2.38,4.91-10.56,9.57-17.05,11.46-2.83.82-6.96,1.55-10.92,1.55Z"/>
    </g>
  </g>
  <g>
    <path class="cls-1" d="m292.25,232.68c-3.28-4.93-8.06-8.96-13.94-11.92,4.89,2.66,8.9,6.14,11.73,10.31,7.24,10.68,8.33,28.17-.43,38.92-11.79,14.48-36.17,10.26-49.17,8-32.27-5.59-53.64-28.56-57.92-33.17-.66-.7-1.19-1.29-1.56-1.71l-4.9,2.74c.4.46,1.01,1.15,1.77,1.99,4.55,4.98,27.22,29.81,61.54,35.79,13.83,2.41,39.75,6.93,52.33-8.79,9.34-11.66,8.23-30.6.55-42.16Z"/>
    <path class="cls-5" d="m240.44,277.99c13,2.25,37.38,6.48,49.17-8,8.75-10.75,7.67-28.23.43-38.92-2.83-4.17-6.84-7.65-11.73-10.31-5.56-3.02-12.27-4.98-19.71-5.66,10.56,1.65,19.12,6.36,23.86,13.25,6.27,9.12,7.23,24.03-.31,33.18-10.17,12.33-31.24,8.69-42.48,6.75-27.89-4.81-46.39-24.42-50.1-28.35-.41-.44-.76-.82-1.05-1.14l-7.68,4.2s.08.09.11.13c.37.42.9,1.01,1.56,1.71,4.29,4.61,25.65,27.57,57.92,33.17Z"/>
    <path class="cls-4" d="m189.57,239.92c3.71,3.93,22.2,23.54,50.1,28.35,11.24,1.94,32.31,5.57,42.48-6.75,7.55-9.15,6.59-24.06.31-33.18-4.74-6.89-13.3-11.6-23.86-13.25-12.14-1.9-26.93.24-41.65,7.74l-28.83,15.51c.11.12.25.27.39.43.29.32.64.7,1.05,1.14Zm42.5-8.45c-6.78,1.97-14.66,1.49-15.04-.3-.43-2,8.47-5.62,14.45-7.31,3.95-1.12,12.99-3.2,13.74-1.36.7,1.71-5.83,6.85-13.14,8.98Z"/>
    <path class="cls-3" d="m231.48,223.86c-5.98,1.69-14.88,5.31-14.45,7.31.39,1.79,8.27,2.27,15.04.3,7.31-2.13,13.84-7.26,13.14-8.98-.75-1.84-9.78.24-13.74,1.36Z"/>
  </g>
  <g>
    <g>
      <path class="cls-2" d="m535.18,123.91c-3.28-4.93-8.06-8.96-13.94-11.92,4.89,2.66,8.9,6.14,11.73,10.31,7.24,10.68,8.33,28.17-.43,38.92-11.79,14.48-36.17,10.26-49.17,8-32.27-5.59-53.64-28.56-57.92-33.17-.66-.7-1.19-1.29-1.56-1.71l-4.9,2.74c.4.46,1.01,1.15,1.77,1.99,4.55,4.98,27.22,29.81,61.54,35.79,13.83,2.41,39.75,6.93,52.33-8.79,9.34-11.66,8.23-30.6.55-42.16Z"/>
      <path class="cls-2" d="m505.32,183.88c-9.05,0-17.74-1.52-24.13-2.63-23.54-4.1-46.71-17.53-65.23-37.81-.81-.88-1.46-1.62-1.88-2.1l-5.26-6.04,16.45-9.18,3.47,3.9c.35.39.85.95,1.46,1.61,15.58,16.75,34.85,27.82,54.27,31.19,11.75,2.04,33.63,5.83,43.02-5.7,6.92-8.5,5.64-22.98.09-31.17-2.21-3.26-5.39-6.03-9.45-8.24l6.02-11.52c7.02,3.53,12.55,8.28,16.44,14.13,8.69,13.09,10.74,35.3-.89,49.82-8.69,10.86-21.88,13.75-34.39,13.75Z"/>
    </g>
    <g>
      <path class="cls-2" d="m483.37,169.22c13,2.25,37.38,6.48,49.17-8,8.75-10.75,7.67-28.23.43-38.92-2.83-4.17-6.84-7.65-11.73-10.31-5.56-3.02-12.27-4.98-19.71-5.66,10.56,1.65,19.12,6.36,23.86,13.25,6.27,9.12,7.23,24.03-.31,33.18-10.17,12.33-31.24,8.69-42.48,6.75-27.89-4.81-46.39-24.42-50.1-28.35-.41-.44-.76-.82-1.05-1.14l-7.68,4.2s.08.09.11.13c.37.42.9,1.01,1.56,1.71,4.29,4.61,25.65,27.57,57.92,33.17Z"/>
      <path class="cls-2" d="m505.16,178.1c-8.59,0-16.84-1.43-22.9-2.48h0c-22.2-3.85-44.07-16.33-61.57-35.14-.69-.75-1.26-1.37-1.65-1.82l-5.52-6.25,19.3-10.55,3.44,3.78c.27.29.59.65.97,1.05,13.36,14.17,29.86,23.54,46.48,26.41,9.99,1.72,28.59,4.93,36.36-4.48,5.68-6.89,4.57-18.67-.03-25.35-3.71-5.39-10.64-9.13-19.51-10.51l1.6-12.89c8.31.77,15.78,2.93,22.21,6.43,5.91,3.21,10.62,7.37,14,12.37,8.31,12.27,10.3,33.08-.77,46.67-8.21,10.09-20.63,12.78-32.42,12.78Z"/>
    </g>
    <g>
      <path class="cls-2" d="m432.5,131.15c3.71,3.93,22.2,23.54,50.1,28.35,11.24,1.94,32.31,5.57,42.48-6.75,7.55-9.15,6.59-24.06.31-33.18-4.74-6.89-13.3-11.6-23.86-13.25-12.14-1.9-26.93.24-41.65,7.74l-28.83,15.51c.11.12.25.27.39.43.29.32.64.7,1.05,1.14Zm42.5-8.45c-6.78,1.97-14.66,1.49-15.04-.3-.43-2,8.47-5.62,14.45-7.31,3.95-1.12,12.99-3.2,13.74-1.36.7,1.71-5.83,6.85-13.14,8.98Z"/>
      <path class="cls-2" d="m501.54,168.07c-7.52,0-14.74-1.25-20.04-2.16-19.37-3.34-38.44-14.1-53.72-30.3-.44-.47-.82-.88-1.13-1.22l-5.95-6.62,36.24-19.5c15.01-7.65,31.2-10.63,45.61-8.38,12.44,1.95,22.45,7.62,28.21,15.99,7.41,10.78,9.19,29.06-.66,41-7.28,8.82-18.2,11.18-28.55,11.18Zm-59.78-36.87c12.47,11.64,27.16,19.35,41.94,21.9,9.99,1.72,28.59,4.93,36.36-4.48,5.68-6.89,4.57-18.67-.03-25.35-3.71-5.39-10.64-9.13-19.51-10.51-1.97-.31-4-.49-6.06-.56.44,1.72.24,3.57-.6,5.3-2.38,4.91-10.56,9.57-17.05,11.46-5.16,1.5-14.65,2.67-19.59-.28-1.6-.96-2.77-2.35-3.36-3.98l-12.11,6.51Z"/>
    </g>
    <g>
      <path class="cls-2" d="m474.41,115.09c-5.98,1.69-14.88,5.31-14.45,7.31.39,1.79,8.27,2.27,15.04.3,7.31-2.13,13.84-7.26,13.14-8.98-.75-1.84-9.78.24-13.74,1.36Z"/>
      <path class="cls-2" d="m465.9,130.49c-3.27,0-6.43-.49-8.67-1.82-1.9-1.13-3.18-2.87-3.62-4.89-1.39-6.44,5.74-9.78,8.42-11.03,3.06-1.43,7.02-2.89,10.61-3.91,13.25-3.75,19.29-3.07,21.53,2.44.8,1.96.69,4.17-.3,6.21-2.38,4.91-10.56,9.57-17.05,11.46-2.83.82-6.96,1.55-10.92,1.55Z"/>
    </g>
  </g>
  <g>
    <path class="cls-1" d="m534.25,123.68c-3.28-4.93-8.06-8.96-13.94-11.92,4.89,2.66,8.9,6.14,11.73,10.31,7.24,10.68,8.33,28.17-.43,38.92-11.79,14.48-36.17,10.26-49.17,8-32.27-5.59-53.64-28.56-57.92-33.17-.66-.7-1.19-1.29-1.56-1.71l-4.9,2.74c.4.46,1.01,1.15,1.77,1.99,4.55,4.98,27.22,29.81,61.54,35.79,13.83,2.41,39.75,6.93,52.33-8.79,9.34-11.66,8.23-30.6.55-42.16Z"/>
    <path class="cls-5" d="m482.44,168.99c13,2.25,37.38,6.48,49.17-8,8.75-10.75,7.67-28.23.43-38.92-2.83-4.17-6.84-7.65-11.73-10.31-5.56-3.02-12.27-4.98-19.71-5.66,10.56,1.65,19.12,6.36,23.86,13.25,6.27,9.12,7.23,24.03-.31,33.18-10.17,12.33-31.24,8.69-42.48,6.75-27.89-4.81-46.39-24.42-50.1-28.35-.41-.44-.76-.82-1.05-1.14l-7.68,4.2s.08.09.11.13c.37.42.9,1.01,1.56,1.71,4.29,4.61,25.65,27.57,57.92,33.17Z"/>
    <path class="cls-4" d="m431.57,130.92c3.71,3.93,22.2,23.54,50.1,28.35,11.24,1.94,32.31,5.57,42.48-6.75,7.55-9.15,6.59-24.06.31-33.18-4.74-6.89-13.3-11.6-23.86-13.25-12.14-1.9-26.93.24-41.65,7.74l-28.83,15.51c.11.12.25.27.39.43.29.32.64.7,1.05,1.14Zm42.5-8.45c-6.78,1.97-14.66,1.49-15.04-.3-.43-2,8.47-5.62,14.45-7.31,3.95-1.12,12.99-3.2,13.74-1.36.7,1.71-5.83,6.85-13.14,8.98Z"/>
    <path class="cls-3" d="m473.48,114.86c-5.98,1.69-14.88,5.31-14.45,7.31.39,1.79,8.27,2.27,15.04.3,7.31-2.13,13.84-7.26,13.14-8.98-.75-1.84-9.78.24-13.74,1.36Z"/>
  </g>
  <g>
    <g>
      <path class="cls-2" d="m356.1,229.83c-.7-5.88-3.15-11.64-7.07-16.93,3.17,4.58,5.18,9.49,5.82,14.49,1.64,12.8-5.28,28.9-17.94,34.54-17.06,7.6-36.91-7.16-47.49-15.04-26.28-19.55-34.99-49.68-36.73-55.73-.27-.92-.47-1.69-.62-2.23l-5.61.23c.15.59.38,1.49.69,2.58,1.81,6.5,10.85,38.88,38.78,59.7,11.25,8.39,32.35,24.11,50.67,15.76,13.6-6.2,21.15-23.6,19.51-37.38Z"/>
      <path class="cls-2" d="m325.33,276.12c-17.17,0-33.54-12.2-43.29-19.47-19.16-14.28-33.78-36.71-41.16-63.17-.32-1.15-.57-2.11-.73-2.73l-1.97-7.76,18.82-.77,1.34,5.04c.14.51.33,1.23.58,2.1,6.35,21.97,18.56,40.55,34.37,52.31,9.57,7.12,27.39,20.37,40.97,14.32,10.02-4.46,15.4-17.97,14.14-27.78-.5-3.9-2.09-7.81-4.72-11.62l10.57-7.56c4.67,6.32,7.47,13.05,8.29,20.02,1.86,15.6-6.34,36.35-23.26,44.06-4.63,2.11-9.33,3-13.96,3Z"/>
    </g>
    <g>
      <path class="cls-2" d="m289.42,246.89c10.59,7.88,30.44,22.64,47.49,15.04,12.66-5.64,19.58-21.74,17.94-34.54-.64-5-2.65-9.91-5.82-14.49-3.6-5.21-8.7-9.98-15.03-13.94,8.68,6.24,14.19,14.3,15.31,22.59,1.48,10.97-4.38,24.71-15.25,29.47-14.64,6.41-31.8-6.33-40.96-13.13-22.72-16.88-30.38-42.72-31.92-47.9-.17-.58-.31-1.08-.43-1.49l-8.74.28s.03.11.04.16c.14.54.35,1.31.62,2.23,1.75,6.05,10.45,36.18,36.73,55.73Z"/>
      <path class="cls-2" d="m326.65,270.58c-16.27,0-31.84-11.58-41.11-18.48h0c-18.08-13.45-31.97-34.45-39.1-59.14-.28-.98-.5-1.79-.66-2.37l-.05-.2-2.05-7.87,21.97-.71,1.37,4.92c.11.39.24.85.4,1.39,5.53,18.67,16.03,34.48,29.56,44.53,8.14,6.05,23.29,17.3,34.47,12.4,8.18-3.58,12.5-14.6,11.41-22.64-.88-6.49-5.38-12.94-12.67-18.18l7.25-10.79c7.07,4.43,12.77,9.73,16.93,15.76,3.82,5.53,6.15,11.37,6.92,17.35,1.89,14.7-5.73,34.17-21.74,41.31-4.28,1.91-8.62,2.71-12.91,2.72Z"/>
    </g>
    <g>
      <path class="cls-2" d="m261.2,189.98c1.54,5.18,9.2,31.03,31.92,47.9,9.15,6.8,26.32,19.55,40.96,13.13,10.86-4.76,16.73-18.5,15.25-29.47-1.12-8.29-6.63-16.35-15.31-22.59-9.98-7.17-24.14-11.94-40.67-11.88l-32.72.84c.04.16.1.35.16.57.12.41.26.91.43,1.49Zm41.74,11.63c-6.94-1.3-13.75-5.28-13.29-7.06.52-1.98,10.1-1.19,16.19,0,4.03.78,13.04,3,12.87,4.98-.15,1.84-8.29,3.48-15.78,2.08Z"/>
      <path class="cls-2" d="m325.4,259.3c-14.34,0-28.02-10.16-36.16-16.2-15.78-11.72-27.95-29.93-34.28-51.27h0c-.18-.62-.33-1.15-.46-1.59l-2.34-8.6,41.14-1.06c16.85-.04,32.65,4.59,44.48,13.1,10.22,7.35,16.6,16.93,17.96,27,1.75,12.96-4.9,30.08-19.08,36.29-3.75,1.64-7.54,2.34-11.28,2.34Zm-55.96-65.11c5.88,16.02,15.52,29.52,27.56,38.46,8.14,6.05,23.29,17.3,34.47,12.4,8.18-3.58,12.5-14.6,11.41-22.64-.88-6.49-5.38-12.94-12.67-18.18-1.62-1.17-3.35-2.25-5.15-3.23-.38,1.73-1.39,3.29-2.92,4.46-4.33,3.31-13.74,3.78-20.39,2.53h0c-5.29-.99-14.28-4.22-17.36-9.09-1-1.58-1.42-3.34-1.2-5.06l-13.74.35Z"/>
    </g>
    <g>
      <path class="cls-2" d="m305.85,194.55c-6.1-1.19-15.68-1.97-16.19,0-.46,1.77,6.35,5.76,13.29,7.06,7.48,1.4,15.63-.24,15.78-2.08.16-1.98-8.84-4.2-12.87-4.98Z"/>
      <path class="cls-2" d="m308.9,208.63c-2.5,0-4.97-.22-7.15-.63-5.29-.99-14.28-4.22-17.36-9.09-1.18-1.86-1.55-4-1.02-6,1.66-6.37,9.53-6.14,12.49-6.05,3.37.1,7.57.59,11.23,1.3h0c13.52,2.63,18.6,5.96,18.11,11.89-.17,2.11-1.26,4.03-3.06,5.41-2.91,2.22-8.12,3.16-13.23,3.16Z"/>
    </g>
  </g>
  <g>
    <path class="cls-1" d="m355.38,229.2c-.7-5.88-3.15-11.64-7.07-16.93,3.17,4.58,5.18,9.49,5.82,14.49,1.64,12.8-5.28,28.9-17.94,34.54-17.06,7.6-36.91-7.16-47.49-15.04-26.28-19.55-34.99-49.68-36.73-55.73-.27-.92-.47-1.69-.62-2.23l-5.61.23c.15.59.38,1.49.69,2.58,1.81,6.5,10.85,38.88,38.78,59.7,11.25,8.39,32.35,24.11,50.67,15.76,13.6-6.2,21.15-23.6,19.51-37.38Z"/>
    <path class="cls-5" d="m288.7,246.27c10.59,7.88,30.44,22.64,47.49,15.04,12.66-5.64,19.58-21.74,17.94-34.54-.64-5-2.65-9.91-5.82-14.49-3.6-5.21-8.7-9.98-15.03-13.94,8.68,6.24,14.19,14.3,15.31,22.59,1.48,10.97-4.38,24.71-15.25,29.47-14.64,6.41-31.8-6.33-40.96-13.13-22.72-16.88-30.38-42.72-31.92-47.9-.17-.58-.31-1.08-.43-1.49l-8.74.28s.03.11.04.16c.14.54.35,1.31.62,2.23,1.75,6.05,10.45,36.18,36.73,55.73Z"/>
    <path class="cls-4" d="m260.47,189.35c1.54,5.18,9.2,31.03,31.92,47.9,9.15,6.8,26.32,19.55,40.96,13.13,10.86-4.76,16.73-18.5,15.25-29.47-1.12-8.29-6.63-16.35-15.31-22.59-9.98-7.17-24.14-11.94-40.67-11.88l-32.72.84c.04.16.1.35.16.57.12.41.26.91.43,1.49Zm41.74,11.63c-6.94-1.3-13.75-5.28-13.29-7.06.52-1.98,10.1-1.19,16.19,0,4.03.78,13.04,3,12.87,4.98-.15,1.84-8.29,3.48-15.78,2.08Z"/>
    <path class="cls-3" d="m305.12,193.92c-6.1-1.19-15.68-1.97-16.19,0-.46,1.77,6.35,5.76,13.29,7.06,7.48,1.4,15.63-.24,15.78-2.08.16-1.98-8.84-4.2-12.87-4.98Z"/>
  </g>
  <g>
    <g>
      <path class="cls-2" d="m541.76,297.01c.7-5.88,3.15-11.64,7.07-16.93-3.17,4.58-5.18,9.49-5.82,14.49-1.64,12.8,5.28,28.9,17.94,34.54,17.06,7.6,36.91-7.16,47.49-15.04,26.28-19.55,34.99-49.68,36.73-55.73.27-.92.47-1.69.62-2.23l5.61.23c-.15.59-.38,1.49-.69,2.58-1.81,6.5-10.85,38.88-38.78,59.7-11.25,8.39-32.35,24.11-50.67,15.76-13.6-6.2-21.15-23.6-19.51-37.38Z"/>
      <path class="cls-2" d="m572.53,343.31c-4.63,0-9.32-.89-13.96-3-16.92-7.71-25.12-28.46-23.26-44.06h0c.83-6.97,3.62-13.71,8.29-20.02l10.57,7.56c-2.63,3.81-4.22,7.72-4.72,11.62-1.26,9.81,4.12,23.31,14.14,27.78,13.58,6.05,31.4-7.2,40.97-14.32,15.81-11.76,28.02-30.34,34.37-52.32.25-.86.44-1.58.58-2.09l1.34-5.05,18.82.77-1.97,7.76c-.16.62-.4,1.57-.73,2.73-7.38,26.45-21.99,48.88-41.16,63.16-9.75,7.27-26.12,19.47-43.29,19.47Z"/>
    </g>
    <g>
      <path class="cls-2" d="m608.44,314.08c-10.59,7.88-30.44,22.64-47.49,15.04-12.66-5.64-19.58-21.74-17.94-34.54.64-5,2.65-9.91,5.82-14.49,3.6-5.21,8.7-9.98,15.03-13.94-8.68,6.24-14.19,14.3-15.31,22.59-1.48,10.97,4.38,24.71,15.25,29.47,14.64,6.41,31.8-6.33,40.96-13.13,22.72-16.88,30.38-42.72,31.92-47.9.17-.58.31-1.08.43-1.49l8.74.28s-.03.11-.04.16c-.14.54-.35,1.31-.62,2.23-1.75,6.05-10.45,36.18-36.73,55.73Z"/>
      <path class="cls-2" d="m571.21,337.77c-4.29,0-8.63-.81-12.91-2.72-16.01-7.14-23.62-26.6-21.74-41.3.77-5.99,3.1-11.83,6.92-17.36,4.16-6.03,9.86-11.33,16.93-15.76l7.24,10.79c-7.29,5.24-11.79,11.7-12.67,18.18-1.09,8.04,3.24,19.06,11.41,22.64,11.19,4.9,26.33-6.35,34.47-12.4,13.53-10.05,24.03-25.86,29.57-44.53.16-.53.29-.99.39-1.37l1.36-4.93,22.01.71-2.13,8.12c-.14.51-.36,1.33-.64,2.31-7.13,24.69-21.02,45.69-39.1,59.14l-3.88-5.22,3.88,5.22c-9.26,6.89-24.84,18.47-41.11,18.47Z"/>
    </g>
    <g>
      <path class="cls-2" d="m637.09,255.67c.06-.21.11-.41.16-.57l-32.72-.84c-16.52-.06-30.69,4.71-40.67,11.88-8.68,6.24-14.19,14.3-15.31,22.59-1.48,10.97,4.38,24.71,15.25,29.47,14.64,6.41,31.8-6.33,40.96-13.13,22.72-16.88,30.38-42.72,31.92-47.9.17-.58.31-1.08.43-1.49Zm-57.95,11.04c-.16-1.98,8.84-4.2,12.87-4.98,6.1-1.19,15.68-1.97,16.19,0,.46,1.77-6.35,5.76-13.29,7.06-7.48,1.4-15.63-.24-15.78-2.08Z"/>
      <path class="cls-2" d="m572.46,326.49c-3.75,0-7.54-.69-11.28-2.34-14.18-6.21-20.83-23.33-19.08-36.29,1.36-10.06,7.74-19.65,17.96-27,11.76-8.45,27.43-13.1,44.16-13.1.11,0,.21,0,.32,0h.14s41,1.06,41,1.06l-2.34,8.58c-.12.44-.28.98-.46,1.6-6.33,21.36-18.51,39.56-34.28,51.28-8.13,6.04-21.82,16.21-36.16,16.21Zm.34-58.3c-1.81.99-3.53,2.06-5.15,3.23-7.29,5.24-11.79,11.7-12.67,18.18-1.09,8.04,3.24,19.06,11.41,22.64,11.19,4.9,26.33-6.35,34.47-12.4,12.04-8.94,21.68-22.45,27.56-38.46l-13.74-.35c.21,1.72-.2,3.49-1.2,5.06-3.09,4.86-12.07,8.1-17.36,9.09-6.65,1.24-16.05.78-20.39-2.53-1.53-1.17-2.54-2.72-2.92-4.46Z"/>
    </g>
    <g>
      <path class="cls-2" d="m592.01,261.73c6.1-1.19,15.68-1.97,16.19,0,.46,1.77-6.35,5.76-13.29,7.06-7.48,1.4-15.63-.24-15.78-2.08-.16-1.98,8.84-4.2,12.87-4.98Z"/>
      <path class="cls-2" d="m588.96,275.81c-5.12,0-10.32-.94-13.24-3.16-1.8-1.38-2.89-3.3-3.06-5.41-.49-5.93,4.59-9.26,18.11-11.89h0c3.66-.71,7.86-1.2,11.23-1.3,2.96-.09,10.83-.33,12.49,6.05.52,2,.16,4.13-1.02,6-3.09,4.86-12.07,8.1-17.36,9.09-2.18.41-4.66.63-7.15.63Z"/>
    </g>
  </g>
  <g>
    <path class="cls-1" d="m542.48,296.39c.7-5.88,3.15-11.64,7.07-16.93-3.17,4.58-5.18,9.49-5.82,14.49-1.64,12.8,5.28,28.9,17.94,34.54,17.06,7.6,36.91-7.16,47.49-15.04,26.28-19.55,34.99-49.68,36.73-55.73.27-.92.47-1.69.62-2.23l5.61.23c-.15.59-.38,1.49-.69,2.58-1.81,6.5-10.85,38.88-38.78,59.7-11.25,8.39-32.35,24.11-50.67,15.76-13.6-6.2-21.15-23.6-19.51-37.38Z"/>
    <path class="cls-5" d="m609.16,313.45c-10.59,7.88-30.44,22.64-47.49,15.04-12.66-5.64-19.58-21.74-17.94-34.54.64-5,2.65-9.91,5.82-14.49,3.6-5.21,8.7-9.98,15.03-13.94-8.68,6.24-14.19,14.3-15.31,22.59-1.48,10.97,4.38,24.71,15.25,29.47,14.64,6.41,31.8-6.33,40.96-13.13,22.72-16.88,30.38-42.72,31.92-47.9.17-.58.31-1.08.43-1.49l8.74.28s-.03.11-.04.16c-.14.54-.35,1.31-.62,2.23-1.75,6.05-10.45,36.18-36.73,55.73Z"/>
    <path class="cls-4" d="m637.82,255.05c.06-.21.11-.41.16-.57l-32.72-.84c-16.52-.06-30.69,4.71-40.67,11.88-8.68,6.24-14.19,14.3-15.31,22.59-1.48,10.97,4.38,24.71,15.25,29.47,14.64,6.41,31.8-6.33,40.96-13.13,22.72-16.88,30.38-42.72,31.92-47.9.17-.58.31-1.08.43-1.49Zm-57.95,11.04c-.16-1.98,8.84-4.2,12.87-4.98,6.1-1.19,15.68-1.97,16.19,0,.46,1.77-6.35,5.76-13.29,7.06-7.48,1.4-15.63-.24-15.78-2.08Z"/>
    <path class="cls-3" d="m592.74,261.1c6.1-1.19,15.68-1.97,16.19,0,.46,1.77-6.35,5.76-13.29,7.06-7.48,1.4-15.63-.24-15.78-2.08-.16-1.98,8.84-4.2,12.87-4.98Z"/>
  </g>
  <g>
    <g>
      <path class="cls-2" d="m6.71,195.01c.7-5.88,3.15-11.64,7.07-16.93-3.17,4.58-5.18,9.49-5.82,14.49-1.64,12.8,5.28,28.9,17.94,34.54,17.06,7.6,36.91-7.16,47.49-15.04,26.28-19.55,34.99-49.68,36.73-55.73.27-.92.47-1.69.62-2.23l5.61.23c-.15.59-.38,1.49-.69,2.58-1.81,6.5-10.85,38.88-38.78,59.7-11.25,8.39-32.35,24.11-50.67,15.76-13.6-6.2-21.15-23.6-19.51-37.38Z"/>
      <path class="cls-2" d="m37.48,241.31c-4.63,0-9.32-.89-13.96-3C6.6,230.59-1.6,209.84.26,194.24H.26c.83-6.97,3.62-13.71,8.29-20.02l10.57,7.56c-2.63,3.81-4.22,7.72-4.72,11.62-1.26,9.81,4.12,23.31,14.14,27.78,13.58,6.06,31.4-7.2,40.97-14.31,15.82-11.77,28.02-30.34,34.37-52.32.25-.87.45-1.59.58-2.1l1.34-5.04,18.83.77-1.98,7.77c-.16.62-.4,1.57-.73,2.72-7.38,26.45-22,48.88-41.16,63.17-9.75,7.27-26.12,19.47-43.29,19.47Z"/>
    </g>
    <g>
      <path class="cls-2" d="m73.39,212.08c-10.59,7.88-30.44,22.64-47.49,15.04-12.66-5.64-19.58-21.74-17.94-34.54.64-5,2.65-9.91,5.82-14.49,3.6-5.21,8.7-9.98,15.03-13.94-8.68,6.24-14.19,14.3-15.31,22.59-1.48,10.97,4.38,24.71,15.25,29.47,14.64,6.41,31.8-6.33,40.96-13.13,22.72-16.88,30.38-42.72,31.92-47.9.17-.58.31-1.08.43-1.49l8.74.28s-.03.11-.04.16c-.14.54-.35,1.31-.62,2.23-1.75,6.05-10.45,36.18-36.73,55.73Z"/>
      <path class="cls-2" d="m36.17,235.77c-4.29,0-8.63-.81-12.91-2.72C7.24,225.92-.37,206.45,1.51,191.75c.77-5.98,3.1-11.82,6.92-17.36,4.16-6.03,9.86-11.33,16.93-15.76l7.25,10.79c-7.29,5.24-11.79,11.7-12.67,18.18-1.09,8.04,3.24,19.06,11.41,22.64,11.18,4.9,26.33-6.35,34.47-12.4,13.53-10.05,24.03-25.86,29.56-44.53.16-.53.29-1,.4-1.38l1.37-4.92,22,.71-2.11,8.02c-.17.63-.39,1.44-.67,2.42-7.13,24.69-21.02,45.69-39.1,59.14l-3.88-5.22,3.88,5.22c-9.26,6.89-24.84,18.47-41.1,18.47Zm35.47-26.05l1.76,2.36-1.76-2.36h0Z"/>
    </g>
    <g>
      <path class="cls-2" d="m102.04,153.67c.06-.21.11-.41.16-.57l-32.72-.84c-16.52-.06-30.69,4.71-40.67,11.88-8.68,6.24-14.19,14.3-15.31,22.59-1.48,10.97,4.38,24.71,15.25,29.47,14.64,6.41,31.8-6.33,40.96-13.13,22.72-16.88,30.38-42.72,31.92-47.9.17-.58.31-1.08.43-1.49Zm-57.95,11.04c-.16-1.98,8.84-4.2,12.87-4.98,6.1-1.19,15.68-1.97,16.19,0,.46,1.77-6.35,5.76-13.29,7.06-7.48,1.4-15.63-.24-15.78-2.08Z"/>
      <path class="cls-2" d="m37.42,224.49c-3.75,0-7.54-.69-11.28-2.34-14.18-6.21-20.83-23.33-19.08-36.29,1.36-10.06,7.74-19.65,17.96-27,11.84-8.51,27.68-13.16,44.48-13.1h.14s41,1.06,41,1.06l-2.34,8.59h0c-.12.45-.27.98-.46,1.6-6.33,21.35-18.5,39.56-34.28,51.28-8.13,6.04-21.82,16.21-36.16,16.21Zm.34-58.3c-1.81.99-3.53,2.06-5.16,3.23-7.29,5.24-11.79,11.7-12.67,18.18-1.09,8.04,3.24,19.06,11.41,22.64,11.18,4.9,26.33-6.35,34.47-12.4,12.04-8.94,21.68-22.45,27.56-38.46l-13.74-.35c.21,1.72-.2,3.49-1.2,5.07-3.09,4.86-12.07,8.1-17.36,9.09-6.65,1.24-16.05.78-20.39-2.53-1.53-1.17-2.54-2.72-2.92-4.46Z"/>
    </g>
    <g>
      <path class="cls-2" d="m56.97,159.73c6.1-1.19,15.68-1.97,16.19,0,.46,1.77-6.35,5.76-13.29,7.06-7.48,1.4-15.63-.24-15.78-2.08-.16-1.98,8.84-4.2,12.87-4.98Z"/>
      <path class="cls-2" d="m53.92,173.81c-5.12,0-10.32-.94-13.23-3.16-1.8-1.38-2.89-3.3-3.06-5.41-.49-5.93,4.59-9.26,18.11-11.89h0c3.66-.71,7.86-1.2,11.23-1.3,2.96-.09,10.83-.33,12.49,6.05.52,2,.16,4.13-1.02,6-3.09,4.86-12.07,8.1-17.36,9.09-2.18.41-4.66.63-7.15.63Z"/>
    </g>
  </g>
  <g>
    <path class="cls-1" d="m7.44,194.39c.7-5.88,3.15-11.64,7.07-16.93-3.17,4.58-5.18,9.49-5.82,14.49-1.64,12.8,5.28,28.9,17.94,34.54,17.06,7.6,36.91-7.16,47.49-15.04,26.28-19.55,34.99-49.68,36.73-55.73.27-.92.47-1.69.62-2.23l5.61.23c-.15.59-.38,1.49-.69,2.58-1.81,6.5-10.85,38.88-38.78,59.7-11.25,8.39-32.35,24.11-50.67,15.76-13.6-6.2-21.15-23.6-19.51-37.38Z"/>
    <path class="cls-5" d="m74.12,211.45c-10.59,7.88-30.44,22.64-47.49,15.04-12.66-5.64-19.58-21.74-17.94-34.54.64-5,2.65-9.91,5.82-14.49,3.6-5.21,8.7-9.98,15.03-13.94-8.68,6.24-14.19,14.3-15.31,22.59-1.48,10.97,4.38,24.71,15.25,29.47,14.64,6.41,31.8-6.33,40.96-13.13,22.72-16.88,30.38-42.72,31.92-47.9.17-.58.31-1.08.43-1.49l8.74.28s-.03.11-.04.16c-.14.54-.35,1.31-.62,2.23-1.75,6.05-10.45,36.18-36.73,55.73Z"/>
    <path class="cls-4" d="m102.77,153.05c.06-.21.11-.41.16-.57l-32.72-.84c-16.52-.06-30.69,4.71-40.67,11.88-8.68,6.24-14.19,14.3-15.31,22.59-1.48,10.97,4.38,24.71,15.25,29.47,14.64,6.41,31.8-6.33,40.96-13.13,22.72-16.88,30.38-42.72,31.92-47.9.17-.58.31-1.08.43-1.49Zm-57.95,11.04c-.16-1.98,8.84-4.2,12.87-4.98,6.1-1.19,15.68-1.97,16.19,0,.46,1.77-6.35,5.76-13.29,7.06-7.48,1.4-15.63-.24-15.78-2.08Z"/>
    <path class="cls-3" d="m57.7,159.1c6.1-1.19,15.68-1.97,16.19,0,.46,1.77-6.35,5.76-13.29,7.06-7.48,1.4-15.63-.24-15.78-2.08-.16-1.98,8.84-4.2,12.87-4.98Z"/>
  </g>
  <g>
    <g>
      <path class="cls-2" d="m883.71,295.01c.7-5.88,3.15-11.64,7.07-16.93-3.17,4.58-5.18,9.49-5.82,14.49-1.64,12.8,5.28,28.9,17.94,34.54,17.06,7.6,36.91-7.16,47.49-15.04,26.28-19.55,34.99-49.68,36.73-55.73.27-.92.47-1.69.62-2.23l5.61.23c-.15.59-.38,1.49-.69,2.58-1.81,6.5-10.85,38.88-38.78,59.7-11.25,8.39-32.35,24.11-50.67,15.76-13.6-6.2-21.15-23.6-19.51-37.38Z"/>
      <path class="cls-2" d="m914.48,341.31c-4.63,0-9.32-.89-13.96-3-16.93-7.72-25.12-28.46-23.26-44.06h0c.83-6.97,3.62-13.7,8.29-20.02l10.57,7.56c-2.63,3.81-4.22,7.72-4.72,11.62-1.26,9.81,4.12,23.31,14.14,27.78,13.58,6.05,31.4-7.2,40.97-14.32,15.81-11.76,28.02-30.34,34.37-52.32.25-.86.44-1.58.58-2.09l1.34-5.05,18.82.77-1.97,7.76c-.16.62-.4,1.57-.73,2.73-7.38,26.45-22,48.88-41.16,63.16-9.75,7.27-26.12,19.47-43.29,19.47Z"/>
    </g>
    <g>
      <path class="cls-2" d="m950.39,312.08c-10.59,7.88-30.44,22.64-47.49,15.04-12.66-5.64-19.58-21.74-17.94-34.54.64-5,2.65-9.91,5.82-14.49,3.6-5.21,8.7-9.98,15.03-13.94-8.68,6.24-14.19,14.3-15.31,22.59-1.48,10.97,4.38,24.71,15.25,29.47,14.64,6.41,31.8-6.33,40.96-13.13,22.72-16.88,30.38-42.72,31.92-47.9.17-.58.31-1.08.43-1.49l8.74.28s-.03.11-.04.16c-.14.54-.35,1.31-.62,2.23-1.75,6.05-10.45,36.18-36.73,55.73Z"/>
      <path class="cls-2" d="m913.17,335.77c-4.29,0-8.63-.81-12.91-2.72-16.01-7.14-23.62-26.6-21.74-41.3.77-5.98,3.09-11.82,6.92-17.36,4.17-6.03,9.86-11.33,16.93-15.76l7.25,10.79c-7.29,5.24-11.79,11.7-12.67,18.18-1.09,8.04,3.24,19.06,11.41,22.64,11.18,4.9,26.33-6.35,34.47-12.4,13.53-10.05,24.03-25.87,29.56-44.53.16-.54.29-1,.4-1.39l1.37-4.92,21.99.71-2.13,8.12c-.14.51-.36,1.33-.64,2.31-7.13,24.69-21.02,45.69-39.1,59.14h0c-9.26,6.89-24.84,18.48-41.11,18.48Zm35.47-26.05l1.76,2.36-1.76-2.36h0Z"/>
    </g>
    <g>
      <path class="cls-2" d="m979.04,253.67c.06-.21.11-.41.16-.57l-32.72-.84c-16.52-.06-30.69,4.71-40.67,11.88-8.68,6.24-14.19,14.3-15.31,22.59-1.48,10.97,4.38,24.71,15.25,29.47,14.64,6.41,31.8-6.33,40.96-13.13,22.72-16.88,30.38-42.72,31.92-47.9.17-.58.31-1.08.43-1.49Zm-57.95,11.04c-.16-1.98,8.84-4.2,12.87-4.98,6.1-1.19,15.68-1.97,16.19,0,.46,1.77-6.35,5.76-13.29,7.06-7.48,1.4-15.63-.24-15.78-2.08Z"/>
      <path class="cls-2" d="m914.42,324.49c-3.75,0-7.54-.69-11.28-2.34-14.18-6.21-20.83-23.33-19.08-36.29,1.36-10.06,7.74-19.65,17.96-27,11.76-8.45,27.44-13.1,44.16-13.1.11,0,.21,0,.32,0h.14s41.01,1.06,41.01,1.06l-2.34,8.6c-.12.44-.28.98-.46,1.59-6.32,21.34-18.5,39.55-34.28,51.27-8.13,6.04-21.82,16.21-36.16,16.21Zm.34-58.3c-1.81.99-3.53,2.06-5.16,3.23-7.29,5.24-11.79,11.7-12.67,18.18-1.09,8.04,3.24,19.06,11.41,22.64,11.18,4.9,26.33-6.35,34.47-12.4,12.04-8.94,21.68-22.45,27.56-38.46l-13.74-.35c.21,1.72-.2,3.49-1.2,5.07-3.09,4.86-12.07,8.1-17.36,9.08-6.65,1.24-16.05.78-20.39-2.53-1.53-1.17-2.54-2.72-2.92-4.46Z"/>
    </g>
    <g>
      <path class="cls-2" d="m933.97,259.73c6.1-1.19,15.68-1.97,16.19,0,.46,1.77-6.35,5.76-13.29,7.06-7.48,1.4-15.63-.24-15.78-2.08-.16-1.98,8.84-4.2,12.87-4.98Z"/>
      <path class="cls-2" d="m930.92,273.81c-5.12,0-10.32-.94-13.23-3.16-1.8-1.38-2.89-3.3-3.06-5.41-.49-5.93,4.59-9.26,18.11-11.89h0c3.66-.71,7.86-1.2,11.23-1.3,2.96-.09,10.83-.33,12.49,6.04.52,2.01.16,4.14-1.03,6-3.09,4.86-12.07,8.1-17.36,9.08-2.18.41-4.66.63-7.15.63Z"/>
    </g>
  </g>
  <g>
    <path class="cls-1" d="m884.44,294.39c.7-5.88,3.15-11.64,7.07-16.93-3.17,4.58-5.18,9.49-5.82,14.49-1.64,12.8,5.28,28.9,17.94,34.54,17.06,7.6,36.91-7.16,47.49-15.04,26.28-19.55,34.99-49.68,36.73-55.73.27-.92.47-1.69.62-2.23l5.61.23c-.15.59-.38,1.49-.69,2.58-1.81,6.5-10.85,38.88-38.78,59.7-11.25,8.39-32.35,24.11-50.67,15.76-13.6-6.2-21.15-23.6-19.51-37.38Z"/>
    <path class="cls-5" d="m951.12,311.45c-10.59,7.88-30.44,22.64-47.49,15.04-12.66-5.64-19.58-21.74-17.94-34.54.64-5,2.65-9.91,5.82-14.49,3.6-5.21,8.7-9.98,15.03-13.94-8.68,6.24-14.19,14.3-15.31,22.59-1.48,10.97,4.38,24.71,15.25,29.47,14.64,6.41,31.8-6.33,40.96-13.13,22.72-16.88,30.38-42.72,31.92-47.9.17-.58.31-1.08.43-1.49l8.74.28s-.03.11-.04.16c-.14.54-.35,1.31-.62,2.23-1.75,6.05-10.45,36.18-36.73,55.73Z"/>
    <path class="cls-4" d="m979.77,253.05c.06-.21.11-.41.16-.57l-32.72-.84c-16.52-.06-30.69,4.71-40.67,11.88-8.68,6.24-14.19,14.3-15.31,22.59-1.48,10.97,4.38,24.71,15.25,29.47,14.64,6.41,31.8-6.33,40.96-13.13,22.72-16.88,30.38-42.72,31.92-47.9.17-.58.31-1.08.43-1.49Zm-57.95,11.04c-.16-1.98,8.84-4.2,12.87-4.98,6.1-1.19,15.68-1.97,16.19,0,.46,1.77-6.35,5.76-13.29,7.06-7.48,1.4-15.63-.24-15.78-2.08Z"/>
    <path class="cls-3" d="m934.7,259.1c6.1-1.19,15.68-1.97,16.19,0,.46,1.77-6.35,5.76-13.29,7.06-7.48,1.4-15.63-.24-15.78-2.08-.16-1.98,8.84-4.2,12.87-4.98Z"/>
  </g>
  <g>
    <g>
      <path class="cls-2" d="m652.71,160.01c.7-5.88,3.15-11.64,7.07-16.93-3.17,4.58-5.18,9.49-5.82,14.49-1.64,12.8,5.28,28.9,17.94,34.54,17.06,7.6,36.91-7.16,47.49-15.04,26.28-19.55,34.99-49.68,36.73-55.73.27-.92.47-1.69.62-2.23l5.61.23c-.15.59-.38,1.49-.69,2.58-1.81,6.5-10.85,38.88-38.78,59.7-11.25,8.39-32.35,24.11-50.67,15.76-13.6-6.2-21.15-23.6-19.51-37.38Z"/>
      <path class="cls-2" d="m683.48,206.31c-4.63,0-9.32-.89-13.96-3-16.93-7.72-25.12-28.46-23.26-44.06h0c.83-6.97,3.62-13.7,8.29-20.02l10.57,7.56c-2.63,3.81-4.22,7.72-4.72,11.62-1.26,9.81,4.12,23.31,14.14,27.78,13.58,6.05,31.4-7.2,40.97-14.31,15.82-11.77,28.02-30.34,34.37-52.32.25-.86.44-1.58.58-2.09l1.34-5.05,18.82.77-1.97,7.76c-.16.62-.4,1.57-.73,2.73-7.38,26.45-22,48.88-41.16,63.16-9.75,7.27-26.12,19.47-43.29,19.47Z"/>
    </g>
    <g>
      <path class="cls-2" d="m719.39,177.08c-10.59,7.88-30.44,22.64-47.49,15.04-12.66-5.64-19.58-21.74-17.94-34.54.64-5,2.65-9.91,5.82-14.49,3.6-5.21,8.7-9.98,15.03-13.94-8.68,6.24-14.19,14.3-15.31,22.59-1.48,10.97,4.38,24.71,15.25,29.47,14.64,6.41,31.8-6.33,40.96-13.13,22.72-16.88,30.38-42.72,31.92-47.9.17-.58.31-1.08.43-1.49l8.74.28s-.03.11-.04.16c-.14.54-.35,1.31-.62,2.23-1.75,6.05-10.45,36.18-36.73,55.73Z"/>
      <path class="cls-2" d="m682.17,200.77c-4.29,0-8.63-.81-12.91-2.72-16.01-7.14-23.62-26.6-21.74-41.31.77-5.98,3.09-11.82,6.92-17.36,4.17-6.03,9.86-11.33,16.93-15.76l7.25,10.79c-7.29,5.24-11.79,11.7-12.67,18.18-1.09,8.04,3.24,19.06,11.41,22.64,11.18,4.9,26.33-6.35,34.47-12.4,13.53-10.05,24.03-25.87,29.56-44.53.16-.54.29-1,.4-1.39l1.37-4.92,21.99.71-2.13,8.12c-.14.51-.36,1.33-.64,2.31-7.13,24.69-21.02,45.69-39.1,59.14h0l-3.88-5.22,3.88,5.22c-9.26,6.89-24.84,18.47-41.1,18.47Zm35.47-26.05l1.76,2.36-1.76-2.36h0Z"/>
    </g>
    <g>
      <path class="cls-2" d="m748.04,118.67c.06-.21.11-.41.16-.57l-32.72-.84c-16.52-.06-30.69,4.71-40.67,11.88-8.68,6.24-14.19,14.3-15.31,22.59-1.48,10.97,4.38,24.71,15.25,29.47,14.64,6.41,31.8-6.33,40.96-13.13,22.72-16.88,30.38-42.72,31.92-47.9.17-.58.31-1.08.43-1.49Zm-57.95,11.04c-.16-1.98,8.84-4.2,12.87-4.98,6.1-1.19,15.68-1.97,16.19,0,.46,1.77-6.35,5.76-13.29,7.06-7.48,1.4-15.63-.24-15.78-2.08Z"/>
      <path class="cls-2" d="m683.42,189.49c-3.75,0-7.54-.69-11.28-2.34-14.18-6.21-20.83-23.33-19.08-36.29,1.36-10.06,7.74-19.65,17.96-27,11.76-8.45,27.44-13.1,44.16-13.1.11,0,.21,0,.32,0h.14s41.01,1.06,41.01,1.06l-2.34,8.6c-.12.44-.28.98-.46,1.59-6.32,21.34-18.5,39.55-34.28,51.27-8.13,6.04-21.82,16.21-36.16,16.21Zm.34-58.3c-1.81.99-3.53,2.06-5.16,3.23-7.29,5.24-11.79,11.7-12.67,18.18-1.09,8.04,3.24,19.06,11.41,22.64,11.18,4.9,26.33-6.35,34.47-12.4,12.04-8.94,21.68-22.45,27.56-38.46l-13.74-.35c.21,1.72-.2,3.49-1.2,5.07-3.09,4.86-12.07,8.1-17.36,9.08-6.65,1.24-16.05.78-20.39-2.53-1.53-1.17-2.54-2.72-2.92-4.46Z"/>
    </g>
    <g>
      <path class="cls-2" d="m702.97,124.73c6.1-1.19,15.68-1.97,16.19,0,.46,1.77-6.35,5.76-13.29,7.06-7.48,1.4-15.63-.24-15.78-2.08-.16-1.98,8.84-4.2,12.87-4.98Z"/>
      <path class="cls-2" d="m699.92,138.81c-5.12,0-10.32-.94-13.23-3.16-1.8-1.38-2.89-3.3-3.06-5.41-.49-5.93,4.59-9.26,18.11-11.89h0c3.66-.71,7.86-1.2,11.23-1.3,2.96-.09,10.83-.33,12.49,6.04.52,2.01.16,4.14-1.03,6-3.09,4.86-12.07,8.1-17.36,9.08-2.18.41-4.66.63-7.15.63Z"/>
    </g>
  </g>
  <g>
    <path class="cls-1" d="m653.44,159.39c.7-5.88,3.15-11.64,7.07-16.93-3.17,4.58-5.18,9.49-5.82,14.49-1.64,12.8,5.28,28.9,17.94,34.54,17.06,7.6,36.91-7.16,47.49-15.04,26.28-19.55,34.99-49.68,36.73-55.73.27-.92.47-1.69.62-2.23l5.61.23c-.15.59-.38,1.49-.69,2.58-1.81,6.5-10.85,38.88-38.78,59.7-11.25,8.39-32.35,24.11-50.67,15.76-13.6-6.2-21.15-23.6-19.51-37.38Z"/>
    <path class="cls-5" d="m720.12,176.45c-10.59,7.88-30.44,22.64-47.49,15.04-12.66-5.64-19.58-21.74-17.94-34.54.64-5,2.65-9.91,5.82-14.49,3.6-5.21,8.7-9.98,15.03-13.94-8.68,6.24-14.19,14.3-15.31,22.59-1.48,10.97,4.38,24.71,15.25,29.47,14.64,6.41,31.8-6.33,40.96-13.13,22.72-16.88,30.38-42.72,31.92-47.9.17-.58.31-1.08.43-1.49l8.74.28s-.03.11-.04.16c-.14.54-.35,1.31-.62,2.23-1.75,6.05-10.45,36.18-36.73,55.73Z"/>
    <path class="cls-4" d="m748.77,118.05c.06-.21.11-.41.16-.57l-32.72-.84c-16.52-.06-30.69,4.71-40.67,11.88-8.68,6.24-14.19,14.3-15.31,22.59-1.48,10.97,4.38,24.71,15.25,29.47,14.64,6.41,31.8-6.33,40.96-13.13,22.72-16.88,30.38-42.72,31.92-47.9.17-.58.31-1.08.43-1.49Zm-57.95,11.04c-.16-1.98,8.84-4.2,12.87-4.98,6.1-1.19,15.68-1.97,16.19,0,.46,1.77-6.35,5.76-13.29,7.06-7.48,1.4-15.63-.24-15.78-2.08Z"/>
    <path class="cls-3" d="m703.7,124.1c6.1-1.19,15.68-1.97,16.19,0,.46,1.77-6.35,5.76-13.29,7.06-7.48,1.4-15.63-.24-15.78-2.08-.16-1.98,8.84-4.2,12.87-4.98Z"/>
  </g>
  <g>
    <g>
      <path class="cls-2" d="m223.54,8.89c5.48-2.23,11.71-2.87,18.23-2.01-5.54-.55-10.81.06-15.49,1.92-12,4.76-22.73,18.6-21.54,32.42,1.6,18.61,24.13,28.83,36.15,34.28,29.83,13.53,60.41,6.57,66.55,5.17.94-.21,1.71-.4,2.25-.54l2.51,5.02c-.58.15-1.48.38-2.59.65-6.56,1.56-39.28,9.32-71.01-5.04-12.79-5.79-36.76-16.64-38.32-36.71-1.16-14.9,10.42-29.93,23.27-35.16Z"/>
      <path class="cls-2" d="m280.42,95.78c-15.94,0-31.15-3.06-44.51-9.11-14.07-6.37-40.26-18.22-42.12-42.12-1.44-18.54,12.75-35.76,27.3-41.68h0c6.5-2.65,13.75-3.47,21.54-2.43l-1.5,12.91c-4.6-.46-8.79.04-12.45,1.5-9.19,3.65-18.4,14.89-17.46,25.82,1.28,14.82,21.5,23.99,32.36,28.92,17.95,8.14,40.11,9.83,62.42,4.75.88-.2,1.6-.38,2.11-.51l5.06-1.27,8.44,16.85-7.76,2.03c-.62.16-1.57.41-2.73.68-10.33,2.45-20.65,3.67-30.69,3.67Z"/>
    </g>
    <g>
      <path class="cls-2" d="m240.88,75.5c-12.02-5.45-34.54-15.68-36.15-34.28-1.19-13.81,9.55-27.66,21.54-32.42,4.68-1.86,9.95-2.47,15.49-1.92,6.3.63,12.94,2.79,19.48,6.4-9.66-4.58-19.38-5.5-27.18-2.47-10.32,4.01-19.5,15.79-18.41,27.6,1.47,15.91,20.94,24.76,31.32,29.48,25.77,11.71,52.09,5.91,57.37,4.75.59-.13,1.09-.25,1.51-.35l3.99,7.79s-.11.03-.17.04c-.54.14-1.31.33-2.25.54-6.14,1.4-36.72,8.36-66.55-5.17Z"/>
      <path class="cls-2" d="m280.96,90.2c-15.29,0-29.93-2.96-42.77-8.78-13.28-6.03-38.01-17.25-39.94-39.64-1.5-17.46,11.85-33.55,25.62-39.02,5.61-2.23,11.84-3.02,18.54-2.35,7.29.73,14.68,3.15,21.98,7.19l-5.93,11.56c-8.11-3.84-15.94-4.65-22.04-2.28-7.56,2.94-15.11,12.06-14.29,20.95,1.12,12.16,18.3,19.97,27.53,24.16,15.34,6.98,34.27,8.51,53.28,4.32.54-.12,1.01-.23,1.4-.32l4.97-1.19,10.04,19.62-8.07,2.02c-.61.15-1.43.35-2.42.58-9.38,2.14-18.76,3.19-27.91,3.19Z"/>
    </g>
    <g>
      <path class="cls-2" d="m305.86,72.3c.21-.05.41-.1.57-.14l-15.1-29.04c-7.95-14.49-18.97-24.58-30.08-29.84-9.66-4.58-19.38-5.5-27.18-2.47-10.32,4.01-19.5,15.79-18.41,27.6,1.47,15.91,20.94,24.76,31.32,29.48,25.77,11.71,52.09,5.91,57.37,4.75.59-.13,1.09-.25,1.51-.35Zm-37.71-45.37c1.65-1.1,7.95,5.71,10.59,8.86,3.99,4.76,9.32,12.76,7.83,14.17-1.33,1.26-8.11-2.77-12.61-8.21-4.85-5.87-7.36-13.79-5.82-14.81Z"/>
      <path class="cls-2" d="m282.12,81.61c-13.51,0-26.46-2.63-37.82-7.79-11.63-5.29-33.28-15.13-35.1-34.8-1.43-15.41,10.33-29.52,22.52-34.26,9.46-3.68,20.94-2.74,32.32,2.65,13.17,6.24,24.89,17.81,32.99,32.59l.07.13,18.92,36.38-8.64,2.12c-.45.11-.99.23-1.62.37-7.93,1.75-15.88,2.62-23.64,2.62ZM243.96,15.54c-2.71,0-5.24.44-7.54,1.33-7.56,2.94-15.11,12.06-14.29,20.95,1.12,12.16,18.3,19.97,27.53,24.16,13.65,6.21,30.14,8.11,47,5.49l-6.34-12.2c-1.4,1.02-3.15,1.51-5.01,1.4-5.75-.35-12.93-6.65-16.35-10.79-4.3-5.22-8.45-13.67-7.65-19.07.28-1.9,1.15-3.54,2.48-4.71-1.74-1.11-3.51-2.09-5.32-2.95-5.06-2.4-10.02-3.62-14.51-3.62Z"/>
    </g>
    <g>
      <path class="cls-2" d="m278.74,35.79c3.99,4.76,9.32,12.76,7.83,14.17-1.33,1.26-8.11-2.77-12.61-8.21-4.85-5.87-7.36-13.79-5.82-14.81,1.65-1.1,7.95,5.71,10.59,8.86Z"/>
      <path class="cls-2" d="m285.83,56.69c-.17,0-.35,0-.52-.02-5.75-.35-12.93-6.65-16.35-10.79-4.3-5.22-8.45-13.67-7.65-19.07.33-2.24,1.48-4.13,3.25-5.3,4.95-3.3,10.33-.46,19.17,10.09h0c2.4,2.86,4.85,6.3,6.57,9.2,1.51,2.55,5.53,9.32.76,13.86-1.38,1.31-3.22,2.02-5.23,2.02Z"/>
    </g>
  </g>
  <g>
    <path class="cls-1" d="m224.44,9.22c5.48-2.23,11.71-2.87,18.23-2.01-5.54-.55-10.81.06-15.49,1.92-12,4.76-22.73,18.6-21.54,32.42,1.6,18.61,24.13,28.83,36.15,34.28,29.83,13.53,60.41,6.57,66.55,5.17.94-.21,1.71-.4,2.25-.54l2.51,5.02c-.58.15-1.48.38-2.59.65-6.56,1.56-39.28,9.32-71.01-5.04-12.79-5.79-36.76-16.64-38.32-36.71-1.16-14.9,10.42-29.93,23.27-35.16Z"/>
    <path class="cls-5" d="m241.78,75.83c-12.02-5.45-34.54-15.68-36.15-34.28-1.19-13.81,9.55-27.66,21.54-32.42,4.68-1.86,9.95-2.47,15.49-1.92,6.3.63,12.94,2.79,19.48,6.4-9.66-4.58-19.38-5.5-27.18-2.47-10.32,4.01-19.5,15.79-18.41,27.6,1.47,15.91,20.94,24.76,31.32,29.48,25.77,11.71,52.09,5.91,57.37,4.75.59-.13,1.09-.25,1.51-.35l3.99,7.79s-.11.03-.17.04c-.54.14-1.31.33-2.25.54-6.14,1.4-36.72,8.36-66.55-5.17Z"/>
    <path class="cls-4" d="m306.76,72.63c.21-.05.41-.1.57-.14l-15.1-29.04c-7.95-14.49-18.97-24.58-30.08-29.84-9.66-4.58-19.38-5.5-27.18-2.47-10.32,4.01-19.5,15.79-18.41,27.6,1.47,15.91,20.94,24.76,31.32,29.48,25.77,11.71,52.09,5.91,57.37,4.75.59-.13,1.09-.25,1.51-.35Zm-37.71-45.37c1.65-1.1,7.95,5.71,10.59,8.86,3.99,4.76,9.32,12.76,7.83,14.17-1.33,1.26-8.11-2.77-12.61-8.21-4.85-5.87-7.36-13.79-5.82-14.81Z"/>
    <path class="cls-3" d="m279.64,36.12c3.99,4.76,9.32,12.76,7.83,14.17-1.33,1.26-8.11-2.77-12.61-8.21-4.85-5.87-7.36-13.79-5.82-14.81,1.65-1.1,7.95,5.71,10.59,8.86Z"/>
  </g>
  <g>
    <g>
      <path class="cls-2" d="m443.21,152.5c5.48-2.23,11.71-2.87,18.23-2.01-5.54-.55-10.81.06-15.49,1.92-12,4.76-22.73,18.6-21.54,32.42,1.6,18.61,24.13,28.83,36.15,34.28,29.83,13.53,60.41,6.57,66.55,5.17.94-.21,1.71-.4,2.25-.54l2.51,5.02c-.58.15-1.48.38-2.59.65-6.56,1.56-39.28,9.32-71.01-5.04-12.79-5.79-36.76-16.64-38.32-36.71-1.16-14.9,10.42-29.93,23.27-35.16Z"/>
      <path class="cls-2" d="m500.09,239.4c-15.94,0-31.15-3.06-44.51-9.11-14.07-6.37-40.26-18.22-42.12-42.12-1.44-18.54,12.75-35.76,27.3-41.68h0c6.5-2.65,13.75-3.47,21.54-2.43l-1.5,12.91c-4.6-.46-8.79.04-12.45,1.5-9.19,3.65-18.4,14.89-17.46,25.82,1.28,14.82,21.5,23.99,32.36,28.92,17.95,8.14,40.11,9.83,62.42,4.75.88-.2,1.61-.38,2.12-.51l5.06-1.26,8.43,16.84-7.75,2.03c-.62.16-1.57.41-2.73.68-10.33,2.45-20.65,3.67-30.69,3.67Z"/>
    </g>
    <g>
      <path class="cls-2" d="m460.55,219.11c-12.02-5.45-34.54-15.68-36.15-34.28-1.19-13.81,9.55-27.66,21.54-32.42,4.68-1.86,9.95-2.47,15.49-1.92,6.3.63,12.94,2.79,19.48,6.4-9.66-4.58-19.38-5.5-27.18-2.47-10.32,4.01-19.5,15.79-18.41,27.6,1.47,15.91,20.94,24.76,31.32,29.48,25.77,11.71,52.09,5.91,57.37,4.75.59-.13,1.09-.25,1.51-.35l3.99,7.79s-.11.03-.17.04c-.54.14-1.31.33-2.25.54-6.14,1.4-36.72,8.36-66.55-5.17Z"/>
      <path class="cls-2" d="m500.63,233.82c-15.29,0-29.93-2.96-42.77-8.78-13.28-6.03-38.01-17.25-39.94-39.64-1.5-17.46,11.85-33.55,25.62-39.02,5.61-2.23,11.85-3.02,18.54-2.35,7.29.73,14.68,3.15,21.98,7.19l-5.93,11.56c-8.11-3.84-15.94-4.65-22.04-2.28-7.56,2.94-15.11,12.06-14.29,20.95,1.12,12.15,18.3,19.97,27.53,24.16,15.35,6.98,34.27,8.51,53.28,4.32.54-.12,1.01-.23,1.4-.32l4.97-1.18,10.04,19.62-8.05,2.01c-.63.16-1.45.36-2.44.58-9.38,2.14-18.76,3.19-27.91,3.19Z"/>
    </g>
    <g>
      <path class="cls-2" d="m525.52,215.92c.21-.05.41-.1.57-.14l-15.1-29.04c-7.95-14.49-18.97-24.58-30.08-29.84-9.66-4.58-19.38-5.5-27.18-2.47-10.32,4.01-19.5,15.79-18.41,27.6,1.47,15.91,20.94,24.76,31.32,29.48,25.77,11.71,52.09,5.91,57.37,4.75.59-.13,1.09-.25,1.51-.35Zm-37.71-45.37c1.65-1.1,7.95,5.71,10.59,8.86,3.99,4.76,9.32,12.76,7.83,14.17-1.33,1.26-8.11-2.77-12.61-8.21-4.85-5.87-7.36-13.79-5.82-14.81Z"/>
      <path class="cls-2" d="m501.78,225.23c-13.51,0-26.46-2.63-37.82-7.79-11.63-5.29-33.28-15.13-35.1-34.8-1.43-15.41,10.33-29.52,22.52-34.26,9.46-3.68,20.94-2.74,32.32,2.65,13.17,6.24,24.89,17.81,32.99,32.58l.07.13,18.92,36.38-8.65,2.12c-.45.11-.99.23-1.62.37-7.93,1.75-15.88,2.62-23.64,2.62Zm-38.15-66.07c-2.7,0-5.24.44-7.54,1.33-7.56,2.94-15.11,12.06-14.29,20.95,1.12,12.15,18.3,19.97,27.53,24.16,13.65,6.21,30.14,8.1,47,5.5l-6.34-12.2c-1.4,1.02-3.16,1.51-5.02,1.4-5.75-.35-12.93-6.65-16.35-10.79-4.3-5.22-8.45-13.67-7.65-19.07.28-1.9,1.15-3.54,2.48-4.71-1.74-1.11-3.51-2.09-5.32-2.95-5.06-2.4-10.02-3.62-14.51-3.62Z"/>
    </g>
    <g>
      <path class="cls-2" d="m498.41,179.4c3.99,4.76,9.32,12.76,7.83,14.17-1.33,1.26-8.11-2.77-12.61-8.21-4.85-5.87-7.36-13.79-5.82-14.81,1.65-1.1,7.95,5.71,10.59,8.86Z"/>
      <path class="cls-2" d="m505.49,200.31c-.17,0-.35,0-.52-.02-5.75-.35-12.93-6.65-16.35-10.79-4.3-5.22-8.45-13.67-7.65-19.07.33-2.24,1.48-4.13,3.25-5.3,5.71-3.8,11.79,1.29,19.17,10.09h0c2.4,2.86,4.85,6.3,6.58,9.2,1.51,2.55,5.53,9.32.76,13.86-1.38,1.32-3.22,2.02-5.23,2.02Z"/>
    </g>
  </g>
  <g>
    <path class="cls-1" d="m444.11,152.84c5.48-2.23,11.71-2.87,18.23-2.01-5.54-.55-10.81.06-15.49,1.92-12,4.76-22.73,18.6-21.54,32.42,1.6,18.61,24.13,28.83,36.15,34.28,29.83,13.53,60.41,6.57,66.55,5.17.94-.21,1.71-.4,2.25-.54l2.51,5.02c-.58.15-1.48.38-2.59.65-6.56,1.56-39.28,9.32-71.01-5.04-12.79-5.79-36.76-16.64-38.32-36.71-1.16-14.9,10.42-29.93,23.27-35.16Z"/>
    <path class="cls-5" d="m461.45,219.45c-12.02-5.45-34.54-15.68-36.15-34.28-1.19-13.81,9.55-27.66,21.54-32.42,4.68-1.86,9.95-2.47,15.49-1.92,6.3.63,12.94,2.79,19.48,6.4-9.66-4.58-19.38-5.5-27.18-2.47-10.32,4.01-19.5,15.79-18.41,27.6,1.47,15.91,20.94,24.76,31.32,29.48,25.77,11.71,52.09,5.91,57.37,4.75.59-.13,1.09-.25,1.51-.35l3.99,7.79s-.11.03-.17.04c-.54.14-1.31.33-2.25.54-6.14,1.4-36.72,8.36-66.55-5.17Z"/>
    <path class="cls-4" d="m526.42,216.25c.21-.05.41-.1.57-.14l-15.1-29.04c-7.95-14.49-18.97-24.58-30.08-29.84-9.66-4.58-19.38-5.5-27.18-2.47-10.32,4.01-19.5,15.79-18.41,27.6,1.47,15.91,20.94,24.76,31.32,29.48,25.77,11.71,52.09,5.91,57.37,4.75.59-.13,1.09-.25,1.51-.35Zm-37.71-45.37c1.65-1.1,7.95,5.71,10.59,8.86,3.99,4.76,9.32,12.76,7.83,14.17-1.33,1.26-8.11-2.77-12.61-8.21-4.85-5.87-7.36-13.79-5.82-14.81Z"/>
    <path class="cls-3" d="m499.31,179.74c3.99,4.76,9.32,12.76,7.83,14.17-1.33,1.26-8.11-2.77-12.61-8.21-4.85-5.87-7.36-13.79-5.82-14.81,1.65-1.1,7.95,5.71,10.59,8.86Z"/>
  </g>
  <g>
    <g>
      <path class="cls-2" d="m218.21,267.5c5.48-2.23,11.71-2.87,18.23-2.01-5.54-.55-10.81.06-15.49,1.92-12,4.76-22.73,18.6-21.54,32.42,1.6,18.61,24.13,28.83,36.15,34.28,29.83,13.53,60.41,6.57,66.55,5.17.94-.21,1.71-.4,2.25-.54l2.51,5.02c-.58.15-1.48.38-2.59.65-6.56,1.56-39.28,9.32-71.01-5.04-12.79-5.79-36.76-16.64-38.32-36.71-1.16-14.9,10.42-29.93,23.27-35.16Z"/>
      <path class="cls-2" d="m275.09,354.4c-15.94,0-31.15-3.06-44.51-9.11-14.07-6.37-40.26-18.22-42.12-42.12-1.44-18.55,12.75-35.76,27.3-41.69,6.5-2.65,13.75-3.47,21.54-2.43l-1.5,12.91c-4.61-.46-8.79.04-12.45,1.5-9.19,3.65-18.4,14.89-17.46,25.82,1.28,14.82,21.49,23.99,32.36,28.92,17.95,8.15,40.11,9.83,62.42,4.75.88-.2,1.6-.38,2.11-.51l5.06-1.27,8.43,16.85-7.75,2.03c-.62.16-1.57.41-2.74.68-10.32,2.45-20.65,3.67-30.68,3.67Z"/>
    </g>
    <g>
      <path class="cls-2" d="m235.55,334.11c-12.02-5.45-34.54-15.68-36.15-34.28-1.19-13.81,9.55-27.66,21.54-32.42,4.68-1.86,9.95-2.47,15.49-1.92,6.3.63,12.94,2.79,19.48,6.4-9.66-4.58-19.38-5.5-27.18-2.47-10.32,4.01-19.5,15.79-18.41,27.6,1.47,15.91,20.94,24.76,31.32,29.48,25.77,11.71,52.09,5.91,57.37,4.75.59-.13,1.09-.25,1.51-.35l3.99,7.79s-.11.03-.17.04c-.54.14-1.31.33-2.25.54-6.14,1.4-36.72,8.36-66.55-5.17Z"/>
      <path class="cls-2" d="m275.63,348.82c-15.29,0-29.92-2.96-42.76-8.78h0c-13.28-6.03-38.01-17.25-39.94-39.64-1.5-17.46,11.85-33.55,25.62-39.02,5.61-2.23,11.85-3.02,18.54-2.35,7.29.73,14.68,3.15,21.98,7.19l-5.93,11.56c-8.11-3.84-15.94-4.65-22.04-2.28-7.56,2.94-15.11,12.06-14.29,20.95,1.12,12.16,18.3,19.97,27.53,24.16,15.34,6.97,34.26,8.51,53.28,4.32.54-.12,1.01-.23,1.4-.32l4.97-1.18,10.07,19.69-8.22,1.97c-.49.12-1.31.32-2.3.55-9.38,2.14-18.77,3.19-27.91,3.19Zm-38.86-17.38l-1.22,2.68,1.22-2.68h0Z"/>
    </g>
    <g>
      <path class="cls-2" d="m300.52,330.92c.21-.05.41-.1.57-.14l-15.1-29.04c-7.95-14.49-18.97-24.58-30.08-29.84-9.66-4.58-19.38-5.5-27.18-2.47-10.32,4.01-19.5,15.79-18.41,27.6,1.47,15.91,20.94,24.76,31.32,29.48,25.77,11.71,52.09,5.91,57.37,4.75.59-.13,1.09-.25,1.51-.35Zm-37.71-45.37c1.65-1.1,7.95,5.71,10.59,8.86,3.99,4.76,9.32,12.76,7.83,14.17-1.33,1.26-8.11-2.77-12.61-8.21-4.85-5.87-7.36-13.79-5.82-14.81Z"/>
      <path class="cls-2" d="m276.78,340.22c-13.51,0-26.46-2.63-37.82-7.79-11.63-5.29-33.28-15.13-35.1-34.8-1.43-15.41,10.33-29.52,22.52-34.26,9.46-3.68,20.94-2.74,32.32,2.65,13.17,6.24,24.89,17.81,32.99,32.59l.07.13,18.92,36.38-8.65,2.12h0c-.45.11-.98.23-1.61.37-7.94,1.75-15.88,2.62-23.64,2.62Zm-38.15-66.07c-2.7,0-5.24.44-7.54,1.33-7.56,2.94-15.11,12.06-14.29,20.95,1.12,12.16,18.3,19.97,27.53,24.16,13.65,6.21,30.13,8.1,47,5.49l-6.34-12.2c-1.4,1.02-3.15,1.51-5.01,1.4-5.75-.35-12.93-6.65-16.35-10.79-4.3-5.22-8.45-13.67-7.65-19.07.28-1.9,1.15-3.54,2.48-4.71-1.74-1.11-3.51-2.09-5.32-2.95-5.06-2.4-10.02-3.62-14.51-3.62Z"/>
    </g>
    <g>
      <path class="cls-2" d="m273.41,294.4c3.99,4.76,9.32,12.76,7.83,14.17-1.33,1.26-8.11-2.77-12.61-8.21-4.85-5.87-7.36-13.79-5.82-14.81,1.65-1.1,7.95,5.71,10.59,8.86Z"/>
      <path class="cls-2" d="m280.49,315.31c-.17,0-.35,0-.52-.02-5.75-.35-12.93-6.65-16.35-10.79-4.3-5.22-8.45-13.67-7.65-19.07.33-2.24,1.48-4.13,3.25-5.3,5.71-3.8,11.8,1.29,19.17,10.09h0c2.4,2.86,4.85,6.3,6.57,9.2,1.51,2.55,5.53,9.32.76,13.86-1.38,1.32-3.22,2.02-5.23,2.02Z"/>
    </g>
  </g>
  <g>
    <path class="cls-1" d="m219.11,267.84c5.48-2.23,11.71-2.87,18.23-2.01-5.54-.55-10.81.06-15.49,1.92-12,4.76-22.73,18.6-21.54,32.42,1.6,18.61,24.13,28.83,36.15,34.28,29.83,13.53,60.41,6.57,66.55,5.17.94-.21,1.71-.4,2.25-.54l2.51,5.02c-.58.15-1.48.38-2.59.65-6.56,1.56-39.28,9.32-71.01-5.04-12.79-5.79-36.76-16.64-38.32-36.71-1.16-14.9,10.42-29.93,23.27-35.16Z"/>
    <path class="cls-5" d="m236.45,334.45c-12.02-5.45-34.54-15.68-36.15-34.28-1.19-13.81,9.55-27.66,21.54-32.42,4.68-1.86,9.95-2.47,15.49-1.92,6.3.63,12.94,2.79,19.48,6.4-9.66-4.58-19.38-5.5-27.18-2.47-10.32,4.01-19.5,15.79-18.41,27.6,1.47,15.91,20.94,24.76,31.32,29.48,25.77,11.71,52.09,5.91,57.37,4.75.59-.13,1.09-.25,1.51-.35l3.99,7.79s-.11.03-.17.04c-.54.14-1.31.33-2.25.54-6.14,1.4-36.72,8.36-66.55-5.17Z"/>
    <path class="cls-4" d="m301.42,331.25c.21-.05.41-.1.57-.14l-15.1-29.04c-7.95-14.49-18.97-24.58-30.08-29.84-9.66-4.58-19.38-5.5-27.18-2.47-10.32,4.01-19.5,15.79-18.41,27.6,1.47,15.91,20.94,24.76,31.32,29.48,25.77,11.71,52.09,5.91,57.37,4.75.59-.13,1.09-.25,1.51-.35Zm-37.71-45.37c1.65-1.1,7.95,5.71,10.59,8.86,3.99,4.76,9.32,12.76,7.83,14.17-1.33,1.26-8.11-2.77-12.61-8.21-4.85-5.87-7.36-13.79-5.82-14.81Z"/>
    <path class="cls-3" d="m274.31,294.74c3.99,4.76,9.32,12.76,7.83,14.17-1.33,1.26-8.11-2.77-12.61-8.21-4.85-5.87-7.36-13.79-5.82-14.81,1.65-1.1,7.95,5.71,10.59,8.86Z"/>
  </g>
  <g>
    <g>
      <path class="cls-2" d="m455.58,366.85c-1.97-5.59-2.3-11.84-1.13-18.31-.82,5.51-.46,10.8,1.17,15.57,4.17,12.21,17.48,23.61,31.34,23.09,18.66-.7,29.96-22.71,35.99-34.45,14.96-29.14,9.48-60.02,8.38-66.22-.17-.95-.32-1.72-.43-2.28l5.13-2.27c.12.59.31,1.5.52,2.61,1.24,6.63,7.41,39.68-8.47,70.69-6.4,12.49-18.4,35.91-38.52,36.5-14.93.44-29.39-11.85-33.99-24.94Z"/>
      <path class="cls-2" d="m488.78,398.3c-18.19,0-34.21-14.74-39.34-29.29h0c-2.33-6.62-2.8-13.9-1.39-21.63l12.82,2.12c-.68,4.58-.38,8.78.89,12.51,3.2,9.36,13.97,19.08,24.94,18.69,14.86-.56,25-20.31,30.45-30.92,9-17.53,11.76-39.59,7.77-62.11-.16-.89-.3-1.62-.4-2.13l-1.03-5.12,17.25-7.61,1.65,7.85c.13.62.33,1.58.55,2.76,5.04,26.99,1.82,53.57-9.07,74.84-7.04,13.75-20.15,39.33-44.11,40.03-.33,0-.65.01-.98.01Z"/>
    </g>
    <g>
      <path class="cls-2" d="m522.95,352.75c-6.03,11.74-17.33,33.75-35.99,34.45-13.85.52-27.16-10.87-31.34-23.09-1.63-4.77-1.99-10.06-1.17-15.57.93-6.26,3.41-12.79,7.34-19.15-5.04,9.43-6.43,19.09-3.78,27.03,3.51,10.5,14.83,20.24,26.68,19.72,15.96-.7,25.74-19.71,30.96-29.85,12.95-25.17,8.42-51.74,7.52-57.07-.1-.59-.19-1.1-.27-1.52l7.97-3.6s.02.11.03.17c.11.55.26,1.33.43,2.28,1.1,6.2,6.58,37.08-8.38,66.22Z"/>
      <path class="cls-2" d="m486.02,393.71c-17.03,0-31.87-13.79-36.55-27.5-1.95-5.71-2.44-11.98-1.45-18.63,1.08-7.24,3.85-14.51,8.24-21.61l11.26,6.48c-4.23,7.92-5.42,15.7-3.35,21.91,2.57,7.7,11.31,15.69,20.23,15.28,12.2-.53,20.83-17.32,25.47-26.33,7.71-14.99,10.16-33.81,6.89-53.01-.09-.55-.18-1.03-.25-1.42l-.94-5.02,20.09-9.08,1.62,8.2c.11.57.28,1.4.45,2.4,4.49,25.3,1.29,50.28-9,70.32-6.66,12.98-19.07,37.13-41.53,37.97-.39.01-.79.02-1.18.02Z"/>
    </g>
    <g>
      <path class="cls-2" d="m522.9,287.69c-.04-.22-.08-.42-.11-.58l-29.74,13.68c-14.86,7.24-25.47,17.76-31.26,28.6-5.04,9.43-6.43,19.09-3.78,27.03,3.51,10.5,14.83,20.24,26.68,19.72,15.96-.7,25.74-19.71,30.96-29.85,12.95-25.17,8.42-51.74,7.52-57.07-.1-.59-.19-1.1-.27-1.52Zm-47.14,35.47c-1.02-1.7,6.08-7.66,9.36-10.15,4.95-3.75,13.2-8.69,14.54-7.14,1.2,1.39-3.16,7.97-8.82,12.19-6.1,4.56-14.13,6.68-15.08,5.09Z"/>
      <path class="cls-2" d="m483.76,382.66c-14.95,0-27.88-12.1-31.92-24.18-3.22-9.63-1.72-21.05,4.21-32.15,6.87-12.86,19-24,34.14-31.38l.13-.06,37.26-17.14,1.7,8.74s0,0,0,0h0c.08.46.18,1,.29,1.63,3.74,21.95.84,43.66-8.14,61.13-5.84,11.36-16.72,32.51-36.46,33.37-.41.02-.81.03-1.21.03Zm-13.04-55.38c-1.19,1.68-2.26,3.41-3.2,5.17-4.23,7.92-5.42,15.7-3.35,21.91,2.57,7.7,11.31,15.69,20.23,15.28,12.2-.53,20.83-17.32,25.47-26.33,6.86-13.33,9.55-29.71,7.76-46.67l-12.49,5.75c.95,1.45,1.36,3.22,1.15,5.08-.63,5.73-7.26,12.59-11.57,15.81-5.42,4.05-14.06,7.78-19.41,6.72-1.89-.37-3.48-1.32-4.59-2.71Z"/>
    </g>
    <g>
      <path class="cls-2" d="m485.12,313.01c4.95-3.75,13.2-8.69,14.54-7.14,1.2,1.39-3.16,7.97-8.82,12.19-6.1,4.56-14.13,6.68-15.08,5.09-1.02-1.7,6.08-7.66,9.36-10.15Z"/>
      <path class="cls-2" d="m477.31,330.18c-.71,0-1.38-.06-2-.18-2.23-.44-4.05-1.68-5.13-3.5-3.52-5.89,1.85-11.72,11.01-18.66h0c2.97-2.25,6.53-4.54,9.51-6.12,2.62-1.39,9.57-5.07,13.88-.09,1.36,1.57,1.97,3.65,1.73,5.84-.63,5.73-7.26,12.59-11.57,15.81-4.78,3.57-12.09,6.9-17.41,6.9Z"/>
    </g>
  </g>
  <g>
    <path class="cls-1" d="m455.95,365.96c-1.97-5.59-2.3-11.84-1.13-18.31-.82,5.51-.46,10.8,1.17,15.57,4.17,12.21,17.48,23.61,31.34,23.09,18.66-.7,29.96-22.71,35.99-34.45,14.96-29.14,9.48-60.02,8.38-66.22-.17-.95-.32-1.72-.43-2.28l5.13-2.27c.12.59.31,1.5.52,2.61,1.24,6.63,7.41,39.68-8.47,70.69-6.4,12.49-18.4,35.91-38.52,36.5-14.93.44-29.39-11.85-33.99-24.94Z"/>
    <path class="cls-5" d="m523.32,351.87c-6.03,11.74-17.33,33.75-35.99,34.45-13.85.52-27.16-10.87-31.34-23.09-1.63-4.77-1.99-10.06-1.17-15.57.93-6.26,3.41-12.79,7.34-19.15-5.04,9.43-6.43,19.09-3.78,27.03,3.51,10.5,14.83,20.24,26.68,19.72,15.96-.7,25.74-19.71,30.96-29.85,12.95-25.17,8.42-51.74,7.52-57.07-.1-.59-.19-1.1-.27-1.52l7.97-3.6s.02.11.03.17c.11.55.26,1.33.43,2.28,1.1,6.2,6.58,37.08-8.38,66.22Z"/>
    <path class="cls-4" d="m523.27,286.81c-.04-.22-.08-.42-.11-.58l-29.74,13.68c-14.86,7.24-25.47,17.76-31.26,28.6-5.04,9.43-6.43,19.09-3.78,27.03,3.51,10.5,14.83,20.24,26.68,19.72,15.96-.7,25.74-19.71,30.96-29.85,12.95-25.17,8.42-51.74,7.52-57.07-.1-.59-.19-1.1-.27-1.52Zm-47.14,35.47c-1.02-1.7,6.08-7.66,9.36-10.15,4.95-3.75,13.2-8.69,14.54-7.14,1.2,1.39-3.16,7.97-8.82,12.19-6.1,4.56-14.13,6.68-15.08,5.09Z"/>
    <path class="cls-3" d="m485.49,312.13c4.95-3.75,13.2-8.69,14.54-7.14,1.2,1.39-3.16,7.97-8.82,12.19-6.1,4.56-14.13,6.68-15.08,5.09-1.02-1.7,6.08-7.66,9.36-10.15Z"/>
  </g>
  <g>
    <g>
      <path class="cls-2" d="m99.19,416.28c1.97-5.59,2.3-11.84,1.13-18.31.82,5.51.46,10.8-1.17,15.57-4.17,12.21-17.48,23.61-31.34,23.09-18.66-.7-29.96-22.71-35.99-34.45-14.96-29.14-9.48-60.02-8.38-66.22.17-.95.32-1.72.43-2.28l-5.13-2.27c-.12.59-.31,1.5-.52,2.61-1.24,6.63-7.41,39.68,8.47,70.69,6.4,12.49,18.4,35.91,38.52,36.5,14.93.44,29.39-11.85,33.99-24.94Z"/>
      <path class="cls-2" d="m65.99,447.73c-.33,0-.65,0-.98-.01-23.96-.7-37.07-26.29-44.11-40.03-10.9-21.27-14.12-47.85-9.07-74.84.22-1.18.42-2.14.55-2.76l1.65-7.84,17.24,7.61-1.03,5.12c-.1.51-.25,1.24-.4,2.13-3.99,22.52-1.24,44.58,7.77,62.11,5.45,10.61,15.59,30.36,30.45,30.92,10.95.38,21.74-9.33,24.94-18.69,1.27-3.73,1.57-7.93.89-12.51l12.82-2.12c1.41,7.73.94,15.01-1.39,21.63h0c-5.12,14.56-21.14,29.29-39.33,29.29Z"/>
    </g>
    <g>
      <path class="cls-2" d="m31.82,402.18c6.03,11.74,17.33,33.75,35.99,34.45,13.85.52,27.16-10.87,31.34-23.09,1.63-4.77,1.99-10.06,1.17-15.57-.93-6.26-3.41-12.79-7.34-19.15,5.04,9.43,6.43,19.09,3.78,27.03-3.51,10.5-14.83,20.24-26.68,19.72-15.96-.7-25.74-19.71-30.96-29.85-12.95-25.17-8.42-51.74-7.52-57.07.1-.59.19-1.1.27-1.52l-7.97-3.6s-.02.11-.03.17c-.11.55-.26,1.33-.43,2.28-1.1,6.2-6.58,37.08,8.38,66.22Z"/>
      <path class="cls-2" d="m68.75,443.14c-.39,0-.78,0-1.18-.02-22.46-.84-34.87-25-41.53-37.97h0c-10.29-20.04-13.49-45.02-9-70.32.18-1.01.34-1.84.46-2.42l.04-.2,1.64-7.96,20.03,9.06-.94,5.02c-.07.39-.16.87-.25,1.42-3.27,19.2-.82,38.02,6.89,53.01,4.64,9.02,13.27,25.8,25.47,26.33,8.95.4,17.66-7.59,20.23-15.28,2.07-6.21.88-13.99-3.35-21.91l11.26-6.48c4.39,7.09,7.16,14.37,8.24,21.61.99,6.65.5,12.92-1.45,18.63-4.68,13.71-19.53,27.5-36.55,27.5Zm-34.31-42.31l-2.62,1.34,2.62-1.34Z"/>
    </g>
    <g>
      <path class="cls-2" d="m31.6,338.65c-.91,5.33-5.43,31.9,7.52,57.07,5.22,10.14,15,29.15,30.96,29.85,11.85.52,23.17-9.22,26.68-19.72,2.65-7.94,1.26-17.6-3.78-27.03-5.79-10.84-16.4-21.36-31.26-28.6l-29.74-13.68c-.03.16-.07.36-.11.58-.08.42-.17.93-.27,1.52Zm32.33,28.85c-5.65-4.22-10.01-10.81-8.82-12.19,1.34-1.55,9.59,3.39,14.54,7.14,3.27,2.48,10.37,8.45,9.36,10.15-.95,1.59-8.98-.54-15.08-5.09Z"/>
      <path class="cls-2" d="m71,432.09c-.4,0-.81,0-1.21-.03-19.74-.87-30.61-22.01-36.46-33.38-8.99-17.47-11.88-39.18-8.14-61.13h0c.11-.63.21-1.18.29-1.63l1.7-8.74,37.38,17.2c15.15,7.38,27.27,18.52,34.14,31.38,5.93,11.1,7.43,22.52,4.21,32.15-4.03,12.08-16.97,24.18-31.92,24.18Zm-33.87-86.02c-1.79,16.97.9,33.34,7.76,46.67,4.64,9.02,13.27,25.8,25.47,26.33,8.92.41,17.66-7.59,20.23-15.28,2.07-6.21.88-13.99-3.35-21.91-.94-1.76-2.01-3.49-3.2-5.17-1.1,1.39-2.7,2.34-4.59,2.71-5.35,1.06-14-2.67-19.41-6.72-4.31-3.22-10.95-10.08-11.57-15.81-.2-1.86.2-3.63,1.15-5.08l-12.49-5.75Z"/>
    </g>
    <g>
      <path class="cls-2" d="m69.65,362.44c-4.95-3.75-13.2-8.69-14.54-7.14-1.2,1.39,3.16,7.97,8.82,12.19,6.1,4.56,14.13,6.68,15.08,5.09,1.02-1.7-6.08-7.66-9.36-10.15Z"/>
      <path class="cls-2" d="m77.45,379.61c-5.33,0-12.63-3.33-17.41-6.9-4.31-3.22-10.95-10.08-11.57-15.81-.24-2.2.37-4.27,1.73-5.84,4.31-4.99,11.26-1.3,13.88.08,2.98,1.58,6.53,3.87,9.51,6.12h0c10.97,8.32,14.06,13.56,11.01,18.66-1.09,1.82-2.91,3.06-5.14,3.5-.62.12-1.3.18-2,.18Z"/>
    </g>
  </g>
  <g>
    <path class="cls-1" d="m98.82,415.39c1.97-5.59,2.3-11.84,1.13-18.31.82,5.51.46,10.8-1.17,15.57-4.17,12.21-17.48,23.61-31.34,23.09-18.66-.7-29.96-22.71-35.99-34.45-14.96-29.14-9.48-60.02-8.38-66.22.17-.95.32-1.72.43-2.28l-5.13-2.27c-.12.59-.31,1.5-.52,2.61-1.24,6.63-7.41,39.68,8.47,70.69,6.4,12.49,18.4,35.91,38.52,36.5,14.93.44,29.39-11.85,33.99-24.94Z"/>
    <path class="cls-5" d="m31.45,401.29c6.03,11.74,17.33,33.75,35.99,34.45,13.85.52,27.16-10.87,31.34-23.09,1.63-4.77,1.99-10.06,1.17-15.57-.93-6.26-3.41-12.79-7.34-19.15,5.04,9.43,6.43,19.09,3.78,27.03-3.51,10.5-14.83,20.24-26.68,19.72-15.96-.7-25.74-19.71-30.96-29.85-12.95-25.17-8.42-51.74-7.52-57.07.1-.59.19-1.1.27-1.52l-7.97-3.6s-.02.11-.03.17c-.11.55-.26,1.33-.43,2.28-1.1,6.2-6.58,37.08,8.38,66.22Z"/>
    <path class="cls-4" d="m31.22,337.76c-.91,5.33-5.43,31.9,7.52,57.07,5.22,10.14,15,29.15,30.96,29.85,11.85.52,23.17-9.22,26.68-19.72,2.65-7.94,1.26-17.6-3.78-27.03-5.79-10.84-16.4-21.36-31.26-28.6l-29.74-13.68c-.03.16-.07.36-.11.58-.08.42-.17.93-.27,1.52Zm32.33,28.85c-5.65-4.22-10.01-10.81-8.82-12.19,1.34-1.55,9.59,3.39,14.54,7.14,3.27,2.48,10.37,8.45,9.36,10.15-.95,1.59-8.98-.54-15.08-5.09Z"/>
    <path class="cls-3" d="m69.28,361.56c-4.95-3.75-13.2-8.69-14.54-7.14-1.2,1.39,3.16,7.97,8.82,12.19,6.1,4.56,14.13,6.68,15.08,5.09,1.02-1.7-6.08-7.66-9.36-10.15Z"/>
  </g>
  <g>
    <g>
      <path class="cls-2" d="m415.82,492.28c1.97-5.59,2.3-11.84,1.13-18.31.82,5.51.46,10.8-1.17,15.57-4.17,12.21-17.48,23.61-31.34,23.09-18.66-.7-29.96-22.71-35.99-34.45-14.96-29.14-9.48-60.02-8.38-66.22.17-.95.32-1.72.43-2.28l-5.13-2.27c-.12.59-.31,1.5-.52,2.61-1.24,6.63-7.41,39.68,8.47,70.69,6.4,12.49,18.4,35.91,38.52,36.5,14.93.44,29.39-11.85,33.99-24.94Z"/>
      <path class="cls-2" d="m382.61,523.73c-.33,0-.65,0-.98-.01-23.96-.7-37.07-26.29-44.11-40.03-10.9-21.27-14.12-47.85-9.07-74.84.22-1.18.42-2.14.55-2.77l1.66-7.83,17.24,7.61-1.03,5.12c-.1.51-.24,1.24-.4,2.13-4,22.52-1.24,44.58,7.77,62.11,5.45,10.61,15.59,30.36,30.45,30.92,10.97.37,21.74-9.33,24.94-18.69,1.27-3.73,1.57-7.93.89-12.51l12.82-2.12c1.41,7.73.94,15.01-1.39,21.63h0c-5.12,14.56-21.15,29.29-39.34,29.29Z"/>
    </g>
    <g>
      <path class="cls-2" d="m348.45,478.18c6.03,11.74,17.33,33.75,35.99,34.45,13.85.52,27.16-10.87,31.34-23.09,1.63-4.77,1.99-10.06,1.17-15.57-.93-6.26-3.41-12.79-7.34-19.15,5.04,9.43,6.43,19.09,3.78,27.03-3.51,10.5-14.83,20.24-26.68,19.72-15.96-.7-25.74-19.71-30.96-29.85-12.95-25.17-8.42-51.74-7.52-57.07.1-.59.19-1.1.27-1.52l-7.97-3.6s-.02.11-.03.17c-.11.55-.26,1.33-.43,2.28-1.1,6.2-6.58,37.08,8.38,66.22Z"/>
      <path class="cls-2" d="m385.37,519.14c-.39,0-.78,0-1.18-.02-22.46-.84-34.87-25-41.53-37.97h0c-10.29-20.05-13.49-45.02-9-70.32.18-1.01.34-1.83.46-2.42l1.58-8.05,7.5,3.24,12.62,5.71-.94,5.02c-.07.39-.16.87-.25,1.42-3.27,19.2-.82,38.02,6.89,53.01,4.64,9.02,13.27,25.8,25.47,26.33,8.92.4,17.66-7.59,20.23-15.28,2.07-6.21.88-13.99-3.35-21.91l11.26-6.48c4.39,7.09,7.16,14.37,8.24,21.61.99,6.65.5,12.92-1.45,18.63-4.68,13.71-19.53,27.5-36.55,27.5Z"/>
    </g>
    <g>
      <path class="cls-2" d="m348.22,414.65c-.91,5.33-5.43,31.9,7.52,57.07,5.22,10.14,15,29.15,30.96,29.85,11.85.52,23.17-9.22,26.68-19.72,2.65-7.94,1.26-17.6-3.78-27.03-5.79-10.84-16.4-21.36-31.26-28.6l-29.74-13.68c-.03.16-.07.36-.11.58-.08.42-.17.93-.27,1.52Zm32.33,28.85c-5.65-4.22-10.01-10.81-8.82-12.19,1.34-1.55,9.59,3.39,14.54,7.14,3.27,2.48,10.37,8.45,9.36,10.15-.95,1.59-8.98-.54-15.08-5.09Z"/>
      <path class="cls-2" d="m387.63,508.09c-.4,0-.81,0-1.21-.03-19.74-.87-30.61-22.01-36.46-33.38-8.99-17.47-11.88-39.19-8.14-61.13.11-.63.21-1.18.29-1.63l1.7-8.74,37.38,17.2c15.15,7.38,27.27,18.52,34.14,31.38,5.93,11.1,7.43,22.52,4.21,32.15-4.03,12.08-16.97,24.18-31.92,24.18Zm-33.87-86.02c-1.79,16.97.9,33.34,7.76,46.67,4.64,9.02,13.27,25.8,25.47,26.33,8.92.4,17.66-7.59,20.23-15.28,2.07-6.21.88-13.99-3.35-21.91-.94-1.76-2.01-3.49-3.2-5.17-1.1,1.39-2.7,2.34-4.59,2.71-5.35,1.06-14-2.67-19.41-6.72h0c-4.31-3.22-10.95-10.09-11.57-15.81-.2-1.86.21-3.63,1.15-5.08l-12.49-5.75Z"/>
    </g>
    <g>
      <path class="cls-2" d="m386.28,438.44c-4.95-3.75-13.2-8.69-14.54-7.14-1.2,1.39,3.16,7.97,8.82,12.19,6.1,4.56,14.13,6.68,15.08,5.09,1.02-1.7-6.08-7.66-9.36-10.15Z"/>
      <path class="cls-2" d="m394.08,455.61c-5.33,0-12.63-3.33-17.41-6.9-4.31-3.22-10.95-10.09-11.57-15.81-.24-2.2.37-4.27,1.73-5.84,4.31-4.99,11.26-1.3,13.88.08,2.98,1.58,6.53,3.87,9.51,6.12h0c9.15,6.94,14.53,12.77,11.01,18.66-1.09,1.82-2.91,3.06-5.13,3.5-.62.12-1.3.18-2,.18Z"/>
    </g>
  </g>
  <g>
    <path class="cls-1" d="m415.44,491.39c1.97-5.59,2.3-11.84,1.13-18.31.82,5.51.46,10.8-1.17,15.57-4.17,12.21-17.48,23.61-31.34,23.09-18.66-.7-29.96-22.71-35.99-34.45-14.96-29.14-9.48-60.02-8.38-66.22.17-.95.32-1.72.43-2.28l-5.13-2.27c-.12.59-.31,1.5-.52,2.61-1.24,6.63-7.41,39.68,8.47,70.69,6.4,12.49,18.4,35.91,38.52,36.5,14.93.44,29.39-11.85,33.99-24.94Z"/>
    <path class="cls-5" d="m348.07,477.29c6.03,11.74,17.33,33.75,35.99,34.45,13.85.52,27.16-10.87,31.34-23.09,1.63-4.77,1.99-10.06,1.17-15.57-.93-6.26-3.41-12.79-7.34-19.15,5.04,9.43,6.43,19.09,3.78,27.03-3.51,10.5-14.83,20.24-26.68,19.72-15.96-.7-25.74-19.71-30.96-29.85-12.95-25.17-8.42-51.74-7.52-57.07.1-.59.19-1.1.27-1.52l-7.97-3.6s-.02.11-.03.17c-.11.55-.26,1.33-.43,2.28-1.1,6.2-6.58,37.08,8.38,66.22Z"/>
    <path class="cls-4" d="m347.85,413.76c-.91,5.33-5.43,31.9,7.52,57.07,5.22,10.14,15,29.15,30.96,29.85,11.85.52,23.17-9.22,26.68-19.72,2.65-7.94,1.26-17.6-3.78-27.03-5.79-10.84-16.4-21.36-31.26-28.6l-29.74-13.68c-.03.16-.07.36-.11.58-.08.42-.17.93-.27,1.52Zm32.33,28.85c-5.65-4.22-10.01-10.81-8.82-12.19,1.34-1.55,9.59,3.39,14.54,7.14,3.27,2.48,10.37,8.45,9.36,10.15-.95,1.59-8.98-.54-15.08-5.09Z"/>
    <path class="cls-3" d="m385.9,437.56c-4.95-3.75-13.2-8.69-14.54-7.14-1.2,1.39,3.16,7.97,8.82,12.19,6.1,4.56,14.13,6.68,15.08,5.09,1.02-1.7-6.08-7.66-9.36-10.15Z"/>
  </g>
  <g>
    <g>
      <path class="cls-2" d="m840.82,378.28c1.97-5.59,2.3-11.84,1.13-18.31.82,5.51.46,10.8-1.17,15.57-4.17,12.21-17.48,23.61-31.34,23.09-18.66-.7-29.96-22.71-35.99-34.45-14.96-29.14-9.48-60.02-8.38-66.22.17-.95.32-1.72.43-2.28l-5.13-2.27c-.12.59-.31,1.5-.52,2.61-1.24,6.63-7.41,39.68,8.47,70.69,6.4,12.49,18.4,35.91,38.52,36.5,14.93.44,29.39-11.85,33.99-24.94Z"/>
      <path class="cls-2" d="m807.61,409.73c-.33,0-.65,0-.98-.01-23.96-.7-37.07-26.28-44.11-40.03-10.9-21.27-14.12-47.85-9.08-74.84.22-1.18.42-2.15.55-2.77l1.66-7.83,17.23,7.61-1.03,5.12c-.1.51-.25,1.24-.4,2.13-3.99,22.52-1.24,44.58,7.77,62.11,5.45,10.61,15.59,30.36,30.45,30.92,10.93.39,21.74-9.33,24.94-18.69,1.27-3.72,1.57-7.93.89-12.51l12.82-2.12c1.41,7.73.94,15.01-1.39,21.63h0c-5.12,14.56-21.14,29.3-39.33,29.3Z"/>
    </g>
    <g>
      <path class="cls-2" d="m773.45,364.18c6.03,11.74,17.33,33.75,35.99,34.45,13.85.52,27.16-10.87,31.34-23.09,1.63-4.77,1.99-10.06,1.17-15.57-.93-6.26-3.41-12.79-7.34-19.15,5.04,9.43,6.43,19.09,3.78,27.03-3.51,10.5-14.83,20.24-26.68,19.72-15.96-.7-25.74-19.71-30.96-29.85-12.95-25.17-8.42-51.74-7.52-57.07.1-.59.19-1.1.27-1.52l-7.97-3.6s-.02.11-.03.17c-.11.55-.26,1.33-.43,2.28-1.1,6.2-6.58,37.08,8.38,66.22Z"/>
      <path class="cls-2" d="m810.37,405.14c-.39,0-.79,0-1.18-.02-22.46-.84-34.87-24.99-41.53-37.97h0c-10.29-20.05-13.49-45.02-9-70.32.18-1.01.34-1.84.46-2.42l1.58-8.05,7.5,3.24,12.62,5.71-.94,5.02c-.07.39-.16.87-.26,1.43-3.27,19.19-.82,38.01,6.89,53,4.64,9.02,13.27,25.8,25.47,26.33,8.9.41,17.66-7.59,20.23-15.28,2.07-6.21.88-13.99-3.35-21.91l11.26-6.48c4.39,7.09,7.16,14.37,8.24,21.61.99,6.65.5,12.92-1.45,18.63-4.68,13.71-19.53,27.5-36.55,27.5Z"/>
    </g>
    <g>
      <path class="cls-2" d="m773.22,300.65c-.91,5.33-5.43,31.9,7.52,57.07,5.22,10.14,15,29.15,30.96,29.85,11.85.52,23.17-9.22,26.68-19.72,2.65-7.94,1.26-17.6-3.78-27.03-5.79-10.84-16.4-21.36-31.26-28.6l-29.74-13.68c-.03.16-.07.36-.11.58-.08.42-.17.93-.27,1.52Zm32.33,28.85c-5.65-4.22-10.01-10.81-8.82-12.19,1.34-1.55,9.59,3.39,14.54,7.14,3.27,2.48,10.37,8.45,9.36,10.15-.95,1.59-8.98-.54-15.08-5.09Z"/>
      <path class="cls-2" d="m812.63,394.09c-.4,0-.81,0-1.21-.03-19.73-.87-30.61-22.01-36.46-33.37-8.99-17.47-11.88-39.18-8.14-61.13h0c.11-.64.21-1.19.29-1.63l1.7-8.74,37.38,17.2c15.15,7.38,27.27,18.52,34.14,31.38,5.93,11.1,7.43,22.52,4.21,32.15-4.03,12.08-16.96,24.18-31.92,24.18Zm-33.87-86.02c-1.79,16.97.9,33.34,7.76,46.67,4.64,9.02,13.27,25.8,25.47,26.33,8.9.41,17.66-7.59,20.23-15.28,2.07-6.21.88-13.99-3.35-21.91-.94-1.76-2.01-3.49-3.2-5.17-1.1,1.39-2.7,2.34-4.59,2.71-5.34,1.06-14-2.67-19.41-6.72-4.31-3.22-10.95-10.08-11.57-15.81-.2-1.86.2-3.63,1.15-5.08l-12.49-5.75Z"/>
    </g>
    <g>
      <path class="cls-2" d="m811.28,324.44c-4.95-3.75-13.2-8.69-14.54-7.14-1.2,1.39,3.16,7.97,8.82,12.19,6.1,4.56,14.13,6.68,15.08,5.09,1.02-1.7-6.08-7.66-9.36-10.15Z"/>
      <path class="cls-2" d="m819.08,341.61c-5.33,0-12.63-3.33-17.41-6.9-4.31-3.22-10.95-10.08-11.57-15.81-.24-2.2.37-4.27,1.73-5.84,4.31-4.99,11.26-1.3,13.88.08,2.98,1.58,6.54,3.87,9.51,6.12h0c9.16,6.94,14.53,12.78,11.01,18.66-1.08,1.81-2.91,3.06-5.13,3.5-.62.12-1.3.18-2,.18Z"/>
    </g>
  </g>
  <g>
    <path class="cls-1" d="m840.44,377.39c1.97-5.59,2.3-11.84,1.13-18.31.82,5.51.46,10.8-1.17,15.57-4.17,12.21-17.48,23.61-31.34,23.09-18.66-.7-29.96-22.71-35.99-34.45-14.96-29.14-9.48-60.02-8.38-66.22.17-.95.32-1.72.43-2.28l-5.13-2.27c-.12.59-.31,1.5-.52,2.61-1.24,6.63-7.41,39.68,8.47,70.69,6.4,12.49,18.4,35.91,38.52,36.5,14.93.44,29.39-11.85,33.99-24.94Z"/>
    <path class="cls-5" d="m773.07,363.29c6.03,11.74,17.33,33.75,35.99,34.45,13.85.52,27.16-10.87,31.34-23.09,1.63-4.77,1.99-10.06,1.17-15.57-.93-6.26-3.41-12.79-7.34-19.15,5.04,9.43,6.43,19.09,3.78,27.03-3.51,10.5-14.83,20.24-26.68,19.72-15.96-.7-25.74-19.71-30.96-29.85-12.95-25.17-8.42-51.74-7.52-57.07.1-.59.19-1.1.27-1.52l-7.97-3.6s-.02.11-.03.17c-.11.55-.26,1.33-.43,2.28-1.1,6.2-6.58,37.08,8.38,66.22Z"/>
    <path class="cls-4" d="m772.85,299.76c-.91,5.33-5.43,31.9,7.52,57.07,5.22,10.14,15,29.15,30.96,29.85,11.85.52,23.17-9.22,26.68-19.72,2.65-7.94,1.26-17.6-3.78-27.03-5.79-10.84-16.4-21.36-31.26-28.6l-29.74-13.68c-.03.16-.07.36-.11.58-.08.42-.17.93-.27,1.52Zm32.33,28.85c-5.65-4.22-10.01-10.81-8.82-12.19,1.34-1.55,9.59,3.39,14.54,7.14,3.27,2.48,10.37,8.45,9.36,10.15-.95,1.59-8.98-.54-15.08-5.09Z"/>
    <path class="cls-3" d="m810.9,323.56c-4.95-3.75-13.2-8.69-14.54-7.14-1.2,1.39,3.16,7.97,8.82,12.19,6.1,4.56,14.13,6.68,15.08,5.09,1.02-1.7-6.08-7.66-9.36-10.15Z"/>
  </g>
  <g>
    <g>
      <path class="cls-2" d="m663.38,341.99c-5.81,1.16-11.35,4.06-16.31,8.38,4.32-3.52,9.05-5.91,13.98-6.94,12.63-2.65,29.22,2.98,35.85,15.15,8.93,16.4-4.22,37.36-11.24,48.53-17.41,27.74-46.76,38.8-52.65,41.02-.9.34-1.65.61-2.18.79l.67,5.57c.57-.19,1.45-.5,2.51-.89,6.33-2.32,37.9-13.89,56.45-43.38,7.47-11.88,21.48-34.15,11.71-51.75-7.25-13.06-25.2-19.21-38.8-16.49Z"/>
      <path class="cls-2" d="m626.02,463.23l-2.26-18.7,4.92-1.73c.5-.17,1.2-.42,2.04-.74,21.4-8.06,38.96-21.7,49.44-38.4,6.34-10.1,18.14-28.91,11.03-41.97-5.24-9.63-19.13-13.93-28.81-11.9-3.85.81-7.62,2.7-11.21,5.62l-8.37-9.94c5.93-5.16,12.42-8.47,19.31-9.85,15.4-3.08,36.73,3.45,45.76,19.71,11.64,20.96-3.67,45.29-11.89,58.37-12.72,20.23-33.93,36.57-59.71,46.02-1.13.41-2.06.74-2.66.94l-7.58,2.58Z"/>
    </g>
    <g>
      <path class="cls-2" d="m685.67,407.12c7.01-11.18,20.16-32.13,11.24-48.53-6.63-12.18-23.22-17.8-35.85-15.15-4.93,1.03-9.67,3.43-13.98,6.94-4.91,4-9.26,9.46-12.71,16.09,5.53-9.15,13.13-15.28,21.31-17.05,10.82-2.35,24.97,2.41,30.58,12.87,7.55,14.08-3.8,32.2-9.86,41.87-15.03,23.99-40.18,33.67-45.23,35.61-.56.22-1.05.4-1.45.54l.97,8.7s.11-.04.16-.06c.53-.19,1.28-.45,2.18-.79,5.89-2.22,35.24-13.28,52.65-41.02Z"/>
      <path class="cls-2" d="m625.13,457.8l-2.44-21.85,4.79-1.75c.38-.14.83-.3,1.35-.51,18.17-6.99,33.11-18.71,42.06-32.99,5.38-8.59,15.4-24.59,9.64-35.34-4.22-7.87-15.54-11.31-23.47-9.59-6.4,1.39-12.48,6.38-17.12,14.06l-11.32-6.37c3.86-7.4,8.69-13.5,14.37-18.12,5.21-4.25,10.85-7.03,16.76-8.27,14.51-3.04,34.51,3.01,42.89,18.41,10.75,19.74-3.69,42.74-11.44,55.1-11.98,19.09-31.82,34.59-55.86,43.65-.95.36-1.75.64-2.31.84l-7.88,2.73Z"/>
    </g>
    <g>
      <path class="cls-2" d="m631.16,439.75c5.05-1.94,30.2-11.62,45.23-35.61,6.05-9.66,17.41-27.78,9.86-41.87-5.6-10.45-19.76-15.22-30.58-12.87-8.18,1.77-15.77,7.91-21.31,17.05-6.36,10.51-9.99,25.01-8.63,41.48l3.42,32.55c.15-.06.35-.12.55-.2.4-.15.89-.33,1.45-.54Zm8.29-42.53c-.74,7.02-4.18,14.13-5.98,13.81-2.01-.36-1.98-9.97-1.28-16.14.46-4.08,1.96-13.23,3.95-13.23,1.85,0,4.12,7.99,3.32,15.57Z"/>
      <path class="cls-2" d="m623.56,449.42l-4.31-40.95c-1.39-16.79,2-32.91,9.54-45.38,6.51-10.77,15.57-17.89,25.49-20.04,12.77-2.77,30.37,2.51,37.69,16.15,9.33,17.41-3.29,37.56-10.07,48.38-10.44,16.66-27.63,30.23-48.41,38.23-.6.23-1.12.42-1.55.58l-8.38,3.02Zm9.72-31.89l1.44,13.67c15.5-7.12,28.2-17.8,36.17-30.51,5.38-8.59,15.4-24.59,9.64-35.34-4.22-7.87-15.54-11.31-23.47-9.59-6.4,1.39-12.48,6.38-17.12,14.06-1.04,1.71-1.97,3.51-2.81,5.39,1.76.24,3.39,1.13,4.67,2.56,3.64,4.06,4.85,13.4,4.14,20.12h0c-.7,6.61-3.56,14.93-7.68,18.03-1.49,1.12-3.22,1.68-4.96,1.6Z"/>
    </g>
    <g>
      <path class="cls-2" d="m632.18,394.88c-.7,6.17-.73,15.79,1.28,16.14,1.8.32,5.24-6.79,5.98-13.81.8-7.57-1.47-15.56-3.32-15.57-1.98,0-3.48,9.14-3.95,13.23Z"/>
      <path class="cls-2" d="m633.59,417.54c-.42,0-.84-.04-1.26-.11-6.49-1.15-6.87-9.02-7.02-11.97-.16-3.37-.01-7.59.41-11.3h0c1.55-13.67,4.47-19,10.4-19h.02c2.12,0,4.12.94,5.63,2.63,3.64,4.06,4.85,13.4,4.14,20.12-.7,6.61-3.56,14.93-7.68,18.02-1.4,1.05-3.01,1.61-4.64,1.61Z"/>
    </g>
  </g>
  <g>
    <path class="cls-1" d="m662.82,342.77c-5.81,1.16-11.35,4.06-16.31,8.38,4.32-3.52,9.05-5.91,13.98-6.94,12.63-2.65,29.22,2.98,35.85,15.15,8.93,16.4-4.22,37.36-11.24,48.53-17.41,27.74-46.76,38.8-52.65,41.02-.9.34-1.65.61-2.18.79l.67,5.57c.57-.19,1.45-.5,2.51-.89,6.33-2.32,37.9-13.89,56.45-43.38,7.47-11.88,21.48-34.15,11.71-51.75-7.25-13.06-25.2-19.21-38.8-16.49Z"/>
    <path class="cls-5" d="m685.1,407.89c7.01-11.18,20.16-32.13,11.24-48.53-6.63-12.18-23.22-17.8-35.85-15.15-4.93,1.03-9.67,3.43-13.98,6.94-4.91,4-9.26,9.46-12.71,16.09,5.53-9.15,13.13-15.28,21.31-17.05,10.82-2.35,24.97,2.41,30.58,12.87,7.55,14.08-3.8,32.2-9.86,41.87-15.03,23.99-40.18,33.67-45.23,35.61-.56.22-1.05.4-1.45.54l.97,8.7s.11-.04.16-.06c.53-.19,1.28-.45,2.18-.79,5.89-2.22,35.24-13.28,52.65-41.02Z"/>
    <path class="cls-4" d="m630.59,440.52c5.05-1.94,30.2-11.62,45.23-35.61,6.05-9.66,17.41-27.78,9.86-41.87-5.6-10.45-19.76-15.22-30.58-12.87-8.18,1.77-15.77,7.91-21.31,17.05-6.36,10.51-9.99,25.01-8.63,41.48l3.42,32.55c.15-.06.35-.12.55-.2.4-.15.89-.33,1.45-.54Zm8.29-42.53c-.74,7.02-4.18,14.13-5.98,13.81-2.01-.36-1.98-9.97-1.28-16.14.46-4.08,1.96-13.23,3.95-13.23,1.85,0,4.12,7.99,3.32,15.57Z"/>
    <path class="cls-3" d="m631.62,395.66c-.7,6.17-.73,15.79,1.28,16.14,1.8.32,5.24-6.79,5.98-13.81.8-7.57-1.47-15.56-3.32-15.57-1.98,0-3.48,9.14-3.95,13.23Z"/>
  </g>
</svg>