<?xml version="1.0" encoding="UTF-8"?>
<svg id="Layer_1" data-name="Layer 1" xmlns="http://www.w3.org/2000/svg" viewBox="0 0 541.91 431.94">
  <defs>
    <style>
      .cls-1 {
        fill: #fad7b7;
      }

      .cls-2 {
        fill: #e4b1d2;
      }

      .cls-3 {
        fill: #fff;
      }

      .cls-4 {
        fill: #f0cfe4;
      }

      .cls-5 {
        fill: #e5b17f;
      }

      .cls-6 {
        fill: #b27ba5;
      }
    </style>
  </defs>
  <g>
    <g>
      <path class="cls-3" d="m351.43,10.52c-4.07-.4-9.46,22.95-10.25,26.38-4.51,19.51-2.01,22.99-6.28,38.39-2.67,9.64-5.84,16.16-12.06,28.98-7.73,15.91-11.28,19.79-17.47,31.76-1.82,3.52-10.71,21-16.09,41.97-7.19,28.05-5.23,51.16-4.13,62.99,1.45,15.51,4.32,43.15,21.45,73.84,2.49,4.46,21.53,37.72,58.27,61.32,19.98,12.83,37.29,17.74,41.56,18.89,3.23.87,11.18,2.88,21.59,3.84,6.54.61,11.76.29,22.2-.35,1.68-.1,6.68,1.04,9.54-1.71.41-.39.66-.63.86-1.07,1.52-3.28-5.14-6.8-4.78-11.41.33-4.15,4.49-4.47,7.82-9.58,5.23-8.04-.58-14.11,3.84-21.59,1.55-2.63,6.53-5.04,16.42-9.77,11.74-5.61,17.61-8.41,22.02-8.95,12.91-1.59,18.06,5.09,22.6,1.85,2.62-1.87,6.04-7.78-3.12-37.61-6.6-21.48-13.31-34.49-18.9-47.04-11.7-26.26-7.04-24.78-21.07-61.64-9.36-24.58-16.41-42.78-30.67-64.46-12.72-19.35-20.47-31.13-35.72-39.47-3.97-2.17-8.15-3.95-29.97-15.06-15.69-7.99-17.73-9.21-20.37-12.24-6.57-7.53-8.93-17.16-12.53-31.83-2.74-11.15-2.89-16.23-4.77-16.41Z"/>
      <path class="cls-3" d="m435.12,409.7c-2.7,0-5.27-.11-8.05-.37-7.9-.74-15.98-2.17-23.35-4.16-8.41-2.26-25.37-7.9-44.5-20.19-37.8-24.28-58.09-58.44-61.77-65.04-18.56-33.25-21.38-63.46-22.73-77.98-1.01-10.83-3.38-36.19,4.41-66.58,5.24-20.43,13.58-37.7,16.93-44.18,2.76-5.34,5.04-9.19,7.25-12.91,3-5.06,5.83-9.83,10.1-18.62,6.16-12.69,8.97-18.47,11.39-27.19,1.91-6.88,2.27-10.9,2.73-15.98.49-5.45,1.05-11.62,3.44-21.96,1.35-5.85,2.73-11.04,4.11-15.42,2.37-7.53,6.33-20.13,17.4-19.05h0c8.96.88,10.65,9.1,12.02,15.7.48,2.31,1.07,5.2,1.92,8.65,3.34,13.6,5.35,21.81,10.25,27.42,1.29,1.48,3.04,2.56,17.23,9.79,12.26,6.24,18.79,9.46,23.1,11.58,3.36,1.66,5.22,2.57,7.14,3.62,17.55,9.6,26.26,22.85,39.45,42.92,15.18,23.09,22.84,43.21,31.71,66.5,6.97,18.31,9.5,27.58,11.53,35.03,2.1,7.69,3.61,13.25,9.32,26.07,1.02,2.29,2.08,4.59,3.16,6.96,4.97,10.83,10.61,23.1,16.19,41.27,8.82,28.7,8.59,42.5-.8,49.23-6.4,4.58-12.98,2.55-16.91,1.34-3.09-.95-6.01-1.86-10.52-1.3-2.71.33-9.1,3.38-18.76,8-4.82,2.3-10.22,4.88-12.16,6.22-.14.58-.12,1.46.03,3.5.31,4.28.78,10.76-3.87,17.9-1.46,2.24-3,3.89-4.36,5.16,2.15,3.07,4.93,8.32,2.04,14.53-1.03,2.22-2.38,3.52-3.11,4.22-5.6,5.38-12.92,4.88-16.05,4.67-.16-.01-.31-.02-.44-.03-6.43.39-11.1.68-15.44.68Zm15.76-.7h0,0ZM350.17,45.15c-1.05,5.55-1.4,9.44-1.74,13.24-.49,5.41-.99,11-3.41,19.7-2.93,10.56-6.41,17.73-12.73,30.75-4.65,9.58-7.85,14.97-10.93,20.17-2.15,3.62-4.18,7.04-6.65,11.83-3.02,5.84-10.54,21.4-15.24,39.76-6.89,26.85-4.83,48.84-3.85,59.41,1.32,14.09,3.77,40.32,20.16,69.7,3.26,5.83,21.2,36.03,54.78,57.6,17.38,11.16,32.8,16.01,38.62,17.58,6.24,1.68,13.1,2.9,19.83,3.53,4.96.46,9.12.31,16.76-.15-.35-1.46-.51-3.05-.37-4.77.54-6.81,4.86-10.31,7.18-12.2,1.17-.95,1.76-1.45,2.31-2.28.7-1.07.76-1.67.52-4.93-.28-3.93-.71-9.86,3.08-16.28,3.21-5.43,9.13-8.26,20.93-13.9,13.16-6.28,19.16-9.15,25.26-9.9,6.85-.84,12.23.12,16.11,1.15-.37-4.05-1.64-11.22-5.39-23.4-5.17-16.84-10.5-28.44-15.2-38.68-1.12-2.44-2.21-4.81-3.26-7.17-6.37-14.29-8.24-21.15-10.4-29.1-2.01-7.37-4.29-15.73-10.89-33.08-8.78-23.05-15.71-41.26-29.63-62.43-12.27-18.66-19.03-28.94-31.99-36.03-1.53-.84-3.24-1.68-6.34-3.21-4.1-2.02-10.97-5.4-23.36-11.71-15.89-8.09-19.4-9.97-23.52-14.69-5.17-5.93-8.19-12.56-10.66-20.51Z"/>
    </g>
    <g>
      <path class="cls-3" d="m350.59,42.72c-3.44-.57-6.7,19.51-7.18,22.46-2.72,16.78-.44,19.95-3.19,33.16-1.72,8.27-4.03,13.78-8.56,24.63-5.63,13.47-8.4,16.65-12.95,26.77-1.33,2.97-7.86,17.74-11.24,35.75-4.52,24.09-1.62,44.36-.04,54.75,2.06,13.61,5.98,37.9,22.05,65.61,2.33,4.03,20.15,34.09,52.32,56.69,17.49,12.28,32.31,17.51,35.96,18.74,2.76.94,9.55,3.12,18.36,4.53,5.53.89,9.9.89,18.64.9,1.41,0,5.67,1.27,7.93-.97.32-.32.52-.52.67-.89,1.1-2.78-4.69-6.21-4.64-10.22.05-3.61,3.53-3.65,6.05-7.94,3.96-6.73-1.26-12.35,2.06-18.63,1.16-2.21,5.21-4.04,13.27-7.63,9.56-4.25,14.34-6.38,18.02-6.62,10.76-.69,15.45,5.43,19.09,2.84,2.1-1.49,4.66-6.46-4.67-32.99-6.72-19.1-13.07-30.83-18.45-42.08-11.26-23.55-7.26-22.01-21.07-54.94-9.2-21.96-16.12-38.22-29.28-57.93-11.74-17.58-18.9-28.28-32.17-36.39-3.45-2.11-7.06-3.89-26.01-14.78-13.62-7.83-15.4-9-17.79-11.79-5.93-6.93-8.44-15.46-12.27-28.46-2.91-9.88-3.31-14.32-4.9-14.58Z"/>
      <path class="cls-3" d="m458.63,397.56c-1.69,0-3.11-.19-4.03-.32-.09-.01-.17-.02-.25-.03-8.74,0-13.64-.03-19.9-1.03-6.77-1.08-13.7-2.8-20.06-4.95-7.23-2.45-21.85-8.31-38.63-20.1-33.04-23.21-51.92-54.06-55.37-60.01-17.39-30.01-21.41-56.55-23.34-69.31-1.45-9.55-4.84-31.93.1-58.26,3.33-17.76,9.49-32.57,11.98-38.12,2.06-4.58,3.79-7.86,5.46-11.02,2.22-4.2,4.31-8.16,7.38-15.49,4.43-10.6,6.45-15.44,7.97-22.72,1.2-5.75,1.28-9.18,1.39-13.52.12-4.77.25-10.18,1.71-19.18,3.64-22.43,7.1-26.55,10.61-29.08,2.55-1.83,5.62-2.56,8.65-2.06h0c7.81,1.29,9.6,8.22,11.18,14.33.53,2.04,1.18,4.59,2.08,7.65,3.55,12.08,5.7,19.37,10.17,24.59,1.21,1.41,2.64,2.39,15.05,9.52,10.65,6.12,16.31,9.28,20.05,11.37,2.92,1.63,4.52,2.52,6.2,3.55,15.25,9.32,23.27,21.33,35.42,39.52,14,20.95,21.52,38.91,30.24,59.7,6.85,16.36,9.48,24.58,11.59,31.2,2.18,6.83,3.76,11.76,9.26,23.27.98,2.05,2,4.12,3.04,6.25,4.76,9.72,10.16,20.73,15.84,36.88,4.47,12.73,6.83,22.14,7.2,28.78.42,7.49-1.72,12.95-6.35,16.25-6.3,4.48-12.79,2.03-16.28.71-2.61-.99-4.87-1.85-8.24-1.63-1.8.11-7.64,2.72-14.42,5.73-2.84,1.27-6.21,2.76-8.16,3.79.05.53.13,1.15.2,1.67.49,3.71,1.3,9.92-2.58,16.53-.87,1.48-1.8,2.68-2.7,3.67,1.93,2.9,4.16,7.55,1.99,13.03-.95,2.4-2.35,3.79-3.02,4.46-3.63,3.61-8.08,4.38-11.46,4.38Zm-106.23-316.78c-.03.82-.05,1.62-.07,2.42-.12,4.75-.24,9.67-1.83,17.29-1.93,9.25-4.49,15.39-9.15,26.54-3.43,8.21-5.85,12.78-8.19,17.21-1.59,3.01-3.09,5.84-4.87,9.82-1.7,3.79-7.49,17.4-10.49,33.38-4.28,22.83-1.38,42.02.02,51.24,1.87,12.36,5.35,35.36,20.75,61.92,3.06,5.28,19.83,32.68,49.27,53.36,15.17,10.66,28.34,15.71,33.29,17.39,5.27,1.78,11.03,3.21,16.65,4.11,3.3.53,6.18.69,10.51.74-.05-.55-.08-1.12-.07-1.7.1-6.89,4.49-10.5,6.37-12.04.82-.67.99-.83,1.13-1.07.18-.31.16-.93-.14-3.15-.48-3.62-1.19-9.08,1.95-15.05,2.88-5.47,8.35-7.91,18.29-12.33,10.69-4.76,16.06-7.15,21.62-7.5,3.99-.26,7.43.17,10.29.83-.83-3.72-2.35-9.17-5.11-17.01-5.27-14.98-10.38-25.4-14.89-34.6-1.07-2.19-2.12-4.32-3.13-6.43-6.13-12.81-8.07-18.9-10.32-25.95-2.09-6.55-4.46-13.96-10.96-29.47-8.64-20.61-15.46-36.89-28.33-56.15-11.36-17-17.61-26.36-28.92-33.27-1.32-.81-2.8-1.63-5.48-3.13-3.56-1.99-9.52-5.31-20.28-11.5-13.79-7.93-16.84-9.75-20.54-14.07-3.12-3.64-5.44-7.52-7.39-11.81Z"/>
    </g>
    <g>
      <path class="cls-3" d="m354.73,77.03c-2.88-.67-4.55,16.43-4.79,18.94-1.39,14.29.67,17.13-.92,28.34-1,7.02-2.62,11.64-5.82,20.73-3.97,11.29-6.1,13.88-9.35,22.34-.95,2.48-5.59,14.84-7.46,30.15-2.5,20.47.96,38.06,2.8,47.07,2.41,11.81,6.92,32.89,21.68,57.55,2.14,3.58,18.47,30.35,46.31,51.45,15.14,11.47,27.69,16.73,30.78,17.98,2.34.95,8.08,3.18,15.45,4.85,4.63,1.05,8.25,1.28,15.5,1.74,1.17.07,4.77,1.39,6.52-.42.25-.26.4-.42.51-.73.77-2.33-4.21-5.58-4.37-9.02-.14-3.1,2.74-2.96,4.6-6.51,2.93-5.58-1.68-10.68.74-15.91.85-1.84,4.11-3.21,10.61-5.87,7.71-3.16,11.56-4.74,14.6-4.75,8.89-.03,13.09,5.47,15.98,3.43,1.66-1.17,3.52-5.31-5.58-28.6-6.56-16.77-12.43-27.18-17.48-37.13-10.56-20.83-7.16-19.3-20.31-48.33-8.77-19.36-15.34-33.7-27.28-51.32-10.65-15.72-17.13-25.29-28.56-32.96-2.97-1.99-6.06-3.71-22.33-14.05-11.7-7.43-13.24-8.54-15.36-11.06-5.28-6.27-7.8-13.73-11.65-25.1-2.92-8.64-3.49-12.48-4.82-12.79Z"/>
      <path class="cls-3" d="m462.67,389.19c-2.08,0-3.82-.35-4.78-.54l-.1-.02c-7.25-.46-11.35-.74-16.69-1.95-5.73-1.3-11.64-3.15-17.08-5.36-6.14-2.49-18.62-8.31-33.18-19.34-28.59-21.66-45.82-49.14-48.98-54.43-15.97-26.7-20.69-49.76-22.95-60.84-1.7-8.33-5.69-27.85-2.94-50.44,1.87-15.31,6.27-27.93,8.08-32.64,1.5-3.91,2.78-6.68,4.02-9.35,1.59-3.44,3.1-6.68,5.22-12.72,3.07-8.75,4.48-12.73,5.33-18.73.68-4.75.58-7.5.44-11.3-.14-3.93-.32-8.83.43-16.58,1.78-18.27,4.34-23.34,8.45-26.29,2.66-1.91,6-2.59,9.16-1.86,6.8,1.58,8.57,7.37,10.27,12.98.54,1.78,1.22,4,2.12,6.68,3.57,10.57,5.73,16.95,9.73,21.7,1.02,1.21,1.81,1.88,12.96,8.96,9.14,5.81,13.99,8.82,17.2,10.81,2.51,1.56,3.89,2.41,5.34,3.38,13.12,8.8,20.39,19.54,31.4,35.79,12.68,18.72,19.85,34.55,28.15,52.88,6.53,14.42,9.14,21.63,11.23,27.43,2.16,5.98,3.72,10.3,8.88,20.49.92,1.81,1.87,3.65,2.84,5.53,4.45,8.6,9.5,18.35,15.05,32.53,8.41,21.51,11.2,34.41,1.86,41-6.24,4.41-12.64,1.57-15.72.21-2.08-.92-3.88-1.75-6.28-1.71-1.25.11-5.82,1.99-10.65,3.97-1.4.58-3.09,1.27-4.48,1.87.63,3.41,1.63,9.03-1.56,15.08-.46.88-.96,1.67-1.46,2.36,1.75,2.71,3.51,6.73,1.91,11.58-.85,2.59-2.36,4.15-2.93,4.74-3.23,3.34-7.17,4.13-10.32,4.13Zm-102.54-271.53c-.07,2.34-.27,4.97-.72,8.14-1.14,8.05-2.98,13.26-6.31,22.73-2.46,7-4.33,11.03-5.99,14.6-1.14,2.46-2.22,4.78-3.46,8.03-1.19,3.11-5.21,14.3-6.84,27.67-2.34,19.2,1.04,35.74,2.67,43.69,2.19,10.71,6.26,30.64,20.4,54.26,2.81,4.71,18.15,29.15,43.64,48.47,13.1,9.92,24.21,14.93,28.39,16.62,4.41,1.79,9.19,3.29,13.83,4.34,1.78.4,3.41.66,5.35.87.27-5.89,3.97-9.09,5.56-10.42-.07-.49-.19-1.12-.28-1.64-.61-3.3-1.54-8.29,1.03-13.84,2.59-5.62,7.7-7.71,16.15-11.18,8.96-3.68,13.46-5.52,18.54-5.54,1.7,0,3.22.12,4.67.33-.91-2.88-2.2-6.54-4.02-11.18-5.14-13.15-9.92-22.38-14.14-30.52-1-1.94-1.98-3.82-2.93-5.69-5.74-11.33-7.67-16.67-9.9-22.84-2.07-5.73-4.42-12.23-10.61-25.9-8.23-18.17-14.73-32.52-26.41-49.76-10.31-15.22-15.98-23.6-25.71-30.12-1.14-.76-2.41-1.55-4.71-2.98-3.05-1.89-8.17-5.06-17.4-10.93-11.86-7.54-14.48-9.27-17.76-13.16-1.11-1.31-2.11-2.65-3.04-4.03Z"/>
    </g>
    <g>
      <path class="cls-3" d="m359.8,108.16c-2.47-.7-3.18,14.15-3.28,16.34-.59,12.41,1.28,14.98.39,24.71-.56,6.09-1.74,10.06-4.08,17.86-2.9,9.69-4.6,11.87-7.01,19.12-.71,2.13-4.13,12.73-5.08,26.02-1.27,17.77,2.39,33.26,4.33,41.21,2.54,10.41,7.24,29,20.78,51.14,1.97,3.22,16.93,27.26,41.42,46.83,13.32,10.64,24.19,15.75,26.86,16.97,2.02.92,6.99,3.11,13.31,4.87,3.97,1.11,7.06,1.46,13.22,2.16.99.11,4.1,1.41,5.52-.1.2-.21.33-.35.4-.62.56-2-3.81-5.05-4.08-8.06-.25-2.71,2.2-2.47,3.64-5.49,2.26-4.75-1.87-9.39-.03-13.86.64-1.57,3.36-2.63,8.76-4.69,6.41-2.44,9.61-3.66,12.19-3.55,7.54.34,11.34,5.32,13.7,3.66,1.36-.96,2.77-4.49-5.92-25.2-6.26-14.91-11.67-24.24-16.37-33.14-9.82-18.63-6.88-17.15-19.24-43.03-8.24-17.26-14.41-30.05-25.27-45.93-9.69-14.17-15.58-22.79-25.59-29.95-2.6-1.86-5.29-3.49-19.53-13.19-10.23-6.97-11.58-8-13.49-10.29-4.74-5.69-7.19-12.31-10.92-22.4-2.84-7.67-3.48-11.04-4.62-11.36Z"/>
      <path class="cls-3" d="m464.24,386.46c-1.63,0-3.38-.24-5.25-.71-6.19-.7-9.71-1.12-14.36-2.42-4.97-1.39-10.11-3.26-14.86-5.43-5.34-2.44-16.22-8.06-29.06-18.32-25.16-20.1-40.92-44.81-43.83-49.56-14.67-23.99-19.63-44.35-22.02-54.13-1.8-7.38-6.01-24.67-4.6-44.44.96-13.47,4.23-24.47,5.59-28.57,1.13-3.42,2.12-5.82,3.08-8.14,1.19-2.88,2.31-5.61,3.84-10.69,2.28-7.61,3.22-10.76,3.68-15.81.37-4.01.17-6.37-.1-9.64-.29-3.47-.64-7.79-.32-14.6.79-16.77,3.01-21.32,7.08-24.25,2.79-2,6.27-2.62,9.55-1.69,6.08,1.73,7.83,6.9,9.52,11.91.53,1.58,1.2,3.54,2.07,5.91,3.47,9.36,5.56,15.02,9.14,19.32.91,1.09,1.61,1.7,11.34,8.34,8,5.45,12.24,8.28,15.05,10.15,2.19,1.46,3.4,2.27,4.67,3.18,11.52,8.24,18.14,17.92,28.15,32.56,11.54,16.88,18.28,30.99,26.08,47.34,6.14,12.86,8.65,19.27,10.67,24.42,2.08,5.31,3.58,9.14,8.38,18.24.86,1.62,1.74,3.26,2.64,4.95,4.14,7.69,8.82,16.42,14.12,29.03,7.25,17.27,12.01,31.02,2.27,37.86-6.23,4.38-12.59,1.23-15.31-.12-1.7-.84-3.06-1.51-4.7-1.63-1.2.2-4.74,1.55-8.17,2.85-.56.21-1.19.45-1.81.69.64,3.17,1.14,7.68-1.18,12.56-.24.5-.49.97-.75,1.4,1.55,2.5,3.03,6.11,1.83,10.45-.77,2.76-2.28,4.38-2.85,4.98-2.5,2.67-5.72,4.01-9.61,4.01Zm-96.77-237.58c-.03.42-.07.84-.11,1.28-.65,7.14-2.09,11.94-4.48,19.91-1.82,6.1-3.27,9.6-4.54,12.69-.89,2.16-1.66,4.02-2.56,6.73-.87,2.62-3.76,12.04-4.58,23.46-1.18,16.49,2.36,31,4.05,37.97,2.3,9.42,6.57,26.95,19.53,48.15,2.58,4.22,16.6,26.2,39.02,44.11,11.49,9.18,21.08,13.98,24.67,15.62,3.77,1.72,7.84,3.21,11.77,4.31.67.19,1.31.35,1.96.49.66-3.36,2.52-5.6,3.88-6.91-.04-.2-.09-.39-.13-.57-.65-2.86-1.72-7.64.42-12.85,2.38-5.81,7.56-7.78,14.73-10.51,7.51-2.86,11.65-4.44,16.4-4.22.14,0,.29.01.43.02-.75-1.99-1.68-4.32-2.81-7.02-4.9-11.69-9.34-19.94-13.25-27.21-.93-1.73-1.84-3.42-2.72-5.09-5.34-10.14-7.2-14.88-9.35-20.37-1.99-5.09-4.25-10.86-10.07-23.04-7.73-16.2-13.84-29-24.46-44.53-9.37-13.71-14.54-21.26-23.04-27.34-.99-.71-2.09-1.44-4.1-2.78-2.67-1.78-7.14-4.76-15.23-10.27-10.16-6.92-12.59-8.63-15.44-12.01Zm119.42,200.62h0,0Z"/>
    </g>
    <g>
      <path class="cls-3" d="m364.58,134.52c-2.07-.76-1.7,11.91-1.65,13.78.31,10.59,2,12.91,1.89,21.17-.07,5.18-.79,8.5-2.2,15.03-1.76,8.11-3.01,9.87-4.52,15.92-.44,1.78-2.57,10.63-2.51,21.95.09,15.13,4.07,28.62,6.16,35.55,2.74,9.07,7.76,25.28,20.25,45.1,1.81,2.88,15.59,24.41,36.88,42.72,11.57,9.95,20.8,15.02,23.06,16.23,1.71.92,5.91,3.1,11.2,5.01,3.32,1.2,5.87,1.7,10.96,2.69.82.16,3.45,1.47,4.51.27.15-.17.24-.28.29-.5.33-1.68-3.44-4.56-3.85-7.16-.38-2.34,1.64-1.97,2.63-4.47,1.55-3.92-2.13-8.16-.91-11.87.43-1.3,2.58-2.04,6.87-3.46,5.09-1.68,7.63-2.52,9.75-2.26,6.19.77,9.61,5.27,11.44,4,1.05-.73,1.98-3.67-6.45-21.95-6.07-13.16-11.09-21.49-15.5-29.41-9.22-16.57-6.72-15.11-18.48-38.06-7.84-15.3-13.71-26.64-23.6-40.92-8.83-12.74-14.2-20.5-22.85-27.27-2.25-1.76-4.55-3.32-16.82-12.53-8.82-6.62-9.99-7.59-11.69-9.67-4.24-5.17-6.66-10.99-10.36-19.86-2.81-6.74-3.55-9.67-4.5-10.02Z"/>
      <path class="cls-3" d="m467.43,380.9c-1.71,0-3.65-.3-5.84-1.03-4.96-.97-8.06-1.59-12.02-3.02-4.19-1.51-8.55-3.46-12.6-5.64-4.53-2.43-13.79-7.93-24.95-17.52-21.81-18.75-36.24-40.84-38.91-45.08-13.5-21.42-18.85-39.15-21.42-47.66-1.95-6.45-6.51-21.56-6.61-38.52-.07-11.65,1.95-21.04,2.82-24.54.73-2.95,1.44-5.07,2.05-6.94.77-2.33,1.5-4.53,2.39-8.67,1.35-6.24,1.91-8.82,1.97-12.95.04-3.32-.26-5.32-.68-8.1-.46-3.01-1.03-6.75-1.2-12.63-.36-12.3.38-18.81,5.56-22.54,2.96-2.13,6.78-2.66,10.2-1.4h0c5.1,1.87,6.75,6.13,8.5,10.65.54,1.39,1.21,3.11,2.08,5.2,3.45,8.28,5.53,13.27,8.79,17.25.84,1.03,1.46,1.61,9.88,7.93,6.89,5.17,10.54,7.86,12.95,9.64,1.89,1.39,2.93,2.16,4.03,3.02,9.9,7.75,15.91,16.42,25,29.55,10.5,15.15,16.9,27.65,24.32,42.12,5.84,11.39,8.3,17.03,10.27,21.56,2.04,4.68,3.52,8.07,8.03,16.18.8,1.44,1.63,2.9,2.48,4.4,3.87,6.84,8.25,14.6,13.38,25.72,6.35,13.77,12.92,28.01,2.9,34.97-6.32,4.39-12.66.76-15.05-.61-1.19-.68-2.24-1.28-3.24-1.52-.84.18-2.52.72-4.32,1.31.5,2.67.66,6.02-.76,9.63-.07.17-.14.34-.21.5,1.41,2.27,2.73,5.42,1.97,9.29-.59,3.02-2.19,4.84-2.72,5.44-1.78,2.02-4.66,4.03-9.05,4.03Zm-92.41-206.04c-.39,3.73-1.12,7.14-2.15,11.85-1.13,5.22-2.11,8.19-2.98,10.81-.58,1.74-1.07,3.24-1.61,5.42-.53,2.13-2.25,9.82-2.2,19.35.08,13.92,3.88,26.52,5.71,32.57,2.48,8.22,7.1,23.52,19.08,42.53,2.39,3.79,15.31,23.56,34.84,40.36,10,8.6,18.14,13.31,21.18,14.94,2.8,1.5,5.78,2.86,8.67,3.97.38-.84.88-1.69,1.53-2.52-.74-2.62-1.85-6.83-.31-11.5,2.09-6.36,7.65-8.2,13.55-10.15,4.07-1.35,7.07-2.34,9.93-2.7-.43-.98-.91-2.03-1.42-3.15-4.76-10.33-8.92-17.69-12.59-24.17-.87-1.54-1.72-3.04-2.55-4.53-5.01-9-6.83-13.17-8.93-17.99-1.96-4.49-4.18-9.57-9.71-20.38-7.37-14.38-13.19-25.73-22.89-39.73-8.57-12.38-13.29-19.19-20.69-24.98-.86-.67-1.81-1.37-3.54-2.65-2.3-1.69-6.15-4.53-13.11-9.75-5.01-3.76-7.83-5.9-9.81-7.6Zm82.55,181.08h0Z"/>
    </g>
    <g>
      <path class="cls-3" d="m368.99,152.42c-1.81-.79-.8,10.5-.65,12.16.85,9.43,2.43,11.58,2.79,18.93.23,4.6-.2,7.51-1.05,13.24-1.05,7.11-2.03,8.6-2.99,13.9-.28,1.56-1.61,9.31-.93,19.37.91,13.46,5.07,25.67,7.24,31.94,2.85,8.22,8.05,22.91,19.84,41.21,1.71,2.66,14.7,22.57,33.94,40.02,10.46,9.49,18.64,14.5,20.65,15.71,1.52.91,5.24,3.09,9.87,5.08,2.91,1.25,5.12,1.83,9.53,3,.71.19,3.03,1.49,3.87.49.12-.14.19-.23.22-.43.19-1.48-3.19-4.25-3.7-6.58-.45-2.1,1.3-1.66,2-3.83,1.11-3.4-2.27-7.37-1.43-10.6.29-1.13,2.1-1.67,5.69-2.69,4.26-1.21,6.4-1.82,8.22-1.47,5.34,1.03,8.52,5.22,10.02,4.19.86-.59,1.49-3.15-6.74-19.87-5.93-12.04-10.69-19.72-14.9-27-8.81-15.24-6.59-13.81-17.93-34.86-7.56-14.04-13.21-24.45-22.48-37.69-8.26-11.82-13.29-19.01-21.07-25.51-2.02-1.69-4.08-3.21-15.09-12.07-7.92-6.37-8.97-7.3-10.55-9.24-3.92-4.83-6.31-10.14-9.97-18.23-2.78-6.15-3.57-8.8-4.41-9.16Z"/>
      <path class="cls-3" d="m470.26,378.31c-1.79,0-3.85-.37-6.2-1.3-4.31-1.14-7.02-1.87-10.51-3.38-3.68-1.58-7.53-3.56-11.13-5.72-4.01-2.41-12.24-7.82-22.29-16.94-19.66-17.84-33.2-38.21-35.71-42.11-12.71-19.74-18.27-35.76-20.93-43.46-2.03-5.85-6.77-19.54-7.8-34.67-.71-10.47.51-18.83,1.07-21.94.48-2.64.97-4.53,1.4-6.19.54-2.07,1.01-3.85,1.53-7.39.8-5.39,1.13-7.62.95-11.18-.14-2.9-.51-4.69-1.03-7.17-.56-2.71-1.26-6.08-1.73-11.34-.93-10.37-1.12-17.47,4.58-21.58,3.14-2.27,7.15-2.7,10.71-1.15h0c4.4,1.91,5.94,5.53,7.72,9.72.53,1.25,1.2,2.82,2.07,4.74,3.43,7.59,5.5,12.17,8.56,15.95.83,1.02,1.36,1.54,8.98,7.68,6.19,4.98,9.53,7.63,11.64,9.3,1.73,1.37,2.67,2.11,3.6,2.9,8.85,7.39,14.46,15.41,22.95,27.55,9.8,14.02,15.68,24.92,23.11,38.73,5.62,10.44,8.04,15.58,9.98,19.71,2.01,4.29,3.47,7.39,7.8,14.87.77,1.33,1.56,2.68,2.37,4.06,3.69,6.29,7.86,13.41,12.86,23.56,6.7,13.6,13.02,26.45,3.27,33.16-6.44,4.43-12.61.5-14.93-.98-.84-.53-1.69-1.08-2.42-1.37-.17.04-.36.08-.57.14.33,2.16.34,4.68-.53,7.36,1.33,2.1,2.58,4.93,2.12,8.5-.28,2.16-1.15,4.12-2.58,5.84-1.21,1.45-4.08,4.1-8.9,4.1Zm-88.97-185.98c-.21,1.8-.49,3.71-.83,5.95-.69,4.67-1.38,7.3-1.99,9.63-.39,1.48-.72,2.76-1.05,4.6-.33,1.83-1.36,8.44-.79,16.8.84,12.33,4.79,23.74,6.69,29.22,2.58,7.46,7.4,21.34,18.75,38.97,2.26,3.52,14.46,21.86,32.17,37.93,9.05,8.21,16.3,12.87,19,14.49,1.7,1.02,3.47,1.99,5.23,2.87-.73-2.45-1.39-5.69-.44-9.38,1.81-6.98,8-8.74,12.98-10.16,2.03-.58,3.79-1.08,5.44-1.43-.16-.32-.32-.65-.48-.98-4.66-9.46-8.63-16.24-12.14-22.22-.83-1.42-1.64-2.8-2.43-4.17-4.77-8.26-6.56-12.05-8.62-16.45-1.93-4.1-4.11-8.75-9.46-18.68-7.11-13.21-12.73-23.64-21.84-36.65-8.06-11.52-12.49-17.86-19.2-23.46-.82-.69-1.66-1.34-3.18-2.55-2.13-1.68-5.51-4.36-11.77-9.4-2.59-2.08-4.53-3.65-6.04-4.91Z"/>
    </g>
    <g>
      <path class="cls-3" d="m375.68,174.58c-1.52-.77-.07,8.84.14,10.25,1.21,8.03,2.61,9.93,3.31,16.17.44,3.9.25,6.34-.13,11.14-.47,5.96-1.18,7.17-1.67,11.6-.14,1.3-.8,7.79.31,16.34,1.48,11.43,5.53,22,7.64,27.42,2.77,7.11,7.8,19.82,18.4,35.95,1.54,2.34,13.19,19.9,29.8,35.72,9.03,8.6,15.96,13.29,17.66,14.42,1.29.86,4.43,2.9,8.31,4.84,2.44,1.22,4.26,1.83,7.92,3.06.59.2,2.55,1.43,3.18.62.09-.11.15-.19.15-.35.07-1.24-2.83-3.77-3.37-5.77-.48-1.8.96-1.34,1.42-3.13.71-2.82-2.25-6.36-1.75-9.05.18-.94,1.61-1.3,4.48-1.97,3.4-.79,5.1-1.19,6.61-.79,4.4,1.16,7.22,4.88,8.38,4.09.67-.45,1.04-2.58-6.57-17.18-5.48-10.51-9.78-17.27-13.6-23.66-8.01-13.38-6.12-12.04-16.5-30.47-6.92-12.29-12.09-21.4-20.35-33.12-7.37-10.45-11.86-16.81-18.54-22.73-1.74-1.54-3.5-2.94-12.94-11.04-6.79-5.83-7.7-6.67-9.09-8.4-3.45-4.3-5.69-8.93-9.11-15.97-2.6-5.36-3.39-7.64-4.09-7.99Z"/>
      <path class="cls-3" d="m470.03,372.86c-1.87,0-4.02-.44-6.48-1.58-3.59-1.2-5.84-1.98-8.81-3.47-3.1-1.55-6.36-3.45-9.43-5.49-3.4-2.26-10.4-7.29-19.08-15.56-16.96-16.16-29.08-34.12-31.34-37.56-11.42-17.39-16.81-31.25-19.41-37.91-1.97-5.07-6.6-16.94-8.27-29.88-1.17-9.03-.62-16.18-.33-18.83.25-2.28.56-3.89.82-5.31.32-1.66.59-3.1.81-5.97.36-4.54.49-6.24.16-9.15-.27-2.41-.66-3.92-1.21-6.02-.61-2.34-1.37-5.24-2.05-9.75-1.23-8.15-2.39-15.85,3.78-20.31,3.28-2.37,7.56-2.71,11.2-.87h0c3.74,1.89,5.12,4.88,6.86,8.66.5,1.09,1.13,2.45,1.94,4.12,3.21,6.61,5.14,10.6,7.85,13.98.74.92,1.2,1.39,7.74,7,5.3,4.55,8.17,6.97,9.97,8.49,1.49,1.26,2.29,1.94,3.1,2.65,7.6,6.73,12.6,13.82,20.16,24.54,8.73,12.38,14.11,21.93,20.92,34.02,5.15,9.14,7.39,13.62,9.2,17.22,1.87,3.74,3.23,6.44,7.16,13.01.7,1.17,1.41,2.34,2.15,3.56,3.34,5.52,7.13,11.78,11.76,20.64,3.71,7.11,5.96,12.05,7.08,15.54,2.87,8.94-1.22,13.35-3.92,15.18-3.91,2.66-8.31,2.57-13.1-.24-.05.42-.12.84-.21,1.27,1.18,1.87,2.3,4.37,2.12,7.5-.13,2.27-.92,4.34-2.33,6.17-.97,1.25-3.87,4.33-8.81,4.33Zm-80.61-159.42c-.31,3.71-.72,5.85-1.08,7.75-.23,1.24-.42,2.22-.58,3.68-.16,1.49-.62,6.87.28,13.85,1.35,10.4,5.18,20.24,7.02,24.96,2.51,6.45,7.19,18.46,17.39,34,2.04,3.1,12.97,19.3,28.27,33.88,7.28,6.94,13.12,11.17,15.72,12.94,0-.84.07-1.71.24-2.62,1.45-7.7,8.58-9.36,12.42-10.26.26-.06.51-.12.77-.18-3.99-7.56-7.37-13.14-10.37-18.09-.75-1.24-1.49-2.45-2.2-3.65-4.33-7.24-5.99-10.55-7.91-14.39-1.79-3.58-3.82-7.63-8.72-16.33-6.51-11.57-11.66-20.71-19.78-32.22-7.19-10.2-11.15-15.81-16.92-20.93-.71-.63-1.42-1.23-2.73-2.34-1.82-1.54-4.72-3.99-10.08-8.59-.61-.52-1.18-1.01-1.71-1.46Zm-18.48-29.49s0,0,0,0h0Z"/>
    </g>
    <g>
      <path class="cls-3" d="m384.55,198.16c-1.25-.74.58,7.31.84,8.49,1.52,6.73,2.76,8.41,3.75,13.61.62,3.26.65,5.27.69,9.21.06,4.9-.42,5.85-.48,9.48-.02,1.07-.07,6.39,1.41,13.54,1.98,9.57,5.92,18.6,7.97,23.24,2.68,6.08,7.55,16.96,17.02,31.07,1.38,2.05,11.78,17.41,25.96,31.69,7.71,7.76,13.48,12.14,14.89,13.2,1.07.8,3.68,2.72,6.87,4.6,2,1.18,3.48,1.82,6.44,3.1.48.21,2.1,1.37,2.54.74.06-.09.1-.14.1-.28-.03-1.02-2.49-3.32-3.06-5.01-.51-1.52.66-1.04.89-2.49.36-2.28-2.22-5.42-2.02-7.61.07-.77,1.17-.96,3.38-1.31,2.61-.41,3.92-.62,5.13-.18,3.54,1.28,6.02,4.56,6.87,3.99.49-.33.63-2.06-6.39-14.69-5.06-9.09-8.91-14.99-12.37-20.55-7.24-11.64-5.67-10.4-15.13-26.4-6.31-10.66-11.02-18.58-18.35-28.86-6.53-9.17-10.51-14.76-16.19-20.14-1.47-1.4-2.96-2.68-10.95-10.06-5.75-5.31-6.52-6.07-7.74-7.6-3.02-3.81-5.11-7.79-8.3-13.87-2.42-4.62-3.21-6.56-3.78-6.9Z"/>
      <path class="cls-3" d="m472.18,370.82c-1.97,0-4.25-.54-6.84-1.97-2.9-1.25-4.74-2.07-7.2-3.52-2.56-1.51-5.26-3.32-7.81-5.22-2.82-2.11-8.66-6.76-16.06-14.22-14.44-14.55-25.21-30.24-27.22-33.23-10.18-15.16-15.4-27-17.91-32.68-1.91-4.34-6.39-14.5-8.64-25.35-1.58-7.65-1.67-13.63-1.63-15.85.03-1.94.16-3.29.28-4.48.13-1.35.23-2.42.2-4.69-.05-3.76-.06-5.02-.51-7.37-.38-1.98-.79-3.25-1.37-5.02-.65-1.98-1.45-4.45-2.31-8.24-1.64-7.24-3.34-14.73,2.98-19.32,3.46-2.51,8.09-2.71,11.79-.51h0c3.01,1.8,4.21,4.18,5.87,7.49.47.94,1.06,2.11,1.82,3.56,3.01,5.73,4.82,9.19,7.23,12.23.67.84,1.07,1.27,6.63,6.41,4.49,4.14,6.91,6.35,8.43,7.74,1.25,1.14,1.94,1.77,2.62,2.41,6.41,6.08,10.83,12.28,17.51,21.66,7.73,10.86,12.63,19.13,18.83,29.61,4.69,7.92,6.77,11.79,8.44,14.89,1.74,3.24,3,5.58,6.57,11.31.63,1.02,1.28,2.04,1.94,3.1,3.02,4.8,6.44,10.24,10.69,17.9,3.41,6.13,5.52,10.37,6.65,13.33,3.5,9.21-1.36,13.7-3.62,15.21-1.68,1.12-3.94,2.03-6.71,1.8.1.55.17,1.13.19,1.74.05,1.65-.25,4.15-2,6.64-.43.61-3.47,4.66-8.87,4.66Zm-72.18-134.03c-.07.74-.12,1.42-.14,2.35-.02,1.18,0,5.49,1.19,11.23,1.8,8.67,5.51,17.09,7.29,21.13,2.44,5.53,6.98,15.83,16.13,29.45,1.83,2.72,11.59,16.95,24.69,30.15,3.87,3.9,7.22,6.89,9.73,9,1.31-2.83,3.8-5.05,7.03-6.12.05-.02.09-.03.14-.05-3.05-5.3-5.66-9.46-8.01-13.2-.68-1.08-1.34-2.14-1.99-3.18-3.91-6.29-5.45-9.14-7.23-12.44-1.67-3.09-3.55-6.6-8.03-14.15-5.95-10.05-10.65-17.99-17.87-28.12-6.4-8.98-9.92-13.93-14.86-18.61-.6-.57-1.21-1.12-2.32-2.14-1.19-1.09-2.94-2.68-5.77-5.29Z"/>
    </g>
    <g>
      <path class="cls-3" d="m394.83,219.16c-1.04-.7.9,6.15,1.18,7.15,1.62,5.72,2.71,7.2,3.82,11.61.69,2.76.83,4.44,1.11,7.74.34,4.1.02,4.86.18,7.9.05.89.32,5.34,1.94,11.41,2.16,8.12,5.85,15.91,7.77,19.91,2.51,5.25,7.06,14.64,15.49,27,1.23,1.8,10.48,15.27,22.69,28.06,6.64,6.95,11.52,10.96,12.72,11.93.91.73,3.11,2.49,5.78,4.26,1.67,1.11,2.9,1.73,5.34,2.98.39.2,1.77,1.27,2.08.77.04-.07.07-.11.06-.23-.09-.85-2.2-2.93-2.75-4.38-.5-1.3.47-.83.56-2.03.15-1.89-2.11-4.67-2.07-6.49.01-.64.88-.73,2.63-.89,2.07-.19,3.1-.28,4.1.15,2.91,1.28,5.09,4.17,5.74,3.75.37-.24.38-1.69-5.99-12.67-4.59-7.9-8.04-13.07-11.14-17.93-6.5-10.17-5.16-9.04-13.7-22.98-5.69-9.3-9.94-16.2-16.42-25.24-5.78-8.06-9.3-12.97-14.17-17.81-1.26-1.26-2.53-2.42-9.37-9.07-4.92-4.78-5.59-5.46-6.65-6.82-2.64-3.37-4.56-6.82-7.47-12.1-2.22-4.01-2.96-5.68-3.44-6Z"/>
      <path class="cls-3" d="m474.65,370.52c-3.29,0-5.78-1.5-6.94-2.24-2.4-1.22-3.93-2.02-6-3.39-2.15-1.42-4.42-3.1-6.58-4.85-2.39-1.93-7.34-6.17-13.71-12.84-12.42-13.01-21.98-26.77-23.77-29.39-9.06-13.28-13.94-23.48-16.29-28.39-1.79-3.75-5.99-12.52-8.45-21.75-1.74-6.56-2.17-11.65-2.28-13.53-.09-1.67-.07-2.87-.05-3.84.02-1.08.04-1.94-.11-3.77-.26-3.09-.34-4.13-.83-6.06-.42-1.66-.8-2.69-1.39-4.24-.64-1.7-1.43-3.82-2.35-7.06-1.84-6.48-3.93-13.82,2.54-18.53,3.58-2.61,8.49-2.7,12.21-.22h0c2.51,1.68,3.61,3.73,5.13,6.56.43.81.98,1.83,1.68,3.09,2.76,4.99,4.42,7.99,6.54,10.69.6.77.93,1.12,5.71,5.78,3.84,3.73,5.91,5.72,7.21,6.98,1.08,1.03,1.66,1.6,2.24,2.18,5.48,5.45,9.39,10.9,15.29,19.13,6.84,9.54,11.26,16.75,16.85,25.88,4.23,6.9,6.12,10.26,7.65,12.95,1.59,2.81,2.74,4.85,5.94,9.86.57.89,1.15,1.79,1.74,2.71,2.7,4.19,5.76,8.95,9.63,15.6,3.1,5.33,5.04,8.99,6.12,11.53,3.99,9.41-1.64,14.01-3.46,15.2-.97.63-2.13,1.2-3.45,1.52-.05,1.55-.45,3.46-1.68,5.41-1.53,2.43-3.93,4.13-6.76,4.76-.83.19-1.63.27-2.39.27Zm-62.27-111.86c.21,1.09.49,2.31.84,3.62,1.95,7.33,5.42,14.59,7.09,18.08,2.29,4.77,6.54,13.66,14.69,25.62,1.63,2.39,10.32,14.9,21.61,26.72,2.5,2.62,4.74,4.79,6.6,6.52.57-.59,1.25-1.15,2.07-1.65-2.36-3.89-4.4-7.07-6.27-9.96-.61-.95-1.2-1.87-1.79-2.78-3.51-5.49-4.91-7.96-6.53-10.83-1.52-2.69-3.24-5.73-7.28-12.32-5.37-8.76-9.61-15.68-16-24.6-5.67-7.91-8.79-12.26-13.04-16.48-.52-.52-1.04-1.02-1.99-1.93h0Z"/>
    </g>
    <g>
      <path class="cls-3" d="m450.84,399.32c-.25-.56,1.87-1.31,2.88-3.4,1.93-3.99-2.89-7.18-2.23-12.06.56-4.15,4.47-4.93,7.77-9.55,5.46-7.63-.11-12.58,3.2-21.11,0,0,7.51-17.67,40.73-21.68,2.83-.34,5.27-.2,5.27-.2,4.11.25,4.68,1.24,7.94,1.56,5.65.55,8.09-2.03,10.55-.39,1.26.84,1.84,2.34,2.12,4.66.69,5.78-.07,20.44-11.58,29.86-5.74,4.71-12.51,6.84-12.51,6.84-4.42,1.4-6.5,1.07-11.09,3.29-2.42,1.17-7.61,3.69-8.1,7.3-.3,2.24,1.41,3.28.65,4.5-1.17,1.9-5.33-.49-9.35,1.99-1.99,1.23-3.94,3.64-4.89,6.15-.75,1.96-.54,3.08-1.41,3.55-1.46.8-3.12-1.73-6.2-2.86-6.09-2.23-13.26,2.62-13.76,1.54Z"/>
      <path class="cls-3" d="m470.36,411.3c-2.73,0-5.58-1.02-8.5-3.07-.26-.18-.61-.42-.82-.56-.96-.05-3.14.73-4.1,1.07-.98.34-1.91.67-2.93.9-6.26,1.43-10.9-1.97-12.73-5.98h0c-.5-1.09-2.45-6.16,1.35-11.08-1.04-2.46-2.12-5.9-1.55-10.14.87-6.41,4.86-9.82,7.24-11.87,1.03-.89,1.78-1.53,2.4-2.39.66-.93.7-.98.4-4.06-.34-3.41-.85-8.57,1.55-14.75l.12-.31c1.01-2.38,10.99-23.39,49.13-27.99,3.67-.44,6.82-.27,7.16-.25,3.5.21,5.62.85,7.03,1.28.75.23.89.27,1.31.31,1,.1,1.67-.06,2.88-.34,2.41-.56,7.43-1.71,12.48,1.67,5.71,3.82,6.46,10.08,6.71,12.13,1.34,11.2-1.87,28.19-15.35,39.24-7.1,5.82-15.11,8.45-16,8.73-2.17.69-3.9,1.05-5.29,1.34-1.8.38-2.7.57-4.39,1.39-.29.14-.82.4-1.39.7.28,3.07-.67,5.5-1.7,7.17-3.74,6.06-10.35,5.84-12.52,5.77-.15,0-.33-.01-.5-.01-.14.2-.28.42-.35.61-.03.09-.07.26-.14.55-.35,1.47-1.4,5.93-6.04,8.47-1.77.97-3.61,1.46-5.49,1.46Zm-7.31-24.53c.93.08,1.87.23,2.83.45,1.64-2.11,3.6-3.92,5.72-5.22,1.54-.95,3.08-1.59,4.54-2,2.53-7.13,9.84-10.68,13.19-12.3,4.02-1.95,6.91-2.56,9.24-3.04,1.12-.24,2.1-.44,3.28-.81,0,0,5-1.66,9.02-4.95,5.56-4.55,7.26-11,7.73-15.43-.99.02-2.05-.01-3.19-.12-2.5-.24-4.22-.77-5.36-1.11-.87-.26-1.16-.35-2.19-.41h0s-1.62-.08-3.38.14c-24.31,2.94-31.34,13.68-32.33,15.42-.42,1.28-.33,2.39-.1,4.71.43,4.36,1.08,10.94-4.23,18.35-1.8,2.51-3.69,4.27-5.13,5.52.12.26.24.54.37.83Zm-1.2-2.69h0Zm10.24-26.66h0s0,0,0,0c0,0,0,0,0,0Zm.05-.13h0Z"/>
    </g>
    <g>
      <path class="cls-3" d="m491.76,375.73c3.76-2.97,7.79-3.72,8.82-3.89,3.65-.59,4.86.39,6.64-.91,1.66-1.21,1.21-2.5,3.41-5.24,1.17-1.46,2.87-3.58,4.7-3.51,2.1.08,3.55,2.98,3.88,5.2.78,5.16-4,9.68-4.29,9.95-3.27,3.01-5.13,1.84-8.17,4.75-3.34,3.19-1.9,5.35-4.94,9.08-2.92,3.58-6.91,4.87-12.58,6.7-4.81,1.55-8.41,1.78-11.7,1.99-4.82.31-7.22.46-7.94-.82-1.27-2.27,2.74-8.48,7.46-9.62,3.37-.82,5.41,1.36,7.29-.05,1.64-1.23.54-3.22,2.12-6.98,1.52-3.62,4.25-5.83,5.29-6.65Z"/>
      <path class="cls-3" d="m473.43,410.53c-5.05,0-10-1.02-12.99-6.38-2.04-3.65-2.09-8.09-.16-12.51,2.03-4.63,6.99-10.67,14.32-12.44.69-.17,1.35-.28,1.98-.36.07-.17.14-.34.21-.52,1.72-4.11,4.57-7.76,8.47-10.83,5.26-4.15,10.8-5.55,13.64-6.01.73-.12,1.41-.2,2.03-.25.42-.65.92-1.36,1.52-2.11,1.85-2.3,6.14-7.71,13.27-7.44,8.11.29,12.89,7.52,13.89,14.12,1.55,10.26-6.02,17.83-7.56,19.25-3.21,2.95-6.06,3.97-7.76,4.58-.04.01-.08.03-.13.04,0,.02-.01.05-.02.07-.54,1.76-1.45,4.7-4.17,8.04-4.88,5.99-11.01,7.97-17.5,10.06-6.06,1.95-10.61,2.24-14.26,2.48-1.56.1-3.18.2-4.78.2Z"/>
    </g>
  </g>
  <g>
    <g>
      <path class="cls-3" d="m10.89,202.28c-2.76,3.02,12.72,21.31,15,24,12.94,15.28,17.21,15.36,27,28,6.13,7.91,9.45,14.35,16,27,8.13,15.71,9.1,20.88,15,33,1.73,3.56,10.42,21.14,24,38,18.17,22.55,37.86,34.8,48,41,13.29,8.12,37.16,22.36,72,27,5.06.67,43.11,5.32,84-10,22.23-8.33,36.53-19.27,40-22,2.63-2.07,8.99-7.23,16-15,4.4-4.88,7.27-9.25,13-18,.92-1.41,4.83-4.73,4.34-8.67-.07-.56-.11-.91-.34-1.33-1.72-3.18-8.52.05-12-3-3.13-2.75-.89-6.27-3-12-3.31-9-11.65-7.98-15-16-1.18-2.82-.13-8.25,2-19,2.53-12.76,3.8-19.14,6-23,6.45-11.29,14.89-11.42,15-17,.07-3.22-2.62-9.49-32-20-21.16-7.56-35.6-9.97-49-13-28.04-6.34-24.07-9.19-62-20-25.29-7.21-44.09-12.45-70-14-23.11-1.38-37.19-2.23-53,5-4.11,1.88-8.04,4.17-30,15-15.79,7.79-17.99,8.69-22,9-9.97.76-19.09-3.11-33-9-10.57-4.48-14.73-7.39-16-6Z"/>
      <path class="cls-3" d="m247.88,431.94c-10.79,0-18.48-.86-21.38-1.25-37.75-5.03-63.64-20.85-76.09-28.45-9.28-5.67-31.02-18.94-50.7-43.37-13.24-16.43-22.08-33.44-25.27-40-2.63-5.4-4.35-9.54-6.01-13.53-2.26-5.43-4.39-10.56-8.88-19.23-6.48-12.52-9.44-18.24-14.98-25.4-4.37-5.64-7.37-8.34-11.17-11.75-4.07-3.65-8.69-7.8-15.54-15.9-4.82-5.7-8.04-9.95-9.89-12.52-4.62-6.4-12.34-17.12-4.85-25.34,6.06-6.65,13.67-3.09,19.78-.23,2.14,1,4.8,2.25,8.08,3.64,12.9,5.46,20.68,8.76,28.11,8.2,1.96-.15,3.87-.9,18.15-7.95,12.33-6.09,18.82-9.39,23.1-11.58,3.34-1.7,5.18-2.64,7.18-3.55,18.19-8.32,34.03-7.37,57.99-5.93,27.58,1.65,48.28,7.55,72.25,14.38,18.84,5.37,27.78,8.89,34.97,11.73,7.42,2.92,12.78,5.04,26.47,8.13,2.44.55,4.92,1.08,7.47,1.63,11.65,2.5,24.86,5.33,42.75,11.73,28.27,10.11,39.2,18.55,38.96,30.1-.16,7.87-5.72,11.92-9.04,14.34-2.61,1.9-5.08,3.7-7.33,7.65-1.35,2.37-2.73,9.32-4.82,19.84-1.04,5.23-2.2,11.09-2.29,13.45.38.46,1.1.97,2.82,2.07,3.62,2.31,9.09,5.81,12.03,13.81.92,2.51,1.33,4.73,1.52,6.58,3.74.11,9.62,1.03,12.86,7.06,1.16,2.16,1.39,4.02,1.52,5.02.96,7.7-3.82,13.27-5.87,15.65-.1.12-.2.23-.29.34-5.72,8.73-8.92,13.59-13.81,19.01-5.32,5.9-11.31,11.5-17.31,16.22-6.85,5.38-21.51,15.6-42.8,23.58-25.78,9.66-50.61,11.83-67.69,11.83ZM37.88,224.02c3.82,4.16,6.73,6.77,9.56,9.31,4.04,3.63,8.22,7.37,13.75,14.52,6.71,8.67,10.37,15.75,17.02,28.6,4.89,9.46,7.29,15.24,9.62,20.82,1.62,3.89,3.14,7.56,5.5,12.41,2.87,5.91,10.84,21.25,22.73,36,17.4,21.59,36.24,33.1,45.3,38.63,12.08,7.38,34.56,21.11,67.91,25.55,6.62.88,41.55,4.58,78.93-9.42,19.33-7.24,32.45-16.69,37.19-20.42,5.08-3.99,10.16-8.76,14.69-13.78,3.34-3.7,5.71-7.12,9.91-13.52-1.38-.59-2.75-1.42-4.05-2.56-5.13-4.51-5.35-10.07-5.48-13.05-.06-1.51-.11-2.28-.45-3.21-.44-1.2-.88-1.61-3.64-3.37-3.32-2.12-8.33-5.33-11.2-12.21-2.43-5.82-1.15-12.26,1.39-25.09,2.84-14.3,4.13-20.82,7.18-26.16,3.42-5.99,7.41-9.73,10.56-12.22-3.47-2.12-9.98-5.4-21.97-9.69-16.59-5.93-29.07-8.61-40.08-10.97-2.63-.56-5.18-1.11-7.7-1.68-15.26-3.45-21.88-6.06-29.54-9.08-7.11-2.8-15.17-5.98-33.02-11.07-23.72-6.76-42.46-12.1-67.75-13.62-22.29-1.34-34.57-2.07-48.01,4.07-1.58.72-3.28,1.59-6.36,3.16-4.07,2.08-10.89,5.56-23.36,11.71-15.99,7.89-19.6,9.58-25.85,10.05-7.85.6-14.96-.95-22.81-3.73Zm339.69,109.19h0Z"/>
    </g>
    <g>
      <path class="cls-3" d="m36.18,222.23c-2.52,2.42,11.62,17.05,13.7,19.2,11.81,12.22,15.72,12.29,24.66,22.4,5.6,6.33,8.64,11.47,14.61,21.6,7.42,12.57,8.32,16.7,13.7,26.39,1.58,2.85,9.51,16.91,21.92,30.39,16.59,18.03,34.58,27.84,43.84,32.79,12.14,6.49,33.94,17.88,65.76,21.6,4.62.54,39.37,4.25,76.72-8,20.31-6.66,33.36-15.41,36.53-17.6,2.4-1.65,8.21-5.79,14.61-12,4.02-3.9,6.64-7.4,11.87-14.4.84-1.13,4.41-3.79,3.97-6.93-.06-.45-.1-.73-.31-1.07-1.57-2.55-7.79.04-10.96-2.4-2.86-2.2-.82-5.01-2.74-9.6-3.02-7.2-10.64-6.38-13.7-12.8-1.07-2.25-.12-6.6,1.83-15.2,2.31-10.21,3.47-15.31,5.48-18.4,5.89-9.03,13.6-9.13,13.7-13.6.06-2.58-2.39-7.59-29.23-16-19.32-6.05-32.52-7.98-44.75-10.4-25.61-5.07-21.98-7.35-56.63-16-23.1-5.77-40.27-9.96-63.94-11.2-21.11-1.11-33.96-1.78-48.41,4-3.76,1.5-7.34,3.33-27.4,12-14.42,6.23-16.43,6.95-20.09,7.2-9.1.61-17.44-2.48-30.14-7.2-9.65-3.58-13.45-5.91-14.61-4.8Z"/>
      <path class="cls-3" d="m252.64,408.01c-9.82,0-16.83-.69-19.47-1-34.45-4.02-58.12-16.68-69.5-22.77-8.52-4.56-28.48-15.23-46.62-34.94-12.24-13.3-20.42-27.09-23.37-32.41-2.44-4.39-4.03-7.74-5.56-10.97-2.04-4.29-3.96-8.34-8-15.18-5.84-9.89-8.51-14.4-13.44-19.98-3.89-4.4-6.59-6.52-10-9.21-3.75-2.95-8.01-6.29-14.34-12.85-15.79-16.34-17.03-21.58-16.95-25.9.06-3.14,1.31-6.03,3.52-8.16h0c5.71-5.49,12.33-2.77,18.17-.38,1.95.8,4.38,1.8,7.38,2.91,11.8,4.38,18.92,7.02,25.79,6.57,1.85-.12,3.49-.69,16.63-6.36,11.28-4.87,17.2-7.52,21.11-9.27,3.05-1.36,4.73-2.11,6.55-2.84,16.59-6.64,31.02-5.88,52.86-4.74,25.16,1.32,44.05,6.04,65.93,11.5,17.21,4.29,25.37,7.11,31.93,9.38,6.78,2.34,11.67,4.03,24.19,6.51,2.23.44,4.5.87,6.83,1.3,10.64,2,22.69,4.26,39.03,9.37,12.87,4.03,21.83,7.78,27.37,11.45,6.25,4.15,9.35,9.13,9.22,14.81-.18,7.73-6.03,11.46-9.17,13.46-2.36,1.5-4.39,2.8-6.23,5.62-.98,1.51-2.4,7.75-4.03,14.98-.69,3.04-1.5,6.64-1.85,8.81.45.28,1,.58,1.46.84,3.27,1.83,8.73,4.89,11.7,11.96.66,1.58,1.07,3.05,1.33,4.36,3.48.18,8.54,1.18,11.63,6.2,1.36,2.21,1.63,4.16,1.77,5.09,1.08,7.6-4.08,12.86-6.02,14.84-.06.06-.12.12-.18.18-5.23,7-8.18,10.91-12.73,15.32-4.91,4.77-10.43,9.3-15.97,13.11-6.28,4.32-19.73,12.53-39.21,18.92-23.52,7.72-46.17,9.45-61.74,9.45ZM67.76,243.56c.64.51,1.27,1.01,1.9,1.5,3.74,2.94,7.61,5.98,12.76,11.81,6.26,7.08,9.64,12.81,15.79,23.21,4.53,7.66,6.75,12.34,8.89,16.86,1.46,3.07,2.83,5.97,4.95,9.78,2.02,3.63,9.46,16.42,20.47,28.38,15.73,17.09,32.84,26.24,41.07,30.64,11.02,5.9,31.53,16.87,62.03,20.42,6.07.71,38.05,3.67,72.23-7.54,17.62-5.78,29.54-13.3,33.85-16.27,4.59-3.16,9.17-6.92,13.26-10.88,2.4-2.33,4.25-4.54,6.88-7.98-.47-.29-.94-.6-1.41-.96-5.46-4.2-5.72-9.88-5.83-12.31-.05-1.06-.08-1.29-.18-1.55-.14-.33-.65-.68-2.6-1.78-3.18-1.78-7.99-4.48-10.89-10.57-2.66-5.59-1.34-11.43,1.06-22.04,2.59-11.42,3.88-17.15,6.93-21.81,2.19-3.35,4.59-5.85,6.82-7.75-3.48-1.56-8.75-3.6-16.69-6.08-15.15-4.75-26.56-6.89-36.63-8.78-2.4-.45-4.73-.89-7.03-1.34-13.93-2.76-19.97-4.84-26.96-7.26-6.5-2.24-13.86-4.78-30.17-8.85-21.68-5.41-38.8-9.69-61.94-10.9-20.41-1.07-31.66-1.66-43.96,3.26-1.44.58-2.98,1.27-5.79,2.52-3.72,1.66-9.95,4.45-21.35,9.37-14.6,6.31-17.89,7.66-23.56,8.04-4.78.32-9.28-.14-13.88-1.14Z"/>
    </g>
    <g>
      <path class="cls-3" d="m66.15,239.44c-2.26,1.91,10.44,13.47,12.31,15.17,10.62,9.66,14.13,9.71,22.16,17.7,5.03,5,7.76,9.07,13.13,17.07,6.67,9.93,7.47,13.2,12.31,20.86,1.42,2.25,8.55,13.36,19.69,24.02,14.91,14.25,31.07,22,39.39,25.92,10.91,5.13,30.5,14.13,59.08,17.07,4.15.43,35.37,3.36,68.93-6.32,18.25-5.27,29.97-12.18,32.82-13.91,2.16-1.31,7.38-4.57,13.13-9.48,3.61-3.08,5.96-5.85,10.67-11.38.76-.89,3.96-2.99,3.56-5.48-.06-.35-.09-.57-.28-.84-1.41-2.01-6.99.03-9.85-1.9-2.57-1.74-.73-3.96-2.46-7.59-2.72-5.69-9.56-5.04-12.31-10.11-.96-1.78-.11-5.21,1.64-12.01,2.08-8.07,3.12-12.1,4.92-14.54,5.29-7.14,12.22-7.22,12.31-10.75.05-2.04-2.15-6-26.26-12.64-17.36-4.78-29.22-6.3-40.21-8.22-23.01-4.01-19.75-5.81-50.88-12.64-20.75-4.56-36.18-7.87-57.44-8.85-18.97-.88-30.52-1.41-43.49,3.16-3.37,1.19-6.6,2.63-24.62,9.48-12.95,4.92-14.76,5.5-18.05,5.69-8.18.48-15.67-1.96-27.08-5.69-8.67-2.83-12.09-4.67-13.13-3.79Z"/>
      <path class="cls-3" d="m260.63,388.47c-8.82,0-15.11-.54-17.48-.79-30.95-3.18-52.25-13.2-62.48-18.01-7.7-3.62-25.73-12.11-42.17-27.83-11.15-10.66-18.62-21.74-21.32-26.01-2.24-3.54-3.68-6.23-5.08-8.82-1.8-3.33-3.5-6.48-7.06-11.79-5.17-7.69-7.52-11.21-11.82-15.48-3.4-3.38-5.66-4.95-8.79-7.11-3.24-2.24-7.26-5.02-13.03-10.27-13.58-12.36-16.1-17.44-16.01-22.51.06-3.28,1.51-6.36,3.99-8.45h0c5.33-4.51,11.03-2.45,16.55-.46,1.75.63,3.94,1.42,6.62,2.29,10.61,3.46,17.01,5.55,23.21,5.19,1.58-.09,2.59-.33,14.94-5.02,10.12-3.85,15.44-5.94,18.95-7.32,2.75-1.08,4.26-1.67,5.91-2.25,14.91-5.25,27.86-4.65,47.46-3.75,22.59,1.04,39.56,4.77,59.21,9.08,15.46,3.39,22.8,5.62,28.7,7.41,6.09,1.85,10.48,3.18,21.73,5.14,2.01.35,4.04.68,6.13,1.03,9.56,1.58,20.39,3.37,35.07,7.41,22.26,6.13,34.27,11.62,33.97,23.04-.2,7.65-6.31,11.07-9.24,12.72-1.99,1.12-3.7,2.08-5.13,4-.66,1.07-1.89,5.85-3.19,10.9-.38,1.47-.83,3.23-1.18,4.71,3.11,1.53,8.21,4.1,11.15,10.27.43.9.76,1.77,1.01,2.58,3.21.22,7.49,1.21,10.42,5.4,1.56,2.23,1.91,4.37,2.04,5.18,1.23,7.62-4.33,12.61-6.15,14.25l-.07.07c-4.71,5.54-7.39,8.66-11.55,12.21-4.47,3.82-9.49,7.44-14.51,10.48-5.67,3.43-17.8,9.95-35.35,15.01-21.13,6.1-41.46,7.47-55.44,7.47Zm-158.7-129.06c1.83,1.45,3.82,3.19,6.09,5.44,5.76,5.73,8.85,10.32,14.44,18.66,4.13,6.15,6.25,10.07,8.11,13.53,1.29,2.39,2.5,4.64,4.36,7.58,1.78,2.82,8.34,12.74,18.07,22.04,13.97,13.36,29.26,20.55,36.6,24.01,9.89,4.65,28.3,13.31,55.69,16.12,5.46.56,34.21,2.91,64.95-5.96,15.79-4.56,26.45-10.47,30.3-12.8,4.07-2.46,8.13-5.4,11.75-8.49,1.39-1.18,2.57-2.34,3.89-3.76-4.56-3.74-4.91-8.62-5.02-10.69-.43-.24-1.01-.52-1.48-.76-3.01-1.48-7.56-3.73-10.47-9.1-2.95-5.44-1.57-10.78.71-19.63,2.42-9.38,3.63-14.09,6.66-18.17.99-1.34,2.02-2.51,3.06-3.54-2.85-.99-6.56-2.15-11.36-3.47-13.62-3.75-23.87-5.44-32.91-6.94-2.15-.36-4.25-.7-6.31-1.06-12.51-2.18-17.94-3.83-24.23-5.73-5.83-1.77-12.45-3.78-27.1-7-19.48-4.28-34.87-7.66-55.67-8.62-18.36-.85-28.47-1.31-39.52,2.58-1.29.45-2.68,1-5.2,1.99-3.34,1.31-8.94,3.51-19.17,7.4-13.13,4.99-16.09,6.06-21.17,6.36-1.72.1-3.39.1-5.05.02Zm265.05,58.92h0Z"/>
    </g>
    <g>
      <path class="cls-3" d="m94.13,254c-2.04,1.56,9.44,11.01,11.13,12.4,9.6,7.9,12.77,7.94,20.03,14.47,4.54,4.09,7.01,7.41,11.87,13.95,6.03,8.12,6.75,10.79,11.13,17.06,1.28,1.84,7.73,10.93,17.8,19.64,13.48,11.65,28.08,17.99,35.61,21.19,9.86,4.2,27.57,11.56,53.41,13.95,3.76.35,31.98,2.75,62.31-5.17,16.49-4.3,27.09-9.96,29.67-11.37,1.95-1.07,6.67-3.74,11.87-7.75,3.27-2.52,5.39-4.78,9.64-9.3.68-.73,3.58-2.45,3.22-4.48-.05-.29-.08-.47-.25-.69-1.27-1.65-6.32.03-8.9-1.55-2.32-1.42-.66-3.24-2.23-6.2-2.46-4.65-8.64-4.12-11.13-8.27-.87-1.46-.1-4.26,1.48-9.82,1.88-6.6,2.82-9.89,4.45-11.89,4.78-5.84,11.04-5.9,11.13-8.79.05-1.66-1.94-4.91-23.74-10.34-15.69-3.91-26.41-5.15-36.35-6.72-20.8-3.28-17.85-4.75-45.99-10.34-18.76-3.73-32.71-6.43-51.92-7.24-17.14-.72-27.58-1.15-39.31,2.58-3.05.97-5.96,2.15-22.25,7.75-11.71,4.03-13.34,4.49-16.32,4.65-7.39.39-14.16-1.61-24.48-4.65-7.84-2.31-10.93-3.82-11.87-3.1Z"/>
      <path class="cls-3" d="m269.91,377.77c-7.97,0-13.65-.44-15.79-.64-28-2.6-47.28-10.81-56.55-14.75-6.99-2.98-23.37-9.94-38.36-22.91-10.21-8.83-17.07-18.03-19.55-21.57-2.06-2.96-3.39-5.18-4.67-7.33-1.6-2.68-3.11-5.21-6.27-9.47-4.74-6.38-6.7-9.02-10.46-12.41-2.99-2.69-5-3.95-7.79-5.69-2.95-1.85-6.62-4.14-11.89-8.48-12.96-10.67-15.29-15.17-15.19-20.19.06-3.43,1.65-6.59,4.37-8.66,5.02-3.84,10.22-2.14,15.24-.5,1.58.52,3.55,1.16,5.98,1.87,9.58,2.83,15.35,4.54,20.95,4.24,1.42-.08,2.32-.27,13.46-4.1,9.16-3.15,13.96-4.85,17.14-5.98,2.48-.88,3.85-1.37,5.34-1.84,13.5-4.3,25.21-3.81,42.94-3.07,20.43.85,35.77,3.9,53.53,7.43,13.98,2.78,20.62,4.6,25.95,6.06,5.5,1.51,9.47,2.6,19.63,4.2,1.81.29,3.65.56,5.54.84,8.64,1.29,18.43,2.75,31.71,6.06,18.17,4.53,32.04,8.93,31.69,20.83-.22,7.61-6.55,10.82-9.25,12.2-1.69.86-3.04,1.54-4.12,2.79-.56,1.08-1.6,4.73-2.6,8.26-.16.58-.35,1.22-.52,1.85,2.92,1.39,6.84,3.69,9.35,8.46.26.49.48.97.68,1.44,2.94.25,6.71,1.23,9.47,4.79,1.75,2.27,2.14,4.45,2.29,5.28.91,5.1-1.19,9.76-6.25,13.87-4.27,4.54-6.71,7.11-10.54,10.06-4.08,3.15-8.66,6.14-13.24,8.65-5.15,2.82-16.17,8.17-32.06,12.32-19.11,4.99-37.5,6.11-50.14,6.11Zm-138.57-105.55c.31.27.63.56.96.85,5.33,4.79,8.32,8.82,13.27,15.5,3.8,5.11,5.73,8.36,7.45,11.23,1.19,2,2.23,3.73,3.86,6.07,1.58,2.26,7.4,10.22,16.06,17.71,12.51,10.82,26.25,16.66,32.85,19.47,8.92,3.8,25.53,10.86,50.27,13.16,4.93.46,30.92,2.37,58.69-4.87,14.22-3.71,23.82-8.52,27.28-10.42,3.64-1.99,7.27-4.36,10.49-6.85.55-.43,1.07-.85,1.57-1.28-2.29-2.54-2.98-5.37-3.22-7.24-.18-.08-.37-.17-.53-.24-2.68-1.19-7.15-3.19-10.05-8.02-3.22-5.38-1.71-10.71.39-18.09,2.2-7.73,3.41-11.99,6.43-15.67.09-.11.18-.22.27-.33-2.05-.59-4.46-1.24-7.3-1.95-12.3-3.06-21.56-4.45-29.74-5.67-1.95-.29-3.84-.57-5.71-.87-11.32-1.78-16.23-3.13-21.92-4.69-5.27-1.45-11.24-3.09-24.48-5.72-17.61-3.5-31.51-6.26-50.32-7.04-16.59-.69-25.73-1.07-35.69,2.1-1.16.37-2.41.81-4.68,1.62-3.02,1.07-8.09,2.87-17.35,6.06-11.62,4-14.44,4.92-18.86,5.19Zm244.89,68.05h0s0,0,0,0Zm-12.7-43.69h0,0Z"/>
    </g>
    <g>
      <path class="cls-3" d="m118.1,265.95c-1.85,1.2,8.53,8.49,10.05,9.56,8.67,6.09,11.54,6.12,18.09,11.16,4.11,3.15,6.34,5.72,10.72,10.76,5.45,6.26,6.1,8.32,10.05,13.15,1.16,1.42,6.98,8.42,16.08,15.14,12.18,8.98,25.37,13.87,32.17,16.34,8.91,3.23,24.9,8.91,48.25,10.76,3.39.27,28.89,2.12,56.29-3.98,14.9-3.32,24.48-7.68,26.81-8.77,1.76-.82,6.03-2.88,10.72-5.98,2.95-1.94,4.87-3.69,8.71-7.17.62-.56,3.24-1.89,2.91-3.45-.05-.22-.08-.36-.23-.53-1.15-1.27-5.71.02-8.04-1.2-2.1-1.1-.6-2.5-2.01-4.78-2.22-3.59-7.81-3.18-10.05-6.38-.79-1.12-.09-3.29,1.34-7.57,1.7-5.08,2.54-7.63,4.02-9.16,4.32-4.5,9.98-4.55,10.05-6.77.04-1.28-1.75-3.78-21.44-7.97-14.18-3.01-23.86-3.97-32.84-5.18-18.79-2.52-16.13-3.66-41.55-7.97-16.95-2.87-29.55-4.96-46.91-5.58-15.49-.55-24.92-.89-35.52,1.99-2.76.75-5.39,1.66-20.1,5.98-10.58,3.1-12.06,3.46-14.74,3.59-6.68.3-12.79-1.24-22.11-3.59-7.08-1.78-9.87-2.95-10.72-2.39Z"/>
      <path class="cls-3" d="m276.91,363.77c-7.17,0-12.29-.34-14.22-.49-25.24-2-42.64-8.32-51.01-11.36-6.33-2.3-21.17-7.69-34.82-17.76-9.37-6.91-15.69-14.15-17.98-16.94-1.92-2.35-3.2-4.18-4.34-5.8-1.41-2.01-2.73-3.91-5.51-7.1-4.19-4.82-5.92-6.81-9.19-9.32-2.63-2.02-4.42-2.98-6.9-4.3-2.69-1.43-6.03-3.22-10.84-6.59-10.07-7.08-14.84-11.56-14.73-17.94.06-3.65,1.93-7.02,4.98-9.01,4.55-2.97,8.96-1.74,13.62-.44,1.43.4,3.21.89,5.4,1.45,8.69,2.19,13.94,3.51,19.07,3.28,1.33-.06,2.16-.21,12.26-3.17,8.26-2.42,12.6-3.74,15.47-4.61,2.25-.68,3.49-1.06,4.83-1.42,12.13-3.3,22.68-2.92,38.64-2.35,18.42.66,32.26,3,48.29,5.72,12.62,2.14,18.61,3.54,23.42,4.67,4.98,1.17,8.57,2.01,17.77,3.24,1.64.22,3.29.43,5,.65,7.8.99,16.64,2.12,28.62,4.67,14.83,3.15,30.17,6.41,29.76,18.59-.26,7.7-6.97,10.6-9.49,11.7-1.26.54-2.37,1.02-3.16,1.69-.36.79-.93,2.45-1.53,4.25,2.44,1.2,5.22,3.07,7.26,6.37.1.15.19.31.28.46,2.66.23,5.97,1.06,8.63,3.99,2.07,2.28,2.56,4.65,2.73,5.44.76,3.66.25,9-6.51,13.72-3.75,3.4-6.1,5.51-9.61,7.82-3.71,2.45-7.88,4.77-12.05,6.72-4.66,2.18-14.62,6.31-28.97,9.5-17.23,3.84-33.8,4.7-45.19,4.7Zm-120.23-82.05c2.76,2.54,5.05,5.18,8.21,8.81,3.51,4.03,5.3,6.6,6.88,8.86,1.05,1.5,1.96,2.8,3.38,4.54,1.39,1.7,6.52,7.68,14.19,13.34,11.2,8.26,23.57,12.76,29.52,14.92,8.07,2.93,23.09,8.39,45.5,10.16,4.47.35,28.04,1.83,53.18-3.77,12.86-2.86,21.52-6.57,24.64-8.03,2.88-1.35,5.75-2.92,8.37-4.57-.45-.81-.82-1.72-1.11-2.73-2.54-.97-6.57-2.6-9.4-6.63-3.84-5.48-1.99-11.04-.03-16.93,1.36-4.07,2.36-7.07,3.78-9.57-1.04-.24-2.17-.48-3.37-.74-11.13-2.37-19.51-3.43-26.91-4.38-1.75-.22-3.46-.44-5.14-.67-10.2-1.37-14.63-2.41-19.76-3.61-4.77-1.12-10.17-2.38-22.14-4.41-15.93-2.7-28.5-4.83-45.53-5.44-15.04-.54-23.33-.83-32.39,1.63-1.05.29-2.19.63-4.25,1.25-2.73.83-7.3,2.22-15.66,4.67-6.01,1.76-9.41,2.75-11.96,3.31Zm205.36,18.8h0,0Zm-238.2-25.78h0s0,0,0,0Z"/>
    </g>
    <g>
      <path class="cls-3" d="m135.09,273.13c-1.72.98,7.93,6.92,9.35,7.79,8.07,4.96,10.73,4.99,16.84,9.09,3.82,2.57,5.9,4.66,9.98,8.76,5.07,5.1,5.68,6.78,9.35,10.71,1.08,1.16,6.49,6.86,14.96,12.34,11.33,7.32,23.61,11.3,29.93,13.31,8.29,2.64,23.17,7.26,44.89,8.76,3.16.22,26.88,1.73,52.38-3.25,13.86-2.7,22.77-6.26,24.94-7.14,1.64-.67,5.61-2.35,9.98-4.87,2.74-1.58,4.53-3,8.11-5.84.57-.46,3.01-1.54,2.71-2.81-.04-.18-.07-.3-.21-.43-1.07-1.03-5.31.02-7.48-.97-1.95-.89-.56-2.04-1.87-3.9-2.06-2.92-7.27-2.59-9.35-5.19-.73-.91-.08-2.68,1.25-6.17,1.58-4.14,2.37-6.21,3.74-7.47,4.02-3.67,9.28-3.71,9.35-5.52.04-1.05-1.63-3.08-19.95-6.49-13.19-2.46-22.2-3.24-30.55-4.22-17.48-2.06-15.01-2.98-38.66-6.49-15.77-2.34-27.49-4.04-43.65-4.54-14.41-.45-23.19-.72-33.05,1.62-2.56.61-5.01,1.35-18.71,4.87-9.84,2.53-11.22,2.82-13.72,2.92-6.22.25-11.9-1.01-20.58-2.92-6.59-1.45-9.19-2.4-9.98-1.95Z"/>
      <path class="cls-3" d="m282.85,354.77c-6.65,0-11.4-.28-13.18-.4-23.43-1.63-39.59-6.76-47.35-9.23-5.9-1.87-19.7-6.26-32.44-14.5-8.81-5.69-14.78-11.68-16.94-13.99-1.83-1.96-3.05-3.49-4.12-4.83-1.33-1.67-2.49-3.11-5.01-5.65-3.84-3.86-5.43-5.46-8.39-7.45-2.41-1.62-4.07-2.4-6.36-3.46-2.51-1.17-5.63-2.63-10.12-5.39-8.87-5.45-14.67-9.55-14.55-16.58.06-3.88,2.12-7.34,5.5-9.27h0c4.16-2.38,7.99-1.45,12.41-.37,1.32.32,2.97.72,5.03,1.18,8.13,1.79,13.04,2.87,17.9,2.68,1.31-.05,2.05-.17,11.52-2.6,7.7-1.98,11.83-3.07,14.42-3.76,2.13-.56,3.29-.87,4.47-1.15,11.22-2.67,21-2.36,35.8-1.9,17.1.53,29.36,2.35,44.87,4.65,11.73,1.74,17.29,2.88,21.77,3.8,4.64.95,8,1.64,16.58,2.65,1.53.18,3.07.35,4.67.53,7.24.81,15.45,1.72,26.58,3.79,8.92,1.66,14.9,3.15,18.79,4.69,8.76,3.45,9.85,9.34,9.73,12.54-.3,7.81-7.14,10.4-9.72,11.38-.93.35-1.88.71-2.55,1.12-.07.16-.15.34-.23.54,1.93,1.03,3.95,2.52,5.58,4.83,2.48.19,5.49.89,8.08,3.39,1.56,1.51,2.61,3.38,3.13,5.56.6,2.51,1.14,8.9-6.79,13.77-3.49,2.77-5.7,4.5-9,6.4-3.47,2-7.36,3.9-11.25,5.49-4.33,1.77-13.57,5.13-26.91,7.73-15.98,3.12-31.36,3.82-41.93,3.82Zm-108.43-67.62c1.32,1.25,2.68,2.62,4.27,4.22,3.33,3.35,5.03,5.48,6.53,7.36.95,1.2,1.78,2.23,3.05,3.59,1.27,1.36,5.95,6.14,12.99,10.68,10.38,6.71,21.89,10.37,27.41,12.12,7.52,2.39,21.52,6.85,42.44,8.3,4.17.29,26.17,1.5,49.64-3.08,12-2.34,20.06-5.36,22.97-6.55,1.84-.75,3.67-1.59,5.43-2.48-2.4-.88-5.39-2.29-7.77-5.26-4.51-5.62-2.21-11.64-.37-16.47.75-1.97,1.4-3.68,2.1-5.21-.35-.07-.71-.13-1.07-.2-10.37-1.93-18.18-2.8-25.07-3.57-1.64-.18-3.23-.36-4.79-.54-9.47-1.11-13.58-1.96-18.34-2.94-4.44-.91-9.47-1.94-20.63-3.6-14.84-2.2-26.56-3.94-42.43-4.44-14.05-.44-21.79-.68-30.29,1.34-1.04.25-2.07.52-3.94,1.02-2.62.7-6.79,1.8-14.58,3.8-3.22.83-5.63,1.44-7.54,1.9Zm189.13,21.38h0,0Z"/>
    </g>
    <g>
      <path class="cls-3" d="m156.85,281.03c-1.52.76,7.04,5.35,8.3,6.02,7.15,3.83,9.52,3.85,14.93,7.02,3.39,1.98,5.23,3.6,8.85,6.77,4.49,3.94,5.03,5.24,8.3,8.28.96.89,5.76,5.3,13.27,9.53,10.05,5.65,20.94,8.73,26.54,10.28,7.35,2.04,20.55,5.61,39.82,6.77,2.8.17,23.84,1.33,46.45-2.51,12.3-2.09,20.2-4.83,22.12-5.52,1.45-.52,4.97-1.81,8.85-3.76,2.43-1.22,4.02-2.32,7.19-4.51.51-.35,2.67-1.19,2.4-2.17-.04-.14-.06-.23-.19-.33-.95-.8-4.71.01-6.64-.75-1.73-.69-.49-1.57-1.66-3.01-1.83-2.26-6.44-2-8.3-4.01-.65-.71-.07-2.07,1.11-4.77,1.4-3.2,2.1-4.8,3.32-5.77,3.57-2.83,8.23-2.86,8.3-4.26.04-.81-1.45-2.38-17.7-5.02-11.7-1.9-19.69-2.5-27.1-3.26-15.51-1.59-13.31-2.3-34.29-5.02-13.99-1.81-24.38-3.12-38.71-3.51-12.78-.35-20.56-.56-29.31,1.25-2.27.47-4.45,1.05-16.59,3.76-8.73,1.95-9.95,2.18-12.17,2.26-5.51.19-10.56-.78-18.25-2.26-5.84-1.12-8.15-1.85-8.85-1.5Z"/>
      <path class="cls-3" d="m287.91,346.49c-5.9,0-10.1-.21-11.69-.31-20.76-1.25-35.1-5.23-41.98-7.13-5.24-1.45-17.53-4.85-28.89-11.25-7.94-4.47-13.33-9.18-15.28-11-1.68-1.57-2.79-2.77-3.76-3.84-1.14-1.25-2.13-2.33-4.29-4.22-3.43-3.01-4.71-4.13-7.23-5.61-2.09-1.22-3.54-1.81-5.54-2.63-2.24-.91-5.02-2.04-9.04-4.2-7.26-3.89-14.13-7.57-14.02-15.18.06-4.04,2.36-7.68,6-9.5,3.75-1.87,6.97-1.18,11.04-.32,1.17.25,2.64.56,4.47.91,7.22,1.39,11.57,2.22,15.91,2.08,1.17-.04,1.83-.13,10.24-2.01,6.84-1.53,10.5-2.38,12.79-2.91,1.88-.44,2.91-.67,3.96-.89,9.94-2.06,18.61-1.83,31.73-1.47,15.15.41,26.01,1.82,39.77,3.59,10.4,1.34,15.34,2.23,19.3,2.94,4.12.74,7.09,1.27,14.71,2.05,1.35.14,2.73.27,4.14.41,6.42.62,13.7,1.33,23.57,2.93,7.92,1.28,13.22,2.44,16.69,3.63,8.88,3.05,9.96,8.97,9.82,12.22-.21,4.72-2.91,8.2-8.03,10.36.3.29.6.6.89.92,2.21.17,4.88.77,7.28,2.79,1.73,1.45,2.93,3.33,3.55,5.57.57,2.1,1.75,9.2-6.95,13.88-3.11,2.15-5.08,3.49-8.05,4.98-3.1,1.56-6.57,3.03-10.04,4.27-3.84,1.37-12.06,3.97-23.89,5.98-14.17,2.41-27.79,2.95-37.16,2.95Zm79.53-18.46s0,0,0,0c0,0,0,0,0,0Zm-171.23-34.76c2.79,2.47,4.26,4.08,5.57,5.5.85.93,1.52,1.66,2.6,2.67,1.09,1.02,5.13,4.61,11.26,8.06,9.14,5.14,19.31,7.96,24.2,9.31,6.67,1.85,19.09,5.29,37.65,6.41,3.7.22,23.22,1.16,44.06-2.38,9.92-1.69,16.8-3.83,19.77-4.85-.67-.5-1.33-1.08-1.96-1.77-5.3-5.76-2.36-12.48-.79-16.08.11-.24.21-.48.32-.72-8.44-1.32-14.94-1.95-20.7-2.51-1.45-.14-2.86-.28-4.25-.42-8.4-.86-12.04-1.51-16.26-2.27-3.94-.7-8.4-1.5-18.3-2.78-13.17-1.7-23.57-3.05-37.65-3.43-12.47-.34-19.34-.53-26.89,1.04-.92.19-1.83.4-3.49.79-2.32.54-6.02,1.39-12.94,2.94-.78.18-1.51.34-2.19.49Zm-34.68-2.84h0s0,0,0,0Z"/>
    </g>
    <g>
      <path class="cls-3" d="m181.04,288.02c-1.34.55,6.2,3.91,7.31,4.4,6.3,2.8,8.39,2.82,13.15,5.14,2.98,1.45,4.61,2.63,7.8,4.95,3.96,2.88,4.44,3.83,7.31,6.05.84.65,5.07,3.88,11.69,6.97,8.85,4.14,18.44,6.39,23.39,7.52,6.48,1.49,18.1,4.1,35.08,4.95,2.47.12,21,.98,40.92-1.83,10.83-1.53,17.79-3.54,19.49-4.04,1.28-.38,4.38-1.33,7.8-2.75,2.14-.89,3.54-1.7,6.33-3.3.45-.26,2.35-.87,2.12-1.59-.03-.1-.06-.17-.17-.24-.84-.58-4.15,0-5.85-.55-1.52-.5-.43-1.15-1.46-2.2-1.61-1.65-5.68-1.46-7.31-2.94-.57-.52-.06-1.51.97-3.49,1.23-2.34,1.85-3.51,2.92-4.22,3.14-2.07,7.25-2.1,7.31-3.12.03-.59-1.27-1.74-15.59-3.67-10.31-1.39-17.35-1.83-23.87-2.39-13.66-1.16-11.73-1.69-30.21-3.67-12.32-1.32-21.48-2.28-34.1-2.57-11.26-.25-18.12-.41-25.82.92-2,.34-3.92.76-14.62,2.75-7.69,1.43-8.76,1.6-10.72,1.65-4.86.14-9.3-.57-16.08-1.65-5.15-.82-7.18-1.36-7.8-1.1Z"/>
      <path class="cls-3" d="m296.5,338.73c-5.18,0-8.87-.16-10.26-.23-18.24-.92-30.85-3.81-36.91-5.21-4.62-1.06-15.44-3.55-25.48-8.24-7.07-3.31-11.92-6.82-13.67-8.18-1.54-1.19-2.54-2.1-3.43-2.9-1.01-.91-1.8-1.63-3.63-2.97-3.04-2.21-4.06-2.95-6.21-4-1.81-.88-3.08-1.31-4.84-1.9-1.97-.67-4.43-1.5-7.99-3.08-6.79-3.02-13.8-6.14-13.7-13.95.06-4.28,2.67-8.1,6.65-9.75h0c3.24-1.34,5.87-.87,9.52-.23,1.03.18,2.33.41,3.94.67,6.39,1.02,10.25,1.64,14.12,1.52,1.07-.03,1.66-.1,9.1-1.48,6.01-1.12,9.23-1.74,11.26-2.12,1.67-.32,2.57-.49,3.5-.65,8.7-1.5,16.32-1.33,27.83-1.07,13.33.3,22.89,1.33,34.99,2.63,9.15.98,13.49,1.63,16.98,2.15,3.64.54,6.27.93,12.99,1.5,1.19.1,2.39.2,3.63.3,5.65.46,12.06.97,20.75,2.14,6.96.94,11.61,1.78,14.66,2.65,9.48,2.7,10.16,9.29,10.02,11.99-.11,2.01-.73,4.37-2.57,6.45.5.25,1.01.54,1.51.89,1.35.95,3.17,2.68,4.12,5.56.32.98,2.86,9.67-7.25,14.21-2.74,1.57-4.49,2.56-7.13,3.66-2.74,1.14-5.8,2.22-8.86,3.13-3.38,1-10.61,2.9-21,4.37-12.45,1.76-24.43,2.15-32.66,2.15Zm-75.26-39.98c.56.5,1.07.95,1.8,1.51.94.72,4.4,3.28,9.71,5.76,8.02,3.75,16.99,5.81,21.29,6.8,5.89,1.35,16.86,3.88,33.25,4.7,3.27.16,20.53.85,38.93-1.75,5.44-.77,9.84-1.66,13.03-2.41-1.48-2.75-1.77-6.07-.7-9.3.02-.05.03-.09.05-.14-6.08-.73-10.97-1.13-15.38-1.48-1.27-.1-2.51-.2-3.73-.31-7.38-.63-10.58-1.1-14.29-1.65-3.48-.52-7.41-1.1-16.14-2.04-11.61-1.25-20.78-2.23-33.22-2.51-11.03-.25-17.1-.39-23.8.77-.82.14-1.62.3-3.1.58-1.59.31-3.9.75-7.69,1.46Z"/>
    </g>
    <g>
      <path class="cls-3" d="m204.03,292.35c-1.18.42,5.46,2.96,6.44,3.33,5.55,2.12,7.39,2.13,11.59,3.89,2.63,1.1,4.06,1.99,6.87,3.75,3.49,2.18,3.91,2.9,6.44,4.58.74.49,4.47,2.93,10.3,5.27,7.8,3.13,16.25,4.83,20.6,5.69,5.7,1.13,15.95,3.1,30.9,3.75,2.17.09,18.5.74,36.06-1.39,9.54-1.16,15.68-2.67,17.17-3.05,1.13-.29,3.86-1,6.87-2.08,1.89-.68,3.12-1.28,5.58-2.5.4-.2,2.07-.66,1.86-1.2-.03-.08-.05-.13-.15-.19-.74-.44-3.66,0-5.15-.42-1.34-.38-.38-.87-1.29-1.67-1.42-1.25-5-1.11-6.44-2.22-.5-.39-.06-1.14.86-2.64,1.09-1.77,1.63-2.66,2.58-3.19,2.77-1.57,6.39-1.58,6.44-2.36.03-.45-1.12-1.32-13.74-2.78-9.08-1.05-15.28-1.38-21.03-1.8-12.04-.88-10.33-1.28-26.61-2.78-10.86-1-18.93-1.73-30.05-1.94-9.92-.19-15.96-.31-22.75.69-1.76.26-3.45.58-12.88,2.08-6.78,1.08-7.72,1.21-9.44,1.25-4.28.11-8.19-.43-14.16-1.25-4.54-.62-6.32-1.03-6.87-.83Z"/>
      <path class="cls-3" d="m305.75,333.27c-4.56,0-7.81-.12-9.04-.17-16.05-.69-27.15-2.88-32.49-3.94-4.07-.8-13.61-2.69-22.48-6.25-6.3-2.53-10.63-5.23-12.21-6.27-1.39-.93-2.34-1.66-3.1-2.26-.86-.67-1.53-1.19-3.09-2.16-2.63-1.64-3.51-2.2-5.35-2.96-1.58-.66-2.63-.96-4.23-1.43-1.74-.51-3.91-1.14-7.06-2.34-6.3-2.41-13.43-5.13-13.33-13.13.05-4.43,2.92-8.42,7.13-9.91h0c2.84-1.01,5.14-.66,8.32-.18.91.14,2.05.31,3.48.51,5.64.77,9.05,1.23,12.48,1.16.97-.02,1.45-.07,8.05-1.12,5.29-.84,8.13-1.31,9.91-1.61,1.47-.24,2.27-.37,3.08-.49,7.66-1.13,14.35-1,24.49-.8,11.73.23,20.15,1,30.81,1.99,8.06.74,11.88,1.23,14.96,1.62,3.21.41,5.53.7,11.46,1.14,1.05.08,2.12.15,3.22.23,4.98.34,10.61.74,18.25,1.62,6.12.71,10.22,1.34,12.9,2,9.91,2.43,10.24,9.69,10.11,11.86-.07,1.16-.31,2.43-.85,3.69,1.21.97,2.5,2.43,3.32,4.58,1.03,2.69.95,5.63-.23,8.27-1.87,4.17-5.58,5.69-7.17,6.29-2.42,1.2-3.98,1.95-6.31,2.78-2.43.87-5.13,1.69-7.82,2.37-2.97.76-9.33,2.19-18.49,3.3-10.96,1.33-21.5,1.62-28.73,1.62Zm-59.58-31.34c1,.48,2.14.99,3.4,1.49,7.05,2.83,14.94,4.39,18.73,5.13,5.19,1.03,14.87,2.94,29.32,3.56,2.89.12,18.1.65,34.34-1.32,3.6-.44,6.68-.93,9.18-1.38-.13-.81-.17-1.69-.09-2.64-4.53-.44-8.29-.7-11.73-.94-1.13-.08-2.22-.15-3.3-.23-6.5-.47-9.32-.83-12.58-1.25-3.06-.39-6.54-.83-14.23-1.54-10.23-.94-18.32-1.69-29.29-1.9-9.73-.19-15.09-.29-21.01.58-.72.11-1.43.22-2.74.44,0,0,0,0,0,0Zm-36.28-17.88s0,0,0,0h0Z"/>
    </g>
    <g>
      <path class="cls-3" d="m381.89,355.28c-.6-.13.07-2.28-1-4.34-2.04-3.93-7.49-1.98-11-5.43-2.99-2.93-1.28-6.53-3-11.94-2.84-8.94-10.15-7.44-15-15.2,0,0-9.66-16.59,7-45.6,1.42-2.47,3-4.34,3-4.34,2.66-3.14,3.8-3.01,6-5.43,3.83-4.2,3.22-7.7,6-8.69,1.43-.5,2.98-.08,5,1.09,5.05,2.9,16.33,12.29,17,27.14.33,7.42-2,14.12-2,14.12-1.53,4.38-3.04,5.85-4,10.86-.51,2.64-1.6,8.3,1,10.86,1.61,1.58,3.47.83,4,2.17.82,2.08-3.58,3.98-4,8.69-.21,2.33.56,5.33,2,7.6,1.12,1.77,2.14,2.28,2,3.26-.23,1.64-3.25,1.46-6,3.26-5.43,3.54-5.84,12.2-7,11.94Z"/>
      <path class="cls-3" d="m381.93,365.78c-.78,0-1.55-.08-2.28-.24-1.18-.26-6.4-1.72-8.07-7.71-2.59-.64-6-1.83-9.05-4.83-4.61-4.53-4.96-9.77-5.17-12.9-.09-1.36-.16-2.34-.48-3.35-.35-1.09-.37-1.15-3.01-2.75-2.94-1.77-7.37-4.45-10.88-10.07l-.17-.28c-1.3-2.23-12.16-22.8,6.97-56.12.54-.94,1.09-1.81,1.61-2.57v-.39l2.48-2.93c2.26-2.67,4.05-3.99,5.23-4.86.63-.46.74-.55,1.03-.86.67-.74.95-1.37,1.46-2.51,1-2.26,3.07-6.98,8.8-9,6.48-2.29,11.94.85,13.73,1.88,9.78,5.62,21.47,18.36,22.26,35.77.41,9.17-2.27,17.16-2.57,18.04-.75,2.15-1.49,3.75-2.09,5.04-.77,1.67-1.16,2.5-1.52,4.35-.06.31-.17.9-.27,1.53,2.63,1.62,4.01,3.82,4.73,5.65,2.62,6.62-1.51,11.78-2.87,13.48-.1.12-.21.26-.31.39.07.23.17.48.28.65.05.08.16.21.35.44.97,1.15,3.92,4.67,3.18,9.91-.69,4.91-3.94,8.35-9.66,10.24-.31.1-.7.23-.94.33-.6.76-1.29,2.95-1.6,3.92-.31.99-.61,1.93-1.03,2.89-2.16,4.87-6.31,6.86-10.13,6.86Zm12.85-13.77h0Zm-16.53-14.21c.28.06.58.13.89.2.62-.69,1.3-1.36,2.05-2-.71-2.58-.98-5.23-.76-7.71.16-1.81.57-3.42,1.11-4.84-4.2-6.29-2.67-14.28-1.96-17.93.84-4.38,2.09-7.06,3.09-9.22.48-1.04.9-1.94,1.31-3.11,0,0,1.66-5,1.43-10.19-.32-7.18-4.47-12.4-7.74-15.43-.57.8-1.24,1.64-2.01,2.48-1.69,1.86-3.14,2.92-4.1,3.63-.72.53-.97.72-1.62,1.47-.09.11-1.08,1.33-1.94,2.82-12.19,21.23-7.79,33.3-6.99,35.13.77,1.1,1.72,1.69,3.72,2.9,3.75,2.26,9.41,5.68,12.17,14.36.94,2.94,1.21,5.52,1.36,7.41Zm-1.98-.45h0,0Zm25.08-7.37h0Zm-40.32-16.79h0s0,0,0,0c0,0,0,0,0,0Zm-.08-.12h0Zm12.32-48.79h0,0Z"/>
    </g>
    <g>
      <path class="cls-3" d="m387.48,308.38c-.13-4.79,1.68-8.47,2.16-9.39,1.71-3.28,3.22-3.66,3.24-5.87.02-2.06-1.28-2.46-2.16-5.87-.47-1.81-1.15-4.44,0-5.87,1.32-1.64,4.51-1.06,6.49,0,4.6,2.46,5.37,9,5.41,9.39.46,4.42-1.59,5.21-1.08,9.39.56,4.58,3.15,4.72,4.32,9.39,1.13,4.48-.23,8.45-2.16,14.09-1.64,4.78-3.61,7.81-5.41,10.57-2.63,4.04-3.95,6.06-5.41,5.87-2.57-.34-5.15-7.27-3.24-11.74,1.36-3.19,4.33-3.52,4.32-5.87,0-2.05-2.26-2.36-4.32-5.87-1.99-3.39-2.13-6.89-2.16-8.22Z"/>
      <path class="cls-3" d="m393.28,350.6c-.57,0-1.16-.04-1.78-.12-4.14-.55-7.73-3.16-10.11-7.35-2.5-4.39-4.36-11.99-1.4-18.92.28-.65.58-1.25.9-1.8-.1-.16-.19-.32-.29-.48-2.26-3.84-3.48-8.3-3.61-13.26h0c-.18-6.7,2.02-11.98,3.35-14.52.34-.66.68-1.25,1.01-1.78-.27-.72-.54-1.55-.78-2.48-.74-2.86-2.47-9.54,1.98-15.08,5.09-6.33,13.74-5.83,19.62-2.68,9.15,4.9,10.68,15.5,10.9,17.57.45,4.33-.44,7.23-.97,8.96-.01.04-.03.08-.04.13.02.02.03.04.05.06,1.08,1.49,2.9,3.97,3.95,8.15,1.88,7.5-.2,13.59-2.41,20.04-2.06,6.02-4.55,9.84-6.54,12.9-3.28,5.02-6.95,10.67-13.81,10.67Z"/>
    </g>
  </g>
  <g>
    <path class="cls-6" d="m351.77,10.28c-4.07-.4-9.46,22.95-10.25,26.38-4.51,19.51-2.01,22.99-6.28,38.39-2.67,9.64-5.84,16.16-12.06,28.98-7.73,15.91-11.28,19.79-17.47,31.76-1.82,3.52-10.71,21-16.09,41.97-7.19,28.05-5.23,51.16-4.13,62.99,1.45,15.51,4.32,43.15,21.45,73.84,2.49,4.46,21.53,37.72,58.27,61.32,19.98,12.83,37.29,17.74,41.56,18.89,3.23.87,11.18,2.88,21.59,3.84,6.54.61,11.76.29,22.2-.35,1.68-.1,6.68,1.04,9.54-1.71.41-.39.66-.63.86-1.07,1.52-3.28-5.14-6.8-4.78-11.41.33-4.15,4.49-4.47,7.82-9.58,5.23-8.04-.58-14.11,3.84-21.59,1.55-2.63,6.53-5.04,16.42-9.77,11.74-5.61,17.61-8.41,22.02-8.95,12.91-1.59,18.06,5.09,22.6,1.85,2.62-1.87,6.04-7.78-3.12-37.61-6.6-21.48-13.31-34.49-18.9-47.04-11.7-26.26-7.04-24.78-21.07-61.64-9.36-24.58-16.41-42.78-30.67-64.46-12.72-19.35-20.47-31.13-35.72-39.47-3.97-2.17-8.15-3.95-29.97-15.06-15.69-7.99-17.73-9.21-20.37-12.24-6.57-7.53-8.93-17.16-12.53-31.83-2.74-11.15-2.89-16.23-4.77-16.41Z"/>
    <path class="cls-2" d="m350.93,42.48c-3.44-.57-6.7,19.51-7.18,22.46-2.72,16.78-.44,19.95-3.19,33.16-1.72,8.27-4.03,13.78-8.56,24.63-5.63,13.47-8.4,16.65-12.95,26.77-1.33,2.97-7.86,17.74-11.24,35.75-4.52,24.09-1.62,44.36-.04,54.75,2.06,13.61,5.98,37.9,22.05,65.61,2.33,4.03,20.15,34.09,52.32,56.69,17.49,12.28,32.31,17.51,35.96,18.74,2.76.94,9.55,3.12,18.36,4.53,5.53.89,9.9.89,18.64.9,1.41,0,5.67,1.27,7.93-.97.32-.32.52-.52.67-.89,1.1-2.78-4.69-6.21-4.64-10.22.05-3.61,3.53-3.65,6.05-7.94,3.96-6.73-1.26-12.35,2.06-18.63,1.16-2.21,5.21-4.04,13.27-7.63,9.56-4.25,14.34-6.38,18.02-6.62,10.76-.69,15.45,5.43,19.09,2.84,2.1-1.49,4.66-6.46-4.67-32.99-6.72-19.1-13.07-30.83-18.45-42.08-11.26-23.55-7.26-22.01-21.07-54.94-9.2-21.96-16.12-38.22-29.28-57.93-11.74-17.58-18.9-28.28-32.17-36.39-3.45-2.11-7.06-3.89-26.01-14.78-13.62-7.83-15.4-9-17.79-11.79-5.93-6.93-8.44-15.46-12.27-28.46-2.91-9.88-3.31-14.32-4.9-14.58Z"/>
    <path class="cls-4" d="m355.07,76.79c-2.88-.67-4.55,16.43-4.79,18.94-1.39,14.29.67,17.13-.92,28.34-1,7.02-2.62,11.64-5.82,20.73-3.97,11.29-6.1,13.88-9.35,22.34-.95,2.48-5.59,14.84-7.46,30.15-2.5,20.47.96,38.06,2.8,47.07,2.41,11.81,6.92,32.89,21.68,57.55,2.14,3.58,18.47,30.35,46.31,51.45,15.14,11.47,27.69,16.73,30.78,17.98,2.34.95,8.08,3.18,15.45,4.85,4.63,1.05,8.25,1.28,15.5,1.74,1.17.07,4.77,1.39,6.52-.42.25-.26.4-.42.51-.73.77-2.33-4.21-5.58-4.37-9.02-.14-3.1,2.74-2.96,4.6-6.51,2.93-5.58-1.68-10.68.74-15.91.85-1.84,4.11-3.21,10.61-5.87,7.71-3.16,11.56-4.74,14.6-4.75,8.89-.03,13.09,5.47,15.98,3.43,1.66-1.17,3.52-5.31-5.58-28.6-6.56-16.77-12.43-27.18-17.48-37.13-10.56-20.83-7.16-19.3-20.31-48.33-8.77-19.36-15.34-33.7-27.28-51.32-10.65-15.72-17.13-25.29-28.56-32.96-2.97-1.99-6.06-3.71-22.33-14.05-11.7-7.43-13.24-8.54-15.36-11.06-5.28-6.27-7.8-13.73-11.65-25.1-2.92-8.64-3.49-12.48-4.82-12.79Z"/>
    <path class="cls-6" d="m360.14,107.92c-2.47-.7-3.18,14.15-3.28,16.34-.59,12.41,1.28,14.98.39,24.71-.56,6.09-1.74,10.06-4.08,17.86-2.9,9.69-4.6,11.87-7.01,19.12-.71,2.13-4.13,12.73-5.08,26.02-1.27,17.77,2.39,33.26,4.33,41.21,2.54,10.41,7.24,29,20.78,51.14,1.97,3.22,16.93,27.26,41.42,46.83,13.32,10.64,24.19,15.75,26.86,16.97,2.02.92,6.99,3.11,13.31,4.87,3.97,1.11,7.06,1.46,13.22,2.16.99.11,4.1,1.41,5.52-.1.2-.21.33-.35.4-.62.56-2-3.81-5.05-4.08-8.06-.25-2.71,2.2-2.47,3.64-5.49,2.26-4.75-1.87-9.39-.03-13.86.64-1.57,3.36-2.63,8.76-4.69,6.41-2.44,9.61-3.66,12.19-3.55,7.54.34,11.34,5.32,13.7,3.66,1.36-.96,2.77-4.49-5.92-25.2-6.26-14.91-11.67-24.24-16.37-33.14-9.82-18.63-6.88-17.15-19.24-43.03-8.24-17.26-14.41-30.05-25.27-45.93-9.69-14.17-15.58-22.79-25.59-29.95-2.6-1.86-5.29-3.49-19.53-13.19-10.23-6.97-11.58-8-13.49-10.29-4.74-5.69-7.19-12.31-10.92-22.4-2.84-7.67-3.48-11.04-4.62-11.36Z"/>
    <path class="cls-2" d="m364.92,134.28c-2.07-.76-1.7,11.91-1.65,13.78.31,10.59,2,12.91,1.89,21.17-.07,5.18-.79,8.5-2.2,15.03-1.76,8.11-3.01,9.87-4.52,15.92-.44,1.78-2.57,10.63-2.51,21.95.09,15.13,4.07,28.62,6.16,35.55,2.74,9.07,7.76,25.28,20.25,45.1,1.81,2.88,15.59,24.41,36.88,42.72,11.57,9.95,20.8,15.02,23.06,16.23,1.71.92,5.91,3.1,11.2,5.01,3.32,1.2,5.87,1.7,10.96,2.69.82.16,3.45,1.47,4.51.27.15-.17.24-.28.29-.5.33-1.68-3.44-4.56-3.85-7.16-.38-2.34,1.64-1.97,2.63-4.47,1.55-3.92-2.13-8.16-.91-11.87.43-1.3,2.58-2.04,6.87-3.46,5.09-1.68,7.63-2.52,9.75-2.26,6.19.77,9.61,5.27,11.44,4,1.05-.73,1.98-3.67-6.45-21.95-6.07-13.16-11.09-21.49-15.5-29.41-9.22-16.57-6.72-15.11-18.48-38.06-7.84-15.3-13.71-26.64-23.6-40.92-8.83-12.74-14.2-20.5-22.85-27.27-2.25-1.76-4.55-3.32-16.82-12.53-8.82-6.62-9.99-7.59-11.69-9.67-4.24-5.17-6.66-10.99-10.36-19.86-2.81-6.74-3.55-9.67-4.5-10.02Z"/>
    <path class="cls-4" d="m369.33,152.19c-1.81-.79-.8,10.5-.65,12.16.85,9.43,2.43,11.58,2.79,18.93.23,4.6-.2,7.51-1.05,13.24-1.05,7.11-2.03,8.6-2.99,13.9-.28,1.56-1.61,9.31-.93,19.37.91,13.46,5.07,25.67,7.24,31.94,2.85,8.22,8.05,22.91,19.84,41.21,1.71,2.66,14.7,22.57,33.94,40.02,10.46,9.49,18.64,14.5,20.65,15.71,1.52.91,5.24,3.09,9.87,5.08,2.91,1.25,5.12,1.83,9.53,3,.71.19,3.03,1.49,3.87.49.12-.14.19-.23.22-.43.19-1.48-3.19-4.25-3.7-6.58-.45-2.1,1.3-1.66,2-3.83,1.11-3.4-2.27-7.37-1.43-10.6.29-1.13,2.1-1.67,5.69-2.69,4.26-1.21,6.4-1.82,8.22-1.47,5.34,1.03,8.52,5.22,10.02,4.19.86-.59,1.49-3.15-6.74-19.87-5.93-12.04-10.69-19.72-14.9-27-8.81-15.24-6.59-13.81-17.93-34.86-7.56-14.04-13.21-24.45-22.48-37.69-8.26-11.82-13.29-19.01-21.07-25.51-2.02-1.69-4.08-3.21-15.09-12.07-7.92-6.37-8.97-7.3-10.55-9.24-3.92-4.83-6.31-10.14-9.97-18.23-2.78-6.15-3.57-8.8-4.41-9.16Z"/>
    <path class="cls-6" d="m376.02,174.35c-1.52-.77-.07,8.84.14,10.25,1.21,8.03,2.61,9.93,3.31,16.17.44,3.9.25,6.34-.13,11.14-.47,5.96-1.18,7.17-1.67,11.6-.14,1.3-.8,7.79.31,16.34,1.48,11.43,5.53,22,7.64,27.42,2.77,7.11,7.8,19.82,18.4,35.95,1.54,2.34,13.19,19.9,29.8,35.72,9.03,8.6,15.96,13.29,17.66,14.42,1.29.86,4.43,2.9,8.31,4.84,2.44,1.22,4.26,1.83,7.92,3.06.59.2,2.55,1.43,3.18.62.09-.11.15-.19.15-.35.07-1.24-2.83-3.77-3.37-5.77-.48-1.8.96-1.34,1.42-3.13.71-2.82-2.25-6.36-1.75-9.05.18-.94,1.61-1.3,4.48-1.97,3.4-.79,5.1-1.19,6.61-.79,4.4,1.16,7.22,4.88,8.38,4.09.67-.45,1.04-2.58-6.57-17.18-5.48-10.51-9.78-17.27-13.6-23.66-8.01-13.38-6.12-12.04-16.5-30.47-6.92-12.29-12.09-21.4-20.35-33.12-7.37-10.45-11.86-16.81-18.54-22.73-1.74-1.54-3.5-2.94-12.94-11.04-6.79-5.83-7.7-6.67-9.09-8.4-3.45-4.3-5.69-8.93-9.11-15.97-2.6-5.36-3.39-7.64-4.09-7.99Z"/>
    <path class="cls-2" d="m384.89,197.92c-1.25-.74.58,7.31.84,8.49,1.52,6.73,2.76,8.41,3.75,13.61.62,3.26.65,5.27.69,9.21.06,4.9-.42,5.85-.48,9.48-.02,1.07-.07,6.39,1.41,13.54,1.98,9.57,5.92,18.6,7.97,23.24,2.68,6.08,7.55,16.96,17.02,31.07,1.38,2.05,11.78,17.41,25.96,31.69,7.71,7.76,13.48,12.14,14.89,13.2,1.07.8,3.68,2.72,6.87,4.6,2,1.18,3.48,1.82,6.44,3.1.48.21,2.1,1.37,2.54.74.06-.09.1-.14.1-.28-.03-1.02-2.49-3.32-3.06-5.01-.51-1.52.66-1.04.89-2.49.36-2.28-2.22-5.42-2.02-7.61.07-.77,1.17-.96,3.38-1.31,2.61-.41,3.92-.62,5.13-.18,3.54,1.28,6.02,4.56,6.87,3.99.49-.33.63-2.06-6.39-14.69-5.06-9.09-8.91-14.99-12.37-20.55-7.24-11.64-5.67-10.4-15.13-26.4-6.31-10.66-11.02-18.58-18.35-28.86-6.53-9.17-10.51-14.76-16.19-20.14-1.47-1.4-2.96-2.68-10.95-10.06-5.75-5.31-6.52-6.07-7.74-7.6-3.02-3.81-5.11-7.79-8.3-13.87-2.42-4.62-3.21-6.56-3.78-6.9Z"/>
    <path class="cls-4" d="m395.17,218.92c-1.04-.7.9,6.15,1.18,7.15,1.62,5.72,2.71,7.2,3.82,11.61.69,2.76.83,4.44,1.11,7.74.34,4.1.02,4.86.18,7.9.05.89.32,5.34,1.94,11.41,2.16,8.12,5.85,15.91,7.77,19.91,2.51,5.25,7.06,14.64,15.49,27,1.23,1.8,10.48,15.27,22.69,28.06,6.64,6.95,11.52,10.96,12.72,11.93.91.73,3.11,2.49,5.78,4.26,1.67,1.11,2.9,1.73,5.34,2.98.39.2,1.77,1.27,2.08.77.04-.07.07-.11.06-.23-.09-.85-2.2-2.93-2.75-4.38-.5-1.3.47-.83.56-2.03.15-1.89-2.11-4.67-2.07-6.49.01-.64.88-.73,2.63-.89,2.07-.19,3.1-.28,4.1.15,2.91,1.28,5.09,4.17,5.74,3.75.37-.24.38-1.69-5.99-12.67-4.59-7.9-8.04-13.07-11.14-17.93-6.5-10.17-5.16-9.04-13.7-22.98-5.69-9.3-9.94-16.2-16.42-25.24-5.78-8.06-9.3-12.97-14.17-17.81-1.26-1.26-2.53-2.42-9.37-9.07-4.92-4.78-5.59-5.46-6.65-6.82-2.64-3.37-4.56-6.82-7.47-12.1-2.22-4.01-2.96-5.68-3.44-6Z"/>
    <path class="cls-1" d="m451.18,399.08c-.25-.56,1.87-1.31,2.88-3.4,1.93-3.99-2.89-7.18-2.23-12.06.56-4.15,4.47-4.93,7.77-9.55,5.46-7.63-.11-12.58,3.2-21.11,0,0,7.51-17.67,40.73-21.68,2.83-.34,5.27-.2,5.27-.2,4.11.25,4.68,1.24,7.94,1.56,5.65.55,8.09-2.03,10.55-.39,1.26.84,1.84,2.34,2.12,4.66.69,5.78-.07,20.44-11.58,29.86-5.74,4.71-12.51,6.84-12.51,6.84-4.42,1.4-6.5,1.07-11.09,3.29-2.42,1.17-7.61,3.69-8.1,7.3-.3,2.24,1.41,3.28.65,4.5-1.17,1.9-5.33-.49-9.35,1.99-1.99,1.23-3.94,3.64-4.89,6.15-.75,1.96-.54,3.08-1.41,3.55-1.46.8-3.12-1.73-6.2-2.86-6.09-2.23-13.26,2.62-13.76,1.54Z"/>
    <path class="cls-5" d="m492.1,375.5c3.76-2.97,7.79-3.72,8.82-3.89,3.65-.59,4.86.39,6.64-.91,1.66-1.21,1.21-2.5,3.41-5.24,1.17-1.46,2.87-3.58,4.7-3.51,2.1.08,3.55,2.98,3.88,5.2.78,5.16-4,9.68-4.29,9.95-3.27,3.01-5.13,1.84-8.17,4.75-3.34,3.19-1.9,5.35-4.94,9.08-2.92,3.58-6.91,4.87-12.58,6.7-4.81,1.55-8.41,1.78-11.7,1.99-4.82.31-7.22.46-7.94-.82-1.27-2.27,2.74-8.48,7.46-9.62,3.37-.82,5.41,1.36,7.29-.05,1.64-1.23.54-3.22,2.12-6.98,1.52-3.62,4.25-5.83,5.29-6.65Z"/>
  </g>
  <g>
    <path class="cls-6" d="m11.23,202.04c-2.76,3.02,12.72,21.31,15,24,12.94,15.28,17.21,15.36,27,28,6.13,7.91,9.45,14.35,16,27,8.13,15.71,9.1,20.88,15,33,1.73,3.56,10.42,21.14,24,38,18.17,22.55,37.86,34.8,48,41,13.29,8.12,37.16,22.36,72,27,5.06.67,43.11,5.32,84-10,22.23-8.33,36.53-19.27,40-22,2.63-2.07,8.99-7.23,16-15,4.4-4.88,7.27-9.25,13-18,.92-1.41,4.83-4.73,4.34-8.67-.07-.56-.11-.91-.34-1.33-1.72-3.18-8.52.05-12-3-3.13-2.75-.89-6.27-3-12-3.31-9-11.65-7.98-15-16-1.18-2.82-.13-8.25,2-19,2.53-12.76,3.8-19.14,6-23,6.45-11.29,14.89-11.42,15-17,.07-3.22-2.62-9.49-32-20-21.16-7.56-35.6-9.97-49-13-28.04-6.34-24.07-9.19-62-20-25.29-7.21-44.09-12.45-70-14-23.11-1.38-37.19-2.23-53,5-4.11,1.88-8.04,4.17-30,15-15.79,7.79-17.99,8.69-22,9-9.97.76-19.09-3.11-33-9-10.57-4.48-14.73-7.39-16-6Z"/>
    <path class="cls-2" d="m36.52,221.99c-2.52,2.42,11.62,17.05,13.7,19.2,11.81,12.22,15.72,12.29,24.66,22.4,5.6,6.33,8.64,11.47,14.61,21.6,7.42,12.57,8.32,16.7,13.7,26.39,1.58,2.85,9.51,16.91,21.92,30.39,16.59,18.03,34.58,27.84,43.84,32.79,12.14,6.49,33.94,17.88,65.76,21.6,4.62.54,39.37,4.25,76.72-8,20.31-6.66,33.36-15.41,36.53-17.6,2.4-1.65,8.21-5.79,14.61-12,4.02-3.9,6.64-7.4,11.87-14.4.84-1.13,4.41-3.79,3.97-6.93-.06-.45-.1-.73-.31-1.07-1.57-2.55-7.79.04-10.96-2.4-2.86-2.2-.82-5.01-2.74-9.6-3.02-7.2-10.64-6.38-13.7-12.8-1.07-2.25-.12-6.6,1.83-15.2,2.31-10.21,3.47-15.31,5.48-18.4,5.89-9.03,13.6-9.13,13.7-13.6.06-2.58-2.39-7.59-29.23-16-19.32-6.05-32.52-7.98-44.75-10.4-25.61-5.07-21.98-7.35-56.63-16-23.1-5.77-40.27-9.96-63.94-11.2-21.11-1.11-33.96-1.78-48.41,4-3.76,1.5-7.34,3.33-27.4,12-14.42,6.23-16.43,6.95-20.09,7.2-9.1.61-17.44-2.48-30.14-7.2-9.65-3.58-13.45-5.91-14.61-4.8Z"/>
    <path class="cls-4" d="m66.49,239.2c-2.26,1.91,10.44,13.47,12.31,15.17,10.62,9.66,14.13,9.71,22.16,17.7,5.03,5,7.76,9.07,13.13,17.07,6.67,9.93,7.47,13.2,12.31,20.86,1.42,2.25,8.55,13.36,19.69,24.02,14.91,14.25,31.07,22,39.39,25.92,10.91,5.13,30.5,14.13,59.08,17.07,4.15.43,35.37,3.36,68.93-6.32,18.25-5.27,29.97-12.18,32.82-13.91,2.16-1.31,7.38-4.57,13.13-9.48,3.61-3.08,5.96-5.85,10.67-11.38.76-.89,3.96-2.99,3.56-5.48-.06-.35-.09-.57-.28-.84-1.41-2.01-6.99.03-9.85-1.9-2.57-1.74-.73-3.96-2.46-7.59-2.72-5.69-9.56-5.04-12.31-10.11-.96-1.78-.11-5.21,1.64-12.01,2.08-8.07,3.12-12.1,4.92-14.54,5.29-7.14,12.22-7.22,12.31-10.75.05-2.04-2.15-6-26.26-12.64-17.36-4.78-29.22-6.3-40.21-8.22-23.01-4.01-19.75-5.81-50.88-12.64-20.75-4.56-36.18-7.87-57.44-8.85-18.97-.88-30.52-1.41-43.49,3.16-3.37,1.19-6.6,2.63-24.62,9.48-12.95,4.92-14.76,5.5-18.05,5.69-8.18.48-15.67-1.96-27.08-5.69-8.67-2.83-12.09-4.67-13.13-3.79Z"/>
    <path class="cls-6" d="m94.47,253.76c-2.04,1.56,9.44,11.01,11.13,12.4,9.6,7.9,12.77,7.94,20.03,14.47,4.54,4.09,7.01,7.41,11.87,13.95,6.03,8.12,6.75,10.79,11.13,17.06,1.28,1.84,7.73,10.93,17.8,19.64,13.48,11.65,28.08,17.99,35.61,21.19,9.86,4.2,27.57,11.56,53.41,13.95,3.76.35,31.98,2.75,62.31-5.17,16.49-4.3,27.09-9.96,29.67-11.37,1.95-1.07,6.67-3.74,11.87-7.75,3.27-2.52,5.39-4.78,9.64-9.3.68-.73,3.58-2.45,3.22-4.48-.05-.29-.08-.47-.25-.69-1.27-1.65-6.32.03-8.9-1.55-2.32-1.42-.66-3.24-2.23-6.2-2.46-4.65-8.64-4.12-11.13-8.27-.87-1.46-.1-4.26,1.48-9.82,1.88-6.6,2.82-9.89,4.45-11.89,4.78-5.84,11.04-5.9,11.13-8.79.05-1.66-1.94-4.91-23.74-10.34-15.69-3.91-26.41-5.15-36.35-6.72-20.8-3.28-17.85-4.75-45.99-10.34-18.76-3.73-32.71-6.43-51.92-7.24-17.14-.72-27.58-1.15-39.31,2.58-3.05.97-5.96,2.15-22.25,7.75-11.71,4.03-13.34,4.49-16.32,4.65-7.39.39-14.16-1.61-24.48-4.65-7.84-2.31-10.93-3.82-11.87-3.1Z"/>
    <path class="cls-2" d="m118.44,265.71c-1.85,1.2,8.53,8.49,10.05,9.56,8.67,6.09,11.54,6.12,18.09,11.16,4.11,3.15,6.34,5.72,10.72,10.76,5.45,6.26,6.1,8.32,10.05,13.15,1.16,1.42,6.98,8.42,16.08,15.14,12.18,8.98,25.37,13.87,32.17,16.34,8.91,3.23,24.9,8.91,48.25,10.76,3.39.27,28.89,2.12,56.29-3.98,14.9-3.32,24.48-7.68,26.81-8.77,1.76-.82,6.03-2.88,10.72-5.98,2.95-1.94,4.87-3.69,8.71-7.17.62-.56,3.24-1.89,2.91-3.45-.05-.22-.08-.36-.23-.53-1.15-1.27-5.71.02-8.04-1.2-2.1-1.1-.6-2.5-2.01-4.78-2.22-3.59-7.81-3.18-10.05-6.38-.79-1.12-.09-3.29,1.34-7.57,1.7-5.08,2.54-7.63,4.02-9.16,4.32-4.5,9.98-4.55,10.05-6.77.04-1.28-1.75-3.78-21.44-7.97-14.18-3.01-23.86-3.97-32.84-5.18-18.79-2.52-16.13-3.66-41.55-7.97-16.95-2.87-29.55-4.96-46.91-5.58-15.49-.55-24.92-.89-35.52,1.99-2.76.75-5.39,1.66-20.1,5.98-10.58,3.1-12.06,3.46-14.74,3.59-6.68.3-12.79-1.24-22.11-3.59-7.08-1.78-9.87-2.95-10.72-2.39Z"/>
    <path class="cls-4" d="m135.43,272.89c-1.72.98,7.93,6.92,9.35,7.79,8.07,4.96,10.73,4.99,16.84,9.09,3.82,2.57,5.9,4.66,9.98,8.76,5.07,5.1,5.68,6.78,9.35,10.71,1.08,1.16,6.49,6.86,14.96,12.34,11.33,7.32,23.61,11.3,29.93,13.31,8.29,2.64,23.17,7.26,44.89,8.76,3.16.22,26.88,1.73,52.38-3.25,13.86-2.7,22.77-6.26,24.94-7.14,1.64-.67,5.61-2.35,9.98-4.87,2.74-1.58,4.53-3,8.11-5.84.57-.46,3.01-1.54,2.71-2.81-.04-.18-.07-.3-.21-.43-1.07-1.03-5.31.02-7.48-.97-1.95-.89-.56-2.04-1.87-3.9-2.06-2.92-7.27-2.59-9.35-5.19-.73-.91-.08-2.68,1.25-6.17,1.58-4.14,2.37-6.21,3.74-7.47,4.02-3.67,9.28-3.71,9.35-5.52.04-1.05-1.63-3.08-19.95-6.49-13.19-2.46-22.2-3.24-30.55-4.22-17.48-2.06-15.01-2.98-38.66-6.49-15.77-2.34-27.49-4.04-43.65-4.54-14.41-.45-23.19-.72-33.05,1.62-2.56.61-5.01,1.35-18.71,4.87-9.84,2.53-11.22,2.82-13.72,2.92-6.22.25-11.9-1.01-20.58-2.92-6.59-1.45-9.19-2.4-9.98-1.95Z"/>
    <path class="cls-6" d="m157.19,280.79c-1.52.76,7.04,5.35,8.3,6.02,7.15,3.83,9.52,3.85,14.93,7.02,3.39,1.98,5.23,3.6,8.85,6.77,4.49,3.94,5.03,5.24,8.3,8.28.96.89,5.76,5.3,13.27,9.53,10.05,5.65,20.94,8.73,26.54,10.28,7.35,2.04,20.55,5.61,39.82,6.77,2.8.17,23.84,1.33,46.45-2.51,12.3-2.09,20.2-4.83,22.12-5.52,1.45-.52,4.97-1.81,8.85-3.76,2.43-1.22,4.02-2.32,7.19-4.51.51-.35,2.67-1.19,2.4-2.17-.04-.14-.06-.23-.19-.33-.95-.8-4.71.01-6.64-.75-1.73-.69-.49-1.57-1.66-3.01-1.83-2.26-6.44-2-8.3-4.01-.65-.71-.07-2.07,1.11-4.77,1.4-3.2,2.1-4.8,3.32-5.77,3.57-2.83,8.23-2.86,8.3-4.26.04-.81-1.45-2.38-17.7-5.02-11.7-1.9-19.69-2.5-27.1-3.26-15.51-1.59-13.31-2.3-34.29-5.02-13.99-1.81-24.38-3.12-38.71-3.51-12.78-.35-20.56-.56-29.31,1.25-2.27.47-4.45,1.05-16.59,3.76-8.73,1.95-9.95,2.18-12.17,2.26-5.51.19-10.56-.78-18.25-2.26-5.84-1.12-8.15-1.85-8.85-1.5Z"/>
    <path class="cls-2" d="m181.38,287.78c-1.34.55,6.2,3.91,7.31,4.4,6.3,2.8,8.39,2.82,13.15,5.14,2.98,1.45,4.61,2.63,7.8,4.95,3.96,2.88,4.44,3.83,7.31,6.05.84.65,5.07,3.88,11.69,6.97,8.85,4.14,18.44,6.39,23.39,7.52,6.48,1.49,18.1,4.1,35.08,4.95,2.47.12,21,.98,40.92-1.83,10.83-1.53,17.79-3.54,19.49-4.04,1.28-.38,4.38-1.33,7.8-2.75,2.14-.89,3.54-1.7,6.33-3.3.45-.26,2.35-.87,2.12-1.59-.03-.1-.06-.17-.17-.24-.84-.58-4.15,0-5.85-.55-1.52-.5-.43-1.15-1.46-2.2-1.61-1.65-5.68-1.46-7.31-2.94-.57-.52-.06-1.51.97-3.49,1.23-2.34,1.85-3.51,2.92-4.22,3.14-2.07,7.25-2.1,7.31-3.12.03-.59-1.27-1.74-15.59-3.67-10.31-1.39-17.35-1.83-23.87-2.39-13.66-1.16-11.73-1.69-30.21-3.67-12.32-1.32-21.48-2.28-34.1-2.57-11.26-.25-18.12-.41-25.82.92-2,.34-3.92.76-14.62,2.75-7.69,1.43-8.76,1.6-10.72,1.65-4.86.14-9.3-.57-16.08-1.65-5.15-.82-7.18-1.36-7.8-1.1Z"/>
    <path class="cls-4" d="m204.37,292.12c-1.18.42,5.46,2.96,6.44,3.33,5.55,2.12,7.39,2.13,11.59,3.89,2.63,1.1,4.06,1.99,6.87,3.75,3.49,2.18,3.91,2.9,6.44,4.58.74.49,4.47,2.93,10.3,5.27,7.8,3.13,16.25,4.83,20.6,5.69,5.7,1.13,15.95,3.1,30.9,3.75,2.17.09,18.5.74,36.06-1.39,9.54-1.16,15.68-2.67,17.17-3.05,1.13-.29,3.86-1,6.87-2.08,1.89-.68,3.12-1.28,5.58-2.5.4-.2,2.07-.66,1.86-1.2-.03-.08-.05-.13-.15-.19-.74-.44-3.66,0-5.15-.42-1.34-.38-.38-.87-1.29-1.67-1.42-1.25-5-1.11-6.44-2.22-.5-.39-.06-1.14.86-2.64,1.09-1.77,1.63-2.66,2.58-3.19,2.77-1.57,6.39-1.58,6.44-2.36.03-.45-1.12-1.32-13.74-2.78-9.08-1.05-15.28-1.38-21.03-1.8-12.04-.88-10.33-1.28-26.61-2.78-10.86-1-18.93-1.73-30.05-1.94-9.92-.19-15.96-.31-22.75.69-1.76.26-3.45.58-12.88,2.08-6.78,1.08-7.72,1.21-9.44,1.25-4.28.11-8.19-.43-14.16-1.25-4.54-.62-6.32-1.03-6.87-.83Z"/>
    <path class="cls-1" d="m382.23,355.04c-.6-.13.07-2.28-1-4.34-2.04-3.93-7.49-1.98-11-5.43-2.99-2.93-1.28-6.53-3-11.94-2.84-8.94-10.15-7.44-15-15.2,0,0-9.66-16.59,7-45.6,1.42-2.47,3-4.34,3-4.34,2.66-3.14,3.8-3.01,6-5.43,3.83-4.2,3.22-7.7,6-8.69,1.43-.5,2.98-.08,5,1.09,5.05,2.9,16.33,12.29,17,27.14.33,7.42-2,14.12-2,14.12-1.53,4.38-3.04,5.85-4,10.86-.51,2.64-1.6,8.3,1,10.86,1.61,1.58,3.47.83,4,2.17.82,2.08-3.58,3.98-4,8.69-.21,2.33.56,5.33,2,7.6,1.12,1.77,2.14,2.28,2,3.26-.23,1.64-3.25,1.46-6,3.26-5.43,3.54-5.84,12.2-7,11.94Z"/>
    <path class="cls-5" d="m387.82,308.14c-.13-4.79,1.68-8.47,2.16-9.39,1.71-3.28,3.22-3.66,3.24-5.87.02-2.06-1.28-2.46-2.16-5.87-.47-1.81-1.15-4.44,0-5.87,1.32-1.64,4.51-1.06,6.49,0,4.6,2.46,5.37,9,5.41,9.39.46,4.42-1.59,5.21-1.08,9.39.56,4.58,3.15,4.72,4.32,9.39,1.13,4.48-.23,8.45-2.16,14.09-1.64,4.78-3.61,7.81-5.41,10.57-2.63,4.04-3.95,6.06-5.41,5.87-2.57-.34-5.15-7.27-3.24-11.74,1.36-3.19,4.33-3.52,4.32-5.87,0-2.05-2.26-2.36-4.32-5.87-1.99-3.39-2.13-6.89-2.16-8.22Z"/>
  </g>
</svg>