<?xml version="1.0" encoding="UTF-8"?>
<svg id="Layer_1" data-name="Layer 1" xmlns="http://www.w3.org/2000/svg" viewBox="0 0 592.16 660.79">
  <defs>
    <style>
      .cls-1 {
        fill: #fffeec;
      }

      .cls-2, .cls-3 {
        fill: #fff;
      }

      .cls-4 {
        fill: #aab0a4;
      }

      .cls-5 {
        fill: #e2dfd0;
      }

      .cls-6 {
        fill: #d8572a;
      }

      .cls-7 {
        fill: #f7b538;
      }

      .cls-7, .cls-3 {
        font-family: JotiOne-Regular, 'Joti One';
        font-size: 102.09px;
      }

      .cls-3 {
        stroke: #fff;
        stroke-miterlimit: 10;
        stroke-width: 23.72px;
      }
    </style>
  </defs>
  <g>
    <path class="cls-2" d="m14.33,629.07c-9.77-22.24,12.52-41.67,19.53-78.13,2.91-15.12.69-20.18-2.79-57.2-2.08-22.1-3.25-55.19-5.58-121.37-1.94-55.03-2.88-83.18-1.4-114.4,1.29-27.18,2.16-45.48,5.58-71.15,3.38-25.37,5.99-33.52,6.98-55.8,1.29-29.24,1.94-43.86-5.58-59.99-8.59-18.42-20.37-23.79-18.14-34.88,2.61-12.93,21.39-19.21,26.51-20.93,28.35-9.49,47.35,3.51,82.31,8.37,7.05.98,8.09.7,73.94-4.19,99.51-7.39,108.02-7.57,121.37-6.98,39.73,1.76,80.92,8.37,80.92,8.37,6.96,1.12,31.67,5.19,64.17,8.37,23.64,2.31,28.42,1.9,32.09,1.4,25.19-3.44,32-15.7,51.62-13.95,2.42.22,22.96,2.04,27.9,13.95,5.79,13.96-16.21,26.51-23.72,55.8-5.08,19.81-.52,35.51,2.79,50.22,4.69,20.87,6.38,59.02,9.77,135.32,1.63,36.81,4.49,101.31-4.19,164.62-.8,5.84-2.39,18.31-5.58,43.25-8.65,67.68-8.72,71.35-6.98,78.13,9.17,35.62,40.12,46.73,33.48,65.57-4.04,11.45-18.83,16.86-22.32,18.14-11.77,4.3-22.37,2.2-33.48,0-15.16-3-15.55-6.46-26.51-8.37-14.99-2.62-22.97,2.33-43.25,6.98-9.99,2.29-22.94,3.39-48.83,5.58-18.78,1.59-38.55,2.57-64.17,2.79-93.49.79-151.02,1.28-206.48-12.56-14.93-3.73-26.33-7.65-43.25-5.58-29.67,3.62-45.65,21.92-62.78,13.95-9.06-4.21-13.04-13.26-13.95-15.35Z"/>
    <path class="cls-2" d="m284.24,660.79c-63.22,0-108.15-2.1-152.8-13.24-1.98-.49-3.9-.99-5.78-1.48-12.01-3.11-20.68-5.36-33.16-3.84-11.21,1.37-20.2,5.15-28.89,8.8-12.71,5.34-25.86,10.86-40.33,4.14-8.58-3.99-15.43-11.37-19.81-21.33h0c-7.9-18-.86-33.7,6.59-50.33,4.48-9.99,9.56-21.31,12.15-34.81,1.8-9.34,1.31-13.74-.49-30.1-.68-6.15-1.52-13.8-2.46-23.74-2.11-22.45-3.29-55.73-5.62-122.03-1.89-53.57-2.93-83.06-1.39-115.42,1.32-27.69,2.19-45.98,5.67-72.15,1.16-8.73,2.23-15.44,3.18-21.35,1.79-11.23,3.09-19.34,3.71-33.41,1.24-28.12,1.81-40.96-4.48-54.45-3.04-6.52-6.65-11.25-9.84-15.42-5.41-7.07-11.54-15.09-9.17-26.82C3.94,20.77,15.51,10.73,35.68,3.98c22.32-7.47,40.02-2.98,58.76,1.77,8.89,2.26,18.09,4.59,28.95,6.1,4.83.67,6.26.6,50.98-2.74l20.45-1.52C295.25.13,303.72-.03,317.59.59c39.96,1.77,80.56,8.23,82.27,8.51l1.02.16c7.84,1.26,31.71,5.11,62.43,8.11,23.29,2.28,27.07,1.76,29.33,1.45,9.98-1.36,16.61-4.36,23.02-7.26,8.67-3.92,17.63-7.97,31.26-6.76,9.05.81,30.86,4.49,37.8,21.22,5.5,13.24-2.17,24.67-8.94,34.74-5.25,7.82-11.2,16.69-14.24,28.55-3.91,15.26-1.06,27.61,1.96,40.68.31,1.34.62,2.67.91,4,4.92,21.9,6.63,60.5,10.04,137.4,1.7,38.3,4.54,102.39-4.28,166.76-.8,5.84-2.49,19.09-5.57,43.14-7.95,62.2-8.44,69.05-7.25,73.67,3.82,14.85,12.3,24.93,19.78,33.83,8.92,10.61,19.04,22.64,13.4,38.63-2.69,7.63-9.98,18.22-29.43,25.33-14.88,5.44-28.15,2.81-39.85.5-9.31-1.84-14.07-3.95-17.9-5.63-2.88-1.27-4.61-2.04-8.35-2.69-8.09-1.41-13.17.02-23.3,2.87-4.33,1.22-9.24,2.6-15.26,3.98-10.8,2.48-24.05,3.6-50.45,5.84-20.71,1.76-40.78,2.63-65.1,2.83-20.5.17-39.27.33-56.64.33Zm-183.99-42.76c11.75,0,21.33,2.48,31.35,5.08,1.81.47,3.66.95,5.57,1.43,53.99,13.47,110.27,13,203.5,12.2,23.7-.2,43.21-1.05,63.27-2.75,25.31-2.15,38.01-3.22,47.18-5.32,5.45-1.25,10.06-2.55,14.13-3.69,11.4-3.21,20.4-5.74,33.81-3.4,6.59,1.15,10.44,2.85,13.85,4.35,3.18,1.41,6.19,2.73,12.92,4.07,10.32,2.04,18.46,3.66,27.11.5,12.09-4.42,14.7-9.49,15.21-10.94,1.03-2.91-2.01-6.96-9.18-15.49-8.2-9.75-19.43-23.12-24.6-43.18-2.32-9.02-2.28-12.36,6.7-82.58,3.18-24.9,4.78-37.4,5.59-43.35,8.53-62.24,5.75-124.99,4.09-162.48-3.35-75.51-5.03-113.41-9.49-133.26-.29-1.28-.58-2.57-.88-3.86-3.36-14.56-7.17-31.05-1.82-51.91,4.05-15.81,11.84-27.41,17.53-35.88,2.75-4.09,7.34-10.94,6.72-12.43-1.05-2.54-8.23-5.82-18-6.69-7.42-.66-11.93,1.37-19.39,4.75-7.21,3.26-16.19,7.31-29.57,9.14-4.98.68-10.71,1.02-34.85-1.34-31.46-3.07-55.87-7.01-63.9-8.3l-1-.16c-.41-.06-41.01-6.53-79.56-8.23-12.52-.55-21.19-.38-119.97,6.95l-20.44,1.52c-47.62,3.55-48.53,3.62-56.01,2.58-12.15-1.69-22.44-4.3-31.52-6.6-17.23-4.37-29.68-7.53-45.4-2.27-16.56,5.54-18.44,10.99-18.65,12.03-.22,1.1,1.65,3.65,4.76,7.72,3.53,4.62,8.37,10.95,12.5,19.8,8.75,18.76,8.01,35.37,6.68,65.52-.68,15.42-2.14,24.55-3.98,36.1-.92,5.77-1.96,12.32-3.09,20.74-3.35,25.17-4.2,43.06-5.49,70.15-1.43,30.1-.61,56.52,1.4,113.42,2.32,65.88,3.49,98.93,5.54,120.68.92,9.75,1.75,17.3,2.42,23.36,1.9,17.21,2.68,24.33.21,37.19-3.12,16.21-9.04,29.42-13.8,40.03-6.7,14.93-10.03,23.1-6.52,31.08l-10.86,4.77,10.86-4.77c2.55,5.81,5.81,8.3,8.09,9.36,4.5,2.1,9.64.34,21.14-4.5,9.23-3.88,20.72-8.7,35.2-10.47,3.76-.46,7.28-.66,10.63-.66Z"/>
  </g>
  <g>
    <path class="cls-2" d="m20.9,622.92c-9.54-21.73,12.23-40.72,19.08-76.34,2.84-14.77.68-19.72-2.73-55.89-2.03-21.6-3.17-53.93-5.45-118.6-1.9-53.77-2.82-81.27-1.36-111.78,1.28-26.96,2.85-47.23,3.69-54.92.26-2.37.76-6.45,1.76-14.61,5.97-48.73,6.47-46.63,6.82-54.53,1.26-28.57,1.9-42.86-5.45-58.62-8.39-18-19.91-23.25-17.72-34.08,2.55-12.63,20.9-18.77,25.9-20.45,27.7-9.27,46.27,3.43,80.43,8.18,6.88.96,7.9.69,72.25-4.09,97.24-7.22,105.55-7.39,118.6-6.82,38.82,1.72,79.07,8.18,79.07,8.18,6.8,1.09,30.94,5.08,62.71,8.18,23.1,2.26,27.77,1.85,31.35,1.36,24.61-3.36,31.27-15.34,50.44-13.63,2.36.21,22.44,2,27.26,13.63,5.66,13.64-15.84,25.9-23.17,54.53-4.96,19.36-.5,34.7,2.73,49.07,4.58,20.39,6.24,57.67,9.54,132.23,1.59,35.97,4.39,99-4.09,160.86-.78,5.7-2.34,17.89-5.45,42.26-8.45,66.13-8.52,69.72-6.82,76.34,8.96,34.8,39.21,45.66,32.72,64.07-3.94,11.19-18.4,16.48-21.81,17.72-11.5,4.2-21.86,2.15-32.72,0-14.81-2.93-15.19-6.31-25.9-8.18-14.65-2.56-22.44,2.28-42.26,6.82-9.77,2.24-22.41,3.31-47.71,5.45-18.35,1.56-37.67,2.51-62.71,2.73-91.35.77-147.56,1.25-201.75-12.27-14.59-3.64-25.73-7.47-42.26-5.45-28.99,3.54-44.61,21.41-61.34,13.63-8.85-4.12-12.74-12.96-13.63-15Z"/>
    <path class="cls-2" d="m284.64,654.18c-61.79,0-105.72-2.05-149.38-12.95-1.94-.48-3.81-.97-5.65-1.45-11.7-3.03-20.16-5.23-32.3-3.74-10.92,1.33-19.68,5.01-28.16,8.58-12.48,5.24-25.38,10.66-39.62,4.04-8.45-3.93-15.19-11.18-19.49-20.98h0c-7.77-17.7-.87-33.09,6.44-49.4,4.37-9.75,9.32-20.8,11.85-33.95,1.75-9.08,1.27-13.37-.49-29.33-.66-6.01-1.49-13.49-2.4-23.21-2.06-21.94-3.21-54.45-5.49-119.22-1.85-52.39-2.86-81.21-1.36-112.84,1.24-26.13,2.82-47.17,3.75-55.65.27-2.42.76-6.48,1.75-14.57l.02-.18c3.07-25.12,4.73-36.94,5.61-43.29.83-5.96.98-7.03,1.13-10.32,1.21-27.43,1.77-39.95-4.35-53.08-2.96-6.34-6.48-10.95-9.59-15.01-5.32-6.96-11.35-14.84-9.01-26.42,2.59-12.84,13.95-22.71,33.76-29.35,21.89-7.33,39.22-2.93,57.57,1.73,8.68,2.2,17.66,4.48,28.26,5.95,4.7.65,6.09.58,49.76-2.68l19.98-1.49c98.15-7.29,106.42-7.44,120-6.84,20.44.9,41.2,3.11,55.01,4.81,7.81.96,14.28,1.86,18.33,2.44,2.23.32,3.99.59,5.19.77l1.39.21c.17.03.34.06.5.09h0s1.01.15,1.01.15c7.66,1.23,30.98,4.99,60.97,7.92,22.72,2.22,26.4,1.72,28.59,1.42,9.71-1.33,16.17-4.25,22.42-7.07,8.5-3.84,17.3-7.82,30.68-6.62,8.9.79,30.32,4.41,37.17,20.9,5.43,13.07-2.11,24.3-8.76,34.2-5.12,7.62-10.92,16.27-13.88,27.81-3.81,14.85-1.03,26.88,1.92,39.62.3,1.31.6,2.61.89,3.91,4.81,21.42,6.49,59.15,9.82,134.31,1.66,37.43,4.44,100.07-4.19,162.99-.79,5.74-2.44,18.67-5.44,42.15-7.76,60.73-8.25,67.41-7.09,71.88,3.72,14.45,11.98,24.28,19.28,32.95,8.77,10.43,18.7,22.24,13.14,38.02-2.65,7.51-9.81,17.93-28.92,24.92-14.62,5.35-27.62,2.77-39.09.5-9.12-1.81-13.79-3.87-17.54-5.52-2.79-1.23-4.48-1.98-8.1-2.61-7.85-1.37-12.79.02-22.64,2.8-4.24,1.19-9.04,2.54-14.93,3.89-10.59,2.43-23.54,3.52-49.36,5.71-20.21,1.71-39.83,2.57-63.61,2.77-20.04.17-38.37.33-55.34.33Zm-179.78-42.32c11.51,0,20.89,2.43,30.7,4.97,1.77.46,3.58.93,5.44,1.39,52.72,13.15,107.69,12.69,198.77,11.92,23.16-.2,42.23-1.02,61.82-2.69,24.71-2.09,37.11-3.14,46.07-5.19,5.32-1.22,9.82-2.49,13.79-3.61,11.17-3.15,19.99-5.63,33.15-3.33,6.47,1.13,10.26,2.8,13.59,4.27,3.1,1.37,6.02,2.66,12.57,3.96,10.03,1.99,17.96,3.56,26.34.5,11.71-4.28,14.21-9.14,14.7-10.53.95-2.7-2.14-6.8-8.93-14.87-8.03-9.55-19.03-22.63-24.09-42.3-2.28-8.86-2.24-12.13,6.54-80.8,3.01-23.54,4.67-36.52,5.47-42.37,8.33-60.8,5.62-122.09,3.99-158.72-3.27-73.76-4.91-110.79-9.27-130.16-.28-1.25-.57-2.5-.86-3.77-3.13-13.55-7.02-30.41-1.78-50.85,3.97-15.49,11.6-26.85,17.16-35.14,2.67-3.98,6.71-10,6.58-11.81,0,0,0-.03-.03-.09-.87-2.1-7.39-5.48-17.36-6.37-7.17-.64-11.56,1.34-18.81,4.61-7.06,3.19-15.85,7.16-28.97,8.96-4.88.67-10.5,1-34.11-1.31-30.73-3-54.6-6.85-62.44-8.11l-1.05-.17c-1.54-.24-40.4-6.39-77.65-8.03-12.22-.54-20.68-.37-117.2,6.79l-19.97,1.49c-46.56,3.47-47.45,3.54-54.79,2.52-11.89-1.65-21.95-4.2-30.82-6.46-16.79-4.26-28.93-7.34-44.21-2.22-16.37,5.48-17.92,10.94-18.04,11.55-.21,1.04,2.24,4.23,4.6,7.32,3.46,4.52,8.2,10.72,12.24,19.4,8.58,18.4,7.86,34.65,6.55,64.15-.19,4.4-.46,6.29-1.33,12.55-.88,6.28-2.51,17.97-5.56,42.9l-.02.18c-.98,7.99-1.47,12-1.72,14.29-.9,8.13-2.42,28.55-3.64,54.18-1.4,29.4-.59,55.22,1.37,110.8,2.27,64.38,3.41,96.66,5.41,117.91.9,9.53,1.71,16.9,2.36,22.83,1.86,16.84,2.63,23.81.2,36.41-3.05,15.87-8.85,28.79-13.5,39.18-6.51,14.52-9.75,22.46-6.37,30.15,2.59,5.9,5.98,8.18,7.78,9.01,4.3,2,9.28.29,20.44-4.4,9.04-3.8,20.28-8.52,34.47-10.25,3.69-.45,7.14-.65,10.43-.65Z"/>
  </g>
  <g>
    <path class="cls-2" d="m118.42,459.4c-15.96-15.47-48.66-47.17-59.46-96.41-5-22.8-3.72-48.89-1.23-101.05,1.14-24.01,1.91-40.18,4.93-62.85,2.98-22.41,5.29-29.61,6.16-49.29,1.14-25.83,1.71-38.74-4.93-52.99-7.58-16.27-18-21.02-16.02-30.81,2.31-11.42,18.89-16.97,23.41-18.49,25.04-8.38,41.83,3.1,72.71,7.39,6.22.86,7.15.62,65.31-3.7,87.9-6.53,95.42-6.68,107.21-6.16,35.1,1.55,71.48,7.39,71.48,7.39,6.15.99,27.97,4.59,56.69,7.39,20.88,2.04,25.1,1.68,28.34,1.23,22.25-3.04,28.26-13.87,45.6-12.32,2.14.19,20.28,1.81,24.65,12.32,5.12,12.33-14.32,23.42-20.95,49.29-4.49,17.5-.46,31.37,2.46,44.36,4.14,18.44,5.64,52.14,8.63,119.54,3.6,81.17,7.65,121.63-3.7,145.42-19.05,39.92-54.01,60.2-79.6,75.04-57.88,33.57-113.33,35.01-134.95,35.31-23.11.32-122.12,1.71-196.75-70.63Z"/>
    <path class="cls-2" d="m309.86,541.92c-101.77,0-164.66-40.06-199.69-74.01h0l8.25-8.51-8.26,8.51c-16.62-16.12-51.22-49.65-62.79-102.38-5.3-24.16-4.05-50.49-1.55-102.94l.06-1.21c1.17-24.5,1.94-40.68,5.02-63.85,1.03-7.73,1.98-13.66,2.81-18.9,1.58-9.88,2.71-17.01,3.26-29.36,1.09-24.61,1.58-35.84-3.83-47.46-2.62-5.62-5.63-9.56-8.54-13.36-4.96-6.48-10.57-13.83-8.36-24.81,2.43-12.04,12.95-21.25,31.27-27.38,20.1-6.73,35.93-2.71,52.68,1.54,7.82,1.98,15.91,4.04,25.42,5.36,4.13.57,5.38.5,44.78-2.43l18.03-1.34c88.79-6.59,96.29-6.73,108.62-6.18,35.37,1.56,71.32,7.29,72.83,7.53l.9.14c6.92,1.12,27.96,4.51,55.06,7.16,20.4,1.99,23.65,1.55,25.58,1.29,8.61-1.18,14.12-3.67,19.95-6.3,7.46-3.37,15.91-7.19,28.3-6.08,8.25.73,28.12,4.11,34.55,19.59,5.14,12.38-1.85,22.8-8.03,31.99-4.58,6.82-9.76,14.54-12.39,24.79-3.37,13.15-.89,23.9,1.74,35.29.27,1.19.55,2.36.81,3.53,4.37,19.46,5.89,53.6,8.9,121.61.51,11.58,1.03,22.14,1.52,32.35,3,61.66,4.65,95.62-6.37,118.7-20.63,43.23-57.46,64.59-84.35,80.19-61.74,35.81-121.19,36.64-140.73,36.91-1.83.03-3.67.04-5.48.04Zm-183.18-91.04c32.44,31.44,91.45,68.66,188.32,67.28,18-.25,72.79-1.02,129.17-33.71,24.21-14.04,57.37-33.27,74.84-69.89,8.44-17.69,6.89-49.53,4.08-107.34-.5-10.23-1.01-20.81-1.53-32.45-2.95-66.61-4.44-100.05-8.35-117.46-.25-1.12-.51-2.26-.78-3.4-2.86-12.37-6.41-27.76-1.6-46.51,3.64-14.2,10.59-24.56,15.67-32.12,2.28-3.39,5.36-7.99,5.72-9.84-.91-1.42-6.37-4.16-14.66-4.89-6.2-.55-10.05,1.19-16.44,4.07-6.45,2.91-14.48,6.54-26.5,8.19-4.49.61-9.64.92-31.1-1.18-27.83-2.72-49.43-6.2-56.53-7.35l-.88-.14c-.36-.06-36.15-5.75-70.12-7.26-11-.48-18.63-.33-105.81,6.14l-18.02,1.34c-42.24,3.15-43.05,3.21-49.8,2.27-10.81-1.5-19.94-3.82-27.99-5.86-15.55-3.95-25.83-6.55-39.32-2.03-13.96,4.67-15.43,9.09-15.55,9.55.38,1.08,2.43,3.76,3.94,5.74,3.16,4.13,7.49,9.79,11.2,17.75,7.87,16.88,7.22,31.67,6.03,58.52-.61,13.7-1.9,21.8-3.53,32.05-.81,5.09-1.73,10.86-2.72,18.29-2.95,22.18-3.7,37.96-4.84,61.85l-.06,1.21c-2.4,50.36-3.6,75.64,1.03,96.73,10.04,45.76,41.17,75.93,56.13,90.44l-8.25,8.52,8.25-8.51Z"/>
  </g>
  <g>
    <path class="cls-2" d="m31.07,193.8c-8.5,13.15-8.46,38.53-8.37,89.29.12,66.01.17,99.01,12.56,113,33.59,37.95,99.82-25.46,255.3-25.11,38.97.09,191.18.43,239.96,29.3,3.31,1.96,17.82,10.97,26.51,5.58,5.55-3.44,6.5-11.39,6.98-39.06.51-30.07,0-48.83,0-48.83-1.35-49.31-1.09-44.63-1.4-51.62-1.69-39-2.54-58.5-4.19-62.78-12.54-32.67-165.49-25.49-283.21-27.9-147.77-3.03-217.49-23.1-244.14,18.14Z"/>
    <path class="cls-2" d="m64.07,420c-14.81,0-27.28-4.29-37.69-16.06-15.35-17.35-15.41-49.78-15.53-120.84-.1-54.68-.14-79.64,10.27-95.75h0c11.33-17.53,28.83-26.72,56.74-29.81,23.9-2.64,55.14-.76,94.7,1.63,29.63,1.79,63.22,3.81,102.91,4.62,22.77.47,47.34.58,71.1.68,49.76.22,101.22.45,140.86,3.95,50.95,4.5,75.49,13.74,82.07,30.88,2.25,5.86,2.84,17.62,4.96,66.47.15,3.56.17,4.26.3,9.75.14,5.74.41,16.81,1.1,42.1.02.78.51,19.36,0,49.35-.46,26.81-.71,41.57-12.58,48.94-9.63,5.98-22.57,4.21-38.46-5.25l-.34-.2c-13.13-7.77-44.35-18.22-118.49-23.82-48.58-3.67-95.43-3.78-115.44-3.82-.42,0-.84,0-1.25,0-73.77,0-127.19,14.72-166.25,25.49-22.87,6.3-42.39,11.68-58.97,11.68Zm41.12-239.94c-35.01,0-54.15,4.69-64.16,20.18h0c-6.6,10.21-6.55,37.54-6.47,82.83.1,58.95.17,94.53,9.58,105.16,11.77,13.3,30.76,8.76,72.6-2.77,40.37-11.12,95.58-26.34,172.52-26.34.44,0,.88,0,1.32,0,129.01.29,211.76,10.7,245.97,30.95l.39.24c7.86,4.68,11.79,5.36,13.32,5.4,1.46-4.95,1.74-21.06,1.87-29.11.5-29.41,0-48.12,0-48.3-.69-25.32-.96-36.42-1.1-42.17-.13-5.41-.14-5.97-.29-9.26-1.37-31.47-2.36-54.33-3.49-59.21-.77-1.4-7.87-10.81-61.94-15.59-38.65-3.41-89.61-3.64-138.88-3.86-23.85-.1-48.52-.21-71.48-.69-40.16-.82-74-2.86-103.85-4.66-26.59-1.6-48.28-2.79-65.93-2.79Zm445.87,215.58h0Z"/>
  </g>
  <text class="cls-3" transform="translate(143.04 306.22)"><tspan x="0" y="0">SUGAR</tspan></text>
  <path class="cls-4" d="m14.21,628.73c-9.77-22.24,12.52-41.67,19.53-78.13,2.91-15.12.69-20.18-2.79-57.2-2.08-22.1-3.25-55.19-5.58-121.37-1.94-55.03-2.88-83.18-1.4-114.4,1.29-27.18,2.16-45.48,5.58-71.15,3.38-25.37,5.99-33.52,6.98-55.8,1.29-29.24,1.94-43.86-5.58-59.99-8.59-18.42-20.37-23.79-18.14-34.88,2.61-12.93,21.39-19.21,26.51-20.93,28.35-9.49,47.35,3.51,82.31,8.37,7.05.98,8.09.7,73.94-4.19,99.51-7.39,108.02-7.57,121.37-6.98,39.73,1.76,80.92,8.37,80.92,8.37,6.96,1.12,31.67,5.19,64.17,8.37,23.64,2.31,28.42,1.9,32.09,1.4,25.19-3.44,32-15.7,51.62-13.95,2.42.22,22.96,2.04,27.9,13.95,5.79,13.96-16.21,26.51-23.72,55.8-5.08,19.81-.52,35.51,2.79,50.22,4.69,20.87,6.38,59.02,9.77,135.32,1.63,36.81,4.49,101.31-4.19,164.62-.8,5.84-2.39,18.31-5.58,43.25-8.65,67.68-8.72,71.35-6.98,78.13,9.17,35.62,40.12,46.73,33.48,65.57-4.04,11.45-18.83,16.86-22.32,18.14-11.77,4.3-22.37,2.2-33.48,0-15.16-3-15.55-6.46-26.51-8.37-14.99-2.62-22.97,2.33-43.25,6.98-9.99,2.29-22.94,3.39-48.83,5.58-18.78,1.59-38.55,2.57-64.17,2.79-93.49.79-151.02,1.28-206.48-12.56-14.93-3.73-26.33-7.65-43.25-5.58-29.67,3.62-45.65,21.92-62.78,13.95-9.06-4.21-13.04-13.26-13.95-15.35Z"/>
  <path class="cls-5" d="m20.77,622.58c-9.54-21.73,12.23-40.72,19.08-76.34,2.84-14.77.68-19.72-2.73-55.89-2.03-21.6-3.17-53.93-5.45-118.6-1.9-53.77-2.82-81.27-1.36-111.78,1.28-26.96,2.85-47.23,3.69-54.92.26-2.37.76-6.45,1.76-14.61,5.97-48.73,6.47-46.63,6.82-54.53,1.26-28.57,1.9-42.86-5.45-58.62-8.39-18-19.91-23.25-17.72-34.08,2.55-12.63,20.9-18.77,25.9-20.45,27.7-9.27,46.27,3.43,80.43,8.18,6.88.96,7.9.69,72.25-4.09,97.24-7.22,105.55-7.39,118.6-6.82,38.82,1.72,79.07,8.18,79.07,8.18,6.8,1.09,30.94,5.08,62.71,8.18,23.1,2.26,27.77,1.85,31.35,1.36,24.61-3.36,31.27-15.34,50.44-13.63,2.36.21,22.44,2,27.26,13.63,5.66,13.64-15.84,25.9-23.17,54.53-4.96,19.36-.5,34.7,2.73,49.07,4.58,20.39,6.24,57.67,9.54,132.23,1.59,35.97,4.39,99-4.09,160.86-.78,5.7-2.34,17.89-5.45,42.26-8.45,66.13-8.52,69.72-6.82,76.34,8.96,34.8,39.21,45.66,32.72,64.07-3.94,11.19-18.4,16.48-21.81,17.72-11.5,4.2-21.86,2.15-32.72,0-14.81-2.93-15.19-6.31-25.9-8.18-14.65-2.56-22.44,2.28-42.26,6.82-9.77,2.24-22.41,3.31-47.71,5.45-18.35,1.56-37.67,2.51-62.71,2.73-91.35.77-147.56,1.25-201.75-12.27-14.59-3.64-25.73-7.47-42.26-5.45-28.99,3.54-44.61,21.41-61.34,13.63-8.85-4.12-12.74-12.96-13.63-15Z"/>
  <path class="cls-1" d="m118.3,459.06c-15.96-15.47-48.66-47.17-59.46-96.41-5-22.8-3.72-48.89-1.23-101.05,1.14-24.01,1.91-40.18,4.93-62.85,2.98-22.41,5.29-29.61,6.16-49.29,1.14-25.83,1.71-38.74-4.93-52.99-7.58-16.27-18-21.02-16.02-30.81,2.31-11.42,18.89-16.97,23.41-18.49,25.04-8.38,41.83,3.1,72.71,7.39,6.22.86,7.15.62,65.31-3.7,87.9-6.53,95.42-6.68,107.21-6.16,35.1,1.55,71.48,7.39,71.48,7.39,6.15.99,27.97,4.59,56.69,7.39,20.88,2.04,25.1,1.68,28.34,1.23,22.25-3.04,28.26-13.87,45.6-12.32,2.14.19,20.28,1.81,24.65,12.32,5.12,12.33-14.32,23.42-20.95,49.29-4.49,17.5-.46,31.37,2.46,44.36,4.14,18.44,5.64,52.14,8.63,119.54,3.6,81.17,7.65,121.63-3.7,145.42-19.05,39.92-54.01,60.2-79.6,75.04-57.88,33.57-113.33,35.01-134.95,35.31-23.11.32-122.12,1.71-196.75-70.63Z"/>
  <path class="cls-6" d="m30.95,193.46c-8.5,13.15-8.46,38.53-8.37,89.29.12,66.01.17,99.01,12.56,113,33.59,37.95,99.82-25.46,255.3-25.11,38.97.09,191.18.43,239.96,29.3,3.31,1.96,17.82,10.97,26.51,5.58,5.55-3.44,6.5-11.39,6.98-39.06.51-30.07,0-48.83,0-48.83-1.35-49.31-1.09-44.63-1.4-51.62-1.69-39-2.54-58.5-4.19-62.78-12.54-32.67-165.49-25.49-283.21-27.9-147.77-3.03-217.49-23.1-244.14,18.14Z"/>
  <text class="cls-7" transform="translate(142.92 305.88)"><tspan x="0" y="0">SUGAR</tspan></text>
</svg>