<?xml version="1.0" encoding="UTF-8"?>
<svg id="Layer_1" data-name="Layer 1" xmlns="http://www.w3.org/2000/svg" viewBox="0 0 1934 1438.67">
  <defs>
    <style>
      .cls-1 {
        fill: #fff;
      }

      .cls-1, .cls-2, .cls-3 {
        stroke: #fff;
        stroke-miterlimit: 10;
        stroke-width: 6px;
      }

      .cls-2 {
        fill: #db7c26;
      }

      .cls-3 {
        fill: #f7b538;
      }
    </style>
  </defs>
  <path class="cls-3" d="m622.04,500.57c-51.77,54.67-41.5,150.8,16.4,197.36,61.38,49.35,158.83,33.15,208.24-25.73,55.76-66.45,46-170.84-12.33-232.4-59.72-63.03-157.71-78.7-236.74-46.38-40.38,16.52-76.18,43.53-103.81,77.26-29.43,35.93-55.16,82.16-53.81,129.94,1.26,44.61,29.05,78.71,64.52,102.86,38.91,26.49,84.46,44.66,127.35,63.56,93.7,41.29,194.84,75.15,298.64,63.21,47.94-5.51,94.95-20.21,135.27-47.19,38.46-25.74,69.71-60.06,99.93-94.71,30.44-34.9,60.59-70.61,97.58-98.86,36.55-27.92,78.11-49.27,121.91-63.19,44.86-14.25,91.92-20.77,138.97-18.83,45.41,1.87,99.08,9.31,133.16,42.36,15.51,15.04,26.17,34.69,26.77,56.56.4,14.67,23.25,14.73,22.85,0-1.22-44.43-32.81-80.62-71.81-98.67-40.2-18.61-86.95-23.79-130.86-23.42-87.14.73-174.47,28.85-245.13,79.99-71.49,51.74-116.94,129.32-185.07,184.47-72.07,58.35-168.77,70.45-257.97,54.87-50.23-8.77-98.76-25.34-145.78-44.77-43.16-17.84-86.71-36.9-127.81-59.15-33.74-18.27-68.96-43.25-77.75-83-9.61-43.45,14.38-89.31,39.79-123,49.56-65.71,132.08-106.82,214.83-90.5,39.24,7.74,75.94,26.82,102.63,56.91,26.51,29.9,39.9,70.48,38.91,110.2-.94,37.93-15.89,75.01-44.65,100.3-27.12,23.85-64.35,35.78-100.24,33.52-34.77-2.19-67.04-19.74-85.73-49.4-17.7-28.09-23.9-63.75-15.33-95.97,4.2-15.81,11.97-30.14,23.23-42.03,10.11-10.67-6.02-26.86-16.15-16.15h0Z"/>
  <path class="cls-3" d="m1069.21,402.33c-42.04,21.22-77.87,53.29-104.42,92.12-25.1,36.7-46.73,85.21-44.52,130.59,1.13,23.33,10.39,44.99,29.37,59.17,17.85,13.34,40.79,18.25,62.72,18.71,52.64,1.1,103.6-20.46,149.65-43.82,87.72-44.5,202.93-122.45,300.04-56.47,39.83,27.06,62.48,75.82,52.1,123.62-10.25,47.2-49.78,75.45-92.17,92.77-25.93,10.6-53.02,18.2-79.78,26.36-32.9,10.04-65.8,20.07-98.69,30.11-67.01,20.44-134.03,40.89-201.04,61.33-14.02,4.28-8.04,26.34,6.07,22.03,59.7-18.21,119.41-36.43,179.11-54.64,56.88-17.35,114.23-33.61,170.67-52.33,42.27-14.02,86-32.65,114.02-68.84,30.77-39.75,34.82-94.55,13.87-139.74-19.9-42.95-61.99-73.92-107.8-83.94-54.34-11.89-109.63,3.03-159.51,24.6-49.6,21.45-95.02,51.37-144.74,72.57-24.82,10.58-51.13,19.14-78.02,22.29-21.97,2.57-46.36,2.34-66.24-8.63-49.64-27.38-20.61-101.88-.29-139.69,25.07-46.63,63.88-84.58,111.14-108.43,13.13-6.63,1.58-26.34-11.53-19.73h0Z"/>
  <path class="cls-3" d="m1304.17,310.47c-17.06-7.2-36.55-1.82-50.31,9.77-15.28,12.88-21.4,32.69-19.07,52.2,4.62,38.7,36.6,68.52,72.92,78.81,35.79,10.14,75.17,1.82,102-24.4,26.24-25.65,38.75-64.86,30.92-100.84-17.94-82.44-119-112.38-191.38-90.52-80.1,24.19-131.69,105.81-119.74,188.59,11.37,78.74,75.78,140.44,144.71,173.58,42.63,20.5,88.44,32.98,134.37,43.56,45.57,10.49,92.29,18.43,136.61,33.66,37.3,12.82,74.13,34.1,90.24,71.96,15.1,35.48,10.38,78.1-6.03,112.26-37.9,78.92-130.59,112.38-210.66,128.85-200.22,41.19-403.05-18.83-590.72-85.21-23.1-8.17-46.15-16.49-69.2-24.81-13.85-5-19.82,17.07-6.07,22.03,177.28,63.99,360.18,129.2,551.45,123.72,86.27-2.47,178.71-17.68,254.41-61.39,65.6-37.88,116.89-106.26,107.67-185.4-4.4-37.73-22.84-70.09-53.19-92.98-31.4-23.69-70.38-34.94-108.03-44.22-84.49-20.82-175.57-31.72-250.59-79.07-61.4-38.76-114.41-106.25-102.4-182.89,5.91-37.7,26.14-73.49,56.67-96.66,30.99-23.53,71.69-34.05,110.23-29.09,35.58,4.58,71.31,23.59,89.83,55.15,17.56,29.92,13.76,67.65-7.38,94.87-21.44,27.6-57.3,36.7-90.16,26.47-15.51-4.83-29.92-14.05-40.08-26.82-11.44-14.39-19.26-36.41-10.56-54,6.86-13.87,23.1-21.2,37.46-15.14,5.73,2.42,12.51-2.6,14.05-7.98,1.89-6.57-2.32-11.67-7.98-14.05h0Z"/>
  <path class="cls-3" d="m967.57,232.39c-67.38,20.96-146.72,50.12-166.26,126.61-19.39,75.92,50.47,125.81,107.09,159.79,65.75,39.46,138.09,66.7,211.07,89.45,36.65,11.42,73.63,21.74,110.61,32.04,35.76,9.95,78.15,16.78,107.15,41.62,14.21,12.17,24.76,28.57,25.04,47.74.27,18.73-8.05,36.96-19.91,51.15-27.19,32.51-71.18,43.4-110.4,53.66-14.21,3.72-8.19,25.76,6.07,22.03,36.29-9.49,73.6-19.76,103.58-43.35,25.67-20.19,45.26-52.81,43.41-86.31-4.51-81.27-106.84-96.8-168.13-113.94-74.25-20.76-148.82-42.25-219.38-73.71-34.64-15.44-68.28-33.26-99.94-54.18-27.8-18.37-59.26-40.45-71.74-72.79-14.55-37.71,4.76-77.83,32.84-103.52,31.67-28.96,74.9-41.78,114.97-54.25,13.99-4.35,8.02-26.41-6.07-22.03h0Z"/>
  <path class="cls-3" d="m435.44,409.22c-60.63,58.5-106.59,139.71-103.6,226.07,2.8,80.65,49.18,153.06,111.76,201.54,157.18,121.77,369.78,77.73,551.53,62.11,106.77-9.18,219.37-9.21,318.37,37.33,13.23,6.22,24.84-13.47,11.53-19.73-179.01-84.15-376.77-25.2-564.42-19.88-89.26,2.53-182.68-7.34-262.17-50.98-66.23-36.37-122.1-98.3-138.97-173.28-20.79-92.42,26.95-184.15,92.12-247.03,10.6-10.23-5.57-26.37-16.15-16.15h0Z"/>
  <path class="cls-3" d="m441.32,1027.51c194.62,32.27,381.17,111.87,580.55,113.75,91.93.87,185.06-15.27,266.75-58.9,83.98-44.85,151.07-114.23,230.93-165.25,81.25-51.91,190.98-86.62,278.64-28.41,12.28,8.16,23.74-11.62,11.53-19.73-75.51-50.14-172.98-37.74-250.83-.23-85.34,41.12-152.78,109.39-230.31,162.38-39.27,26.84-81.23,48.67-126.71,62.88-44.3,13.84-90.32,21.18-136.62,23.54-95.33,4.86-189.86-10.49-282.38-32.22-111.92-26.28-221.89-61-335.48-79.84-14.38-2.38-20.57,19.63-6.07,22.03h0Z"/>
  <path class="cls-3" d="m1512.93,1116.62c-151.94,1.39-303.86-13.1-452.71-43.7-73.81-15.18-145.85-36.24-218.71-55.17-70.42-18.3-144.03-33.01-216.99-23.74-72.67,9.24-140.23,42.81-190.83,95.94-10.14,10.65,5.99,26.83,16.15,16.15,44.2-46.41,102.18-77.23,165.41-87.83,71.25-11.94,144.07,2.07,213.13,19.69,71.69,18.29,142.44,39.44,214.9,54.73,72.19,15.23,145.16,26.73,218.52,34.6,83.39,8.94,167.26,12.95,251.13,12.18,14.69-.13,14.73-22.98,0-22.85h0Z"/>
  <path class="cls-3" d="m268.11,946.59c160.12,15.34,322.58,4.54,479.28-31.8,78.84-18.28,154.33-46.45,231.94-68.89,71.64-20.71,147.99-34.29,221.9-17.31,64.52,14.82,123.17,55.37,147.56,118.78,10.97,28.52,14.31,59.67,6.12,89.37-8.43,30.53-27.26,56.45-49.03,78.94-22.34,23.07-47.61,43.03-72.16,63.64-23.53,19.75-55.98,44.93-51.89,79.6,3.94,33.34,39.71,49.47,68.21,57.6,30.81,8.78,63.26,9.18,94.68,3.69,64.17-11.2,122.47-47.84,165.7-95.78,47.6-52.8,79.74-116.88,107.78-181.62,6.98-16.12,13.76-32.34,20.51-48.56,5.65-13.56-16.45-19.47-22.03-6.07-50.6,121.51-112.58,262.06-249.96,303.32-29.81,8.95-61.82,12.55-92.65,7.12-22.8-4.01-72.12-15.96-69.73-47.01,1.3-16.85,16.1-30.57,27.95-41.09,11.59-10.29,23.63-20.09,35.54-30,24.45-20.35,49.03-41.04,69.44-65.58,19.75-23.75,35.78-51.13,41.96-81.7,6.02-29.75,3-60.88-7.43-89.31-22.55-61.49-72.87-106.47-133.82-128.39-147.67-53.12-299.53,24.41-440.33,63-153.2,41.98-313.02,58.72-471.6,49.68-19.34-1.1-38.65-2.61-57.93-4.46-14.63-1.4-14.53,21.45,0,22.85h0Z"/>
  <path class="cls-3" d="m726.53,940.85c-129.63-7.88-254.78,63.18-313.69,179-27.92,54.9-43.18,120.13-31.29,181.39,11.74,60.49,55.21,104.72,112.94,123.72,61.68,20.3,127.37,9.31,186.94-12.79,32.13-11.92,63.77-26.18,94.26-41.83,24.59-12.62,49.64-30.13,57.8-58.02,8.86-30.32-5.14-63-26.65-84.44-23.21-23.12-55.28-37.95-85.16-50.4-27.37-11.41-63.12-14.61-83.07,12.04-18.41,24.59-3.06,57.7,21.95,70.6,29,14.96,66.75,10.96,98.22,8.96,33.68-2.14,67.26-6.87,100.22-14.09,66.5-14.57,130.93-39.56,189.83-73.72,14.41-8.36,28.45-17.31,42.18-26.74,12.04-8.27.63-28.08-11.53-19.73-98.7,67.8-215.91,107.43-335.66,112.2-25.42,1.01-63.72,6.03-82.81-14.94-7.86-8.63-11.16-21.2-2.78-30.63,8.42-9.48,22.52-11.34,34.35-9.29,15.46,2.68,29.76,10.35,43.74,17.12,12.62,6.11,25.15,12.52,36.78,20.38,22.16,14.98,42.74,39.59,40.06,68.09-2.44,25.99-26.74,41.33-47.75,52.24-27.01,14.02-55.1,26.75-83.5,37.68-52.87,20.35-110.42,33.37-166.58,19.5-50.69-12.51-93.3-45.56-108.14-96.96-15.18-52.6-4.28-111.65,17-161.04,44.96-104.36,145.71-177,259.31-185.29,14.33-1.05,28.68-1.04,43.02-.17s14.63-21.96,0-22.85h0Z"/>
  <path class="cls-3" d="m101.95,187.1c121.22,109.35,282.85,171.14,446.05,171.8,89.99.37,176.6-21.14,262.04-47.57,92.59-28.64,185.23-60.65,282.54-68.24,97.12-7.58,200.48,10.11,277.77,73.12,11.3,9.21,27.56-6.86,16.15-16.15-67.31-54.88-153.29-79.57-239.25-81.43-96.24-2.09-190.18,22.89-281.31,51.26-87.98,27.39-176.25,57.71-268.8,64.48-81.92,6-164.53-4.18-242.81-28.91-87.12-27.53-168.35-73.28-236.23-134.51-10.89-9.83-27.1,6.28-16.15,16.15h0Z"/>
  <path class="cls-3" d="m525.99,96.82c-16.91,90.39,13.09,182.53,68.02,254.63,58.2,76.39,141.69,127.06,230.32,161.11,97.09,37.3,201.25,57.73,304.18,70.58,109.96,13.73,221.34,16.09,331.77,6.95,60.56-5.01,125.37-20.08,185.28-3.47,42.8,11.87,85.55,47.23,85.96,94.79.13,14.69,22.97,14.73,22.85,0-.37-42.2-27.24-77.69-62.14-99.18-43.05-26.5-95.37-27.82-144.31-23.73-55.1,4.62-109.73,11.37-165.06,13.26-55.37,1.89-110.85.91-166.12-2.92-107.32-7.43-214.95-24.96-318.23-55.39-92.21-27.17-184.11-68.16-252.82-137.18-70.19-70.51-116.49-172.82-97.68-273.37,2.69-14.37-19.33-20.53-22.03-6.07h0Z"/>
  <path class="cls-3" d="m1067.73,29.54c16.78,66.1,64.66,121.37,112.31,168.1,45.91,45.02,98.16,83.79,154.34,115.05,56.67,31.53,117.62,55.72,180.57,71.33s130.69,21.68,197.4,20.7c41.57-.61,84.46-1.53,124.07,13,30.65,11.25,59.87,32.85,71.76,64.22,5.16,13.62,27.25,7.71,22.03-6.07-23.58-62.21-89.67-87.88-151.41-92.89-38.24-3.1-76.65.02-114.95-1.15-31.93-.98-63.76-4.21-95.22-9.75-127.4-22.44-248.63-80.12-345.7-165.75-27.56-24.31-53.26-50.79-76.52-79.26-25.09-30.72-46.8-64.82-56.65-103.61-3.61-14.24-25.65-8.21-22.03,6.07h0Z"/>
  <path class="cls-3" d="m1489.16,85.9c-30.15,111.84-61.29,226.62-130.23,321.76-31.53,43.53-70.94,81.05-117.47,108.16-47.93,27.92-101.2,45.05-155.18,56.79-117.53,25.55-239.55,24.74-355.79,57.07-93.6,26.03-180.99,71.97-256.87,132.45-76.1,60.66-140.42,136.78-186.44,222.59-5.67,10.58-11.04,21.32-16.17,32.17-6.24,13.22,13.45,24.83,19.73,11.53,41.69-88.34,102.01-166.84,175.78-230.8,73.88-64.06,161.21-113.07,254.83-141.49,114.86-34.86,236.05-34.88,353.21-57.82,54.63-10.69,108.67-26.48,158.4-51.84,47.99-24.47,90.13-58.69,124.58-100.06,74.34-89.28,111.45-200.88,141.91-311.23,3.97-14.39,7.86-28.8,11.74-43.21s-18.2-20.28-22.03-6.07h0Z"/>
  <path class="cls-3" d="m466.77,117.86c-85.15,71.93-160.3,158.5-209.31,259.23-47.74,98.11-68.14,207.48-51.3,315.81,8.14,52.42,25.37,103.77,51.98,149.75,27.53,47.58,65.22,87.57,108.83,120.77,45.67,34.77,96.89,61.48,149,85.14,56.31,25.57,113.74,49.43,172.2,69.65,118.31,40.93,247.86,64.23,371.24,32.07,15.1-3.94,29.92-8.77,44.49-14.37,13.58-5.22,7.68-27.32-6.07-22.03-115.11,44.25-241.34,31.76-357.21-2.74-59.78-17.8-117.82-41.05-175.1-65.59-50.35-21.57-100.3-44.72-146.71-74-45.76-28.86-88.24-64.28-120.12-108.32-30.05-41.51-50.89-88.88-62.98-138.59-24.7-101.56-12.37-208.76,27.38-304.8,41.29-99.78,110.09-186.57,189.31-259.03,10-9.14,20.2-18.06,30.55-26.8,11.25-9.5-4.98-25.59-16.15-16.15h0Z"/>
  <path class="cls-3" d="m926.28,146.95c-89.49,128.28-120.49,293.53-88.79,446.21,16.81,80.96,53.05,154.96,99.75,222.76,49.25,71.49,107.62,135.94,160.23,204.86,57.84,75.77,109.92,158.51,129.85,252.95,3.03,14.38,25.06,8.29,22.03-6.07-35.79-169.59-165.82-292.83-265.9-426.47-49.25-65.77-92.06-136.48-114.62-216.05-20.84-73.49-25.87-151.35-15.61-227.02,11.64-85.85,43.18-168.54,92.77-239.63,8.43-12.08-11.37-23.52-19.73-11.53h0Z"/>
  <path class="cls-2" d="m1213.62,251.08c-73.68,5.96-136.28,61.06-158.42,130.65-24.95,78.39.68,164.85,51.74,226.84,51.95,63.07,126.66,99.74,203.86,121.9,81.43,23.37,169.07,35.59,239.61,85.96,68.47,48.9,114.95,128.47,123.68,212.14,1.51,14.48,24.37,14.63,22.85,0-7.62-72.99-40.06-141.93-91.31-194.51-56.81-58.29-131.56-84.95-208.73-104.77-78.58-20.18-157.78-38.59-223.65-88.69-62.55-47.59-106.72-120.5-104.7-200.76s61.43-159.14,145.07-165.9c14.55-1.18,14.68-24.03,0-22.85h0Z"/>
  <path class="cls-2" d="m426.75,393.93c-75.2,64.54-49.23,185.02-6.9,260.24,46.88,83.31,126.38,145.78,214.42,180.92,109.07,43.53,230.26,46.98,345.58,33.29,123.21-14.62,242.85-48.45,364.05-73.76,120.4-25.15,246.12-42.25,368.46-20.53,14.89,2.64,29.65,5.89,44.3,9.64,14.25,3.65,20.33-18.38,6.07-22.03-239.16-61.23-477.33,31.97-711.19,73.11-112.24,19.74-229.59,27.66-341.32.44-94.07-22.92-181.9-72.68-242.08-149.66-31.4-40.16-54.32-87.72-62.99-138.14-8.28-48.15-1.17-103.95,37.76-137.36,11.17-9.59-5.05-25.69-16.15-16.15h0Z"/>
  <path class="cls-2" d="m694.84,94.97c-102.97,140.56-194.14,293.2-243.65,461.35-45.01,152.86-52.07,318.43-3.88,471.52,26.16,83.1,68.57,160.63,127.31,225.19,9.92,10.9,26.03-5.3,16.15-16.15-103.26-113.49-151.01-267.06-153.8-418.61-3.03-164.31,48.09-324.01,123.51-468.48,44.49-85.21,97.32-165.8,154.08-243.29,8.7-11.87-11.12-23.28-19.73-11.53h0Z"/>
  <path class="cls-2" d="m398.54,578.46c2.22,195.98,125.1,373.46,288.24,474.43,186.64,115.51,414.85,138.72,629.21,117.29,134.15-13.41,265.96-42.87,396.67-75.05,14.27-3.51,8.22-25.55-6.07-22.03-220.05,54.19-447.73,101.84-675.22,72.82-197.34-25.17-392-111.99-510.2-277.38-60.53-84.69-98.6-185.38-99.79-290.08-.17-14.69-23.01-14.73-22.85,0h0Z"/>
  <path class="cls-2" d="m1144.13,60.63c-48.19,46.89-87.07,105.88-100.66,172.51-13.97,68.49-.75,139.26,41.99,195.16,39.85,52.13,97.49,89.15,158.29,112.31,64.19,24.45,135.29,32.03,202.64,17.17,62.28-13.74,121.59-46.75,163.03-95.66,21.09-24.89,38.37-54.19,45.24-86.37,6.74-31.6,2.49-63.34-11.1-92.52-12.92-27.72-33.86-51.66-57.06-71.29-25.04-21.17-53.76-40.15-84.78-51.19-30.65-10.91-65.08-10.69-91.69,9.74-23.11,17.75-34.35,47.29-22.17,74.88,11.44,25.92,38.5,40.83,63.72,50.61,32.88,12.75,68.16,20.79,102.96,26.14,72.4,11.12,146.5,8.84,217.99-7.32,17.48-3.95,34.74-8.79,51.77-14.37,13.91-4.56,7.95-26.62-6.07-22.03-62.37,20.43-127.75,29.77-193.35,27.55-33.09-1.12-66-5.15-98.35-12.18-28.52-6.2-58.76-13.34-84.72-27.08-20.12-10.66-42.85-30.1-34.68-55.63,8.39-26.21,38.57-37.22,63.74-34.39,30.77,3.46,59.65,21.65,84.22,39.46,22.15,16.05,42.69,35.62,57.63,58.65,14.75,22.74,23.58,48.69,22.37,76-1.36,30.58-15.05,59.38-32.8,83.79-33.76,46.43-85.34,79.12-139.88,95.46-115.51,34.59-251.54-4.87-336.15-89.63-43.55-43.63-67.55-100.07-65.37-162.05,2.2-62.29,29.55-121.2,68.93-168.71,9.54-11.52,19.77-22.42,30.49-32.84,10.56-10.27-5.61-26.42-16.15-16.15h0Z"/>
  <path class="cls-2" d="m1579.38,94.71c50.1,118.44,80.53,245.39,90,373.62,4.7,63.71,4.34,127.8-1.22,191.44-5.09,58.3-13.44,117.49-34.7,172.35-20.71,53.44-56.06,98.53-105.64,127.84-51.85,30.66-112.07,43.44-171.77,45.62-68.45,2.5-136.86-7.19-204.47-16.73-67.31-9.49-134.39-20.56-201.19-33.19-133.58-25.25-265.99-56.75-396.63-94.35-16.63-4.79-33.22-9.68-49.8-14.66-14.11-4.24-20.14,17.8-6.07,22.03,134.94,40.53,271.8,74.62,410.02,101.97,68.5,13.55,137.33,25.46,206.4,35.71,69.5,10.31,139.77,21.25,210.15,22.35,63.26.99,126.78-7.6,184.88-33.57,53.72-24.02,98.37-63.52,126.86-115.17,28.42-51.51,41.29-109.83,49.01-167.66,8.71-65.25,11.82-131.25,9.55-197.03-4.55-132.14-30.65-263.74-77.61-387.36-5.71-15.04-11.78-29.94-18.05-44.76-2.42-5.73-10.76-6.87-15.63-4.1-5.92,3.37-6.49,9.98-4.1,15.63h0Z"/>
  <path class="cls-2" d="m916.42,48.88c-66.26,44.05-126.8,96.57-179.34,156.35-25.85,29.42-49.85,60.53-71.71,93.03s-47.29,70.53-37.28,111.21c8.47,34.39,40.67,55.92,70.78,70.17,38.72,18.32,79.65,32.19,121.49,41.33,39.68,8.67,81.28,14.37,121.97,13,33.18-1.11,68.09-7.75,94.96-28.44,62.16-47.89,40.97-137.96,1.1-192.98-41.58-57.39-114.77-95.01-184.78-66.53-31.68,12.88-56.03,38.14-65.27,71.37-8.56,30.8-3.55,65.38,17.32,90.19,24.11,28.65,63.36,37.94,99.1,40.36,43.11,2.93,86.77-3.48,128.1-15.67,82.64-24.36,155.65-71.54,225.97-119.96,76.91-52.95,153.55-106.29,230.32-159.45,18.81-13.02,37.61-26.04,56.42-39.07,12.01-8.31.6-28.12-11.53-19.73-70,48.47-140.01,96.94-210.01,145.41-65.01,45.01-129.15,92.68-199.13,129.83-69.21,36.74-147.37,62.54-226.62,55.26-30.63-2.81-65.69-12.92-81.99-41.37-13.91-24.28-11.33-56.08,2.45-79.82,15.54-26.77,45.78-41.62,76.01-43.78,32.51-2.32,63.69,8.59,89.3,28.45,25.35,19.67,45.77,47.42,57.95,77.05,12.01,29.22,18.08,65.5,3.69,95.03-29.92,61.4-117.92,54.08-173.91,46.77-38.39-5.01-76.34-14.29-112.84-27.18-31.51-11.12-67.76-23.95-91.96-48.05-11.31-11.26-18.54-25.4-18.29-41.63.31-19.46,9.74-37.72,19.51-54.05,18.33-30.63,39.65-59.79,62.1-87.5,45.08-55.62,96.91-106.1,154.12-149.17,14.19-10.68,28.71-20.91,43.5-30.74,12.19-8.1.76-27.9-11.53-19.73h0Z"/>
  <path class="cls-2" d="m543.98,88.08c-100.65,34.91-196.12,84.22-282.64,146.4-42.98,30.89-83.84,64.75-122,101.43-18.92,18.18-37.17,37.05-54.71,56.57-18.27,20.33-36.78,41.14-50.88,64.66-13.83,23.06-23.21,49.62-19.53,76.79,3.13,23.1,15.42,43.42,32.18,59.31,36.62,34.71,89.04,52.47,135.94,68.21,102.84,34.51,210.91,51.43,312.46,90.07,25.37,9.65,50.17,20.8,73.99,33.83,22.84,12.49,46.16,26.19,64.04,45.41s28.88,45.52,19.8,70.45c-9.27,25.46-38.57,34.93-63.27,35.65-15.05.44-30.05-1.41-44.94-3.41-6.16-.83-12.19,1.48-14.05,7.98-1.52,5.31,1.87,13.23,7.98,14.05,28.27,3.8,57.96,7.92,85.64-1.42,23.78-8.02,44.32-24.86,51.56-49.57,16.11-54.95-29.65-99.04-71.72-125.16-93.23-57.88-201.95-81.56-306.88-108.63-53.02-13.68-105.97-28.38-156.75-49.07-40.48-16.49-96.69-41.3-103.51-90.6-3.84-27.76,10.44-54.34,25.88-76.25,15.68-22.25,34.54-42.54,53.12-62.37,36.59-39.07,76.1-75.4,118.04-108.66,83.87-66.51,178.13-120.74,277.9-159.52,12.72-4.94,25.54-9.63,38.43-14.1,13.8-4.79,7.87-26.87-6.07-22.03h0Z"/>
  <path class="cls-2" d="m494,467.35c-27.07,20.01-32.59,55.77-21.02,86.26,13.88,36.58,48.73,56.6,83.79,69.37,43.53,15.86,89.03,27.21,133.43,40.38,47.86,14.2,95.73,28.39,143.59,42.59,44.5,13.2,90,24.82,133.1,42.2,37.99,15.32,74.62,37.25,99.93,70.14,22.78,29.61,33.8,66.94,25.52,103.87-8.08,36.03-30.5,67.18-58.43,90.7-76.93,64.79-187.26,56.38-280.89,49.72-14.67-1.04-14.61,21.81,0,22.85,86.77,6.17,182.79,12.66,261.56-31.6,64.03-35.98,115.21-107.75,100.86-183.85-16.04-85.05-100.03-130.74-174.85-155.63-46.44-15.44-93.79-28.37-140.7-42.28-47.26-14.02-94.52-28.03-141.77-42.05-25.46-7.55-51.02-14.82-76.37-22.74-21.12-6.6-42.52-14.25-60.49-27.53-15.92-11.76-27.4-27.86-30.48-47.66-2.51-16.12.93-34.78,14.77-45.01,11.7-8.64.31-28.48-11.53-19.73h0Z"/>
  <polygon class="cls-1" points="3 23.03 3 23.03 3 23.03 3 0 3 0 3 0 3 0 3 23.03 3 23.03"/>
</svg>