<?xml version="1.0" encoding="UTF-8"?>
<svg id="Layer_1" data-name="Layer 1" xmlns="http://www.w3.org/2000/svg" viewBox="0 0 800.56 648.09">
  <defs>
    <style>
      .cls-1, .cls-2 {
        fill: #f28f38;
      }

      .cls-1, .cls-3, .cls-4, .cls-5, .cls-6, .cls-7 {
        stroke: #fff;
        stroke-miterlimit: 10;
        stroke-width: 47px;
      }

      .cls-8, .cls-5 {
        fill: #d9753b;
      }

      .cls-9, .cls-3 {
        fill: #d30909;
      }

      .cls-10, .cls-4 {
        fill: #af0202;
      }

      .cls-11, .cls-6 {
        fill: #5f2c0e;
      }
    </style>
  </defs>
  <ellipse class="cls-4" cx="404.79" cy="596.61" rx="77.01" ry="27.98"/>
  <path class="cls-3" d="m775.23,286.68c22.63,122.78-171.08,240.38-247.83,286.96-42.31,25.68-75.77,40.07-116.44,41.77-46.41,1.94-88.48-12.4-145-48.33C157.5,498.12,11.39,411.12,24.3,297.92c6.55-57.48,53.1-115.02,88-140.28,8.01-5.8,27.18-18.42,51.67-30.83,0,0,27.01-13.69,57.5-24.17,84.27-28.95,185-28.33,185-28.33,68.89,0,139.85,10.77,203.14,37.96,27.44,11.79,50.16,26.13,53.58,28.31,7.42,4.72,31.26,19.9,50.88,38.9,32.38,31.36,55.23,75.02,61.16,107.2Z"/>
  <ellipse class="cls-7" cx="399.38" cy="306.35" rx="366.42" ry="227.18"/>
  <path class="cls-6" d="m125.6,373.5c34.1,114.38,220.97,131.64,256,134,95.08,6.39,256.73-17.37,290-114,20-58.1-14.98-117.6-64-201-50.6-86.08-89.48-152.21-160-166-103.36-20.21-196.14,87.41-232,129-41.62,48.28-115.17,133.59-90,218Z"/>
  <path class="cls-5" d="m135.11,345.97c30.04,105.53,194.66,121.46,225.52,123.64,83.76,5.9,226.16-16.02,255.47-105.18,17.62-53.6-13.19-108.51-56.38-185.45-44.57-79.42-78.82-140.44-140.95-153.16-91.06-18.64-172.79,80.65-204.37,119.02-36.66,44.54-101.45,123.25-79.28,201.14Z"/>
  <path class="cls-1" d="m187.14,252.22c23.58,74.78,152.78,86.07,176.99,87.61,65.74,4.18,177.49-11.35,200.5-74.53,13.83-37.98-10.35-76.89-44.25-131.41-34.98-56.28-61.86-99.52-110.62-108.53-71.46-13.21-135.61,57.15-160.4,84.34-28.77,31.56-79.62,87.34-62.22,142.53Z"/>
  <ellipse class="cls-10" cx="399.79" cy="596.61" rx="77.01" ry="27.98"/>
  <path class="cls-9" d="m770.23,286.68c22.63,122.78-171.08,240.38-247.83,286.96-42.31,25.68-75.77,40.07-116.44,41.77-46.41,1.94-88.48-12.4-145-48.33C152.5,498.12,6.39,411.12,19.3,297.92c6.55-57.48,53.1-115.02,88-140.28,8.01-5.8,27.18-18.42,51.67-30.83,0,0,27.01-13.69,57.5-24.17,84.27-28.95,185-28.33,185-28.33,68.89,0,139.85,10.77,203.14,37.96,27.44,11.79,50.16,26.13,53.58,28.31,7.42,4.72,31.26,19.9,50.88,38.9,32.38,31.36,55.23,75.02,61.16,107.2Z"/>
  <ellipse cx="394.38" cy="306.35" rx="366.42" ry="227.18"/>
  <path class="cls-11" d="m120.6,373.5c34.1,114.38,220.97,131.64,256,134,95.08,6.39,256.73-17.37,290-114,20-58.1-14.98-117.6-64-201-50.6-86.08-89.48-152.21-160-166-103.36-20.21-196.14,87.41-232,129-41.62,48.28-115.17,133.59-90,218Z"/>
  <path class="cls-8" d="m130.11,345.97c30.04,105.53,194.66,121.46,225.52,123.64,83.76,5.9,226.16-16.02,255.47-105.18,17.62-53.6-13.19-108.51-56.38-185.45-44.57-79.42-78.82-140.44-140.95-153.16-91.06-18.64-172.79,80.65-204.37,119.02-36.66,44.54-101.45,123.25-79.28,201.14Z"/>
  <path class="cls-2" d="m182.14,252.22c23.58,74.78,152.78,86.07,176.99,87.61,65.74,4.18,177.49-11.35,200.5-74.53,13.83-37.98-10.35-76.89-44.25-131.41-34.98-56.28-61.86-99.52-110.62-108.53-71.46-13.21-135.61,57.15-160.4,84.34-28.77,31.56-79.62,87.34-62.22,142.53Z"/>
</svg>